# Blender v3.4.1 OBJ File: 'November2024_Witch_Assets_Export.blend'
# www.blender.org
mtllib Basket_Handle.mtl
o Basket_Handle
v -0.014854 0.710147 -0.138366
v -0.036874 0.681016 -0.129460
v -0.021279 0.650877 -0.119558
v 0.013044 0.647226 -0.117503
v 0.036257 0.672601 -0.124941
v 0.023637 0.705535 -0.135973
v -0.027416 0.629281 -0.224388
v -0.034986 0.602885 -0.204110
v -0.008801 0.586256 -0.190595
v 0.024951 0.593077 -0.194797
v 0.036213 0.618087 -0.213807
v 0.009966 0.637559 -0.229934
v -0.037213 0.430080 -0.251794
v -0.017694 0.429720 -0.220687
v 0.017684 0.429722 -0.220675
v 0.037235 0.430087 -0.251938
v 0.019345 0.430274 -0.286006
v -0.019487 0.430244 -0.285924
v 0.037229 0.430080 0.251794
v 0.019503 0.430244 0.285924
v -0.019330 0.430274 0.286006
v -0.037220 0.430087 0.251938
v -0.017669 0.429722 0.220675
v 0.017709 0.429720 0.220687
v 0.027432 0.629281 0.224389
v -0.009951 0.637559 0.229934
v -0.036198 0.618087 0.213808
v -0.024936 0.593077 0.194798
v 0.008816 0.586256 0.190595
v 0.035002 0.602885 0.204110
v 0.014870 0.710147 0.138366
v -0.023622 0.705535 0.135974
v -0.036241 0.672601 0.124942
v -0.013029 0.647226 0.117503
v 0.021295 0.650877 0.119558
v 0.036889 0.681016 0.129460
v -0.051618 0.409439 -0.251370
v -0.024333 0.409452 -0.208377
v 0.024349 0.409452 -0.208377
v 0.051634 0.409439 -0.251370
v 0.026957 0.409416 -0.298859
v -0.026942 0.409416 -0.298859
v 0.051634 0.409439 0.251371
v 0.026957 0.409416 0.298859
v -0.026942 0.409416 0.298859
v -0.051618 0.409439 0.251371
v -0.024334 0.409452 0.208377
v 0.024349 0.409452 0.208377
v -0.052024 0.288853 -0.251354
v -0.024531 0.288852 -0.208019
v 0.024546 0.288852 -0.208019
v 0.052040 0.288853 -0.251354
v 0.027165 0.288859 -0.299204
v -0.027150 0.288859 -0.299204
v 0.052040 0.288853 0.251354
v 0.027165 0.288859 0.299204
v -0.027150 0.288859 0.299204
v -0.052024 0.288853 0.251354
v -0.024531 0.288852 0.208019
v 0.024546 0.288852 0.208019
v 0.000008 0.267675 -0.252809
v 0.000008 0.267675 0.252809
v 0.002668 0.733821 0.050909
v -0.002653 0.733821 -0.050909
v -0.033593 0.711691 -0.051172
v -0.031053 0.716464 0.051115
v -0.031987 0.680143 0.051645
v -0.028653 0.675266 -0.051741
v 0.003124 0.661438 -0.051985
v -0.003108 0.661438 0.051985
v 0.028669 0.675266 0.051741
v 0.032002 0.680143 -0.051645
v 0.033609 0.711691 0.051173
v 0.031069 0.716464 -0.051115
v -0.032407 0.552337 -0.258187
v -0.035766 0.476846 -0.263582
v -0.021405 0.458668 -0.231668
v -0.030606 0.538558 -0.232219
v -0.001097 0.532459 -0.219715
v 0.013180 0.452957 -0.227133
v 0.035403 0.460872 -0.252471
v 0.029846 0.539236 -0.230788
v 0.025119 0.479429 -0.282849
v 0.032335 0.553515 -0.257795
v -0.000419 0.560545 -0.272701
v -0.011338 0.485672 -0.289138
v 0.035782 0.476846 0.263583
v 0.032423 0.552337 0.258187
v 0.000434 0.560545 0.272701
v 0.011354 0.485672 0.289138
v -0.025104 0.479429 0.282849
v -0.032320 0.553515 0.257795
v -0.029831 0.539236 0.230788
v -0.035387 0.460872 0.252471
v -0.013164 0.452957 0.227133
v 0.001113 0.532459 0.219715
v 0.021421 0.458668 0.231668
v 0.030621 0.538558 0.232219
vt 0.947303 0.382136
vt 0.945247 0.385801
vt 0.942515 0.345669
vt 0.945208 0.344681
vt 0.947303 0.333569
vt 0.945247 0.329905
vt 0.942515 0.370037
vt 0.945208 0.371025
vt 0.941720 0.392380
vt 0.942228 0.391119
vt 0.940424 0.335396
vt 0.939292 0.338471
vt 0.939292 0.385346
vt 0.940424 0.382271
vt 0.941745 0.325627
vt 0.939642 0.327897
vt 0.942228 0.371461
vt 0.941720 0.370200
vt 0.944815 0.327280
vt 0.945679 0.324967
vt 0.939642 0.374772
vt 0.941745 0.372502
vt 0.945208 0.324150
vt 0.942515 0.323162
vt 0.938295 0.342671
vt 0.945247 0.338926
vt 0.944815 0.374155
vt 0.939039 0.378234
vt 0.938295 0.389546
vt 0.935823 0.345137
vt 0.942515 0.392544
vt 0.935823 0.392012
vt 0.934235 0.337149
vt 0.939642 0.340933
vt 0.939642 0.387808
vt 0.934235 0.384024
vt 0.934856 0.326796
vt 0.939292 0.330359
vt 0.939292 0.377234
vt 0.934856 0.373671
vt 0.937210 0.323377
vt 0.941720 0.323325
vt 0.937210 0.370252
vt 0.939039 0.331359
vt 0.930395 0.390670
vt 0.929825 0.334688
vt 0.918144 0.345685
vt 0.923730 0.345339
vt 0.924629 0.384700
vt 0.918180 0.387169
vt 0.921773 0.387912
vt 0.918181 0.386614
vt 0.918250 0.329091
vt 0.921165 0.330426
vt 0.921165 0.377301
vt 0.918250 0.375966
vt 0.918287 0.323145
vt 0.921995 0.323577
vt 0.921995 0.370452
vt 0.918287 0.370020
vt 0.918251 0.328536
vt 0.924001 0.326750
vt 0.924001 0.373625
vt 0.918251 0.375411
vt 0.918180 0.340294
vt 0.924629 0.337825
vt 0.923730 0.392214
vt 0.918144 0.392560
vt 0.918181 0.339739
vt 0.921773 0.341037
vt 0.931689 0.344281
vt 0.932446 0.381415
vt 0.929825 0.381563
vt 0.930441 0.325225
vt 0.930441 0.372100
vt 0.931781 0.324580
vt 0.931781 0.371455
vt 0.932446 0.334540
vt 0.918144 0.370020
vt 0.923730 0.370366
vt 0.924629 0.331005
vt 0.918180 0.328536
vt 0.918180 0.375411
vt 0.924629 0.377880
vt 0.924001 0.342080
vt 0.918251 0.340294
vt 0.938295 0.326159
vt 0.931689 0.324549
vt 0.930395 0.371910
vt 0.935823 0.370568
vt 0.932446 0.381165
vt 0.939039 0.384346
vt 0.937210 0.345453
vt 0.931781 0.344250
vt 0.918287 0.392560
vt 0.921995 0.392128
vt 0.921165 0.338404
vt 0.918250 0.339739
vt 0.930441 0.390480
vt 0.934856 0.388909
vt 0.934235 0.331681
vt 0.929825 0.334142
vt 0.929825 0.381017
vt 0.934235 0.378556
vt 0.935823 0.323693
vt 0.930395 0.325035
vt 0.931690 0.371424
vt 0.938295 0.373034
vt 0.939039 0.337471
vt 0.932446 0.334290
vt 0.923730 0.323491
vt 0.918144 0.323145
vt 0.918181 0.375966
vt 0.921773 0.374669
vt 0.931781 0.391125
vt 0.937210 0.392328
vt 0.934856 0.342034
vt 0.930441 0.343605
vt 0.918251 0.387169
vt 0.924001 0.388955
vt 0.921995 0.345253
vt 0.918287 0.345685
vt 0.918250 0.386614
vt 0.921165 0.385279
vt 0.921773 0.327794
vt 0.918181 0.329091
vt 0.945247 0.376780
vt 0.944815 0.341550
vt 0.944815 0.388425
vt 0.941720 0.345505
vt 0.945679 0.390738
vt 0.942228 0.344244
vt 0.947303 0.335261
vt 0.945679 0.371842
vt 0.945208 0.391556
vt 0.941745 0.343203
vt 0.941745 0.390078
vt 0.940424 0.333434
vt 0.940424 0.380309
vt 0.942228 0.324586
vt 0.918250 0.403538
vt 0.918181 0.461061
vt 0.918181 0.461061
vt 0.918250 0.403538
vt 0.918181 0.450413
vt 0.918144 0.397592
vt 0.918144 0.397592
vt 0.918181 0.450413
vt 0.918287 0.397592
vt 0.918250 0.450413
vt 0.918250 0.450413
vt 0.918287 0.397592
vt 0.918250 0.461061
vt 0.918181 0.403538
vt 0.918181 0.403538
vt 0.918250 0.461061
vt 0.918180 0.414741
vt 0.918251 0.449858
vt 0.918251 0.449858
vt 0.918180 0.414741
vt 0.918180 0.449858
vt 0.918251 0.414741
vt 0.918251 0.414741
vt 0.918180 0.449858
vt 0.918144 0.444467
vt 0.918180 0.402983
vt 0.918180 0.402983
vt 0.918144 0.444467
vt 0.918251 0.402983
vt 0.918287 0.444467
vt 0.918287 0.444467
vt 0.918251 0.402983
vt 0.918181 0.414186
vt 0.918144 0.467007
vt 0.918144 0.467007
vt 0.918181 0.414186
vt 0.918287 0.467007
vt 0.918250 0.414186
vt 0.918250 0.414186
vt 0.918287 0.467007
vt 0.918251 0.461616
vt 0.918287 0.420132
vt 0.918287 0.420132
vt 0.918251 0.461616
vt 0.918144 0.420132
vt 0.918180 0.461616
vt 0.918180 0.461616
vt 0.918144 0.420132
vt 0.918251 0.328536
vt 0.918287 0.370020
vt 0.918287 0.370020
vt 0.918251 0.328536
vt 0.918251 0.387169
vt 0.918287 0.345685
vt 0.918287 0.345685
vt 0.918251 0.387169
vt 0.918250 0.386614
vt 0.918181 0.329091
vt 0.918181 0.329091
vt 0.918250 0.386614
vt 0.918287 0.323145
vt 0.918250 0.375966
vt 0.918250 0.375966
vt 0.918287 0.323145
vt 0.918180 0.375411
vt 0.918251 0.340294
vt 0.918251 0.340294
vt 0.918180 0.375411
vt 0.918181 0.375966
vt 0.918144 0.323145
vt 0.918144 0.323145
vt 0.918181 0.375966
vt 0.918144 0.345685
vt 0.918180 0.387169
vt 0.918180 0.387169
vt 0.918144 0.345685
vt 0.918287 0.392560
vt 0.918250 0.339739
vt 0.918250 0.339739
vt 0.918287 0.392560
vt 0.918250 0.329091
vt 0.918181 0.386614
vt 0.918181 0.386614
vt 0.918250 0.329091
vt 0.918144 0.370020
vt 0.918180 0.328536
vt 0.918180 0.328536
vt 0.918144 0.370020
vt 0.918180 0.340294
vt 0.918251 0.375411
vt 0.918251 0.375411
vt 0.918180 0.340294
vt 0.918181 0.339739
vt 0.918144 0.392560
vt 0.918144 0.392560
vt 0.918181 0.339739
vt 0.918251 0.328536
vt 0.918181 0.339739
vt 0.918251 0.387169
vt 0.918250 0.386614
vt 0.918287 0.323145
vt 0.918180 0.375411
vt 0.918181 0.375966
vt 0.918144 0.345685
vt 0.918287 0.392560
vt 0.918250 0.329091
vt 0.918144 0.370020
vt 0.918180 0.340294
vt 0.945679 0.343863
vt 0.947303 0.380444
vt 0.930395 0.343795
vt 0.931689 0.391156
vn -0.6070 0.7913 -0.0732
vn -0.8007 0.5600 -0.2130
vn -0.8333 0.5024 -0.2309
vn -0.6252 0.7753 -0.0897
vn 0.6070 0.7913 0.0732
vn 0.8007 0.5600 0.2130
vn 0.8333 0.5024 0.2309
vn 0.6252 0.7753 0.0897
vn -0.7658 -0.5880 -0.2603
vn -0.5679 -0.8178 -0.0933
vn -0.5660 -0.8193 -0.0914
vn -0.7669 -0.5862 -0.2611
vn 0.0903 -0.8805 -0.4655
vn 0.3588 -0.9242 -0.1309
vn 0.3794 -0.9189 -0.1083
vn 0.1152 -0.8935 -0.4340
vn 0.9974 0.0691 -0.0208
vn 0.9264 0.3175 -0.2026
vn 0.9277 0.3153 -0.1998
vn 0.9979 0.0615 -0.0195
vn 0.8708 -0.4103 -0.2708
vn 0.9817 -0.1852 -0.0449
vn 0.9877 -0.1527 -0.0333
vn 0.9003 -0.3767 -0.2181
vn -0.2256 0.6091 -0.7603
vn 0.1041 0.8822 -0.4593
vn 0.1312 0.8943 -0.4278
vn -0.1932 0.6469 -0.7377
vn -0.9524 0.2262 -0.2044
vn -0.9720 0.1660 -0.1663
vn -0.9003 -0.3767 0.2181
vn -0.6813 -0.4687 0.5623
vn -0.6429 -0.4576 0.6142
vn -0.8708 -0.4103 0.2708
vn -0.1152 -0.8935 0.4340
vn 0.1765 -0.6418 0.7463
vn 0.1834 -0.6329 0.7522
vn -0.0903 -0.8805 0.4655
vn 0.7669 -0.5863 0.2611
vn 0.9303 -0.2600 0.2587
vn 0.9214 -0.2808 0.2688
vn 0.7658 -0.5880 0.2603
vn 0.7121 0.4233 -0.5601
vn 0.7164 0.4240 -0.5541
vn -0.4216 -0.2769 0.8635
vn -0.3899 -0.2343 0.8906
vn -0.8162 -0.0082 -0.5777
vn -0.7417 0.0644 -0.6677
vn -0.6997 0.0998 -0.7074
vn -0.1801 0.0797 0.9804
vn -0.0363 0.3116 0.9495
vn -0.1308 0.1624 0.9780
vn 0.7024 0.0595 0.7093
vn 0.7810 0.1694 0.6012
vn 0.6856 0.0390 0.7270
vn 0.9529 -0.0100 -0.3030
vn 0.9124 -0.0316 -0.4081
vn 0.9717 0.0033 -0.2363
vn 0.2033 0.1024 -0.9737
vn 0.0812 -0.0114 -0.9966
vn 0.2063 0.1052 -0.9728
vn -0.9447 0.0082 0.3278
vn -0.8583 0.1241 0.4979
vn -0.9012 0.0744 0.4270
vn -0.4969 0.2991 -0.8146
vn -0.4669 0.3309 -0.8201
vn 0.4458 -0.2870 0.8479
vn 0.4518 -0.2787 0.8475
vn 0.9985 -0.0453 0.0306
vn 0.9981 -0.0490 0.0384
vn 0.4541 0.3129 -0.8342
vn 0.4423 0.3042 -0.8437
vn 0.8162 -0.0082 0.5777
vn 0.7417 0.0644 0.6677
vn 0.6997 0.0998 0.7074
vn -0.0812 -0.0114 0.9966
vn -0.2063 0.1052 0.9728
vn -0.2033 0.1024 0.9737
vn 0.9524 0.2262 0.2044
vn 0.9987 0.0068 -0.0515
vn 0.9941 -0.0079 -0.1080
vn 0.9720 0.1660 0.1663
vn -0.4423 0.3042 0.8437
vn -0.7164 0.4240 0.5541
vn -0.7121 0.4233 0.5601
vn -0.4541 0.3129 0.8342
vn -0.7810 0.1694 -0.6012
vn -0.6856 0.0390 -0.7270
vn -0.7024 0.0595 -0.7093
vn -0.4518 -0.2787 -0.8475
vn -0.1834 -0.6329 -0.7522
vn -0.1765 -0.6418 -0.7463
vn -0.4458 -0.2870 -0.8479
vn 0.3899 -0.2343 -0.8906
vn 0.6429 -0.4576 -0.6142
vn 0.6813 -0.4687 -0.5623
vn 0.4216 -0.2769 -0.8635
vn 0.4969 0.2991 0.8146
vn 0.2256 0.6091 0.7603
vn 0.1932 0.6469 0.7377
vn 0.4669 0.3309 0.8201
vn 0.9447 0.0082 -0.3278
vn 0.8583 0.1241 -0.4979
vn 0.9012 0.0744 -0.4270
vn -0.9981 -0.0490 -0.0384
vn -0.9214 -0.2808 -0.2688
vn -0.9303 -0.2599 -0.2587
vn -0.9985 -0.0453 -0.0306
vn -0.9124 -0.0316 0.4081
vn -0.9717 0.0033 0.2363
vn -0.9529 -0.0100 0.3030
vn 0.0363 0.3116 -0.9495
vn 0.1308 0.1624 -0.9780
vn 0.1801 0.0797 -0.9804
vn -0.1041 0.8822 0.4593
vn -0.1312 0.8943 0.4278
vn -0.9277 0.3153 0.1998
vn -0.9264 0.3175 0.2026
vn -0.9979 0.0615 0.0195
vn -0.9974 0.0691 0.0208
vn 0.4098 0.9052 -0.1129
vn 0.4131 0.9041 -0.1098
vn -0.9877 -0.1527 0.0333
vn -0.9817 -0.1852 0.0449
vn -0.3794 -0.9189 0.1083
vn -0.3588 -0.9242 0.1308
vn 0.5660 -0.8193 0.0914
vn 0.5679 -0.8178 0.0933
vn -0.0001 0.5189 0.8548
vn 0.7235 0.5152 -0.4594
vn 0.7232 0.5165 0.4586
vn 0.0001 0.5189 -0.8548
vn -0.0009 0.5261 -0.8504
vn 0.0009 0.5261 0.8504
vn 0.7590 0.5188 0.3934
vn 0.7582 0.5189 -0.3947
vn -0.7235 0.5152 0.4594
vn -0.7232 0.5165 -0.4586
vn -0.7582 0.5189 0.3947
vn -0.7590 0.5188 -0.3934
vn 0.8873 0.0029 -0.4612
vn -0.8873 0.0029 0.4612
vn 0.0000 0.0030 -1.0000
vn 0.8444 0.0029 0.5358
vn 0.0000 0.0029 1.0000
vn 0.8444 0.0029 -0.5358
vn -0.8873 0.0029 -0.4612
vn -0.8444 0.0029 -0.5358
vn 0.0000 0.0030 1.0000
vn 0.8873 0.0029 0.4612
vn 0.0000 0.0029 -1.0000
vn -0.8444 0.0029 0.5358
vn 0.1892 -0.9304 -0.3141
vn 0.3766 -0.9263 0.0150
vn 0.0000 -1.0000 0.0079
vn -0.1845 -0.9237 0.3357
vn -0.3766 -0.9263 0.0150
vn -0.1892 -0.9304 0.3141
vn -0.3766 -0.9263 -0.0150
vn 0.0000 -1.0000 -0.0079
vn -0.1845 -0.9237 -0.3357
vn 0.1845 -0.9237 -0.3357
vn 0.1845 -0.9237 0.3357
vn 0.1892 -0.9304 0.3141
vn 0.3766 -0.9263 -0.0150
vn -0.1892 -0.9304 -0.3141
vn -0.4131 0.9041 0.1098
vn -0.4098 0.9052 0.1129
vn -0.9941 -0.0079 0.1080
vn -0.9987 0.0068 0.0515
usemtl witch
s 1
f 64/1/1 1/2/2 2/3/3 65/4/4
f 63/5/5 31/6/6 36/7/7 73/8/8
f 33/9/9 67/10/10 70/11/11 34/12/12
f 34/13/13 70/14/14 71/15/15 35/16/16
f 72/17/17 5/18/18 6/19/19 74/20/20
f 35/21/21 71/22/22 73/23/23 36/24/24
f 7/25/25 1/26/26 6/27/27 12/28/28
f 1/2/2 7/29/29 8/30/30 2/3/3
f 2/31/31 8/32/32 9/33/33 3/34/34
f 3/35/35 9/36/36 10/37/37 4/38/38
f 4/39/39 10/40/40 11/41/41 5/42/42
f 5/18/18 11/43/43 12/44/44 6/19/19
f 8/32/32 78/45/45 79/46/46 9/33/33
f 13/47/47 76/48/48 86/49/49 18/50/47
f 77/51/50 14/52/51 15/53/51 80/54/52
f 80/55/53 15/56/54 16/57/54 81/58/55
f 81/59/56 16/60/57 17/61/57 83/62/58
f 83/63/59 17/64/60 18/65/60 86/66/61
f 76/67/62 13/68/63 14/69/63 77/70/64
f 75/71/65 7/25/25 12/28/28 85/72/66
f 9/36/36 79/73/67 82/74/68 10/37/37
f 10/40/40 82/75/69 84/76/70 11/41/41
f 11/43/43 84/77/71 85/78/72 12/44/44
f 19/79/73 87/80/74 90/81/75 20/82/73
f 20/83/76 90/84/77 91/85/78 21/86/76
f 25/87/79 88/88/80 98/89/81 30/90/82
f 89/91/83 26/92/84 27/93/85 92/94/86
f 22/95/87 94/96/88 95/97/89 23/98/87
f 93/99/90 28/100/91 29/101/92 96/102/93
f 96/103/94 29/104/95 30/105/96 98/106/97
f 88/107/98 25/108/99 26/109/100 89/110/101
f 87/111/102 19/112/103 24/113/103 97/114/104
f 92/115/105 27/116/106 28/117/107 93/118/108
f 21/119/109 91/120/110 94/121/111 22/122/109
f 23/123/112 95/124/113 97/125/114 24/126/112
f 31/6/6 25/87/79 30/90/82 36/7/7
f 25/108/99 31/127/115 32/128/116 26/109/100
f 26/92/84 32/129/117 33/130/118 27/93/85
f 27/116/106 33/9/9 34/12/12 28/117/107
f 28/100/91 34/13/13 35/16/16 29/101/92
f 29/104/95 35/21/21 36/24/24 30/105/96
f 32/129/117 66/131/119 67/132/120 33/130/118
f 1/26/26 64/133/121 74/134/122 6/27/27
f 65/135/123 2/31/31 3/34/34 68/136/124
f 68/137/125 3/35/35 4/38/38 69/138/126
f 69/139/127 4/39/39 5/42/42 72/140/128
f 15/141/129 14/142/129 38/143/129 39/144/129
f 24/145/130 19/146/130 43/147/130 48/148/130
f 16/149/131 15/150/131 39/151/131 40/152/131
f 23/153/132 24/154/132 48/155/132 47/156/132
f 18/157/133 17/158/133 41/159/133 42/160/133
f 20/161/134 21/162/134 45/163/134 44/164/134
f 19/165/135 20/166/135 44/167/135 43/168/135
f 17/169/136 16/170/136 40/171/136 41/172/136
f 14/173/137 13/174/137 37/175/137 38/176/137
f 22/177/138 23/178/138 47/179/138 46/180/138
f 21/181/139 22/182/139 46/183/139 45/184/139
f 13/185/140 18/186/140 42/187/140 37/188/140
f 41/189/141 40/190/141 52/191/141 53/192/141
f 45/193/142 46/194/142 58/195/142 57/196/142
f 47/197/143 48/198/143 60/199/143 59/200/143
f 40/201/144 39/202/144 51/203/144 52/204/144
f 44/205/145 45/206/145 57/207/145 56/208/145
f 48/209/146 43/210/146 55/211/146 60/212/146
f 37/213/147 42/214/147 54/215/147 49/216/147
f 46/217/148 47/218/148 59/219/148 58/220/148
f 39/221/149 38/222/149 50/223/149 51/224/149
f 43/225/150 44/226/150 56/227/150 55/228/150
f 42/229/151 41/230/151 53/231/151 54/232/151
f 38/233/152 37/234/152 49/235/152 50/236/152
f 53/192/153 52/191/154 61/237/155
f 50/236/156 49/235/157 61/238/155
f 57/196/158 58/195/159 62/239/160
f 59/200/161 60/199/162 62/240/160
f 52/204/154 51/203/163 61/241/155
f 56/208/164 57/207/158 62/242/160
f 60/212/162 55/211/165 62/243/160
f 49/216/157 54/215/166 61/244/155
f 58/220/159 59/219/161 62/245/160
f 51/224/163 50/223/156 61/246/155
f 55/228/165 56/227/164 62/247/160
f 54/232/166 53/231/153 61/248/155
f 64/1/1 65/4/4 66/249/167 63/250/168
f 68/137/125 69/138/126 70/11/11 67/10/10
f 63/5/5 73/8/8 74/134/122 64/133/121
f 72/17/17 74/20/20 73/23/23 71/22/22
f 65/135/123 68/136/124 67/132/120 66/131/119
f 69/139/127 72/140/128 71/15/15 70/14/14
f 31/127/115 63/250/168 66/249/167 32/128/116
f 76/67/62 77/70/64 78/251/169 75/252/170
f 80/55/53 81/58/55 82/74/68 79/73/67
f 75/71/65 85/72/66 86/49/49 76/48/48
f 88/107/98 89/110/101 90/81/75 87/80/74
f 92/115/105 93/118/108 94/121/111 91/120/110
f 87/111/102 97/114/104 98/89/81 88/88/80
f 96/103/94 98/106/97 97/125/114 95/124/113
f 77/51/50 80/54/52 79/46/46 78/45/45
f 81/59/56 83/62/58 84/76/70 82/75/69
f 83/63/59 86/66/61 85/78/72 84/77/71
f 89/91/83 92/94/86 91/85/78 90/84/77
f 93/99/90 96/102/93 95/97/89 94/96/88
f 7/29/29 75/252/170 78/251/169 8/30/30
