# Blender v3.4.1 OBJ File: 'November2024_Witch_Assets_Export.blend'
# www.blender.org
mtllib Mortar.mtl
o Mortar
v 0.000002 0.187428 -0.229556
v 0.000002 0.050139 0.000000
v 0.088751 0.292667 -0.214259
v 0.087849 0.187428 -0.212083
v 0.067237 0.105129 -0.162321
v 0.163988 0.292667 -0.163987
v 0.162323 0.187428 -0.162321
v 0.124237 0.105129 -0.124235
v 0.214261 0.279273 -0.088749
v 0.212085 0.187428 -0.087847
v 0.162323 0.105129 -0.067235
v 0.231914 0.279273 0.000000
v 0.229558 0.187428 0.000000
v 0.175697 0.105129 0.000000
v 0.214261 0.279273 0.088749
v 0.212084 0.187428 0.087848
v 0.162323 0.105129 0.067236
v 0.162323 0.187428 0.162321
v 0.124237 0.105129 0.124235
v 0.088751 0.279273 0.214259
v 0.087849 0.187428 0.212083
v 0.067237 0.105129 0.162321
v 0.000002 0.279273 0.231912
v 0.000002 0.187428 0.229557
v 0.000002 0.105129 0.175695
v -0.088747 0.279273 0.214259
v -0.087846 0.187428 0.212083
v -0.067234 0.105129 0.162321
v -0.163985 0.279273 0.163987
v -0.162319 0.187428 0.162321
v -0.124233 0.105129 0.124235
v -0.214257 0.262163 0.088749
v -0.212081 0.187428 0.087847
v -0.162319 0.105129 0.067236
v -0.231910 0.262163 -0.000000
v -0.229555 0.187428 -0.000000
v -0.175693 0.105129 0.000000
v -0.214257 0.279273 -0.088749
v -0.212081 0.187428 -0.087847
v -0.162319 0.105129 -0.067236
v -0.163985 0.279273 -0.163987
v -0.162319 0.187428 -0.162321
v -0.124233 0.105129 -0.124235
v -0.088747 0.279273 -0.214259
v -0.087845 0.187428 -0.212082
v -0.067234 0.105129 -0.162321
v 0.000002 0.279273 -0.231912
v 0.000002 0.105129 -0.175695
v 0.000002 0.167347 -0.278275
v 0.000002 -0.000630 0.000000
v 0.114807 0.292667 -0.277164
v 0.106493 0.167347 -0.257093
v 0.084003 0.061865 -0.202796
v 0.212134 0.292667 -0.212132
v 0.196772 0.167347 -0.196770
v 0.155215 0.061865 -0.155213
v 0.277166 0.279273 -0.114805
v 0.257095 0.167347 -0.106491
v 0.202798 0.061865 -0.084001
v 0.300002 0.279273 0.000000
v 0.278277 0.167347 0.000000
v 0.219506 0.061865 0.000000
v 0.277166 0.279273 0.114805
v 0.257095 0.167347 0.106491
v 0.202798 0.061865 0.084001
v 0.196772 0.167347 0.196770
v 0.155215 0.061865 0.155213
v 0.114807 0.279273 0.277164
v 0.106493 0.167347 0.257093
v 0.084003 0.061865 0.202796
v 0.000002 0.279273 0.300000
v 0.000002 0.167347 0.278275
v 0.000002 0.061865 0.219505
v -0.114803 0.279273 0.277164
v -0.106490 0.167347 0.257093
v -0.083999 0.061865 0.202796
v -0.212130 0.279273 0.212132
v -0.196769 0.167347 0.196770
v -0.155211 0.061865 0.155213
v -0.277162 0.262163 0.114805
v -0.257091 0.167347 0.106491
v -0.202794 0.061865 0.084001
v -0.299998 0.262163 -0.000000
v -0.278273 0.167347 -0.000000
v -0.219503 0.061865 -0.000000
v -0.277162 0.279273 -0.114805
v -0.257091 0.167347 -0.106491
v -0.202794 0.061865 -0.084001
v -0.212130 0.279273 -0.212132
v -0.196768 0.167347 -0.196770
v -0.155211 0.061865 -0.155213
v -0.114803 0.279273 -0.277164
v -0.106489 0.167347 -0.257093
v -0.083999 0.061865 -0.202796
v 0.000002 0.279273 -0.300000
v 0.000002 0.061865 -0.219504
v 0.265958 0.285976 0.000000
v 0.245713 0.285976 -0.101777
v 0.188061 0.299370 -0.188059
v 0.101779 0.299370 -0.245711
v -0.245710 0.268865 0.101777
v -0.188058 0.285976 0.188059
v 0.000002 0.285976 -0.265956
v -0.101775 0.285976 -0.245711
v -0.188057 0.285976 -0.188059
v -0.101775 0.285976 0.245711
v 0.000002 0.285976 0.265956
v -0.245710 0.285976 -0.101777
v -0.265954 0.268865 -0.000000
v 0.101779 0.285976 0.245711
v 0.245713 0.285976 0.101777
v 0.036390 0.050139 -0.087847
v 0.000002 0.050139 -0.095085
v 0.067237 0.050139 -0.067236
v 0.087849 0.050139 -0.036388
v 0.095087 0.050139 0.000000
v 0.087849 0.050139 0.036388
v 0.067237 0.050139 0.067236
v 0.036389 0.050139 0.087848
v 0.000002 0.050139 0.095085
v -0.036386 0.050139 0.087848
v -0.067234 0.050139 0.067236
v -0.087846 0.050139 0.036388
v -0.095084 0.050139 0.000000
v -0.087846 0.050139 -0.036388
v -0.067234 0.050139 -0.067236
v -0.036386 0.050139 -0.087847
v 0.042879 -0.000630 -0.103515
v 0.000002 -0.000630 -0.112044
v 0.079229 -0.000630 -0.079227
v 0.103517 -0.000630 -0.042877
v 0.112046 -0.000630 0.000000
v 0.103517 -0.000630 0.042878
v 0.079229 -0.000630 0.079227
v 0.042879 -0.000630 0.103515
v 0.000002 -0.000630 0.112044
v -0.042876 -0.000630 0.103515
v -0.079225 -0.000630 0.079227
v -0.103513 -0.000630 0.042877
v -0.112042 -0.000630 0.000000
v -0.103513 -0.000630 -0.042877
v -0.079225 -0.000630 -0.079227
v -0.042876 -0.000630 -0.103515
v 0.116168 0.279273 0.195939
v 0.195941 0.279273 0.116167
v 0.162944 0.221663 0.162942
v 0.244086 0.279273 0.164312
v 0.164314 0.279273 0.244085
v 0.204375 0.222742 0.204373
v 0.140241 0.285976 0.220012
v 0.220014 0.285976 0.140239
v 0.183414 0.233891 0.183412
vt 0.552149 0.697988
vt 0.555707 0.697988
vt 0.558722 0.716082
vt 0.552150 0.716082
vt 0.552149 0.600279
vt 0.560737 0.600279
vt 0.560826 0.630500
vt 0.552149 0.630500
vt 0.564294 0.716082
vt 0.568017 0.600279
vt 0.558722 0.697988
vt 0.568180 0.630500
vt 0.568017 0.716082
vt 0.572882 0.600279
vt 0.560737 0.697988
vt 0.573095 0.630500
vt 0.561445 0.697988
vt 0.569325 0.716082
vt 0.574590 0.600279
vt 0.574820 0.630500
vt 0.560737 0.697988
vt 0.568017 0.716082
vt 0.572882 0.600279
vt 0.573095 0.630500
vt 0.564294 0.716082
vt 0.568017 0.600279
vt 0.558722 0.697988
vt 0.563506 0.693000
vt 0.560826 0.693000
vt 0.562099 0.695205
vt 0.565859 0.695205
vt 0.558722 0.716082
vt 0.560737 0.600279
vt 0.555707 0.697988
vt 0.568078 0.611544
vt 0.552149 0.697988
vt 0.552149 0.716082
vt 0.552149 0.600279
vt 0.552149 0.630500
vt 0.560826 0.630500
vt 0.543562 0.600279
vt 0.543474 0.630500
vt 0.545577 0.716082
vt 0.548592 0.697988
vt 0.540005 0.716082
vt 0.536282 0.600279
vt 0.545577 0.697988
vt 0.536119 0.630500
vt 0.543562 0.697988
vt 0.536282 0.716082
vt 0.531417 0.600279
vt 0.531205 0.630500
vt 0.542855 0.697988
vt 0.534975 0.716082
vt 0.529709 0.600279
vt 0.529479 0.630500
vt 0.536282 0.716082
vt 0.531417 0.600279
vt 0.543562 0.697988
vt 0.531205 0.630500
vt 0.540005 0.716082
vt 0.536282 0.600279
vt 0.545577 0.697988
vt 0.536119 0.630500
vt 0.548592 0.697988
vt 0.545577 0.716082
vt 0.543562 0.600279
vt 0.543474 0.630500
vt 0.552149 0.554026
vt 0.552150 0.576556
vt 0.560135 0.576556
vt 0.556341 0.554026
vt 0.552149 0.609297
vt 0.552150 0.646125
vt 0.563373 0.646125
vt 0.562560 0.609297
vt 0.571385 0.609297
vt 0.566905 0.576556
vt 0.559895 0.554026
vt 0.572887 0.646125
vt 0.577282 0.609297
vt 0.571429 0.576556
vt 0.562269 0.554026
vt 0.579244 0.646125
vt 0.573017 0.576556
vt 0.563103 0.554026
vt 0.581476 0.646125
vt 0.579353 0.609297
vt 0.571429 0.576556
vt 0.562269 0.554026
vt 0.579244 0.646125
vt 0.577282 0.609297
vt 0.571385 0.609297
vt 0.566905 0.576556
vt 0.559895 0.554026
vt 0.576169 0.695205
vt 0.573657 0.695205
vt 0.576011 0.693000
vt 0.579244 0.693000
vt 0.562560 0.609297
vt 0.560135 0.576556
vt 0.556341 0.554026
vt 0.563373 0.693000
vt 0.568212 0.693000
vt 0.552149 0.576556
vt 0.552149 0.554026
vt 0.563373 0.646125
vt 0.552149 0.646125
vt 0.552149 0.609297
vt 0.540927 0.646125
vt 0.541740 0.609297
vt 0.544164 0.576556
vt 0.547958 0.554026
vt 0.532914 0.609297
vt 0.537394 0.576556
vt 0.544405 0.554026
vt 0.531412 0.646125
vt 0.532871 0.576556
vt 0.542030 0.554026
vt 0.525055 0.646125
vt 0.527017 0.609297
vt 0.531282 0.576556
vt 0.541196 0.554026
vt 0.522823 0.646125
vt 0.524947 0.609297
vt 0.527017 0.609297
vt 0.532871 0.576556
vt 0.542030 0.554026
vt 0.525055 0.646125
vt 0.532914 0.609297
vt 0.537394 0.576556
vt 0.544405 0.554026
vt 0.531412 0.646125
vt 0.544164 0.576556
vt 0.547958 0.554026
vt 0.540927 0.646125
vt 0.541740 0.609297
vt 0.576169 0.695205
vt 0.578149 0.695205
vt 0.581476 0.693000
vt 0.579244 0.693000
vt 0.570533 0.695205
vt 0.572887 0.693000
vt 0.562099 0.695205
vt 0.563373 0.693000
vt 0.533766 0.695205
vt 0.528130 0.695205
vt 0.525055 0.693000
vt 0.531412 0.693000
vt 0.552150 0.695205
vt 0.552150 0.693000
vt 0.533766 0.695205
vt 0.542200 0.695205
vt 0.540927 0.693000
vt 0.531412 0.693000
vt 0.552149 0.695205
vt 0.542200 0.695205
vt 0.540927 0.693000
vt 0.552149 0.693000
vt 0.528130 0.695205
vt 0.525055 0.693000
vt 0.526151 0.695205
vt 0.522823 0.693000
vt 0.576011 0.646125
vt 0.572129 0.627524
vt 0.574820 0.693000
vt 0.573095 0.693000
vt 0.568212 0.646125
vt 0.552149 0.693000
vt 0.571304 0.693000
vt 0.543474 0.693000
vt 0.536119 0.693000
vt 0.543474 0.693000
vt 0.552149 0.693000
vt 0.531205 0.693000
vt 0.529479 0.693000
vt 0.531205 0.693000
vt 0.536119 0.693000
vt 0.560826 0.693000
vt 0.568180 0.693000
vt 0.573095 0.693000
vt 0.555090 0.697988
vt 0.557582 0.697988
vt 0.559248 0.697988
vt 0.559833 0.697988
vt 0.552149 0.697988
vt 0.549209 0.697988
vt 0.546717 0.697988
vt 0.545051 0.697988
vt 0.544467 0.697988
vt 0.552150 0.554026
vt 0.556092 0.554026
vt 0.559435 0.554026
vt 0.561668 0.554026
vt 0.562453 0.554026
vt 0.548207 0.554026
vt 0.544864 0.554026
vt 0.542631 0.554026
vt 0.541847 0.554026
vt 0.568180 0.693000
vt 0.570314 0.695000
vt 0.572449 0.693411
vt 0.563506 0.630500
vt 0.571304 0.630500
vn 0.0000 0.9448 0.3278
vn -0.1254 0.9448 0.3028
vn -0.2776 0.6884 0.6702
vn 0.0000 0.6884 0.7254
vn -0.0005 0.2883 0.9575
vn -0.3670 0.2875 0.8847
vn -0.3924 0.0231 0.9195
vn -0.0098 0.0247 0.9996
vn -0.5129 0.6884 0.5129
vn -0.6769 0.2875 0.6776
vn -0.2318 0.9448 0.2318
vn -0.6994 0.0231 0.7144
vn -0.6702 0.6884 0.2776
vn -0.8845 0.2883 0.3669
vn -0.3028 0.9448 0.1254
vn -0.9198 0.0247 0.3916
vn -0.3278 0.9448 -0.0000
vn -0.7254 0.6884 -0.0000
vn -0.9574 0.2887 -0.0000
vn -0.9997 0.0256 -0.0000
vn -0.3028 0.9448 -0.1254
vn -0.6702 0.6884 -0.2776
vn -0.8845 0.2887 -0.3664
vn -0.9236 0.0256 -0.3826
vn -0.5129 0.6884 -0.5129
vn -0.6770 0.2887 -0.6770
vn -0.2318 0.9448 -0.2318
vn 0.1140 0.9020 -0.4164
vn -0.0739 0.9812 -0.1785
vn 0.0092 0.9997 0.0223
vn 0.2590 0.9333 -0.2489
vn -0.2776 0.6884 -0.6702
vn -0.3664 0.2887 -0.8845
vn -0.1254 0.9448 -0.3028
vn -0.7069 0.0256 -0.7069
vn 0.0000 0.9448 -0.3278
vn 0.0000 0.6884 -0.7254
vn 0.0000 0.2887 -0.9574
vn 0.0000 0.0256 -0.9997
vn -0.3826 0.0256 -0.9236
vn 0.3664 0.2887 -0.8845
vn 0.3826 0.0256 -0.9236
vn 0.2776 0.6884 -0.6702
vn 0.1254 0.9448 -0.3028
vn 0.5129 0.6884 -0.5129
vn 0.6764 0.2894 -0.6774
vn 0.2318 0.9448 -0.2318
vn 0.6970 0.0269 -0.7166
vn 0.3028 0.9448 -0.1254
vn 0.6702 0.6884 -0.2776
vn 0.8837 0.2908 -0.3668
vn 0.9186 0.0298 -0.3941
vn 0.3278 0.9448 0.0000
vn 0.7254 0.6884 0.0000
vn 0.9568 0.2908 0.0007
vn 0.9995 0.0298 0.0126
vn 0.6702 0.6884 0.2776
vn 0.8841 0.2894 0.3670
vn 0.3028 0.9448 0.1254
vn 0.9182 0.0269 0.3953
vn 0.5129 0.6884 0.5129
vn 0.6770 0.2887 0.6770
vn 0.2318 0.9448 0.2318
vn 0.7069 0.0256 0.7069
vn 0.1254 0.9448 0.3028
vn 0.2776 0.6884 0.6702
vn 0.3664 0.2887 0.8845
vn 0.3826 0.0256 0.9236
vn -0.0000 -0.9570 -0.2901
vn -0.0000 -0.6845 -0.7290
vn 0.2790 -0.6845 -0.6736
vn 0.1110 -0.9570 -0.2681
vn 0.0029 -0.3343 -0.9424
vn 0.0125 -0.1853 -0.9826
vn 0.3884 -0.1751 -0.9047
vn 0.3640 -0.3293 -0.8713
vn 0.6657 -0.3293 -0.6697
vn 0.5155 -0.6845 -0.5155
vn 0.2052 -0.9570 -0.2052
vn 0.6872 -0.1751 -0.7050
vn 0.8696 -0.3343 -0.3633
vn 0.6736 -0.6845 -0.2790
vn 0.2681 -0.9570 -0.1110
vn 0.9030 -0.1853 -0.3876
vn 0.7290 -0.6845 0.0000
vn 0.2901 -0.9570 0.0000
vn 0.9817 -0.1905 0.0000
vn 0.9416 -0.3368 0.0000
vn 0.6736 -0.6845 0.2790
vn 0.2681 -0.9570 0.1110
vn 0.9070 -0.1905 0.3757
vn 0.8699 -0.3368 0.3603
vn 0.6658 -0.3368 0.6658
vn 0.5155 -0.6845 0.5155
vn 0.2052 -0.9570 0.2052
vn 0.0223 0.9997 0.0092
vn -0.2489 0.9333 0.2590
vn -0.1226 0.8979 0.4228
vn 0.1785 0.9812 0.0739
vn 0.3603 -0.3368 0.8699
vn 0.2790 -0.6845 0.6736
vn 0.1110 -0.9570 0.2681
vn 0.0739 0.9812 0.1785
vn 0.4228 0.8979 -0.1226
vn -0.0000 -0.6845 0.7290
vn -0.0000 -0.9570 0.2901
vn 0.3757 -0.1905 0.9070
vn -0.0000 -0.1905 0.9817
vn -0.0000 -0.3368 0.9416
vn -0.3757 -0.1905 0.9070
vn -0.3603 -0.3368 0.8699
vn -0.2790 -0.6845 0.6736
vn -0.1110 -0.9570 0.2681
vn -0.6619 -0.3403 0.6679
vn -0.5155 -0.6845 0.5155
vn -0.2052 -0.9570 0.2052
vn -0.6810 -0.1974 0.7051
vn -0.6736 -0.6845 0.2790
vn -0.2681 -0.9570 0.1110
vn -0.8958 -0.2144 0.3894
vn -0.8643 -0.3487 0.3626
vn -0.7290 -0.6845 -0.0000
vn -0.2901 -0.9570 -0.0000
vn -0.9766 -0.2144 -0.0170
vn -0.9372 -0.3487 -0.0042
vn -0.8671 -0.3403 -0.3637
vn -0.6736 -0.6845 -0.2790
vn -0.2681 -0.9570 -0.1110
vn -0.8990 -0.1974 -0.3909
vn -0.6658 -0.3368 -0.6658
vn -0.5155 -0.6845 -0.5155
vn -0.2052 -0.9570 -0.2052
vn -0.6942 -0.1905 -0.6942
vn -0.2790 -0.6845 -0.6736
vn -0.1110 -0.9570 -0.2681
vn -0.3757 -0.1905 -0.9070
vn -0.3603 -0.3368 -0.8699
vn 0.0578 0.9973 0.0444
vn 0.0241 0.9997 -0.0000
vn 0.1932 0.9812 -0.0000
vn 0.2105 0.9773 -0.0245
vn 0.0524 0.9980 0.0355
vn 0.1700 0.9816 -0.0868
vn -0.0529 0.9980 -0.0348
vn 0.0151 0.9816 -0.1903
vn -0.0619 0.9968 -0.0497
vn -0.0676 0.9960 -0.0592
vn -0.2190 0.9757 0.0111
vn -0.1792 0.9811 0.0729
vn -0.0632 0.9973 -0.0365
vn -0.0579 0.9773 -0.2038
vn -0.0171 0.9997 -0.0171
vn -0.0092 0.9997 -0.0223
vn -0.1366 0.9812 -0.1366
vn -0.0000 0.9997 0.0241
vn -0.0092 0.9997 0.0223
vn -0.0739 0.9812 0.1785
vn -0.0000 0.9812 0.1932
vn -0.0382 0.9968 0.0696
vn -0.1934 0.9811 0.0012
vn -0.0398 0.9960 0.0806
vn -0.2066 0.9757 0.0736
vn 0.8168 -0.1870 0.5458
vn 0.6942 -0.1905 0.6942
vn -0.1932 0.9812 -0.0000
vn -0.1785 0.9812 -0.0739
vn 0.5458 -0.1870 0.8168
vn 0.0000 0.9812 -0.1932
vn -0.4164 0.9020 0.1140
vn 0.0739 0.9812 -0.1785
vn 0.0879 0.9744 -0.2071
vn -0.0650 0.9815 0.1802
vn 0.1316 0.9808 -0.1437
vn 0.1766 0.9808 0.0824
vn 0.1605 0.9744 0.1577
vn 0.1366 0.9812 0.1366
vn -0.1397 0.9764 0.1645
vn -0.0985 0.9764 0.1920
vn -0.1416 0.9815 0.1290
vn -0.0000 1.0000 -0.0000
vn -0.0000 -1.0000 -0.0000
vn -0.6380 0.6881 0.3455
vn -0.4940 0.7144 0.4956
vn 0.4956 0.7144 -0.4940
vn 0.3455 0.6881 -0.6380
vn -0.3367 0.7103 0.6182
vn 0.6182 0.7103 -0.3367
vn -0.5554 0.0251 -0.8312
vn -0.8312 0.0251 -0.5554
usemtl witch
s 1
f 113/1/1 112/2/2 5/3/3 48/4/4
f 1/5/5 4/6/6 3/7/7 47/8/8
f 48/4/4 5/3/3 4/6/6 1/5/5
f 5/3/3 8/9/9 7/10/10 4/6/6
f 112/2/2 114/11/11 8/9/9 5/3/3
f 4/6/6 7/10/10 6/12/12 3/7/7
f 8/9/9 11/13/13 10/14/14 7/10/10
f 114/11/11 115/15/15 11/13/13 8/9/9
f 7/10/10 10/14/14 9/16/16 6/12/12
f 115/15/15 116/17/17 14/18/18 11/13/13
f 10/14/14 13/19/19 12/20/20 9/16/16
f 11/13/13 14/18/18 13/19/19 10/14/14
f 116/17/17 117/21/21 17/22/22 14/18/18
f 13/19/19 16/23/23 15/24/24 12/20/20
f 14/18/18 17/22/22 16/23/23 13/19/19
f 17/22/22 19/25/25 18/26/26 16/23/23
f 117/21/21 118/27/27 19/25/25 17/22/22
f 144/28/28 20/29/29 110/30/30 150/31/31
f 19/25/25 22/32/32 21/33/33 18/26/26
f 118/27/27 119/34/34 22/32/32 19/25/25
f 16/23/23 18/26/26 146/35/35
f 119/34/34 120/36/36 25/37/37 22/32/32
f 21/33/33 24/38/38 23/39/39 20/40/40
f 22/32/32 25/37/37 24/38/38 21/33/33
f 24/38/38 27/41/41 26/42/42 23/39/39
f 25/37/37 28/43/43 27/41/41 24/38/38
f 120/36/36 121/44/44 28/43/43 25/37/37
f 28/43/43 31/45/45 30/46/46 27/41/41
f 121/44/44 122/47/47 31/45/45 28/43/43
f 27/41/41 30/46/46 29/48/48 26/42/42
f 122/47/47 123/49/49 34/50/50 31/45/45
f 30/46/46 33/51/51 32/52/52 29/48/48
f 31/45/45 34/50/50 33/51/51 30/46/46
f 123/49/49 124/53/53 37/54/54 34/50/50
f 33/51/51 36/55/55 35/56/56 32/52/52
f 34/50/50 37/54/54 36/55/55 33/51/51
f 37/54/54 40/57/57 39/58/58 36/55/55
f 124/53/53 125/59/59 40/57/57 37/54/54
f 36/55/55 39/58/58 38/60/60 35/56/56
f 40/57/57 43/61/61 42/62/62 39/58/58
f 125/59/59 126/63/63 43/61/61 40/57/57
f 39/58/58 42/62/62 41/64/64 38/60/60
f 126/63/63 127/65/65 46/66/66 43/61/61
f 42/62/62 45/67/67 44/68/68 41/64/64
f 43/61/61 46/66/66 45/67/67 42/62/62
f 127/65/65 113/1/1 48/4/4 46/66/66
f 45/67/67 1/5/5 47/8/8 44/68/68
f 46/66/66 48/4/4 1/5/5 45/67/67
f 129/69/69 96/70/70 53/71/71 128/72/72
f 49/73/73 95/74/74 51/75/75 52/76/76
f 96/70/70 49/73/73 52/76/76 53/71/71
f 53/71/71 52/76/76 55/77/77 56/78/78
f 128/72/72 53/71/71 56/78/78 130/79/79
f 52/76/76 51/75/75 54/80/80 55/77/77
f 56/78/78 55/77/77 58/81/81 59/82/82
f 130/79/79 56/78/78 59/82/82 131/83/83
f 55/77/77 54/80/80 57/84/84 58/81/81
f 131/83/83 59/82/82 62/85/85 132/86/86
f 58/81/81 57/84/84 60/87/87 61/88/88
f 59/82/82 58/81/81 61/88/88 62/85/85
f 132/86/86 62/85/85 65/89/89 133/90/90
f 61/88/88 60/87/87 63/91/91 64/92/92
f 62/85/85 61/88/88 64/92/92 65/89/89
f 65/89/89 64/92/92 66/93/93 67/94/94
f 133/90/90 65/89/89 67/94/94 134/95/95
f 111/96/96 151/97/97 147/98/98 63/99/99
f 67/94/94 66/93/93 69/100/100 70/101/101
f 134/95/95 67/94/94 70/101/101 135/102/102
f 150/31/31 110/30/30 68/103/103 148/104/104
f 135/102/102 70/101/101 73/105/105 136/106/106
f 69/100/100 68/107/107 71/108/108 72/109/109
f 70/101/101 69/100/100 72/109/109 73/105/105
f 72/109/109 71/108/108 74/110/110 75/111/111
f 73/105/105 72/109/109 75/111/111 76/112/112
f 136/106/106 73/105/105 76/112/112 137/113/113
f 76/112/112 75/111/111 78/114/114 79/115/115
f 137/113/113 76/112/112 79/115/115 138/116/116
f 75/111/111 74/110/110 77/117/117 78/114/114
f 138/116/116 79/115/115 82/118/118 139/119/119
f 78/114/114 77/117/117 80/120/120 81/121/121
f 79/115/115 78/114/114 81/121/121 82/118/118
f 139/119/119 82/118/118 85/122/122 140/123/123
f 81/121/121 80/120/120 83/124/124 84/125/125
f 82/118/118 81/121/121 84/125/125 85/122/122
f 85/122/122 84/125/125 87/126/126 88/127/127
f 140/123/123 85/122/122 88/127/127 141/128/128
f 84/125/125 83/124/124 86/129/129 87/126/126
f 88/127/127 87/126/126 90/130/130 91/131/131
f 141/128/128 88/127/127 91/131/131 142/132/132
f 87/126/126 86/129/129 89/133/133 90/130/130
f 142/132/132 91/131/131 94/134/134 143/135/135
f 90/130/130 89/133/133 92/136/136 93/137/137
f 91/131/131 90/130/130 93/137/137 94/134/134
f 143/135/135 94/134/134 96/70/70 129/69/69
f 93/137/137 92/136/136 95/74/74 49/73/73
f 94/134/134 93/137/137 49/73/73 96/70/70
f 98/138/138 97/139/139 60/140/140 57/141/141
f 99/142/142 98/138/138 57/141/141 54/143/143
f 100/144/144 99/142/142 54/143/143 51/145/145
f 102/146/146 101/147/147 80/148/148 77/149/149
f 103/150/150 100/144/144 51/145/145 95/151/151
f 105/152/152 104/153/153 92/154/29 89/155/154
f 107/156/155 106/157/156 74/158/157 71/159/158
f 108/160/159 105/152/152 89/155/154 86/161/160
f 109/162/161 108/160/159 86/161/160 83/163/162
f 101/147/147 109/162/161 83/163/162 80/148/148
f 104/153/153 103/150/150 95/151/151 92/154/29
f 106/157/156 102/146/146 77/149/149 74/158/157
f 64/92/92 63/91/91 147/164/163 149/165/164
f 110/30/30 107/156/155 71/159/158 68/103/103
f 97/139/139 111/96/96 63/99/99 60/140/140
f 12/166/165 15/167/166 111/96/96 97/139/139
f 149/165/164 148/168/167 68/107/107 69/100/100
f 20/29/29 23/169/168 107/156/155 110/30/30
f 15/167/166 145/170/169 151/97/97 111/96/96
f 26/171/170 29/172/171 102/146/146 106/157/156
f 44/173/103 47/174/172 103/150/150 104/153/153
f 32/175/173 35/176/174 109/162/161 101/147/147
f 35/176/174 38/177/175 108/160/159 109/162/161
f 38/177/175 41/178/176 105/152/152 108/160/159
f 23/169/168 26/171/170 106/157/156 107/156/155
f 41/178/176 44/173/103 104/153/153 105/152/152
f 47/174/172 3/179/177 100/144/144 103/150/150
f 29/172/171 32/175/173 101/147/147 102/146/146
f 3/179/177 6/180/178 99/142/142 100/144/144
f 6/180/178 9/181/179 98/138/138 99/142/142
f 9/181/179 12/166/165 97/139/139 98/138/138
f 2/182/180 112/2/2 113/1/1
f 2/183/180 114/11/11 112/2/2
f 2/184/180 115/15/15 114/11/11
f 2/185/180 116/17/17 115/15/15
f 2/184/180 117/21/21 116/17/17
f 2/183/180 118/27/27 117/21/21
f 2/182/180 119/34/34 118/27/27
f 2/186/180 120/36/36 119/34/34
f 2/187/180 121/44/44 120/36/36
f 2/188/180 122/47/47 121/44/44
f 2/189/180 123/49/49 122/47/47
f 2/190/180 124/53/53 123/49/49
f 2/189/180 125/59/59 124/53/53
f 2/188/180 126/63/63 125/59/59
f 2/187/180 127/65/65 126/63/63
f 2/186/180 113/1/1 127/65/65
f 50/191/181 129/69/69 128/72/72
f 50/192/181 128/72/72 130/79/79
f 50/193/181 130/79/79 131/83/83
f 50/194/181 131/83/83 132/86/86
f 50/195/181 132/86/86 133/90/90
f 50/194/181 133/90/90 134/95/95
f 50/193/181 134/95/95 135/102/102
f 50/192/181 135/102/102 136/106/106
f 50/191/181 136/106/106 137/113/113
f 50/196/181 137/113/113 138/116/116
f 50/197/181 138/116/116 139/119/119
f 50/198/181 139/119/119 140/123/123
f 50/199/181 140/123/123 141/128/128
f 50/198/181 141/128/128 142/132/132
f 50/197/181 142/132/132 143/135/135
f 50/196/181 143/135/135 129/69/69
f 151/97/97 145/170/169 146/200/182 152/201/183
f 152/201/184 146/200/185 144/28/28 150/31/31
f 147/98/98 151/97/97 152/201/183 149/202/186
f 149/202/187 152/201/184 150/31/31 148/104/104
f 21/33/33 20/40/40 144/203/188 146/35/35
f 66/93/93 149/165/164 69/100/100
f 66/93/93 64/92/92 149/165/164
f 18/26/26 21/33/33 146/35/35
f 15/24/24 16/23/23 146/35/35 145/204/189
