# Blender v3.4.1 OBJ File: 'November2024_Witch_Assets_Export.blend'
# www.blender.org
mtllib Mushroom.mtl
o Mushroom
v -0.108886 0.099797 0.108886
v -0.095857 0.265723 0.087013
v -0.108886 0.099797 -0.108886
v -0.089990 0.269084 -0.089990
v 0.108886 0.099797 0.108886
v 0.089990 0.269084 0.089990
v 0.108886 0.099797 -0.108886
v 0.086381 0.274574 -0.086381
v -0.127222 0.094603 -0.065086
v -0.136625 0.091995 0.000000
v -0.127222 0.094603 0.065086
v -0.120032 0.129244 0.120032
v -0.121228 0.183250 0.121228
v -0.107853 0.234176 0.107853
v -0.100663 0.281604 0.052907
v -0.105831 0.287893 0.000000
v -0.100663 0.281604 -0.052907
v -0.107853 0.234176 -0.107853
v -0.121228 0.183250 -0.121228
v -0.120032 0.129244 -0.120032
v 0.065086 0.094603 -0.127222
v -0.000000 0.091995 -0.136625
v -0.065086 0.094603 -0.127222
v -0.052907 0.281604 -0.100663
v -0.000000 0.287893 -0.105831
v 0.052907 0.281604 -0.100663
v 0.107853 0.234176 -0.107853
v 0.124938 0.183237 -0.112291
v 0.120032 0.129244 -0.120032
v 0.127222 0.094603 0.065086
v 0.136625 0.091995 0.000000
v 0.127222 0.094603 -0.065086
v 0.100663 0.281604 -0.052907
v 0.105831 0.287893 -0.000000
v 0.100663 0.281604 0.052907
v 0.107853 0.234176 0.107853
v 0.121228 0.183250 0.121228
v 0.120032 0.129244 0.120032
v -0.065086 0.094603 0.127222
v 0.000000 0.091995 0.136625
v 0.065086 0.094603 0.127222
v 0.052907 0.281604 0.100663
v 0.000000 0.287893 0.105831
v -0.052907 0.281604 0.100663
v -0.154097 0.126992 0.065996
v -0.155487 0.183250 0.066254
v -0.166072 0.125032 -0.000000
v -0.166958 0.183250 0.000000
v -0.144901 0.240440 0.000000
v -0.154097 0.126992 -0.065996
v -0.155487 0.183250 -0.066254
v -0.135860 0.237524 -0.059756
v -0.065996 0.126992 -0.154097
v -0.047482 0.183260 -0.160432
v -0.059756 0.237524 -0.135860
v 0.000000 0.141536 -0.168019
v -0.000000 0.224246 -0.152846
v 0.065996 0.126992 -0.154097
v 0.047482 0.183260 -0.160432
v 0.059756 0.237524 -0.135860
v 0.152805 0.135538 -0.065462
v 0.137343 0.229253 -0.060171
v 0.166072 0.125032 0.000000
v 0.163710 0.183237 -0.009507
v 0.144901 0.240440 -0.000000
v 0.154097 0.126992 0.065996
v 0.155487 0.183250 0.066254
v 0.135860 0.237524 0.059756
v 0.065996 0.126992 0.154097
v 0.059756 0.237524 0.135860
v -0.000000 0.125032 0.166072
v -0.000000 0.183250 0.166958
v 0.000000 0.240440 0.144901
v -0.065996 0.126992 0.154097
v -0.066254 0.183250 0.155487
v -0.059756 0.237524 0.135860
v -0.040863 0.081610 -0.040863
v 0.000000 0.081610 -0.057789
v 0.040863 0.081610 -0.040863
v -0.057789 0.081610 0.000000
v 0.000000 -0.023253 0.000000
v 0.057789 0.081610 0.000000
v -0.040863 0.081610 0.040863
v 0.000000 0.081610 0.057789
v 0.040863 0.081610 0.040863
v 0.000000 0.317465 -0.055668
v -0.053758 0.308394 -0.053758
v 0.055668 0.317465 -0.000000
v 0.000000 0.327366 0.000000
v -0.055668 0.317465 -0.000000
v 0.053758 0.308394 0.053758
v -0.000000 0.317465 0.055668
v -0.053758 0.308394 0.053758
v 0.041283 -0.016099 -0.041283
v 0.049895 -0.001106 -0.049895
v 0.070562 -0.001106 -0.000000
v 0.058382 -0.016099 -0.000000
v -0.049895 -0.001106 -0.049895
v -0.041283 -0.016099 -0.041283
v -0.058382 -0.016099 -0.000000
v -0.070562 -0.001106 -0.000000
v -0.000000 -0.016099 -0.058382
v -0.000000 -0.001106 -0.070562
v -0.041283 -0.016099 0.041283
v -0.049895 -0.001106 0.049895
v 0.049895 -0.001106 0.049895
v 0.041283 -0.016099 0.041283
v -0.000000 -0.016099 0.058382
v -0.000000 -0.001106 0.070562
v 0.022937 0.221679 0.151999
v 0.097693 0.220210 0.124031
v 0.103895 0.146728 0.135326
v 0.024613 0.145575 0.165479
v -0.118583 0.272367 0.019470
v -0.130071 0.203024 0.100245
v -0.158340 0.204382 0.023583
v 0.017779 0.324831 -0.017779
v 0.017575 0.298530 -0.089787
v 0.089787 0.298530 -0.017575
v 0.031802 0.212039 -0.155118
v -0.033129 0.154951 -0.165592
v -0.031802 0.212039 -0.155118
v 0.033129 0.154951 -0.165592
v 0.151321 0.217254 -0.027472
v 0.136556 0.150886 -0.099163
v 0.126556 0.215955 -0.093668
v 0.163258 0.149864 -0.028956
v -0.117898 0.239131 0.104902
v -0.107301 0.266910 0.086635
v -0.111623 0.280822 0.056501
v 0.055879 0.292318 -0.098136
v 0.085425 0.286166 -0.085425
v 0.098136 0.292318 -0.055879
v -0.159897 0.194294 0.068148
v -0.142549 0.241968 0.062440
v -0.150609 0.244566 0.009887
v -0.042085 0.184949 -0.169895
v 0.000000 0.184897 -0.177073
v 0.000000 0.147577 -0.176651
v -0.000000 0.221551 -0.163097
v 0.042085 0.184949 -0.169895
v 0.160794 0.142331 -0.068468
v 0.161703 0.184795 -0.068613
v 0.147036 0.225790 -0.063751
v 0.170438 0.184848 -0.018955
v 0.136095 0.184835 -0.109975
v 0.068946 0.134999 0.161955
v 0.069125 0.184805 0.163045
v 0.063415 0.232886 0.145816
v 0.010819 0.184858 0.173278
v 0.117663 0.184845 0.132965
v 0.056674 0.315847 -0.056674
v 0.009307 0.323924 -0.058430
v 0.058430 0.323924 -0.009307
v 0.030763 0.218932 0.160111
v 0.097059 0.217628 0.135308
v 0.102586 0.152382 0.145318
v 0.032257 0.151377 0.172068
v -0.127447 0.272728 0.026867
v -0.137512 0.211556 0.098273
v -0.162527 0.212747 0.030455
v 0.024955 0.330449 -0.024956
v 0.024720 0.307218 -0.088593
v 0.088593 0.307218 -0.024720
v 0.028257 0.210676 -0.165127
v -0.028256 0.210676 -0.165127
v -0.029465 0.159567 -0.174495
v 0.029465 0.159567 -0.174495
v 0.159483 0.215086 -0.034678
v 0.137455 0.213928 -0.093556
v 0.146340 0.156009 -0.098467
v 0.170099 0.155116 -0.036003
vt 0.793888 0.370313
vt 0.793749 0.392265
vt 0.792604 0.392265
vt 0.792692 0.369548
vt 0.546738 0.325010
vt 0.554482 0.342977
vt 0.554214 0.348125
vt 0.547340 0.332300
vt 0.793749 0.392265
vt 0.793888 0.370313
vt 0.794806 0.414580
vt 0.795709 0.413442
vt 0.798403 0.333719
vt 0.797290 0.371192
vt 0.796572 0.330434
vt 0.797171 0.392265
vt 0.539750 0.402434
vt 0.542955 0.376235
vt 0.541852 0.377773
vt 0.539027 0.401193
vt 0.798708 0.433096
vt 0.797247 0.423455
vt 0.799224 0.430643
vt 0.800291 0.425757
vt 0.798507 0.412136
vt 0.797171 0.392265
vt 0.797290 0.371192
vt 0.796572 0.330434
vt 0.798403 0.333719
vt 0.795633 0.328783
vt 0.540022 0.350464
vt 0.533253 0.338251
vt 0.533253 0.343750
vt 0.539273 0.354666
vt 0.803310 0.413442
vt 0.809278 0.414580
vt 0.806053 0.403703
vt 0.561255 0.368914
vt 0.558337 0.362513
vt 0.558141 0.373067
vt 0.560738 0.378667
vt 0.815246 0.413442
vt 0.815895 0.392265
vt 0.812503 0.403703
vt 0.802687 0.370313
vt 0.802778 0.330434
vt 0.802661 0.392265
vt 0.803994 0.430643
vt 0.809278 0.433096
vt 0.814562 0.430643
vt 0.818266 0.425757
vt 0.820050 0.412136
vt 0.821386 0.392265
vt 0.815869 0.370313
vt 0.821266 0.371192
vt 0.815778 0.330434
vt 0.820153 0.333719
vt 0.809278 0.328783
vt 0.809278 0.369548
vt 0.553214 0.409873
vt 0.545463 0.425636
vt 0.546210 0.421414
vt 0.553085 0.407523
vt 0.823750 0.414580
vt 0.825953 0.392265
vt 0.824273 0.403715
vt 0.825864 0.369548
vt 0.824807 0.392265
vt 0.824668 0.370313
vt 0.822847 0.413442
vt 0.824668 0.370313
vt 0.821984 0.330434
vt 0.558781 0.376215
vt 0.559112 0.406000
vt 0.561339 0.404155
vt 0.561061 0.377669
vt 0.822847 0.413442
vt 0.822146 0.403279
vt 0.819332 0.430643
vt 0.819848 0.433096
vt 0.819332 0.430643
vt 0.818266 0.425757
vt 0.820050 0.412136
vt 0.821386 0.392265
vt 0.821266 0.371192
vt 0.821984 0.330434
vt 0.820153 0.333719
vt 0.822923 0.328783
vt 0.537939 0.411211
vt 0.533253 0.376227
vt 0.535463 0.377690
vt 0.539538 0.408710
vt 0.809278 0.414580
vt 0.809278 0.392265
vt 0.812505 0.403715
vt 0.809278 0.369548
vt 0.802661 0.392265
vt 0.802687 0.370313
vt 0.803310 0.413442
vt 0.815869 0.370313
vt 0.815778 0.330434
vt 0.538282 0.341927
vt 0.539844 0.347209
vt 0.815246 0.413442
vt 0.818193 0.403279
vt 0.814562 0.430643
vt 0.809278 0.433096
vt 0.803994 0.430643
vt 0.799997 0.425358
vt 0.798507 0.412136
vt 0.802778 0.330434
vt 0.809278 0.328783
vt 0.566069 0.405473
vt 0.566069 0.411357
vt 0.574759 0.411357
vt 0.557379 0.411357
vt 0.574759 0.411357
vt 0.566069 0.411357
vt 0.574670 0.337815
vt 0.578233 0.337815
vt 0.580922 0.423687
vt 0.576572 0.423687
vt 0.805197 0.322214
vt 0.809278 0.322214
vt 0.813359 0.322214
vt 0.815050 0.322214
vt 0.813359 0.322214
vt 0.809278 0.322214
vt 0.805197 0.322214
vt 0.803507 0.322214
vt 0.809278 0.448499
vt 0.814838 0.444635
vt 0.812058 0.444635
vt 0.809278 0.444635
vt 0.803909 0.441096
vt 0.803718 0.444635
vt 0.809278 0.444635
vt 0.814647 0.441096
vt 0.803909 0.441096
vt 0.523551 0.376235
vt 0.526755 0.402435
vt 0.527479 0.401193
vt 0.524653 0.377773
vt 0.812043 0.437312
vt 0.799224 0.430643
vt 0.527253 0.354514
vt 0.527836 0.335276
vt 0.526935 0.345329
vt 0.526398 0.362130
vt 0.557379 0.411357
vt 0.553780 0.411357
vt 0.566069 0.337815
vt 0.566069 0.423687
vt 0.553905 0.337815
vt 0.557468 0.337815
vt 0.555566 0.423687
vt 0.551216 0.423687
vt 0.578358 0.411357
vt 0.557468 0.337815
vt 0.555566 0.423687
vt 0.574670 0.337815
vt 0.576572 0.423687
vt 0.566069 0.337815
vt 0.566069 0.423687
vt 0.561155 0.346763
vt 0.563154 0.351426
vt 0.559032 0.384322
vt 0.558788 0.392232
vt 0.818665 0.381436
vt 0.812632 0.381093
vt 0.558024 0.376227
vt 0.557295 0.377678
vt 0.526484 0.350464
vt 0.527232 0.354666
vt 0.533030 0.353277
vt 0.537570 0.381637
vt 0.535518 0.386148
vt 0.531509 0.361044
vt 0.561316 0.418107
vt 0.564172 0.407183
vt 0.565840 0.405209
vt 0.563296 0.414954
vt 0.551497 0.368914
vt 0.544277 0.384322
vt 0.545737 0.392232
vt 0.552104 0.378667
vt 0.566704 0.376215
vt 0.566611 0.345831
vt 0.568009 0.350614
vt 0.568078 0.377681
vt 0.796393 0.403309
vt 0.794291 0.403703
vt 0.564476 0.332790
vt 0.566107 0.338974
vt 0.533253 0.413548
vt 0.533253 0.411095
vt 0.539038 0.424815
vt 0.535377 0.416404
vt 0.533566 0.416734
vt 0.536799 0.424102
vt 0.817190 0.437312
vt 0.540686 0.401560
vt 0.544319 0.408266
vt 0.545785 0.413381
vt 0.542588 0.407440
vt 0.530000 0.387339
vt 0.528833 0.391096
vt 0.552060 0.401560
vt 0.552625 0.407440
vt 0.805918 0.381083
vt 0.812638 0.381083
vt 0.540021 0.410357
vt 0.537682 0.411438
vt 0.823005 0.381437
vt 0.825299 0.381093
vt 0.530480 0.438953
vt 0.533253 0.427947
vt 0.566293 0.427854
vt 0.547377 0.427864
vt 0.552266 0.450309
vn -0.8876 -0.3191 0.3322
vn -0.9273 -0.1360 0.3488
vn -0.9883 0.1517 -0.0174
vn -0.9363 -0.3511 0.0000
vn 0.2806 -0.6114 0.7399
vn 0.6999 -0.3047 0.6459
vn 0.6968 -0.3015 0.6508
vn 0.3201 -0.4748 0.8198
vn -0.9217 0.1648 -0.3512
vn -0.8876 -0.3191 -0.3322
vn -0.8342 0.4666 -0.2938
vn -0.8178 0.4851 -0.3096
vn -0.4652 -0.7531 0.4652
vn -0.6785 -0.2817 0.6785
vn -0.4928 -0.8419 0.2200
vn -0.6859 0.1406 0.7140
vn 0.4075 0.5938 -0.6937
vn 0.6391 0.1440 -0.7555
vn 0.6522 0.1472 -0.7436
vn 0.4321 0.6249 -0.6502
vn -0.6331 0.7738 -0.0178
vn -0.5778 0.8060 -0.1285
vn -0.6123 0.7372 -0.2857
vn -0.5251 0.6697 -0.5251
vn -0.6194 0.4596 -0.6364
vn -0.6834 0.1628 -0.7117
vn -0.6729 -0.2705 -0.6885
vn -0.4928 -0.8419 -0.2200
vn -0.4652 -0.7531 -0.4652
vn -0.4958 -0.8684 -0.0000
vn 0.4256 -0.3200 -0.8464
vn -0.0000 -0.6326 -0.7745
vn -0.0000 -0.5351 -0.8448
vn 0.4463 -0.3478 -0.8245
vn -0.3203 0.4890 -0.8114
vn 0.0000 0.7834 -0.6216
vn -0.4075 0.5938 -0.6937
vn 0.8640 0.4522 -0.2214
vn 0.6522 0.4190 -0.6317
vn 0.6388 0.4289 -0.6388
vn 0.8345 0.5040 -0.2228
vn 0.3364 0.4760 -0.8125
vn -0.3357 -0.3187 -0.8864
vn -0.2077 -0.8317 -0.5149
vn -0.6279 0.1440 -0.7649
vn -0.2778 0.7330 -0.6209
vn -0.0263 0.7339 -0.6787
vn 0.2121 0.4624 -0.8609
vn 0.6203 0.4519 -0.6411
vn 0.4541 0.1427 -0.8794
vn 0.3487 -0.3026 -0.8870
vn 0.6760 -0.2571 -0.6906
vn 0.2077 -0.8317 -0.5149
vn 0.4881 -0.7416 -0.4602
vn -0.0000 -0.8435 -0.5372
vn 0.6308 0.5737 0.5225
vn 0.2409 0.7505 0.6154
vn 0.2481 0.7403 0.6249
vn 0.6276 0.5837 0.5152
vn 0.8673 0.4977 -0.0006
vn 0.9492 0.1557 0.2734
vn 0.8097 0.5791 0.0945
vn 0.9405 -0.3398 -0.0045
vn 0.9275 0.1662 0.3348
vn 0.8939 -0.3095 0.3243
vn 0.8253 0.4773 0.3018
vn 0.7476 -0.6001 -0.2845
vn 0.5246 -0.8206 -0.2266
vn 0.5446 0.5598 -0.6246
vn 0.4808 0.6029 -0.6367
vn 0.4791 0.1439 -0.8659
vn 0.6038 0.7611 -0.2369
vn 0.6724 0.7400 0.0178
vn 0.6123 0.7372 0.2857
vn 0.5251 0.6697 0.5251
vn 0.6364 0.4892 0.5964
vn 0.8709 0.1418 0.4705
vn 0.6931 -0.3047 0.6533
vn 0.4928 -0.8419 0.2200
vn 0.4652 -0.7531 0.4652
vn 0.5114 -0.8592 -0.0147
vn -0.1067 0.5879 0.8019
vn -0.2663 0.1547 0.9514
vn -0.2864 0.1550 0.9455
vn -0.1102 0.5992 0.7930
vn -0.0217 0.5187 0.8547
vn -0.0203 -0.3675 0.9298
vn -0.3512 0.1648 0.9217
vn -0.3322 -0.3191 0.8876
vn -0.3127 0.4882 0.8148
vn 0.2200 -0.8419 0.4928
vn -0.0632 -0.2925 0.9542
vn -0.0739 -0.3098 0.9479
vn 0.2857 0.7372 0.6123
vn -0.0000 0.7625 0.6470
vn -0.2908 0.7362 0.6111
vn -0.2456 0.7444 0.6209
vn -0.3686 0.3915 0.8431
vn -0.2200 -0.8419 0.4928
vn 0.0000 -0.8684 0.4958
vn -0.0000 -1.0000 -0.0000
vn 0.0000 -0.8359 -0.5489
vn 0.3882 -0.8359 -0.3882
vn -0.3882 -0.8359 -0.3882
vn 0.3882 -0.8359 0.3882
vn -0.0000 -0.8359 0.5489
vn 0.5086 -0.6948 -0.5086
vn 0.7150 -0.6992 0.0000
vn 0.9709 -0.2395 0.0000
vn 0.6865 -0.2395 -0.6865
vn -0.5086 -0.6948 -0.5086
vn 0.0000 -0.6992 -0.7150
vn 0.5086 -0.6948 0.5086
vn -0.0000 -0.6992 0.7150
vn -0.5086 -0.6948 0.5086
vn -0.7150 -0.6992 -0.0000
vn -0.0256 0.9993 0.0256
vn 0.3200 0.8879 0.3304
vn -0.0995 0.9901 0.0995
vn -0.3304 0.8879 -0.3200
vn -0.3168 0.8940 -0.3168
vn -0.3414 0.9399 -0.0000
vn -0.0000 0.9399 0.3414
vn 0.3168 0.8940 0.3168
vn -0.3197 0.8919 0.3197
vn -0.4321 0.6249 -0.6502
vn -0.6522 0.1472 -0.7436
vn -0.1414 0.6878 -0.7120
vn -0.3191 0.9216 0.2211
vn -0.9925 0.0892 -0.0837
vn -0.9301 -0.1217 0.3465
vn -0.9920 0.0646 -0.1081
vn -0.3882 -0.8359 0.3882
vn -0.5489 -0.8359 -0.0000
vn 0.0000 -0.2395 -0.9709
vn -0.6865 -0.2395 -0.6865
vn -0.9709 -0.2395 0.0000
vn 0.5489 -0.8359 -0.0000
vn -0.6865 -0.2395 0.6865
vn 0.6865 -0.2395 0.6865
vn 0.0000 -0.2395 0.9709
vn 0.6611 -0.2863 -0.6935
vn 0.6235 -0.3271 -0.7101
vn 0.7120 0.6878 0.1414
vn 0.7240 0.6742 0.1459
vn 0.8454 0.1468 0.5136
vn -0.4256 -0.3200 -0.8464
vn -0.4463 -0.3478 -0.8245
vn -0.6853 0.0673 0.7251
vn -0.4199 0.4001 0.8146
vn -0.6680 0.0517 0.7424
vn 0.7724 0.6200 0.1377
vn 0.5987 0.7645 -0.2389
vn -0.1459 0.6742 -0.7240
vn 0.2228 0.5040 -0.8345
vn 0.9586 -0.2797 0.0537
vn 0.9362 -0.3366 0.1007
vn 0.9330 0.1526 0.3259
vn 0.8023 -0.5078 -0.3138
vn 0.0000 0.7930 -0.6092
vn -0.5446 0.8241 -0.1560
vn -0.3486 0.9131 0.2113
vn -0.1196 0.9856 0.1196
vn -0.3203 0.8886 -0.3283
vn -0.8249 0.4637 -0.3234
vn 0.3283 0.8886 0.3203
vn -0.2843 0.7468 0.6012
vn -0.8112 0.4938 0.3130
vn 0.0000 0.1745 -0.9847
vn 0.9217 0.1671 -0.3502
vn 0.3502 0.1668 0.9217
vn 0.3233 0.8894 -0.3233
usemtl witch
s 1
f 45/1/1 46/2/2 48/3/3 47/4/4
f 69/5/5 112/6/6 157/7/7 147/8/8
f 47/4/4 48/3/3 51/9/9 50/10/10
f 48/3/3 49/11/11 52/12/12 51/9/9
f 1/13/13 12/14/14 45/1/1 11/15/15
f 12/14/14 13/16/16 46/2/2 45/1/1
f 120/17/17 59/18/18 141/19/19 165/20/20
f 16/21/21 49/11/11 114/22/22
f 49/11/11 16/21/21 17/23/23 52/12/12
f 52/12/12 17/23/23 4/24/24 18/25/25
f 51/9/9 52/12/12 18/25/25 19/26/26
f 50/10/10 51/9/9 19/26/26 20/27/27
f 9/28/28 50/10/10 20/27/27 3/29/29
f 10/30/30 47/4/4 50/10/10 9/28/28
f 11/15/15 45/1/1 47/4/4 10/30/30
f 123/31/31 56/32/32 139/33/33 168/34/34
f 55/35/35 57/36/36 122/37/37
f 33/38/38 8/39/39 132/40/40 133/41/41
f 60/42/42 59/43/18 120/44/17
f 3/29/29 20/27/27 53/45/43 23/46/44
f 20/27/27 19/26/26 54/47/45 53/45/43
f 19/26/26 18/25/25 55/35/35 54/47/45
f 18/25/25 4/24/24 24/48/46 55/35/35
f 55/35/35 24/48/46 25/49/47 57/36/36
f 57/36/36 25/49/47 26/50/48 60/42/42
f 60/42/42 26/50/48 8/51/39 27/52/49
f 59/43/18 60/42/42 27/52/49 28/53/50
f 58/54/51 59/43/18 28/53/50 29/55/52
f 21/56/53 58/54/51 29/55/52 7/57/54
f 22/58/55 56/59/32 58/54/51 21/56/53
f 23/46/44 53/45/43 56/59/32 22/58/55
f 111/60/56 70/61/57 149/62/58 156/63/59
f 65/64/60 64/65/61 124/66/62
f 63/67/63 64/65/61 67/68/64 66/69/65
f 64/65/61 65/64/60 68/70/66 67/68/64
f 7/57/54 29/55/52 61/71/67 32/72/68
f 28/73/50 126/74/69 170/75/70 146/76/71
f 27/52/49 62/77/72 126/78/69
f 27/52/49 8/51/39 33/79/38 62/77/72
f 62/77/72 33/79/38 34/80/73 65/64/60
f 65/64/60 34/80/73 35/81/74 68/70/66
f 68/70/66 35/81/74 6/82/75 36/83/76
f 67/68/64 68/70/66 36/83/76 37/84/77
f 66/69/65 67/68/64 37/84/77 38/85/78
f 30/86/79 66/69/65 38/85/78 5/87/80
f 31/88/81 63/67/63 66/69/65 30/86/79
f 32/72/68 61/71/67 63/67/63 31/88/81
f 110/89/82 72/90/83 150/91/84 155/92/85
f 73/93/86 72/94/83 110/95/82
f 71/96/87 72/94/83 75/97/88 74/98/89
f 72/94/83 73/93/86 76/99/90 75/97/88
f 5/87/80 38/85/78 69/100/5 41/101/91
f 113/102/92 69/5/5 147/8/8 158/103/93
f 36/83/76 70/104/57 111/105/56
f 36/83/76 6/82/75 42/106/94 70/104/57
f 70/104/57 42/106/94 43/107/95 73/93/86
f 73/93/86 43/107/95 44/108/96 76/99/90
f 76/99/90 44/108/96 2/109/97 14/110/98
f 75/97/88 76/99/90 14/110/98 13/16/16
f 74/98/89 75/97/88 13/16/16 12/14/14
f 39/111/99 74/98/89 12/14/14 1/13/13
f 40/112/100 71/96/87 74/98/89 39/111/99
f 41/101/91 69/100/5 71/96/87 40/112/100
f 81/113/101 102/114/102 94/115/103
f 81/113/101 99/116/104 102/114/102
f 81/113/101 107/117/105 108/118/106
f 79/119/107 82/120/108 96/121/109 95/122/110
f 23/46/44 77/123/111 9/28/28
f 23/46/44 22/58/55 78/124/112 77/123/111
f 22/58/55 21/56/53 79/125/107 78/124/112
f 21/56/53 7/57/54 32/72/68
f 79/125/107 32/72/68 31/88/81 82/126/108
f 82/126/108 31/88/81 30/86/79 85/127/113
f 30/86/79 5/87/80 41/101/91
f 84/128/114 85/127/113 41/101/91 40/112/100
f 83/129/115 84/128/114 40/112/100 39/111/99
f 11/15/15 83/129/115 39/111/99
f 10/30/30 80/130/116 83/129/115 11/15/15
f 9/28/28 77/123/111 80/130/116 10/30/30
f 89/131/117 88/132/118 117/133/119
f 86/134/120 87/135/121 90/136/122 89/131/117
f 88/132/118 89/131/117 92/137/123 91/138/124
f 89/131/117 90/136/122 93/139/125 92/137/123
f 54/140/45 122/141/37 166/142/126 137/143/127
f 25/49/47 86/134/120 118/144/128
f 25/49/47 24/48/46 87/135/121 86/134/120
f 24/48/46 4/24/24 17/23/23 87/135/121
f 87/135/121 17/23/23 16/21/21 90/136/122
f 90/136/122 16/21/21 15/145/129 93/139/125
f 93/139/125 15/145/129 2/109/97 44/108/96
f 92/137/123 93/139/125 44/108/96 43/107/95
f 91/138/124 92/137/123 43/107/95 42/106/94
f 35/81/74 91/138/124 42/106/94 6/82/75
f 34/80/73 88/132/118 91/138/124 35/81/74
f 116/146/130 46/147/2 134/148/131 161/149/132
f 81/113/101 104/150/133 100/151/134
f 81/113/101 100/151/134 99/116/104
f 81/113/101 108/118/106 104/150/133
f 78/152/112 79/119/107 95/122/110 103/153/135
f 80/154/116 77/155/111 98/156/136 101/157/137
f 81/113/101 97/158/138 107/117/105
f 77/155/111 78/152/112 103/153/135 98/156/136
f 83/159/115 80/154/116 101/157/137 105/160/139
f 82/120/108 85/161/113 106/162/140 96/121/109
f 84/163/114 83/159/115 105/160/139 109/164/141
f 85/161/113 84/163/114 109/164/141 106/162/140
f 95/122/110 96/121/109 97/158/138 94/115/103
f 99/116/104 100/151/134 101/157/137 98/156/136
f 103/153/135 95/122/110 94/115/103 102/114/102
f 98/156/136 103/153/135 102/114/102 99/116/104
f 100/151/134 104/150/133 105/160/139 101/157/137
f 96/121/109 106/162/140 107/117/105 97/158/138
f 104/150/133 108/118/106 109/164/141 105/160/139
f 108/118/106 107/117/105 106/162/140 109/164/141
f 81/113/101 94/115/103 97/158/138
f 85/127/113 30/86/79 41/101/91
f 79/125/107 21/56/53 32/72/68
f 3/29/29 23/46/44 9/28/28
f 1/13/13 11/15/15 39/111/99
f 125/165/142 28/73/50 146/76/71 171/166/143
f 119/167/144 33/38/38 133/41/41 164/168/145
f 38/85/78 37/84/77 112/169/6
f 71/96/87 69/100/5 113/170/92
f 70/104/57 73/93/86 110/95/82
f 112/6/6 37/171/77 151/172/146 157/7/7
f 121/173/147 54/140/45 137/143/127 167/174/148
f 37/84/77 36/83/76 111/105/56
f 115/175/149 14/176/98 128/177/150 160/178/151
f 69/100/5 38/85/78 112/169/6
f 72/94/83 71/96/87 113/170/92
f 62/179/72 124/180/62 169/181/152 144/182/153
f 26/183/48 118/184/128 163/185/154 131/186/155
f 64/187/61 127/188/156 172/189/157 145/190/158
f 13/16/16 14/110/98 115/191/149
f 48/3/3 46/2/2 116/192/130
f 37/171/77 111/60/56 156/63/59 151/172/146
f 15/145/129 16/21/21 114/22/22
f 61/193/67 125/165/142 171/166/143 142/194/159
f 57/195/36 120/17/17 165/20/20 140/196/160
f 46/2/2 13/16/16 115/191/149
f 49/11/11 48/3/3 116/192/130
f 15/197/129 114/198/22 159/199/161 130/200/162
f 8/39/39 26/183/48 131/186/155 132/40/40
f 126/74/69 62/179/72 144/182/153 170/75/70
f 34/80/73 33/79/38 119/201/144
f 86/134/120 89/131/117 117/133/119
f 86/202/120 117/203/119 162/204/163 153/205/164
f 59/18/18 123/31/31 168/34/34 141/19/19
f 49/206/11 116/146/130 161/149/132 136/207/165
f 26/50/48 25/49/47 118/144/128
f 124/180/62 64/187/61 145/190/158 169/181/152
f 88/132/118 34/80/73 119/201/144
f 88/208/118 119/167/144 164/168/145 154/209/166
f 70/61/57 110/89/82 155/92/85 149/62/58
f 53/45/43 54/47/45 121/210/147
f 58/54/51 56/59/32 123/211/31
f 57/36/36 60/42/42 120/44/17
f 127/188/156 61/193/67 142/194/159 172/189/157
f 2/212/97 15/197/129 130/200/162 129/213/167
f 56/59/32 53/45/43 121/210/147
f 56/32/32 121/173/147 167/174/148 139/33/33
f 54/47/45 55/35/35 122/37/37
f 59/43/18 58/54/51 123/211/31
f 46/147/2 115/175/149 160/178/151 134/148/131
f 118/184/128 86/202/120 153/205/164 163/185/154
f 72/90/83 113/102/92 158/103/93 150/91/84
f 29/55/52 28/53/50 125/214/142
f 63/67/63 61/71/67 127/215/156
f 62/77/72 65/64/60 124/66/62
f 14/176/98 2/212/97 129/213/167 128/177/150
f 122/141/37 57/195/36 140/196/160 166/142/126
f 61/71/67 29/55/52 125/214/142
f 114/198/22 49/206/11 136/207/165 159/199/161
f 28/53/50 27/52/49 126/78/69
f 64/65/61 63/67/63 127/215/156
f 117/203/119 88/208/118 154/209/166 162/204/163
f 135/216/168 136/207/165 161/149/132
f 135/216/168 134/148/131 160/178/151
f 138/217/169 139/33/33 167/174/148
f 138/217/169 141/19/19 168/34/34
f 143/218/170 145/190/158 172/189/157
f 143/218/170 142/194/159 171/166/143
f 148/219/171 150/91/84 158/103/93
f 148/219/171 147/8/8 157/7/7
f 152/220/172 133/41/41 132/40/40
f 152/220/172 154/209/166 164/168/145
f 148/219/171 149/62/58 155/92/85
f 148/219/171 151/172/146 156/63/59
f 150/91/84 148/219/171 155/92/85
f 149/62/58 148/219/171 156/63/59
f 151/172/146 148/219/171 157/7/7
f 147/8/8 148/219/171 158/103/93
f 135/216/168 130/200/162 159/199/161
f 135/216/168 128/177/150 129/213/167
f 136/207/165 135/216/168 159/199/161
f 130/200/162 135/216/168 129/213/167
f 128/177/150 135/216/168 160/178/151
f 134/148/131 135/216/168 161/149/132
f 152/220/172 153/205/164 162/204/163
f 152/220/172 131/186/155 163/185/154
f 154/209/166 152/220/172 162/204/163
f 131/186/155 152/220/172 132/40/40
f 153/205/164 152/220/172 163/185/154
f 133/41/41 152/220/172 164/168/145
f 138/217/169 140/196/160 165/20/20
f 138/217/169 137/143/127 166/142/126
f 141/19/19 138/217/169 165/20/20
f 137/143/127 138/217/169 167/174/148
f 140/196/160 138/217/169 166/142/126
f 139/33/33 138/217/169 168/34/34
f 143/218/170 144/182/153 169/181/152
f 143/218/170 146/76/71 170/75/70
f 145/190/158 143/218/170 169/181/152
f 146/76/71 143/218/170 171/166/143
f 144/182/153 143/218/170 170/75/70
f 142/194/159 143/218/170 172/189/157
