# Blender v3.4.1 OBJ File: 'November2024_Witch_Assets_Export.blend'
# www.blender.org
mtllib Pestle.mtl
o Pestle
v -0.000020 -0.065158 -0.070711
v -0.000020 -0.033519 -0.092388
v -0.000020 0.041124 -0.092388
v -0.014665 -0.086299 -0.035355
v -0.027080 -0.065158 -0.065328
v -0.035375 -0.033519 -0.085355
v -0.038288 0.003802 -0.092388
v -0.035375 0.041124 -0.085355
v -0.027080 0.072763 -0.065328
v -0.027080 -0.086299 -0.027060
v -0.050020 -0.065158 -0.050000
v -0.065348 -0.033519 -0.065328
v -0.070731 0.003802 -0.070711
v -0.065348 0.041124 -0.065328
v -0.050020 0.072763 -0.050000
v -0.035375 -0.086299 -0.014645
v -0.065348 -0.065158 -0.027060
v -0.085375 -0.033519 -0.035355
v -0.092408 0.003802 -0.038268
v -0.085375 0.041124 -0.035355
v -0.065348 0.072763 -0.027060
v -0.038288 -0.086299 -0.000000
v -0.070731 -0.065158 -0.000000
v -0.092408 -0.033519 -0.000000
v -0.100020 0.003802 -0.000000
v -0.092408 0.041124 -0.000000
v -0.070731 0.072763 -0.000000
v -0.035375 -0.086299 0.014645
v -0.065348 -0.065158 0.027060
v -0.085375 -0.033519 0.035355
v -0.092408 0.003802 0.038268
v -0.085375 0.041124 0.035355
v -0.065348 0.072763 0.027060
v -0.027080 -0.086299 0.027060
v -0.050020 -0.065158 0.050000
v -0.065348 -0.033519 0.065328
v -0.070731 0.003802 0.070711
v -0.065348 0.041124 0.065328
v -0.050020 0.072763 0.050000
v -0.014665 -0.086299 0.035355
v -0.027080 -0.065158 0.065328
v -0.035375 -0.033519 0.085355
v -0.038288 0.003802 0.092388
v -0.035375 0.041124 0.085355
v -0.027080 0.072763 0.065328
v -0.000020 -0.093722 -0.000000
v -0.000020 -0.086299 0.038268
v -0.000020 -0.065158 0.070711
v -0.000020 -0.033519 0.092388
v -0.000020 0.003802 0.100000
v -0.000020 0.041124 0.092388
v -0.000020 0.072763 0.070711
v 0.014625 -0.086299 0.035355
v 0.027040 -0.065158 0.065328
v 0.035335 -0.033519 0.085355
v 0.038248 0.003802 0.092388
v 0.035335 0.041124 0.085355
v 0.027040 0.072763 0.065328
v 0.027040 -0.086299 0.027060
v 0.049980 -0.065158 0.050000
v 0.065308 -0.033519 0.065328
v 0.070691 0.003802 0.070711
v 0.065308 0.041124 0.065328
v 0.049980 0.072763 0.050000
v 0.035335 -0.086299 0.014645
v 0.065308 -0.065158 0.027060
v 0.085335 -0.033519 0.035355
v 0.092368 0.003802 0.038268
v 0.085335 0.041124 0.035355
v 0.065308 0.072763 0.027060
v 0.038248 -0.086299 -0.000000
v 0.070691 -0.065158 -0.000000
v 0.092368 -0.033519 -0.000000
v 0.099980 0.003802 -0.000000
v 0.092368 0.041124 -0.000000
v 0.070691 0.072763 -0.000000
v 0.035335 -0.086299 -0.014645
v 0.065308 -0.065158 -0.027060
v 0.085335 -0.033519 -0.035355
v 0.092368 0.003802 -0.038268
v 0.085335 0.041124 -0.035355
v 0.065308 0.072763 -0.027060
v 0.027040 -0.086299 -0.027060
v 0.049980 -0.065158 -0.050000
v 0.065308 -0.033519 -0.065328
v 0.070691 0.003802 -0.070711
v 0.065308 0.041124 -0.065328
v 0.049980 0.072763 -0.050000
v 0.014625 -0.086299 -0.035355
v 0.027040 -0.065158 -0.065328
v 0.035335 -0.033519 -0.085355
v 0.038248 0.003802 -0.092388
v 0.035335 0.041124 -0.085355
v 0.027040 0.072763 -0.065328
v -0.000020 -0.086299 -0.038268
v -0.000020 0.003802 -0.100000
v -0.000020 0.072763 -0.070711
v -0.000019 0.306278 0.000000
v -0.000019 0.295102 -0.045889
v 0.017542 0.295102 -0.042396
v 0.032429 0.295102 -0.032448
v 0.042377 0.295102 -0.017561
v 0.045870 0.295102 0.000000
v 0.042377 0.295102 0.017561
v 0.032429 0.295102 0.032448
v 0.017542 0.295102 0.042396
v -0.000019 0.295102 0.045889
v -0.017580 0.295102 0.042396
v -0.032467 0.295102 0.032448
v -0.042415 0.295102 0.017561
v -0.045908 0.295102 0.000000
v -0.042415 0.295102 -0.017561
v -0.032467 0.295102 -0.032448
v -0.017580 0.295102 -0.042396
v -0.012460 0.306278 -0.030035
v -0.000019 0.306278 -0.032510
v 0.012422 0.306278 -0.030035
v 0.022969 0.306278 -0.022988
v 0.030017 0.306278 -0.012441
v 0.032491 0.306278 0.000000
v 0.022969 0.306278 0.022988
v 0.012422 0.306278 0.030035
v -0.000019 0.306278 0.032510
v -0.012460 0.306278 0.030035
v -0.023007 0.306278 0.022988
v -0.030054 0.306278 0.012441
v -0.032529 0.306278 0.000000
v -0.030054 0.306278 -0.012441
v -0.023007 0.306278 -0.022988
v 0.030017 0.306278 0.012441
vt 0.461157 0.595691
vt 0.462646 0.595691
vt 0.454243 0.658927
vt 0.453394 0.658927
vt 0.429269 0.595691
vt 0.435612 0.595691
vt 0.438828 0.658927
vt 0.435212 0.658927
vt 0.443095 0.595691
vt 0.443095 0.658927
vt 0.425031 0.595691
vt 0.423543 0.595691
vt 0.431947 0.658927
vt 0.432796 0.658927
vt 0.456919 0.595691
vt 0.450577 0.595691
vt 0.447360 0.658927
vt 0.450977 0.658927
vt 0.429269 0.595691
vt 0.435212 0.658927
vt 0.443095 0.595691
vt 0.443095 0.658927
vt 0.461157 0.595691
vt 0.453394 0.658927
vt 0.435612 0.595691
vt 0.438828 0.658927
vt 0.456919 0.595691
vt 0.450977 0.658927
vt 0.450577 0.595691
vt 0.447360 0.658927
vt 0.425031 0.595691
vt 0.432796 0.658927
vt 0.443095 0.586721
vt 0.443095 0.576140
vt 0.432512 0.576140
vt 0.433318 0.586721
vt 0.443095 0.565558
vt 0.443095 0.556588
vt 0.435612 0.556588
vt 0.433318 0.565558
vt 0.443095 0.550594
vt 0.443095 0.548489
vt 0.439045 0.550594
vt 0.425031 0.586721
vt 0.425031 0.565558
vt 0.423543 0.576140
vt 0.435612 0.550594
vt 0.429269 0.556588
vt 0.419494 0.565558
vt 0.417549 0.576140
vt 0.433318 0.550594
vt 0.425031 0.556588
vt 0.419494 0.586721
vt 0.415444 0.576140
vt 0.417549 0.586721
vt 0.423543 0.556588
vt 0.417549 0.565558
vt 0.432512 0.550594
vt 0.425031 0.556588
vt 0.419494 0.565558
vt 0.433318 0.550594
vt 0.419494 0.586721
vt 0.417549 0.576140
vt 0.425031 0.586721
vt 0.425031 0.565558
vt 0.423543 0.576140
vt 0.435612 0.550594
vt 0.429269 0.556588
vt 0.439045 0.550594
vt 0.435612 0.556588
vt 0.432512 0.576140
vt 0.433318 0.586721
vt 0.433318 0.565558
vt 0.443095 0.576140
vt 0.443095 0.586721
vt 0.443095 0.556588
vt 0.443095 0.565558
vt 0.443095 0.550594
vt 0.447144 0.550594
vt 0.452870 0.586721
vt 0.452870 0.565558
vt 0.453676 0.576140
vt 0.450577 0.556588
vt 0.461157 0.586721
vt 0.461157 0.565558
vt 0.462646 0.576140
vt 0.450577 0.550594
vt 0.456919 0.556588
vt 0.468640 0.576140
vt 0.466696 0.586721
vt 0.461157 0.556588
vt 0.466696 0.565558
vt 0.452870 0.550594
vt 0.470745 0.576140
vt 0.468640 0.586721
vt 0.462646 0.556588
vt 0.468640 0.565558
vt 0.453676 0.550594
vt 0.466696 0.586721
vt 0.466696 0.565558
vt 0.468640 0.576140
vt 0.452870 0.550594
vt 0.461157 0.556588
vt 0.461157 0.565558
vt 0.462646 0.576140
vt 0.450577 0.550594
vt 0.456919 0.556588
vt 0.461157 0.586721
vt 0.453676 0.576140
vt 0.452870 0.586721
vt 0.450577 0.556588
vt 0.452870 0.565558
vt 0.447144 0.550594
vt 0.443095 0.690177
vt 0.438828 0.690177
vt 0.440072 0.692961
vt 0.443095 0.692961
vt 0.450977 0.690177
vt 0.447360 0.690177
vt 0.446118 0.692961
vt 0.448678 0.692961
vt 0.450390 0.692961
vt 0.450992 0.692961
vt 0.454243 0.690177
vt 0.453394 0.690177
vt 0.448678 0.692961
vt 0.446118 0.692961
vt 0.447360 0.690177
vt 0.450977 0.690177
vt 0.438828 0.690177
vt 0.443095 0.690177
vt 0.443095 0.692961
vt 0.440072 0.692961
vt 0.435212 0.690177
vt 0.437510 0.692961
vt 0.435798 0.692961
vt 0.432796 0.690177
vt 0.432796 0.690177
vt 0.431947 0.690177
vt 0.435197 0.692961
vt 0.435798 0.692961
vt 0.435212 0.690177
vt 0.437510 0.692961
vt 0.453394 0.690177
vt 0.450390 0.692961
vt 0.443095 0.692961
vn 0.9182 0.1109 0.3803
vn 0.9938 0.1109 0.0000
vn 0.8905 0.4550 0.0000
vn 0.8227 0.4550 0.3408
vn -0.7027 0.1110 0.7027
vn -0.3803 0.1110 0.9182
vn -0.3408 0.4550 0.8227
vn -0.6297 0.4550 0.6297
vn -0.0000 0.1110 0.9938
vn 0.0000 0.4550 0.8905
vn -0.9182 0.1110 -0.3803
vn -0.9938 0.1110 0.0000
vn -0.8905 0.4550 0.0000
vn -0.8227 0.4550 -0.3408
vn 0.7027 0.1109 -0.7027
vn 0.3803 0.1109 -0.9182
vn 0.3408 0.4550 -0.8227
vn 0.6297 0.4550 -0.6297
vn -0.7027 0.1110 -0.7027
vn -0.6297 0.4550 -0.6297
vn 0.0000 0.1110 -0.9938
vn 0.0000 0.4550 -0.8905
vn 0.9182 0.1109 -0.3803
vn 0.8227 0.4550 -0.3408
vn -0.3803 0.1110 -0.9182
vn -0.3408 0.4550 -0.8227
vn 0.7027 0.1109 0.7027
vn 0.6297 0.4550 0.6297
vn 0.3803 0.1109 0.9182
vn 0.3408 0.4550 0.8227
vn -0.9182 0.1110 0.3803
vn -0.8227 0.4550 0.3408
vn 0.0000 0.3817 -0.9243
vn -0.0000 0.0000 -1.0000
vn -0.3827 0.0000 -0.9239
vn -0.3537 0.3817 -0.8539
vn 0.0000 -0.3817 -0.9243
vn 0.0000 -0.7033 -0.7109
vn -0.2720 -0.7033 -0.6568
vn -0.3537 -0.3817 -0.8539
vn -0.0000 -0.9185 -0.3954
vn -0.0000 -1.0000 -0.0000
vn -0.1513 -0.9185 -0.3653
vn 0.0000 0.5652 -0.8250
vn -0.3157 0.5652 -0.7622
vn -0.6536 0.3817 -0.6536
vn -0.5833 0.5652 -0.5833
vn -0.6536 -0.3817 -0.6536
vn -0.7071 0.0000 -0.7071
vn -0.2796 -0.9185 -0.2796
vn -0.5027 -0.7033 -0.5027
vn -0.8539 -0.3817 -0.3537
vn -0.9239 0.0000 -0.3827
vn -0.3653 -0.9185 -0.1513
vn -0.6568 -0.7033 -0.2720
vn -0.8539 0.3817 -0.3537
vn -0.7622 0.5652 -0.3157
vn -1.0000 0.0000 0.0000
vn -0.9243 0.3817 0.0000
vn -0.7109 -0.7033 -0.0000
vn -0.9243 -0.3817 -0.0000
vn -0.3954 -0.9185 -0.0000
vn -0.8250 0.5652 0.0000
vn -0.6568 -0.7033 0.2720
vn -0.8539 -0.3817 0.3537
vn -0.3653 -0.9185 0.1513
vn -0.8539 0.3817 0.3537
vn -0.7622 0.5652 0.3157
vn -0.9239 0.0000 0.3827
vn -0.6536 0.3817 0.6536
vn -0.5833 0.5652 0.5833
vn -0.6536 -0.3817 0.6536
vn -0.7071 0.0000 0.7071
vn -0.2796 -0.9185 0.2796
vn -0.5027 -0.7033 0.5027
vn -0.1513 -0.9185 0.3653
vn -0.2720 -0.7033 0.6568
vn -0.3827 0.0000 0.9239
vn -0.3537 0.3817 0.8539
vn -0.3537 -0.3817 0.8539
vn -0.3157 0.5652 0.7622
vn 0.0000 -0.0000 1.0000
vn 0.0000 0.3817 0.9243
vn -0.0000 -0.7033 0.7109
vn 0.0000 -0.3817 0.9243
vn -0.0000 -0.9185 0.3954
vn 0.0000 0.5652 0.8250
vn 0.1513 -0.9185 0.3653
vn 0.3537 0.3817 0.8539
vn 0.3157 0.5652 0.7622
vn 0.3537 -0.3817 0.8539
vn 0.3827 -0.0000 0.9239
vn 0.2720 -0.7033 0.6568
vn 0.6536 0.3817 0.6536
vn 0.5833 0.5652 0.5833
vn 0.6536 -0.3817 0.6536
vn 0.7071 -0.0000 0.7071
vn 0.2796 -0.9185 0.2796
vn 0.5027 -0.7033 0.5027
vn 0.9239 -0.0000 0.3827
vn 0.8539 0.3817 0.3537
vn 0.6568 -0.7033 0.2720
vn 0.8539 -0.3817 0.3537
vn 0.3653 -0.9185 0.1513
vn 0.7622 0.5652 0.3157
vn 1.0000 -0.0000 -0.0000
vn 0.9243 0.3817 -0.0000
vn 0.7109 -0.7033 -0.0000
vn 0.9243 -0.3817 -0.0000
vn 0.3954 -0.9185 -0.0000
vn 0.8250 0.5652 0.0000
vn 0.8539 0.3817 -0.3537
vn 0.7622 0.5652 -0.3157
vn 0.8539 -0.3817 -0.3537
vn 0.9239 -0.0000 -0.3827
vn 0.3653 -0.9185 -0.1513
vn 0.6568 -0.7033 -0.2720
vn 0.6536 -0.3817 -0.6536
vn 0.7071 0.0000 -0.7071
vn 0.2796 -0.9185 -0.2796
vn 0.5027 -0.7033 -0.5027
vn 0.6536 0.3817 -0.6536
vn 0.5833 0.5652 -0.5833
vn 0.3827 0.0000 -0.9239
vn 0.3537 0.3817 -0.8539
vn 0.2720 -0.7033 -0.6568
vn 0.3537 -0.3817 -0.8539
vn 0.1513 -0.9185 -0.3653
vn 0.3157 0.5652 -0.7622
vn -0.1445 0.9260 -0.3488
vn 0.0000 0.9260 -0.3775
vn 0.1445 0.9260 -0.3488
vn 0.2669 0.9260 -0.2669
vn 0.3488 0.9260 -0.1445
vn 0.3775 0.9260 -0.0000
vn 0.2669 0.9260 0.2669
vn 0.1445 0.9260 0.3488
vn 0.0000 0.9260 0.3775
vn -0.1445 0.9260 0.3488
vn -0.2669 0.9260 0.2669
vn -0.3488 0.9260 0.1445
vn -0.3775 0.9260 0.0000
vn -0.3488 0.9260 -0.1445
vn -0.2669 0.9260 -0.2669
vn 0.3488 0.9260 0.1445
vn 0.0000 1.0000 0.0000
usemtl witch
s 1
f 70/1/1 76/2/2 103/3/3 104/4/4
f 39/5/5 45/6/6 108/7/7 109/8/8
f 45/6/6 52/9/9 107/10/10 108/7/7
f 21/11/11 27/12/12 111/13/13 112/14/14
f 88/15/15 94/16/16 100/17/17 101/18/18
f 15/19/19 21/11/11 112/14/14 113/20/20
f 94/16/16 97/21/21 99/22/22 100/17/17
f 82/23/23 88/15/15 101/18/18 102/24/24
f 9/25/25 15/19/19 113/20/20 114/26/26
f 64/27/27 70/1/1 104/4/4 105/28/28
f 52/9/9 58/29/29 106/30/30 107/10/10
f 76/2/2 82/23/23 102/24/24 103/3/3
f 27/12/12 33/31/31 110/32/32 111/13/13
f 33/31/31 39/5/5 109/8/8 110/32/32
f 58/29/29 64/27/27 105/28/28 106/30/30
f 3/33/33 96/34/34 7/35/35 8/36/36
f 2/37/37 1/38/38 5/39/39 6/40/40
f 95/41/41 46/42/42 4/43/43
f 97/21/44 3/33/33 8/36/36 9/25/45
f 96/34/34 2/37/37 6/40/40 7/35/35
f 1/38/38 95/41/41 4/43/43 5/39/39
f 9/25/45 8/36/36 14/44/46 15/19/47
f 7/35/35 6/40/40 12/45/48 13/46/49
f 5/39/39 4/43/43 10/47/50 11/48/51
f 8/36/36 7/35/35 13/46/49 14/44/46
f 6/40/40 5/39/39 11/48/51 12/45/48
f 4/43/43 46/42/42 10/47/50
f 13/46/49 12/45/48 18/49/52 19/50/53
f 11/48/51 10/47/50 16/51/54 17/52/55
f 14/44/46 13/46/49 19/50/53 20/53/56
f 12/45/48 11/48/51 17/52/55 18/49/52
f 10/47/50 46/42/42 16/51/54
f 15/19/47 14/44/46 20/53/56 21/11/57
f 20/53/56 19/50/53 25/54/58 26/55/59
f 18/49/52 17/52/55 23/56/60 24/57/61
f 16/51/54 46/42/42 22/58/62
f 21/11/57 20/53/56 26/55/59 27/12/63
f 19/50/53 18/49/52 24/57/61 25/54/58
f 17/52/55 16/51/54 22/58/62 23/56/60
f 24/57/61 23/56/60 29/59/64 30/60/65
f 22/58/62 46/42/42 28/61/66
f 27/12/63 26/55/59 32/62/67 33/31/68
f 25/54/58 24/57/61 30/60/65 31/63/69
f 23/56/60 22/58/62 28/61/66 29/59/64
f 26/55/59 25/54/58 31/63/69 32/62/67
f 33/31/68 32/62/67 38/64/70 39/5/71
f 31/63/69 30/60/65 36/65/72 37/66/73
f 29/59/64 28/61/66 34/67/74 35/68/75
f 32/62/67 31/63/69 37/66/73 38/64/70
f 30/60/65 29/59/64 35/68/75 36/65/72
f 28/61/66 46/42/42 34/67/74
f 35/68/75 34/67/74 40/69/76 41/70/77
f 38/64/70 37/66/73 43/71/78 44/72/79
f 36/65/72 35/68/75 41/70/77 42/73/80
f 34/67/74 46/42/42 40/69/76
f 39/5/71 38/64/70 44/72/79 45/6/81
f 37/66/73 36/65/72 42/73/80 43/71/78
f 44/72/79 43/71/78 50/74/82 51/75/83
f 42/73/80 41/70/77 48/76/84 49/77/85
f 40/69/76 46/42/42 47/78/86
f 45/6/81 44/72/79 51/75/83 52/9/87
f 43/71/78 42/73/80 49/77/85 50/74/82
f 41/70/77 40/69/76 47/78/86 48/76/84
f 47/78/86 46/42/42 53/79/88
f 52/9/87 51/75/83 57/80/89 58/29/90
f 50/74/82 49/77/85 55/81/91 56/82/92
f 48/76/84 47/78/86 53/79/88 54/83/93
f 51/75/83 50/74/82 56/82/92 57/80/89
f 49/77/85 48/76/84 54/83/93 55/81/91
f 58/29/90 57/80/89 63/84/94 64/27/95
f 56/82/92 55/81/91 61/85/96 62/86/97
f 54/83/93 53/79/88 59/87/98 60/88/99
f 57/80/89 56/82/92 62/86/97 63/84/94
f 55/81/91 54/83/93 60/88/99 61/85/96
f 53/79/88 46/42/42 59/87/98
f 63/84/94 62/86/97 68/89/100 69/90/101
f 61/85/96 60/88/99 66/91/102 67/92/103
f 59/87/98 46/42/42 65/93/104
f 64/27/95 63/84/94 69/90/101 70/1/105
f 62/86/97 61/85/96 67/92/103 68/89/100
f 60/88/99 59/87/98 65/93/104 66/91/102
f 69/90/101 68/89/100 74/94/106 75/95/107
f 67/92/103 66/91/102 72/96/108 73/97/109
f 65/93/104 46/42/42 71/98/110
f 70/1/105 69/90/101 75/95/107 76/2/111
f 68/89/100 67/92/103 73/97/109 74/94/106
f 66/91/102 65/93/104 71/98/110 72/96/108
f 76/2/111 75/95/107 81/99/112 82/23/113
f 74/94/106 73/97/109 79/100/114 80/101/115
f 72/96/108 71/98/110 77/102/116 78/103/117
f 75/95/107 74/94/106 80/101/115 81/99/112
f 73/97/109 72/96/108 78/103/117 79/100/114
f 71/98/110 46/42/42 77/102/116
f 80/101/115 79/100/114 85/104/118 86/105/119
f 78/103/117 77/102/116 83/106/120 84/107/121
f 81/99/112 80/101/115 86/105/119 87/108/122
f 79/100/114 78/103/117 84/107/121 85/104/118
f 77/102/116 46/42/42 83/106/120
f 82/23/113 81/99/112 87/108/122 88/15/123
f 87/108/122 86/105/119 92/109/124 93/110/125
f 85/104/118 84/107/121 90/111/126 91/112/127
f 83/106/120 46/42/42 89/113/128
f 88/15/123 87/108/122 93/110/125 94/16/129
f 86/105/119 85/104/118 91/112/127 92/109/124
f 84/107/121 83/106/120 89/113/128 90/111/126
f 91/112/127 90/111/126 1/38/38 2/37/37
f 89/113/128 46/42/42 95/41/41
f 94/16/129 93/110/125 3/33/33 97/21/44
f 92/109/124 91/112/127 2/37/37 96/34/34
f 90/111/126 89/113/128 95/41/41 1/38/38
f 93/110/125 92/109/124 96/34/34 3/33/33
f 99/114/22 114/115/26 115/116/130 116/117/131
f 101/118/18 100/119/17 117/120/132 118/121/133
f 119/122/134 120/123/135 103/124/3 102/125/24
f 121/126/136 122/127/137 106/128/30 105/129/28
f 108/130/7 107/131/10 123/132/138 124/133/139
f 109/134/8 108/130/7 124/133/139 125/135/140
f 125/135/140 126/136/141 110/137/32 109/134/8
f 112/138/14 111/139/13 127/140/142 128/141/143
f 113/142/20 112/138/14 128/141/143 129/143/144
f 105/129/28 104/144/4 130/145/145 121/126/136
f 120/123/135 130/145/145 104/144/4 103/124/3
f 102/125/24 101/118/18 118/121/133 119/122/134
f 116/117/131 117/120/132 100/119/17 99/114/22
f 122/127/137 123/132/138 107/131/10 106/128/30
f 129/143/144 115/116/130 114/115/26 113/142/20
f 126/136/141 127/140/142 111/139/13 110/137/32
f 97/21/21 9/25/25 114/26/26 99/22/22
f 98/146/146 116/117/131 115/116/130
f 98/146/146 118/121/133 117/120/132
f 98/146/146 120/123/135 119/122/134
f 98/146/146 122/127/137 121/126/136
f 98/146/146 124/133/139 123/132/138
f 98/146/146 125/135/140 124/133/139
f 98/146/146 126/136/141 125/135/140
f 98/146/146 128/141/143 127/140/142
f 98/146/146 129/143/144 128/141/143
f 98/146/146 121/126/136 130/145/145
f 98/146/146 130/145/145 120/123/135
f 98/146/146 119/122/134 118/121/133
f 98/146/146 117/120/132 116/117/131
f 98/146/146 123/132/138 122/127/137
f 98/146/146 115/116/130 129/143/144
f 98/146/146 127/140/142 126/136/141
