# Blender v3.4.1 OBJ File: 'November2024_Witch_Assets_Export.blend'
# www.blender.org
mtllib Table_Small.mtl
o Table_Small
v -0.475000 0.000000 0.175000
v -0.475000 0.025000 0.200000
v -0.500000 0.025000 0.175000
v -0.475000 0.575000 0.200000
v -0.475000 0.600000 0.175000
v -0.500000 0.575000 0.175000
v -0.475000 0.000000 -0.375000
v -0.500000 0.025000 -0.375000
v -0.475000 0.025000 -0.400000
v -0.475000 0.600000 -0.375000
v -0.475000 0.575000 -0.400000
v -0.500000 0.575000 -0.375000
v -0.325000 0.000000 0.175000
v -0.300000 0.025000 0.175000
v -0.325000 0.025000 0.200000
v -0.325000 0.600000 0.175000
v -0.325000 0.575000 0.200000
v -0.300000 0.575000 0.175000
v -0.325000 0.000000 -0.375000
v -0.325000 0.025000 -0.400000
v -0.300000 0.025000 -0.375000
v -0.325000 0.600000 -0.375000
v -0.300000 0.575000 -0.375000
v -0.325000 0.575000 -0.400000
v -0.375000 0.350000 0.275000
v -0.375000 0.375000 0.300000
v -0.400000 0.375000 0.275000
v -0.375000 0.575000 0.300000
v -0.375000 0.600000 0.275000
v -0.400000 0.575000 0.275000
v -0.375000 0.350000 -0.375000
v -0.400000 0.375000 -0.375000
v -0.375000 0.600000 -0.375000
v -0.400000 0.575000 -0.375000
v 0.375000 0.350000 0.275000
v 0.400000 0.375000 0.275000
v 0.375000 0.375000 0.300000
v 0.375000 0.600000 0.275000
v 0.375000 0.575000 0.300000
v 0.400000 0.575000 0.275000
v 0.375000 0.350000 -0.375000
v 0.400000 0.375000 -0.375000
v 0.375000 0.600000 -0.375000
v 0.400000 0.575000 -0.375000
v -0.000009 0.534423 0.274156
v 0.042010 0.517018 0.274156
v 0.059414 0.475000 0.274156
v 0.042010 0.432982 0.274156
v -0.000009 0.415577 0.274156
v -0.042027 0.432982 0.274156
v -0.059431 0.475000 0.274156
v -0.042027 0.517018 0.274156
v -0.000009 0.475000 0.343192
v -0.000009 0.534423 0.326990
v -0.000007 0.516482 0.338447
v 0.042010 0.517018 0.326990
v 0.029325 0.504332 0.338447
v 0.059414 0.475000 0.326990
v 0.041474 0.475000 0.338447
v 0.042010 0.432982 0.326990
v 0.029325 0.445668 0.338447
v -0.000009 0.415577 0.326990
v -0.000007 0.433519 0.338447
v -0.042027 0.432982 0.326990
v -0.029339 0.445668 0.338447
v -0.059431 0.475000 0.326990
v -0.041489 0.475000 0.338447
v -0.042027 0.517018 0.326990
v -0.029339 0.504332 0.338447
v 0.475000 0.575000 -0.400000
v 0.500000 0.575000 -0.375000
v 0.475000 0.600000 -0.375000
v 0.500000 0.025000 -0.375000
v 0.475000 0.025000 -0.400000
v 0.475000 0.000000 -0.375000
v 0.500000 0.575000 0.175000
v 0.475000 0.575000 0.200000
v 0.475000 0.600000 0.175000
v 0.475000 0.025000 0.200000
v 0.500000 0.025000 0.175000
v 0.475000 0.000000 0.175000
v 0.300000 0.575000 -0.375000
v 0.325000 0.575000 -0.400000
v 0.325000 0.600000 -0.375000
v 0.325000 0.025000 -0.400000
v 0.300000 0.025000 -0.375000
v 0.325000 0.000000 -0.375000
v 0.300000 0.575000 0.175000
v 0.325000 0.600000 0.175000
v 0.325000 0.575000 0.200000
v 0.300000 0.025000 0.175000
v 0.325000 0.025000 0.200000
v 0.325000 0.000000 0.175000
v 0.475002 0.599998 -0.075000
v 0.500002 0.624997 -0.075000
v 0.475002 0.624997 -0.050000
v 0.500002 0.774998 -0.075000
v 0.475002 0.799998 -0.075000
v 0.475002 0.774998 -0.050000
v -0.474998 0.599998 -0.075000
v -0.474998 0.624997 -0.050000
v -0.499998 0.624997 -0.075000
v -0.474998 0.799998 -0.075000
v -0.499998 0.774998 -0.075000
v -0.474998 0.774998 -0.050000
v 0.475002 0.599998 -0.375000
v 0.475002 0.624997 -0.400000
v 0.500002 0.624997 -0.375000
v 0.475002 0.799998 -0.375000
v 0.500002 0.774998 -0.375000
v 0.475002 0.774998 -0.400000
v -0.474998 0.599998 -0.375000
v -0.499998 0.624997 -0.375000
v -0.474998 0.624997 -0.400000
v -0.474998 0.799998 -0.375000
v -0.474998 0.774998 -0.400000
v -0.499998 0.774998 -0.375000
v 0.475002 0.599998 0.325000
v 0.500002 0.624997 0.325000
v 0.475002 0.624997 0.350000
v 0.500002 0.774998 0.325000
v 0.475002 0.799998 0.325000
v 0.475002 0.774998 0.350000
v -0.474998 0.599998 0.325000
v -0.474998 0.624997 0.350000
v -0.499998 0.624997 0.325000
v -0.474998 0.799998 0.325000
v -0.499998 0.774998 0.325000
v -0.474998 0.774998 0.350000
v 0.475002 0.599998 -0.025000
v 0.475002 0.624997 -0.050000
v 0.500002 0.624997 -0.025000
v 0.475002 0.799998 -0.025000
v 0.500002 0.774998 -0.025000
v 0.475002 0.774998 -0.050000
v -0.474998 0.599998 -0.025000
v -0.499998 0.624997 -0.025000
v -0.474998 0.624997 -0.050000
v -0.474998 0.799998 -0.025000
v -0.474998 0.774998 -0.050000
v -0.499998 0.774998 -0.025000
vt 0.810431 0.590776
vt 0.810431 0.648859
vt 0.795642 0.648859
vt 0.795642 0.590776
vt 0.810621 0.590776
vt 0.810621 0.648859
vt 0.810621 0.648859
vt 0.810621 0.590776
vt 0.810431 0.666012
vt 0.795642 0.666012
vt 0.795642 0.666012
vt 0.810431 0.666012
vt 0.795452 0.590776
vt 0.795452 0.648859
vt 0.795452 0.648859
vt 0.795452 0.590776
vt 0.795642 0.590776
vt 0.795642 0.648859
vt 0.810431 0.648859
vt 0.810431 0.590776
vt 0.795642 0.636122
vt 0.795642 0.637651
vt 0.795452 0.637651
vt 0.795642 0.695734
vt 0.795642 0.697262
vt 0.795452 0.695734
vt 0.795642 0.636122
vt 0.795452 0.637651
vt 0.795642 0.637651
vt 0.795642 0.697262
vt 0.795642 0.695734
vt 0.795452 0.695734
vt 0.810431 0.636122
vt 0.810621 0.637651
vt 0.810431 0.637651
vt 0.810431 0.697262
vt 0.810431 0.695734
vt 0.810621 0.695734
vt 0.810431 0.636122
vt 0.810431 0.637651
vt 0.810621 0.637651
vt 0.810431 0.697262
vt 0.810621 0.695734
vt 0.810431 0.695734
vt 0.795642 0.557997
vt 0.810431 0.557997
vt 0.810431 0.557997
vt 0.795642 0.557997
vt 0.810431 0.590776
vt 0.810431 0.648859
vt 0.795642 0.648859
vt 0.795642 0.590776
vt 0.810621 0.590776
vt 0.810621 0.648859
vt 0.810621 0.648859
vt 0.810621 0.590776
vt 0.810431 0.666012
vt 0.795642 0.666012
vt 0.795642 0.666012
vt 0.810431 0.666012
vt 0.795452 0.590776
vt 0.795452 0.648859
vt 0.795452 0.648859
vt 0.795452 0.590776
vt 0.795642 0.636122
vt 0.795642 0.637651
vt 0.795452 0.637651
vt 0.795642 0.695734
vt 0.795642 0.697262
vt 0.795452 0.695734
vt 0.810431 0.636122
vt 0.810621 0.637651
vt 0.810431 0.637651
vt 0.810431 0.697262
vt 0.810431 0.695734
vt 0.810621 0.695734
vt 0.795642 0.636122
vt 0.795452 0.637651
vt 0.795642 0.697262
vt 0.795452 0.695734
vt 0.810431 0.636122
vt 0.810621 0.637651
vt 0.810431 0.697262
vt 0.810621 0.695734
vt 0.795642 0.557997
vt 0.810431 0.557997
vt 0.810431 0.557997
vt 0.795642 0.557997
vt 0.810431 0.697262
vt 0.795642 0.697262
vt 0.795642 0.695734
vt 0.810431 0.695734
vt 0.795642 0.557997
vt 0.810431 0.557997
vt 0.810431 0.557997
vt 0.795642 0.557997
vt 0.405483 0.635664
vt 0.405483 0.666914
vt 0.421869 0.678304
vt 0.421869 0.647054
vt 0.445047 0.608175
vt 0.445047 0.639425
vt 0.438255 0.611936
vt 0.438255 0.580686
vt 0.421869 0.600547
vt 0.421869 0.569297
vt 0.405483 0.611936
vt 0.405483 0.580686
vt 0.398696 0.639425
vt 0.398696 0.608175
vt 0.438255 0.666914
vt 0.438255 0.635664
vt 0.421869 0.672520
vt 0.435818 0.662827
vt 0.421869 0.608175
vt 0.441592 0.639425
vt 0.435818 0.616027
vt 0.421869 0.606334
vt 0.407920 0.616027
vt 0.402146 0.639425
vt 0.407920 0.662827
vt 0.810431 0.637651
vt 0.810621 0.637651
vt 0.810621 0.695734
vt 0.810431 0.636122
vt 0.810431 0.636122
vt 0.810621 0.637651
vt 0.810621 0.695734
vt 0.810431 0.637651
vt 0.810431 0.695734
vt 0.795642 0.697262
vt 0.810431 0.697262
vt 0.795642 0.695734
vt 0.795642 0.636122
vt 0.795642 0.637651
vt 0.795452 0.637651
vt 0.795452 0.695734
vt 0.795642 0.636122
vt 0.795642 0.637651
vt 0.795452 0.695734
vt 0.795452 0.637651
vt 0.795642 0.590776
vt 0.795642 0.648859
vt 0.810431 0.648859
vt 0.810431 0.590776
vt 0.795452 0.590776
vt 0.795452 0.648859
vt 0.795452 0.648859
vt 0.795452 0.590776
vt 0.810431 0.666012
vt 0.795642 0.666012
vt 0.795642 0.666012
vt 0.810431 0.666012
vt 0.810621 0.590776
vt 0.810621 0.648859
vt 0.810621 0.648859
vt 0.810621 0.590776
vt 0.810431 0.590776
vt 0.810431 0.648859
vt 0.795642 0.648859
vt 0.795642 0.590776
vt 0.804743 0.621346
vt 0.804743 0.630517
vt 0.801330 0.630517
vt 0.801330 0.621346
vt 0.804933 0.621346
vt 0.804933 0.630517
vt 0.804933 0.630517
vt 0.804933 0.621346
vt 0.804743 0.647670
vt 0.801330 0.647670
vt 0.801330 0.647670
vt 0.804743 0.647670
vt 0.801140 0.621346
vt 0.801140 0.630517
vt 0.801140 0.630517
vt 0.801140 0.621346
vt 0.801330 0.621346
vt 0.801330 0.630517
vt 0.804743 0.630517
vt 0.804743 0.621346
vt 0.801330 0.666692
vt 0.801330 0.668221
vt 0.801140 0.668221
vt 0.801330 0.677392
vt 0.801330 0.678920
vt 0.801140 0.677392
vt 0.801330 0.666692
vt 0.801140 0.668221
vt 0.801330 0.668221
vt 0.801330 0.678920
vt 0.801330 0.677392
vt 0.801140 0.677392
vt 0.804743 0.666692
vt 0.804933 0.668221
vt 0.804743 0.668221
vt 0.804743 0.678920
vt 0.804743 0.677392
vt 0.804933 0.677392
vt 0.804743 0.666692
vt 0.804743 0.668221
vt 0.804933 0.668221
vt 0.804743 0.678920
vt 0.804933 0.677392
vt 0.804743 0.677392
vt 0.801330 0.588567
vt 0.804743 0.588567
vt 0.804743 0.588567
vt 0.801330 0.588567
vt 0.804743 0.621346
vt 0.804743 0.630517
vt 0.801330 0.630517
vt 0.801330 0.621346
vt 0.804933 0.621346
vt 0.804933 0.630517
vt 0.804933 0.630517
vt 0.804933 0.621346
vt 0.804743 0.647670
vt 0.801330 0.647670
vt 0.801330 0.647670
vt 0.804743 0.647670
vt 0.801140 0.621346
vt 0.801140 0.630517
vt 0.801140 0.630517
vt 0.801140 0.621346
vt 0.801330 0.621346
vt 0.801330 0.630517
vt 0.804743 0.630517
vt 0.804743 0.621346
vt 0.801330 0.666692
vt 0.801330 0.668221
vt 0.801140 0.668221
vt 0.801330 0.677392
vt 0.801330 0.678920
vt 0.801140 0.677392
vt 0.801330 0.666692
vt 0.801140 0.668221
vt 0.801330 0.668221
vt 0.801330 0.678920
vt 0.801330 0.677392
vt 0.801140 0.677392
vt 0.804743 0.666692
vt 0.804933 0.668221
vt 0.804743 0.668221
vt 0.804743 0.678920
vt 0.804743 0.677392
vt 0.804933 0.677392
vt 0.804743 0.666692
vt 0.804743 0.668221
vt 0.804933 0.668221
vt 0.804743 0.678920
vt 0.804933 0.677392
vt 0.804743 0.677392
vt 0.801330 0.588567
vt 0.804743 0.588567
vt 0.804743 0.588567
vt 0.801330 0.588567
vn 0.0000 0.0000 1.0000
vn 1.0000 0.0000 0.0000
vn 0.0000 1.0000 0.0000
vn -1.0000 0.0000 0.0000
vn 0.0000 0.0000 -1.0000
vn -0.4606 -0.7588 0.4606
vn -0.2418 -0.6861 0.6861
vn -0.6861 -0.6861 0.2418
vn -0.2418 0.6861 0.6861
vn -0.4606 0.7588 0.4606
vn -0.6861 0.6861 0.2418
vn -0.4606 -0.7588 -0.4606
vn -0.6861 -0.6861 -0.2418
vn -0.2418 -0.6861 -0.6861
vn -0.4606 0.7588 -0.4606
vn -0.2418 0.6861 -0.6861
vn -0.6861 0.6861 -0.2418
vn 0.4606 -0.7588 0.4606
vn 0.6861 -0.6861 0.2418
vn 0.2418 -0.6861 0.6861
vn 0.4606 0.7588 0.4606
vn 0.2418 0.6861 0.6861
vn 0.6861 0.6861 0.2418
vn 0.4606 -0.7588 -0.4606
vn 0.2418 -0.6861 -0.6861
vn 0.6861 -0.6861 -0.2418
vn 0.4606 0.7588 -0.4606
vn 0.6861 0.6861 -0.2418
vn 0.2418 0.6861 -0.6861
vn -0.7071 0.0000 0.7071
vn -0.7071 0.0000 -0.7071
vn 0.7071 0.0000 -0.7071
vn 0.7071 0.0000 0.7071
vn 0.0000 -1.0000 0.0000
vn -0.7071 -0.7071 0.0000
vn -0.7071 0.7071 0.0000
vn 0.7071 -0.7071 0.0000
vn 0.7071 0.7071 0.0000
vn -0.6360 0.6360 0.4370
vn -0.0000 0.8995 0.4370
vn 0.8995 0.0000 0.4369
vn 0.6360 -0.6360 0.4369
vn -0.0000 -0.8995 0.4370
vn -0.6360 -0.6360 0.4370
vn -0.8995 0.0000 0.4370
vn 0.6360 0.6360 0.4369
vn 0.0000 0.3825 0.9240
vn 0.2704 0.2704 0.9240
vn 0.3825 -0.0000 0.9240
vn 0.2704 -0.2704 0.9240
vn 0.0000 -0.3825 0.9240
vn -0.2704 -0.2704 0.9240
vn -0.3824 -0.0000 0.9240
vn -0.2704 0.2704 0.9240
vn 0.9239 0.0000 -0.3827
vn 0.9239 0.0000 0.3827
vn -0.3827 0.0000 -0.9239
vn 0.3827 0.0000 -0.9239
vn 0.3827 0.0000 0.9239
vn -0.3827 0.0000 0.9239
vn -0.9239 0.0000 0.3827
vn -0.9239 0.0000 -0.3827
usemtl witch
s 1
f 15/1/1 17/2/1 4/3/1 2/4/1
f 21/5/2 23/6/2 18/7/2 14/8/2
f 22/9/3 10/10/3 5/11/3 16/12/3
f 3/13/4 6/14/4 12/15/4 8/16/4
f 9/17/5 11/18/5 24/19/5 20/20/5
f 1/21/6 2/22/7 3/23/8
f 4/24/9 5/25/10 6/26/11
f 7/27/12 8/28/13 9/29/14
f 10/30/15 11/31/16 12/32/17
f 13/33/18 14/34/19 15/35/20
f 16/36/21 17/37/22 18/38/23
f 19/39/24 20/40/25 21/41/26
f 22/42/27 23/43/28 24/44/29
f 7/27/12 1/21/6 3/23/8 8/28/13
f 2/22/30 4/24/30 6/26/30 3/23/30
f 5/25/10 10/30/15 12/32/17 6/26/11
f 11/31/31 9/29/31 8/28/31 12/32/31
f 19/39/24 7/27/12 9/29/14 20/40/25
f 10/30/15 22/42/27 24/44/29 11/31/16
f 23/43/32 21/41/32 20/40/32 24/44/32
f 13/33/18 19/39/24 21/41/26 14/34/19
f 22/42/27 16/36/21 18/38/23 23/43/28
f 17/37/33 15/35/33 14/34/33 18/38/33
f 1/21/6 13/33/18 15/35/20 2/22/7
f 16/36/21 5/25/10 4/24/9 17/37/22
f 7/45/34 19/46/34 13/47/34 1/48/34
f 37/49/1 39/50/1 28/51/1 26/52/1
f 42/53/2 44/54/2 40/55/2 36/56/2
f 43/57/3 33/58/3 29/59/3 38/60/3
f 27/61/4 30/62/4 34/63/4 32/64/4
f 25/65/6 26/66/7 27/67/8
f 28/68/9 29/69/10 30/70/11
f 35/71/18 36/72/19 37/73/20
f 38/74/21 39/75/22 40/76/23
f 31/77/35 25/65/6 27/67/8 32/78/35
f 26/66/30 28/68/30 30/70/30 27/67/30
f 29/69/10 33/79/36 34/80/36 30/70/11
f 35/71/18 41/81/37 42/82/37 36/72/19
f 43/83/38 38/74/21 40/76/23 44/84/38
f 39/75/33 37/73/33 36/72/33 40/76/33
f 25/65/6 35/71/18 37/73/20 26/66/7
f 38/74/21 29/69/10 28/68/9 39/75/22
f 31/85/34 41/86/34 35/87/34 25/88/34
f 78/89/21 89/90/10 90/91/9 77/92/22
f 87/93/34 75/94/34 81/95/34 93/96/34
f 52/97/36 68/98/39 54/99/40 45/100/3
f 47/101/2 58/102/41 60/103/42 48/104/37
f 48/104/37 60/103/42 62/105/43 49/106/34
f 49/106/34 62/105/43 64/107/44 50/108/35
f 50/108/35 64/107/44 66/109/45 51/110/4
f 51/110/4 66/109/45 68/98/39 52/97/36
f 45/100/3 54/99/40 56/111/46 46/112/38
f 46/112/38 56/111/46 58/102/41 47/101/2
f 56/111/46 54/99/40 55/113/47 57/114/48
f 57/114/48 55/113/47 53/115/1
f 58/102/41 56/111/46 57/114/48 59/116/49
f 59/116/49 57/114/48 53/115/1
f 60/103/42 58/102/41 59/116/49 61/117/50
f 61/117/50 59/116/49 53/115/1
f 62/105/43 60/103/42 61/117/50 63/118/51
f 63/118/51 61/117/50 53/115/1
f 64/107/44 62/105/43 63/118/51 65/119/52
f 65/119/52 63/118/51 53/115/1
f 66/109/45 64/107/44 65/119/52 67/120/53
f 67/120/53 65/119/52 53/115/1
f 68/98/39 66/109/45 67/120/53 69/121/54
f 69/121/54 67/120/53 53/115/1
f 54/99/40 68/98/39 69/121/54 55/113/47
f 55/113/47 69/121/54 53/115/1
f 77/92/33 79/122/33 80/123/33 76/124/33
f 81/125/18 75/126/24 73/127/26 80/123/19
f 71/128/32 73/127/32 74/129/32 70/130/32
f 84/131/15 72/132/27 70/130/29 83/133/16
f 75/126/24 87/134/12 85/135/14 74/129/25
f 83/133/31 85/135/31 86/136/31 82/137/31
f 93/138/6 81/125/18 79/122/20 92/139/7
f 72/132/27 78/89/21 76/124/23 71/128/28
f 87/134/12 86/136/13 85/135/14
f 92/139/30 90/91/30 88/140/30 91/141/30
f 93/138/6 92/139/7 91/141/8
f 87/134/12 93/138/6 91/141/8 86/136/13
f 85/142/5 83/143/5 70/144/5 74/145/5
f 72/132/27 71/128/28 70/130/29
f 91/146/4 88/147/4 82/148/4 86/149/4
f 75/126/24 74/129/25 73/127/26
f 72/150/3 84/151/3 89/152/3 78/153/3
f 78/89/21 77/92/22 76/124/23
f 73/154/2 71/155/2 76/156/2 80/157/2
f 81/125/18 80/123/19 79/122/20
f 79/158/1 77/159/1 90/160/1 92/161/1
f 84/131/15 83/133/16 82/137/17
f 90/91/9 89/90/10 88/140/11
f 89/90/10 84/131/15 82/137/17 88/140/11
f 108/162/55 110/163/55 97/164/56 95/165/56
f 114/166/57 116/167/57 111/168/58 107/169/58
f 115/170/3 103/171/3 98/172/3 109/173/3
f 96/174/59 99/175/59 105/176/60 101/177/60
f 102/178/61 104/179/61 117/180/62 113/181/62
f 94/182/18 95/183/19 96/184/20
f 97/185/23 98/186/21 99/187/22
f 100/188/6 101/189/7 102/190/8
f 103/191/10 104/192/11 105/193/9
f 106/194/24 107/195/25 108/196/26
f 109/197/27 110/198/28 111/199/29
f 112/200/12 113/201/13 114/202/14
f 115/203/15 116/204/16 117/205/17
f 100/188/6 94/182/18 96/184/20 101/189/7
f 95/183/56 97/185/56 99/187/59 96/184/59
f 98/186/21 103/191/10 105/193/9 99/187/22
f 104/192/61 102/190/61 101/189/60 105/193/60
f 112/200/12 100/188/6 102/190/8 113/201/13
f 103/191/10 115/203/15 117/205/17 104/192/11
f 116/204/57 114/202/57 113/201/62 117/205/62
f 106/194/24 112/200/12 114/202/14 107/195/25
f 115/203/15 109/197/27 111/199/29 116/204/16
f 110/198/55 108/196/55 107/195/58 111/199/58
f 94/182/18 106/194/24 108/196/26 95/183/19
f 109/197/27 98/186/21 97/185/23 110/198/28
f 100/206/34 112/207/34 106/208/34 94/209/34
f 132/210/55 134/211/55 121/212/56 119/213/56
f 138/214/57 140/215/57 135/216/58 131/217/58
f 139/218/3 127/219/3 122/220/3 133/221/3
f 120/222/59 123/223/59 129/224/60 125/225/60
f 126/226/61 128/227/61 141/228/62 137/229/62
f 118/230/18 119/231/19 120/232/20
f 121/233/23 122/234/21 123/235/22
f 124/236/6 125/237/7 126/238/8
f 127/239/10 128/240/11 129/241/9
f 130/242/24 131/243/25 132/244/26
f 133/245/27 134/246/28 135/247/29
f 136/248/12 137/249/13 138/250/14
f 139/251/15 140/252/16 141/253/17
f 124/236/6 118/230/18 120/232/20 125/237/7
f 119/231/56 121/233/56 123/235/59 120/232/59
f 122/234/21 127/239/10 129/241/9 123/235/22
f 128/240/61 126/238/61 125/237/60 129/241/60
f 136/248/12 124/236/6 126/238/8 137/249/13
f 127/239/10 139/251/15 141/253/17 128/240/11
f 140/252/57 138/250/57 137/249/62 141/253/62
f 130/242/24 136/248/12 138/250/14 131/243/25
f 139/251/15 133/245/27 135/247/29 140/252/16
f 134/246/55 132/244/55 131/243/58 135/247/58
f 118/230/18 130/242/24 132/244/26 119/231/19
f 133/245/27 122/234/21 121/233/23 134/246/28
f 124/254/34 136/255/34 130/256/34 118/257/34
f 44/54/5 34/80/5 33/58/5 43/83/5
f 32/64/5 34/80/5 44/54/5 42/82/5
f 31/85/5 32/64/5 42/82/5 41/86/5
