# Blender v3.4.1 OBJ File: 'March2026_AvianSwordsman_Assets_Export.blend'
# www.blender.org
mtllib AvianSwordsman_Sword.mtl
o AvianSwordsman_Sword
v 0.020083 -0.172040 0.030680
v 0.020083 -0.172040 -0.030680
v 0.041655 -0.172040 -0.013176
v -0.041644 -0.172040 -0.013176
v -0.020070 -0.172040 -0.030680
v -0.041644 -0.172040 0.013175
v -0.020070 -0.172040 0.030680
v -0.052256 0.218037 0.016533
v -0.025185 0.218037 0.038498
v -0.025185 0.218037 -0.038498
v -0.052256 0.218037 -0.016533
v 0.025199 0.218037 0.038498
v 0.052267 0.218037 0.016533
v 0.052267 0.218037 -0.016533
v 0.025199 0.218037 -0.038498
v 0.041655 -0.172040 0.013175
v -0.000005 -0.180796 0.039320
v -0.000005 -0.180796 -0.039320
v 0.058630 -0.186166 0.000000
v -0.058641 -0.186166 0.000000
v -0.000005 -0.235715 0.033601
v 0.030609 -0.246669 0.033019
v 0.041563 -0.277283 0.033601
v 0.030609 -0.307898 0.033019
v -0.000005 -0.318852 0.033601
v -0.030620 -0.307898 0.033019
v -0.041574 -0.277283 0.033601
v -0.046880 -0.230409 0.043327
v -0.000005 -0.235715 -0.033601
v 0.030609 -0.246669 -0.033019
v 0.041563 -0.277283 -0.033601
v 0.030609 -0.307898 -0.033019
v -0.000005 -0.318852 -0.033601
v -0.030620 -0.307898 -0.033019
v -0.041574 -0.277283 -0.033601
v -0.030620 -0.246669 -0.033019
v 0.048240 -0.193723 0.033180
v 0.083558 -0.229041 0.033180
v 0.096486 -0.277287 0.033180
v 0.083558 -0.325532 0.033180
v 0.048240 -0.360851 0.033180
v -0.000005 -0.373778 0.033180
v -0.048251 -0.360851 0.033180
v -0.083569 -0.325532 0.033180
v -0.096496 -0.277287 0.033180
v -0.083569 -0.229041 0.033180
v -0.048251 -0.193723 0.033180
v 0.048240 -0.193723 -0.033180
v 0.083558 -0.229041 -0.033180
v 0.096486 -0.277287 -0.033180
v 0.083558 -0.325532 -0.033180
v 0.048240 -0.360851 -0.033180
v -0.000005 -0.373778 -0.033180
v -0.048251 -0.360850 -0.033180
v -0.083569 -0.325532 -0.033180
v -0.096496 -0.277287 -0.033180
v -0.083569 -0.229041 -0.033180
v -0.048251 -0.193723 -0.033180
v -0.091126 -0.224678 0.000000
v -0.105223 -0.277287 -0.000000
v -0.091126 -0.329896 -0.000000
v -0.052614 -0.368408 -0.000000
v -0.000005 -0.382504 -0.000000
v 0.052604 -0.368408 -0.000000
v 0.091116 -0.329896 -0.000000
v 0.105212 -0.277287 -0.000000
v 0.091116 -0.224678 0.000000
v -0.000005 -0.213251 0.043327
v 0.046869 -0.230409 0.043327
v 0.064027 -0.277283 0.043327
v 0.046869 -0.324158 0.043327
v -0.000005 -0.341316 0.043327
v -0.046880 -0.324158 0.043327
v -0.064038 -0.277283 0.043327
v -0.000005 -0.213251 -0.043327
v 0.046869 -0.230408 -0.043327
v 0.064027 -0.277283 -0.043327
v 0.046869 -0.324158 -0.043327
v -0.000005 -0.341315 -0.043327
v -0.046880 -0.324158 -0.043327
v -0.064038 -0.277283 -0.043327
v -0.030620 -0.246669 0.033019
v -0.046880 -0.230408 -0.043327
v -0.000005 -0.246631 0.044440
v -0.000005 -0.277283 0.052673
v 0.022569 -0.254708 0.044440
v 0.030647 -0.277283 0.044440
v 0.022569 -0.299858 0.044440
v -0.000005 -0.307936 0.044440
v -0.022580 -0.299858 0.044440
v -0.030658 -0.277283 0.044440
v -0.022580 -0.254708 0.044440
v -0.000005 -0.246631 -0.044440
v -0.000005 -0.277283 -0.052673
v 0.022569 -0.254708 -0.044440
v 0.030647 -0.277283 -0.044440
v 0.022569 -0.299858 -0.044440
v -0.000005 -0.307936 -0.044440
v -0.022580 -0.299858 -0.044440
v -0.030658 -0.277283 -0.044440
v -0.022580 -0.254708 -0.044440
v 0.022007 -0.088594 0.033621
v 0.021537 -0.109993 0.032903
v 0.018835 -0.097774 0.028782
v 0.023683 0.052039 0.036182
v 0.023274 0.030652 0.035557
v 0.020310 0.042984 0.031038
v -0.023739 0.076562 0.036287
v -0.023261 0.054770 0.035557
v -0.020340 0.064029 0.031084
v -0.021994 -0.065835 0.033621
v -0.021580 -0.087649 0.032988
v -0.018857 -0.078260 0.028818
v -0.048266 0.067755 0.015270
v -0.049381 0.089746 0.015623
v -0.042253 0.075351 0.013366
v -0.044820 -0.075594 0.014180
v -0.045634 -0.053634 0.014438
v -0.039139 -0.067766 0.012382
v -0.048266 0.067755 -0.015271
v -0.049381 0.089746 -0.015623
v -0.042253 0.075351 -0.013366
v -0.044820 -0.075594 -0.014180
v -0.045634 -0.053634 -0.014438
v -0.039139 -0.067766 -0.012382
v -0.023261 0.054770 -0.035557
v -0.023739 0.076562 -0.036287
v -0.020340 0.064029 -0.031084
v -0.021580 -0.087649 -0.032988
v -0.021994 -0.065835 -0.033621
v -0.018857 -0.078260 -0.028818
v 0.023683 0.052039 -0.036182
v 0.023274 0.030652 -0.035557
v 0.020310 0.042984 -0.031038
v 0.022007 -0.088594 -0.033622
v 0.021537 -0.109993 -0.032903
v 0.018835 -0.097774 -0.028782
v 0.049072 0.038867 -0.015522
v 0.048275 0.017717 -0.015270
v 0.042112 0.031689 -0.013322
v 0.045647 -0.100844 -0.014438
v 0.044578 -0.121943 -0.014100
v 0.039032 -0.108244 -0.012347
v 0.048275 0.017717 0.015270
v 0.049072 0.038867 0.015522
v 0.042112 0.031689 0.013322
v 0.044578 -0.121943 0.014100
v 0.045647 -0.100844 0.014438
v 0.039032 -0.108244 0.012347
v 0.000197 1.424243 0.000000
v -0.198878 0.076427 0.000000
v 0.199272 0.076427 0.000000
v 0.000197 1.339265 0.021445
v -0.152024 1.158985 0.000000
v -0.070807 1.339265 0.000000
v -0.125559 1.249403 0.000000
v 0.000197 1.339265 -0.021445
v 0.152419 1.158985 0.000000
v 0.071201 1.339265 0.000000
v 0.125953 1.249403 0.000000
v -0.051165 0.184627 -0.032665
v 0.051560 0.184627 -0.032665
v 0.000197 0.228014 -0.018145
v 0.051560 0.184627 0.032665
v -0.051165 0.184627 0.032665
v 0.000197 0.228014 0.018145
v -0.049333 1.158978 0.029699
v 0.049727 1.158978 0.029699
v 0.000197 1.158977 0.017302
v -0.049093 1.249401 0.026546
v 0.049487 1.249401 0.026546
v 0.000197 1.249401 0.016331
v 0.049727 1.158978 -0.029699
v -0.049333 1.158978 -0.029699
v 0.000197 1.158977 -0.017302
v 0.049487 1.249401 -0.026546
v -0.049093 1.249401 -0.026546
v 0.000197 1.249401 -0.016331
v -0.271679 0.035511 -0.010471
v -0.281007 0.047375 -0.008278
v -0.271168 0.045694 -0.020762
v -0.271679 0.035511 0.010470
v -0.271168 0.045694 0.020761
v -0.281007 0.047375 0.008278
v -0.266935 0.099318 0.020766
v -0.266768 0.109964 0.010320
v -0.276530 0.104514 0.008312
v -0.266768 0.109964 -0.010320
v -0.266935 0.099318 -0.020766
v -0.276530 0.104514 -0.008312
v 0.266946 0.099318 -0.020766
v 0.266780 0.109964 -0.010320
v 0.276542 0.104514 -0.008312
v 0.271179 0.045694 -0.020762
v 0.281019 0.047375 -0.008278
v 0.271691 0.035511 -0.010471
v 0.271691 0.035511 0.010470
v 0.281019 0.047375 0.008278
v 0.271179 0.045694 0.020761
v 0.266780 0.109964 0.010320
v 0.266946 0.099318 0.020766
v 0.276542 0.104514 0.008312
v 0.000006 0.297867 0.042018
v 0.000006 0.286977 0.052543
v 0.000006 0.286977 -0.052543
v 0.000006 0.297867 -0.042018
v 0.000006 0.194917 0.042976
v 0.000006 0.204908 0.053055
v 0.000006 0.204908 -0.053055
v 0.000006 0.194917 -0.042976
v -0.202148 0.053069 -0.032654
v -0.039132 0.150294 -0.051899
v -0.112533 0.086019 -0.045504
v -0.036262 0.142300 -0.041849
v -0.197680 0.043572 -0.022949
v -0.108589 0.077044 -0.035536
v 0.039144 0.150294 -0.051899
v 0.202160 0.053069 -0.032654
v 0.112545 0.086019 -0.045504
v 0.197692 0.043572 -0.022949
v 0.036274 0.142300 -0.041849
v 0.108601 0.077044 -0.035536
v 0.225532 0.103965 -0.029156
v 0.062700 0.200855 -0.051026
v 0.136207 0.137015 -0.043996
v 0.066401 0.209204 -0.040462
v 0.230261 0.113941 -0.017946
v 0.140541 0.146386 -0.033254
v -0.062688 0.200855 -0.051026
v -0.225521 0.103965 -0.029156
v -0.136196 0.137015 -0.043996
v -0.230249 0.113941 -0.017946
v -0.066389 0.209204 -0.040462
v -0.140530 0.146386 -0.033254
v 0.036274 0.142300 0.041849
v 0.197692 0.043572 0.022949
v 0.108601 0.077044 0.035536
v 0.202160 0.053069 0.032654
v 0.039144 0.150294 0.051899
v 0.112545 0.086019 0.045504
v -0.197680 0.043572 0.022949
v -0.036262 0.142300 0.041849
v -0.108589 0.077044 0.035536
v -0.039132 0.150294 0.051899
v -0.202148 0.053069 0.032654
v -0.112533 0.086019 0.045504
v -0.066389 0.209204 0.040462
v -0.230249 0.113941 0.017946
v -0.140530 0.146386 0.033254
v -0.225521 0.103965 0.029156
v -0.062688 0.200855 0.051026
v -0.136196 0.137015 0.043996
v 0.230261 0.113941 0.017946
v 0.066401 0.209204 0.040462
v 0.140541 0.146386 0.033254
v 0.062700 0.200855 0.051026
v 0.225532 0.103965 0.029156
v 0.136207 0.137015 0.043996
v -0.175451 0.895078 0.000000
v 0.175845 0.895078 0.000000
v 0.050643 0.895078 0.031182
v 0.000197 0.895078 0.017724
v -0.050249 0.895078 0.031182
v 0.050643 0.895078 -0.031182
v 0.000197 0.895078 -0.017724
v -0.050249 0.895078 -0.031182
vt 0.916042 0.677698
vt 0.917349 0.655971
vt 0.917349 0.655971
vt 0.916042 0.677698
vt 0.928349 0.677698
vt 0.929007 0.649977
vt 0.950566 0.638828
vt 0.951255 0.677698
vt 0.466699 0.555165
vt 0.437500 0.530177
vt 0.437500 0.555079
vt 0.459031 0.573504
vt 0.314642 0.610077
vt 0.312988 0.607213
vt 0.319924 0.604794
vt 0.408301 0.555165
vt 0.397854 0.625000
vt 0.408265 0.625000
vt 0.415969 0.573504
vt 0.437500 0.719822
vt 0.466699 0.694835
vt 0.459031 0.676495
vt 0.437500 0.694921
vt 0.321858 0.597578
vt 0.318551 0.597578
vt 0.319924 0.590362
vt 0.466699 0.694835
vt 0.437500 0.719823
vt 0.437500 0.694921
vt 0.459031 0.676496
vt 0.307425 0.612010
vt 0.307425 0.608703
vt 0.477147 0.625000
vt 0.466735 0.625000
vt 0.408301 0.694835
vt 0.415969 0.676496
vt 0.307425 0.583147
vt 0.307425 0.586454
vt 0.300210 0.585080
vt 0.408301 0.694835
vt 0.415969 0.676496
vt 0.397854 0.625000
vt 0.408265 0.625000
vt 0.292994 0.597578
vt 0.296300 0.597578
vt 0.294928 0.604794
vt 0.408301 0.555165
vt 0.415969 0.573504
vt 0.466699 0.555165
vt 0.459031 0.573504
vt 0.301863 0.587944
vt 0.294928 0.590362
vt 0.437500 0.530178
vt 0.437500 0.555079
vt 0.297791 0.603141
vt 0.300210 0.610077
vt 0.477147 0.625000
vt 0.466735 0.625000
vt 0.317060 0.592016
vt 0.314642 0.585080
vt 0.296300 0.597578
vt 0.292994 0.597578
vt 0.294928 0.604794
vt 0.317060 0.592016
vt 0.319924 0.590362
vt 0.314642 0.585080
vt 0.301863 0.607213
vt 0.301863 0.607213
vt 0.300210 0.610077
vt 0.307425 0.612010
vt 0.307425 0.586454
vt 0.307425 0.583147
vt 0.300210 0.585080
vt 0.312988 0.607213
vt 0.314642 0.610077
vt 0.319924 0.604794
vt 0.297791 0.592016
vt 0.297791 0.592016
vt 0.294928 0.590362
vt 0.318551 0.597578
vt 0.321858 0.597578
vt 0.293797 0.574197
vt 0.294928 0.573544
vt 0.300210 0.578827
vt 0.291689 0.566328
vt 0.292994 0.566328
vt 0.293797 0.558460
vt 0.294928 0.559112
vt 0.299557 0.552700
vt 0.300210 0.553830
vt 0.307425 0.550591
vt 0.307425 0.551897
vt 0.315294 0.552700
vt 0.314642 0.553830
vt 0.321054 0.558460
vt 0.319924 0.559112
vt 0.323163 0.566328
vt 0.321858 0.566328
vt 0.321054 0.574197
vt 0.319924 0.573544
vt 0.315294 0.579957
vt 0.314642 0.578827
vt 0.317060 0.603141
vt 0.301863 0.587944
vt 0.307425 0.608703
vt 0.317060 0.603141
vt 0.312988 0.587944
vt 0.297791 0.603141
vt 0.312988 0.587944
vt 0.314642 0.578827
vt 0.321858 0.566328
vt 0.319924 0.573544
vt 0.319924 0.559112
vt 0.314642 0.553830
vt 0.307425 0.551897
vt 0.300210 0.553830
vt 0.294928 0.559112
vt 0.292994 0.566328
vt 0.294928 0.573544
vt 0.300210 0.578827
vt 0.313656 0.587408
vt 0.313656 0.587408
vt 0.301198 0.587408
vt 0.305543 0.587408
vt 0.309311 0.618658
vt 0.305543 0.618658
vt 0.309311 0.587408
vt 0.309311 0.587408
vt 0.309311 0.618658
vt 0.305543 0.618658
vt 0.301198 0.587408
vt 0.299557 0.579957
vt 0.305543 0.587408
vt 0.928349 0.677698
vt 0.929007 0.649977
vt 0.951255 0.677698
vt 0.950566 0.638828
vt 0.963561 0.677698
vt 0.962109 0.632840
vt 0.962109 0.632840
vt 0.963561 0.677698
vt 0.929224 0.640070
vt 0.929800 0.611380
vt 0.949804 0.601034
vt 0.950380 0.629105
vt 0.305687 0.567657
vt 0.316614 0.563747
vt 0.322418 0.569551
vt 0.305687 0.575675
vt 0.320524 0.552819
vt 0.328542 0.552819
vt 0.316614 0.541892
vt 0.305687 0.537982
vt 0.305687 0.529964
vt 0.322418 0.536088
vt 0.316614 0.563747
vt 0.305687 0.567657
vt 0.305687 0.575675
vt 0.322418 0.569551
vt 0.320524 0.552819
vt 0.328542 0.552819
vt 0.305687 0.537982
vt 0.316614 0.541892
vt 0.322418 0.536088
vt 0.305687 0.529964
vt 0.290849 0.552819
vt 0.294759 0.541892
vt 0.288955 0.536088
vt 0.282831 0.552819
vt 0.294759 0.541892
vt 0.290849 0.552819
vt 0.282831 0.552819
vt 0.288955 0.536088
vt 0.294759 0.563747
vt 0.288955 0.569551
vt 0.294759 0.563747
vt 0.288955 0.569551
vt 0.437500 0.625000
vt 0.437500 0.625000
vt 0.950380 0.629105
vt 0.949804 0.601034
vt 0.929800 0.611380
vt 0.929224 0.640070
vt 0.949590 0.591305
vt 0.948929 0.563097
vt 0.930675 0.563097
vt 0.929988 0.601463
vt 0.929988 0.601463
vt 0.930675 0.563097
vt 0.948929 0.563097
vt 0.949590 0.591305
vt 0.961746 0.623225
vt 0.960551 0.595465
vt 0.960065 0.585872
vt 0.958736 0.563097
vt 0.919052 0.616928
vt 0.917856 0.645974
vt 0.920867 0.563097
vt 0.919423 0.606944
vt 0.919052 0.616928
vt 0.917856 0.645974
vt 0.920867 0.563097
vt 0.919423 0.606944
vt 0.960551 0.595465
vt 0.961746 0.623225
vt 0.960065 0.585872
vt 0.958736 0.563097
vt 0.950380 0.613480
vt 0.929224 0.624445
vt 0.930551 0.581779
vt 0.949032 0.572212
vt 0.929007 0.634352
vt 0.950566 0.623203
vt 0.949590 0.575680
vt 0.929988 0.585838
vt 0.931226 0.543232
vt 0.948362 0.534360
vt 0.929800 0.595755
vt 0.949804 0.585409
vt 0.950380 0.613480
vt 0.961746 0.607600
vt 0.958944 0.567077
vt 0.949032 0.572212
vt 0.962109 0.617215
vt 0.950566 0.623203
vt 0.949590 0.575680
vt 0.960065 0.570247
vt 0.957544 0.529600
vt 0.948362 0.534360
vt 0.960551 0.579840
vt 0.949804 0.585409
vt 0.961746 0.607600
vt 0.958944 0.567077
vt 0.962109 0.617215
vt 0.960065 0.570247
vt 0.957544 0.529600
vt 0.960551 0.579840
vt 0.917856 0.630349
vt 0.920590 0.586927
vt 0.917349 0.640346
vt 0.919423 0.591319
vt 0.922005 0.548003
vt 0.919052 0.601303
vt 0.917856 0.630349
vt 0.920590 0.586927
vt 0.917349 0.640346
vt 0.919423 0.591319
vt 0.922005 0.548003
vt 0.919052 0.601303
vt 0.929224 0.624445
vt 0.930551 0.581779
vt 0.929007 0.634352
vt 0.929988 0.585838
vt 0.931226 0.543232
vt 0.929800 0.595755
vt 0.836428 0.614477
vt 0.822444 0.613909
vt 0.822341 0.653285
vt 0.833812 0.653286
vt 0.797189 0.614477
vt 0.794573 0.575669
vt 0.811072 0.574532
vt 0.811174 0.613909
vt 0.836428 0.601743
vt 0.833812 0.640552
vt 0.822341 0.640551
vt 0.822444 0.601175
vt 0.816809 0.663563
vt 0.816809 0.656191
vt 0.808878 0.656191
vt 0.811303 0.661129
vt 0.802762 0.661130
vt 0.799806 0.653286
vt 0.811276 0.653285
vt 0.816809 0.676297
vt 0.824740 0.668925
vt 0.816809 0.668925
vt 0.816809 0.656191
vt 0.824740 0.656191
vt 0.802762 0.648395
vt 0.811303 0.648395
vt 0.811276 0.640551
vt 0.799806 0.640552
vt 0.816809 0.668925
vt 0.808878 0.668925
vt 0.830856 0.661130
vt 0.822315 0.661129
vt 0.822315 0.648395
vt 0.830856 0.648395
vt 0.811303 0.648395
vt 0.816809 0.648395
vt 0.816809 0.622927
vt 0.822315 0.622927
vt 0.816809 0.630723
vt 0.822315 0.648395
vt 0.816809 0.648395
vt 0.816809 0.622927
vt 0.811303 0.622927
vt 0.816809 0.630723
vt 0.811276 0.640551
vt 0.816809 0.640551
vt 0.816809 0.615083
vt 0.822341 0.615083
vt 0.811276 0.615083
vt 0.816809 0.615083
vt 0.816809 0.640551
vt 0.822341 0.640551
vt 0.822444 0.575707
vt 0.816809 0.575625
vt 0.816809 0.601093
vt 0.811174 0.601175
vt 0.822444 0.601175
vt 0.822546 0.561798
vt 0.816809 0.561635
vt 0.816809 0.601093
vt 0.816809 0.575625
vt 0.816809 0.536167
vt 0.811072 0.536330
vt 0.811174 0.575707
vt 0.811174 0.601175
vt 0.811072 0.561798
vt 0.794573 0.562935
vt 0.797189 0.601743
vt 0.314530 0.605997
vt 0.314530 0.605997
vt 0.304607 0.607351
vt 0.304607 0.607351
vt 0.314530 0.593527
vt 0.314530 0.581204
vt 0.307033 0.584824
vt 0.304823 0.598433
vt 0.362631 0.613913
vt 0.361865 0.629059
vt 0.361865 0.629059
vt 0.362631 0.613913
vt 0.314530 0.593527
vt 0.314530 0.581204
vt 0.322026 0.584824
vt 0.324236 0.598433
vt 0.324452 0.607351
vt 0.324452 0.607351
vt 0.314530 0.535686
vt 0.314530 0.535686
vt 0.321787 0.536760
vt 0.321787 0.536760
vt 0.304823 0.598433
vt 0.307034 0.584824
vt 0.324236 0.598433
vt 0.322026 0.584824
vt 0.349552 0.552468
vt 0.349552 0.552469
vt 0.361034 0.562671
vt 0.361034 0.562671
vt 0.314530 0.618229
vt 0.304607 0.621323
vt 0.304823 0.615739
vt 0.314530 0.612524
vt 0.279507 0.552468
vt 0.268025 0.562671
vt 0.268025 0.562671
vt 0.279507 0.552468
vt 0.268866 0.645558
vt 0.275865 0.639892
vt 0.276522 0.635846
vt 0.268837 0.642814
vt 0.321787 0.549849
vt 0.314530 0.547255
vt 0.314530 0.552717
vt 0.322026 0.555267
vt 0.275865 0.624267
vt 0.275865 0.624268
vt 0.268866 0.629933
vt 0.268866 0.629933
vt 0.279092 0.603484
vt 0.276522 0.620221
vt 0.268837 0.627189
vt 0.268113 0.612313
vt 0.266428 0.613912
vt 0.267195 0.629059
vt 0.267195 0.629059
vt 0.266428 0.613912
vt 0.268025 0.578296
vt 0.266428 0.582662
vt 0.268113 0.581062
vt 0.268025 0.578296
vt 0.268113 0.581063
vt 0.266428 0.582662
vt 0.268837 0.642814
vt 0.268866 0.645558
vt 0.267195 0.644684
vt 0.267195 0.644684
vt 0.360222 0.642814
vt 0.360194 0.645558
vt 0.361865 0.644684
vt 0.360946 0.581063
vt 0.362631 0.582663
vt 0.361034 0.578296
vt 0.361034 0.578296
vt 0.362631 0.582663
vt 0.360946 0.581063
vt 0.360194 0.645558
vt 0.360222 0.642814
vt 0.361865 0.644684
vt 0.268113 0.627938
vt 0.266428 0.629537
vt 0.268113 0.627937
vt 0.266428 0.629537
vt 0.362631 0.629538
vt 0.360946 0.627938
vt 0.360946 0.627938
vt 0.362631 0.629538
vt 0.353194 0.624267
vt 0.353194 0.624267
vt 0.360194 0.629933
vt 0.360194 0.629933
vt 0.352537 0.635846
vt 0.353194 0.639892
vt 0.352537 0.620221
vt 0.349967 0.603484
vt 0.360946 0.612313
vt 0.360222 0.627189
vt 0.353194 0.639892
vt 0.352537 0.635846
vt 0.279092 0.572234
vt 0.279507 0.568093
vt 0.304607 0.621323
vt 0.314530 0.618229
vt 0.314530 0.612524
vt 0.304823 0.615739
vt 0.314530 0.547255
vt 0.314530 0.552717
vt 0.307034 0.555267
vt 0.307272 0.549849
vt 0.276522 0.620221
vt 0.279092 0.603483
vt 0.268113 0.612312
vt 0.268837 0.627189
vt 0.322026 0.555267
vt 0.321787 0.549849
vt 0.324452 0.621323
vt 0.324236 0.615739
vt 0.279092 0.572233
vt 0.279507 0.568093
vt 0.349967 0.572234
vt 0.349552 0.568093
vt 0.349967 0.603484
vt 0.352537 0.620221
vt 0.360222 0.627189
vt 0.360946 0.612313
vt 0.307272 0.536760
vt 0.307272 0.536760
vt 0.349552 0.568093
vt 0.349967 0.572234
vt 0.276522 0.635846
vt 0.275865 0.639892
vt 0.324236 0.615739
vt 0.324452 0.621323
vt 0.333885 0.624264
vt 0.333885 0.624264
vt 0.333885 0.624264
vt 0.333885 0.624264
vt 0.295174 0.624264
vt 0.295174 0.624264
vt 0.295174 0.624264
vt 0.295174 0.624264
vt 0.295171 0.559304
vt 0.295171 0.559304
vt 0.307033 0.555267
vt 0.307272 0.549849
vt 0.295171 0.559303
vt 0.295171 0.559303
vt 0.333888 0.559304
vt 0.333888 0.559304
vt 0.333888 0.559304
vt 0.333888 0.559304
vt 0.295170 0.538550
vt 0.295170 0.538550
vt 0.295172 0.596171
vt 0.295173 0.603310
vt 0.333886 0.603310
vt 0.333887 0.596171
vt 0.333889 0.538550
vt 0.333889 0.538550
vt 0.333885 0.608639
vt 0.333885 0.608639
vt 0.295174 0.608639
vt 0.295174 0.608639
vt 0.333887 0.596171
vt 0.333886 0.603310
vt 0.295173 0.603310
vt 0.295172 0.596171
vt 0.816809 0.561635
vt 0.811072 0.561798
vt 0.822546 0.536330
vt 0.816809 0.536167
vt 0.839045 0.562935
vt 0.822546 0.561798
vt 0.839045 0.575669
vt 0.822546 0.574532
vn -0.9997 -0.0224 0.0000
vn -0.8956 -0.2113 -0.3915
vn -0.8956 -0.2113 0.3915
vn -0.3373 -0.0179 0.9412
vn -0.4087 -0.2250 0.8845
vn 0.2347 -0.2654 0.9351
vn 0.3326 -0.0163 0.9429
vn -0.4956 0.4956 -0.7132
vn 0.0000 0.7125 -0.7016
vn 0.0000 0.5438 -0.8392
vn -0.3841 0.3841 -0.8396
vn 0.4594 0.4881 0.7421
vn 0.0280 0.0280 0.9992
vn 0.2678 0.1419 0.9530
vn 0.4956 0.4956 -0.7132
vn 0.7125 0.0000 -0.7016
vn 0.5438 0.0000 -0.8392
vn 0.3841 0.3841 -0.8396
vn 0.0000 -0.7125 -0.7016
vn -0.4956 -0.4956 -0.7132
vn -0.3841 -0.3841 -0.8396
vn 0.0000 -0.5438 -0.8392
vn 0.2984 -0.0000 0.9545
vn 0.0104 0.0000 0.9999
vn 0.2677 -0.1419 0.9530
vn -0.4956 -0.4956 0.7132
vn 0.0000 -0.7125 0.7016
vn 0.0000 -0.5438 0.8392
vn -0.3841 -0.3841 0.8396
vn -0.0000 0.3967 0.9179
vn -0.0000 -0.0564 0.9984
vn -0.7125 -0.0000 0.7016
vn -0.5438 -0.0000 0.8392
vn 0.4956 -0.4956 -0.7132
vn 0.3841 -0.3841 -0.8396
vn 0.0000 -0.2983 0.9545
vn 0.0000 -0.0104 0.9999
vn -0.1419 -0.2677 0.9530
vn 0.4956 -0.4956 0.7132
vn 0.3841 -0.3841 0.8396
vn 0.7125 -0.0000 0.7016
vn 0.5438 -0.0000 0.8392
vn -0.2984 -0.0000 0.9545
vn -0.0104 0.0000 0.9999
vn -0.2678 0.1419 0.9530
vn 0.4956 0.4956 0.7132
vn 0.3841 0.3841 0.8396
vn -0.4956 0.4956 0.7132
vn -0.3841 0.3841 0.8396
vn -0.0280 -0.0280 0.9992
vn -0.2677 -0.1419 0.9530
vn 0.0000 0.7125 0.7016
vn 0.0000 0.5438 0.8392
vn -0.0280 0.0280 0.9992
vn -0.4593 0.4882 0.7421
vn -0.7125 0.0000 -0.7016
vn -0.5438 0.0000 -0.8392
vn 0.0280 -0.0280 0.9992
vn 0.1419 -0.2677 0.9530
vn -0.0104 0.0000 -0.9999
vn -0.2984 -0.0000 -0.9544
vn -0.2678 0.1419 -0.9530
vn 0.0280 -0.0280 -0.9992
vn 0.2677 -0.1419 -0.9530
vn 0.1419 -0.2677 -0.9530
vn -0.0000 -0.0564 -0.9984
vn -0.4593 0.4882 -0.7421
vn -0.0000 0.3967 -0.9179
vn 0.0000 -0.0104 -0.9999
vn 0.0000 -0.2983 -0.9545
vn -0.1419 -0.2677 -0.9530
vn 0.0280 0.0280 -0.9992
vn 0.4594 0.4881 -0.7421
vn 0.2678 0.1419 -0.9530
vn -0.2677 -0.1419 -0.9530
vn 0.0104 0.0000 -0.9999
vn 0.2984 -0.0000 -0.9545
vn -0.8740 0.4859 0.0000
vn -0.8375 0.4836 0.2544
vn -1.0000 0.0000 0.0000
vn -0.9671 -0.0000 0.2544
vn -0.8660 -0.5000 -0.0000
vn -0.8375 -0.4836 0.2544
vn -0.5000 -0.8660 -0.0000
vn -0.4836 -0.8375 0.2544
vn -0.0000 -1.0000 -0.0000
vn -0.0000 -0.9671 0.2544
vn 0.5000 -0.8660 -0.0000
vn 0.4836 -0.8375 0.2544
vn 0.8660 -0.5000 -0.0000
vn 0.8375 -0.4836 0.2544
vn 1.0000 -0.0000 0.0000
vn 0.9671 -0.0000 0.2544
vn 0.8740 0.4859 0.0000
vn 0.8375 0.4836 0.2544
vn 0.7551 0.6556 0.0000
vn -0.0280 -0.0280 -0.9992
vn -0.0280 0.0280 -0.9992
vn 0.9671 0.0000 -0.2544
vn 0.8375 0.4836 -0.2544
vn 0.8375 -0.4836 -0.2544
vn 0.4836 -0.8375 -0.2544
vn -0.0000 -0.9671 -0.2544
vn -0.4836 -0.8375 -0.2544
vn -0.8375 -0.4836 -0.2544
vn -0.9671 0.0000 -0.2544
vn -0.8375 0.4836 -0.2544
vn 0.6413 0.6830 0.3498
vn 0.6413 0.6830 -0.3498
vn -0.6408 0.6834 0.3497
vn -0.2603 0.5315 0.8061
vn 0.2604 0.5312 0.8062
vn 0.2604 0.5312 -0.8062
vn -0.2603 0.5315 -0.8061
vn -0.6408 0.6834 -0.3497
vn -0.7549 0.6559 0.0000
vn -0.3373 -0.0179 -0.9412
vn -0.4087 -0.2250 -0.8845
vn -0.6316 -0.0191 -0.7751
vn 0.3326 -0.0163 -0.9429
vn 0.2347 -0.2654 -0.9351
vn 0.9998 -0.0178 0.0000
vn 0.9345 -0.3560 0.0000
vn -0.2522 0.2201 0.9423
vn -0.4090 -0.2127 0.8874
vn 0.2370 -0.2528 0.9380
vn 0.4016 0.1855 0.8968
vn 0.6281 -0.0161 -0.7780
vn 0.4883 -0.3292 -0.8082
vn 0.0000 -0.4117 0.9113
vn -0.2793 -0.2793 0.9187
vn -0.4117 -0.0000 0.9113
vn -0.2793 0.2793 0.9187
vn 0.0000 0.4117 0.9113
vn -0.2793 -0.2793 -0.9187
vn 0.0000 -0.4117 -0.9113
vn -0.4117 -0.0000 -0.9113
vn 0.0000 0.4117 -0.9113
vn -0.2793 0.2793 -0.9187
vn 0.4117 -0.0000 -0.9113
vn 0.2793 0.2793 -0.9187
vn 0.2793 0.2793 0.9187
vn 0.4117 -0.0000 0.9113
vn 0.2793 -0.2793 0.9187
vn 0.2793 -0.2793 -0.9187
vn 0.0000 -0.0000 1.0000
vn 0.0000 0.0000 -1.0000
vn 0.4016 0.1855 -0.8968
vn 0.2370 -0.2528 -0.9380
vn -0.4090 -0.2127 -0.8874
vn -0.2522 0.2201 -0.9423
vn 0.4001 0.1614 -0.9021
vn 0.3246 -0.0409 -0.9450
vn -0.3387 -0.0326 -0.9403
vn -0.2574 0.1989 -0.9456
vn -0.6316 -0.0191 0.7751
vn -0.2574 0.1989 0.9456
vn -0.3387 -0.0326 0.9403
vn 0.3246 -0.0409 0.9450
vn 0.4001 0.1614 0.9021
vn 0.9015 0.1688 -0.3985
vn 0.4941 -0.3159 -0.8100
vn 0.9057 0.1376 -0.4010
vn 0.6231 -0.0462 -0.7808
vn -0.8981 -0.1996 -0.3918
vn -0.5106 0.2842 -0.8115
vn -0.6342 -0.0306 -0.7725
vn -0.5185 0.2642 -0.8133
vn -0.9550 0.2965 0.0000
vn -0.8981 -0.1996 0.3918
vn -0.9618 0.2737 0.0000
vn -0.9995 -0.0329 0.0000
vn 0.4883 -0.3292 0.8082
vn 0.6281 -0.0161 0.7780
vn 0.4941 -0.3159 0.8100
vn 0.9015 0.1688 0.3985
vn 0.9398 -0.3418 0.0000
vn 0.9057 0.1376 0.4010
vn 0.9983 -0.0582 0.0000
vn -0.5106 0.2842 0.8115
vn -0.5185 0.2642 0.8133
vn -0.6342 -0.0306 0.7725
vn -0.1423 0.4668 -0.8728
vn 0.3911 0.3976 -0.8300
vn 0.1000 -0.5201 -0.8483
vn -0.4031 -0.4416 -0.8015
vn -0.1630 0.4396 -0.8833
vn 0.3837 0.3708 -0.8458
vn 0.1198 -0.4955 -0.8603
vn -0.3970 -0.4170 -0.8176
vn 0.8351 0.4178 0.3578
vn 0.3911 0.3976 0.8300
vn 0.1000 -0.5201 0.8483
vn 0.3316 -0.5559 0.7622
vn 0.8441 0.3896 0.3685
vn 0.3837 0.3708 0.8458
vn 0.1198 -0.4954 0.8603
vn 0.3520 -0.5302 0.7714
vn 0.8351 0.4178 -0.3578
vn 0.3316 -0.5559 -0.7622
vn 0.8441 0.3896 -0.3685
vn 0.3520 -0.5302 -0.7714
vn -0.3769 0.4958 -0.7824
vn -0.8205 -0.4585 -0.3413
vn -0.3972 0.4676 -0.7897
vn -0.8302 -0.4327 -0.3515
vn -0.7841 0.6207 0.0000
vn -0.8205 -0.4585 0.3413
vn -0.8094 0.5873 0.0000
vn -0.8302 -0.4327 0.3515
vn -0.1423 0.4668 0.8728
vn -0.4031 -0.4416 0.8015
vn -0.1630 0.4396 0.8833
vn -0.3970 -0.4170 0.8176
vn 0.7179 -0.6962 0.0000
vn 0.7455 -0.6665 0.0000
vn -0.3769 0.4958 0.7824
vn -0.3972 0.4676 0.7897
vn 0.6231 -0.0462 0.7808
vn 0.2433 0.0094 -0.9699
vn 0.2438 0.0096 -0.9698
vn 0.2786 0.0377 -0.9597
vn 0.2762 0.0349 -0.9605
vn -0.2433 0.0094 0.9699
vn -0.2295 0.0046 0.9733
vn -0.2438 0.0096 0.9698
vn 0.2433 0.0094 0.9699
vn 0.2762 0.0349 0.9605
vn 0.2786 0.0377 0.9597
vn 0.2438 0.0096 0.9698
vn -0.2810 0.2348 -0.9305
vn -0.2905 0.2209 -0.9310
vn -0.2964 0.2119 -0.9312
vn -0.3020 0.1404 0.9429
vn -0.3012 0.1125 0.9469
vn -0.2762 0.0349 0.9605
vn -0.2786 0.0377 0.9597
vn 0.2810 0.2348 -0.9305
vn 0.2964 0.2119 -0.9312
vn 0.2905 0.2209 -0.9310
vn 0.2810 0.2348 0.9305
vn 0.2905 0.2209 0.9310
vn 0.2964 0.2119 0.9312
vn -0.3012 0.1125 -0.9469
vn -0.3020 0.1404 -0.9429
vn -0.2786 0.0377 -0.9597
vn -0.2762 0.0349 -0.9605
vn -0.2905 0.2209 0.9310
vn -0.2964 0.2119 0.9312
vn 0.3012 0.1125 -0.9469
vn 0.3020 0.1404 -0.9429
vn 0.3020 0.1404 0.9429
vn 0.3012 0.1125 0.9469
vn -0.2810 0.2348 0.9305
vn 0.2149 -0.0094 0.9766
vn 0.2130 -0.0168 0.9769
vn 0.2026 -0.0556 0.9777
vn -0.2130 -0.0168 0.9769
vn -0.2149 -0.0094 0.9766
vn -0.2026 -0.0556 0.9777
vn -0.2149 -0.0094 -0.9766
vn -0.2130 -0.0168 -0.9769
vn -0.2026 -0.0556 -0.9777
vn 0.2130 -0.0168 -0.9769
vn 0.2149 -0.0094 -0.9766
vn 0.2026 -0.0556 -0.9777
vn 0.2368 0.0124 0.9715
vn 0.2367 0.0125 0.9715
vn -0.2367 0.0125 0.9715
vn -0.2368 0.0124 0.9715
vn 0.2368 0.0124 -0.9715
vn 0.2367 0.0125 -0.9715
vn -0.2367 0.0125 -0.9715
vn -0.2368 0.0124 -0.9715
vn -0.2575 0.0021 0.9663
vn 0.2575 0.0021 0.9663
vn -0.2575 0.0021 -0.9663
vn -0.2645 0.0012 -0.9644
vn 0.2575 0.0021 -0.9663
vn 0.2645 0.0012 -0.9644
vn -0.2438 0.0096 -0.9698
vn -0.2295 0.0046 -0.9733
vn -0.2433 0.0094 -0.9699
vn -0.8004 0.5994 -0.0000
vn -0.7303 0.6832 -0.0000
vn -0.0000 0.0046 -1.0000
vn -0.0624 -0.0069 -0.9980
vn -0.0506 -0.0023 -0.9987
vn 0.9969 0.0781 0.0000
vn -0.0000 0.0046 1.0000
vn 0.0624 -0.0069 0.9980
vn 0.0506 -0.0023 0.9987
vn 0.8004 0.5994 -0.0000
vn 0.7303 0.6832 0.0000
vn -0.8234 -0.5675 -0.0000
vn -0.7538 -0.6571 -0.0000
vn -0.0506 -0.0023 0.9987
vn -0.0624 -0.0069 0.9980
vn 0.0506 -0.0023 -0.9987
vn 0.0624 -0.0069 -0.9980
vn -0.2435 -0.9699 -0.0000
vn -0.1083 -0.9941 0.0000
vn -0.6708 0.4855 0.5606
vn -0.6117 0.5127 0.6024
vn -0.5912 0.5211 0.6156
vn 0.2435 -0.9699 0.0000
vn 0.1083 -0.9941 0.0000
vn -0.4144 0.7756 -0.4762
vn -0.2728 0.6617 -0.6983
vn -0.2954 0.6520 -0.6983
vn -0.5545 0.4343 -0.7099
vn -0.5552 -0.5571 -0.6175
vn -0.6842 -0.4926 -0.5377
vn -0.6035 -0.5356 -0.5907
vn -0.2395 0.9709 0.0000
vn -0.1082 0.9941 0.0000
vn -0.1609 -0.0109 0.9869
vn -0.1655 -0.0084 0.9862
vn -0.1806 -0.0002 0.9836
vn -0.9969 0.0781 0.0000
vn -0.5779 -0.6895 -0.4366
vn -0.8485 -0.3632 -0.3848
vn -0.5304 -0.4470 -0.7203
vn -0.5779 -0.6895 0.4366
vn -0.5304 -0.4470 0.7203
vn -0.8485 -0.3632 0.3848
vn -0.5545 0.4343 0.7099
vn -0.4144 0.7756 0.4762
vn -0.6589 0.6301 0.4108
vn -0.6589 0.6301 -0.4108
vn 0.5545 0.4343 -0.7099
vn 0.4144 0.7756 -0.4762
vn 0.6589 0.6301 -0.4108
vn 0.5304 -0.4470 -0.7203
vn 0.8485 -0.3632 -0.3848
vn 0.5779 -0.6895 -0.4366
vn 0.5779 -0.6895 0.4366
vn 0.8485 -0.3632 0.3848
vn 0.5304 -0.4470 0.7203
vn 0.4144 0.7756 0.4762
vn 0.5545 0.4343 0.7099
vn 0.6589 0.6301 0.4108
vn 0.2395 0.9709 0.0000
vn 0.1082 0.9941 0.0000
vn 0.2954 0.6520 0.6983
vn 0.2728 0.6617 0.6983
vn 0.1655 -0.0084 0.9862
vn 0.1609 -0.0109 0.9869
vn 0.1806 -0.0002 0.9836
vn 0.2728 0.6617 -0.6983
vn 0.2954 0.6520 -0.6983
vn 0.0537 -0.7053 0.7069
vn 0.0596 -0.7044 0.7073
vn -0.6117 0.5127 -0.6024
vn -0.6708 0.4855 -0.5606
vn -0.5912 0.5211 -0.6156
vn 0.6842 -0.4926 0.5377
vn 0.6035 -0.5356 0.5907
vn 0.5552 -0.5571 0.6175
vn -0.1655 -0.0084 -0.9862
vn -0.1609 -0.0109 -0.9869
vn -0.1806 -0.0002 -0.9836
vn -0.6035 -0.5356 0.5907
vn -0.6842 -0.4926 0.5377
vn -0.5552 -0.5571 0.6175
vn 0.6708 0.4855 -0.5606
vn 0.6117 0.5127 -0.6024
vn 0.5912 0.5211 -0.6156
vn 0.0537 -0.7053 -0.7069
vn 0.0596 -0.7044 -0.7073
vn -0.0537 -0.7053 0.7069
vn -0.0596 -0.7044 0.7073
vn 0.1609 -0.0109 -0.9869
vn 0.1655 -0.0084 -0.9862
vn 0.1806 -0.0002 -0.9836
vn 0.8234 -0.5675 -0.0000
vn 0.7538 -0.6571 -0.0000
vn -0.0596 -0.7044 -0.7073
vn -0.0537 -0.7053 -0.7069
vn -0.2954 0.6520 0.6983
vn -0.2728 0.6617 0.6983
vn 0.6708 0.4855 0.5606
vn 0.5912 0.5211 0.6156
vn 0.6117 0.5127 0.6024
vn 0.4412 0.5885 0.6775
vn 0.4393 0.5894 0.6780
vn 0.4393 0.5894 -0.6780
vn 0.4412 0.5885 -0.6775
vn -0.4412 0.5885 0.6775
vn -0.4393 0.5894 0.6780
vn -0.4393 0.5894 -0.6780
vn -0.4412 0.5885 -0.6775
vn 0.3295 -0.6425 0.6918
vn 0.2971 -0.6525 0.6971
vn 0.6035 -0.5356 -0.5907
vn 0.5553 -0.5571 -0.6175
vn 0.2971 -0.6525 -0.6971
vn 0.3295 -0.6425 -0.6918
vn -0.3295 -0.6425 0.6918
vn -0.2971 -0.6525 0.6971
vn -0.2971 -0.6525 -0.6971
vn -0.3295 -0.6425 -0.6918
vn 0.5302 -0.8479 -0.0000
vn -0.1151 -0.0164 -0.9932
vn -0.1109 -0.0160 -0.9937
vn 0.1109 -0.0160 -0.9937
vn 0.1151 -0.0164 -0.9932
vn -0.5302 -0.8479 -0.0000
vn 0.5130 0.8584 0.0000
vn -0.5130 0.8584 0.0000
vn 0.1151 -0.0164 0.9932
vn 0.1109 -0.0160 0.9937
vn -0.1109 -0.0160 0.9937
vn -0.1151 -0.0164 0.9932
vn 0.6842 -0.4926 -0.5377
vn 0.2645 0.0012 0.9644
vn -0.2645 0.0012 0.9644
vn 0.2295 0.0046 0.9733
vn 0.2295 0.0046 -0.9733
usemtl avian_swordsman
s 1
f 11/1/1 121/2/2 115/3/3 8/4/1
f 9/5/4 108/6/5 105/7/6 12/8/7
f 36/9/8 29/10/9 93/11/10 101/12/11
f 37/13/12 69/14/13 38/15/14
f 30/16/15 31/17/16 96/18/17 95/19/18
f 33/20/19 34/21/20 99/22/21 98/23/22
f 39/24/23 70/25/24 40/26/25
f 29/10/9 30/16/15 95/19/18 93/11/10
f 26/27/26 25/28/27 89/29/28 90/30/29
f 17/31/30 68/32/31 37/13/12
f 27/33/32 26/27/26 90/30/29 91/34/33
f 31/17/16 32/35/34 97/36/35 96/18/17
f 42/37/36 72/38/37 43/39/38
f 25/28/27 24/40/39 88/41/40 89/29/28
f 24/40/39 23/42/41 87/43/42 88/41/40
f 45/44/43 74/45/44 46/46/45
f 23/42/41 22/47/46 86/48/47 87/43/42
f 82/49/48 27/33/32 91/34/33 92/50/49
f 43/39/38 73/51/50 44/52/51
f 21/53/52 82/49/48 92/50/49 84/54/53
f 22/47/46 21/53/52 84/54/53 86/48/47
f 46/46/45 28/55/54 47/56/55
f 34/21/20 35/57/56 100/58/57 99/22/21
f 35/57/56 36/9/8 101/12/11 100/58/57
f 40/26/25 71/59/58 41/60/59
f 81/61/60 56/62/61 57/63/62
f 78/64/63 51/65/64 52/66/65
f 28/55/54 68/67/31 47/56/55
f 72/38/37 42/37/36 41/60/59
f 75/68/66 58/69/67 18/70/68
f 79/71/69 53/72/70 54/73/71
f 76/74/72 48/75/73 49/76/74
f 68/32/31 69/14/13 37/13/12
f 73/51/50 74/77/44 44/52/51
f 70/25/24 39/24/23 38/15/14
f 81/78/60 55/79/75 56/62/61
f 77/80/76 50/81/77 51/65/64
f 59/82/78 46/83/79 47/84/55
f 59/82/78 60/85/80 45/86/81 46/83/79
f 60/85/80 61/87/82 44/88/83 45/86/81
f 61/87/82 62/89/84 43/90/85 44/88/83
f 62/89/84 63/91/86 42/92/87 43/90/85
f 63/91/86 64/93/88 41/94/89 42/92/87
f 64/93/88 65/95/90 40/96/91 41/94/89
f 65/95/90 66/97/92 39/98/93 40/96/91
f 66/97/92 67/99/94 38/100/95 39/98/93
f 67/99/94 19/101/96 37/102/12
f 70/25/24 71/59/58 40/26/25
f 74/45/44 45/44/43 44/52/51
f 77/103/76 49/76/74 50/81/77
f 80/104/97 54/73/71 55/79/75
f 75/105/66 18/70/68 48/75/73
f 69/14/13 70/106/24 38/15/14
f 72/38/37 73/51/50 43/39/38
f 68/32/31 17/31/30 47/56/55
f 79/107/69 52/66/65 53/72/70
f 83/108/98 57/63/62 58/69/67
f 71/59/58 72/109/37 41/60/59
f 74/45/44 28/55/54 46/46/45
f 48/110/73 19/101/96 67/99/94
f 50/111/99 49/112/100 67/99/94 66/97/92
f 51/113/101 50/111/99 66/97/92 65/95/90
f 52/114/102 51/113/101 65/95/90 64/93/88
f 53/115/103 52/114/102 64/93/88 63/91/86
f 54/116/104 53/115/103 63/91/86 62/89/84
f 55/117/105 54/116/104 62/89/84 61/87/82
f 56/118/106 55/117/105 61/87/82 60/85/80
f 57/119/107 56/118/106 60/85/80 59/82/78
f 58/120/67 57/119/107 59/82/78
f 16/121/108 37/102/12 19/101/96
f 19/101/96 3/122/109 16/121/108
f 6/123/110 47/84/55 7/124/111
f 1/125/112 7/126/111 17/31/30
f 1/125/112 17/31/30 37/13/12
f 1/127/112 37/102/12 16/121/108
f 19/101/96 48/110/73 3/122/109
f 2/128/113 3/122/109 48/110/73
f 48/75/73 18/70/68 2/129/113
f 2/129/113 18/70/68 5/130/114
f 18/70/68 58/69/67 5/130/114
f 4/131/115 20/132/116 6/123/110
f 17/31/30 7/126/111 47/56/55
f 6/123/110 20/132/116 47/84/55
f 20/132/116 4/131/115 58/120/67
f 5/133/114 58/120/67 4/131/115
f 38/100/95 67/99/94 37/102/12
f 49/112/100 48/110/73 67/99/94
f 20/132/116 59/82/78 47/84/55
f 20/132/116 58/120/67 59/82/78
f 10/134/117 127/135/118 121/2/2 11/1/119
f 15/136/120 132/137/121 127/135/118 10/134/117
f 13/138/122 145/139/123 138/140/123 14/141/122
f 109/142/124 111/143/125 102/144/126 106/145/127
f 14/141/128 138/140/129 132/137/121 15/136/120
f 32/35/34 33/20/19 98/23/22 97/36/35
f 76/74/72 75/105/66 48/75/73
f 75/68/66 83/108/98 58/69/67
f 83/108/98 81/61/60 57/63/62
f 81/78/60 80/104/97 55/79/75
f 80/104/97 79/71/69 54/73/71
f 79/107/69 78/64/63 52/66/65
f 78/64/63 77/80/76 51/65/64
f 77/103/76 76/74/72 49/76/74
f 21/146/130 22/147/131 69/148/13 68/149/31
f 22/147/131 23/150/132 70/151/24 69/148/13
f 24/152/133 25/153/134 72/154/37 71/155/58
f 30/156/135 29/157/136 75/158/66 76/159/72
f 31/160/137 30/156/135 76/159/72 77/161/76
f 33/162/138 32/163/139 78/164/63 79/165/69
f 35/166/140 34/167/141 80/168/97 81/169/60
f 26/170/142 27/171/143 74/172/44 73/173/50
f 27/171/143 82/174/144 28/175/54 74/172/44
f 32/163/139 31/160/137 77/161/76 78/164/63
f 23/150/132 24/152/133 71/155/58 70/151/24
f 34/167/141 33/162/138 79/165/69 80/168/97
f 29/157/136 36/176/145 83/177/98 75/158/66
f 36/176/145 35/166/140 81/169/60 83/177/98
f 25/153/134 26/170/142 73/173/50 72/154/37
f 85/178/146 87/43/42 86/48/47
f 85/178/146 88/41/40 87/43/42
f 85/178/146 89/29/28 88/41/40
f 85/178/146 90/30/29 89/29/28
f 85/178/146 91/34/33 90/30/29
f 85/178/146 92/50/49 91/34/33
f 85/178/146 84/54/53 92/50/49
f 94/179/147 93/11/10 95/19/18
f 94/179/147 95/19/18 96/18/17
f 94/179/147 96/18/17 97/36/35
f 94/179/147 97/36/35 98/23/22
f 94/179/147 98/23/22 99/22/21
f 94/179/147 99/22/21 100/58/57
f 94/179/147 100/58/57 101/12/11
f 94/179/147 101/12/11 93/11/10
f 85/178/146 86/48/47 84/54/53
f 133/180/148 135/181/149 130/182/150 126/183/151
f 136/184/152 2/185/153 5/186/154 129/187/155
f 8/4/156 115/3/3 108/6/5 9/5/4
f 112/188/157 7/189/158 1/190/159 103/191/160
f 139/192/161 141/193/162 135/181/149 133/180/148
f 142/194/163 3/195/164 2/185/153 136/184/152
f 126/183/151 130/182/150 124/196/165 120/197/166
f 129/187/155 5/186/154 4/198/167 123/199/168
f 120/197/169 124/196/165 118/200/170 114/201/169
f 123/199/171 4/198/172 6/202/172 117/203/171
f 12/8/7 105/7/6 145/139/173 13/138/174
f 106/145/127 102/144/126 148/204/175 144/205/176
f 144/205/176 148/204/177 141/193/177 139/192/161
f 147/206/178 16/207/179 3/195/179 142/194/163
f 114/201/180 118/200/170 111/143/125 109/142/124
f 117/203/181 6/202/182 7/189/158 112/188/157
f 133/208/148 126/209/151 128/210/183 134/211/184
f 134/211/185 128/210/186 127/212/118 132/213/121
f 136/214/152 129/215/155 131/216/187 137/217/188
f 137/217/189 131/216/190 130/218/150 135/219/149
f 106/220/127 144/221/176 146/222/191 107/223/192
f 107/223/193 146/222/194 145/224/173 105/225/6
f 103/226/160 147/227/178 149/228/195 104/229/196
f 104/229/197 149/228/198 148/230/175 102/231/126
f 139/232/161 133/208/148 134/211/184 140/233/199
f 140/233/200 134/211/185 132/213/121 138/234/129
f 142/235/163 136/214/152 137/217/188 143/236/201
f 143/236/202 137/217/189 135/219/149 141/237/162
f 126/209/151 120/238/166 122/239/203 128/210/183
f 128/210/186 122/239/204 121/240/2 127/212/118
f 129/215/155 123/241/168 125/242/205 131/216/187
f 131/216/190 125/242/206 124/243/165 130/218/150
f 120/238/169 114/244/169 116/245/207 122/239/207
f 122/239/204 116/245/208 115/246/3 121/240/2
f 123/241/171 117/247/171 119/248/209 125/242/209
f 125/242/206 119/248/210 118/249/170 124/243/165
f 109/250/124 106/220/127 107/223/192 110/251/211
f 110/251/212 107/223/193 105/225/6 108/252/5
f 112/253/157 103/226/160 104/229/196 113/254/213
f 113/254/214 104/229/197 102/231/126 111/255/125
f 144/221/176 139/232/161 140/233/199 146/222/191
f 146/222/215 140/233/215 138/234/123 145/224/123
f 147/227/178 142/235/163 143/236/201 149/228/195
f 149/228/216 143/236/216 141/237/177 148/230/177
f 114/244/180 109/250/124 110/251/211 116/245/217
f 116/245/208 110/251/212 108/252/5 115/246/3
f 117/247/181 112/253/157 113/254/213 119/248/218
f 119/248/210 113/254/214 111/255/125 118/249/170
f 103/191/160 1/190/159 16/207/219 147/206/178
f 82/174/144 21/146/130 68/149/31 28/175/54
f 260/256/220 264/257/221 173/258/222 158/259/223
f 259/260/224 151/261/225 165/262/225 263/263/226
f 260/264/227 158/265/228 168/266/229 261/267/230
f 150/268/231 157/269/232 155/270/233
f 170/271/234 156/272/235 154/273/236 167/274/237
f 150/275/238 159/276/239 157/277/240
f 150/268/241 153/278/242 159/279/243
f 156/280/244 177/281/245 174/282/246 154/283/247
f 153/284/248 155/285/249 156/272/235 170/271/234
f 155/270/233 157/269/232 177/281/245 156/280/244
f 157/277/240 159/276/239 160/286/250 176/287/251
f 176/287/251 160/286/250 158/259/223 173/258/222
f 159/279/243 153/278/242 171/288/252 160/289/253
f 160/289/253 171/288/252 168/266/229 158/265/228
f 153/284/248 150/275/254 155/285/249
f 170/290/255 172/291/256 153/278/257
f 172/292/258 171/293/259 153/294/260
f 176/295/261 178/296/262 157/269/263
f 178/297/264 177/298/265 157/299/266
f 170/290/255 167/300/267 169/301/268 172/291/256
f 172/292/258 169/302/269 168/303/270 171/293/259
f 174/304/271 177/298/265 178/297/264 175/305/272
f 175/306/273 178/296/262 176/295/261 173/307/274
f 261/308/275 168/303/270 169/302/269 262/309/275
f 262/310/276 169/301/268 167/300/267 263/311/276
f 264/312/277 162/313/278 163/314/278 265/315/277
f 265/316/279 163/317/280 161/318/280 266/319/279
f 266/320/281 161/321/282 151/322/282 259/323/283
f 203/324/284 206/325/284 233/326/285 247/327/285
f 205/328/286 209/329/286 212/330/287 229/331/288
f 195/332/289 193/333/289 202/334/289 198/335/289
f 204/336/290 208/337/290 239/338/291 256/339/292
f 206/325/293 203/324/293 254/340/294 226/341/294
f 207/342/295 210/343/295 221/344/296 235/345/296
f 208/337/290 204/336/290 251/346/297 244/347/298
f 209/329/286 205/328/286 224/348/299 217/349/300
f 236/350/301 220/351/301 196/352/302 197/353/302
f 203/354/303 247/355/304 251/356/305 204/357/303
f 241/358/306 182/359/307 179/360/307 215/361/306
f 188/362/308 232/363/309 230/364/310 189/365/311
f 221/366/312 210/367/313 209/368/313 217/369/314
f 248/370/315 232/371/315 188/372/316 186/373/316
f 245/374/317 250/375/318 185/376/319 183/377/319
f 184/378/320 187/379/320 190/380/320 180/381/320
f 179/382/321 180/383/322 181/384/323
f 182/385/324 183/386/325 184/387/326
f 185/388/327 186/389/328 187/390/329
f 188/362/308 189/365/311 190/391/330
f 191/392/331 192/393/332 193/394/333
f 194/395/334 195/396/335 196/397/336
f 197/398/337 198/399/338 199/400/339
f 200/401/340 201/402/341 202/403/342
f 179/382/321 182/385/324 184/387/326 180/383/322
f 183/404/325 185/388/327 187/390/329 184/405/326
f 186/389/328 188/362/308 190/391/330 187/390/329
f 189/365/311 181/406/323 180/407/322 190/391/330
f 193/394/333 195/408/335 194/409/334 191/392/331
f 197/398/337 196/397/336 195/396/335 198/399/338
f 192/393/332 200/401/340 202/403/342 193/394/333
f 201/402/341 199/410/339 198/411/338 202/403/342
f 227/412/343 253/413/343 200/414/344 192/415/344
f 257/416/345 201/402/341 200/401/340 253/417/346
f 257/418/347 238/419/348 199/420/349 201/421/349
f 227/422/350 192/393/332 191/392/331 223/423/351
f 245/424/352 183/386/325 182/385/324 241/425/353
f 233/426/354 206/427/355 205/428/355 229/429/356
f 207/430/357 208/431/357 244/432/358 242/433/359
f 230/434/360 211/435/361 181/436/362 189/437/362
f 239/438/363 208/431/364 207/430/364 235/439/365
f 205/428/366 206/427/366 226/440/367 224/441/368
f 181/384/323 211/442/369 215/443/370 179/382/321
f 199/400/339 238/444/371 236/445/372 197/398/337
f 218/446/373 223/447/374 191/448/375 194/449/375
f 210/343/376 207/342/376 242/450/377 214/451/377
f 196/397/336 220/452/378 218/453/379 194/395/334
f 185/388/327 250/454/380 248/455/381 186/389/328
f 203/354/382 204/357/382 256/456/383 254/457/384
f 254/457/384 256/456/383 258/458/385 255/459/386
f 255/459/386 258/458/385 257/416/345 253/417/346
f 224/441/368 226/440/367 228/460/387 225/461/388
f 225/461/388 228/460/387 227/422/350 223/423/351
f 248/455/381 250/454/380 252/462/389 249/463/390
f 249/463/390 252/462/389 251/356/305 247/355/304
f 230/364/310 232/363/309 234/464/391 231/465/392
f 231/465/392 234/464/391 233/426/354 229/429/356
f 242/433/359 244/432/358 246/466/393 243/467/394
f 243/467/394 246/466/393 245/424/352 241/425/353
f 212/468/395 214/469/396 216/470/397 213/471/398
f 213/471/398 216/470/397 215/443/370 211/442/369
f 236/445/372 238/444/371 240/472/399 237/473/400
f 237/473/400 240/472/399 239/438/363 235/439/365
f 218/453/379 220/452/378 222/474/401 219/475/402
f 219/475/402 222/474/401 221/366/312 217/369/314
f 214/451/377 242/450/377 243/476/403 216/477/403
f 216/477/403 243/476/403 241/358/306 215/361/306
f 229/331/288 212/330/287 213/478/404 231/479/405
f 231/479/405 213/478/404 211/435/361 230/434/360
f 217/349/300 224/348/299 225/480/406 219/481/407
f 219/481/407 225/480/406 223/447/374 218/446/373
f 235/345/296 221/344/296 222/482/408 237/483/408
f 237/483/408 222/482/408 220/351/301 236/350/301
f 226/341/294 254/340/294 255/484/409 228/485/409
f 228/485/409 255/484/409 253/413/343 227/412/343
f 247/327/285 233/326/285 234/486/410 249/487/410
f 249/487/410 234/486/410 232/371/315 248/370/315
f 256/339/292 239/338/291 240/488/411 258/489/412
f 258/489/412 240/488/411 238/419/348 257/418/347
f 244/347/298 251/346/297 252/490/413 246/491/414
f 246/491/414 252/490/413 250/375/318 245/374/317
f 209/368/415 210/367/415 214/469/396 212/468/395
f 174/282/246 266/320/281 259/323/283 154/283/247
f 175/305/272 265/316/279 266/319/279 174/304/271
f 173/307/274 264/312/277 265/315/277 175/306/273
f 166/492/416 262/310/276 263/311/276 165/493/416
f 164/494/417 261/308/275 262/309/275 166/495/417
f 152/496/418 260/264/227 261/267/230 164/497/418
f 154/273/236 259/260/224 263/263/226 167/274/237
f 152/498/419 162/499/419 264/257/221 260/256/220
