# Blender v3.4.1 OBJ File: 'March2026_AvianSwordsman_Assets_Export.blend'
# www.blender.org
mtllib Trainingdummy_Base_Trainingdummy_Post_Trainingdummy_Chest.mtl
o Trainingdummy_Chest
v -0.269339 0.974213 0.269339
v -0.201398 1.498206 0.201398
v -0.269338 0.974213 -0.269338
v -0.201398 1.498206 -0.201398
v 0.269338 0.974213 0.269338
v 0.201398 1.498206 0.201398
v 0.269338 0.974213 -0.269338
v 0.201398 1.498206 -0.201398
v -0.310392 1.206135 0.310392
v -0.310392 1.206135 -0.310392
v 0.310392 1.206135 -0.310392
v 0.310392 1.206135 0.310392
v 0.000000 0.958876 -0.347509
v 0.000000 1.522527 -0.229515
v 0.000000 0.958876 0.347509
v 0.000000 1.522527 0.229515
v 0.000000 1.204966 0.412976
v 0.000000 1.204966 -0.412976
v -0.347509 0.958876 0.000000
v -0.229515 1.522527 0.000000
v 0.347509 0.958876 -0.000000
v 0.229515 1.522527 0.000000
v 0.412976 1.204966 0.000000
v -0.412976 1.204966 -0.000000
v 0.000000 1.577004 -0.000000
v 0.212443 0.746628 -0.212443
v -0.334644 0.518082 -0.000000
v -0.269872 0.553314 0.269872
v 0.000000 0.518082 -0.334644
v -0.269872 0.553314 -0.269872
v 0.334644 0.518082 -0.000000
v 0.269872 0.553314 -0.269872
v 0.000000 0.518082 0.334644
v 0.269872 0.553314 0.269872
v -0.212443 0.746628 0.212443
v 0.271455 0.731594 -0.000000
v -0.212443 0.746628 -0.212443
v -0.331217 0.966545 0.150962
v -0.285064 1.343887 0.285064
v -0.217608 1.512000 -0.147405
v -0.150962 0.966545 -0.331217
v 0.147405 1.512000 -0.217608
v 0.217608 1.512000 0.147405
v 0.150962 0.966545 0.331217
v -0.147405 1.512000 0.217608
v -0.285064 1.343887 -0.285064
v 0.285064 1.343887 -0.285064
v 0.285064 1.343887 0.285064
v -0.171972 1.205551 0.389307
v 0.150962 0.966545 -0.331217
v -0.147405 1.512000 -0.217608
v 0.147405 1.512000 0.217608
v 0.000000 1.556291 0.164045
v 0.242351 0.643170 -0.242351
v 0.000000 1.354205 0.373825
v 0.000000 1.354205 -0.373825
v -0.331217 0.966545 -0.150962
v -0.217608 1.512000 0.147405
v 0.331217 0.966545 0.150962
v 0.217608 1.512000 -0.147405
v 0.389307 1.205551 -0.171972
v 0.000000 1.556291 -0.164045
v 0.000000 0.885010 0.294426
v 0.164045 1.556291 -0.000000
v -0.164045 1.556291 0.000000
v -0.242351 0.643170 0.242351
v 0.373825 1.354205 -0.000000
v -0.373825 1.354205 0.000000
v -0.303314 1.076721 -0.303314
v 0.303314 1.076721 -0.303314
v 0.303314 1.076721 0.303314
v -0.303314 1.076721 0.303314
v 0.000000 1.067033 -0.401687
v 0.000000 1.067033 0.401687
v -0.401687 1.067033 -0.000000
v 0.401687 1.067033 0.000000
v -0.318787 0.529572 0.176135
v -0.176135 0.529572 -0.318787
v 0.318787 0.529572 -0.176135
v 0.176135 0.529572 0.318787
v 0.176135 0.529572 -0.318787
v -0.176135 0.529572 0.318787
v -0.318787 0.529572 -0.176135
v 0.318787 0.529572 0.176135
v 0.000000 0.885010 -0.294426
v 0.310360 0.623837 -0.000000
v -0.242351 0.643170 -0.242351
v 0.230109 0.900950 -0.230109
v -0.294426 0.885010 -0.000000
v -0.230109 0.900950 0.230109
v 0.294426 0.885010 -0.000000
v 0.230109 0.900950 0.230109
v -0.230109 0.900950 -0.230109
v -0.119499 0.739111 -0.259653
v 0.119499 0.739111 0.259653
v -0.259653 0.739111 -0.119499
v 0.259653 0.739111 0.119499
v -0.119499 0.739111 0.259653
v -0.259653 0.739111 0.119499
v 0.119499 0.739111 -0.259653
v 0.160097 1.349790 -0.353686
v 0.353686 1.349790 0.160097
v -0.160097 1.349790 0.353686
v -0.159372 1.538203 0.159372
v -0.378843 1.071877 -0.169600
v 0.159372 1.538203 0.159372
v 0.139184 0.632883 -0.296472
v -0.160097 1.349790 -0.353686
v -0.296472 0.632883 0.139184
v 0.159372 1.538203 -0.159372
v 0.169600 1.071877 0.378843
v -0.159372 1.538203 -0.159372
v -0.139184 0.632883 0.296472
v 0.353686 1.349790 -0.160097
v -0.353686 1.349790 0.160097
v 0.296472 0.632883 0.139184
v -0.296472 0.632883 -0.139184
v 0.139184 0.632883 0.296472
v -0.139184 0.632883 -0.296472
v -0.129373 0.892980 -0.281486
v 0.129373 0.892980 0.281486
v -0.281486 0.892980 -0.129373
v 0.281486 0.892980 0.129373
v -0.129373 0.892980 0.281486
v -0.281486 0.892980 0.129373
v 0.129373 0.892980 -0.281486
v 0.281486 0.892980 -0.129373
v 0.000000 0.445891 -0.000000
v -0.115823 0.446417 -0.000000
v 0.000000 0.446417 -0.115823
v 0.112615 0.452885 0.112615
v 0.000000 0.446417 0.115823
v 0.112615 0.452885 -0.112615
v 0.115823 0.446417 -0.000000
v -0.112615 0.452885 -0.112615
v -0.112615 0.452885 0.112615
v 0.000000 0.767270 0.236121
v 0.000000 0.847187 0.240312
v 0.000000 0.767270 -0.236121
v 0.000000 0.847187 -0.240312
v 0.184713 0.780295 -0.184713
v 0.187889 0.860280 -0.187888
v -0.240312 0.847187 -0.000000
v -0.236121 0.767270 -0.000000
v -0.184713 0.780295 0.184713
v -0.187888 0.860280 0.187888
v 0.240313 0.847187 -0.000000
v 0.236121 0.767270 -0.000000
v 0.187889 0.860280 0.187888
v 0.184713 0.780295 0.184713
v -0.187888 0.860280 -0.187888
v -0.184713 0.780295 -0.184713
v -0.105645 0.853731 -0.229781
v -0.103893 0.773782 -0.225819
v 0.105645 0.853731 0.229781
v 0.103893 0.773782 0.225819
v -0.229781 0.853731 -0.105645
v -0.225819 0.773782 -0.103893
v 0.229782 0.853731 0.105645
v 0.225819 0.773782 0.103893
v -0.105645 0.853731 0.229781
v -0.103893 0.773782 0.225819
v -0.229781 0.853731 0.105645
v -0.225819 0.773781 0.103893
v 0.105645 0.853731 -0.229781
v 0.103893 0.773782 -0.225819
v 0.229782 0.853731 -0.105645
v 0.225819 0.773782 -0.103893
v -0.106642 0.836827 -0.240880
v -0.105866 0.787224 -0.239219
v -0.192358 0.840671 -0.192358
v -0.191015 0.791059 -0.191015
v -0.191015 0.791059 0.191015
v -0.192358 0.840671 0.192358
v -0.240880 0.836827 0.106642
v -0.239219 0.787224 0.105866
v 0.000000 0.783384 -0.253145
v 0.000000 0.832978 -0.254910
v 0.106642 0.836827 -0.240880
v 0.105866 0.787224 -0.239219
v 0.106642 0.836827 0.240880
v 0.105866 0.787224 0.239219
v 0.240880 0.836827 0.106642
v 0.239219 0.787224 0.105866
v 0.000000 0.783384 0.253145
v 0.000000 0.832978 0.254910
v 0.254910 0.832978 -0.000000
v 0.253145 0.783384 -0.000000
v 0.191015 0.791059 -0.191015
v 0.192358 0.840671 -0.192358
v 0.240880 0.836827 -0.106642
v 0.239219 0.787224 -0.105866
v 0.192358 0.840671 0.192358
v 0.191015 0.791059 0.191015
v -0.240880 0.836827 -0.106642
v -0.239219 0.787224 -0.105866
v -0.254910 0.832978 -0.000000
v -0.253145 0.783384 -0.000000
v -0.106642 0.836827 0.240880
v -0.105866 0.787224 0.239219
v -0.217130 0.506761 -0.217130
v 0.270990 0.483723 -0.000000
v 0.000000 0.483723 -0.270990
v -0.217130 0.506761 0.217130
v -0.138121 0.492096 0.257112
v 0.257112 0.492096 0.138121
v -0.138121 0.492096 -0.257112
v 0.138121 0.492096 -0.257112
v 0.000000 0.483723 0.270990
v 0.257112 0.492096 -0.138121
v 0.217130 0.506761 -0.217130
v 0.138121 0.492096 0.257112
v -0.257112 0.492096 -0.138121
v 0.217130 0.506761 0.217130
v -0.257112 0.492096 0.138121
v -0.270990 0.483723 -0.000000
v -0.015837 0.458251 -0.361515
v -0.171414 0.468401 -0.347509
v 0.203519 0.470885 0.335429
v 0.286316 0.491855 0.292223
v 0.286316 0.491855 -0.292223
v 0.203519 0.470885 -0.335429
v -0.286316 0.491855 0.292223
v -0.203519 0.470885 0.335429
v 0.305291 0.427903 0.015837
v 0.361515 0.458251 0.015837
v -0.347509 0.468401 -0.171414
v -0.361515 0.458251 -0.015837
v 0.347509 0.468401 0.171414
v -0.015837 0.427903 -0.305291
v -0.169941 0.437782 0.280952
v -0.137837 0.435298 -0.293032
v 0.239730 0.450736 -0.245637
v 0.169941 0.437782 0.280952
v -0.293032 0.435298 -0.137837
v 0.239730 0.450736 0.245637
v -0.239730 0.450736 0.245637
v 0.293032 0.435298 0.137837
v 0.169942 0.437782 -0.280952
v -0.305291 0.427903 -0.015837
v -0.015459 0.840062 -0.318503
v -0.123067 0.846691 -0.307739
v 0.015459 0.840062 0.318503
v 0.123067 0.846691 0.307739
v -0.318503 0.840062 -0.015459
v -0.307739 0.846691 -0.123067
v 0.318503 0.840062 0.015459
v 0.307739 0.846691 0.123067
v -0.255463 0.854256 0.234981
v -0.298196 0.847627 0.151191
v 0.234981 0.854256 -0.255463
v 0.151191 0.847627 -0.298197
v 0.131456 0.814981 -0.255190
v 0.199863 0.820428 -0.220345
v -0.220345 0.820428 0.199863
v -0.255190 0.814981 0.131455
v 0.273493 0.808601 0.015459
v 0.264733 0.814045 0.103331
v -0.273492 0.808601 -0.015459
v -0.264733 0.814045 -0.103331
v 0.103331 0.814045 0.264733
v 0.015459 0.808601 0.273492
v -0.103331 0.814045 -0.264733
v -0.015459 0.808601 -0.273492
v -0.296123 1.480829 0.000000
v -0.283579 1.468541 -0.153053
v -0.252296 1.438278 -0.252296
v 0.000000 1.480829 -0.296123
v 0.153053 1.468541 -0.283579
v 0.252296 1.438278 -0.252296
v 0.296123 1.480829 0.000000
v 0.283579 1.468541 0.153053
v 0.252296 1.438278 0.252296
v 0.000000 1.480829 0.296123
v -0.153053 1.468541 0.283579
v -0.252296 1.438278 0.252296
v -0.153053 1.468541 -0.283579
v 0.153053 1.468541 0.283579
v -0.283579 1.468541 0.153053
v 0.283579 1.468541 -0.153053
v 0.185560 1.522617 -0.308200
v 0.264811 1.498451 -0.283220
v -0.022296 1.539957 0.323895
v -0.144517 1.530144 0.313878
v -0.264811 1.498451 -0.283220
v -0.185560 1.522617 -0.308200
v -0.313878 1.530144 0.144517
v -0.323895 1.539957 0.022296
v 0.313878 1.530144 -0.144517
v 0.323895 1.539957 -0.022296
v 0.181050 1.557321 -0.255520
v 0.224166 1.546306 -0.242575
v -0.022296 1.573254 0.270705
v -0.140007 1.564848 0.261197
v -0.224166 1.546306 -0.242575
v -0.181050 1.557321 -0.255519
v -0.261197 1.564848 0.140007
v -0.270705 1.573254 0.022296
v 0.261197 1.564848 -0.140007
v 0.270705 1.573254 -0.022296
v 0.321209 0.967785 -0.170108
v 0.333566 0.965439 -0.129195
v 0.311173 0.976709 -0.144132
v 0.378588 1.205630 0.190774
v 0.392258 1.205478 0.150534
v 0.366815 1.204863 0.164348
v 0.190774 1.205630 -0.378588
v 0.150534 1.205478 -0.392258
v 0.164348 1.204863 -0.366815
v -0.392260 1.205478 -0.150515
v -0.378575 1.205630 -0.190797
v -0.366999 1.202523 -0.164436
v -0.129195 0.965439 0.333566
v -0.170108 0.967785 0.321209
v -0.144132 0.976709 0.311173
v 0.190797 1.205630 0.378575
v 0.150515 1.205478 0.392260
v 0.164436 1.202523 0.366999
v -0.150534 1.205478 -0.392258
v -0.190774 1.205630 -0.378588
v -0.164348 1.204863 -0.366815
v -0.392258 1.205478 0.150534
v -0.378588 1.205630 0.190774
v -0.366815 1.204863 0.164348
v -0.343280 1.348895 -0.179049
v -0.356394 1.350383 -0.138573
v -0.332322 1.342641 -0.152930
v -0.188442 1.072560 0.368200
v -0.147982 1.071260 0.381755
v -0.162220 1.078580 0.357386
v 0.381732 1.071265 0.148149
v 0.368206 1.072560 0.188432
v 0.356831 1.076392 0.162038
v 0.148149 1.071265 -0.381732
v 0.188432 1.072560 -0.368206
v 0.162038 1.076392 -0.356831
v -0.188432 1.072560 -0.368206
v -0.148149 1.071265 -0.381732
v -0.162038 1.076392 -0.356831
v 0.138573 1.350383 0.356394
v 0.179049 1.348895 0.343280
v 0.152930 1.342641 0.332322
v -0.368206 1.072560 0.188432
v -0.381733 1.071265 0.148149
v -0.356831 1.076392 0.162038
v 0.381755 1.071260 -0.147982
v 0.368200 1.072560 -0.188442
v 0.357386 1.078580 -0.162220
v -0.269934 0.732563 -0.015403
v -0.269934 0.732563 0.015403
v -0.256406 0.723488 -0.000000
v -0.015403 0.732562 0.269934
v 0.015403 0.732562 0.269934
v 0.000000 0.723487 0.256406
v 0.015403 0.732562 -0.269934
v -0.015403 0.732562 -0.269934
v 0.000000 0.723487 -0.256406
v 0.198693 0.745516 0.219427
v 0.219427 0.745516 0.198693
v 0.200376 0.737477 0.200376
v -0.308823 0.624838 0.015403
v -0.308823 0.624838 -0.015403
v -0.313816 0.608786 -0.000000
v -0.293638 0.619388 -0.000000
v 0.249501 0.641811 0.228723
v 0.228723 0.641811 0.249501
v 0.230081 0.634595 0.230081
v 0.015403 0.624838 0.308823
v -0.015403 0.624838 0.308823
v 0.000000 0.619388 0.293638
v -0.015403 0.624838 -0.308823
v 0.015403 0.624838 -0.308823
v 0.000000 0.575727 -0.321407
v 0.000000 0.619388 -0.293638
v 0.261173 0.738143 -0.104110
v 0.252665 0.740223 -0.133256
v 0.244262 0.730570 -0.115579
v 0.289304 0.634245 -0.152849
v 0.298007 0.631883 -0.123802
v 0.306455 0.586666 -0.155714
v 0.279898 0.626835 -0.134799
vt 0.895047 0.910719
vt 0.896551 0.915330
vt 0.903926 0.915437
vt 0.901929 0.887873
vt 0.900369 0.945845
vt 0.906827 0.971330
vt 0.910211 0.964884
vt 0.906666 0.944778
vt 0.937501 0.885809
vt 0.937501 0.915189
vt 0.917889 0.891435
vt 0.920219 0.886709
vt 0.918200 0.860695
vt 0.915237 0.864669
vt 0.902251 0.866039
vt 0.905794 0.850434
vt 0.959528 0.886986
vt 0.958137 0.915330
vt 0.971076 0.915437
vt 0.973073 0.887873
vt 0.937501 0.946976
vt 0.937501 0.973947
vt 0.954056 0.971330
vt 0.954818 0.946036
vt 0.964791 0.964884
vt 0.968336 0.944778
vt 0.890787 0.885809
vt 0.892830 0.915189
vt 0.895071 0.915298
vt 0.893258 0.886841
vt 0.980523 0.886986
vt 0.978452 0.915330
vt 0.971076 0.915437
vt 0.973073 0.887873
vt 0.977937 0.946976
vt 0.969532 0.973947
vt 0.968175 0.971330
vt 0.975759 0.946036
vt 0.964791 0.964884
vt 0.968336 0.944778
vt 0.937501 0.885809
vt 0.937501 0.915189
vt 0.953784 0.915298
vt 0.954803 0.886711
vt 0.937501 0.946976
vt 0.920184 0.946036
vt 0.918899 0.915313
vt 0.937501 0.973947
vt 0.920946 0.971330
vt 0.910211 0.964884
vt 0.906666 0.944778
vt 0.903926 0.915437
vt 0.975581 0.809737
vt 0.977120 0.808023
vt 0.975378 0.784529
vt 0.973750 0.787741
vt 0.965834 0.838500
vt 0.972933 0.833906
vt 0.972316 0.832813
vt 0.966774 0.834177
vt 0.974486 0.810240
vt 0.974568 0.800463
vt 0.937501 0.994543
vt 0.919757 0.989715
vt 0.920262 0.985499
vt 0.937501 0.989715
vt 0.912664 0.981886
vt 0.914023 0.979178
vt 0.915800 0.975861
vt 0.921477 0.979693
vt 0.937504 0.981886
vt 0.915473 0.886986
vt 0.901929 0.887873
vt 0.982981 0.862772
vt 0.984216 0.885809
vt 0.982056 0.886710
vt 0.980851 0.864405
vt 0.937501 0.862772
vt 0.920592 0.864170
vt 0.919675 0.848736
vt 0.937501 0.847039
vt 0.981579 0.882695
vt 0.972751 0.866039
vt 0.982172 0.915189
vt 0.979052 0.919774
vt 0.979931 0.915298
vt 0.937501 0.862772
vt 0.957259 0.864405
vt 0.957299 0.882695
vt 0.972751 0.866039
vt 0.955916 0.919774
vt 0.902251 0.866039
vt 0.915474 0.886986
vt 0.917743 0.864405
vt 0.892021 0.862772
vt 0.894151 0.864405
vt 0.897065 0.946976
vt 0.898951 0.946162
vt 0.917704 0.882695
vt 0.920200 0.886710
vt 0.921218 0.915298
vt 0.920184 0.946036
vt 0.916865 0.915330
vt 0.954699 0.950000
vt 0.956868 0.945845
vt 0.962339 0.981886
vt 0.955245 0.989715
vt 0.954740 0.985499
vt 0.961119 0.979693
vt 0.953431 0.979178
vt 0.959203 0.975861
vt 0.937501 0.835416
vt 0.953437 0.836958
vt 0.953967 0.832576
vt 0.939623 0.831181
vt 0.968565 0.812141
vt 0.955289 0.809950
vt 0.968943 0.794377
vt 0.957529 0.787741
vt 0.972139 0.836958
vt 0.973719 0.835416
vt 0.974905 0.830975
vt 0.973488 0.832370
vt 0.956297 0.910719
vt 0.953782 0.915298
vt 0.952490 0.946162
vt 0.954056 0.971330
vt 0.894480 0.886986
vt 0.894151 0.864405
vt 0.919086 0.919774
vt 0.920946 0.971330
vt 0.895950 0.919774
vt 0.896550 0.915330
vt 0.908228 0.834177
vt 0.901723 0.832576
vt 0.899612 0.809950
vt 0.906438 0.812141
vt 0.953967 0.832576
vt 0.939623 0.831181
vt 0.939470 0.808236
vt 0.955289 0.809950
vt 0.968624 0.809340
vt 0.966811 0.811851
vt 0.957529 0.787741
vt 0.901252 0.787741
vt 0.906060 0.794377
vt 0.959203 0.975861
vt 0.953526 0.979693
vt 0.954740 0.985499
vt 0.960980 0.979178
vt 0.937498 0.981886
vt 0.937501 0.989715
vt 0.957308 0.886841
vt 0.957259 0.864405
vt 0.958139 0.915330
vt 0.893423 0.882695
vt 0.892946 0.886710
vt 0.895072 0.915298
vt 0.899244 0.946036
vt 0.981400 0.891435
vt 0.980522 0.886986
vt 0.921571 0.979178
vt 0.920262 0.985499
vt 0.915800 0.975861
vt 0.913883 0.979693
vt 0.937501 0.835416
vt 0.921566 0.836958
vt 0.921035 0.832576
vt 0.935379 0.831181
vt 0.919714 0.809950
vt 0.917473 0.787741
vt 0.935533 0.808236
vt 0.937494 0.798077
vt 0.937501 0.784529
vt 0.975759 0.946036
vt 0.979612 0.915313
vt 0.968175 0.971330
vt 0.906827 0.971330
vt 0.905470 0.973947
vt 0.900432 0.950000
vt 0.899624 0.784529
vt 0.899624 0.784529
vt 0.901252 0.787741
vt 0.901252 0.787741
vt 0.973750 0.787741
vt 0.973750 0.787741
vt 0.975378 0.784529
vt 0.975378 0.784529
vt 0.957529 0.787741
vt 0.957529 0.787741
vt 0.937501 0.784529
vt 0.937501 0.784529
vt 0.937501 0.784529
vt 0.957529 0.787741
vt 0.957529 0.787741
vt 0.937501 0.784529
vt 0.901252 0.787741
vt 0.901252 0.787741
vt 0.906060 0.794377
vt 0.917473 0.787741
vt 0.906060 0.794377
vt 0.968943 0.794377
vt 0.973750 0.787741
vt 0.917473 0.787741
vt 0.973750 0.787741
vt 0.917473 0.787741
vt 0.917473 0.787741
vt 0.968943 0.794377
vt 0.973279 0.832576
vt 0.975390 0.809950
vt 0.898074 0.808236
vt 0.899612 0.809950
vt 0.901252 0.787741
vt 0.899624 0.784529
vt 0.937501 0.784529
vt 0.973750 0.787741
vt 0.902863 0.836958
vt 0.900462 0.832341
vt 0.900306 0.831181
vt 0.901723 0.832576
vt 0.908228 0.834177
vt 0.906438 0.812141
vt 0.906060 0.794377
vt 0.898073 0.808236
vt 0.898130 0.804680
vt 0.972139 0.836958
vt 0.966493 0.835469
vt 0.967736 0.833941
vt 0.953437 0.836958
vt 0.937501 0.832341
vt 0.937501 0.804680
vt 0.935533 0.808236
vt 0.969466 0.811851
vt 0.968943 0.794377
vt 0.921035 0.832576
vt 0.919714 0.809950
vt 0.921566 0.836958
vt 0.937501 0.832341
vt 0.935379 0.831181
vt 0.939470 0.808236
vt 0.917473 0.787741
vt 0.919675 0.848736
vt 0.905794 0.850434
vt 0.937501 0.847039
vt 0.964879 0.833941
vt 0.976808 0.554633
vt 0.969652 0.518828
vt 0.970749 0.526251
vt 0.979140 0.563903
vt 0.955328 0.848736
vt 0.969208 0.850434
vt 0.902863 0.836958
vt 0.909168 0.838500
vt 0.898715 0.848736
vt 0.896932 0.847039
vt 0.921110 0.843776
vt 0.908351 0.845347
vt 0.909168 0.838500
vt 0.976287 0.848736
vt 0.978070 0.847039
vt 0.953892 0.843776
vt 0.966651 0.845347
vt 0.965834 0.838500
vt 0.977498 0.609766
vt 0.979330 0.564957
vt 0.979330 0.564957
vt 0.977498 0.609766
vt 0.898715 0.848736
vt 0.896932 0.847039
vt 0.898715 0.848736
vt 0.919675 0.848736
vt 0.921110 0.843776
vt 0.908351 0.845347
vt 0.921110 0.843776
vt 0.955328 0.848736
vt 0.969208 0.850434
vt 0.976287 0.848736
vt 0.973150 0.843776
vt 0.966651 0.845347
vt 0.979541 0.864669
vt 0.901852 0.843776
vt 0.901852 0.843776
vt 0.898715 0.848736
vt 0.901852 0.843776
vt 0.901852 0.843776
vt 0.982059 0.886710
vt 0.979770 0.860695
vt 0.981158 0.864170
vt 0.901283 0.835416
vt 0.900306 0.831181
vt 0.974784 0.842206
vt 0.900218 0.842206
vt 0.973150 0.843776
vt 0.937501 0.842206
vt 0.953892 0.843776
vt 0.937501 0.842206
vt 0.937501 0.787243
vt 0.913609 0.787243
vt 0.961393 0.787243
vt 0.973150 0.843776
vt 0.976287 0.848736
vt 0.897501 0.569470
vt 0.904794 0.614281
vt 0.904016 0.600759
vt 0.895569 0.557813
vt 0.955584 0.554633
vt 0.937499 0.509847
vt 0.937499 0.520959
vt 0.955928 0.563903
vt 0.937499 0.564957
vt 0.955889 0.609766
vt 0.956063 0.598109
vt 0.937499 0.555159
vt 0.970205 0.573986
vt 0.955889 0.609766
vt 0.956063 0.598109
vt 0.970983 0.560463
vt 0.969652 0.559124
vt 0.955584 0.514337
vt 0.955928 0.523607
vt 0.970749 0.566547
vt 0.897501 0.569470
vt 0.895668 0.605253
vt 0.893127 0.595454
vt 0.895569 0.557813
vt 0.937499 0.550143
vt 0.955584 0.514337
vt 0.955928 0.523607
vt 0.937499 0.561255
vt 0.905346 0.559124
vt 0.919415 0.514337
vt 0.919071 0.523607
vt 0.904249 0.566547
vt 0.976808 0.554633
vt 0.978601 0.509847
vt 0.981565 0.520959
vt 0.979140 0.563903
vt 0.969652 0.559124
vt 0.976808 0.514337
vt 0.979140 0.523607
vt 0.970749 0.566547
vt 0.919110 0.569470
vt 0.904794 0.614281
vt 0.904016 0.600759
vt 0.918936 0.557813
vt 0.895668 0.564957
vt 0.897501 0.609766
vt 0.895569 0.598109
vt 0.893127 0.555159
vt 0.979429 0.598109
vt 0.981872 0.555159
vt 0.955584 0.554633
vt 0.969652 0.518828
vt 0.970749 0.526251
vt 0.955928 0.563903
vt 0.955889 0.569470
vt 0.937499 0.605253
vt 0.937499 0.595454
vt 0.956063 0.557813
vt 0.937499 0.561255
vt 0.919071 0.523607
vt 0.918936 0.557813
vt 0.937499 0.595454
vt 0.904794 0.573986
vt 0.897501 0.609766
vt 0.895569 0.598109
vt 0.904016 0.560463
vt 0.919071 0.563903
vt 0.904249 0.526251
vt 0.904016 0.560463
vt 0.918936 0.598109
vt 0.905346 0.559124
vt 0.898191 0.514337
vt 0.895859 0.523607
vt 0.904249 0.566547
vt 0.977498 0.569470
vt 0.970205 0.614281
vt 0.970983 0.600759
vt 0.979429 0.557813
vt 0.898191 0.554633
vt 0.896398 0.509847
vt 0.893434 0.520959
vt 0.895859 0.563903
vt 0.904794 0.573986
vt 0.919110 0.609766
vt 0.896398 0.550143
vt 0.898191 0.514337
vt 0.895859 0.523607
vt 0.893434 0.561255
vt 0.937499 0.564957
vt 0.919110 0.609766
vt 0.918936 0.598109
vt 0.937499 0.555159
vt 0.919415 0.554633
vt 0.937499 0.509847
vt 0.937499 0.520959
vt 0.919071 0.563903
vt 0.919415 0.554633
vt 0.905346 0.518828
vt 0.898191 0.554633
vt 0.905346 0.518828
vt 0.904249 0.526251
vt 0.895859 0.563903
vt 0.955889 0.569470
vt 0.970205 0.614281
vt 0.970983 0.600759
vt 0.956063 0.557813
vt 0.978601 0.550143
vt 0.976808 0.514337
vt 0.979140 0.523607
vt 0.981565 0.561255
vt 0.977498 0.569470
vt 0.979330 0.605253
vt 0.981872 0.595454
vt 0.979429 0.557813
vt 0.970205 0.573986
vt 0.977498 0.609766
vt 0.979429 0.598109
vt 0.970983 0.560463
vt 0.937499 0.550143
vt 0.919415 0.514337
vt 0.919110 0.569470
vt 0.937499 0.605253
vt 0.975378 0.784529
vt 0.975378 0.784529
vt 0.917473 0.787741
vt 0.917473 0.787741
vt 0.973750 0.787741
vt 0.973750 0.787741
vt 0.957529 0.787741
vt 0.957529 0.787741
vt 0.917473 0.787741
vt 0.917473 0.787741
vt 0.968943 0.794377
vt 0.968943 0.794377
vt 0.957529 0.787741
vt 0.957529 0.787741
vt 0.899624 0.784529
vt 0.901252 0.787741
vt 0.901252 0.787741
vt 0.899624 0.784529
vt 0.937501 0.784529
vt 0.937501 0.784529
vt 0.968943 0.794377
vt 0.968943 0.794377
vt 0.906060 0.794377
vt 0.906060 0.794377
vt 0.905794 0.850434
vt 0.908351 0.845347
vt 0.937501 0.847039
vt 0.937501 0.842206
vt 0.900218 0.842206
vt 0.978070 0.847039
vt 0.974784 0.842206
vt 0.955328 0.848736
vt 0.969208 0.850434
vt 0.966651 0.845347
vt 0.953892 0.843776
vt 0.955328 0.848736
vt 0.937501 0.847039
vt 0.937501 0.842206
vt 0.953892 0.843776
vt 0.919110 0.569470
vt 0.937499 0.605253
vt 0.955889 0.569470
vt 0.970205 0.614281
vt 0.955889 0.569470
vt 0.937499 0.605253
vt 0.904794 0.573986
vt 0.897501 0.609766
vt 0.895668 0.564957
vt 0.897501 0.609766
vt 0.968175 0.971330
vt 0.969532 0.973947
vt 0.920946 0.971330
vt 0.921571 0.979178
vt 0.912664 0.981886
vt 0.914023 0.979178
vt 0.953526 0.979693
vt 0.954056 0.971330
vt 0.920946 0.971330
vt 0.921477 0.979693
vt 0.959203 0.975861
vt 0.964791 0.964884
vt 0.937504 0.981886
vt 0.937501 0.973947
vt 0.915800 0.975861
vt 0.910211 0.964884
vt 0.905470 0.973947
vt 0.906827 0.971330
vt 0.960980 0.979178
vt 0.962339 0.981886
vt 0.979541 0.815936
vt 0.980818 0.815540
vt 0.979770 0.812417
vt 0.981990 0.814895
vt 0.978452 0.860783
vt 0.979590 0.860735
vt 0.979052 0.864717
vt 0.980729 0.860640
vt 0.958137 0.860783
vt 0.956147 0.860735
vt 0.955916 0.864717
vt 0.954107 0.860640
vt 0.895071 0.860754
vt 0.895400 0.860876
vt 0.895047 0.856701
vt 0.895736 0.861153
vt 0.920592 0.815494
vt 0.917798 0.815536
vt 0.918200 0.812417
vt 0.915283 0.815359
vt 0.958139 0.860783
vt 0.956138 0.860874
vt 0.956297 0.856701
vt 0.954183 0.861113
vt 0.921218 0.860754
vt 0.918947 0.860733
vt 0.919086 0.864717
vt 0.916627 0.860661
vt 0.895072 0.860754
vt 0.895381 0.860733
vt 0.895950 0.864717
vt 0.895668 0.860661
vt 0.900369 0.887796
vt 0.899279 0.888054
vt 0.900432 0.891474
vt 0.898234 0.888441
vt 0.915473 0.835692
vt 0.917657 0.835396
vt 0.917889 0.839630
vt 0.919951 0.834882
vt 0.982056 0.835448
vt 0.981753 0.835532
vt 0.981579 0.831893
vt 0.981452 0.835571
vt 0.954803 0.835448
vt 0.957256 0.835532
vt 0.957299 0.831893
vt 0.959521 0.835571
vt 0.915474 0.835692
vt 0.917646 0.835534
vt 0.917704 0.831893
vt 0.919634 0.835333
vt 0.952490 0.888077
vt 0.954769 0.888056
vt 0.954699 0.891474
vt 0.956977 0.888161
vt 0.894480 0.835692
vt 0.893281 0.835534
vt 0.893423 0.831893
vt 0.892147 0.835333
vt 0.982059 0.835447
vt 0.981742 0.835391
vt 0.981400 0.839630
vt 0.981423 0.835077
vt 0.898951 0.888077
vt 0.899244 0.887965
vt 0.896551 0.860783
vt 0.920219 0.835447
vt 0.917743 0.815702
vt 0.915237 0.815936
vt 0.980523 0.835692
vt 0.981744 0.835563
vt 0.979931 0.860754
vt 0.959528 0.835692
vt 0.957308 0.835563
vt 0.953784 0.860754
vt 0.920200 0.835448
vt 0.917695 0.835563
vt 0.916865 0.860783
vt 0.956868 0.887797
vt 0.954818 0.887965
vt 0.953782 0.860754
vt 0.892946 0.835448
vt 0.893258 0.835563
vt 0.896550 0.860783
vt 0.980522 0.835692
vt 0.980851 0.815702
vt 0.981158 0.815493
vt 0.900306 0.786291
vt 0.900114 0.786256
vt 0.900462 0.787317
vt 0.899958 0.786431
vt 0.935379 0.786291
vt 0.937489 0.786256
vt 0.937501 0.787317
vt 0.939492 0.786431
vt 0.939624 0.786291
vt 0.937513 0.786256
vt 0.937501 0.787317
vt 0.935510 0.786431
vt 0.964879 0.788733
vt 0.966657 0.789004
vt 0.966493 0.790086
vt 0.968205 0.789359
vt 0.898074 0.765978
vt 0.897899 0.765942
vt 0.898130 0.762830
vt 0.897739 0.766119
vt 0.969466 0.769179
vt 0.968611 0.769466
vt 0.968624 0.766955
vt 0.967792 0.769800
vt 0.939470 0.765978
vt 0.937507 0.765942
vt 0.937501 0.762830
vt 0.935470 0.766119
vt 0.935533 0.765978
vt 0.937495 0.765941
vt 0.937494 0.756985
vt 0.939532 0.766119
vt 0.973488 0.787343
vt 0.973272 0.787630
vt 0.972933 0.788702
vt 0.973055 0.788067
vt 0.974486 0.767752
vt 0.975361 0.767621
vt 0.974568 0.759097
vt 0.976228 0.767665
vt 0.898074 0.765978
vt 0.900097 0.786108
vt 0.900306 0.786291
vt 0.966811 0.769179
vt 0.966774 0.788943
vt 0.967736 0.788733
vt 0.939623 0.786291
vt 0.937501 0.786108
vt 0.935533 0.765978
vt 0.935379 0.786291
vt 0.937501 0.786108
vt 0.939470 0.765978
vt 0.975581 0.767307
vt 0.973279 0.787525
vt 0.972316 0.787735
vn -0.9118 -0.2663 -0.3125
vn -0.8671 0.0762 -0.4923
vn -0.7044 0.0870 -0.7044
vn -0.6845 -0.2500 -0.6848
vn -0.8198 0.3517 -0.4520
vn -0.6858 0.6801 -0.2591
vn -0.6080 0.5420 -0.5802
vn -0.6614 0.3555 -0.6604
vn -0.0000 -0.2643 0.9644
vn -0.0000 0.0851 0.9964
vn -0.3181 0.0949 0.9433
vn -0.1336 -0.2448 0.9603
vn -0.2394 -0.7171 0.6546
vn -0.4272 -0.5144 0.7436
vn -0.6081 -0.5106 0.6079
vn -0.5025 -0.6687 0.5480
vn 0.4780 -0.2613 -0.8386
vn 0.4915 0.0917 -0.8660
vn 0.7044 0.0871 -0.7045
vn 0.6846 -0.2496 -0.6848
vn 0.0000 0.3874 -0.9219
vn -0.0000 0.6993 -0.7148
vn 0.2157 0.6254 -0.7499
vn 0.2868 0.3769 -0.8807
vn 0.6068 0.5427 -0.5808
vn 0.6607 0.3561 -0.6608
vn -0.9645 -0.2641 -0.0001
vn -0.9964 0.0851 -0.0000
vn -0.9880 0.0761 -0.1346
vn 0.8386 -0.2613 0.4780
vn 0.8660 0.0917 0.4915
vn 0.7044 0.0870 0.7044
vn 0.6848 -0.2500 0.6845
vn 0.9219 0.3873 -0.0000
vn 0.7664 0.6413 0.0368
vn 0.6936 0.6716 0.2607
vn 0.8807 0.3769 0.2868
vn 0.5715 0.5874 0.5730
vn 0.6604 0.3555 0.6614
vn -0.0000 -0.2643 -0.9644
vn -0.0000 0.0851 -0.9964
vn 0.1343 0.0917 -0.9867
vn 0.1328 -0.2641 -0.9553
vn -0.0001 0.3875 0.9219
vn -0.2881 0.3712 0.8828
vn 0.0366 0.6414 0.7663
vn -0.3084 0.6031 0.7357
vn -0.5720 0.5879 0.5720
vn -0.6608 0.3561 0.6607
vn -0.7045 0.0871 0.7044
vn 0.9584 0.2756 -0.0746
vn 0.9594 0.2822 0.0001
vn 0.9557 0.2937 0.0177
vn 0.9211 0.2993 -0.2489
vn 0.4609 0.7584 -0.4609
vn 0.6292 0.7322 -0.2607
vn 0.7491 0.5707 -0.3364
vn 0.5801 0.5719 -0.5801
vn 0.8479 0.3549 -0.3938
vn 0.9242 0.2890 -0.2498
vn 0.0000 1.0000 -0.0000
vn -0.2864 0.9581 0.0000
vn -0.2748 0.9214 0.2748
vn 0.0000 0.9581 0.2864
vn -0.4767 0.8783 -0.0370
vn -0.4559 0.8445 0.2811
vn -0.4275 0.7966 0.4275
vn -0.2811 0.8445 0.4559
vn 0.0370 0.8783 0.4767
vn -0.4807 -0.2424 0.8427
vn -0.6848 -0.2496 0.6846
vn 0.8583 -0.5132 -0.0001
vn 0.9644 -0.2644 -0.0001
vn 0.9553 -0.2641 0.1328
vn 0.8094 -0.5165 0.2794
vn -0.0000 -0.5130 0.8584
vn -0.1218 -0.5071 0.8532
vn -0.0355 -0.6684 0.7430
vn 0.6080 -0.5110 0.6076
vn 0.9964 0.0851 -0.0000
vn 0.9867 0.0917 0.1343
vn 0.0000 -0.5130 -0.8584
vn 0.2794 -0.5165 -0.8094
vn 0.6079 -0.5106 -0.6081
vn -0.6076 -0.5110 -0.6080
vn -0.4780 -0.2613 -0.8386
vn -0.2794 -0.5165 -0.8094
vn -0.8585 -0.5129 -0.0001
vn -0.8120 -0.5118 -0.2804
vn -0.9219 0.3875 0.0001
vn -0.9127 0.3894 -0.1238
vn -0.1328 -0.2641 -0.9553
vn -0.1343 0.0917 -0.9867
vn -0.2868 0.3769 -0.8807
vn -0.4915 0.0917 -0.8660
vn 0.2591 0.6801 0.6858
vn 0.4520 0.3517 0.8198
vn 0.4767 0.8783 0.0370
vn 0.2864 0.9581 -0.0000
vn 0.2748 0.9214 0.2748
vn 0.4779 0.8459 0.2367
vn 0.2367 0.8459 0.4779
vn 0.4275 0.7966 0.4275
vn 0.0261 0.7038 -0.7099
vn 0.1403 0.7232 -0.6763
vn 0.2021 0.5417 -0.8159
vn 0.0493 0.5394 -0.8406
vn 0.6555 0.3760 -0.6549
vn 0.2283 0.3203 -0.9194
vn 0.5667 0.3860 -0.7279
vn 0.2819 0.3357 -0.8988
vn 0.7099 0.7038 -0.0261
vn 0.7102 0.7040 -0.0000
vn 0.8529 0.5222 -0.0000
vn 0.8431 0.5354 -0.0498
vn 0.3125 -0.2663 0.9118
vn 0.1346 0.0761 0.9880
vn 0.1238 0.3894 0.9127
vn -0.8386 -0.2613 0.4780
vn -0.8094 -0.5165 0.2794
vn -0.2157 0.6254 -0.7499
vn -0.8807 0.3769 0.2868
vn -0.8660 0.0917 0.4915
vn -0.5800 0.5720 0.5800
vn -0.8159 0.5417 0.2021
vn -0.9194 0.3203 0.2283
vn -0.6553 0.3756 0.6553
vn 0.2021 0.5418 0.8158
vn 0.0493 0.5394 0.8406
vn 0.0742 0.2795 0.9573
vn 0.2281 0.3199 0.9196
vn 0.3645 0.3735 0.8530
vn 0.3930 0.3546 0.8484
vn 0.2815 0.3349 0.8992
vn -0.9212 0.2994 0.2484
vn -0.5664 0.3854 0.7284
vn 0.4505 0.8042 -0.3876
vn 0.1855 0.8651 -0.4661
vn 0.2748 0.9214 -0.2748
vn 0.4559 0.8445 -0.2811
vn 0.0000 0.8702 -0.4926
vn 0.0000 0.9581 -0.2864
vn 0.2804 -0.5118 0.8120
vn 0.4923 0.0762 0.8671
vn -0.9553 -0.2641 0.1328
vn -0.9867 0.0917 0.1343
vn 0.9433 0.0949 -0.3181
vn 0.8427 -0.2424 -0.4807
vn -0.1855 0.8651 -0.4661
vn -0.2748 0.9214 -0.2748
vn -0.4505 0.8042 -0.3876
vn -0.4779 0.8459 -0.2367
vn -0.0261 0.7038 0.7099
vn -0.1403 0.7232 0.6763
vn -0.2021 0.5417 0.8159
vn -0.0493 0.5394 0.8406
vn -0.2283 0.3203 0.9194
vn -0.2819 0.3357 0.8988
vn -0.0746 0.2769 -0.9580
vn -0.0000 0.2238 -0.9746
vn -0.0177 0.2936 -0.9558
vn 0.8827 0.3712 -0.2881
vn 0.7357 0.6031 -0.3084
vn -0.7357 0.6031 0.3084
vn -0.7663 0.6414 -0.0366
vn -0.3258 -0.9447 0.0358
vn -0.1384 -0.9904 0.0000
vn -0.1417 -0.9797 0.1417
vn -0.3352 -0.9216 0.1958
vn 0.2666 -0.9336 0.2394
vn 0.1417 -0.9797 0.1417
vn 0.1384 -0.9904 0.0000
vn 0.3258 -0.9447 -0.0358
vn 0.1430 -0.9328 -0.3309
vn 0.1417 -0.9797 -0.1417
vn 0.0000 -0.9904 -0.1384
vn 0.0358 -0.9447 -0.3258
vn 0.0000 -0.9904 0.1384
vn 0.1430 -0.9328 0.3309
vn 0.0000 -0.9307 0.3659
vn -0.1417 -0.9797 -0.1417
vn -0.2666 -0.9336 -0.2394
vn -0.3128 -0.8969 -0.3128
vn -0.2876 -0.9099 0.2991
vn 0.2876 -0.9099 -0.2991
vn 0.3352 -0.9216 -0.1958
vn -0.1430 -0.9328 0.3309
vn -0.2394 -0.9336 -0.2666
vn 0.2876 -0.9099 0.2991
vn 0.8158 0.5418 0.2021
vn 0.9196 0.3198 0.2281
vn -0.9597 0.2707 -0.0755
vn -0.9194 0.3203 -0.2283
vn -0.9214 0.3417 -0.1852
vn -0.9558 0.2936 -0.0177
vn 0.0763 0.2301 0.9702
vn 0.9218 0.3408 0.1849
vn -0.6763 0.7232 0.1403
vn -0.7099 0.7038 0.0261
vn -0.8406 0.5394 0.0493
vn -0.8159 0.5417 -0.2021
vn -0.5800 0.5720 -0.5800
vn -0.6553 0.3756 -0.6553
vn -0.6569 0.3700 -0.6569
vn -0.9597 0.2707 0.0755
vn -0.9746 0.2238 0.0000
vn 0.6763 0.7231 0.1403
vn 0.6293 0.7322 0.2607
vn 0.7522 0.5654 0.3384
vn 0.1403 0.7231 0.6763
vn 0.0261 0.7038 0.7099
vn -0.0763 0.2301 0.9702
vn -0.0742 0.2795 0.9573
vn 0.8484 0.3546 0.3930
vn 0.8549 0.3472 0.3854
vn -0.2021 0.5417 -0.8159
vn -0.2283 0.3203 -0.9194
vn -0.1403 0.7232 -0.6763
vn -0.0261 0.7038 -0.7099
vn -0.0493 0.5394 -0.8406
vn 0.0746 0.2769 -0.9580
vn -0.1852 0.3417 -0.9214
vn -0.2749 -0.6756 -0.6841
vn -0.5012 -0.7054 -0.5012
vn 0.0356 -0.6684 -0.7430
vn 0.3384 0.5654 0.7522
vn 0.6730 -0.6932 -0.2581
vn 0.5255 -0.6691 -0.5255
vn 0.6621 -0.3511 -0.6621
vn 0.8758 -0.3777 -0.3006
vn 0.2749 -0.6756 0.6841
vn 0.5012 -0.7054 0.5012
vn -0.6763 0.7232 -0.1403
vn -0.4609 0.7584 -0.4609
vn -0.6841 -0.6756 -0.2749
vn -0.7430 -0.6684 0.0355
vn -0.3100 -0.8204 -0.4804
vn -0.3981 -0.8265 -0.3981
vn -0.4609 0.7584 0.4609
vn 0.6841 -0.6756 0.2749
vn 0.7430 -0.6684 -0.0355
vn 0.3100 -0.8204 0.4804
vn 0.3981 -0.8265 0.3981
vn 0.2607 0.7322 0.6293
vn -0.7510 -0.6594 -0.0340
vn -0.8717 0.4866 -0.0572
vn -0.7195 -0.6606 0.2144
vn -0.9372 -0.2597 0.2329
vn -0.3100 -0.8204 0.4804
vn -0.2006 -0.8225 0.5323
vn 0.2145 -0.6605 -0.7195
vn 0.5480 -0.6687 -0.5025
vn 0.6546 -0.7171 -0.2394
vn 0.5323 -0.8225 -0.2006
vn 0.4804 -0.8204 -0.3100
vn 0.7436 -0.5144 -0.4272
vn -0.5304 -0.2008 -0.8236
vn 0.2329 -0.2597 -0.9372
vn 0.9603 -0.2448 -0.1336
vn 0.8532 -0.5071 -0.1218
vn -0.7099 0.7038 -0.0261
vn -0.8406 0.5394 -0.0493
vn 0.5695 -0.8150 -0.1072
vn -0.5695 -0.8150 0.1072
vn 0.4804 -0.8204 0.3100
vn -0.1072 -0.8150 0.5695
vn -0.4804 -0.8204 -0.3100
vn 0.1072 -0.8150 -0.5695
vn -0.0000 -1.0000 0.0000
vn -0.2329 -0.2597 0.9372
vn -0.8119 0.5236 -0.2583
vn -0.6396 0.4263 -0.6396
vn -0.6929 0.1994 -0.6929
vn -0.9225 0.2573 -0.2877
vn 0.2581 -0.6932 -0.6730
vn 0.0000 -0.7210 -0.6929
vn -0.0000 -0.4038 -0.9148
vn 0.3006 -0.3777 -0.8758
vn 0.0000 0.6379 -0.7701
vn 0.2583 0.5236 -0.8119
vn 0.2877 0.2573 -0.9225
vn 0.0000 0.3058 -0.9521
vn 0.6396 0.4263 0.6396
vn 0.2583 0.5236 0.8119
vn 0.2877 0.2573 0.9225
vn 0.6929 0.1994 0.6929
vn -0.8119 0.5236 0.2583
vn -0.7701 0.6379 -0.0000
vn -0.9521 0.3058 -0.0000
vn -0.9225 0.2573 0.2877
vn 0.0000 -0.7210 0.6929
vn 0.2581 -0.6932 0.6730
vn 0.3006 -0.3777 0.8758
vn 0.0000 -0.4038 0.9148
vn -0.5255 -0.6691 0.5255
vn -0.2581 -0.6932 0.6730
vn -0.3006 -0.3777 0.8758
vn -0.6621 -0.3511 0.6621
vn 0.6730 -0.6932 0.2581
vn 0.6929 -0.7210 -0.0000
vn 0.9148 -0.4038 -0.0000
vn 0.8758 -0.3777 0.3006
vn 0.5255 -0.6691 0.5255
vn 0.6621 -0.3511 0.6621
vn -0.2583 0.5236 0.8119
vn -0.6396 0.4263 0.6396
vn -0.6929 0.1994 0.6929
vn -0.2877 0.2573 0.9225
vn 0.7701 0.6379 -0.0000
vn 0.8119 0.5236 0.2583
vn 0.9225 0.2573 0.2877
vn 0.9521 0.3058 -0.0000
vn -0.0000 0.6379 0.7701
vn -0.0000 0.3058 0.9521
vn -0.3006 -0.3777 -0.8758
vn -0.2877 0.2573 -0.9225
vn -0.6621 -0.3511 -0.6621
vn -0.5255 -0.6691 -0.5255
vn -0.6730 -0.6932 -0.2581
vn -0.8758 -0.3777 -0.3006
vn -0.6929 -0.7210 -0.0000
vn -0.9148 -0.4038 -0.0000
vn -0.2583 0.5236 -0.8119
vn -0.6730 -0.6932 0.2581
vn -0.8758 -0.3777 0.3006
vn -0.2581 -0.6932 -0.6730
vn 0.6396 0.4263 -0.6396
vn 0.6929 0.1994 -0.6929
vn 0.8119 0.5236 -0.2583
vn 0.9225 0.2573 -0.2877
vn 0.1118 -0.2071 -0.9719
vn 0.0000 -0.8804 0.4742
vn -0.1000 -0.8760 0.4718
vn 0.1000 -0.8760 -0.4718
vn -0.3425 -0.8643 -0.3684
vn -0.3555 -0.8644 -0.3555
vn 0.3425 -0.8643 -0.3684
vn 0.3978 -0.8783 -0.2653
vn 0.7782 -0.1937 0.5974
vn 0.1000 -0.8760 0.4718
vn -0.3920 -0.2523 0.8847
vn -0.7782 -0.1937 0.5974
vn -0.3978 -0.8783 0.2653
vn -0.4718 -0.8760 0.1000
vn 0.3425 -0.8643 0.3684
vn 0.4718 -0.8760 -0.1000
vn -0.8847 -0.2523 0.3920
vn 0.7291 -0.0531 0.6823
vn -0.3684 -0.8643 -0.3425
vn -0.3425 -0.8643 0.3684
vn 0.3684 -0.8643 -0.3425
vn -0.4718 -0.8760 -0.1000
vn -0.1000 -0.8760 -0.4718
vn 0.4718 -0.8760 0.1000
vn 0.3684 -0.8643 0.3425
vn -0.3684 -0.8643 0.3425
vn 0.3920 -0.2523 -0.8847
vn -0.3040 -0.5266 -0.7939
vn 0.8441 -0.5336 0.0525
vn 0.7291 -0.0531 -0.6823
vn 0.3040 -0.5266 -0.7939
vn 0.3421 0.4006 0.8500
vn -0.7782 -0.1937 -0.5974
vn -0.9055 0.4210 -0.0541
vn -0.1118 -0.2071 0.9719
vn 0.3421 0.4006 -0.8500
vn 0.0525 -0.5336 0.8441
vn -0.3040 -0.5266 0.7939
vn -0.8441 -0.5336 -0.0525
vn -0.0541 0.4210 -0.9055
vn 0.9055 0.4210 0.0541
vn -0.3421 0.4006 0.8500
vn -0.7291 -0.0531 -0.6823
vn 0.9719 -0.2071 -0.1118
vn -0.4804 -0.8204 0.3100
vn -0.1072 -0.8150 -0.5695
vn -0.5695 -0.8150 -0.1072
vn 0.5695 -0.8150 0.1072
vn 0.3100 -0.8204 -0.4804
vn 0.1072 -0.8150 0.5695
vn 0.0340 -0.6594 0.7510
vn 0.7893 -0.2273 0.5703
vn -0.0572 0.4866 -0.8717
vn 0.9564 -0.2393 -0.1673
vn -0.3009 -0.6550 0.6932
vn 0.9372 -0.2597 -0.2329
vn -0.7996 0.4728 0.3704
vn -0.8236 -0.2008 -0.5304
vn 0.5703 -0.2273 0.7893
vn -0.9564 -0.2393 0.1673
vn -0.0340 -0.6594 -0.7510
vn 0.8717 0.4866 0.0572
vn 0.0572 0.4866 0.8717
vn 0.3704 0.4728 -0.7996
vn 0.6932 -0.6550 -0.3009
vn 0.1673 -0.2393 -0.9564
vn 0.7510 -0.6594 0.0340
vn -0.1673 -0.2393 0.9564
vn 0.8988 -0.4367 -0.0386
vn 0.8690 0.3758 -0.3219
vn 0.7725 0.6348 -0.0171
vn -0.8690 0.3758 -0.3219
vn -0.9908 0.1352 0.0043
vn 0.3792 0.7764 -0.5034
vn -0.1071 0.8386 0.5341
vn -0.3792 0.7764 -0.5034
vn -0.5341 0.8386 0.1071
vn 0.5341 0.8386 -0.1071
vn 0.0171 0.6348 -0.7725
vn 0.7814 0.1489 0.6060
vn 0.1725 0.2756 0.9457
vn -0.0386 -0.4367 0.8988
vn -0.7725 0.6348 0.0171
vn -0.0043 0.1352 0.9908
vn 0.1298 -0.4744 -0.8707
vn 0.0542 0.6641 0.7457
vn -0.1725 0.2756 -0.9457
vn 0.0043 0.1352 -0.9908
vn -0.8988 -0.4367 0.0386
vn 0.9457 0.2756 0.1725
vn -0.0542 0.6641 0.7457
vn -0.7814 0.1489 0.6060
vn -0.1298 -0.4744 -0.8707
vn 0.8623 -0.2762 0.4245
vn 0.8636 -0.2727 0.4241
vn 0.8762 -0.2367 0.4198
vn 0.4092 -0.3184 -0.8551
vn 0.4102 -0.3169 -0.8552
vn 0.4202 -0.3000 -0.8564
vn 0.9137 -0.0004 -0.4065
vn 0.9136 0.0025 -0.4066
vn 0.9104 0.0705 -0.4076
vn 0.4772 0.0072 0.8788
vn 0.4772 0.0045 0.8788
vn 0.4747 0.0687 0.8774
vn -0.4065 -0.0004 -0.9137
vn -0.4066 0.0025 -0.9136
vn -0.4076 0.0705 -0.9104
vn 0.8788 0.0072 -0.4772
vn 0.8788 0.0045 -0.4772
vn 0.8774 0.0687 -0.4747
vn -0.4664 0.1350 -0.8742
vn -0.4668 0.1320 -0.8744
vn -0.4742 0.0777 -0.8770
vn -0.9021 0.1269 0.4124
vn -0.9015 0.1303 0.4126
vn -0.9107 0.0664 0.4077
vn -0.8552 -0.3169 0.4102
vn -0.8551 -0.3184 0.4092
vn -0.8564 -0.3000 0.4203
vn 0.4241 -0.2727 0.8636
vn 0.4245 -0.2762 0.8623
vn 0.4198 -0.2367 0.8762
vn -0.4126 0.1303 0.9015
vn -0.4124 0.1269 0.9021
vn -0.4077 0.0664 0.9107
vn 0.8744 0.1320 0.4668
vn 0.8742 0.1350 0.4664
vn 0.8770 0.0777 0.4742
vn -0.8788 0.0045 -0.4772
vn -0.8788 0.0072 -0.4772
vn -0.8774 0.0687 -0.4747
vn 0.4066 0.0025 -0.9136
vn 0.4065 -0.0004 -0.9137
vn 0.4076 0.0705 -0.9104
vn -0.4772 0.0045 0.8788
vn -0.4772 0.0072 0.8788
vn -0.4747 0.0687 0.8774
vn -0.9136 0.0025 -0.4066
vn -0.9137 -0.0004 -0.4065
vn -0.9104 0.0705 -0.4076
vn -0.8692 0.2542 0.4242
vn -0.8692 0.2541 0.4242
vn -0.8413 0.3261 0.4311
vn -0.4597 0.1814 -0.8693
vn -0.4597 0.1815 -0.8693
vn -0.4613 0.1777 -0.8693
vn 0.4209 -0.2538 0.8709
vn 0.4206 -0.2518 0.8716
vn 0.4116 -0.1924 0.8908
vn -0.8658 -0.2573 0.4292
vn -0.8648 -0.2651 0.4264
vn -0.8719 -0.1813 0.4549
vn 0.4644 -0.1203 0.8774
vn 0.4645 -0.1199 0.8774
vn 0.4475 -0.1924 0.8734
vn 0.9058 -0.1153 -0.4077
vn 0.9064 -0.1119 -0.4074
vn 0.8963 -0.1676 -0.4106
vn 0.8774 -0.1203 -0.4644
vn 0.8774 -0.1199 -0.4645
vn 0.8734 -0.1924 -0.4475
vn -0.4077 -0.1153 -0.9058
vn -0.4074 -0.1119 -0.9064
vn -0.4106 -0.1676 -0.8963
vn 0.4074 -0.1119 -0.9064
vn 0.4077 -0.1153 -0.9058
vn 0.4106 -0.1676 -0.8963
vn -0.8774 -0.1199 -0.4645
vn -0.8774 -0.1203 -0.4644
vn -0.8734 -0.1924 -0.4475
vn 0.8693 0.1815 0.4597
vn 0.8693 0.1814 0.4597
vn 0.8693 0.1777 0.4613
vn -0.4242 0.2541 0.8692
vn -0.4242 0.2542 0.8692
vn -0.4311 0.3261 0.8413
vn -0.9064 -0.1119 -0.4074
vn -0.9058 -0.1153 -0.4077
vn -0.8963 -0.1676 -0.4106
vn -0.4645 -0.1199 0.8774
vn -0.4644 -0.1203 0.8774
vn -0.4475 -0.1924 0.8734
vn 0.4264 -0.2651 -0.8648
vn 0.4292 -0.2573 -0.8658
vn 0.4549 -0.1813 -0.8719
vn 0.8716 -0.2518 0.4206
vn 0.8709 -0.2538 0.4209
vn 0.8909 -0.1924 0.4116
vn -0.6415 0.2612 0.7213
vn -0.6419 0.2603 0.7212
vn -0.6275 0.2907 0.7223
vn -0.6419 0.2603 -0.7212
vn -0.6415 0.2612 -0.7213
vn -0.6275 0.2907 -0.7223
vn 0.7213 0.2612 0.6415
vn 0.7212 0.2603 0.6419
vn 0.7223 0.2907 0.6275
vn -0.7212 0.2603 0.6419
vn -0.7213 0.2612 0.6415
vn -0.7223 0.2907 0.6275
vn -0.7213 0.2612 -0.6415
vn -0.7212 0.2603 -0.6419
vn -0.7223 0.2907 -0.6275
vn 0.7212 0.2603 -0.6419
vn 0.7213 0.2612 -0.6415
vn 0.7223 0.2907 -0.6275
vn 0.9545 0.2954 -0.0415
vn 0.9543 0.2958 -0.0416
vn 0.9440 0.3256 -0.0540
vn -0.0416 0.2958 0.9543
vn -0.0415 0.2954 0.9545
vn -0.0540 0.3256 0.9440
vn -0.5598 0.4393 -0.7026
vn -0.3682 0.7008 -0.6110
vn -0.5598 0.4393 0.7026
vn -0.3682 0.7008 0.6110
vn -0.0566 0.3325 0.9414
vn -0.0589 0.3381 0.9393
vn -0.0863 0.4037 0.9108
vn 0.9393 0.3381 -0.0589
vn 0.9414 0.3325 -0.0566
vn 0.9108 0.4037 -0.0863
vn -0.7213 0.2463 0.6473
vn -0.7214 0.2469 0.6470
vn -0.7230 0.2592 0.6404
vn 0.7214 0.2469 0.6470
vn 0.7213 0.2463 0.6473
vn 0.7230 0.2592 0.6404
vn 0.7195 0.2994 -0.6266
vn 0.7194 0.3022 -0.6253
vn 0.7147 0.3754 -0.5902
vn -0.7194 0.3022 -0.6253
vn -0.7195 0.2994 -0.6266
vn -0.7147 0.3754 -0.5902
vn 0.4131 0.3474 -0.8418
vn 0.4141 0.3454 -0.8421
vn 0.3898 0.3918 -0.8334
vn 0.8346 0.2044 0.5116
vn 0.8347 0.2041 0.5115
vn 0.8309 0.2159 0.5129
vn 0.8245 0.2254 0.5190
vn 0.8251 0.2241 0.5187
vn 0.8086 0.2597 0.5280
vn 0.3688 0.4527 -0.8118
vn 0.3784 0.4331 -0.8181
vn 0.2943 0.5872 -0.7541
usemtl avian_swordsman
s 1
f 105/1/1 311/2/2 10/3/3 69/4/4
f 325/5/5 266/6/6 267/7/7 46/8/8
f 74/9/9 17/10/10 49/11/11 329/12/12
f 124/13/13 314/14/14 1/15/15 90/16/16
f 335/17/17 307/18/18 11/19/19 70/20/20
f 56/21/21 268/22/22 269/23/23 101/24/24
f 101/24/24 269/23/23 270/25/25 47/26/26
f 75/27/27 24/28/28 310/29/29 105/30/1
f 332/31/30 304/32/31 12/33/32 71/34/33
f 67/35/34 271/36/35 272/37/36 102/38/37
f 102/38/37 272/37/36 273/39/38 48/40/39
f 73/41/40 18/42/41 308/43/42 334/44/43
f 17/10/10 55/45/44 103/46/45 49/47/11
f 55/45/44 274/48/46 275/49/47 103/46/45
f 103/46/45 275/49/47 276/50/48 39/51/49
f 49/47/11 103/46/45 39/51/49 9/52/50
f 379/53/51 86/54/52 31/55/53 79/56/54
f 141/57/55 168/58/56 376/59/57 26/60/58
f 378/61/59 380/62/60 79/56/54
f 380/62/60 379/53/51 79/56/54
f 25/63/61 65/64/62 104/65/63 53/66/64
f 65/64/62 20/67/65 58/68/66 104/65/63
f 104/65/63 58/68/66 2/69/67 45/70/68
f 53/66/64 104/65/63 45/70/68 16/71/69
f 314/14/14 328/72/70 72/73/71 1/15/15
f 328/72/70 49/47/11 9/52/50 72/73/71
f 21/74/72 76/75/73 331/76/74 59/77/75
f 15/78/76 313/79/77 124/80/13 63/81/78
f 59/82/75 332/31/30 71/34/33 5/83/79
f 23/84/80 67/35/34 102/85/37 305/86/81
f 304/32/31 102/38/37 48/40/39 12/33/32
f 13/87/82 73/41/40 334/44/43 50/88/83
f 50/89/83 335/17/17 70/20/20 7/90/84
f 18/42/41 56/21/21 101/91/24 308/43/42
f 307/18/18 101/24/24 47/26/26 11/19/19
f 3/92/85 69/4/4 337/93/86 41/94/87
f 19/95/88 75/27/27 105/30/1 57/96/89
f 24/28/28 68/97/90 326/98/91 310/29/29
f 311/2/2 325/5/5 46/8/8 10/3/3
f 57/96/89 105/30/1 69/4/4 3/92/85
f 41/99/87 338/100/92 73/41/40 13/87/82
f 319/101/93 108/102/94 56/21/21 18/42/41
f 69/4/4 10/3/3 320/103/95 337/93/86
f 48/40/39 273/39/38 278/104/96 341/105/97
f 22/106/98 64/107/99 106/108/100 43/109/101
f 64/107/99 25/63/61 53/66/64 106/108/100
f 106/108/100 53/66/64 16/71/69 52/110/102
f 43/109/101 106/108/100 52/110/102 6/111/103
f 139/112/104 166/113/105 100/114/106 355/115/107
f 100/114/106 26/60/58 54/116/108 107/117/109
f 107/117/109 54/116/108 32/118/110 81/119/111
f 168/120/112 148/121/113 36/122/114 375/123/115
f 111/124/116 317/125/117 17/10/10 74/9/9
f 340/126/118 278/127/96 274/48/46 55/45/44
f 1/15/15 72/73/71 343/128/119 38/129/120
f 10/3/3 46/8/8 108/130/94 320/103/95
f 338/100/92 319/101/93 18/42/41 73/41/40
f 46/8/8 267/7/7 277/131/121 108/102/94
f 108/102/94 277/131/121 268/22/22 56/21/21
f 9/52/50 39/51/49 115/132/122 323/133/123
f 35/134/124 99/135/125 109/136/126 66/137/127
f 95/138/128 353/139/129 368/140/130 118/141/131
f 34/142/132 366/143/133 118/141/131 80/144/134
f 66/137/127 109/136/126 77/145/135 28/146/136
f 8/147/137 42/148/138 110/149/139 60/150/140
f 42/148/138 14/151/141 62/152/142 110/149/139
f 110/149/139 62/152/142 25/63/61 64/107/99
f 60/150/140 110/149/139 64/107/99 22/106/98
f 5/83/79 71/34/33 111/153/116 44/154/143
f 12/33/32 48/40/39 341/105/97 316/155/144
f 317/125/117 340/126/118 55/45/44 17/10/10
f 44/154/143 111/153/116 74/9/9 15/78/76
f 38/156/120 344/157/145 75/27/27 19/95/88
f 322/158/146 115/159/122 68/97/90 24/28/28
f 72/73/71 9/52/50 323/133/123 343/128/119
f 70/20/20 11/19/19 61/160/147 347/161/148
f 14/151/141 51/162/149 112/163/150 62/152/142
f 51/162/149 4/164/151 40/165/152 112/163/150
f 112/163/150 40/165/152 20/67/65 65/64/62
f 62/152/142 112/163/150 65/64/62 25/63/61
f 137/166/153 162/167/154 98/168/155 352/169/156
f 98/168/155 35/134/124 66/137/127 113/170/157
f 113/170/157 66/137/127 28/146/136 82/171/158
f 371/172/159 373/173/160 29/174/161
f 11/19/19 47/26/26 114/175/162 61/176/147
f 47/26/26 270/25/25 280/177/163 114/175/162
f 114/175/162 280/177/163 271/36/35 67/35/34
f 61/176/147 114/175/162 67/35/34 23/84/80
f 344/157/145 322/158/146 24/28/28 75/27/27
f 39/51/49 276/50/48 279/178/164 115/159/122
f 115/159/122 279/178/164 265/179/165 68/97/90
f 68/97/90 265/179/165 266/180/6 326/98/91
f 216/181/166 129/182/167 136/183/168 215/184/169
f 206/185/170 131/186/171 134/187/172 202/188/173
f 208/189/174 133/190/175 130/191/176 203/192/177
f 132/193/178 131/194/171 212/195/179 209/196/180
f 135/197/181 213/198/182 201/199/183
f 215/184/169 136/200/168 204/201/184
f 211/202/185 210/203/186 133/190/175
f 136/200/168 132/193/178 209/196/180 205/204/187
f 136/200/168 205/204/187 204/201/184
f 134/187/172 133/205/175 210/203/186 202/188/173
f 208/189/174 211/202/185 133/190/175
f 207/206/188 135/197/181 201/199/183
f 130/191/176 135/207/181 207/206/188 203/192/177
f 214/208/189 212/195/179 131/186/171
f 36/122/114 97/209/190 116/210/191 86/54/52
f 362/211/192 117/212/193 83/213/194 27/214/195
f 118/141/131 368/140/130 33/215/196 80/144/134
f 86/54/52 116/210/191 84/216/197 31/55/53
f 164/217/198 144/218/199 350/219/200 99/135/125
f 96/220/201 37/221/202 87/222/203 117/212/193
f 117/212/193 87/222/203 30/223/204 83/213/194
f 361/224/205 363/225/206 27/214/195
f 160/226/207 150/227/208 359/228/209 97/209/190
f 156/229/210 137/230/211 353/139/129 95/138/128
f 33/231/212 369/232/213 113/170/157 82/171/158
f 116/210/191 365/233/214 34/234/215 84/216/197
f 37/221/202 94/235/216 119/236/217 87/222/203
f 154/237/218 139/238/219 356/239/220 94/235/216
f 372/240/221 107/117/109 81/119/111 29/174/161
f 87/222/203 119/236/217 78/241/222 30/223/204
f 3/92/85 41/94/87 120/242/223 93/243/224
f 41/94/87 13/87/82 85/244/225 120/242/223
f 358/245/226 95/138/128 118/141/131 366/143/133
f 168/246/227 141/247/228 189/248/229 192/249/230
f 5/83/79 44/154/143 121/250/231 92/251/232
f 44/154/143 15/78/76 63/81/78 121/250/231
f 94/235/216 356/239/220 371/172/159 119/236/217
f 158/252/233 152/253/234 37/221/202 96/220/201
f 19/95/88 57/96/89 122/254/235 89/255/236
f 57/96/89 3/92/85 93/243/224 122/254/235
f 93/243/224 120/242/223 153/256/237 151/257/238
f 145/258/239 164/217/198 99/135/125 35/134/124
f 21/74/72 59/77/75 123/259/240 91/260/241
f 59/77/75 5/83/79 92/251/232 123/259/240
f 92/251/232 121/250/231 155/261/242 149/262/243
f 150/263/244 156/229/210 95/138/128 358/245/226
f 71/34/33 12/33/32 316/155/144 111/153/116
f 15/78/76 74/9/9 329/12/12 313/79/77
f 159/264/245 147/265/245 257/266/245 258/267/245
f 89/255/246 122/254/246 246/268/246 245/269/246
f 1/15/15 38/129/120 125/270/247 90/16/16
f 38/129/120 19/95/88 89/255/236 125/270/247
f 153/256/248 120/242/248 242/271/248 263/272/248
f 124/80/13 90/16/16 146/273/249 161/274/250
f 13/87/82 50/88/83 126/275/251 85/244/225
f 50/88/83 7/90/84 88/276/252 126/275/251
f 88/276/252 127/277/253 167/278/254 142/279/255
f 26/60/58 376/59/57 378/61/59 54/116/108
f 76/75/73 23/84/80 305/86/81 331/76/74
f 7/90/84 70/20/20 347/161/148 301/280/256
f 125/270/257 163/281/257 256/282/257 250/283/257
f 122/254/258 157/284/258 260/285/258 246/268/258
f 7/90/84 301/280/256 127/277/253 88/276/252
f 346/286/259 61/176/147 23/84/80 76/75/73
f 127/287/253 302/288/260 21/74/72 91/260/241
f 144/289/261 158/252/233 96/220/201 349/290/262
f 148/121/113 160/226/207 97/209/190 36/122/114
f 355/115/107 100/114/106 107/117/109 372/240/221
f 166/113/105 141/57/55 26/60/58 100/114/106
f 375/123/115 36/122/114 86/54/52 379/53/51
f 99/135/125 350/219/200 361/224/205 109/136/126
f 352/169/156 98/168/155 113/170/157 369/232/213
f 162/167/154 145/258/239 35/134/124 98/168/155
f 127/277/253 91/260/241 147/291/263 167/278/254
f 97/209/190 359/228/209 365/233/214 116/210/191
f 125/270/247 89/255/236 143/292/264 163/281/264
f 152/253/234 154/237/218 94/235/216 37/221/202
f 123/259/240 92/251/232 149/262/243 159/293/265
f 63/81/78 124/80/13 161/274/250 138/294/266
f 122/254/235 93/243/224 151/257/238 157/284/267
f 85/244/225 126/275/251 165/295/268 140/296/268
f 206/185/170 214/208/189 131/186/171
f 136/183/168 129/182/167 128/297/269 132/193/178
f 135/207/181 130/191/176 128/298/269 129/182/167
f 133/205/175 134/187/172 128/297/269 130/191/176
f 128/299/269 134/187/172 131/194/171 132/193/178
f 123/259/270 159/293/270 258/300/270 248/301/270
f 157/302/271 151/303/272 171/304/273 195/305/274
f 166/306/275 139/307/276 177/308/277 180/309/278
f 140/310/279 165/311/280 179/312/281 178/313/282
f 149/314/283 155/315/284 181/316/285 193/317/286
f 141/318/228 166/319/275 180/320/278 189/321/229
f 163/322/287 143/323/288 197/324/289 175/325/290
f 137/326/291 156/327/292 182/328/293 185/329/294
f 145/330/295 162/331/296 200/332/297 173/333/298
f 160/334/299 148/335/300 188/336/301 184/337/302
f 150/338/303 160/339/299 184/340/302 194/341/304
f 161/342/305 146/343/306 174/344/307 199/345/308
f 143/346/288 157/347/271 195/348/274 197/349/289
f 147/265/309 159/264/310 183/350/311 187/351/312
f 156/352/292 150/353/303 194/354/304 182/355/293
f 155/356/284 138/357/313 186/358/314 181/359/285
f 177/360/277 170/361/315 169/362/316 178/363/282
f 146/364/306 163/365/287 175/366/290 174/367/307
f 170/368/315 172/369/317 171/370/273 169/371/316
f 152/372/318 158/373/319 196/374/320 172/375/317
f 185/329/294 182/328/293 181/359/285 186/358/314
f 159/376/310 149/377/283 193/378/286 183/379/311
f 182/355/293 194/354/304 193/317/286 181/316/285
f 158/380/319 144/381/321 198/382/322 196/383/320
f 172/375/317 196/374/320 195/305/274 171/304/273
f 151/384/272 153/385/323 169/371/316 171/370/273
f 196/383/320 198/382/322 197/349/289 195/348/274
f 144/386/321 164/387/324 176/388/325 198/389/322
f 194/341/304 184/340/302 183/379/311 193/378/286
f 138/390/313 161/391/305 199/392/308 186/393/314
f 184/337/302 188/336/301 187/351/312 183/350/311
f 162/394/296 137/395/291 185/396/294 200/397/297
f 173/333/298 200/332/297 199/345/308 174/344/307
f 154/398/326 152/399/318 172/369/317 170/368/315
f 200/397/297 185/396/294 186/393/314 199/392/308
f 164/400/324 145/401/295 173/402/298 176/403/325
f 198/389/322 176/388/325 175/325/290 197/324/289
f 165/404/280 142/405/327 190/406/328 179/407/281
f 176/403/325 173/402/298 174/367/307 175/366/290
f 148/408/300 168/409/227 192/410/230 188/411/301
f 189/321/229 180/320/278 179/407/281 190/406/328
f 167/412/329 147/413/309 187/414/312 191/415/330
f 180/309/278 177/308/277 178/313/282 179/312/281
f 142/416/327 167/417/329 191/418/330 190/419/328
f 188/411/301 192/410/230 191/415/330 187/414/312
f 139/420/276 154/421/326 170/361/315 177/360/277
f 192/249/230 189/248/229 190/419/328 191/418/330
f 153/422/323 140/423/279 178/363/282 169/362/316
f 202/188/331 31/55/331 226/424/331 225/425/331
f 33/215/332 82/171/333 205/204/187 209/196/180
f 29/174/334 81/119/334 208/189/174 203/192/177
f 83/213/335 30/223/336 201/199/183 213/198/182
f 32/118/337 79/56/338 210/203/186 211/202/185
f 205/204/339 82/171/339 224/426/339 231/427/339
f 80/144/340 33/215/332 209/196/180 212/195/179
f 84/216/341 206/185/341 238/428/341 229/429/341
f 80/144/342 212/195/342 234/430/342 219/431/342
f 77/145/343 27/214/344 216/181/166 215/184/169
f 84/216/345 34/234/345 214/208/189 206/185/170
f 79/56/338 31/55/346 202/188/173 210/203/186
f 207/206/347 78/241/347 218/432/347 232/433/347
f 32/118/348 211/202/348 233/434/348 221/435/348
f 30/223/336 78/241/349 207/206/188 201/199/183
f 28/146/350 77/145/343 215/184/169 204/201/184
f 222/436/351 221/435/351 233/434/351 239/437/351
f 228/438/352 227/439/352 235/440/352 240/441/352
f 218/432/353 217/442/353 230/443/353 232/433/353
f 226/424/354 229/429/354 238/428/354 225/425/354
f 220/444/355 219/431/355 234/430/355 236/445/355
f 224/426/356 223/446/356 237/447/356 231/427/356
f 83/213/357 213/198/357 235/440/357 227/439/357
f 212/195/358 214/208/358 236/445/358 234/430/358
f 213/198/359 216/181/359 240/441/359 235/440/359
f 214/208/360 34/234/360 220/444/360 236/445/360
f 204/201/361 205/204/361 231/427/361 237/447/361
f 34/234/132 80/144/134 219/431/362 220/444/362
f 208/189/363 81/119/363 222/436/363 239/437/363
f 27/214/195 83/213/194 227/439/364 228/438/364
f 216/181/365 27/214/365 228/438/365 240/441/365
f 81/119/111 32/118/110 221/435/366 222/436/366
f 203/192/367 207/206/367 232/433/367 230/443/367
f 211/202/368 208/189/368 239/437/368 233/434/368
f 206/185/369 202/188/369 225/425/369 238/428/369
f 78/241/222 29/174/161 217/442/370 218/432/370
f 31/55/53 84/216/197 229/429/371 226/424/371
f 82/171/158 28/146/136 223/446/372 224/426/372
f 28/146/373 204/201/373 237/447/373 223/446/373
f 29/174/374 203/192/374 230/443/374 217/442/374
f 249/448/375 250/283/375 256/282/375 255/449/375
f 242/271/376 241/450/376 264/451/376 263/272/376
f 245/269/377 246/268/377 260/285/377 259/452/377
f 247/453/378 248/301/378 258/300/378 257/454/378
f 252/455/379 251/456/379 254/457/379 253/458/379
f 244/459/380 243/460/380 262/461/380 261/462/380
f 140/423/381 153/422/381 263/463/381 264/464/381
f 88/276/382 142/279/382 254/457/382 251/456/382
f 120/242/383 85/244/383 241/450/383 242/271/383
f 85/244/384 140/296/384 264/451/384 241/450/384
f 142/405/385 165/404/385 253/465/385 254/466/385
f 155/261/386 121/250/386 244/459/386 261/462/386
f 90/16/387 125/270/387 250/283/387 249/448/387
f 165/295/388 126/275/388 252/455/388 253/458/388
f 146/273/389 90/16/389 249/448/389 255/449/389
f 63/81/390 138/294/390 262/461/390 243/460/390
f 138/357/391 155/356/391 261/467/391 262/468/391
f 91/260/392 123/259/392 248/301/392 247/453/392
f 121/250/393 63/81/393 243/460/393 244/459/393
f 126/275/394 88/276/394 251/456/394 252/455/394
f 163/365/395 146/364/395 255/469/395 256/470/395
f 147/291/396 91/260/396 247/453/396 257/454/396
f 157/347/397 143/346/397 259/471/397 260/472/397
f 143/292/398 89/255/398 245/269/398 259/452/398
f 20/67/65 40/165/152 266/6/6 265/179/165
f 40/165/152 4/164/151 267/7/7 266/6/6
f 14/151/141 42/148/138 269/23/23 268/22/22
f 271/36/399 280/177/399 289/473/399 290/474/399
f 22/106/98 43/109/101 272/37/36 271/36/35
f 43/109/101 6/111/103 273/39/38 272/37/36
f 51/162/400 277/131/400 286/475/400 296/476/400
f 45/70/68 2/69/67 276/50/48 275/49/47
f 58/68/401 20/67/401 298/477/401 297/478/401
f 51/162/149 14/151/141 268/22/22 277/131/121
f 6/111/103 52/110/102 278/127/96 273/39/38
f 52/110/102 16/71/69 274/48/46 278/127/96
f 2/69/67 58/68/66 279/178/164 276/50/48
f 269/23/402 42/148/402 291/479/402 281/480/402
f 8/147/137 60/150/140 280/177/163 270/25/25
f 45/70/403 275/49/403 284/481/403 294/482/403
f 291/479/404 292/483/404 282/484/404 281/480/404
f 293/485/405 294/482/405 284/481/405 283/486/405
f 295/487/406 296/476/406 286/475/406 285/488/406
f 297/478/407 298/477/407 288/489/407 287/490/407
f 299/491/408 300/492/408 290/474/408 289/473/408
f 16/71/409 45/70/409 294/482/409 293/485/409
f 8/147/410 270/25/410 282/484/410 292/483/410
f 22/106/411 271/36/411 290/474/411 300/492/411
f 275/49/412 274/48/412 283/486/412 284/481/412
f 60/150/413 22/106/413 300/492/413 299/491/413
f 279/178/414 58/68/414 297/478/414 287/490/414
f 270/25/415 269/23/415 281/480/415 282/484/415
f 4/164/416 51/162/416 296/476/416 295/487/416
f 20/67/417 265/179/417 288/489/417 298/477/417
f 280/177/418 60/150/418 299/491/418 289/473/418
f 265/179/419 279/178/419 287/490/419 288/489/419
f 274/48/420 16/71/420 293/485/420 283/486/420
f 42/148/421 8/147/421 292/483/421 291/479/421
f 267/7/422 4/164/422 295/487/422 285/488/422
f 277/131/423 267/7/423 285/488/423 286/475/423
f 301/493/424 303/494/425 127/495/426
f 303/494/427 302/496/428 127/495/429
f 304/497/430 306/498/431 102/499/432
f 306/498/433 305/500/434 102/499/435
f 307/501/436 309/502/437 101/503/438
f 309/502/439 308/504/440 101/503/441
f 310/505/442 312/506/443 105/507/444
f 312/506/445 311/508/446 105/507/447
f 313/509/448 315/510/449 124/511/450
f 315/510/451 314/512/452 124/511/453
f 316/513/454 318/514/455 111/515/456
f 318/514/457 317/516/458 111/515/459
f 319/517/460 321/518/461 108/519/462
f 321/518/463 320/520/464 108/519/465
f 322/521/466 324/522/467 115/523/468
f 324/522/469 323/524/470 115/523/471
f 325/525/472 327/526/473 266/527/474
f 327/526/475 326/528/476 266/527/477
f 328/529/478 330/530/479 49/531/480
f 330/530/481 329/532/482 49/531/483
f 331/533/484 333/534/485 59/535/486
f 333/534/487 332/536/488 59/535/489
f 334/537/490 336/538/491 50/539/492
f 336/538/493 335/540/494 50/539/495
f 337/541/496 339/542/497 41/543/498
f 339/542/499 338/544/500 41/543/501
f 340/545/502 342/546/503 278/547/504
f 342/546/505 341/548/506 278/547/507
f 343/549/508 345/550/509 38/551/510
f 345/550/511 344/552/512 38/551/513
f 346/553/514 348/554/515 61/555/516
f 348/554/517 347/556/518 61/555/519
f 310/505/442 326/557/476 327/558/475 312/506/443
f 312/506/445 327/558/473 325/525/472 311/559/446
f 313/509/448 329/560/482 330/530/481 315/561/449
f 315/561/451 330/530/479 328/529/478 314/562/452
f 304/497/430 332/563/488 333/564/487 306/498/431
f 306/498/433 333/564/485 331/533/484 305/565/434
f 307/501/436 335/566/494 336/567/493 309/502/437
f 309/502/439 336/567/491 334/537/490 308/568/440
f 319/517/460 338/569/500 339/570/499 321/518/461
f 321/518/463 339/570/497 337/541/496 320/571/464
f 316/513/454 341/572/506 342/573/505 318/514/455
f 318/514/457 342/573/503 340/545/502 317/574/458
f 322/521/466 344/575/512 345/576/511 324/522/467
f 324/522/469 345/576/509 343/549/508 323/577/470
f 301/493/424 347/578/518 348/554/517 303/579/425
f 303/579/427 348/554/515 346/553/514 302/580/428
f 302/288/260 346/286/259 76/75/73 21/74/72
f 349/581/520 351/582/521 144/583/522
f 351/582/523 350/584/524 144/583/525
f 352/585/526 354/586/527 137/587/528
f 354/586/529 353/588/530 137/587/531
f 355/589/532 357/590/533 139/591/534
f 357/590/535 356/592/536 139/591/537
f 358/593/538 360/594/539 150/595/540
f 360/594/541 359/596/542 150/595/543
f 361/597/544 364/598/544 363/599/545
f 364/598/546 362/600/546 363/599/547
f 365/601/548 367/602/549 34/603/550
f 367/602/551 366/604/552 34/603/553
f 368/605/554 370/606/555 33/607/556
f 370/606/557 369/608/558 33/607/559
f 371/609/560 374/610/561 373/611/562
f 374/610/563 372/612/564 373/611/565
f 375/613/566 377/614/567 168/615/568
f 377/614/569 376/616/570 168/615/571
f 378/617/572 381/618/573 380/619/574
f 381/618/575 379/620/576 380/619/577
f 349/581/520 362/621/546 364/598/546 351/622/521
f 351/622/523 364/598/544 361/597/544 350/623/524
f 358/593/538 366/624/552 367/602/551 360/625/539
f 360/625/541 367/602/549 365/601/548 359/626/542
f 368/605/554 353/627/530 354/628/529 370/606/555
f 370/606/557 354/628/527 352/585/526 369/629/558
f 371/609/560 356/630/536 357/631/535 374/610/561
f 374/610/563 357/631/533 355/589/532 372/632/564
f 375/613/566 379/633/576 381/618/575 377/634/567
f 377/634/569 381/618/573 378/617/572 376/635/570
f 349/290/262 96/220/201 117/212/193 362/211/192
f 54/116/108 378/61/59 79/56/54 32/118/110
f 373/173/160 372/240/221 29/174/161
f 119/236/217 371/172/159 29/174/161 78/241/222
f 363/225/206 362/211/192 27/214/195
f 109/136/126 361/224/205 27/214/195 77/145/135
f 135/197/181 129/182/167 216/181/166 213/198/182
