# Blender v3.4.1 OBJ File: 'March2026_AvianSwordsman_Assets_Export.blend'
# www.blender.org
mtllib Trainingdummy_Base.mtl
o Trainingdummy_Base
v -0.195000 0.000000 0.390000
v -0.390000 0.000000 0.195000
v -0.390000 0.000000 -0.195000
v -0.195000 0.000000 -0.390000
v 0.390000 0.000000 0.195000
v 0.195000 0.000000 0.390000
v 0.195000 0.000000 -0.390000
v 0.390000 0.000000 -0.195000
v -0.292500 0.130000 0.154614
v -0.390000 0.065000 0.195000
v -0.154614 0.130000 0.292500
v -0.195000 0.065000 0.390000
v -0.154614 0.130000 -0.292500
v -0.195000 0.065000 -0.390000
v -0.292500 0.130000 -0.154614
v -0.390000 0.065000 -0.195000
v 0.154614 0.130000 0.292500
v 0.195000 0.065000 0.390000
v 0.292500 0.130000 0.154614
v 0.390000 0.065000 0.195000
v 0.292500 0.130000 -0.154614
v 0.390000 0.065000 -0.195000
v 0.154614 0.130000 -0.292500
v 0.195000 0.065000 -0.390000
vt 0.664737 0.624999
vt 0.664737 0.582531
vt 0.641973 0.582531
vt 0.641973 0.624999
vt 0.733028 0.624999
vt 0.733028 0.582531
vt 0.710264 0.582531
vt 0.710264 0.624999
vt 0.710264 0.582531
vt 0.710264 0.624999
vt 0.664737 0.624999
vt 0.664737 0.582531
vt 0.669451 0.667468
vt 0.669451 0.667468
vt 0.653355 0.667468
vt 0.653355 0.667468
vt 0.733028 0.582531
vt 0.733028 0.624999
vt 0.641973 0.582531
vt 0.641973 0.624999
vt 0.669451 0.698718
vt 0.653355 0.698718
vt 0.641973 0.656249
vt 0.664737 0.656249
vt 0.653355 0.698718
vt 0.669451 0.698718
vt 0.664737 0.656249
vt 0.641973 0.656249
vt 0.705549 0.698718
vt 0.721646 0.698718
vt 0.733028 0.656249
vt 0.710264 0.656249
vt 0.721646 0.698718
vt 0.705549 0.698718
vt 0.710264 0.656249
vt 0.733028 0.656249
vt 0.705549 0.667468
vt 0.705549 0.667468
vt 0.721646 0.667468
vt 0.721646 0.667468
vn -0.7071 0.0000 -0.7071
vn 0.7071 0.0000 -0.7071
vn 0.0000 0.0000 1.0000
vn 0.0000 1.0000 0.0000
vn 0.7071 0.0000 0.7071
vn -1.0000 0.0000 0.0000
vn 0.0000 0.0000 -1.0000
vn 0.0000 -1.0000 0.0000
vn 1.0000 0.0000 0.0000
vn -0.3922 0.8321 0.3922
vn -0.3922 0.8321 -0.3922
vn 0.3922 0.8321 -0.3922
vn 0.3922 0.8321 0.3922
vn -0.5547 0.8321 0.0000
vn 0.0000 0.8321 0.5547
vn 0.5547 0.8321 0.0000
vn 0.0000 0.8321 -0.5547
vn -0.7071 0.0000 0.7071
usemtl avian_swordsman
s 1
f 14/1/1 4/2/1 3/3/1 16/4/1
f 22/5/2 8/6/2 7/7/2 24/8/2
f 6/9/3 18/10/3 12/11/3 1/12/3
f 11/13/4 13/14/4 15/15/4 9/16/4
f 18/10/5 6/9/5 5/17/5 20/18/5
f 2/19/6 10/20/6 16/4/6 3/3/6
f 4/2/7 14/1/7 24/8/7 7/7/7
f 3/3/8 4/2/8 1/12/8 2/19/8
f 8/6/9 22/5/9 20/18/9 5/17/9
f 7/7/8 8/6/8 5/17/8 6/9/8
f 11/21/10 9/22/10 10/23/10 12/24/10
f 15/25/11 13/26/11 14/27/11 16/28/11
f 23/29/12 21/30/12 22/31/12 24/32/12
f 19/33/13 17/34/13 18/35/13 20/36/13
f 9/22/14 15/25/14 16/28/14 10/23/14
f 17/34/15 11/21/15 12/24/15 18/35/15
f 20/36/16 22/31/16 21/30/16 19/33/16
f 24/32/17 14/27/17 13/26/17 23/29/17
f 1/12/18 12/11/18 10/20/18 2/19/18
f 4/2/8 7/7/8 6/9/8 1/12/8
f 23/37/4 13/14/4 11/13/4 17/38/4
f 21/39/4 23/37/4 17/38/4 19/40/4
