# Blender v3.4.1 OBJ File: 'March2026_AvianSwordsman_Assets_Export.blend'
# www.blender.org
mtllib Trainingdummy_Base_Trainingdummy_Post_Trainingdummy_Chest_Trainingdummy_ArmRight.mtl
o Trainingdummy_ArmRight
v -0.575277 1.025147 0.162988
v -0.283685 1.176334 0.149199
v -0.575277 1.025147 -0.162989
v -0.283685 1.176334 -0.149199
v -0.713041 1.320583 0.162988
v -0.409794 1.446774 0.149199
v -0.713041 1.320583 -0.162989
v -0.409793 1.446774 -0.149199
v -0.415314 1.074591 0.185781
v -0.415314 1.074591 -0.185781
v -0.572343 1.411340 -0.185781
v -0.572343 1.411340 0.185781
v -0.656206 1.167247 -0.195283
v -0.321323 1.323406 -0.174666
v -0.656206 1.167247 0.195283
v -0.321323 1.323406 0.174666
v -0.494445 1.242678 0.246180
v -0.494445 1.242678 -0.246180
v -0.573676 0.990260 -0.000000
v -0.247506 1.165105 0.000000
v -0.738737 1.344234 -0.000000
v -0.395140 1.481707 0.000000
v -0.598485 1.465793 -0.000000
v -0.390405 1.019563 -0.000000
v -0.264124 1.350078 0.000000
v -0.565412 1.209585 -0.000000
v -0.573545 0.999840 0.101885
v -0.333653 1.131362 0.168840
v -0.257757 1.168286 -0.090587
v -0.529891 1.006556 -0.199019
v -0.609371 1.076669 -0.186656
v -0.366808 1.402148 -0.167450
v -0.698109 1.367301 -0.199019
v -0.731314 1.338176 -0.101885
v -0.399292 1.471809 0.090587
v -0.698109 1.367301 0.199019
v -0.695488 1.261347 0.186656
v -0.290240 1.237948 0.167450
v -0.529891 1.006556 0.199019
v -0.333653 1.131362 -0.168840
v -0.476363 1.437404 -0.168840
v -0.476363 1.437404 0.168840
v -0.450570 1.149392 0.232404
v -0.592355 1.453451 0.103088
v -0.537704 1.336251 -0.232404
v -0.395918 1.032192 -0.103088
v -0.695488 1.261347 -0.186656
v -0.290240 1.237948 -0.167450
v -0.609371 1.076669 0.186656
v -0.366808 1.402148 0.167450
v -0.537704 1.336251 0.232404
v -0.450570 1.149392 -0.232404
v -0.617987 1.185069 -0.259651
v -0.617987 1.185069 0.259651
v -0.277257 1.343954 0.096836
v -0.398848 1.287255 0.220595
v -0.398848 1.287255 -0.220595
v -0.573545 0.999840 -0.101885
v -0.257757 1.168286 0.090587
v -0.731314 1.338176 0.101885
v -0.399292 1.471809 -0.090587
v -0.592355 1.453452 -0.103088
v -0.395918 1.032192 0.103088
v -0.277257 1.343954 -0.096836
v -0.610371 1.188621 -0.092645
v -0.318181 1.431718 0.000000
v -0.508254 0.949745 -0.000000
v -0.727720 1.420393 -0.000000
v -0.236332 1.256191 0.000000
v -0.649524 1.272585 -0.000000
v -0.492076 1.487182 0.000000
v -0.305621 1.087328 0.000000
v -0.313142 1.096624 -0.094957
v -0.441596 1.372095 -0.208992
v -0.489789 1.475446 0.094957
v -0.361335 1.199975 0.208992
v -0.642609 1.257449 0.076004
v -0.248960 1.253238 0.094176
v -0.568599 1.083823 0.246214
v -0.720254 1.409049 0.112632
v -0.663800 1.287982 -0.246214
v -0.512144 0.962757 -0.112632
v -0.568599 1.083823 -0.246214
v -0.663800 1.287982 0.246214
v -0.328560 1.423942 0.094176
v -0.578368 1.119683 0.076004
v -0.441596 1.372095 0.208992
v -0.361335 1.199975 -0.208992
v -0.578368 1.119683 -0.076004
v -0.328560 1.423942 -0.094175
v -0.512144 0.962757 0.112632
v -0.720254 1.409049 -0.112632
v -0.248960 1.253238 -0.094175
v -0.642609 1.257449 -0.076004
v -0.489789 1.475446 -0.094957
v -0.313142 1.096624 0.094957
v -0.616913 0.908473 0.017272
v -0.616807 0.916303 0.100540
v -0.715748 1.120425 -0.251135
v -0.677471 1.046398 -0.244084
v -0.776311 1.262815 0.234134
v -0.790657 1.311227 0.214791
v -0.620722 0.946798 -0.187311
v -0.619306 0.926116 -0.137372
v -0.823115 1.358733 0.100540
v -0.829182 1.363684 0.017272
v -0.820179 1.425927 0.017272
v -0.814076 1.416656 0.109324
v -0.583628 0.931604 -0.216758
v -0.569124 0.895808 -0.146156
v -0.684513 1.134990 -0.303741
v -0.644148 1.052244 -0.292760
v -0.778454 1.349408 0.244238
v -0.750413 1.284583 0.282810
v -0.563446 0.875361 0.017272
v -0.566625 0.885995 0.109324
v -0.916215 1.159662 0.077000
v -0.929192 1.126015 0.078000
v -0.905223 1.136089 0.103010
v -0.929192 1.126015 -0.078000
v -0.916215 1.159662 -0.077000
v -0.905223 1.136089 -0.103010
v -0.863264 0.984631 0.078000
v -0.829147 0.972944 0.077000
v -0.840140 0.996517 0.103010
v -0.863264 0.984631 -0.078000
v -0.840140 0.996517 -0.103010
v -0.829147 0.972944 -0.077000
v -0.425554 1.337905 0.083200
v -0.436546 1.361477 0.057191
v -0.436546 1.361477 -0.057190
v -0.425554 1.337905 -0.083200
v -0.377214 1.234240 -0.083200
v -0.366222 1.210668 -0.057190
v -0.366222 1.210668 0.057191
v -0.377214 1.234240 0.083200
v -0.244767 1.422208 0.083200
v -0.221207 1.433204 0.057200
v -0.255759 1.445780 0.057191
v -0.244767 1.422208 -0.083200
v -0.255759 1.445780 -0.057191
v -0.221207 1.433204 -0.057200
v -0.185435 1.294971 -0.057191
v -0.196427 1.318543 -0.083200
v -0.172859 1.329522 -0.057200
v -0.196427 1.318543 0.083200
v -0.185435 1.294971 0.057191
v -0.172859 1.329522 0.057200
v -0.610371 1.188621 0.092645
v -0.571218 1.104656 -0.000000
v -0.660619 1.165190 0.123064
v -0.671551 1.160092 0.159689
v -0.608610 1.053656 -0.000000
v -0.604063 1.015364 -0.000000
v -0.739038 1.304820 -0.000000
v -0.712628 1.276723 -0.000000
v -0.692401 1.260748 0.100037
v -0.715137 1.285704 0.132264
v -0.603343 1.045961 0.132264
v -0.607846 1.079419 0.100037
v -0.660619 1.165190 -0.123064
v -0.671551 1.160092 -0.159689
v -0.603343 1.045961 -0.132263
v -0.607846 1.079419 -0.100036
v -0.715137 1.285704 -0.132263
v -0.692401 1.260748 -0.100036
vt 0.941289 0.769121
vt 0.941222 0.775260
vt 0.920902 0.785693
vt 0.920328 0.780522
vt 0.904908 0.804206
vt 0.903329 0.800991
vt 0.921678 0.803588
vt 0.908902 0.812340
vt 0.941154 0.796037
vt 0.941289 0.878830
vt 0.941222 0.924772
vt 0.920902 0.921148
vt 0.920328 0.878830
vt 0.904908 0.919201
vt 0.903329 0.878830
vt 0.921678 0.954074
vt 0.908902 0.945321
vt 0.941154 0.961624
vt 0.941289 0.988540
vt 0.941222 0.982401
vt 0.920902 0.971967
vt 0.920328 0.977138
vt 0.904908 0.953455
vt 0.903329 0.956670
vt 0.921678 0.954074
vt 0.908902 0.945321
vt 0.941154 0.961624
vt 0.941289 0.878830
vt 0.941222 0.832889
vt 0.920902 0.836513
vt 0.920328 0.878830
vt 0.904908 0.838460
vt 0.903329 0.878830
vt 0.921678 0.803588
vt 0.908902 0.812340
vt 0.941154 0.796037
vt 0.984216 0.816330
vt 0.982887 0.796974
vt 0.981712 0.817422
vt 0.982887 0.818123
vt 0.981712 0.817422
vt 0.982526 0.823874
vt 0.981083 0.822748
vt 0.975977 0.780232
vt 0.973827 0.792734
vt 0.975977 0.825011
vt 0.977862 0.793529
vt 0.982526 0.796974
vt 0.981083 0.822748
vt 0.890787 0.878830
vt 0.893666 0.878830
vt 0.896188 0.836861
vt 0.893666 0.835675
vt 0.904908 0.804206
vt 0.968379 0.878830
vt 0.967987 0.828636
vt 0.967504 0.790138
vt 0.976958 0.878830
vt 0.968379 0.994543
vt 0.967987 0.988555
vt 0.967504 0.967523
vt 0.973827 0.792734
vt 0.973827 0.792734
vt 0.975977 0.780232
vt 0.975977 0.780232
vt 0.975977 0.977430
vt 0.973827 0.964927
vt 0.968379 0.878830
vt 0.967987 0.929025
vt 0.967504 0.967523
vt 0.976958 0.878830
vt 0.975977 0.932650
vt 0.973827 0.964927
vt 0.968379 0.763117
vt 0.967987 0.769105
vt 0.967504 0.790138
vt 0.976958 0.775674
vt 0.967504 0.790138
vt 0.967987 0.828636
vt 0.941222 0.832889
vt 0.975977 0.825011
vt 0.976958 0.981987
vt 0.976958 0.981987
vt 0.968379 0.994543
vt 0.967987 0.929025
vt 0.941222 0.924772
vt 0.975977 0.780232
vt 0.967987 0.769105
vt 0.967987 0.769105
vt 0.896188 0.920800
vt 0.893666 0.921986
vt 0.904908 0.919201
vt 0.981712 0.776526
vt 0.982887 0.775825
vt 0.982526 0.770074
vt 0.981083 0.771201
vt 0.980203 0.827239
vt 0.978847 0.860996
vt 0.920902 0.921148
vt 0.920902 0.836513
vt 0.904908 0.838460
vt 0.977863 0.860948
vt 0.975977 0.977430
vt 0.981712 0.776526
vt 0.982887 0.796974
vt 0.982526 0.796974
vt 0.981083 0.771201
vt 0.904908 0.953454
vt 0.896188 0.920800
vt 0.893666 0.878830
vt 0.975977 0.932650
vt 0.941222 0.775260
vt 0.967987 0.769105
vt 0.967987 0.988555
vt 0.941222 0.982401
vt 0.896188 0.836861
vt 0.980203 0.864828
vt 0.978847 0.861839
vt 0.920902 0.971967
vt 0.920902 0.785693
vt 0.975977 0.977430
vt 0.967987 0.988555
vt 0.975977 0.825011
vt 0.976958 0.878830
vt 0.968379 0.878830
vt 0.967987 0.828636
vt 0.973827 0.964927
vt 0.975977 0.932650
vt 0.967987 0.929025
vt 0.967504 0.967523
vt 0.976958 0.775674
vt 0.968379 0.763117
vt 0.907546 0.696207
vt 0.922158 0.696207
vt 0.922158 0.696207
vt 0.907546 0.696207
vt 0.907546 0.553793
vt 0.922158 0.553793
vt 0.922158 0.553793
vt 0.907546 0.553793
vt 0.922158 0.576053
vt 0.929515 0.576053
vt 0.929515 0.673947
vt 0.922158 0.673947
vt 0.907546 0.571983
vt 0.907546 0.678017
vt 0.907546 0.678017
vt 0.922158 0.673946
vt 0.922158 0.576053
vt 0.907546 0.571983
vt 0.929515 0.673947
vt 0.929515 0.576053
vt 0.929515 0.553793
vt 0.929515 0.553793
vt 0.906816 0.678405
vt 0.906816 0.571595
vt 0.906816 0.571595
vt 0.906816 0.678405
vt 0.929515 0.696207
vt 0.929515 0.696207
vt 0.930473 0.673955
vt 0.930474 0.576045
vt 0.930473 0.576045
vt 0.930473 0.673955
vt 0.977862 0.860948
vt 0.980203 0.789649
vt 0.978847 0.792639
vt 0.978847 0.861839
vt 0.980203 0.827239
vt 0.978847 0.860996
vt 0.977862 0.793529
vt 0.978847 0.792639
vt 0.978847 0.793481
vt 0.978847 0.793481
vn 0.5695 -0.8220 0.0000
vn 0.5549 -0.7738 -0.3054
vn 0.6856 -0.6685 -0.2882
vn 0.7154 -0.6987 -0.0000
vn 0.8922 -0.3539 -0.2806
vn 0.9288 -0.3706 0.0000
vn 0.5781 -0.4679 -0.6684
vn 0.7514 -0.2988 -0.5884
vn 0.4615 -0.5515 -0.6949
vn 0.1529 0.0713 -0.9857
vn 0.0303 0.3511 -0.9358
vn 0.1853 0.4044 -0.8956
vn 0.3201 0.1492 -0.9356
vn 0.4787 0.5328 -0.6978
vn 0.6210 0.2896 -0.7284
vn 0.0131 0.7437 -0.6684
vn 0.2541 0.7677 -0.5884
vn -0.1258 0.7080 -0.6949
vn -0.2637 0.9646 0.0000
vn -0.2361 0.9225 0.3054
vn -0.0714 0.9549 0.2882
vn -0.0753 0.9972 0.0000
vn 0.3024 0.9110 0.2806
vn 0.3132 0.9497 -0.0000
vn 0.0131 0.7437 0.6684
vn 0.2541 0.7677 0.5884
vn -0.1258 0.7080 0.6949
vn 0.1529 0.0713 0.9857
vn 0.2885 -0.2025 0.9358
vn 0.4289 -0.1180 0.8956
vn 0.3201 0.1492 0.9356
vn 0.7159 0.0242 0.6978
vn 0.6210 0.2896 0.7284
vn 0.5781 -0.4679 0.6684
vn 0.7514 -0.2988 0.5884
vn 0.4615 -0.5515 0.6949
vn -0.9063 -0.4226 0.0000
vn -0.6830 -0.3185 -0.6574
vn -0.4507 -0.7479 -0.4874
vn -0.4052 -0.9142 0.0000
vn -0.4507 -0.7479 0.4874
vn -0.4878 -0.8730 -0.0000
vn -0.6670 -0.6702 0.3255
vn -0.6709 -0.7121 0.2070
vn -0.6454 -0.6816 0.3450
vn -0.7365 -0.5349 0.4140
vn -0.8443 -0.5229 0.1170
vn -0.7350 -0.3427 -0.5850
vn -0.6670 -0.6702 -0.3255
vn 0.9063 0.4226 0.0000
vn 0.8528 0.3977 0.3384
vn 0.9448 0.0941 0.3140
vn 0.9959 0.0910 0.0000
vn 0.8922 -0.3539 0.2806
vn 0.0947 0.0442 0.9945
vn 0.2378 -0.2297 0.9438
vn 0.4175 -0.5785 0.7007
vn -0.8174 -0.3812 0.4320
vn -0.6787 -0.5178 0.5208
vn -0.7583 -0.3536 0.5477
vn -0.5853 -0.7083 0.3946
vn -0.1994 0.9794 0.0312
vn -0.1753 0.9537 0.2443
vn -0.0186 0.6727 0.7397
vn -0.8728 0.4418 0.2077
vn -0.9767 -0.0562 0.2070
vn -0.9601 -0.0455 0.2760
vn -0.9503 0.0918 0.2974
vn 0.2246 0.0703 -0.9719
vn -0.0231 0.3298 -0.9438
vn -0.1748 0.6917 -0.7007
vn -0.8464 -0.3635 -0.3892
vn -0.8832 -0.2204 -0.4140
vn -0.8329 -0.1871 -0.5208
vn -0.7897 -0.2799 -0.5459
vn -0.9369 -0.0563 -0.3450
vn -0.9188 0.0069 -0.3946
vn 0.6221 -0.7823 0.0312
vn 0.6112 -0.7118 -0.3460
vn 0.5550 -0.5574 -0.6175
vn -0.6699 -0.7419 -0.0283
vn -0.6654 -0.7356 -0.1271
vn -0.5252 -0.8472 -0.0800
vn -0.4158 0.4808 -0.7719
vn 0.3245 -0.1182 -0.9385
vn 0.2885 -0.2025 -0.9358
vn -0.6894 -0.6260 -0.3645
vn -0.7363 -0.5717 -0.3618
vn -0.6198 -0.6171 -0.4848
vn -0.1820 0.0263 -0.9829
vn 0.0832 0.4206 0.9034
vn 0.0303 0.3511 0.9358
vn -0.1391 0.0561 0.9887
vn 0.6794 0.6632 0.3140
vn 0.7098 0.7044 -0.0000
vn 0.4787 0.5328 0.6978
vn -0.8626 0.1355 -0.4874
vn -0.9608 0.2773 0.0000
vn -0.9823 0.1875 0.0000
vn -0.9421 -0.0801 -0.3255
vn -0.9060 -0.4225 -0.0269
vn -0.9433 -0.3107 -0.1170
vn 0.1853 0.4044 0.8956
vn 0.4289 -0.1180 -0.8956
vn 0.7159 0.0242 -0.6978
vn -0.9848 -0.0024 -0.1735
vn -0.8626 0.1355 0.4874
vn -0.6830 -0.3185 0.6574
vn -0.7350 -0.3427 0.5850
vn -0.9421 -0.0801 0.3255
vn 0.3024 0.9110 -0.2806
vn 0.6794 0.6632 -0.3140
vn 0.8528 0.3977 -0.3384
vn -0.8820 -0.2711 0.3854
vn -0.7897 -0.2799 0.5459
vn 0.6179 -0.7474 0.2443
vn 0.5549 -0.7738 0.3054
vn -0.5406 -0.7870 0.2974
vn 0.7871 -0.4697 -0.3998
vn -0.2915 0.9054 -0.3086
vn -0.2361 0.9225 -0.3054
vn -0.9759 0.1195 -0.1824
vn 0.9448 0.0941 -0.3140
vn -0.9174 -0.3981 -0.0000
vn -0.9433 -0.3107 0.1170
vn -0.9989 -0.0363 -0.0283
vn -0.0714 0.9549 -0.2882
vn 0.6856 -0.6685 0.2882
vn -0.9866 0.1423 -0.0800
vn -0.9866 0.1423 0.0800
vn -0.5406 -0.7870 -0.2974
vn -0.7221 -0.4250 -0.5459
vn -0.8711 -0.0781 0.4848
vn -0.5252 -0.8472 0.0800
vn -0.5701 -0.2194 0.7917
vn -0.0464 -0.1427 0.9887
vn -0.8869 0.4600 -0.0421
vn 0.4836 0.1208 -0.8669
vn -0.4836 0.6262 -0.6115
vn 0.8099 -0.5789 0.0948
vn 0.2976 0.5800 0.7583
vn -0.0771 -0.3932 0.9162
vn -0.5549 0.8258 -0.1008
vn 0.3250 -0.9393 0.1097
vn -0.4599 -0.4436 -0.7692
vn -0.2177 -0.9751 -0.0421
vn 0.1733 -0.9301 0.3238
vn 0.0771 0.9925 0.0948
vn -0.0968 -0.1564 -0.9829
vn -0.3878 0.9217 0.0000
vn -0.4051 0.9143 0.0000
vn 0.4568 -0.8896 -0.0000
vn 0.4400 -0.8980 -0.0000
vn 0.0175 0.0081 0.9998
vn 0.0000 -0.0000 1.0000
vn 0.0345 0.0161 0.9993
vn 0.0345 0.0161 -0.9993
vn 0.0175 0.0081 -0.9998
vn -0.0000 0.0000 -1.0000
vn 0.4226 -0.9063 0.0000
vn -0.4226 0.9063 0.0000
vn -0.7459 0.3053 0.5919
vn -0.7459 0.3053 -0.5919
vn -0.2456 -0.7677 0.5919
vn -0.2456 -0.7677 -0.5919
vn 0.2791 0.7673 0.5774
vn 0.2791 0.7673 -0.5774
vn 0.7672 -0.2794 -0.5774
vn 0.7672 -0.2794 0.5774
vn -0.9330 0.3599 0.0000
vn -0.2743 0.6520 -0.7069
vn -0.2496 0.6627 -0.7061
vn -0.6285 -0.2931 -0.7204
vn 0.3231 -0.6293 -0.7069
vn 0.3472 -0.6172 -0.7061
vn -0.3241 -0.9460 0.0000
vn 0.3231 -0.6293 0.7069
vn 0.3472 -0.6172 0.7061
vn -0.6285 -0.2931 0.7204
vn -0.2496 0.6627 0.7061
vn -0.2743 0.6520 0.7068
vn 0.6409 0.2988 0.7071
vn 0.9397 -0.3420 -0.0000
vn 0.6409 0.2988 -0.7071
vn 0.3420 0.9397 -0.0000
vn -0.2988 0.6409 0.7071
vn -0.2988 0.6409 -0.7071
vn 0.2988 -0.6409 0.7071
vn 0.2988 -0.6409 -0.7071
vn -0.8946 -0.4469 -0.0000
vn -0.8444 -0.5229 -0.1170
vn -0.9060 -0.4225 0.0269
usemtl avian_swordsman
s 1
f 24/1/1 46/2/2 73/3/3 72/4/4
f 72/4/4 73/3/3 29/5/5 20/6/6
f 73/3/3 40/7/7 4/8/8 29/5/5
f 46/2/2 10/9/9 40/7/7 73/3/3
f 18/10/10 45/11/11 74/12/12 57/13/13
f 57/13/13 74/12/12 32/14/14 14/15/15
f 74/12/12 41/16/16 8/17/17 32/14/14
f 45/11/11 11/18/18 41/16/16 74/12/12
f 23/19/19 44/20/20 75/21/21 71/22/22
f 71/22/22 75/21/21 35/23/23 22/24/24
f 75/21/21 42/25/25 6/26/26 35/23/23
f 44/20/20 12/27/27 42/25/25 75/21/21
f 17/28/28 43/29/29 76/30/30 56/31/31
f 56/31/31 76/30/30 38/32/32 16/33/33
f 76/30/30 28/34/34 2/35/35 38/32/32
f 43/29/29 9/36/36 28/34/34 76/30/30
f 26/37/37 149/38/38 77/39/39 70/40/40
f 94/41/41 70/40/40 156/42/42 166/43/43
f 27/44/44 1/45/45 49/46/46 159/47/47
f 77/39/39 149/38/38 151/48/48 157/49/49
f 25/50/50 55/51/51 78/52/52 69/53/53
f 69/53/53 78/52/52 59/54/54 20/6/6
f 78/52/52 38/32/32 2/35/35 59/54/54
f 55/51/51 16/33/33 38/32/32 78/52/52
f 54/55/55 79/56/56 43/29/29 17/28/28
f 79/56/56 39/57/57 9/36/36 43/29/29
f 15/58/58 49/46/46 79/56/59 54/55/60
f 49/46/46 1/45/45 39/57/61 79/56/59
f 68/59/62 80/60/63 44/20/20 23/19/19
f 80/60/63 36/61/64 12/27/27 44/20/20
f 3/62/65 103/63/65 104/64/65 58/65/65
f 60/66/66 5/67/67 36/61/68 80/60/68
f 53/68/69 81/69/70 45/11/11 18/10/10
f 81/69/70 33/70/71 11/18/18 45/11/11
f 13/71/72 47/72/73 81/69/74 53/68/75
f 47/72/73 7/73/76 33/70/77 81/69/74
f 67/74/78 82/75/79 46/2/2 24/1/1
f 82/75/79 30/76/80 10/9/9 46/2/2
f 19/77/81 58/65/82 82/75/83 67/74/83
f 30/76/84 109/78/84 103/63/84 3/62/84
f 30/76/80 83/79/85 52/80/86 10/9/9
f 83/79/85 53/68/69 18/10/10 52/80/86
f 3/62/87 31/81/88 83/79/89 30/76/89
f 21/82/90 106/83/90 107/84/90 68/59/90
f 36/61/64 84/85/91 51/86/92 12/27/27
f 84/85/91 54/55/55 17/28/28 51/86/92
f 27/44/93 98/87/93 116/88/93 91/89/93
f 22/24/24 35/23/23 85/90/94 66/91/95
f 66/91/95 85/90/94 55/51/51 25/50/50
f 85/90/94 50/92/96 16/33/33 55/51/51
f 35/23/23 6/26/26 50/92/96 85/90/94
f 86/93/97 150/94/98 153/95/99 160/96/100
f 150/94/98 86/93/97 149/38/38 26/37/37
f 149/38/38 86/93/97 160/96/100 151/48/48
f 13/71/72 162/97/101 165/98/102 47/72/73
f 12/27/27 51/86/92 87/99/103 42/25/25
f 42/25/25 87/99/103 50/92/96 6/26/26
f 87/99/103 56/31/31 16/33/33 50/92/96
f 51/86/92 17/28/28 56/31/31 87/99/103
f 10/9/9 52/80/86 88/100/104 40/7/7
f 40/7/7 88/100/104 48/101/105 4/8/8
f 88/100/104 57/13/13 14/15/15 48/101/105
f 52/80/86 18/10/10 57/13/13 88/100/104
f 47/72/73 165/102/102 34/103/106 7/73/76
f 89/104/107 65/105/108 161/106/109 164/107/110
f 89/104/107 150/94/98 26/37/37 65/105/108
f 150/94/98 89/104/107 164/107/110 153/95/99
f 8/17/17 61/108/111 90/109/112 32/14/14
f 32/14/14 90/109/112 64/110/113 14/15/15
f 90/109/112 66/91/95 25/50/50 64/110/113
f 61/108/111 22/24/24 66/91/95 90/109/112
f 37/111/114 15/58/58 54/55/60 84/85/115
f 39/57/57 91/89/116 63/112/117 9/36/36
f 91/89/116 67/74/78 24/1/1 63/112/117
f 1/45/45 27/44/44 91/89/118 39/57/61
f 82/75/79 110/113/119 109/78/119 30/76/80
f 33/70/71 92/114/120 62/115/121 11/18/18
f 92/114/120 68/59/62 23/19/19 62/115/121
f 7/73/76 34/103/106 92/114/122 33/70/77
f 14/15/15 64/110/113 93/116/123 48/101/105
f 48/101/105 93/116/123 29/5/5 4/8/8
f 93/116/123 69/53/53 20/6/6 29/5/5
f 64/110/113 25/50/50 69/53/53 93/116/123
f 65/105/108 94/41/41 166/43/43 161/106/109
f 155/117/124 158/118/125 60/66/66 21/82/126
f 65/105/108 26/37/37 70/40/40 94/41/41
f 11/18/18 62/115/121 95/119/127 41/16/16
f 41/16/16 95/119/127 61/108/111 8/17/17
f 95/119/127 71/22/22 22/24/24 61/108/111
f 62/115/121 23/19/19 71/22/22 95/119/127
f 9/36/36 63/112/117 96/120/128 28/34/34
f 28/34/34 96/120/128 59/54/54 2/35/35
f 96/120/128 72/4/4 20/6/6 59/54/54
f 63/112/117 24/1/1 72/4/4 96/120/128
f 34/103/106 21/82/126 68/59/129 92/114/122
f 106/83/130 105/121/130 108/122/130 107/84/130
f 104/64/131 103/63/131 109/78/131 110/113/131
f 100/123/132 99/124/132 111/125/132 112/126/132
f 102/127/133 101/128/133 114/129/133 113/130/133
f 98/87/134 97/131/134 115/132/134 116/88/134
f 13/71/135 99/124/135 100/123/135 31/81/135
f 80/60/136 108/122/136 105/121/136 60/66/136
f 19/77/137 97/131/137 98/87/137 27/44/137
f 83/79/85 112/126/138 111/125/138 53/68/69
f 5/67/139 102/127/139 113/130/139 36/61/139
f 91/89/116 116/88/140 115/132/140 67/74/78
f 36/61/64 113/130/141 114/129/141 84/85/91
f 58/65/142 104/64/142 110/113/142 82/75/142
f 53/68/143 111/125/143 99/124/143 13/71/143
f 31/81/144 100/123/144 112/126/144 83/79/144
f 37/111/145 101/128/145 102/127/145 5/67/145
f 60/66/146 105/121/146 106/83/146 21/82/146
f 84/85/147 114/129/147 101/128/147 37/111/147
f 68/59/62 107/84/148 108/122/148 80/60/63
f 67/74/149 115/132/149 97/131/149 19/77/149
f 117/133/150 130/134/151 131/135/151 121/136/150
f 128/137/152 134/138/153 135/139/153 124/140/152
f 136/141/154 146/142/155 137/143/155 129/144/154
f 125/145/156 136/141/154 129/144/154 119/146/156
f 122/147/157 132/148/158 133/149/158 127/150/157
f 132/148/158 140/151/159 144/152/159 133/149/158
f 134/138/153 143/153/160 147/154/160 135/139/153
f 120/155/37 126/156/37 123/157/37 118/158/37
f 130/134/151 139/159/161 141/160/161 131/135/151
f 138/161/50 148/162/50 145/163/50 142/164/50
f 117/133/162 118/158/162 119/146/162
f 120/155/163 121/136/163 122/147/163
f 123/157/164 124/140/164 125/145/164
f 126/156/165 127/150/165 128/137/165
f 137/143/166 138/161/166 139/159/166
f 140/151/167 141/160/167 142/164/167
f 143/153/168 144/152/168 145/163/168
f 146/142/169 147/154/169 148/162/169
f 120/155/170 118/158/170 117/133/170 121/136/170
f 132/148/171 122/147/172 121/136/172 131/135/171
f 126/156/173 120/155/173 122/147/173 127/150/173
f 134/138/174 128/137/175 127/150/175 133/149/174
f 123/157/176 126/156/176 128/137/176 124/140/176
f 136/141/177 125/145/178 124/140/178 135/139/177
f 118/158/179 123/157/179 125/145/179 119/146/179
f 119/146/180 129/144/181 130/134/181 117/133/180
f 137/143/182 146/142/182 148/162/182 138/161/182
f 147/154/183 143/153/183 145/163/183 148/162/183
f 144/152/184 140/151/184 142/164/184 145/163/184
f 141/160/185 139/159/185 138/161/185 142/164/185
f 129/144/181 137/143/186 139/159/186 130/134/181
f 140/151/187 132/148/171 131/135/171 141/160/187
f 135/139/177 147/154/188 146/142/188 136/141/177
f 143/153/189 134/138/174 133/149/174 144/152/189
f 158/165/125 37/111/114 5/67/67 60/66/66
f 58/65/82 19/77/81 154/166/190 163/167/191
f 165/168/102 155/117/124 21/82/126 34/103/106
f 152/169/192 15/58/58 37/111/114 158/170/125
f 3/62/87 58/65/82 163/171/191 31/81/88
f 19/77/81 27/44/44 159/172/47 154/166/190
f 70/40/40 77/39/39 157/49/49 156/42/42
f 31/81/88 163/173/191 162/97/101 13/71/72
f 156/42/42 157/49/49 158/118/125 155/117/124
f 152/169/192 158/170/125 157/49/49 151/48/48
f 154/166/190 159/172/47 160/96/100 153/95/99
f 151/48/48 160/96/100 159/174/47 152/169/192
f 162/97/101 163/173/191 164/107/110 161/106/109
f 153/95/99 164/107/110 163/167/191 154/166/190
f 155/117/124 165/168/102 166/43/43 156/42/42
f 161/106/109 166/43/43 165/98/102 162/97/101
f 159/174/47 49/46/46 15/58/58 152/169/192
