# Blender v3.4.1 OBJ File: 'March2026_AvianSwordsman_Assets_Export.blend'
# www.blender.org
mtllib Trainingdummy_Base_Trainingdummy_Post_Trainingdummy_Chest_Trainingdummy_TargetFront.mtl
o Trainingdummy_TargetFront
v 0.000000 1.508832 0.327809
v 0.151933 1.468122 0.327809
v 0.263156 1.356899 0.327809
v 0.303867 1.204966 0.327809
v 0.263156 1.053032 0.327809
v 0.151933 0.941809 0.327809
v -0.000000 0.901099 0.327809
v -0.151933 0.941809 0.327809
v -0.263156 1.053032 0.327809
v -0.303867 1.204966 0.327809
v -0.263156 1.356899 0.327809
v -0.151933 1.468122 0.327809
v -0.000000 1.204966 0.327809
v 0.096672 1.372414 0.418417
v -0.000004 1.398319 0.418417
v -0.096680 1.372414 0.418417
v -0.167452 1.301642 0.418417
v -0.193357 1.204966 0.418417
v -0.167452 1.108289 0.418417
v -0.096680 1.037517 0.418417
v -0.000004 1.011613 0.418417
v 0.096672 1.037517 0.418417
v 0.167444 1.108289 0.418417
v 0.193349 1.204966 0.418417
v 0.167444 1.301642 0.418417
v 0.043222 1.279829 0.418417
v -0.000000 1.291410 0.418417
v -0.043222 1.279829 0.418417
v -0.074863 1.248188 0.418417
v -0.086444 1.204966 0.418417
v -0.074863 1.161744 0.418417
v -0.043222 1.130103 0.418417
v -0.000000 1.118521 0.418417
v 0.043222 1.130103 0.418417
v 0.074863 1.161743 0.418417
v 0.086444 1.204966 0.418417
v 0.074863 1.248188 0.418417
v 0.000000 1.204966 0.418417
v 0.000000 1.528566 0.393295
v 0.000000 1.488842 0.418417
v 0.141938 1.450810 0.418417
v 0.161800 1.485212 0.393295
v 0.245845 1.346904 0.418417
v 0.280246 1.366766 0.393295
v 0.283877 1.204966 0.418417
v 0.323601 1.204966 0.393295
v 0.245845 1.063027 0.418417
v 0.280246 1.043165 0.393295
v 0.141938 0.959121 0.418417
v 0.161800 0.924719 0.393295
v -0.000000 0.921089 0.418417
v -0.000000 0.881365 0.393295
v -0.141938 0.959121 0.418417
v -0.161800 0.924719 0.393295
v -0.245845 1.063027 0.418417
v -0.280246 1.043165 0.393295
v -0.283877 1.204966 0.418417
v -0.323601 1.204966 0.393295
v -0.245845 1.346904 0.418417
v -0.280246 1.366766 0.393295
v -0.141939 1.450810 0.418417
v -0.161800 1.485212 0.393295
vt 0.034695 0.652708
vt 0.034695 0.652708
vt 0.049114 0.662028
vt 0.049114 0.662028
vt 0.197791 0.636651
vt 0.187784 0.665181
vt 0.183716 0.645098
vt 0.190748 0.625056
vt 0.201456 0.597679
vt 0.193320 0.597679
vt 0.197791 0.558706
vt 0.190748 0.570301
vt 0.187784 0.530177
vt 0.183716 0.550260
vt 0.174114 0.519734
vt 0.174114 0.542924
vt 0.160442 0.530177
vt 0.164512 0.550260
vt 0.150435 0.558706
vt 0.157478 0.570301
vt 0.146772 0.597679
vt 0.154906 0.597679
vt 0.150435 0.636651
vt 0.157478 0.625056
vt 0.160442 0.665181
vt 0.164512 0.645098
vt 0.174114 0.675623
vt 0.174114 0.652434
vt 0.049114 0.716591
vt 0.063530 0.707270
vt 0.049114 0.647019
vt 0.074083 0.681805
vt 0.077949 0.647019
vt 0.074083 0.612233
vt 0.063530 0.586767
vt 0.049114 0.577446
vt 0.034695 0.586767
vt 0.024143 0.612233
vt 0.020279 0.647019
vt 0.024143 0.681805
vt 0.034695 0.707270
vt 0.063530 0.652708
vt 0.063530 0.652708
vt 0.074083 0.627242
vt 0.074083 0.627242
vt 0.024143 0.627242
vt 0.024143 0.627242
vt 0.020279 0.592456
vt 0.020279 0.592456
vt 0.024143 0.557670
vt 0.024143 0.557670
vt 0.034695 0.532205
vt 0.034695 0.532205
vt 0.049114 0.522884
vt 0.049114 0.522884
vt 0.063530 0.532205
vt 0.063530 0.532205
vt 0.074083 0.557670
vt 0.074083 0.557670
vt 0.077949 0.592456
vt 0.077949 0.592456
vt 0.058716 0.687154
vt 0.049114 0.693363
vt 0.049114 0.665604
vt 0.052965 0.663114
vt 0.039512 0.687154
vt 0.045263 0.663114
vt 0.032478 0.670191
vt 0.042444 0.656311
vt 0.029906 0.647019
vt 0.041412 0.647019
vt 0.032478 0.623847
vt 0.042444 0.637726
vt 0.039512 0.606884
vt 0.045263 0.630924
vt 0.049114 0.600675
vt 0.049114 0.628434
vt 0.058716 0.606884
vt 0.052965 0.630924
vt 0.065748 0.623847
vt 0.055784 0.637726
vt 0.068320 0.647019
vt 0.056814 0.647019
vt 0.065748 0.670191
vt 0.055784 0.656311
vt 0.177965 0.616695
vt 0.174114 0.619637
vt 0.174114 0.597679
vt 0.170263 0.616695
vt 0.167444 0.608658
vt 0.166412 0.597679
vt 0.167444 0.586700
vt 0.170263 0.578662
vt 0.174114 0.575721
vt 0.177965 0.578662
vt 0.180784 0.586700
vt 0.181814 0.597679
vt 0.180784 0.608658
vt 0.063530 0.727955
vt 0.049114 0.738967
vt 0.049487 0.738682
vt 0.063157 0.728240
vt 0.074083 0.697867
vt 0.063803 0.727176
vt 0.073810 0.698646
vt 0.077949 0.656768
vt 0.074183 0.696804
vt 0.077849 0.657831
vt 0.074083 0.615668
vt 0.077849 0.655704
vt 0.074183 0.616731
vt 0.063530 0.585581
vt 0.073810 0.614889
vt 0.063803 0.586359
vt 0.049114 0.574568
vt 0.063157 0.585295
vt 0.049487 0.574853
vt 0.034695 0.585581
vt 0.048741 0.574853
vt 0.035069 0.585295
vt 0.024143 0.615668
vt 0.034422 0.586359
vt 0.024416 0.614889
vt 0.020279 0.656768
vt 0.024043 0.616731
vt 0.020379 0.655704
vt 0.024143 0.697867
vt 0.020379 0.657831
vt 0.024043 0.696804
vt 0.034695 0.727955
vt 0.024416 0.698646
vt 0.034422 0.727176
vt 0.035069 0.728240
vt 0.048741 0.738682
vn -0.4787 0.8292 -0.2885
vn 0.0000 0.9575 -0.2885
vn -0.0000 0.0000 1.0000
vn 0.0000 0.0000 -1.0000
vn 0.4787 0.8292 -0.2885
vn 0.8292 0.4787 -0.2885
vn -0.8292 0.4787 -0.2885
vn -0.9575 0.0000 -0.2885
vn -0.8292 -0.4787 -0.2885
vn -0.4787 -0.8292 -0.2885
vn -0.0000 -0.9575 -0.2885
vn 0.4787 -0.8292 -0.2885
vn 0.8292 -0.4787 -0.2885
vn 0.9575 -0.0000 -0.2885
vn 0.2672 0.4629 0.8452
vn 0.0000 0.5345 0.8452
vn 0.4629 0.2672 0.8452
vn 0.5345 -0.0000 0.8452
vn 0.4629 -0.2672 0.8452
vn 0.2672 -0.4629 0.8452
vn -0.0000 -0.5345 0.8452
vn -0.2672 -0.4629 0.8452
vn -0.4629 -0.2672 0.8452
vn -0.5345 0.0000 0.8452
vn -0.4629 0.2672 0.8452
vn -0.2672 0.4629 0.8452
usemtl avian_swordsman
s 1
f 12/1/1 62/2/1 39/3/2 1/4/2
f 43/5/3 41/6/3 14/7/3 25/8/3
f 45/9/3 43/5/3 25/8/3 24/10/3
f 47/11/3 45/9/3 24/10/3 23/12/3
f 49/13/3 47/11/3 23/12/3 22/14/3
f 51/15/3 49/13/3 22/14/3 21/16/3
f 53/17/3 51/15/3 21/16/3 20/18/3
f 55/19/3 53/17/3 20/18/3 19/20/3
f 57/21/3 55/19/3 19/20/3 18/22/3
f 59/23/3 57/21/3 18/22/3 17/24/3
f 61/25/3 59/23/3 17/24/3 16/26/3
f 40/27/3 61/25/3 16/26/3 15/28/3
f 1/29/4 2/30/4 13/31/4
f 2/30/4 3/32/4 13/31/4
f 3/32/4 4/33/4 13/31/4
f 4/33/4 5/34/4 13/31/4
f 5/34/4 6/35/4 13/31/4
f 6/35/4 7/36/4 13/31/4
f 7/36/4 8/37/4 13/31/4
f 8/37/4 9/38/4 13/31/4
f 9/38/4 10/39/4 13/31/4
f 10/39/4 11/40/4 13/31/4
f 11/40/4 12/41/4 13/31/4
f 12/41/4 1/29/4 13/31/4
f 1/4/2 39/3/2 42/42/5 2/43/5
f 2/43/5 42/42/5 44/44/6 3/45/6
f 11/46/7 60/47/7 62/2/1 12/1/1
f 10/48/8 58/49/8 60/47/7 11/46/7
f 9/50/9 56/51/9 58/49/8 10/48/8
f 8/52/10 54/53/10 56/51/9 9/50/9
f 7/54/11 52/55/11 54/53/10 8/52/10
f 6/56/12 50/57/12 52/55/11 7/54/11
f 5/58/13 48/59/13 50/57/12 6/56/12
f 4/60/14 46/61/14 48/59/13 5/58/13
f 3/45/6 44/44/6 46/61/14 4/60/14
f 14/62/3 15/63/3 27/64/3 26/65/3
f 15/63/3 16/66/3 28/67/3 27/64/3
f 16/66/3 17/68/3 29/69/3 28/67/3
f 17/68/3 18/70/3 30/71/3 29/69/3
f 18/70/3 19/72/3 31/73/3 30/71/3
f 19/72/3 20/74/3 32/75/3 31/73/3
f 20/74/3 21/76/3 33/77/3 32/75/3
f 21/76/3 22/78/3 34/79/3 33/77/3
f 22/78/3 23/80/3 35/81/3 34/79/3
f 23/80/3 24/82/3 36/83/3 35/81/3
f 24/82/3 25/84/3 37/85/3 36/83/3
f 25/84/3 14/62/3 26/65/3 37/85/3
f 26/86/3 27/87/3 38/88/3
f 27/87/3 28/89/3 38/88/3
f 28/89/3 29/90/3 38/88/3
f 29/90/3 30/91/3 38/88/3
f 30/91/3 31/92/3 38/88/3
f 31/92/3 32/93/3 38/88/3
f 32/93/3 33/94/3 38/88/3
f 33/94/3 34/95/3 38/88/3
f 34/95/3 35/96/3 38/88/3
f 35/96/3 36/97/3 38/88/3
f 36/97/3 37/98/3 38/88/3
f 37/98/3 26/86/3 38/88/3
f 42/99/15 39/100/16 40/101/16 41/102/15
f 44/103/17 42/99/15 41/104/15 43/105/17
f 46/106/18 44/103/17 43/107/17 45/108/18
f 48/109/19 46/106/18 45/110/18 47/111/19
f 50/112/20 48/109/19 47/113/19 49/114/20
f 52/115/21 50/112/20 49/116/20 51/117/21
f 54/118/22 52/115/21 51/119/21 53/120/22
f 56/121/23 54/118/22 53/122/22 55/123/23
f 58/124/24 56/121/23 55/125/23 57/126/24
f 60/127/25 58/124/24 57/128/24 59/129/25
f 62/130/26 60/127/25 59/131/25 61/132/26
f 39/100/16 62/130/26 61/133/26 40/134/16
f 41/6/3 40/27/3 15/28/3 14/7/3
