# Blender v3.4.1 OBJ File: 'March2026_AvianSwordsman_Assets_Export.blend'
# www.blender.org
mtllib Trainingdummy_Base_Trainingdummy_Post.mtl
o Trainingdummy_Post
v -0.061606 0.130000 0.061606
v -0.061268 0.155997 0.081806
v -0.081806 0.155997 0.061268
v -0.081614 1.369754 0.118445
v -0.081017 1.416374 0.081017
v -0.118445 1.369754 0.081614
v -0.061606 0.130000 -0.061606
v -0.081806 0.155997 -0.061268
v -0.061268 0.155997 -0.081806
v -0.081017 1.416374 -0.081017
v -0.081614 1.369754 -0.118445
v -0.118445 1.369754 -0.081614
v 0.061606 0.130000 0.061606
v 0.081806 0.155997 0.061268
v 0.061268 0.155997 0.081806
v 0.081017 1.416374 0.081017
v 0.081614 1.369754 0.118445
v 0.118445 1.369754 0.081614
v 0.061606 0.130000 -0.061606
v 0.061268 0.155997 -0.081806
v 0.081806 0.155997 -0.061268
v 0.081017 1.416374 -0.081017
v 0.118445 1.369754 -0.081614
v 0.081614 1.369754 -0.118445
vt 0.960436 0.556699
vt 0.958694 0.693301
vt 0.916306 0.693301
vt 0.914564 0.556699
vt 0.968184 0.556699
vt 0.968184 0.693301
vt 0.968184 0.693301
vt 0.968184 0.556699
vt 0.958595 0.696207
vt 0.916404 0.696207
vt 0.916404 0.696207
vt 0.958596 0.696207
vt 0.906816 0.556699
vt 0.906816 0.693301
vt 0.906816 0.693301
vt 0.906816 0.556699
vt 0.914564 0.556699
vt 0.916305 0.693301
vt 0.958694 0.693301
vt 0.960436 0.556699
vt 0.914487 0.553793
vt 0.914487 0.553793
vt 0.960513 0.553793
vt 0.960513 0.553793
vn 0.0000 -0.0302 0.9995
vn 0.9995 -0.0302 -0.0000
vn 0.0000 1.0000 0.0000
vn -0.9995 -0.0302 0.0000
vn 0.0000 -0.0302 -0.9995
vn -0.6221 -0.4753 0.6221
vn -0.6125 0.4996 0.6125
vn -0.6221 -0.4753 -0.6221
vn -0.6125 0.4996 -0.6125
vn 0.6221 -0.4753 0.6221
vn 0.6125 0.4996 0.6125
vn 0.6221 -0.4753 -0.6221
vn 0.6125 0.4996 -0.6125
vn -0.7896 -0.6136 -0.0000
vn -0.7067 -0.0332 0.7067
vn -0.7798 0.6260 0.0000
vn -0.7067 -0.0332 -0.7067
vn -0.0000 -0.6136 -0.7896
vn 0.0000 0.6260 -0.7798
vn 0.7067 -0.0332 -0.7067
vn 0.7896 -0.6136 -0.0000
vn 0.7798 0.6260 0.0000
vn 0.7067 -0.0332 0.7067
vn 0.0000 -0.6136 0.7896
vn 0.0000 0.6260 0.7798
vn 0.0000 -1.0000 0.0000
usemtl avian_swordsman
s 1
f 15/1/1 17/2/1 4/3/1 2/4/1
f 21/5/2 23/6/2 18/7/2 14/8/2
f 22/9/3 10/10/3 5/11/3 16/12/3
f 3/13/4 6/14/4 12/15/4 8/16/4
f 9/17/5 11/18/5 24/19/5 20/20/5
f 1/21/6 2/4/6 3/13/6
f 4/3/7 5/11/7 6/14/7
f 7/22/8 8/16/8 9/17/8
f 10/10/9 11/18/9 12/15/9
f 13/23/10 14/8/10 15/1/10
f 16/12/11 17/2/11 18/7/11
f 19/24/12 20/20/12 21/5/12
f 22/9/13 23/6/13 24/19/13
f 7/22/14 1/21/14 3/13/14 8/16/14
f 2/4/15 4/3/15 6/14/15 3/13/15
f 5/11/16 10/10/16 12/15/16 6/14/16
f 11/18/17 9/17/17 8/16/17 12/15/17
f 19/24/18 7/22/18 9/17/18 20/20/18
f 10/10/19 22/9/19 24/19/19 11/18/19
f 23/6/20 21/5/20 20/20/20 24/19/20
f 13/23/21 19/24/21 21/5/21 14/8/21
f 22/9/22 16/12/22 18/7/22 23/6/22
f 17/2/23 15/1/23 14/8/23 18/7/23
f 1/21/24 13/23/24 15/1/24 2/4/24
f 16/12/25 5/11/25 4/3/25 17/2/25
f 7/22/26 19/24/26 13/23/26 1/21/26
