# Blender v3.4.1 OBJ File: 'March2026_AvianSwordsman_Assets_Export.blend'
# www.blender.org
mtllib Trainingdummy_Base_Trainingdummy_Post_Trainingdummy_Chest_Trainingdummy_Head.mtl
o Trainingdummy_Head
v -0.186330 1.578149 0.263511
v -0.322733 2.087213 0.263511
v -0.186330 1.578149 -0.263511
v -0.322733 2.087213 -0.263511
v 0.322733 1.714552 0.263511
v 0.186330 2.223616 0.263511
v 0.322733 1.714552 -0.263511
v 0.186330 2.223616 -0.263511
v -0.305600 1.818997 0.316381
v -0.305600 1.818997 -0.316381
v 0.305600 1.982768 -0.316381
v 0.305600 1.982768 0.316381
v 0.081885 1.595282 -0.316381
v -0.081885 2.206483 -0.316381
v 0.081885 1.595282 0.316381
v 0.000000 1.900882 0.439045
v 0.000000 1.900882 -0.439045
v -0.223715 1.513397 -0.000000
v -0.387486 2.124597 -0.000000
v 0.387486 1.677168 0.000000
v 0.223715 2.288368 0.000000
v 0.424085 2.014516 0.000000
v -0.424085 1.787249 -0.000000
v -0.113633 2.324968 -0.000000
v 0.113633 1.476797 0.000000
v -0.211957 1.533763 0.157698
v -0.330353 1.975625 0.299752
v -0.367119 2.112839 -0.157698
v -0.248723 1.670977 -0.299752
v -0.074743 1.570529 -0.299752
v 0.074743 2.231236 -0.299752
v 0.330353 1.826140 -0.299752
v 0.367119 1.688926 -0.157698
v 0.211957 2.268002 0.157698
v 0.330353 1.826140 0.299752
v 0.229906 1.652160 0.299752
v -0.229906 2.149605 0.299752
v -0.248723 1.670977 0.299752
v -0.330353 1.975625 -0.299752
v 0.248723 2.130788 -0.299752
v 0.248723 2.130788 0.299752
v -0.166501 1.856269 0.407805
v 0.166501 1.945496 -0.407805
v -0.393909 1.795335 -0.172374
v -0.229906 2.149605 -0.299752
v -0.074743 1.570529 0.299752
v 0.074743 2.231236 0.299752
v 0.166501 1.945496 0.407805
v 0.044614 1.734382 -0.407805
v -0.105548 2.294791 0.172374
v 0.105548 1.506974 0.172374
v -0.044614 2.067383 -0.407805
v -0.211957 1.533763 -0.157698
v -0.367119 2.112839 0.157698
v 0.367119 1.688926 0.157698
v 0.211957 2.268002 -0.157698
v -0.105548 2.294791 -0.172374
v 0.105548 1.506974 -0.172374
v -0.060953 1.462360 -0.000000
v 0.060953 2.339405 0.000000
v -0.349295 1.628834 -0.000000
v 0.438523 1.839929 0.000000
v -0.272048 2.250178 -0.000000
v 0.272048 1.551587 0.000000
v 0.349295 2.172931 0.000000
v -0.438523 1.961836 -0.000000
v -0.410695 1.962475 -0.165790
v 0.117231 2.103932 -0.380759
v -0.203050 2.018113 0.380759
v 0.258688 1.576007 0.165790
v -0.258688 2.225758 0.165790
v 0.410695 1.839290 0.165790
v -0.324876 1.642194 -0.165790
v -0.117231 1.697833 -0.380759
v 0.061593 2.311577 0.165790
v -0.061593 1.490188 0.165790
v 0.117231 2.103932 0.380759
v -0.061593 1.490188 -0.165790
v 0.061593 2.311577 -0.165790
v -0.324876 1.642194 0.165790
v -0.258688 2.225758 -0.165790
v 0.258688 1.576007 -0.165790
v 0.324876 2.159571 -0.165790
v -0.030632 1.744061 0.394910
v 0.104939 1.780387 0.394910
v 0.036968 1.762917 0.405905
v -0.113811 1.673648 0.357974
v 0.212181 1.760997 0.357974
v 0.160366 1.715294 0.409269
v 0.132429 1.743057 0.420501
v -0.035774 1.697988 0.420501
v -0.046087 1.659975 0.409269
v 0.048930 1.718273 0.430058
v 0.058098 1.684056 0.417468
v 0.128847 2.318051 -0.358010
v 0.188899 2.324806 -0.339260
v 0.202690 2.375043 -0.303351
v 0.121771 2.392710 -0.319374
v -0.194676 2.358825 -0.201630
v -0.198481 2.413520 -0.140060
v -0.273033 2.383569 -0.121572
v -0.266746 2.332807 -0.181928
v -0.076315 2.441821 -0.199166
v -0.080139 2.496794 -0.137283
v 0.002441 2.502605 -0.140870
v 0.002744 2.450213 -0.200686
v 0.401275 2.008404 0.130295
v 0.371739 2.000490 0.208527
v 0.365975 1.998077 0.161213
v 0.190058 1.636848 -0.304228
v 0.264058 1.675115 -0.286418
v 0.216494 1.669571 -0.278954
v -0.201422 1.846912 -0.384852
v -0.125855 1.867160 -0.415431
v -0.155503 1.858347 -0.378661
v 0.401275 2.008404 -0.130295
v 0.371739 2.000490 -0.208527
v 0.365541 1.999697 -0.161213
v 0.304102 2.151719 0.202333
v 0.331095 2.162974 0.123561
v 0.300128 2.144081 0.155323
v 0.238346 1.795432 -0.358299
v 0.162748 1.771119 -0.387639
v 0.190936 1.790580 -0.353106
v -0.162695 2.030663 -0.387648
v -0.237777 2.006523 -0.358661
v -0.190726 2.012557 -0.352846
v 0.388778 1.835703 -0.202333
v 0.417783 1.839453 -0.123561
v 0.381518 1.840331 -0.155323
v -0.374150 1.800629 0.204596
v -0.400474 1.793576 0.134871
v -0.377707 1.799981 0.166054
v -0.417012 1.962330 0.128154
v -0.391161 1.965672 0.198359
v -0.393852 1.961406 0.160138
v -0.117261 2.192889 0.312406
v -0.044452 2.212399 0.312406
v -0.076704 2.187147 0.294743
v -0.007895 2.075675 0.401669
v -0.080559 2.056205 0.401669
v -0.041631 2.056252 0.380286
v 0.157231 1.873175 0.381918
v 0.195354 1.816602 0.360825
v 0.192631 1.928590 0.436635
v 0.184593 1.968593 0.411529
v 0.197885 1.961252 0.428305
v 0.215564 1.968593 0.423946
v 0.169403 1.928590 0.419934
v 0.207526 1.985163 0.398841
v 0.218893 1.928590 0.434345
v 0.184593 1.833172 0.411529
v 0.192631 1.873175 0.436635
v 0.197885 1.840513 0.428305
v 0.215564 1.833172 0.423946
v 0.169403 1.873175 0.419934
v 0.218893 1.873175 0.434345
v 0.207526 1.816602 0.398841
v 0.172421 1.833172 0.373513
v 0.195354 1.985163 0.360825
v 0.157231 1.928590 0.381918
v 0.172421 1.968593 0.373513
v 0.251550 1.816602 0.374426
v 0.288645 1.873175 0.353238
v 0.263005 1.873175 0.409938
v 0.274100 1.833172 0.361702
v 0.274377 1.840513 0.385965
v 0.282518 1.873175 0.386842
v 0.259676 1.833172 0.399540
v 0.251623 1.985163 0.374433
v 0.263005 1.928590 0.409938
v 0.288586 1.928590 0.353232
v 0.259676 1.968593 0.399540
v 0.274360 1.961252 0.385963
v 0.282501 1.928590 0.386841
v 0.274113 1.968593 0.361703
v 0.238758 1.816602 0.336353
v 0.274991 1.873175 0.315084
v 0.260866 1.833172 0.323587
v 0.239026 1.985163 0.336377
v 0.274903 1.928590 0.315076
v 0.260891 1.968593 0.323590
v -0.157231 1.873175 0.381918
v -0.195354 1.816602 0.360825
v -0.192631 1.928590 0.436635
v -0.184593 1.968593 0.411529
v -0.197885 1.961252 0.428305
v -0.215564 1.968593 0.423946
v -0.169403 1.928590 0.419934
v -0.207526 1.985163 0.398841
v -0.218893 1.928590 0.434345
v -0.184593 1.833172 0.411529
v -0.192631 1.873175 0.436635
v -0.197885 1.840513 0.428305
v -0.215564 1.833172 0.423946
v -0.169403 1.873175 0.419934
v -0.218893 1.873175 0.434345
v -0.207526 1.816602 0.398841
v -0.172421 1.833172 0.373513
v -0.195354 1.985163 0.360825
v -0.157231 1.928590 0.381918
v -0.172421 1.968593 0.373513
v -0.251550 1.816602 0.374426
v -0.288645 1.873175 0.353238
v -0.263005 1.873175 0.409938
v -0.274100 1.833172 0.361702
v -0.274377 1.840513 0.385965
v -0.282518 1.873175 0.386842
v -0.259676 1.833172 0.399540
v -0.251623 1.985163 0.374433
v -0.263005 1.928590 0.409938
v -0.288586 1.928590 0.353232
v -0.259676 1.968593 0.399540
v -0.274360 1.961252 0.385963
v -0.282501 1.928590 0.386841
v -0.274113 1.968593 0.361703
v -0.238758 1.816602 0.336353
v -0.274991 1.873175 0.315084
v -0.260866 1.833172 0.323587
v -0.239026 1.985163 0.336377
v -0.274903 1.928590 0.315076
v -0.260891 1.968593 0.323590
vt 0.891022 0.887747
vt 0.894347 0.921435
vt 0.897225 0.920148
vt 0.894347 0.887747
vt 0.904076 0.949579
vt 0.905846 0.946329
vt 0.909703 0.939246
vt 0.905846 0.918567
vt 0.904076 0.887747
vt 0.937746 0.887747
vt 0.937746 0.921435
vt 0.955390 0.920148
vt 0.956090 0.887747
vt 0.937746 0.949579
vt 0.954529 0.946329
vt 0.965789 0.939246
vt 0.969646 0.918567
vt 0.971416 0.887747
vt 0.980413 0.879505
vt 0.978703 0.887747
vt 0.971416 0.887747
vt 0.969646 0.856927
vt 0.975915 0.919717
vt 0.969646 0.946329
vt 0.965789 0.939246
vt 0.969646 0.918567
vt 0.937746 0.854059
vt 0.955568 0.863588
vt 0.950902 0.855019
vt 0.954764 0.824846
vt 0.958672 0.831771
vt 0.965789 0.836248
vt 0.969646 0.829165
vt 0.955390 0.962161
vt 0.937746 0.953568
vt 0.941757 0.948802
vt 0.954529 0.946329
vt 0.920102 0.920148
vt 0.920964 0.946329
vt 0.909703 0.939246
vt 0.905846 0.918567
vt 0.919402 0.887747
vt 0.904076 0.887747
vt 0.937746 0.801942
vt 0.956090 0.808048
vt 0.955390 0.813334
vt 0.937746 0.808048
vt 0.971416 0.825915
vt 0.969646 0.829165
vt 0.965789 0.836248
vt 0.954529 0.829165
vt 0.937746 0.825915
vt 0.937746 0.967446
vt 0.937746 0.973552
vt 0.919402 0.967446
vt 0.920102 0.962161
vt 0.905846 0.946329
vt 0.955390 0.920148
vt 0.941749 0.921143
vt 0.928023 0.843942
vt 0.919600 0.849355
vt 0.920964 0.829165
vt 0.956180 0.857304
vt 0.956090 0.887747
vt 0.945215 0.858914
vt 0.947012 0.896558
vt 0.952646 0.900344
vt 0.945079 0.901122
vt 0.981146 0.854059
vt 0.978267 0.855346
vt 0.984470 0.887747
vt 0.981146 0.921435
vt 0.979000 0.920476
vt 0.981957 0.887747
vt 0.959343 0.855784
vt 0.969646 0.856927
vt 0.920337 0.927290
vt 0.916213 0.919717
vt 0.937746 0.825915
vt 0.950011 0.828290
vt 0.955390 0.813334
vt 0.937746 0.808048
vt 0.904076 0.825915
vt 0.894347 0.854059
vt 0.897225 0.855346
vt 0.905846 0.829165
vt 0.905846 0.856927
vt 0.909703 0.836248
vt 0.920102 0.855346
vt 0.920964 0.829165
vt 0.923880 0.887747
vt 0.924596 0.920476
vt 0.915554 0.887747
vt 0.958100 0.854217
vt 0.919312 0.857305
vt 0.905846 0.856927
vt 0.955892 0.849355
vt 0.947470 0.843941
vt 0.956090 0.967446
vt 0.937746 0.887747
vt 0.919402 0.808048
vt 0.920102 0.813334
vt 0.905846 0.829165
vt 0.909703 0.836248
vt 0.933743 0.921143
vt 0.933735 0.948802
vt 0.937746 0.914111
vt 0.919580 0.879505
vt 0.920964 0.946329
vt 0.975915 0.855777
vt 0.980413 0.895989
vt 0.978703 0.887747
vt 0.920102 0.813334
vt 0.971416 0.949579
vt 0.937746 0.967446
vt 0.955390 0.962161
vt 0.956090 0.967446
vt 0.937746 0.973552
vt 0.969646 0.946329
vt 0.897225 0.855346
vt 0.893623 0.887747
vt 0.896572 0.920440
vt 0.896524 0.887747
vt 0.975915 0.848204
vt 0.979000 0.855018
vt 0.981957 0.887747
vt 0.978267 0.920148
vt 0.920102 0.962161
vt 0.919402 0.967446
vt 0.920102 0.962161
vt 0.975915 0.927290
vt 0.894999 0.880401
vt 0.899321 0.926513
vt 0.899321 0.919764
vt 0.969646 0.946329
vt 0.955390 0.962161
vt 0.930278 0.858914
vt 0.937746 0.895728
vt 0.937746 0.901933
vt 0.930413 0.901122
vt 0.928480 0.896558
vt 0.928124 0.844780
vt 0.937746 0.859054
vt 0.937746 0.843445
vt 0.947368 0.844779
vt 0.917392 0.854217
vt 0.922847 0.900344
vt 0.947167 0.847706
vt 0.937918 0.846353
vt 0.937574 0.846353
vt 0.928325 0.847706
vt 0.953274 0.851809
vt 0.947640 0.848023
vt 0.927852 0.848024
vt 0.922847 0.853469
vt 0.965789 0.939246
vt 0.954529 0.946329
vt 0.937746 0.967446
vt 0.937746 0.973552
vt 0.955390 0.962161
vt 0.937746 0.967446
vt 0.981957 0.839632
vt 0.981149 0.839770
vt 0.980413 0.832336
vt 0.980372 0.840109
vt 0.950011 0.786998
vt 0.954478 0.787887
vt 0.954764 0.783949
vt 0.958868 0.788971
vt 0.915554 0.839632
vt 0.919326 0.839754
vt 0.919580 0.832336
vt 0.923009 0.840039
vt 0.981957 0.839632
vt 0.981149 0.839494
vt 0.980413 0.846928
vt 0.980372 0.839155
vt 0.975915 0.867933
vt 0.978207 0.868409
vt 0.975915 0.874637
vt 0.980441 0.869027
vt 0.959343 0.811337
vt 0.955436 0.810648
vt 0.955568 0.818245
vt 0.951535 0.809629
vt 0.924596 0.868605
vt 0.920195 0.868425
vt 0.920337 0.874637
vt 0.915931 0.868392
vt 0.975915 0.811331
vt 0.978207 0.810855
vt 0.975915 0.804627
vt 0.980441 0.810237
vt 0.979000 0.868605
vt 0.978267 0.868315
vt 0.978703 0.839632
vt 0.950902 0.810659
vt 0.958672 0.790079
vt 0.916213 0.867933
vt 0.920102 0.868315
vt 0.919405 0.839767
vt 0.923880 0.839632
vt 0.979000 0.810659
vt 0.978267 0.810949
vt 0.978703 0.839632
vt 0.896524 0.839632
vt 0.894402 0.839741
vt 0.894999 0.833129
vt 0.892383 0.839995
vt 0.896572 0.868574
vt 0.897221 0.868413
vt 0.899321 0.873950
vt 0.897890 0.868384
vt 0.899321 0.867975
vt 0.897225 0.868315
vt 0.894359 0.839752
vt 0.893623 0.839632
vt 0.933735 0.893681
vt 0.937695 0.894254
vt 0.937746 0.897900
vt 0.941578 0.894692
vt 0.941749 0.869196
vt 0.937801 0.869617
vt 0.937746 0.862971
vt 0.933928 0.870242
vt 0.933743 0.869196
vt 0.937746 0.869628
vt 0.941757 0.893681
vt 0.938532 0.513162
vt 0.940580 0.513162
vt 0.938698 0.538634
vt 0.936650 0.538634
vt 0.953452 0.573921
vt 0.951664 0.629544
vt 0.951990 0.624870
vt 0.953063 0.573921
vt 0.941372 0.502611
vt 0.943420 0.502611
vt 0.941932 0.538634
vt 0.941932 0.573921
vt 0.938698 0.573921
vt 0.942518 0.624870
vt 0.940580 0.629544
vt 0.953460 0.538634
vt 0.953066 0.538634
vt 0.951992 0.517836
vt 0.951663 0.513162
vt 0.943420 0.640095
vt 0.944772 0.629544
vt 0.945333 0.538634
vt 0.942518 0.517836
vt 0.944772 0.513162
vt 0.945333 0.573921
vt 0.950797 0.538634
vt 0.950797 0.573921
vt 0.951216 0.538634
vt 0.951204 0.573921
vt 0.946778 0.640095
vt 0.941372 0.640095
vt 0.948882 0.640095
vt 0.938532 0.629544
vt 0.950237 0.629544
vt 0.948872 0.502611
vt 0.950237 0.513162
vt 0.936650 0.573921
vt 0.946743 0.502611
vt 0.949475 0.513162
vt 0.949478 0.629544
vt 0.938532 0.513162
vt 0.936650 0.538634
vt 0.938698 0.538634
vt 0.940580 0.513162
vt 0.953452 0.573921
vt 0.953063 0.573921
vt 0.951990 0.624870
vt 0.951664 0.629544
vt 0.941372 0.502611
vt 0.943420 0.502611
vt 0.941932 0.538634
vt 0.938698 0.573921
vt 0.941932 0.573921
vt 0.940580 0.629544
vt 0.942518 0.624870
vt 0.953460 0.538634
vt 0.951663 0.513162
vt 0.951992 0.517836
vt 0.953066 0.538634
vt 0.943420 0.640095
vt 0.944772 0.629544
vt 0.945333 0.538634
vt 0.944772 0.513162
vt 0.942518 0.517836
vt 0.945333 0.573921
vt 0.950797 0.538634
vt 0.950797 0.573921
vt 0.951216 0.538634
vt 0.951204 0.573921
vt 0.946778 0.640095
vt 0.948882 0.640095
vt 0.941372 0.640095
vt 0.938532 0.629544
vt 0.950237 0.629544
vt 0.948872 0.502611
vt 0.950237 0.513162
vt 0.936650 0.573921
vt 0.949475 0.513162
vt 0.946743 0.502611
vt 0.949478 0.629544
vn -0.9660 -0.2587 -0.0002
vn -0.9947 0.1026 -0.0002
vn -0.9392 0.0910 -0.3310
vn -0.9026 -0.2419 -0.3561
vn -0.8659 0.5002 -0.0002
vn -0.8251 0.4764 -0.3037
vn -0.7058 0.4075 -0.5794
vn -0.7282 0.1178 -0.6751
vn -0.6828 -0.1832 -0.7073
vn 0.0004 0.0001 -1.0000
vn -0.0921 0.3446 -0.9342
vn 0.2341 0.4054 -0.8837
vn 0.3401 0.1063 -0.9344
vn -0.1828 0.6832 -0.7069
vn 0.0782 0.6788 -0.7301
vn 0.4822 0.6142 -0.6247
vn 0.5725 0.4676 -0.6736
vn 0.6832 0.1836 -0.7067
vn 0.9387 -0.1062 0.3280
vn 0.8222 0.2079 0.5299
vn 0.6793 0.1709 0.7137
vn 0.7181 -0.1210 0.6854
vn 0.7045 0.5094 0.4942
vn 0.4587 0.8360 0.3011
vn 0.4105 0.7066 0.5763
vn 0.5739 0.4667 0.6729
vn 0.0928 -0.3446 -0.9342
vn 0.2471 -0.2850 -0.9261
vn 0.5525 -0.7724 -0.3131
vn 0.6223 -0.4907 -0.6099
vn 0.7115 -0.4029 -0.5757
vn 0.8164 -0.4939 -0.2992
vn 0.0912 0.9393 0.3308
vn -0.2433 0.9079 0.3413
vn -0.0336 0.7251 0.6879
vn 0.1194 0.7292 0.6738
vn -0.4054 0.2335 0.8838
vn -0.4680 0.5719 0.6738
vn -0.7086 0.4069 0.5764
vn -0.7302 0.1175 0.6730
vn -0.3332 -0.1146 0.9359
vn -0.6737 -0.1917 0.7137
vn 0.2588 -0.9659 -0.0000
vn 0.5858 -0.8104 -0.0000
vn 0.5484 -0.7679 0.3310
vn 0.2419 -0.9026 0.3561
vn 0.8659 -0.5002 0.0003
vn 0.8251 -0.4764 0.3037
vn 0.7017 -0.4051 0.5861
vn 0.5218 -0.5891 0.6170
vn 0.2086 -0.7786 0.5918
vn -0.2166 0.8627 0.4569
vn -0.5800 0.7888 0.2033
vn -0.5487 0.7678 0.3308
vn -0.8164 0.4926 0.3015
vn 0.2344 0.4049 0.8838
vn 0.0715 0.3697 0.9264
vn -0.2919 -0.4825 0.8258
vn -0.4042 -0.4277 0.8085
vn -0.1574 -0.7711 0.6170
vn 0.5639 -0.1684 0.8085
vn 0.3459 0.0674 0.9359
vn 0.2436 -0.1736 0.9542
vn 0.1790 0.6242 0.7605
vn 0.3441 0.6900 0.6368
vn 0.1172 0.5932 0.7964
vn 0.9947 -0.1029 0.0001
vn 0.9659 0.2588 -0.0000
vn 0.8100 0.5864 -0.0001
vn 0.7903 0.5907 0.1625
vn 0.9546 0.2427 0.1728
vn 0.5591 -0.1424 -0.8168
vn 0.7303 -0.1145 -0.6735
vn -0.4692 0.5874 -0.6594
vn -0.5575 0.1712 -0.8123
vn 0.1833 -0.6831 -0.7070
vn 0.3337 -0.6460 -0.6866
vn 0.2421 -0.9025 -0.3563
vn -0.5000 -0.8660 -0.0000
vn -0.8104 -0.5859 -0.0002
vn -0.7679 -0.5484 -0.3310
vn -0.4764 -0.8251 -0.3037
vn -0.5721 -0.4675 -0.6740
vn -0.4082 -0.7071 -0.5774
vn -0.2274 -0.4187 -0.8792
vn -0.1190 -0.7294 -0.6737
vn -0.1636 -0.0569 -0.9849
vn -0.2517 0.3115 -0.9163
vn -0.5087 -0.1487 -0.8480
vn -0.5614 -0.4638 0.6854
vn 0.4940 -0.2720 0.8258
vn 0.1259 0.9623 0.2410
vn 0.0097 -0.0360 0.9993
vn -0.1021 -0.9948 -0.0000
vn -0.0910 -0.9392 0.3310
vn -0.4764 -0.8251 0.3037
vn -0.4051 -0.7017 0.5861
vn -0.2468 0.2844 0.9264
vn -0.3334 0.6447 0.6879
vn 0.8648 -0.0889 -0.4942
vn 0.7598 0.5613 -0.3280
vn 0.8160 0.2311 -0.5299
vn -0.0910 -0.9392 -0.3310
vn 0.4998 0.8661 -0.0003
vn -0.2194 0.8189 -0.5303
vn -0.0713 0.8486 -0.5243
vn -0.0394 0.6365 0.7702
vn 0.4904 0.8679 -0.0792
vn 0.2447 0.9502 0.1927
vn -0.7607 -0.5599 0.3284
vn -0.9484 -0.2659 0.1728
vn -0.9800 0.1148 0.1626
vn -0.8163 -0.2299 0.5299
vn 0.9798 -0.1164 -0.1625
vn 0.9481 0.2671 -0.1728
vn -0.5891 0.7103 -0.3852
vn -0.9954 -0.0731 -0.0622
vn -0.8645 0.0879 0.4948
vn 0.1611 0.8229 0.5449
vn -0.1242 -0.2721 0.9542
vn -0.1299 0.4847 0.8650
vn -0.3982 0.4551 0.7964
vn -0.4672 0.4511 0.7605
vn 0.0585 -0.2183 0.9741
vn 0.1389 -0.5184 0.8438
vn -0.6430 0.4255 0.6368
vn 0.3087 -0.1078 0.9450
vn 0.0775 -0.2894 0.9541
vn -0.2135 -0.2477 0.9450
vn 0.2445 0.4872 -0.8383
vn 0.9738 -0.1501 -0.1706
vn 0.2389 -0.6103 -0.7553
vn -0.9210 0.2300 -0.3145
vn -0.4160 0.6705 -0.6144
vn -0.2583 0.6933 0.6728
vn -0.0037 -0.2584 -0.9660
vn 0.7464 0.6368 -0.1931
vn -0.0864 0.7456 -0.6607
vn 0.0413 -0.2068 -0.9775
vn 0.9460 0.3066 -0.1051
vn -0.9847 0.1415 -0.1015
vn 0.5984 0.2499 0.7612
vn 0.5994 0.2467 0.7615
vn 0.6134 0.1948 0.7654
vn 0.9326 0.3353 -0.1335
vn 0.9310 0.3397 -0.1337
vn 0.9554 0.2653 -0.1299
vn 0.8083 -0.2192 -0.5465
vn 0.8088 -0.2216 -0.5448
vn 0.8154 -0.2587 -0.5179
vn -0.0337 -0.6545 -0.7553
vn -0.0349 -0.6483 -0.7606
vn -0.0096 -0.7724 -0.6350
vn 0.1066 0.1188 -0.9872
vn 0.1076 0.1142 -0.9876
vn 0.1232 0.0423 -0.9915
vn -0.7571 -0.1168 -0.6428
vn -0.7576 -0.1134 -0.6427
vn -0.7469 -0.1697 -0.6429
vn 0.6432 0.0828 -0.7612
vn 0.6424 0.0860 -0.7615
vn 0.6286 0.1380 -0.7654
vn 0.9753 0.1760 0.1335
vn 0.9761 0.1713 0.1337
vn 0.9600 0.2479 0.1299
vn 0.8612 0.4860 -0.1489
vn 0.8615 0.4854 -0.1488
vn 0.8027 0.5742 -0.1611
vn 0.5649 0.3340 0.7545
vn 0.5664 0.3311 0.7547
vn 0.5439 0.3726 0.7519
vn -0.0613 -0.4465 -0.8927
vn -0.0621 -0.4344 -0.8986
vn -0.0677 -0.3417 -0.9374
vn 0.7991 -0.1374 -0.5853
vn 0.7992 -0.1400 -0.5845
vn 0.7951 -0.0865 -0.6003
vn -0.7738 -0.0280 -0.6328
vn -0.7745 -0.0248 -0.6321
vn -0.7830 0.0170 -0.6218
vn 0.0801 0.2760 -0.9578
vn 0.0800 0.2767 -0.9576
vn 0.0659 0.3768 -0.9240
vn 0.9888 0.0097 0.1489
vn 0.9888 0.0104 0.1488
vn 0.9823 -0.0959 0.1611
vn 0.6562 -0.0068 -0.7545
vn 0.6561 -0.0035 -0.7547
vn 0.6573 -0.0507 -0.7519
vn -0.9754 -0.2010 0.0901
vn -0.9742 -0.2068 0.0902
vn -0.9441 -0.3163 0.0925
vn -0.7848 -0.1549 0.6001
vn -0.7860 -0.1499 0.5997
vn -0.7556 -0.2540 0.6038
vn -0.8065 0.0392 0.5900
vn -0.8063 0.0455 0.5897
vn -0.7987 0.1504 0.5827
vn -0.9971 0.0312 0.0700
vn -0.9970 0.0351 0.0695
vn -0.9834 0.1744 0.0498
vn 0.3775 0.6559 0.6537
vn 0.3761 0.6615 0.6488
vn 0.3532 0.7422 0.5696
vn -0.6565 0.3848 0.6488
vn -0.6548 0.3793 0.6537
vn -0.6769 0.4662 0.5696
vn -0.6120 0.2297 0.7568
vn -0.6104 0.2236 0.7599
vn -0.5875 0.1437 0.7963
vn 0.4169 0.4988 0.7599
vn 0.4152 0.5049 0.7568
vn 0.4369 0.4182 0.7963
vn -0.7138 -0.6620 0.2286
vn -0.6050 -0.6442 0.4679
vn -0.8050 -0.1863 0.5633
vn -0.9322 -0.2047 0.2985
vn 0.9803 0.1704 -0.0999
vn 0.7962 0.6035 -0.0433
vn 0.8190 0.4402 0.3680
vn 0.9021 0.1289 0.4119
vn -0.2376 -0.9684 0.0761
vn -0.1267 -0.9400 0.3167
vn -0.2791 -0.1542 0.9478
vn -0.2791 0.1542 0.9478
vn -0.8050 0.1863 0.5633
vn -0.2532 0.4846 0.8373
vn -0.6050 0.6443 0.4679
vn 0.9804 -0.1701 -0.0997
vn 0.9020 -0.1287 0.4121
vn 0.8186 -0.4409 0.3681
vn 0.7951 -0.6050 -0.0434
vn -0.1267 0.9400 0.3167
vn 0.1605 0.6067 0.7785
vn 0.2944 -0.1275 0.9471
vn -0.2532 -0.4846 0.8373
vn 0.1606 -0.6068 0.7785
vn 0.2944 0.1275 0.9471
vn 0.6230 -0.1203 0.7729
vn 0.6231 0.1203 0.7728
vn 0.9255 -0.1873 -0.3291
vn 0.9254 0.1877 -0.3292
vn 0.3041 0.9471 -0.1031
vn -0.2378 0.9683 0.0761
vn 0.3610 0.9225 0.1368
vn -0.7138 0.6620 0.2286
vn 0.5548 0.5758 0.6006
vn 0.3602 -0.9229 0.1362
vn 0.5546 -0.5762 0.6004
vn -0.9322 0.2047 0.2985
vn 0.3017 -0.9478 -0.1031
vn 0.7431 -0.6169 -0.2592
vn 0.7449 0.6147 -0.2593
vn 0.7138 -0.6620 0.2286
vn 0.9322 -0.2047 0.2985
vn 0.8050 -0.1863 0.5633
vn 0.6050 -0.6442 0.4679
vn -0.9803 0.1704 -0.0999
vn -0.9021 0.1289 0.4119
vn -0.8190 0.4402 0.3680
vn -0.7962 0.6035 -0.0433
vn 0.2376 -0.9684 0.0761
vn 0.1267 -0.9400 0.3167
vn 0.2791 -0.1542 0.9478
vn 0.8050 0.1863 0.5633
vn 0.2791 0.1542 0.9478
vn 0.6050 0.6443 0.4679
vn 0.2532 0.4846 0.8373
vn -0.9804 -0.1701 -0.0997
vn -0.7951 -0.6050 -0.0434
vn -0.8186 -0.4409 0.3681
vn -0.9020 -0.1287 0.4121
vn 0.1267 0.9400 0.3167
vn -0.1605 0.6067 0.7785
vn -0.2944 -0.1275 0.9471
vn -0.1606 -0.6068 0.7785
vn 0.2532 -0.4846 0.8373
vn -0.2944 0.1275 0.9471
vn -0.6230 -0.1203 0.7729
vn -0.6231 0.1203 0.7728
vn -0.9255 -0.1873 -0.3291
vn -0.9254 0.1877 -0.3292
vn -0.3041 0.9471 -0.1031
vn -0.3610 0.9225 0.1368
vn 0.2378 0.9683 0.0761
vn 0.7138 0.6620 0.2286
vn -0.5548 0.5758 0.6006
vn -0.3602 -0.9229 0.1362
vn -0.5546 -0.5762 0.6004
vn 0.9322 0.2047 0.2985
vn -0.7431 -0.6169 -0.2592
vn -0.3017 -0.9478 -0.1031
vn -0.7449 0.6147 -0.2593
usemtl avian_swordsman
s 1
f 23/1/1 66/2/2 67/3/3 44/4/4
f 66/2/2 19/5/5 28/6/6 67/3/3
f 67/3/3 28/6/6 4/7/7 39/8/8
f 44/4/4 67/3/3 39/8/8 10/9/9
f 17/10/10 52/11/11 68/12/12 43/13/13
f 52/11/11 14/14/14 31/15/15 68/12/12
f 68/12/12 31/15/15 8/16/16 40/17/17
f 43/13/13 68/12/12 40/17/17 11/18/18
f 72/19/19 108/20/20 12/21/21 35/22/22
f 119/23/23 34/24/24 6/25/25 41/26/26
f 49/27/27 17/10/10 43/28/13 123/29/28
f 82/30/29 111/31/30 7/32/31 33/33/32
f 75/34/33 50/35/34 138/36/35 47/37/36
f 69/38/37 37/39/38 2/40/39 27/41/40
f 42/42/41 69/38/37 27/41/40 9/43/42
f 25/44/43 64/45/44 70/46/45 51/47/46
f 64/45/44 20/48/47 55/49/48 70/46/45
f 70/46/45 55/49/48 5/50/49 36/51/50
f 51/47/46 70/46/45 36/51/50 15/52/51
f 50/53/34 24/54/52 63/55/53 71/56/54
f 71/56/54 54/57/55 2/40/39 37/39/38
f 77/58/56 47/37/36 138/36/35 140/59/57
f 92/60/58 87/61/59 46/62/60
f 88/63/61 48/64/62 85/65/63
f 90/66/64 88/67/65 85/68/66
f 20/48/47 62/69/67 72/70/19 55/49/48
f 22/71/68 65/72/69 120/73/70 107/74/71
f 108/20/20 119/23/23 41/26/26 12/21/21
f 55/49/48 72/70/19 35/22/22 5/50/49
f 111/31/30 122/75/72 32/76/73 7/32/31
f 122/75/72 43/13/13 11/18/18 32/76/73
f 39/8/8 4/7/7 45/77/74 126/78/75
f 13/79/76 110/80/77 82/81/29 58/82/78
f 18/83/79 61/84/80 73/85/81 53/86/82
f 61/84/80 23/1/1 44/4/4 73/85/81
f 73/85/81 44/4/4 10/9/9 29/87/83
f 53/86/82 73/85/81 29/87/83 3/88/84
f 3/88/84 29/87/83 74/89/85 30/90/86
f 114/91/87 125/92/88 52/11/11 17/10/10
f 29/87/83 10/9/9 113/93/89 74/89/85
f 30/90/86 74/89/85 49/27/27 13/79/76
f 35/22/22 12/21/21 48/64/62 88/94/61
f 87/95/59 42/42/41 9/43/42 38/96/90
f 36/51/50 88/97/61 89/98/91
f 24/54/52 50/53/34 75/34/33 60/99/92
f 48/64/62 77/58/56 140/59/57 16/100/93
f 34/24/24 75/34/33 47/37/36 6/25/25
f 18/83/79 59/101/94 76/102/95 26/103/96
f 59/101/94 25/44/43 51/47/46 76/102/95
f 76/102/95 51/47/46 15/52/51 46/62/60
f 26/103/96 76/102/95 46/62/60 1/104/97
f 12/21/21 41/26/26 77/58/56 48/64/62
f 41/26/26 6/25/25 47/37/36 77/58/56
f 141/105/98 137/106/99 37/39/38 69/38/37
f 16/107/93 141/105/98 69/38/37 42/42/41
f 74/108/85 114/91/87 17/10/10 49/27/27
f 125/92/88 45/109/74 14/14/14 52/11/11
f 7/32/31 32/76/73 128/110/100 33/33/32
f 11/18/18 40/17/17 83/111/101 117/112/102
f 3/88/84 30/90/86 78/113/103 53/86/82
f 30/90/86 13/79/76 58/82/78 78/113/103
f 78/113/103 58/82/78 25/44/43 59/101/94
f 53/86/82 78/113/103 59/101/94 18/83/79
f 34/24/24 21/114/104 60/99/92 75/34/33
f 31/15/15 14/14/14 57/115/105 79/116/106
f 24/54/52 60/99/92 105/117/107 104/118/107
f 56/119/108 79/116/109 60/99/92 21/114/104
f 1/104/97 38/96/90 80/120/110 26/103/96
f 132/121/111 134/122/112 66/2/2 23/1/1
f 38/96/90 9/43/42 131/123/113 80/120/110
f 26/103/96 80/120/110 61/84/80 18/83/79
f 33/124/32 129/125/114 62/69/67 20/48/47
f 116/126/115 83/127/101 65/72/69 22/71/68
f 32/76/73 11/18/18 117/112/102 128/110/100
f 45/109/74 4/7/7 28/6/6 81/128/116
f 81/128/116 28/6/6 19/5/5 63/55/53
f 81/128/117 63/55/117 101/129/117 102/130/117
f 10/9/9 39/8/8 126/78/75 113/93/89
f 13/79/76 49/27/27 123/29/28 110/80/77
f 82/81/29 33/33/32 20/48/47 64/45/44
f 58/82/78 82/81/29 64/45/44 25/44/43
f 129/125/114 116/126/115 22/71/68 62/69/67
f 40/17/17 8/16/16 56/119/108 83/127/101
f 83/127/101 56/119/108 21/114/104 65/72/69
f 65/72/69 21/114/104 34/131/24 120/73/70
f 80/132/110 132/121/111 23/1/1 61/84/80
f 134/122/112 54/57/55 19/5/5 66/2/2
f 27/41/40 2/40/39 54/133/55 135/134/118
f 19/5/5 54/57/55 71/56/54 63/55/53
f 14/14/14 45/109/74 81/128/116 57/115/105
f 79/116/109 56/119/108 97/135/119 98/136/119
f 48/64/62 16/100/93 85/65/63
f 84/137/120 16/100/93 42/42/41
f 93/138/121 86/139/121 84/140/122 91/141/123
f 15/52/51 92/142/58 46/62/60
f 16/100/93 86/143/124 85/65/63
f 94/144/125 92/142/58 15/52/51
f 93/138/121 90/66/64 85/68/66 86/139/121
f 15/52/51 36/51/50 89/145/91
f 46/62/60 87/146/59 38/96/90 1/104/97
f 86/143/124 16/100/93 84/137/120
f 5/50/49 35/22/22 88/97/61 36/51/50
f 91/141/123 84/140/122 87/147/126
f 89/145/91 94/144/125 15/52/51
f 90/148/127 93/149/128 94/144/125 89/145/91
f 93/150/128 91/151/129 92/142/58 94/144/125
f 89/98/91 88/152/61 90/153/127
f 87/61/59 92/60/58 91/154/129
f 87/155/59 84/137/120 42/42/41
f 97/135/130 96/156/130 95/157/130 98/136/130
f 56/119/131 8/16/131 96/156/131 97/135/131
f 8/16/132 31/15/132 95/157/132 96/156/132
f 31/15/133 79/116/133 98/136/133 95/157/133
f 99/158/134 102/130/134 101/129/134 100/159/134
f 63/55/53 24/54/52 100/159/135 101/129/135
f 57/115/136 81/128/136 102/130/136 99/158/136
f 24/54/137 57/115/137 99/158/137 100/159/137
f 106/160/138 103/161/138 104/118/138 105/117/138
f 79/116/139 57/115/139 103/161/139 106/160/139
f 60/99/140 79/116/140 106/160/140 105/117/140
f 57/115/141 24/54/141 104/118/141 103/161/141
f 107/162/142 109/163/143 72/164/144
f 109/163/145 108/165/146 72/164/147
f 110/166/148 112/167/149 82/168/150
f 112/167/151 111/169/152 82/168/153
f 113/170/154 115/171/155 74/172/156
f 115/171/157 114/173/158 74/172/159
f 116/174/160 118/175/161 83/176/162
f 118/175/163 117/177/164 83/176/165
f 119/178/166 121/179/167 34/180/168
f 121/179/169 120/181/170 34/180/171
f 122/182/172 124/183/173 43/184/174
f 124/183/175 123/185/176 43/184/177
f 125/186/178 127/187/179 45/188/180
f 127/187/181 126/189/182 45/188/183
f 128/190/184 130/191/185 33/192/186
f 130/191/187 129/193/188 33/192/189
f 107/162/142 120/194/170 121/195/169 109/163/143
f 109/163/145 121/195/167 119/178/166 108/196/146
f 110/166/148 123/197/176 124/183/175 112/167/149
f 112/167/151 124/183/173 122/182/172 111/198/152
f 113/170/154 126/199/182 127/200/181 115/201/155
f 115/201/157 127/200/179 125/186/178 114/202/158
f 116/174/160 129/203/188 130/204/187 118/175/161
f 118/175/163 130/204/185 128/190/184 117/205/164
f 62/69/67 22/71/68 107/74/71 72/70/19
f 131/206/190 133/207/191 80/208/192
f 133/207/193 132/209/194 80/208/195
f 134/210/196 136/211/197 54/212/198
f 136/211/199 135/213/200 54/212/201
f 131/206/190 135/214/200 136/215/199 133/216/191
f 133/216/193 136/215/197 134/210/196 132/217/194
f 9/43/42 27/41/40 135/134/118 131/123/113
f 137/218/202 139/219/203 50/220/204
f 139/219/205 138/221/206 50/220/207
f 140/222/208 142/223/209 16/224/210
f 142/223/211 141/225/212 16/224/213
f 137/218/202 141/226/212 142/227/211 139/219/203
f 139/219/205 142/227/209 140/222/208 138/228/206
f 50/53/34 71/56/54 37/39/38 137/106/99
f 159/229/214 152/230/215 156/231/216 143/232/217
f 172/233/218 176/234/219 174/235/220 175/236/221
f 144/237/222 158/238/223 152/230/215 159/229/214
f 153/239/224 145/240/225 149/241/226 156/231/216
f 149/241/226 145/240/225 147/242/227 146/243/228
f 164/244/229 168/245/230 167/246/231 166/247/232
f 150/248/233 146/243/228 147/242/227 148/249/234
f 157/250/235 153/239/224 154/251/236 155/252/237
f 151/253/238 148/249/234 147/242/227 145/240/225
f 158/238/223 155/252/237 154/251/236 152/230/215
f 165/254/239 171/255/240 151/253/238 157/250/235
f 178/256/241 181/257/242 172/233/218 164/244/229
f 180/258/243 160/259/244 150/248/233 170/260/245
f 150/248/233 160/259/244 162/261/246 146/243/228
f 171/255/240 175/236/221 174/235/220 173/262/247
f 170/260/245 173/262/247 174/235/220 176/234/219
f 157/250/235 151/253/238 145/240/225 153/239/224
f 163/263/248 166/247/232 167/246/231 169/264/249
f 165/254/239 169/264/249 167/246/231 168/245/230
f 156/231/216 149/241/226 161/265/250 143/232/217
f 156/231/216 152/230/215 154/251/236 153/239/224
f 146/243/228 162/261/246 161/265/250 149/241/226
f 163/263/248 177/266/251 179/267/252 166/247/232
f 166/247/232 179/267/252 178/256/241 164/244/229
f 180/258/243 170/260/245 176/234/219 182/268/253
f 182/268/253 176/234/219 172/233/218 181/257/242
f 171/255/240 165/254/239 168/245/230 175/236/221
f 175/236/221 168/245/230 164/244/229 172/233/218
f 158/238/223 163/263/248 169/264/249 155/252/237
f 155/252/237 169/264/249 165/254/239 157/250/235
f 170/260/245 150/248/233 148/249/234 173/262/247
f 173/262/247 148/249/234 151/253/238 171/255/240
f 144/237/222 177/266/251 163/263/248 158/238/223
f 199/269/254 183/270/255 196/271/256 192/272/257
f 212/273/258 215/274/259 214/275/260 216/276/261
f 184/277/262 199/269/254 192/272/257 198/278/263
f 193/279/264 196/271/256 189/280/265 185/281/266
f 189/280/265 186/282/267 187/283/268 185/281/266
f 204/284/269 206/285/270 207/286/271 208/287/272
f 190/288/273 188/289/274 187/283/268 186/282/267
f 197/290/275 195/291/276 194/292/277 193/279/264
f 191/293/278 185/281/266 187/283/268 188/289/274
f 198/278/263 192/272/257 194/292/277 195/291/276
f 205/294/279 197/290/275 191/293/278 211/295/280
f 218/296/281 204/284/269 212/273/258 221/297/282
f 220/298/283 210/299/284 190/288/273 200/300/285
f 190/288/273 186/282/267 202/301/286 200/300/285
f 211/295/280 213/302/287 214/275/260 215/274/259
f 210/299/284 216/276/261 214/275/260 213/302/287
f 197/290/275 193/279/264 185/281/266 191/293/278
f 203/303/288 209/304/289 207/286/271 206/285/270
f 205/294/279 208/287/272 207/286/271 209/304/289
f 196/271/256 183/270/255 201/305/290 189/280/265
f 196/271/256 193/279/264 194/292/277 192/272/257
f 186/282/267 189/280/265 201/305/290 202/301/286
f 203/303/288 206/285/270 219/306/291 217/307/292
f 206/285/270 204/284/269 218/296/281 219/306/291
f 220/298/283 222/308/293 216/276/261 210/299/284
f 222/308/293 221/297/282 212/273/258 216/276/261
f 211/295/280 215/274/259 208/287/272 205/294/279
f 215/274/259 212/273/258 204/284/269 208/287/272
f 198/278/263 195/291/276 209/304/289 203/303/288
f 195/291/276 197/290/275 205/294/279 209/304/289
f 210/299/284 213/302/287 188/289/274 190/288/273
f 213/302/287 211/295/280 191/293/278 188/289/274
f 184/277/262 198/278/263 203/303/288 217/307/292
