# Blender v3.4.1 OBJ File: 'March2026_AvianSwordsman_Assets_Export.blend'
# www.blender.org
mtllib Trainingdummy_Base_Trainingdummy_Post_Trainingdummy_Chest_Trainingdummy_ArmLeft.mtl
o Trainingdummy_ArmLeft
v 0.575269 1.025147 0.162989
v 0.283677 1.176334 0.149199
v 0.575269 1.025147 -0.162989
v 0.283677 1.176334 -0.149199
v 0.713033 1.320583 0.162989
v 0.409786 1.446774 0.149199
v 0.713033 1.320583 -0.162989
v 0.409786 1.446774 -0.149199
v 0.415306 1.074591 0.185781
v 0.415306 1.074591 -0.185781
v 0.572335 1.411340 -0.185781
v 0.572335 1.411340 0.185781
v 0.656199 1.167247 -0.195283
v 0.321315 1.323406 -0.174666
v 0.656199 1.167247 0.195283
v 0.321315 1.323406 0.174666
v 0.494437 1.242678 0.246180
v 0.494437 1.242678 -0.246180
v 0.573668 0.990260 0.000000
v 0.247498 1.165105 -0.000000
v 0.738729 1.344234 -0.000000
v 0.395132 1.481707 -0.000000
v 0.598477 1.465793 -0.000000
v 0.390397 1.019563 -0.000000
v 0.264117 1.350078 -0.000000
v 0.565405 1.209585 -0.000000
v 0.573538 0.999840 0.101885
v 0.333646 1.131362 0.168840
v 0.257749 1.168286 -0.090587
v 0.529883 1.006556 -0.199019
v 0.609364 1.076669 -0.186656
v 0.366801 1.402148 -0.167450
v 0.698102 1.367301 -0.199019
v 0.731306 1.338176 -0.101885
v 0.399284 1.471809 0.090587
v 0.698101 1.367301 0.199019
v 0.695480 1.261347 0.186656
v 0.290233 1.237948 0.167450
v 0.529883 1.006556 0.199019
v 0.333646 1.131362 -0.168840
v 0.476355 1.437404 -0.168840
v 0.476355 1.437404 0.168840
v 0.450562 1.149392 0.232404
v 0.592347 1.453451 0.103088
v 0.537696 1.336251 -0.232404
v 0.395911 1.032192 -0.103088
v 0.695480 1.261347 -0.186656
v 0.290233 1.237948 -0.167450
v 0.609363 1.076669 0.186656
v 0.366801 1.402148 0.167450
v 0.537696 1.336251 0.232404
v 0.450562 1.149392 -0.232404
v 0.617980 1.185069 -0.259651
v 0.617980 1.185069 0.259651
v 0.277249 1.343954 0.096836
v 0.398841 1.287255 0.220595
v 0.398841 1.287255 -0.220595
v 0.573538 0.999840 -0.101885
v 0.257749 1.168286 0.090587
v 0.731306 1.338176 0.101885
v 0.399284 1.471809 -0.090587
v 0.592347 1.453451 -0.103088
v 0.395911 1.032192 0.103088
v 0.277249 1.343954 -0.096836
v 0.610363 1.188621 -0.092645
v 0.318174 1.431718 -0.000000
v 0.508246 0.949745 -0.000000
v 0.727713 1.420393 -0.000000
v 0.236324 1.256191 -0.000000
v 0.649517 1.272585 -0.000000
v 0.492068 1.487182 -0.000000
v 0.305613 1.087328 -0.000000
v 0.313134 1.096624 -0.094957
v 0.441588 1.372095 -0.208992
v 0.489782 1.475446 0.094957
v 0.361327 1.199975 0.208992
v 0.642601 1.257449 0.076004
v 0.248952 1.253238 0.094175
v 0.568591 1.083823 0.246214
v 0.720246 1.409049 0.112632
v 0.663792 1.287982 -0.246214
v 0.512137 0.962757 -0.112632
v 0.568591 1.083823 -0.246214
v 0.663792 1.287982 0.246214
v 0.328553 1.423942 0.094175
v 0.578360 1.119683 0.076004
v 0.441588 1.372095 0.208992
v 0.361327 1.199975 -0.208992
v 0.578360 1.119683 -0.076004
v 0.328553 1.423942 -0.094176
v 0.512137 0.962757 0.112632
v 0.720246 1.409049 -0.112632
v 0.248952 1.253238 -0.094176
v 0.642601 1.257449 -0.076004
v 0.489782 1.475446 -0.094957
v 0.313134 1.096624 0.094957
v 0.803219 1.363101 -0.020069
v 0.797822 1.358697 -0.094152
v 0.710425 1.164104 0.239638
v 0.738988 1.232527 0.233365
v 0.738988 1.232527 -0.233365
v 0.710425 1.164104 -0.239638
v 0.616140 0.989482 0.205667
v 0.640931 1.026946 0.222876
v 0.600574 0.935696 -0.094152
v 0.600669 0.928730 -0.020069
v 0.583138 0.975964 0.231866
v 0.611284 1.032148 0.266183
v 0.682635 1.177063 -0.286441
v 0.715947 1.251894 -0.276671
v 0.553098 0.899270 -0.020069
v 0.555927 0.908731 -0.101967
v 0.682635 1.177063 0.286441
v 0.715947 1.251894 0.276671
v 0.795209 1.418478 -0.020069
v 0.789780 1.410230 -0.101967
v 0.905218 1.136088 0.103010
v 0.929187 1.126014 0.078000
v 0.916210 1.159661 0.077000
v 0.916210 1.159661 -0.077000
v 0.929187 1.126014 -0.078000
v 0.905218 1.136088 -0.103010
v 0.829142 0.972943 0.077000
v 0.863259 0.984630 0.078000
v 0.840134 0.996516 0.103010
v 0.840134 0.996516 -0.103010
v 0.863259 0.984630 -0.078000
v 0.829142 0.972943 -0.077000
v 0.436541 1.361476 0.057190
v 0.425549 1.337904 0.083200
v 0.425549 1.337904 -0.083200
v 0.436541 1.361476 -0.057191
v 0.366217 1.210667 -0.057191
v 0.377209 1.234239 -0.083200
v 0.377209 1.234239 0.083200
v 0.366217 1.210667 0.057190
v 0.244761 1.422207 0.083200
v 0.255753 1.445779 0.057191
v 0.221201 1.433203 0.057200
v 0.244761 1.422207 -0.083200
v 0.221201 1.433203 -0.057200
v 0.255753 1.445779 -0.057191
v 0.185430 1.294969 -0.057191
v 0.172854 1.329521 -0.057200
v 0.196422 1.318542 -0.083200
v 0.196422 1.318542 0.083200
v 0.172854 1.329522 0.057200
v 0.185430 1.294969 0.057191
v 0.610363 1.188621 0.092645
v 0.571210 1.104656 -0.000000
v 0.671543 1.160092 0.159689
v 0.660611 1.165190 0.123064
v 0.604055 1.015364 0.000000
v 0.608602 1.053656 0.000000
v 0.712620 1.276723 -0.000000
v 0.739031 1.304819 -0.000000
v 0.715130 1.285704 0.132264
v 0.692394 1.260748 0.100037
v 0.607839 1.079419 0.100037
v 0.603336 1.045961 0.132264
v 0.671543 1.160092 -0.159689
v 0.660611 1.165190 -0.123064
v 0.607839 1.079419 -0.100036
v 0.603336 1.045961 -0.132263
v 0.692394 1.260748 -0.100036
v 0.715130 1.285704 -0.132263
vt 0.941289 0.769121
vt 0.920328 0.780522
vt 0.920902 0.785693
vt 0.941222 0.775260
vt 0.903329 0.800991
vt 0.904908 0.804206
vt 0.908902 0.812340
vt 0.921678 0.803588
vt 0.941154 0.796037
vt 0.941289 0.878830
vt 0.920328 0.878830
vt 0.920902 0.921148
vt 0.941222 0.924772
vt 0.903329 0.878830
vt 0.904908 0.919201
vt 0.908902 0.945321
vt 0.921678 0.954074
vt 0.941154 0.961624
vt 0.941289 0.988540
vt 0.920328 0.977138
vt 0.920902 0.971967
vt 0.941222 0.982401
vt 0.903329 0.956670
vt 0.904908 0.953455
vt 0.908902 0.945321
vt 0.921678 0.954074
vt 0.941154 0.961624
vt 0.941289 0.878830
vt 0.920328 0.878830
vt 0.920902 0.836513
vt 0.941222 0.832889
vt 0.903329 0.878830
vt 0.904908 0.838460
vt 0.908902 0.812340
vt 0.921678 0.803588
vt 0.941154 0.796037
vt 0.984216 0.796974
vt 0.982887 0.818123
vt 0.981712 0.817422
vt 0.982887 0.796974
vt 0.982526 0.823874
vt 0.981083 0.822748
vt 0.975977 0.780232
vt 0.977863 0.793529
vt 0.975977 0.825011
vt 0.973827 0.792734
vt 0.981712 0.776526
vt 0.982526 0.796974
vt 0.981082 0.771201
vt 0.890787 0.878830
vt 0.893666 0.835675
vt 0.896188 0.836861
vt 0.893666 0.878830
vt 0.904908 0.804206
vt 0.968379 0.878830
vt 0.967987 0.828636
vt 0.967504 0.790138
vt 0.976958 0.878830
vt 0.975977 0.977430
vt 0.967987 0.988555
vt 0.967987 0.988555
vt 0.975977 0.977430
vt 0.968379 0.994543
vt 0.967987 0.988555
vt 0.967504 0.967523
vt 0.976958 0.981987
vt 0.975977 0.977430
vt 0.973827 0.964927
vt 0.968379 0.878830
vt 0.967987 0.929025
vt 0.967504 0.967523
vt 0.976958 0.981987
vt 0.968379 0.994543
vt 0.975977 0.932650
vt 0.973827 0.964927
vt 0.968379 0.763117
vt 0.967987 0.769105
vt 0.967504 0.790138
vt 0.975977 0.780232
vt 0.973827 0.792734
vt 0.941222 0.832889
vt 0.967987 0.828636
vt 0.975977 0.825011
vt 0.976958 0.878830
vt 0.941222 0.924772
vt 0.967987 0.929025
vt 0.975977 0.932650
vt 0.893666 0.921986
vt 0.896188 0.920800
vt 0.904908 0.919201
vt 0.981712 0.776526
vt 0.982887 0.775825
vt 0.982526 0.770074
vt 0.981083 0.771201
vt 0.980203 0.827239
vt 0.978847 0.860996
vt 0.978847 0.860996
vt 0.980203 0.827239
vt 0.920902 0.921148
vt 0.920902 0.836513
vt 0.904908 0.838460
vt 0.977863 0.860948
vt 0.981712 0.817422
vt 0.982887 0.796974
vt 0.982526 0.796974
vt 0.981082 0.822748
vt 0.976958 0.775674
vt 0.980203 0.789649
vt 0.978847 0.792639
vt 0.896188 0.920800
vt 0.904908 0.953454
vt 0.893666 0.878830
vt 0.968379 0.763117
vt 0.976958 0.775674
vt 0.941222 0.775260
vt 0.967987 0.769105
vt 0.941222 0.982401
vt 0.896188 0.836861
vt 0.978847 0.793481
vt 0.920902 0.971967
vt 0.920902 0.785693
vt 0.967987 0.929025
vt 0.975977 0.932650
vt 0.975977 0.825011
vt 0.967987 0.828636
vt 0.967504 0.790138
vt 0.973827 0.792734
vt 0.976958 0.878830
vt 0.968379 0.878830
vt 0.967987 0.929025
vt 0.975977 0.932650
vt 0.967987 0.769105
vt 0.975977 0.780232
vt 0.968379 0.878830
vt 0.976958 0.878830
vt 0.968184 0.571595
vt 0.968184 0.678405
vt 0.968184 0.678405
vt 0.968184 0.571595
vt 0.952842 0.696207
vt 0.967454 0.696207
vt 0.967454 0.696207
vt 0.952842 0.696207
vt 0.952842 0.576053
vt 0.967454 0.571983
vt 0.967454 0.678017
vt 0.952842 0.673946
vt 0.945485 0.673947
vt 0.952842 0.673947
vt 0.952842 0.576053
vt 0.945485 0.576053
vt 0.952842 0.553793
vt 0.967454 0.553793
vt 0.967454 0.553793
vt 0.952842 0.553793
vt 0.944527 0.576045
vt 0.944527 0.673955
vt 0.944527 0.673955
vt 0.944526 0.576045
vt 0.967454 0.678017
vt 0.967454 0.571983
vt 0.945485 0.553793
vt 0.945485 0.553793
vt 0.945485 0.696207
vt 0.945485 0.696207
vt 0.945485 0.576053
vt 0.945485 0.673947
vt 0.977862 0.860948
vt 0.978847 0.792639
vt 0.978847 0.861839
vt 0.980203 0.864828
vt 0.977862 0.793529
vt 0.978847 0.861839
vt 0.978847 0.793481
vn -0.5695 -0.8220 -0.0000
vn -0.7154 -0.6987 -0.0000
vn -0.6856 -0.6685 -0.2882
vn -0.5549 -0.7738 -0.3054
vn -0.9288 -0.3706 0.0000
vn -0.8922 -0.3539 -0.2806
vn -0.7514 -0.2988 -0.5884
vn -0.5781 -0.4679 -0.6684
vn -0.4615 -0.5515 -0.6949
vn -0.1529 0.0713 -0.9857
vn -0.3201 0.1492 -0.9356
vn -0.1853 0.4044 -0.8956
vn -0.0303 0.3511 -0.9358
vn -0.6210 0.2896 -0.7284
vn -0.4787 0.5328 -0.6978
vn -0.2541 0.7677 -0.5884
vn -0.0131 0.7437 -0.6684
vn 0.1258 0.7080 -0.6949
vn 0.2637 0.9646 0.0000
vn 0.0753 0.9972 0.0000
vn 0.0714 0.9549 0.2882
vn 0.2361 0.9225 0.3054
vn -0.3132 0.9497 -0.0000
vn -0.3024 0.9110 0.2806
vn -0.2541 0.7677 0.5884
vn -0.0131 0.7437 0.6684
vn 0.1258 0.7080 0.6949
vn -0.1529 0.0713 0.9857
vn -0.3201 0.1492 0.9356
vn -0.4289 -0.1180 0.8956
vn -0.2885 -0.2025 0.9358
vn -0.6210 0.2896 0.7284
vn -0.7159 0.0242 0.6978
vn -0.7514 -0.2988 0.5884
vn -0.5781 -0.4679 0.6684
vn -0.4615 -0.5515 0.6949
vn 0.9063 -0.4226 0.0000
vn 0.4052 -0.9142 0.0000
vn 0.4507 -0.7479 -0.4874
vn 0.6830 -0.3185 -0.6574
vn 0.4878 -0.8730 0.0000
vn 0.6670 -0.6702 -0.3255
vn 0.6349 -0.7529 0.1735
vn 0.8443 -0.5229 0.1170
vn 0.7746 -0.5014 0.3854
vn 0.6520 -0.7062 0.2760
vn 0.8626 0.1355 -0.4874
vn 0.7350 -0.3427 -0.5850
vn 0.9421 -0.0801 -0.3255
vn -0.9063 0.4226 -0.0000
vn -0.9959 0.0910 -0.0000
vn -0.9448 0.0941 0.3140
vn -0.8528 0.3977 0.3384
vn -0.8922 -0.3539 0.2806
vn -0.1719 0.1143 0.9785
vn -0.3531 -0.2191 0.9096
vn -0.4825 -0.4633 0.7434
vn 0.8225 -0.4147 0.3892
vn 0.7221 -0.4250 0.5459
vn 0.1525 -0.1249 -0.9804
vn 0.2286 0.9730 -0.0310
vn 0.2915 0.9054 0.3086
vn 0.1748 0.6917 0.7007
vn 0.9989 -0.0363 0.0283
vn 0.9866 0.1423 0.0800
vn 0.9759 0.1195 0.1824
vn 0.9848 -0.0024 0.1735
vn 0.9188 0.0069 0.3946
vn 0.9369 -0.0563 0.3450
vn -0.1719 0.1143 -0.9785
vn -0.0902 0.3157 -0.9446
vn 0.1748 0.6917 -0.7007
vn 0.2858 0.0413 0.9574
vn 0.9113 -0.1966 -0.3618
vn 0.8711 -0.0781 -0.4848
vn 0.9188 0.0069 -0.3946
vn 0.9369 -0.0563 -0.3450
vn -0.5985 -0.8005 -0.0310
vn -0.5942 -0.7651 -0.2480
vn -0.4175 -0.5785 -0.7007
vn 0.2908 -0.9561 0.0357
vn 0.6709 -0.7121 -0.2070
vn 0.5406 -0.7870 -0.2974
vn 0.5853 -0.7083 -0.3946
vn 0.6454 -0.6816 -0.3450
vn -0.2885 -0.2025 -0.9358
vn -0.2378 -0.2297 -0.9438
vn 0.6787 -0.5178 -0.5208
vn 0.7365 -0.5349 -0.4140
vn 0.7221 -0.4250 -0.5459
vn 0.8225 -0.4147 -0.3892
vn -0.0303 0.3511 0.9358
vn -0.0902 0.3157 0.9446
vn 0.8711 -0.0781 0.4848
vn 0.9113 -0.1966 0.3618
vn -0.7098 0.7044 -0.0000
vn -0.6794 0.6632 0.3140
vn -0.4787 0.5328 0.6978
vn 0.8626 0.1355 0.4874
vn 0.9608 0.2773 0.0000
vn 0.9823 0.1875 0.0000
vn 0.9421 -0.0801 0.3255
vn 0.9060 -0.4225 0.0269
vn 0.9433 -0.3107 0.1170
vn 0.9433 -0.3107 -0.1170
vn 0.9060 -0.4225 -0.0269
vn -0.1853 0.4044 0.8956
vn -0.4289 -0.1180 -0.8956
vn -0.7159 0.0242 -0.6978
vn 0.9767 -0.0562 -0.2070
vn 0.4507 -0.7479 0.4874
vn 0.6830 -0.3185 0.6574
vn 0.7350 -0.3427 0.5850
vn 0.6670 -0.6702 0.3255
vn 0.6699 -0.7419 0.0283
vn 0.8946 -0.4469 0.0000
vn -0.6794 0.6632 -0.3140
vn -0.3024 0.9110 -0.2806
vn -0.8528 0.3977 -0.3384
vn 0.1521 -0.2455 0.9574
vn -0.5549 -0.7738 0.3054
vn -0.5062 -0.8053 0.3086
vn 0.5406 -0.7870 0.2974
vn 0.5358 -0.8244 0.1824
vn 0.5252 -0.8472 0.0800
vn 0.2361 0.9225 -0.3054
vn 0.2042 0.9470 -0.2480
vn 0.9503 0.0918 -0.2974
vn -0.9448 0.0941 -0.3140
vn 0.8443 -0.5229 -0.1170
vn 0.0714 0.9549 -0.2882
vn -0.6856 -0.6685 0.2882
vn 0.5874 0.8078 -0.0487
vn 0.6198 -0.6171 0.4848
vn 0.7897 -0.2799 -0.5459
vn 0.5252 -0.8472 -0.0800
vn 0.7897 -0.2799 0.5459
vn 0.9866 0.1423 -0.0800
vn 0.6456 0.6729 0.3611
vn -0.3401 0.2690 -0.9011
vn 0.9194 0.3918 0.0357
vn 0.5900 -0.3145 0.7436
vn 0.5874 0.8078 0.0487
vn -0.1174 -0.8145 -0.5682
vn 0.1937 -0.0365 -0.9804
vn 0.5900 -0.3145 -0.7436
vn -0.1857 -0.9698 -0.1583
vn -0.7632 -0.6384 -0.1001
vn 0.6716 -0.1076 -0.7331
vn -0.5904 -0.1842 0.7858
vn -0.3401 0.2690 0.9011
vn -0.1857 -0.9698 0.1583
vn -0.0015 0.9950 -0.1001
vn 0.4051 0.9143 0.0000
vn 0.3878 0.9217 0.0000
vn -0.0175 0.0081 0.9998
vn -0.0345 0.0161 0.9993
vn -0.0000 0.0000 -1.0000
vn -0.0175 0.0081 -0.9998
vn -0.4400 -0.8980 0.0000
vn -0.4568 -0.8896 0.0000
vn -0.0345 0.0161 -0.9993
vn -0.4226 -0.9063 0.0000
vn 0.4226 0.9063 0.0000
vn 0.0000 -0.0000 1.0000
vn 0.7459 0.3053 0.5919
vn 0.7459 0.3053 -0.5919
vn 0.2456 -0.7677 0.5919
vn 0.2456 -0.7677 -0.5919
vn -0.2791 0.7673 0.5774
vn -0.2791 0.7673 -0.5774
vn -0.7672 -0.2794 -0.5774
vn -0.7672 -0.2794 0.5774
vn 0.2743 0.6520 0.7069
vn 0.2496 0.6627 0.7061
vn 0.9330 0.3598 -0.0000
vn 0.6285 -0.2931 -0.7204
vn 0.3241 -0.9460 0.0000
vn 0.6285 -0.2931 0.7204
vn 0.2496 0.6627 -0.7061
vn 0.2743 0.6520 -0.7069
vn -0.3472 -0.6172 -0.7061
vn -0.3231 -0.6293 -0.7069
vn -0.3472 -0.6172 0.7061
vn -0.3231 -0.6293 0.7068
vn -0.6409 0.2988 0.7071
vn -0.9397 -0.3420 0.0000
vn -0.6409 0.2988 -0.7071
vn -0.3420 0.9397 -0.0000
vn 0.2988 0.6409 0.7071
vn 0.2988 0.6409 -0.7071
vn -0.2988 -0.6409 0.7071
vn -0.2988 -0.6409 -0.7071
vn 0.9174 -0.3981 0.0000
usemtl avian_swordsman
s 1
f 24/1/1 72/2/2 73/3/3 46/4/4
f 72/2/2 20/5/5 29/6/6 73/3/3
f 73/3/3 29/6/6 4/7/7 40/8/8
f 46/4/4 73/3/3 40/8/8 10/9/9
f 18/10/10 57/11/11 74/12/12 45/13/13
f 57/11/11 14/14/14 32/15/15 74/12/12
f 74/12/12 32/15/15 8/16/16 41/17/17
f 45/13/13 74/12/12 41/17/17 11/18/18
f 23/19/19 71/20/20 75/21/21 44/22/22
f 71/20/20 22/23/23 35/24/24 75/21/21
f 75/21/21 35/24/24 6/25/25 42/26/26
f 44/22/22 75/21/21 42/26/26 12/27/27
f 17/28/28 56/29/29 76/30/30 43/31/31
f 56/29/29 16/32/32 38/33/33 76/30/30
f 76/30/30 38/33/33 2/34/34 28/35/35
f 43/31/31 76/30/30 28/35/35 9/36/36
f 26/37/37 70/38/38 77/39/39 149/40/40
f 77/39/39 70/38/38 155/41/41 158/42/42
f 27/43/43 160/44/44 49/45/45 1/46/46
f 86/47/47 149/40/40 152/48/48 159/49/49
f 25/50/50 69/51/51 78/52/52 55/53/53
f 69/51/51 20/5/5 59/54/54 78/52/52
f 78/52/52 59/54/54 2/34/34 38/33/33
f 55/53/53 78/52/52 38/33/33 16/32/32
f 54/55/55 17/28/28 43/31/31 79/56/56
f 79/56/56 43/31/31 9/36/36 39/57/57
f 15/58/58 54/55/59 79/56/59 49/45/45
f 34/59/60 92/60/60 116/61/60 98/62/60
f 68/63/61 23/19/19 44/22/22 80/64/62
f 80/64/62 44/22/22 12/27/27 36/65/63
f 21/66/64 68/63/65 80/64/66 60/67/67
f 60/67/67 80/64/66 36/65/68 5/68/69
f 53/69/70 18/10/10 45/13/13 81/70/71
f 81/70/71 45/13/13 11/18/18 33/71/72
f 68/63/73 21/66/73 97/72/73 115/73/73
f 47/74/74 81/70/75 33/71/76 7/75/77
f 67/76/78 24/1/1 46/4/4 82/77/79
f 82/77/79 46/4/4 10/9/9 30/78/80
f 21/66/81 34/59/81 98/62/81 97/72/81
f 58/79/82 82/77/83 30/78/84 3/80/85
f 30/78/80 10/9/9 52/81/86 83/82/87
f 83/82/87 52/81/86 18/10/10 53/69/70
f 3/80/85 30/78/84 83/82/88 31/83/89
f 31/83/89 83/82/88 53/69/90 13/84/91
f 36/65/63 12/27/27 51/85/92 84/86/93
f 84/86/93 51/85/92 17/28/28 54/55/55
f 5/68/69 36/65/68 84/86/94 37/87/95
f 22/23/23 66/88/96 85/89/97 35/24/24
f 66/88/96 25/50/50 55/53/53 85/89/97
f 85/89/97 55/53/53 16/32/32 50/90/98
f 35/24/24 85/89/97 50/90/98 6/25/25
f 89/91/99 150/92/100 154/93/101 163/94/102
f 150/92/100 26/37/37 149/40/40 86/47/47
f 151/95/103 157/96/104 37/87/95 15/58/58
f 13/84/91 47/74/74 166/97/105 161/98/106
f 12/27/27 42/26/26 87/99/107 51/85/92
f 42/26/26 6/25/25 50/90/98 87/99/107
f 87/99/107 50/90/98 16/32/32 56/29/29
f 51/85/92 87/99/107 56/29/29 17/28/28
f 10/9/9 40/8/8 88/100/108 52/81/86
f 40/8/8 4/7/7 48/101/109 88/100/108
f 88/100/108 48/101/109 14/14/14 57/11/11
f 52/81/86 88/100/108 57/11/11 18/10/10
f 47/74/74 7/75/77 34/59/110 166/102/105
f 94/103/111 65/104/112 162/105/113 165/106/114
f 89/91/99 65/104/112 26/37/37 150/92/100
f 19/107/115 153/108/116 160/109/44 27/43/43
f 8/16/16 32/15/15 90/110/117 61/111/118
f 32/15/15 14/14/14 64/112/119 90/110/117
f 90/110/117 64/112/119 25/50/50 66/88/96
f 61/111/118 90/110/117 66/88/96 22/23/23
f 19/107/120 67/76/120 111/113/120 106/114/120
f 39/57/57 9/36/36 63/115/121 91/116/122
f 91/116/122 63/115/121 24/1/1 67/76/78
f 1/46/46 39/57/123 91/116/124 27/43/43
f 27/43/43 91/116/124 67/76/125 19/107/115
f 33/71/72 11/18/18 62/117/126 92/60/127
f 92/60/127 62/117/126 23/19/19 68/63/61
f 7/75/77 33/71/76 92/60/128 34/59/110
f 14/14/14 48/101/109 93/118/129 64/112/119
f 48/101/109 4/7/7 29/6/6 93/118/129
f 93/118/129 29/6/6 20/5/5 69/51/51
f 64/112/119 93/118/129 69/51/51 25/50/50
f 31/83/89 13/84/91 161/98/106 164/119/130
f 70/38/38 94/103/111 165/106/114 155/41/41
f 65/104/112 94/103/111 70/38/38 26/37/37
f 11/18/18 41/17/17 95/120/131 62/117/126
f 41/17/17 8/16/16 61/111/118 95/120/131
f 95/120/131 61/111/118 22/23/23 71/20/20
f 62/117/126 95/120/131 71/20/20 23/19/19
f 9/36/36 28/35/35 96/121/132 63/115/121
f 28/35/35 2/34/34 59/54/54 96/121/132
f 96/121/132 59/54/54 20/5/5 72/2/2
f 63/115/121 96/121/132 72/2/2 24/1/1
f 37/87/133 84/86/133 114/122/133 100/123/133
f 104/124/134 108/125/134 107/126/134 103/127/134
f 102/128/135 109/129/135 110/130/135 101/131/135
f 106/114/136 111/113/136 112/132/136 105/133/136
f 100/123/137 114/122/137 113/134/137 99/135/137
f 98/62/138 116/61/138 115/73/138 97/72/138
f 49/45/139 79/56/139 108/125/139 104/124/139
f 53/69/70 81/70/71 110/130/140 109/129/140
f 58/79/141 19/107/141 106/114/141 105/133/141
f 47/74/142 13/84/142 102/128/142 101/131/142
f 81/70/143 47/74/143 101/131/143 110/130/143
f 39/57/144 1/46/144 103/127/144 107/126/144
f 82/77/145 58/79/145 105/133/145 112/132/145
f 15/58/146 37/87/146 100/123/146 99/135/146
f 13/84/147 53/69/147 109/129/147 102/128/147
f 67/76/78 82/77/79 112/132/148 111/113/148
f 1/46/149 49/45/149 104/124/149 103/127/149
f 79/56/56 39/57/57 107/126/150 108/125/150
f 84/86/93 54/55/55 113/134/151 114/122/151
f 54/55/152 15/58/152 99/135/152 113/134/152
f 92/60/127 68/63/61 115/73/153 116/61/153
f 127/136/37 121/137/37 118/138/37 124/139/37
f 129/140/154 119/141/155 120/142/155 132/143/154
f 135/144/156 125/145/157 117/146/157 130/147/156
f 140/148/158 131/149/159 134/150/159 145/151/158
f 133/152/160 128/153/161 123/154/161 136/155/160
f 147/156/50 139/157/50 141/158/50 144/159/50
f 131/149/159 122/160/162 126/161/162 134/150/159
f 143/162/163 133/152/160 136/155/160 148/163/163
f 138/164/164 129/140/154 132/143/154 142/165/164
f 146/166/165 135/144/156 130/147/156 137/167/165
f 117/146/166 118/138/166 119/141/166
f 120/142/167 121/137/167 122/160/167
f 123/154/168 124/139/168 125/145/168
f 126/161/169 127/136/169 128/153/169
f 137/167/170 138/164/170 139/157/170
f 140/148/171 141/158/171 142/165/171
f 143/162/172 144/159/172 145/151/172
f 146/166/173 147/156/173 148/163/173
f 130/147/174 117/146/175 119/141/175 129/140/174
f 118/138/176 121/137/176 120/142/176 119/141/176
f 121/137/177 127/136/177 126/161/177 122/160/177
f 127/136/178 124/139/178 123/154/178 128/153/178
f 124/139/179 118/138/179 117/146/179 125/145/179
f 122/160/180 131/149/181 132/143/181 120/142/180
f 128/153/182 133/152/183 134/150/183 126/161/182
f 125/145/184 135/144/185 136/155/185 123/154/184
f 146/166/186 137/167/186 139/157/186 147/156/186
f 143/162/187 148/163/187 147/156/187 144/159/187
f 140/148/188 145/151/188 144/159/188 141/158/188
f 138/164/189 142/165/189 141/158/189 139/157/189
f 137/167/190 130/147/174 129/140/174 138/164/190
f 131/149/181 140/148/191 142/165/191 132/143/181
f 148/163/192 136/155/185 135/144/185 146/166/192
f 133/152/183 143/162/193 145/151/193 134/150/183
f 157/168/104 60/67/67 5/68/69 37/87/95
f 58/79/82 164/169/130 153/108/116 19/107/115
f 166/170/105 34/59/110 21/66/64 156/171/194
f 149/40/40 77/39/39 158/42/42 152/48/48
f 3/80/85 31/83/89 164/172/130 58/79/82
f 150/92/100 86/47/47 159/49/49 154/93/101
f 156/171/194 21/66/64 60/67/67 157/173/104
f 65/104/112 89/91/99 163/94/102 162/105/113
f 156/171/194 157/173/104 158/42/42 155/41/41
f 152/48/48 158/42/42 157/96/104 151/95/103
f 154/93/101 159/49/49 160/109/44 153/108/116
f 151/95/103 160/174/44 159/49/49 152/48/48
f 162/105/113 163/94/102 164/119/130 161/98/106
f 153/108/116 164/169/130 163/94/102 154/93/101
f 155/41/41 165/106/114 166/170/105 156/171/194
f 161/98/106 166/97/105 165/106/114 162/105/113
f 160/174/44 151/95/103 15/58/58 49/45/45
