# Blender v3.4.1 OBJ File: 'September2025_Cleric_Assets_Export.blend'
# www.blender.org
mtllib Cleric_Mace.mtl
o Cleric_Mace
v -0.000005 -0.444104 -0.000009
v -0.000003 0.566951 -0.047067
v -0.034900 0.566951 -0.033819
v 0.034874 0.566951 0.033806
v 0.047381 0.566951 -0.000009
v -0.047404 0.566951 -0.000009
v -0.034900 0.566951 0.033801
v -0.000003 0.566951 0.047049
v 0.034874 0.566951 -0.033824
v -0.034900 -0.250454 -0.033819
v -0.034900 0.238560 -0.033819
v 0.047381 -0.250454 -0.000009
v 0.047381 0.238560 -0.000009
v -0.034900 -0.250454 0.033801
v -0.034900 0.238560 0.033801
v 0.034874 -0.250454 -0.033824
v 0.034874 0.238560 -0.033824
v -0.000003 0.238560 -0.047067
v -0.000003 -0.250454 -0.047067
v 0.034874 0.238560 0.033806
v 0.034874 -0.250454 0.033806
v -0.047404 0.238560 -0.000009
v -0.047404 -0.250454 -0.000009
v -0.000003 0.238560 0.047049
v -0.000003 -0.250454 0.047049
v -0.042638 0.184615 -0.041322
v 0.057902 0.184615 -0.000009
v -0.042639 0.184615 0.041304
v 0.042620 0.184615 -0.041329
v 0.000003 0.184615 -0.057511
v 0.042620 0.184615 0.041311
v -0.057918 0.184615 -0.000009
v 0.000003 0.184615 0.057492
v 0.000006 -0.161209 0.061928
v 0.000006 -0.126320 0.065015
v 0.000003 -0.143764 0.051952
v 0.000005 -0.084053 0.058100
v 0.000005 -0.048574 0.055864
v 0.000002 -0.063606 0.043503
v 0.000005 0.016564 0.055864
v 0.000005 0.051590 0.058100
v 0.000002 0.034096 0.043503
v 0.000006 0.111330 0.065015
v 0.000006 0.146655 0.061928
v 0.000003 0.127625 0.051952
v -0.062383 -0.149079 -0.000009
v -0.065492 -0.115050 -0.000009
v -0.052337 -0.134758 -0.000009
v -0.058528 -0.072299 -0.000009
v -0.056276 -0.037273 -0.000009
v -0.043827 -0.054805 -0.000009
v -0.056276 0.004145 -0.000009
v -0.058528 0.038674 -0.000009
v -0.043827 0.024425 -0.000009
v -0.065492 0.105608 -0.000009
v -0.062383 0.140496 -0.000009
v -0.052337 0.123052 -0.000009
v 0.048199 -0.134612 0.046716
v 0.045910 -0.170133 0.044498
v 0.038514 -0.150390 0.037329
v 0.041415 -0.045394 0.040140
v 0.043072 -0.080745 0.041747
v 0.032251 -0.061129 0.031258
v 0.043072 0.061094 0.041747
v 0.041415 0.025702 0.040140
v 0.032251 0.041212 0.031258
v 0.045910 0.144922 0.044498
v 0.048198 0.109720 0.046716
v 0.038514 0.126338 0.037329
v 0.000006 -0.161209 -0.061946
v 0.000006 -0.126320 -0.065033
v 0.000003 -0.143764 -0.051970
v 0.000005 -0.060545 -0.058118
v 0.000005 -0.025971 -0.055882
v 0.000002 -0.046004 -0.043521
v 0.000005 0.016564 -0.055882
v 0.000005 0.051590 -0.058118
v 0.000002 0.034096 -0.043521
v 0.000006 0.099885 -0.065033
v 0.000006 0.134337 -0.061946
v 0.000003 0.118479 -0.051970
v 0.048198 0.101496 -0.046734
v 0.045910 0.136070 -0.044516
v 0.038514 0.119766 -0.037348
v 0.041415 0.025702 -0.040159
v 0.043072 0.061094 -0.041765
v 0.032251 0.041212 -0.031276
v 0.043072 -0.063852 -0.041765
v 0.041415 -0.029152 -0.040159
v 0.032251 -0.048480 -0.031276
v 0.045910 -0.170133 -0.044516
v 0.048198 -0.134612 -0.046734
v 0.038514 -0.150390 -0.037348
v -0.045925 0.144921 0.044491
v -0.048214 0.109719 0.046709
v -0.038530 0.126337 0.037323
v -0.043087 0.042082 0.041741
v -0.041430 0.007422 0.040134
v -0.032265 0.026976 0.031253
v -0.041430 -0.045393 0.040134
v -0.043087 -0.080743 0.041741
v -0.032265 -0.061128 0.031253
v -0.048214 -0.118023 0.046709
v -0.045925 -0.152278 0.044491
v -0.038530 -0.137134 0.037323
v 0.062371 0.140496 -0.000009
v 0.065479 0.105608 -0.000009
v 0.052323 0.123052 -0.000009
v 0.058515 0.064502 -0.000009
v 0.056264 0.028979 -0.000009
v 0.043815 0.043764 -0.000009
v 0.056264 -0.037273 -0.000009
v 0.058515 -0.072299 -0.000009
v 0.043815 -0.054805 -0.000009
v 0.065479 -0.137586 -0.000009
v 0.062371 -0.173334 -0.000009
v 0.052323 -0.152766 -0.000009
v -0.045925 0.136071 -0.044509
v -0.048214 0.101496 -0.046727
v -0.038530 0.119767 -0.037342
v -0.043087 0.042082 -0.041759
v -0.041430 0.007422 -0.040152
v -0.032265 0.026976 -0.031271
v -0.041430 -0.029153 -0.040152
v -0.043087 -0.063854 -0.041759
v -0.032265 -0.048481 -0.031271
v -0.048214 -0.118023 -0.046727
v -0.045925 -0.152278 -0.044509
v -0.038530 -0.137134 -0.037342
v 0.050343 -0.356929 0.048796
v 0.052787 -0.288087 0.051168
v 0.059054 -0.322922 0.057242
v 0.000004 -0.356939 0.064047
v 0.000002 -0.287545 0.068154
v 0.000005 -0.322765 0.075427
v -0.052811 -0.288086 0.051160
v -0.050362 -0.356929 0.048789
v -0.059077 -0.322921 0.057233
v -0.050362 -0.356929 -0.048807
v -0.052811 -0.288086 -0.051178
v -0.059077 -0.322921 -0.057251
v 0.052787 -0.288087 -0.051186
v 0.050343 -0.356929 -0.048814
v 0.059054 -0.322922 -0.057260
v 0.000002 -0.287545 -0.068172
v 0.000004 -0.356939 -0.064065
v 0.000005 -0.322765 -0.075445
v -0.068417 -0.356920 -0.000009
v -0.071740 -0.288094 -0.000009
v -0.080250 -0.322921 -0.000009
v 0.068400 -0.356920 -0.000009
v 0.071719 -0.288095 -0.000009
v 0.080232 -0.322921 -0.000009
v 0.048681 -0.239588 -0.047317
v 0.000003 -0.239505 0.066024
v -0.066445 -0.239528 -0.000009
v -0.048700 -0.239590 0.047292
v 0.048681 -0.239588 0.047299
v 0.066429 -0.239525 -0.000009
v 0.000003 -0.239505 -0.066042
v -0.048700 -0.239590 -0.047311
v -0.000003 0.226658 -0.060367
v -0.044212 0.226859 -0.043096
v 0.044186 0.226862 0.043082
v 0.060645 0.226704 -0.000009
v -0.060670 0.226701 -0.000009
v -0.044213 0.226859 0.043078
v -0.000003 0.226658 0.060348
v 0.050173 0.194831 -0.048794
v 0.044186 0.226862 -0.043100
v 0.000004 0.194627 0.068237
v -0.050191 0.194829 0.048770
v -0.068636 0.194671 -0.000009
v 0.068619 0.194673 -0.000009
v 0.050173 0.194831 0.048775
v -0.050191 0.194829 -0.048788
v 0.000004 0.194627 -0.068256
v -0.042846 -0.202480 -0.041520
v 0.058094 -0.202482 -0.000009
v -0.042846 -0.202480 0.041502
v 0.042775 -0.202481 -0.041482
v -0.000000 -0.202480 -0.057761
v 0.042775 -0.202481 0.041464
v -0.058205 -0.202480 -0.000009
v -0.000000 -0.202480 0.057743
v 0.000002 -0.207767 -0.066071
v -0.048743 -0.207742 -0.047371
v 0.048672 -0.207717 0.047310
v 0.066402 -0.207745 -0.000009
v -0.066517 -0.207779 -0.000009
v -0.048743 -0.207742 0.047353
v 0.000002 -0.207767 0.066053
v 0.048672 -0.207717 -0.047328
v -0.000017 0.451804 -0.000000
v -0.042788 0.509411 0.131635
v -0.033050 0.482171 0.101667
v -0.015798 0.458321 0.048567
v 0.041296 0.458321 0.030016
v 0.086466 0.482171 0.062833
v 0.111958 0.509411 0.081354
v 0.090809 0.551711 0.146448
v 0.053433 0.548238 0.164501
v 0.012584 0.551711 0.171865
v 0.167330 0.551711 -0.041125
v 0.172949 0.548238 -0.000000
v 0.167330 0.551711 0.041125
v 0.041296 0.458321 -0.030016
v 0.086466 0.482171 -0.062833
v 0.111958 0.509411 -0.081354
v -0.138428 0.509412 -0.000000
v -0.106917 0.482171 -0.000000
v -0.051085 0.458321 -0.000000
v -0.111231 0.551711 0.131636
v -0.139951 0.548238 0.101667
v -0.159578 0.551711 0.065093
v -0.042788 0.509411 -0.131635
v -0.033050 0.482171 -0.101667
v -0.015798 0.458321 -0.048567
v -0.159578 0.551711 -0.065093
v -0.139951 0.548238 -0.101667
v -0.111231 0.551711 -0.131636
v 0.012584 0.551711 -0.171865
v 0.053433 0.548238 -0.164501
v 0.090809 0.551711 -0.146448
v 0.193765 0.690123 0.040229
v 0.193366 0.655139 0.062833
v 0.180403 0.620155 0.081355
v 0.180403 0.620155 -0.081355
v 0.193366 0.655139 -0.062833
v 0.193765 0.690123 -0.040229
v 0.021603 0.690123 0.196730
v -0.000017 0.655139 0.203335
v -0.021638 0.620155 0.196730
v 0.133109 0.620155 0.146449
v 0.119500 0.655139 0.164502
v 0.098125 0.690123 0.171866
v -0.180438 0.690123 0.081355
v -0.193401 0.655139 0.062833
v -0.193800 0.620155 0.040229
v -0.098160 0.620155 0.171866
v -0.119535 0.655139 0.164502
v -0.133144 0.690123 0.146449
v -0.133144 0.690123 -0.146449
v -0.119535 0.655139 -0.164502
v -0.098160 0.620155 -0.171866
v -0.193800 0.620155 -0.040229
v -0.193401 0.655139 -0.062833
v -0.180438 0.690123 -0.081355
v 0.098125 0.690123 -0.171866
v 0.119500 0.655139 -0.164502
v 0.133109 0.620155 -0.146449
v -0.021638 0.620155 -0.196730
v -0.000017 0.655139 -0.203335
v 0.021603 0.690123 -0.196730
v 0.159543 0.758567 0.065093
v 0.139916 0.762040 0.101667
v 0.111196 0.758567 0.131636
v -0.012619 0.758567 0.171865
v -0.053468 0.762040 0.164501
v -0.090844 0.758567 0.146448
v -0.167365 0.758567 0.041125
v -0.172984 0.762040 -0.000000
v -0.167365 0.758567 -0.041125
v -0.090844 0.758567 -0.146448
v -0.053468 0.762040 -0.164501
v -0.012619 0.758567 -0.171865
v 0.111196 0.758567 -0.131636
v 0.139916 0.762040 -0.101667
v 0.159543 0.758567 -0.065093
v 0.021132 0.844108 0.065093
v 0.033015 0.828107 0.101667
v 0.042753 0.800867 0.131635
v 0.138393 0.800866 -0.000000
v 0.106882 0.828107 -0.000000
v 0.068426 0.844108 -0.000000
v -0.055389 0.844108 0.040229
v -0.086501 0.828107 0.062833
v -0.111993 0.800867 0.081354
v -0.055389 0.844108 -0.040229
v -0.086501 0.828107 -0.062833
v -0.111993 0.800867 -0.081354
v 0.021132 0.844108 -0.065093
v 0.033015 0.828107 -0.101667
v 0.042753 0.800867 -0.131635
v 0.073549 0.837008 -0.053449
v 0.129750 0.802275 -0.053450
v 0.090916 0.802275 -0.106899
v -0.028118 0.837008 -0.086483
v -0.010751 0.802275 -0.139932
v -0.073585 0.802275 -0.119516
v -0.090951 0.837008 -0.000000
v -0.136418 0.802275 -0.033033
v -0.136418 0.802275 0.033033
v -0.028118 0.837008 0.086483
v -0.073585 0.802275 0.119516
v -0.010751 0.802275 0.139932
v 0.073549 0.837008 0.053449
v 0.090916 0.802275 0.106899
v 0.129750 0.802275 0.053450
v 0.175218 0.711340 -0.086483
v 0.164485 0.655139 -0.119517
v 0.136384 0.711340 -0.139933
v -0.028118 0.711340 -0.193383
v -0.062852 0.655139 -0.193384
v -0.090952 0.711340 -0.172967
v -0.192620 0.711340 -0.033033
v -0.203353 0.655139 0.000000
v -0.192620 0.711340 0.033033
v -0.090952 0.711340 0.172967
v -0.062852 0.655139 0.193384
v -0.028118 0.711340 0.193383
v 0.136384 0.711340 0.139933
v 0.164485 0.655139 0.119517
v 0.175218 0.711340 0.086483
v 0.062817 0.655139 -0.193384
v 0.090917 0.598938 -0.172967
v 0.028083 0.598938 -0.193383
v -0.164520 0.655139 -0.119517
v -0.136419 0.598938 -0.139934
v -0.175253 0.598938 -0.086483
v -0.164520 0.655139 0.119517
v -0.175253 0.598938 0.086483
v -0.136419 0.598938 0.139934
v 0.062817 0.655139 0.193384
v 0.028083 0.598938 0.193383
v 0.090917 0.598938 0.172967
v 0.203318 0.655139 -0.000000
v 0.192585 0.598938 0.033033
v 0.192585 0.598938 -0.033033
v 0.073550 0.508003 -0.119516
v 0.028083 0.473270 -0.086483
v 0.010716 0.508003 -0.139933
v -0.090951 0.508003 -0.106899
v -0.073585 0.473270 -0.053449
v -0.129785 0.508004 -0.053449
v -0.129785 0.508004 0.053450
v -0.073585 0.473270 0.053450
v -0.090951 0.508003 0.106899
v 0.136383 0.508003 -0.033033
v 0.136384 0.508003 0.033033
v 0.090916 0.473270 0.000000
v 0.010717 0.508003 0.139933
v 0.028083 0.473270 0.086483
v 0.073550 0.508003 0.119516
v 0.226210 0.515321 0.164362
v -0.086427 0.515321 0.265946
v 0.226210 0.515321 -0.164362
v -0.279650 0.515322 -0.000000
v -0.086427 0.515321 -0.265946
v 0.279615 0.794956 -0.000000
v 0.086392 0.794957 0.265946
v -0.226245 0.794957 0.164362
v -0.226245 0.794957 -0.164362
v 0.086392 0.794957 -0.265946
v -0.000017 0.967778 -0.000000
vt 0.437502 0.815809
vt 0.437504 0.820804
vt 0.444552 0.820804
vt 0.437502 0.826906
vt 0.437503 0.824781
vt 0.430108 0.824749
vt 0.432616 0.826906
vt 0.437504 0.820804
vt 0.430451 0.820804
vt 0.430108 0.824749
vt 0.437503 0.824781
vt 0.437502 0.826906
vt 0.432616 0.826906
vt 0.427923 0.820805
vt 0.430451 0.820804
vt 0.447081 0.820805
vt 0.444552 0.820804
vt 0.427457 0.824749
vt 0.430865 0.826906
vt 0.447545 0.824749
vt 0.444137 0.826906
vt 0.442386 0.826906
vt 0.444894 0.824749
vt 0.444894 0.824749
vt 0.442386 0.826906
vt 0.437502 0.863991
vt 0.437502 0.854930
vt 0.432616 0.854930
vt 0.432616 0.863991
vt 0.442386 0.863991
vt 0.442386 0.854930
vt 0.444137 0.854930
vt 0.444137 0.863991
vt 0.430865 0.863991
vt 0.430865 0.854930
vt 0.432616 0.854930
vt 0.432616 0.863991
vt 0.437502 0.863991
vt 0.437502 0.854930
vt 0.437502 0.854248
vt 0.443690 0.854260
vt 0.179844 0.545728
vt 0.171247 0.545729
vt 0.171248 0.554024
vt 0.180475 0.552230
vt 0.442386 0.854930
vt 0.442386 0.863991
vt 0.431532 0.851839
vt 0.429393 0.851839
vt 0.427892 0.852415
vt 0.430475 0.852424
vt 0.444319 0.827529
vt 0.444318 0.829355
vt 0.437503 0.829352
vt 0.437504 0.827534
vt 0.443470 0.851839
vt 0.445611 0.851839
vt 0.447111 0.852415
vt 0.444528 0.852424
vt 0.430684 0.827529
vt 0.430677 0.829354
vt 0.428189 0.829352
vt 0.428199 0.827532
vt 0.429007 0.854251
vt 0.431312 0.854260
vt 0.431532 0.851839
vt 0.437504 0.851839
vt 0.437504 0.852413
vt 0.430475 0.852424
vt 0.437503 0.829655
vt 0.443492 0.829655
vt 0.444318 0.829355
vt 0.437503 0.829352
vt 0.431312 0.854260
vt 0.162635 0.545729
vt 0.171247 0.545729
vt 0.171248 0.554024
vt 0.162017 0.555819
vt 0.437504 0.851839
vt 0.437504 0.852413
vt 0.182924 0.545728
vt 0.183783 0.551587
vt 0.445995 0.854251
vt 0.162635 0.545729
vt 0.159549 0.545729
vt 0.158710 0.556462
vt 0.162017 0.555819
vt 0.171248 0.574256
vt 0.171248 0.561036
vt 0.161557 0.562704
vt 0.162587 0.573591
vt 0.179571 0.591591
vt 0.179571 0.577301
vt 0.182556 0.578934
vt 0.182556 0.592250
vt 0.179571 0.580566
vt 0.171248 0.581205
vt 0.171248 0.589754
vt 0.179571 0.591591
vt 0.159484 0.571894
vt 0.158084 0.563301
vt 0.161557 0.562704
vt 0.162587 0.570196
vt 0.180475 0.613773
vt 0.171248 0.613425
vt 0.171248 0.623531
vt 0.179813 0.623531
vt 0.183783 0.614663
vt 0.182885 0.623531
vt 0.179905 0.598704
vt 0.171248 0.596794
vt 0.171248 0.606501
vt 0.180935 0.606824
vt 0.437504 0.827534
vt 0.444319 0.827529
vt 0.180935 0.608477
vt 0.179905 0.598704
vt 0.183008 0.599389
vt 0.184408 0.607651
vt 0.179813 0.623531
vt 0.180475 0.615553
vt 0.171248 0.569531
vt 0.171248 0.561036
vt 0.180935 0.559369
vt 0.179905 0.570196
vt 0.162921 0.580566
vt 0.159937 0.578933
vt 0.159937 0.587258
vt 0.162921 0.587916
vt 0.162587 0.594883
vt 0.159484 0.594198
vt 0.158084 0.607651
vt 0.161557 0.606824
vt 0.179844 0.545728
vt 0.180475 0.552230
vt 0.162017 0.613774
vt 0.158710 0.614663
vt 0.159607 0.623531
vt 0.162678 0.623531
vt 0.184408 0.558772
vt 0.183008 0.571894
vt 0.162921 0.577301
vt 0.171248 0.576662
vt 0.171248 0.589754
vt 0.162921 0.587916
vt 0.171248 0.623531
vt 0.171248 0.615901
vt 0.162017 0.615553
vt 0.162678 0.623531
vt 0.162587 0.594883
vt 0.171248 0.596794
vt 0.171248 0.608801
vt 0.161557 0.608477
vt 0.430677 0.829354
vt 0.430684 0.827529
vt 0.180935 0.559369
vt 0.179905 0.573591
vt 0.446801 0.829354
vt 0.446805 0.827532
vt 0.163503 0.611817
vt 0.171248 0.612076
vt 0.164763 0.591847
vt 0.171247 0.593278
vt 0.164763 0.574139
vt 0.171247 0.573641
vt 0.163503 0.558863
vt 0.171248 0.557530
vt 0.163503 0.610497
vt 0.160728 0.611157
vt 0.164763 0.591847
vt 0.162438 0.591334
vt 0.164763 0.576680
vt 0.162438 0.575409
vt 0.163503 0.558863
vt 0.160728 0.559340
vt 0.181764 0.611157
vt 0.178989 0.610497
vt 0.180054 0.595221
vt 0.177729 0.594708
vt 0.180054 0.575409
vt 0.177729 0.576681
vt 0.181764 0.555720
vt 0.178989 0.556198
vt 0.171248 0.610238
vt 0.171247 0.593278
vt 0.171247 0.577179
vt 0.171248 0.557530
vt 0.178989 0.556198
vt 0.177729 0.574139
vt 0.177729 0.594708
vt 0.178989 0.611817
vt 0.429230 0.822753
vt 0.437504 0.822762
vt 0.445771 0.822753
vt 0.429230 0.822753
vt 0.437504 0.822762
vt 0.445771 0.822753
vt 0.426266 0.822753
vt 0.448737 0.822753
vt 0.437502 0.854248
vt 0.443690 0.854260
vt 0.444528 0.852424
vt 0.443470 0.851839
vt 0.445637 0.829655
vt 0.443492 0.829655
vt 0.437503 0.829655
vt 0.431503 0.829655
vt 0.431503 0.829655
vt 0.429353 0.829655
vt 0.433024 0.785891
vt 0.438083 0.787928
vt 0.431092 0.787928
vt 0.426771 0.787928
vt 0.431092 0.787928
vt 0.438083 0.787928
vt 0.446113 0.903487
vt 0.442032 0.906269
vt 0.441404 0.908488
vt 0.449971 0.894974
vt 0.448913 0.895415
vt 0.435614 0.908488
vt 0.437069 0.903488
vt 0.444158 0.895415
vt 0.438261 0.894975
vt 0.452561 0.881756
vt 0.450158 0.882841
vt 0.446641 0.881756
vt 0.429583 0.906270
vt 0.431710 0.895415
vt 0.426244 0.908488
vt 0.422435 0.903488
vt 0.424016 0.895415
vt 0.419314 0.894975
vt 0.431481 0.881756
vt 0.426479 0.882841
vt 0.421903 0.881756
vt 0.421890 0.906269
vt 0.416322 0.895415
vt 0.426244 0.908488
vt 0.422435 0.903488
vt 0.416322 0.895415
vt 0.419314 0.894975
vt 0.412533 0.881756
vt 0.411846 0.882841
vt 0.412533 0.881756
vt 0.429583 0.906270
vt 0.424016 0.895415
vt 0.435614 0.908488
vt 0.437069 0.903488
vt 0.431710 0.895415
vt 0.438261 0.894975
vt 0.421903 0.881756
vt 0.426479 0.882841
vt 0.431481 0.881756
vt 0.442032 0.906269
vt 0.444158 0.895415
vt 0.448913 0.895415
vt 0.446641 0.881756
vt 0.450158 0.882841
vt 0.452561 0.881756
vt 0.456703 0.849435
vt 0.454481 0.866997
vt 0.456751 0.860367
vt 0.455115 0.838502
vt 0.453166 0.849435
vt 0.449726 0.866998
vt 0.449324 0.838502
vt 0.447658 0.849435
vt 0.445041 0.860367
vt 0.433024 0.849435
vt 0.429583 0.866998
vt 0.435671 0.860367
vt 0.430377 0.838502
vt 0.425330 0.849435
vt 0.421890 0.866998
vt 0.421007 0.838502
vt 0.418390 0.849435
vt 0.416723 0.860367
vt 0.409345 0.849435
vt 0.409441 0.866997
vt 0.410933 0.860367
vt 0.409297 0.838502
vt 0.408127 0.849435
vt 0.409441 0.866997
vt 0.409297 0.838502
vt 0.409345 0.849435
vt 0.410933 0.860367
vt 0.418390 0.849435
vt 0.421890 0.866998
vt 0.416723 0.860367
vt 0.421007 0.838502
vt 0.425330 0.849435
vt 0.429583 0.866998
vt 0.430377 0.838502
vt 0.433024 0.849435
vt 0.435671 0.860367
vt 0.447658 0.849435
vt 0.449726 0.866997
vt 0.445041 0.860367
vt 0.449324 0.838502
vt 0.453166 0.849434
vt 0.454481 0.866997
vt 0.455115 0.838502
vt 0.456703 0.849435
vt 0.456751 0.860367
vt 0.440718 0.849435
vt 0.444158 0.831871
vt 0.436465 0.831871
vt 0.444145 0.817113
vt 0.439569 0.816028
vt 0.434567 0.817113
vt 0.412882 0.849435
vt 0.416322 0.831871
vt 0.411568 0.831871
vt 0.419407 0.817113
vt 0.415890 0.816028
vt 0.413487 0.817113
vt 0.412882 0.849435
vt 0.411568 0.831871
vt 0.416322 0.831871
vt 0.413487 0.817113
vt 0.415890 0.816028
vt 0.419407 0.817113
vt 0.440718 0.849435
vt 0.436465 0.831871
vt 0.444158 0.831871
vt 0.434567 0.817113
vt 0.439569 0.816028
vt 0.444145 0.817113
vt 0.457921 0.849435
vt 0.456607 0.831871
vt 0.456607 0.831871
vt 0.453515 0.817113
vt 0.454202 0.816028
vt 0.453515 0.817113
vt 0.443613 0.795382
vt 0.442032 0.803454
vt 0.446735 0.803894
vt 0.436465 0.792600
vt 0.434339 0.803454
vt 0.428979 0.795382
vt 0.427787 0.803894
vt 0.421890 0.803454
vt 0.424016 0.792600
vt 0.417135 0.803454
vt 0.419935 0.795382
vt 0.416077 0.803894
vt 0.417135 0.803455
vt 0.424016 0.792600
vt 0.421890 0.803454
vt 0.428979 0.795382
vt 0.427787 0.803894
vt 0.449726 0.803454
vt 0.449726 0.803454
vt 0.444158 0.792600
vt 0.446735 0.803894
vt 0.443613 0.795382
vt 0.434339 0.803454
vt 0.436465 0.792600
vt 0.442032 0.803454
vt 0.422444 0.805741
vt 0.460724 0.805741
vt 0.460724 0.805741
vt 0.398785 0.805741
vt 0.422444 0.805741
vt 0.467263 0.893128
vt 0.443604 0.893128
vt 0.405324 0.893128
vt 0.443604 0.893128
vt 0.405324 0.893128
vt 0.433024 0.947135
vn 0.0000 -1.0000 0.0000
vn 0.0000 -0.4469 -0.8946
vn 0.6055 -0.4694 -0.6427
vn -0.0000 0.5134 -0.8581
vn 0.0000 0.3588 -0.9334
vn -0.6415 0.3793 -0.6668
vn -0.5845 0.5433 -0.6026
vn 0.0000 -0.4469 0.8946
vn -0.6054 -0.4695 0.6427
vn -0.6415 0.3793 0.6668
vn 0.0000 0.3588 0.9334
vn -0.0000 0.5134 0.8581
vn -0.5845 0.5433 0.6026
vn -0.8854 -0.4648 0.0000
vn -0.6054 -0.4695 -0.6427
vn 0.8854 -0.4648 -0.0000
vn 0.6055 -0.4694 0.6427
vn -0.9238 0.3829 0.0000
vn -0.8398 0.5429 -0.0000
vn 0.9238 0.3829 -0.0000
vn 0.8397 0.5430 -0.0000
vn 0.5845 0.5434 0.6026
vn 0.6415 0.3794 0.6667
vn 0.6415 0.3794 -0.6668
vn 0.5845 0.5434 -0.6026
vn 0.0000 0.0000 -1.0000
vn -0.3549 -0.0000 -0.9349
vn 0.9379 0.0000 0.3469
vn 1.0000 0.0000 -0.0000
vn -1.0000 0.0000 -0.0000
vn -0.9379 0.0000 0.3469
vn 0.0000 0.0000 1.0000
vn 0.3550 0.0000 0.9349
vn -0.3549 -0.0000 0.9349
vn -0.9379 0.0000 -0.3469
vn 0.4693 0.7504 0.4655
vn 0.0000 0.7423 0.6701
vn -0.0000 0.4855 0.8742
vn 0.6175 0.4914 0.6142
vn 0.3440 -0.1062 -0.9330
vn -0.0090 -0.1021 -0.9947
vn 0.0323 0.1937 -0.9805
vn 0.7144 0.1545 -0.6824
vn 0.9379 0.0000 -0.3469
vn -0.4856 -0.7297 -0.4814
vn -0.6931 -0.7208 -0.0000
vn -0.4859 -0.7297 -0.4811
vn 0.3592 -0.0005 0.9333
vn 0.0004 -0.0011 1.0000
vn 0.0003 -0.0011 1.0000
vn 0.4857 -0.7296 0.4814
vn 0.6933 -0.7207 -0.0000
vn 0.4860 -0.7296 0.4811
vn -0.9363 -0.0020 0.3513
vn -1.0000 -0.0022 -0.0000
vn -0.4693 0.7504 0.4655
vn -0.6707 0.7417 0.0000
vn -0.8733 0.4871 0.0000
vn -0.6176 0.4913 0.6142
vn -0.4856 -0.7297 0.4814
vn 0.0000 -0.7224 0.6915
vn 0.0001 -0.7224 0.6915
vn -0.4859 -0.7297 0.4811
vn 0.3550 0.0000 -0.9349
vn 0.0001 0.8415 -0.5403
vn 0.3760 0.8483 -0.3729
vn 0.3759 0.8483 -0.3730
vn 0.0000 0.8415 -0.5403
vn -0.4693 0.7504 -0.4655
vn -0.6176 0.4913 -0.6142
vn -0.3609 -0.0850 0.9287
vn -0.0090 -0.1021 0.9947
vn 0.0323 0.1937 0.9805
vn -0.6717 0.2399 0.7009
vn 0.0000 -0.7224 -0.6915
vn 0.0001 -0.7224 -0.6915
vn 0.9905 -0.1377 -0.0000
vn 0.9286 -0.1291 -0.3480
vn 0.9904 0.1385 -0.0000
vn 0.6707 0.7417 -0.0000
vn 0.8733 0.4873 0.0000
vn -0.9361 -0.0755 -0.3435
vn -0.9968 -0.0804 -0.0000
vn -0.9669 0.2552 0.0000
vn -0.6717 0.2399 -0.7009
vn 0.0048 0.4173 -0.9087
vn -0.0358 -0.2445 -0.9690
vn -0.7121 -0.2092 -0.6701
vn -0.6705 0.4164 -0.6140
vn 0.6467 0.3218 0.6916
vn 0.6967 -0.3186 0.6427
vn 0.9576 -0.2846 -0.0451
vn 0.9425 0.3342 0.0000
vn 0.6674 -0.2589 -0.6982
vn 0.0000 -0.2472 -0.9690
vn -0.0484 0.2825 -0.9580
vn 0.6467 0.3218 -0.6916
vn -0.9183 0.3921 0.0552
vn -0.9824 -0.1865 0.0074
vn -0.7081 -0.1875 0.6808
vn -0.6303 0.3747 0.6799
vn 0.7020 -0.2189 -0.6777
vn 0.0000 -0.2240 -0.9746
vn 0.0000 0.0894 -0.9960
vn 0.3523 0.0836 -0.9321
vn 0.9804 -0.1963 0.0167
vn 0.9326 0.0901 -0.3495
vn 0.9949 0.1010 -0.0047
vn 0.6872 -0.3665 -0.6272
vn 0.0588 -0.3822 -0.9222
vn 0.0071 0.2102 -0.9776
vn 0.6914 0.2064 -0.6923
vn 0.0003 -0.0011 -1.0000
vn 0.0004 -0.0011 -1.0000
vn 0.3592 -0.0005 -0.9333
vn 0.7007 0.2474 0.6692
vn 0.6863 -0.3553 0.6346
vn 0.9353 -0.3537 0.0041
vn 0.9749 0.2218 -0.0179
vn 0.9349 0.0995 0.3406
vn 0.6923 -0.1770 0.6996
vn 0.0079 0.3532 0.9355
vn -0.0343 -0.2215 0.9746
vn 0.6634 -0.2676 0.6988
vn 0.6448 0.3526 0.6782
vn -0.6674 -0.2589 -0.6982
vn -0.9576 -0.2846 -0.0451
vn -0.9693 0.2458 0.0000
vn -0.7063 0.2562 -0.6599
vn -0.6168 -0.4152 -0.6687
vn -0.9058 -0.4236 0.0024
vn -0.9687 0.2476 -0.0187
vn -0.6809 0.2277 -0.6960
vn 0.3440 -0.1062 0.9330
vn 0.7144 0.1545 0.6824
vn -0.7019 -0.2189 -0.6778
vn -0.9804 -0.1963 0.0167
vn -0.9949 0.1009 -0.0047
vn -0.9326 0.0900 -0.3495
vn 0.9576 -0.2881 0.0048
vn 0.9278 0.3693 0.0537
vn -0.6967 -0.3186 0.6427
vn 0.0000 -0.3279 0.9447
vn -0.0484 0.2825 0.9580
vn -0.7063 0.2562 0.6599
vn 0.0000 0.1136 0.9935
vn 0.0000 -0.1675 0.9859
vn 0.3548 0.1062 0.9289
vn -0.6923 -0.1770 0.6996
vn -0.3547 0.1062 0.9289
vn -0.3609 -0.0850 -0.9287
vn -0.6164 -0.4091 0.6728
vn 0.0580 -0.3710 0.9268
vn 0.0057 0.2614 0.9652
vn -0.6922 0.2637 0.6718
vn -0.3586 -0.0016 0.9335
vn -0.9349 0.0994 0.3406
vn -0.9363 -0.0020 -0.3513
vn 0.9286 -0.1291 0.3480
vn 0.6655 -0.2805 -0.6917
vn 0.6791 0.4037 -0.6131
vn 0.9364 0.0005 -0.3511
vn 1.0000 0.0005 -0.0000
vn -0.3522 0.0836 -0.9322
vn -0.6064 -0.4861 0.6293
vn 0.0000 -0.4660 0.8848
vn -0.0000 0.6255 0.7802
vn -0.5676 0.6301 0.5300
vn -0.4473 -0.7037 0.5520
vn 0.1041 -0.6372 0.7636
vn -0.0863 0.5741 0.8142
vn -0.6306 0.5460 0.5515
vn -0.5881 -0.6293 0.5081
vn -0.0000 -0.6352 0.7724
vn 0.0000 0.5810 0.8139
vn -0.5179 0.6077 0.6021
vn -0.6106 -0.5762 0.5433
vn -0.0722 -0.5978 0.7984
vn 0.0583 0.4969 0.8659
vn -0.5573 0.5585 0.6144
vn -0.6141 -0.5325 -0.5825
vn -0.8660 -0.4992 0.0303
vn -0.7978 0.6017 -0.0376
vn -0.5529 0.5935 -0.5848
vn -0.4473 -0.7037 -0.5520
vn -0.6960 -0.7180 -0.0000
vn -0.8522 0.5232 -0.0000
vn -0.6306 0.5460 -0.5515
vn -0.5554 -0.5500 -0.6237
vn -0.8127 -0.5771 -0.0808
vn -0.7620 0.6403 0.0971
vn -0.5525 0.6989 -0.4542
vn -0.6106 -0.5762 -0.5433
vn -0.8317 -0.5552 -0.0000
vn -0.8218 0.5698 0.0000
vn -0.5573 0.5585 -0.6144
vn 0.8660 -0.4992 0.0303
vn 0.6141 -0.5326 -0.5825
vn 0.5530 0.5935 -0.5848
vn 0.7978 0.6017 -0.0376
vn 0.8158 -0.5783 -0.0000
vn 0.6097 -0.6032 -0.5143
vn 0.5036 0.6338 -0.5871
vn 0.7649 0.6441 0.0000
vn 0.8127 -0.5771 -0.0808
vn 0.5554 -0.5500 -0.6237
vn 0.5526 0.6989 -0.4542
vn 0.7620 0.6403 0.0971
vn 0.7557 -0.6549 -0.0000
vn 0.5024 -0.6486 -0.5718
vn 0.6510 0.4657 -0.5994
vn 0.8971 0.4418 -0.0000
vn -0.0000 -0.5303 -0.8478
vn 0.0000 0.5749 -0.8183
vn 0.1041 -0.6372 -0.7636
vn -0.0863 0.5741 -0.8142
vn 0.0000 -0.5251 -0.8510
vn -0.0000 0.7085 -0.7057
vn -0.0722 -0.5978 -0.7984
vn 0.0583 0.4969 -0.8659
vn 0.6510 0.4657 0.5994
vn 0.5024 -0.6486 0.5718
vn 0.5179 0.6077 0.6021
vn 0.5881 -0.6293 0.5080
vn 0.5036 0.6338 0.5871
vn 0.6097 -0.6032 0.5143
vn 0.5676 0.6301 0.5299
vn 0.6064 -0.4861 0.6293
vn -0.9361 -0.0755 0.3435
vn -0.2964 -0.0462 -0.9540
vn 0.0000 -0.0487 -0.9988
vn 0.2964 -0.0462 -0.9540
vn -0.2964 -0.0462 0.9540
vn 0.0000 -0.0487 0.9988
vn 0.2964 -0.0462 0.9540
vn -0.9371 -0.0415 -0.3466
vn -0.9990 -0.0449 0.0000
vn -0.9371 -0.0415 0.3466
vn 0.9371 -0.0415 0.3466
vn 0.9990 -0.0448 -0.0000
vn 0.9371 -0.0415 -0.3466
vn -0.0000 -0.8657 -0.5006
vn -0.3467 -0.8720 -0.3457
vn -0.3479 -0.8720 -0.3444
vn 0.3466 -0.8720 0.3457
vn 0.4988 -0.8667 -0.0000
vn 0.3479 -0.8720 0.3444
vn -0.4989 -0.8667 -0.0000
vn -0.3467 -0.8720 0.3457
vn -0.3479 -0.8720 0.3444
vn -0.0000 -0.8657 0.5006
vn 0.3466 -0.8720 -0.3457
vn 0.3479 -0.8720 -0.3444
vn -0.0000 0.4855 -0.8742
vn 0.6175 0.4914 -0.6142
vn 0.3525 0.2255 -0.9082
vn 0.0001 0.2409 -0.9705
vn 0.9698 0.2440 -0.0000
vn 0.9102 0.2290 -0.3450
vn -0.9103 0.2288 -0.3450
vn -0.9698 0.2438 -0.0000
vn -0.3525 0.2254 0.9083
vn 0.0001 0.2409 0.9705
vn 0.3525 0.2255 0.9082
vn -0.9103 0.2288 0.3450
vn 0.9102 0.2290 0.3450
vn 0.4857 -0.7296 -0.4814
vn 0.4860 -0.7296 -0.4811
vn 0.0000 0.7423 -0.6701
vn 0.4693 0.7504 -0.4655
vn 0.5397 0.8419 -0.0000
vn 0.3760 0.8483 0.3729
vn 0.3759 0.8483 0.3730
vn 0.0001 0.8415 0.5403
vn 0.0000 0.8415 0.5403
vn 0.9364 0.0005 0.3511
vn -0.3586 -0.0016 -0.9335
vn -0.3769 0.8474 0.3740
vn -0.3769 0.8474 -0.3740
vn -0.5417 0.8405 -0.0000
vn -0.3525 0.2254 -0.9083
vn 0.2110 -0.9654 0.1533
vn -0.0806 -0.9654 0.2480
vn -0.2608 -0.9654 0.0000
vn -0.0806 -0.9654 -0.2480
vn 0.2110 -0.9654 -0.1533
vn 0.5257 0.8507 0.0000
vn 0.3409 0.9069 -0.2477
vn 0.3101 0.9507 -0.0000
vn 0.7116 0.7025 -0.0000
vn 0.6587 0.7105 -0.2477
vn 0.0958 0.9507 -0.2949
vn 0.1625 0.8507 -0.5000
vn 0.4391 0.7105 -0.5499
vn 0.2199 0.7026 -0.6768
vn 0.8075 0.5109 -0.2949
vn 0.6882 0.5257 -0.5000
vn 0.5300 0.5109 -0.6768
vn -0.1302 0.9069 -0.4007
vn -0.0320 0.7105 -0.7030
vn -0.2509 0.9507 -0.1823
vn -0.4253 0.8507 -0.3090
vn -0.3873 0.7105 -0.5875
vn -0.5757 0.7026 -0.4183
vn -0.0310 0.5109 -0.8591
vn -0.2629 0.5257 -0.8090
vn -0.4799 0.5109 -0.7132
vn -0.4213 0.9069 0.0000
vn -0.6785 0.7105 -0.1868
vn -0.2509 0.9507 0.1823
vn -0.4253 0.8507 0.3090
vn -0.6785 0.7105 0.1868
vn -0.5757 0.7026 0.4183
vn -0.8266 0.5109 -0.2360
vn -0.8506 0.5257 -0.0000
vn -0.8266 0.5109 0.2360
vn -0.1302 0.9069 0.4007
vn -0.3873 0.7105 0.5875
vn 0.0958 0.9507 0.2949
vn 0.1625 0.8507 0.5000
vn -0.0320 0.7105 0.7030
vn 0.2199 0.7026 0.6768
vn -0.4799 0.5109 0.7132
vn -0.2629 0.5257 0.8090
vn -0.0310 0.5109 0.8591
vn 0.3409 0.9069 0.2477
vn 0.4391 0.7105 0.5499
vn 0.6587 0.7105 0.2477
vn 0.5300 0.5109 0.6768
vn 0.6882 0.5257 0.5000
vn 0.8075 0.5109 0.2949
vn 0.9511 0.0000 -0.3090
vn 0.8694 0.2891 -0.4007
vn 0.9625 0.2008 -0.1823
vn 0.8859 -0.2008 -0.4183
vn 0.8087 -0.0287 -0.5875
vn 0.6498 0.2891 -0.7030
vn 0.6716 -0.2008 -0.7132
vn 0.5878 0.0000 -0.8090
vn 0.4708 0.2008 -0.8591
vn -0.1125 0.2891 -0.9507
vn 0.1241 0.2008 -0.9718
vn -0.1241 -0.2008 -0.9718
vn -0.3089 -0.0287 -0.9507
vn -0.4678 0.2891 -0.8352
vn -0.4708 -0.2008 -0.8591
vn -0.5878 -0.0000 -0.8090
vn -0.6716 0.2008 -0.7132
vn -0.9511 -0.0000 -0.3090
vn -0.9389 0.2891 -0.1868
vn -0.8859 0.2008 -0.4183
vn -0.9625 -0.2008 -0.1823
vn -0.9996 -0.0287 0.0000
vn -0.9389 0.2891 0.1868
vn -0.9625 -0.2008 0.1823
vn -0.9511 -0.0000 0.3090
vn -0.8859 0.2008 0.4183
vn -0.5878 0.0000 0.8090
vn -0.4678 0.2891 0.8352
vn -0.6716 0.2008 0.7132
vn -0.4708 -0.2008 0.8591
vn -0.3089 -0.0287 0.9507
vn -0.1125 0.2891 0.9507
vn -0.1241 -0.2008 0.9718
vn 0.1241 0.2008 0.9718
vn 0.5878 -0.0000 0.8090
vn 0.6498 0.2891 0.7030
vn 0.4708 0.2008 0.8591
vn 0.6716 -0.2008 0.7132
vn 0.8087 -0.0287 0.5875
vn 0.8694 0.2891 0.4007
vn 0.8859 -0.2008 0.4183
vn 0.9511 0.0000 0.3090
vn 0.9625 0.2008 0.1823
vn 0.3089 0.0287 -0.9507
vn 0.4678 -0.2891 -0.8352
vn 0.1125 -0.2891 -0.9507
vn 0.4799 -0.5109 -0.7132
vn 0.2629 -0.5257 -0.8090
vn 0.0310 -0.5109 -0.8591
vn -0.8087 0.0287 -0.5875
vn -0.6498 -0.2891 -0.7030
vn -0.8694 -0.2891 -0.4007
vn -0.5300 -0.5109 -0.6768
vn -0.6882 -0.5257 -0.5000
vn -0.8075 -0.5109 -0.2949
vn -0.8087 0.0287 0.5875
vn -0.8694 -0.2891 0.4007
vn -0.6498 -0.2891 0.7030
vn -0.8075 -0.5109 0.2949
vn -0.6882 -0.5257 0.5000
vn -0.5300 -0.5109 0.6768
vn 0.3089 0.0287 0.9507
vn 0.1125 -0.2891 0.9507
vn 0.4678 -0.2891 0.8352
vn 0.0310 -0.5109 0.8591
vn 0.2629 -0.5257 0.8090
vn 0.4799 -0.5109 0.7132
vn 0.9996 0.0287 -0.0000
vn 0.9389 -0.2891 0.1868
vn 0.9389 -0.2891 -0.1868
vn 0.8266 -0.5109 0.2360
vn 0.8506 -0.5257 -0.0000
vn 0.8266 -0.5109 -0.2360
vn 0.4274 -0.8491 -0.3105
vn 0.3873 -0.7105 -0.5875
vn 0.5757 -0.7026 -0.4183
vn 0.1406 -0.8904 -0.4329
vn 0.0320 -0.7105 -0.7030
vn -0.1633 -0.8491 -0.5024
vn -0.2199 -0.7026 -0.6768
vn -0.4391 -0.7105 -0.5499
vn -0.3682 -0.8904 -0.2675
vn -0.6587 -0.7105 -0.2477
vn -0.5283 -0.8491 0.0000
vn -0.7116 -0.7025 0.0000
vn -0.6587 -0.7105 0.2477
vn -0.3682 -0.8904 0.2675
vn -0.4391 -0.7105 0.5499
vn -0.1633 -0.8491 0.5024
vn -0.2199 -0.7026 0.6768
vn 0.6785 -0.7105 -0.1868
vn 0.6785 -0.7105 0.1868
vn 0.4551 -0.8904 0.0000
vn 0.5757 -0.7026 0.4183
vn 0.4274 -0.8491 0.3105
vn 0.0320 -0.7105 0.7030
vn 0.1406 -0.8904 0.4329
vn 0.3873 -0.7105 0.5875
vn 0.4993 -0.8432 0.1993
vn 0.9079 0.0695 0.4133
vn -0.1125 0.0695 0.9912
vn -0.9775 0.0695 0.1993
vn -0.4916 0.0695 -0.8680
vn 0.6736 0.0695 -0.7358
vn 0.4916 -0.0695 0.8680
vn -0.6736 -0.0695 0.7358
vn -0.9079 -0.0695 -0.4133
vn -0.7737 0.6336 0.0000
vn 0.9775 -0.0695 -0.1993
vn 0.0353 0.8432 0.5365
vn -0.4993 0.8432 0.1993
vn 0.1125 -0.0695 -0.9912
vn -0.9127 0.4086 0.0000
vn 0.5211 0.8432 0.1322
vn 0.0353 0.8432 -0.5365
vn -0.2820 0.4086 -0.8680
vn -0.4993 0.8432 -0.1993
vn -0.3439 0.8432 0.4133
vn -0.3439 0.8432 -0.4133
vn -0.2820 0.4086 0.8680
vn 0.2868 0.8432 0.4548
vn 0.7384 0.4086 0.5365
vn 0.5211 0.8432 -0.1322
vn 0.4916 -0.0695 -0.8680
vn 0.6259 0.6336 -0.4548
vn -0.6736 -0.0695 -0.7358
vn -0.2391 0.6336 -0.7358
vn -0.9079 -0.0695 0.4133
vn -0.6259 -0.6336 -0.4548
vn 0.1125 -0.0695 0.9912
vn -0.2391 0.6336 0.7358
vn 0.9775 -0.0695 0.1993
vn 0.6259 0.6336 0.4548
vn 0.2391 -0.6336 -0.7358
vn -0.1125 0.0695 -0.9912
vn -0.9775 0.0695 -0.1993
vn -0.6259 -0.6336 0.4548
vn -0.4916 0.0695 0.8680
vn 0.2391 -0.6336 0.7358
vn 0.6736 0.0695 0.7358
vn 0.7737 -0.6336 0.0000
vn 0.9079 0.0695 -0.4133
vn -0.2868 -0.8432 -0.4548
vn 0.4993 -0.8432 -0.1993
vn -0.5211 -0.8432 0.1322
vn -0.0353 -0.8432 -0.5365
vn -0.0353 -0.8432 0.5365
vn -0.5211 -0.8432 -0.1322
vn 0.3439 -0.8432 0.4133
vn 0.3439 -0.8432 -0.4133
vn -0.2868 -0.8432 0.4548
vn 0.2868 0.8432 -0.4548
vn 0.7384 0.4086 -0.5365
usemtl cleric
s 1
f 1/1/1 146/2/2 143/3/3
f 19/4/4 145/5/5 140/6/6 10/7/7
f 1/1/1 133/8/8 137/9/9
f 136/10/10 134/11/11 25/12/12 14/13/13
f 1/1/1 148/14/14 139/15/15
f 1/1/1 151/16/16 130/17/17
f 148/14/14 1/1/1 137/9/9
f 149/18/18 23/19/19 10/7/7 140/6/6
f 152/20/20 12/21/21 21/22/22 131/23/23
f 134/11/11 131/23/23 21/22/22 25/12/12
f 23/19/19 149/18/18 136/10/10 14/13/13
f 139/15/15 146/2/2 1/1/1
f 12/21/21 152/20/20 142/24/24 16/25/25
f 151/16/16 1/1/1 143/3/3
f 2/26/26 18/27/26 11/28/27 3/29/27
f 4/30/28 20/31/28 13/32/29 5/33/29
f 6/34/30 22/35/30 15/36/31 7/37/31
f 8/38/32 24/39/32 20/31/33 4/30/33
f 7/37/34 15/36/34 24/39/32 8/38/32
f 3/29/35 11/28/35 22/35/30 6/34/30
f 20/31/36 24/39/37 168/40/38 164/41/39
f 181/42/40 182/43/41 70/44/42 91/45/43
f 5/33/29 13/32/29 17/46/44 9/47/44
f 26/48/45 32/49/46 173/50/46 176/51/47
f 158/52/48 188/53/48 192/54/49 155/55/50
f 31/56/51 27/57/52 174/58/52 175/59/53
f 157/60/54 191/61/54 190/62/55 156/63/55
f 15/36/56 22/35/57 166/64/58 167/65/59
f 28/66/60 33/67/61 171/68/62 172/69/63
f 9/47/64 17/46/64 18/27/26 2/26/26
f 182/70/65 181/71/66 193/72/67 186/73/68
f 22/35/57 11/28/69 163/74/70 166/64/58
f 180/75/71 185/76/72 34/77/73 104/78/74
f 30/79/75 26/48/45 176/51/47 177/80/76
f 179/81/77 181/42/78 91/45/43 116/82/79
f 13/32/80 20/31/36 164/41/39 165/83/81
f 178/84/82 184/85/83 46/86/84 128/87/85
f 73/88/86 71/89/87 127/90/88 125/91/89
f 65/92/90 61/93/91 112/94/92 110/95/93
f 89/96/94 74/97/95 76/98/96 85/99/97
f 49/100/98 47/101/99 103/102/100 101/103/101
f 83/104/102 80/105/103 30/106/104 29/107/105
f 106/108/106 83/104/102 29/107/107 27/109/108
f 86/110/109 77/111/110 79/112/111 82/113/112
f 160/114/113 186/73/114 193/72/115 154/115/115
f 68/116/116 64/117/117 109/118/118 107/119/119
f 31/120/120 67/121/121 106/108/106 27/109/108
f 37/122/122 35/123/123 58/124/124 62/125/125
f 124/126/126 50/127/127 52/128/128 122/129/129
f 121/130/130 53/131/131 55/132/132 119/133/133
f 34/77/73 185/76/72 183/134/134 59/135/135
f 118/136/136 56/137/137 32/138/138 26/139/139
f 62/125/125 58/124/124 115/140/140 113/141/141
f 100/142/142 38/143/143 40/144/144 98/145/145
f 33/146/146 44/147/147 67/121/121 31/120/148
f 94/148/149 44/147/147 33/146/146 28/149/150
f 70/44/42 182/43/41 178/84/151 128/87/85
f 97/150/152 41/151/153 43/152/154 95/153/155
f 43/152/154 41/151/153 64/117/117 68/116/116
f 40/144/144 38/143/143 61/93/91 65/92/90
f 155/55/50 192/54/49 191/61/156 157/60/156
f 32/138/138 56/137/137 94/148/149 28/149/157
f 55/132/132 53/131/131 97/150/152 95/153/155
f 52/128/128 50/127/127 100/142/142 98/145/145
f 103/102/100 35/123/123 37/122/122 101/103/101
f 156/63/55 190/62/55 187/154/158 161/155/158
f 127/90/88 47/101/99 49/100/98 125/91/89
f 112/94/92 89/96/94 85/99/97 110/95/93
f 109/118/118 86/110/109 82/113/112 107/119/119
f 59/135/135 183/134/159 179/81/77 116/82/79
f 115/140/140 92/156/160 88/157/161 113/141/141
f 79/112/111 77/111/110 121/130/130 119/133/133
f 76/98/96 74/97/95 124/126/126 122/129/129
f 154/115/162 193/72/162 189/158/163 159/159/163
f 30/106/104 80/105/103 118/136/136 26/139/164
f 92/156/160 71/89/87 73/88/86 88/157/161
f 44/147/147 94/148/149 96/160/165 45/161/166
f 45/161/167 96/160/168 95/153/155 43/152/154
f 41/151/153 97/150/152 99/162/169 42/163/170
f 42/163/171 99/162/172 98/145/145 40/144/144
f 38/143/143 100/142/142 102/164/173 39/165/174
f 39/165/175 102/164/176 101/103/101 37/122/122
f 35/123/123 103/102/100 105/166/177 36/167/178
f 36/167/179 105/166/180 104/78/74 34/77/73
f 56/137/137 118/136/136 120/168/181 57/169/182
f 57/169/183 120/168/184 119/133/133 55/132/132
f 53/131/131 121/130/130 123/170/185 54/171/186
f 54/171/187 123/170/188 122/129/129 52/128/128
f 50/127/127 124/126/126 126/172/189 51/173/190
f 51/173/191 126/172/192 125/91/89 49/100/98
f 47/101/99 127/90/88 129/174/193 48/175/194
f 48/175/195 129/174/196 128/87/85 46/86/84
f 83/104/102 106/108/106 108/176/197 84/177/198
f 84/177/199 108/176/200 107/119/119 82/113/112
f 86/110/109 109/118/118 111/178/201 87/179/202
f 87/179/203 111/178/204 110/95/93 85/99/97
f 89/96/94 112/94/92 114/180/205 90/181/206
f 90/181/207 114/180/208 113/141/141 88/157/161
f 92/156/160 115/140/140 117/182/209 93/183/210
f 93/183/211 117/182/212 116/82/79 91/45/43
f 80/105/103 83/104/102 84/177/198 81/184/213
f 81/184/214 84/177/199 82/113/112 79/112/111
f 77/111/110 86/110/109 87/179/202 78/185/215
f 78/185/216 87/179/203 85/99/97 76/98/96
f 74/97/95 89/96/94 90/181/206 75/186/217
f 75/186/218 90/181/207 88/157/161 73/88/86
f 71/89/87 92/156/160 93/183/210 72/187/219
f 72/187/220 93/183/211 91/45/43 70/44/42
f 70/44/42 128/87/85 129/174/196 72/187/220
f 72/187/219 129/174/193 127/90/88 71/89/87
f 73/88/86 125/91/89 126/172/192 75/186/218
f 75/186/217 126/172/189 124/126/126 74/97/95
f 76/98/96 122/129/129 123/170/188 78/185/216
f 78/185/215 123/170/185 121/130/130 77/111/110
f 79/112/111 119/133/133 120/168/184 81/184/214
f 81/184/213 120/168/181 118/136/136 80/105/103
f 59/135/135 116/82/79 117/182/212 60/188/221
f 60/188/222 117/182/209 115/140/140 58/124/124
f 62/125/125 113/141/141 114/180/208 63/189/223
f 63/189/224 114/180/205 112/94/92 61/93/91
f 65/92/90 110/95/93 111/178/204 66/190/225
f 66/190/226 111/178/201 109/118/118 64/117/117
f 68/116/116 107/119/119 108/176/200 69/191/227
f 69/191/228 108/176/197 106/108/106 67/121/121
f 46/86/84 104/78/74 105/166/180 48/175/195
f 48/175/194 105/166/177 103/102/100 47/101/99
f 49/100/98 101/103/101 102/164/176 51/173/191
f 51/173/190 102/164/173 100/142/142 50/127/127
f 52/128/128 98/145/145 99/162/172 54/171/187
f 54/171/186 99/162/169 97/150/152 53/131/131
f 55/132/132 95/153/155 96/160/168 57/169/183
f 57/169/182 96/160/165 94/148/149 56/137/137
f 34/77/73 59/135/135 60/188/221 36/167/179
f 36/167/178 60/188/222 58/124/124 35/123/123
f 37/122/122 62/125/125 63/189/223 39/165/175
f 39/165/174 63/189/224 61/93/91 38/143/143
f 40/144/144 65/92/90 66/190/225 42/163/171
f 42/163/170 66/190/226 64/117/117 41/151/153
f 43/152/154 68/116/116 69/191/227 45/161/167
f 45/161/166 69/191/228 67/121/121 44/147/147
f 46/86/84 184/85/83 180/75/229 104/78/74
f 16/25/25 142/24/24 145/5/5 19/4/4
f 146/2/2 139/15/15 141/192/230 147/193/231
f 147/193/231 141/192/230 140/6/6 145/5/5
f 145/5/5 142/24/24 144/194/232 147/193/231
f 147/193/231 144/194/232 143/3/3 146/2/2
f 134/11/11 136/10/10 138/195/233 135/196/234
f 135/196/234 138/195/233 137/9/9 133/8/8
f 133/8/8 130/17/17 132/197/235 135/196/234
f 135/196/234 132/197/235 131/23/23 134/11/11
f 149/18/18 140/6/6 141/192/236 150/198/237
f 150/198/237 141/192/236 139/15/15 148/14/14
f 148/14/14 137/9/9 138/195/238 150/198/237
f 150/198/237 138/195/238 136/10/10 149/18/18
f 152/20/20 131/23/23 132/197/239 153/199/240
f 153/199/240 132/197/239 130/17/17 151/16/16
f 151/16/16 143/3/3 144/194/241 153/199/240
f 153/199/240 144/194/241 142/24/24 152/20/20
f 1/1/1 130/17/17 133/8/8
f 19/4/242 10/7/243 161/155/244 160/114/242
f 21/22/245 12/21/246 159/159/246 158/52/247
f 23/19/248 14/13/249 157/60/250 156/63/248
f 25/12/251 21/22/245 158/52/247 155/55/251
f 14/13/249 25/12/251 155/55/251 157/60/250
f 10/7/243 23/19/248 156/63/248 161/155/244
f 12/21/246 16/25/252 154/115/253 159/159/246
f 16/25/252 19/4/242 160/114/242 154/115/253
f 162/200/254 170/201/255 169/202/256 177/80/257
f 170/201/255 165/83/81 174/58/258 169/202/259
f 166/64/58 163/74/70 176/51/260 173/50/261
f 168/40/38 167/65/59 172/69/262 171/68/263
f 164/41/39 168/40/38 171/68/263 175/59/264
f 167/65/59 166/64/58 173/50/261 172/69/265
f 165/83/81 164/41/39 175/59/266 174/58/258
f 32/49/46 28/66/60 172/69/63 173/50/46
f 27/57/52 29/203/267 169/202/268 174/58/52
f 11/28/69 18/27/269 162/200/254 163/74/70
f 24/39/37 15/36/56 167/65/59 168/40/38
f 33/67/61 31/56/51 175/59/53 171/68/62
f 17/46/270 13/32/80 165/83/81 170/201/255
f 29/203/267 30/79/75 177/80/76 169/202/268
f 18/27/269 17/46/270 170/201/255 162/200/254
f 179/204/271 183/205/272 188/53/273 189/158/271
f 183/205/272 185/206/274 192/54/275 188/53/273
f 181/71/66 179/204/271 189/158/271 193/72/67
f 159/159/163 189/158/163 188/53/276 158/52/276
f 161/155/277 187/154/277 186/73/114 160/114/113
f 185/206/274 180/207/278 191/61/278 192/54/275
f 178/208/279 182/70/65 186/73/68 187/154/279
f 184/209/280 178/208/279 187/154/279 190/62/280
f 180/207/278 184/209/280 190/62/280 191/61/278
f 163/74/70 162/200/254 177/80/257 176/51/281
f 194/210/1 198/211/282 197/212/283
f 194/210/1 197/212/283 212/213/284
f 194/210/1 212/213/284 218/214/285
f 194/210/1 218/214/285 207/215/286
f 274/216/287 285/217/288 275/218/289
f 273/219/290 286/220/291 274/216/287
f 275/218/289 285/217/288 282/221/292
f 285/217/288 283/222/293 282/221/292
f 274/216/287 286/220/291 285/217/288
f 286/220/291 287/223/294 285/217/288
f 285/217/288 287/223/294 283/222/293
f 287/223/294 284/224/295 283/222/293
f 273/219/290 269/225/296 286/220/291
f 269/225/296 268/226/297 286/220/291
f 286/220/291 268/226/297 287/223/294
f 268/226/297 267/227/298 287/223/294
f 287/223/294 267/227/298 284/224/295
f 283/222/293 288/228/299 282/221/292
f 284/224/295 289/229/300 283/222/293
f 282/221/292 288/228/299 279/230/301
f 288/228/299 280/231/302 279/230/301
f 283/222/293 289/229/300 288/228/299
f 289/229/300 290/232/303 288/228/299
f 288/228/299 290/232/303 280/231/302
f 290/232/303 281/233/304 280/231/302
f 284/224/295 266/234/305 289/229/300
f 266/234/305 265/235/306 289/229/300
f 289/229/300 265/235/306 290/232/303
f 265/235/306 264/236/307 290/232/303
f 290/232/303 264/236/307 281/233/304
f 280/231/302 291/237/308 279/230/301
f 281/233/304 292/238/309 280/231/302
f 279/230/301 291/237/308 276/239/310
f 291/237/308 277/240/311 276/239/310
f 280/231/302 292/238/309 291/237/308
f 292/238/309 293/241/312 291/237/308
f 291/237/308 293/241/312 277/240/311
f 293/241/312 278/242/313 277/240/311
f 281/233/304 263/243/314 292/238/309
f 263/243/314 262/244/315 292/238/309
f 292/238/309 262/244/315 293/241/312
f 262/244/315 261/245/316 293/241/312
f 293/241/312 261/245/316 278/242/313
f 277/240/311 294/246/317 276/239/310
f 278/242/313 295/247/318 277/240/311
f 276/239/310 294/246/317 270/248/319
f 294/246/317 271/249/320 270/248/319
f 277/240/311 295/247/318 294/246/317
f 295/247/318 296/250/321 294/246/317
f 294/246/317 296/250/321 271/249/320
f 296/250/321 272/251/322 271/249/320
f 278/242/313 260/252/323 295/247/318
f 260/252/323 259/253/324 295/247/318
f 295/247/318 259/253/324 296/250/321
f 259/253/324 258/254/325 296/250/321
f 296/250/321 258/254/325 272/251/322
f 271/249/320 297/255/326 270/248/319
f 272/251/322 298/256/327 271/249/320
f 270/248/319 297/255/326 275/218/289
f 297/255/326 274/216/287 275/218/289
f 271/249/320 298/256/327 297/255/326
f 298/256/327 299/257/328 297/255/326
f 297/255/326 299/257/328 274/216/287
f 299/257/328 273/219/290 274/216/287
f 272/251/322 257/258/329 298/256/327
f 257/258/329 256/259/330 298/256/327
f 298/256/327 256/259/330 299/257/328
f 256/259/330 255/260/331 299/257/328
f 299/257/328 255/260/331 273/219/290
f 229/261/332 300/262/333 230/263/334
f 228/264/335 301/265/336 229/261/332
f 230/263/334 300/262/333 269/225/296
f 300/262/333 268/226/297 269/225/296
f 229/261/332 301/265/336 300/262/333
f 301/265/336 302/266/337 300/262/333
f 300/262/333 302/266/337 268/226/297
f 302/266/337 267/227/298 268/226/297
f 228/264/335 251/267/338 301/265/336
f 251/267/338 250/268/339 301/265/336
f 301/265/336 250/268/339 302/266/337
f 250/268/339 249/269/340 302/266/337
f 302/266/337 249/269/340 267/227/298
f 253/270/26 303/271/341 254/272/342
f 252/273/343 304/274/344 253/270/26
f 254/272/342 303/271/341 266/234/305
f 303/271/341 265/235/306 266/234/305
f 253/270/26 304/274/344 303/271/341
f 304/274/344 305/275/345 303/271/341
f 303/271/341 305/275/345 265/235/306
f 305/275/345 264/236/307 265/235/306
f 252/273/343 245/276/346 304/274/344
f 245/276/346 244/277/347 304/274/344
f 304/274/344 244/277/347 305/275/345
f 244/277/347 243/278/348 305/275/345
f 305/275/345 243/278/348 264/236/307
f 247/279/349 306/280/350 248/281/351
f 246/282/352 307/283/353 247/279/349
f 248/281/351 306/280/350 263/243/314
f 306/280/350 262/244/315 263/243/314
f 247/279/349 307/283/353 306/280/350
f 307/283/353 308/284/354 306/280/350
f 306/280/350 308/284/354 262/244/315
f 308/284/354 261/245/316 262/244/315
f 246/282/352 239/285/355 307/283/353
f 239/285/355 238/286/356 307/283/353
f 307/283/353 238/286/356 308/284/354
f 238/286/356 237/287/357 308/284/354
f 308/284/354 237/287/357 261/245/316
f 241/288/358 309/289/359 242/290/360
f 240/291/361 310/292/362 241/288/358
f 242/290/360 309/289/359 260/252/323
f 309/289/359 259/253/324 260/252/323
f 241/288/358 310/292/362 309/289/359
f 310/292/362 311/293/363 309/289/359
f 309/289/359 311/293/363 259/253/324
f 311/293/363 258/254/325 259/253/324
f 240/291/361 233/294/364 310/292/362
f 233/294/364 232/295/32 310/292/362
f 310/292/362 232/295/32 311/293/363
f 232/295/32 231/296/365 311/293/363
f 311/293/363 231/296/365 258/254/325
f 235/297/366 312/298/367 236/299/368
f 234/300/369 313/301/370 235/297/366
f 236/299/368 312/298/367 257/258/329
f 312/298/367 256/259/330 257/258/329
f 235/297/366 313/301/370 312/298/367
f 313/301/370 314/302/371 312/298/367
f 312/298/367 314/302/371 256/259/330
f 314/302/371 255/260/331 256/259/330
f 234/300/369 227/303/372 313/301/370
f 227/303/372 226/304/373 313/301/370
f 313/301/370 226/304/373 314/302/371
f 226/304/373 225/305/374 314/302/371
f 314/302/371 225/305/374 255/260/331
f 250/268/339 315/306/375 249/269/340
f 251/267/338 316/307/376 250/268/339
f 249/269/340 315/306/375 254/272/342
f 315/306/375 253/270/26 254/272/342
f 250/268/339 316/307/376 315/306/375
f 316/307/376 317/308/377 315/306/375
f 315/306/375 317/308/377 253/270/26
f 317/308/377 252/273/343 253/270/26
f 251/267/338 224/309/378 316/307/376
f 224/309/378 223/310/379 316/307/376
f 316/307/376 223/310/379 317/308/377
f 223/310/379 222/311/380 317/308/377
f 317/308/377 222/311/380 252/273/343
f 244/277/347 318/312/381 243/278/348
f 245/276/346 319/313/382 244/277/347
f 243/278/348 318/312/381 248/281/351
f 318/312/381 247/279/349 248/281/351
f 244/277/347 319/313/382 318/312/381
f 319/313/382 320/314/383 318/312/381
f 318/312/381 320/314/383 247/279/349
f 320/314/383 246/282/352 247/279/349
f 245/276/346 221/315/384 319/313/382
f 221/315/384 220/316/385 319/313/382
f 319/313/382 220/316/385 320/314/383
f 220/316/385 219/317/386 320/314/383
f 320/314/383 219/317/386 246/282/352
f 238/286/356 321/318/387 237/287/357
f 239/285/355 322/319/388 238/286/356
f 237/287/357 321/318/387 242/290/360
f 321/318/387 241/288/358 242/290/360
f 238/286/356 322/319/388 321/318/387
f 322/319/388 323/320/389 321/318/387
f 321/318/387 323/320/389 241/288/358
f 323/320/389 240/291/361 241/288/358
f 239/285/355 215/321/390 322/319/388
f 215/321/390 214/322/391 322/319/388
f 322/319/388 214/322/391 323/320/389
f 214/322/391 213/323/392 323/320/389
f 323/320/389 213/323/392 240/291/361
f 232/295/32 324/324/393 231/296/365
f 233/294/364 325/325/394 232/295/32
f 231/296/365 324/324/393 236/299/368
f 324/324/393 235/297/366 236/299/368
f 232/295/32 325/325/394 324/324/393
f 325/325/394 326/326/395 324/324/393
f 324/324/393 326/326/395 235/297/366
f 326/326/395 234/300/369 235/297/366
f 233/294/364 203/327/396 325/325/394
f 203/327/396 202/328/397 325/325/394
f 325/325/394 202/328/397 326/326/395
f 202/328/397 201/329/398 326/326/395
f 326/326/395 201/329/398 234/300/369
f 226/304/373 327/330/399 225/305/374
f 227/303/372 328/331/400 226/304/373
f 225/305/374 327/330/399 230/263/334
f 327/330/399 229/261/332 230/263/334
f 226/304/373 328/331/400 327/330/399
f 328/331/400 329/332/401 327/330/399
f 327/330/399 329/332/401 229/261/332
f 329/332/401 228/264/335 229/261/332
f 227/303/372 206/333/402 328/331/400
f 206/333/402 205/334/403 328/331/400
f 328/331/400 205/334/403 329/332/401
f 205/334/403 204/335/404 329/332/401
f 329/332/401 204/335/404 228/264/335
f 208/336/405 330/337/406 209/338/407
f 207/215/286 331/339/408 208/336/405
f 209/338/407 330/337/406 224/309/378
f 330/337/406 223/310/379 224/309/378
f 208/336/405 331/339/408 330/337/406
f 331/339/408 332/340/409 330/337/406
f 330/337/406 332/340/409 223/310/379
f 332/340/409 222/311/380 223/310/379
f 207/215/286 218/214/285 331/339/408
f 218/214/285 217/341/410 331/339/408
f 331/339/408 217/341/410 332/340/409
f 217/341/410 216/342/411 332/340/409
f 332/340/409 216/342/411 222/311/380
f 217/341/410 333/343/412 216/342/411
f 218/214/285 334/344/413 217/341/410
f 216/342/411 333/343/412 221/315/384
f 333/343/412 220/316/385 221/315/384
f 217/341/410 334/344/413 333/343/412
f 334/344/413 335/345/414 333/343/412
f 333/343/412 335/345/414 220/316/385
f 335/345/414 219/317/386 220/316/385
f 218/214/285 212/213/284 334/344/413
f 212/213/284 211/346/415 334/344/413
f 334/344/413 211/346/415 335/345/414
f 211/346/415 210/347/416 335/345/414
f 335/345/414 210/347/416 219/317/386
f 211/346/415 336/348/417 210/347/416
f 212/213/284 337/349/418 211/346/415
f 210/347/416 336/348/417 215/321/390
f 336/348/417 214/322/391 215/321/390
f 211/346/415 337/349/418 336/348/417
f 337/349/418 338/350/419 336/348/417
f 336/348/417 338/350/419 214/322/391
f 338/350/419 213/323/392 214/322/391
f 212/213/284 197/212/283 337/349/418
f 197/212/283 196/351/420 337/349/418
f 337/349/418 196/351/420 338/350/419
f 196/351/420 195/352/421 338/350/419
f 338/350/419 195/352/421 213/323/392
f 205/334/403 339/353/422 204/335/404
f 206/333/402 340/354/423 205/334/403
f 204/335/404 339/353/422 209/338/407
f 339/353/422 208/336/405 209/338/407
f 205/334/403 340/354/423 339/353/422
f 340/354/423 341/355/424 339/353/422
f 339/353/422 341/355/424 208/336/405
f 341/355/424 207/215/286 208/336/405
f 206/333/402 200/356/425 340/354/423
f 200/356/425 199/357/426 340/354/423
f 340/354/423 199/357/426 341/355/424
f 199/357/426 198/211/282 341/355/424
f 341/355/424 198/211/282 207/215/286
f 198/211/282 194/210/1 207/215/286
f 196/351/420 342/358/427 195/352/421
f 197/212/283 343/359/428 196/351/420
f 195/352/421 342/358/427 203/327/396
f 342/358/427 202/328/397 203/327/396
f 196/351/420 343/359/428 342/358/427
f 343/359/428 344/360/429 342/358/427
f 342/358/427 344/360/429 202/328/397
f 344/360/429 201/329/398 202/328/397
f 197/212/283 198/211/282 343/359/428
f 198/211/282 199/357/426 343/359/428
f 343/359/428 199/357/426 344/360/429
f 199/357/426 200/356/425 344/360/429
f 344/360/429 200/356/425 201/329/398
f 195/352/430 203/327/430 346/361/430
f 228/264/431 204/335/431 347/362/431
f 234/300/432 201/329/432 345/363/432
f 240/291/433 213/323/433 346/361/433
f 246/282/434 219/317/434 348/364/434
f 252/273/435 222/311/435 349/365/435
f 255/260/436 225/305/436 350/366/436
f 258/254/437 231/296/437 351/367/437
f 261/245/438 237/287/438 352/368/438
f 239/285/439 246/282/439 348/364/439
f 267/227/440 249/269/440 354/369/440
f 273/219/441 255/260/441 350/366/441
f 272/251/442 258/254/442 351/367/442
f 264/236/443 243/278/443 353/370/443
f 279/230/444 276/239/444 355/371/444
f 284/224/445 267/227/445 354/369/445
f 269/225/446 273/219/446 350/366/446
f 282/221/447 279/230/447 355/371/447
f 266/234/448 284/224/448 354/369/448
f 263/243/449 281/233/449 353/370/449
f 278/242/450 261/245/450 352/368/450
f 276/239/451 270/248/451 355/371/451
f 260/252/452 278/242/452 352/368/452
f 270/248/453 275/218/453 355/371/453
f 257/258/454 272/251/454 351/367/454
f 230/263/455 269/225/455 350/366/455
f 251/267/456 228/264/456 347/362/456
f 254/272/457 266/234/457 354/369/457
f 245/276/458 252/273/458 349/365/458
f 248/281/459 263/243/459 353/370/459
f 243/278/460 248/281/460 353/370/460
f 242/290/461 260/252/461 352/368/461
f 233/294/462 240/291/462 346/361/462
f 236/299/463 257/258/463 351/367/463
f 227/303/464 234/300/464 345/363/464
f 249/269/465 254/272/465 354/369/465
f 224/309/466 251/267/466 347/362/466
f 221/315/467 245/276/467 349/365/467
f 237/287/468 242/290/468 352/368/468
f 215/321/469 239/285/469 348/364/469
f 231/296/470 236/299/470 351/367/470
f 203/327/471 233/294/471 346/361/471
f 225/305/472 230/263/472 350/366/472
f 206/333/473 227/303/473 345/363/473
f 209/338/474 224/309/474 347/362/474
f 222/311/475 216/342/475 349/365/475
f 216/342/476 221/315/476 349/365/476
f 219/317/477 210/347/477 348/364/477
f 210/347/478 215/321/478 348/364/478
f 213/323/479 195/352/479 346/361/479
f 204/335/480 209/338/480 347/362/480
f 200/356/481 206/333/481 345/363/481
f 201/329/482 200/356/482 345/363/482
f 281/233/483 264/236/483 353/370/483
f 275/218/484 282/221/484 355/371/484
