# Blender v3.4.1 OBJ File: 'September2025_Cleric_Assets_Export.blend'
# www.blender.org
mtllib Cleric_Shield.mtl
o Cleric_Shield
v -0.000000 0.297860 -0.066055
v -0.000000 0.292873 0.045959
v 0.077092 0.287711 -0.066055
v 0.075801 0.282893 0.045959
v 0.148930 0.257954 -0.066055
v 0.146436 0.253635 0.045959
v 0.210619 0.210619 -0.066055
v 0.207092 0.207092 0.045959
v 0.257955 0.148930 -0.066055
v 0.253635 0.146436 0.045959
v 0.287711 0.077092 -0.066055
v 0.282893 0.075801 0.045959
v 0.297860 -0.000000 -0.066055
v 0.292873 -0.000000 0.045959
v 0.287711 -0.077092 -0.066055
v 0.282893 -0.075801 0.045959
v 0.257955 -0.148930 -0.066055
v 0.253635 -0.146436 0.045959
v 0.210619 -0.210619 -0.066055
v 0.207092 -0.207092 0.045959
v 0.148930 -0.257955 -0.066055
v 0.146436 -0.253635 0.045959
v 0.077092 -0.287711 -0.066055
v 0.075801 -0.282894 0.045959
v -0.000000 -0.297860 -0.066055
v -0.000000 -0.292873 0.045959
v -0.077092 -0.287711 -0.066055
v -0.075801 -0.282893 0.045959
v -0.148930 -0.257955 -0.066055
v -0.146436 -0.253635 0.045959
v -0.210619 -0.210619 -0.066055
v -0.207092 -0.207092 0.045959
v -0.257955 -0.148930 -0.066055
v -0.253635 -0.146436 0.045959
v -0.287711 -0.077092 -0.066055
v -0.282894 -0.075801 0.045959
v -0.297860 0.000000 -0.066055
v -0.292873 -0.000000 0.045959
v -0.287711 0.077092 -0.066055
v -0.282894 0.075801 0.045959
v -0.257955 0.148930 -0.066055
v -0.253635 0.146436 0.045959
v -0.210619 0.210619 -0.066055
v -0.207092 0.207092 0.045959
v -0.148930 0.257955 -0.066055
v -0.146436 0.253635 0.045959
v -0.077092 0.287711 -0.066055
v -0.075801 0.282893 0.045959
v 0.096948 0.361815 0.030447
v -0.000000 0.374579 0.030447
v 0.187289 0.324395 0.030447
v 0.264867 0.264867 0.030447
v 0.324395 0.187289 0.030447
v 0.361815 0.096948 0.030447
v 0.374579 -0.000000 0.030447
v 0.361815 -0.096948 0.030447
v 0.324395 -0.187289 0.030447
v 0.264867 -0.264867 0.030447
v 0.187289 -0.324395 0.030447
v 0.096948 -0.361815 0.030447
v -0.000000 -0.374579 0.030447
v -0.096948 -0.361815 0.030447
v -0.187289 -0.324395 0.030447
v -0.264867 -0.264867 0.030447
v -0.324395 -0.187289 0.030447
v -0.361815 -0.096948 0.030447
v -0.374579 -0.000000 0.030447
v -0.361815 0.096948 0.030447
v -0.324395 0.187289 0.030447
v -0.264867 0.264867 0.030447
v -0.187289 0.324395 0.030447
v -0.096948 0.361815 0.030447
v -0.000000 0.374579 -0.057392
v 0.096948 0.361815 -0.057392
v 0.187289 0.324395 -0.057392
v 0.264867 0.264867 -0.057392
v 0.324395 0.187289 -0.057392
v 0.361815 0.096948 -0.057392
v 0.374579 -0.000000 -0.057392
v 0.361815 -0.096948 -0.057392
v 0.324395 -0.187289 -0.057392
v 0.264867 -0.264867 -0.057392
v 0.187289 -0.324395 -0.057392
v 0.096948 -0.361815 -0.057392
v -0.000000 -0.374579 -0.057392
v -0.096948 -0.361815 -0.057392
v -0.187289 -0.324395 -0.057392
v -0.264867 -0.264867 -0.057392
v -0.324395 -0.187289 -0.057392
v -0.361815 -0.096948 -0.057392
v -0.374579 0.000000 -0.057392
v -0.361815 0.096948 -0.057392
v -0.324395 0.187289 -0.057392
v -0.264867 0.264867 -0.057392
v -0.187289 0.324395 -0.057392
v -0.096948 0.361815 -0.057392
v -0.000000 0.000000 0.002667
v 0.070298 0.262355 0.019964
v -0.000000 0.271610 0.019964
v 0.135805 0.235221 0.019964
v 0.192057 0.192057 0.019964
v 0.235221 0.135805 0.019964
v 0.262355 0.070298 0.019964
v 0.271610 -0.000000 0.019964
v 0.262355 -0.070298 0.019964
v 0.235221 -0.135805 0.019964
v 0.192057 -0.192057 0.019964
v 0.135805 -0.235221 0.019964
v 0.070298 -0.262355 0.019964
v -0.000000 -0.271610 0.019964
v -0.070298 -0.262355 0.019964
v -0.135805 -0.235221 0.019964
v -0.192057 -0.192057 0.019964
v -0.235221 -0.135805 0.019964
v -0.262355 -0.070298 0.019964
v -0.271610 -0.000000 0.019964
v -0.262355 0.070298 0.019964
v -0.235221 0.135805 0.019964
v -0.192057 0.192057 0.019964
v -0.135805 0.235221 0.019964
v -0.070298 0.262355 0.019964
v -0.000000 0.198927 0.035813
v 0.051486 0.192149 0.035813
v 0.099464 0.172276 0.035813
v 0.140663 0.140662 0.035813
v 0.172276 0.099464 0.035813
v 0.192149 0.051486 0.035813
v 0.198927 0.000000 0.035813
v 0.192149 -0.051486 0.035813
v 0.172276 -0.099464 0.035813
v 0.140662 -0.140663 0.035813
v 0.099463 -0.172276 0.035813
v 0.051486 -0.192149 0.035813
v -0.000000 -0.198927 0.035813
v -0.051486 -0.192149 0.035813
v -0.099463 -0.172276 0.035813
v -0.140662 -0.140663 0.035813
v -0.172276 -0.099463 0.035813
v -0.192149 -0.051486 0.035813
v -0.198927 0.000000 0.035813
v -0.192149 0.051486 0.035813
v -0.172276 0.099463 0.035813
v -0.140663 0.140662 0.035813
v -0.099464 0.172276 0.035813
v -0.051486 0.192149 0.035813
v -0.000000 0.258287 -0.029738
v 0.066850 0.249486 -0.029738
v 0.129144 0.223683 -0.029738
v 0.182637 0.182637 -0.029738
v 0.223683 0.129144 -0.029738
v 0.249486 0.066850 -0.029738
v 0.258287 -0.000000 -0.029738
v 0.249486 -0.066850 -0.029738
v 0.223683 -0.129144 -0.029738
v 0.182637 -0.182637 -0.029738
v 0.129144 -0.223683 -0.029738
v 0.066850 -0.249486 -0.029738
v -0.000000 -0.258287 -0.029738
v -0.066850 -0.249486 -0.029738
v -0.129144 -0.223684 -0.029738
v -0.182637 -0.182637 -0.029738
v -0.223684 -0.129144 -0.029738
v -0.249487 -0.066850 -0.029738
v -0.258287 0.000000 -0.029738
v -0.249487 0.066850 -0.029738
v -0.223684 0.129144 -0.029738
v -0.182637 0.182637 -0.029738
v -0.129144 0.223683 -0.029738
v -0.066850 0.249487 -0.029738
v 0.073396 -0.073396 0.035813
v 0.073396 0.073396 0.035813
v -0.000000 0.000000 0.094590
v -0.073396 -0.073396 0.035813
v -0.073396 0.073396 0.035813
v 0.056655 0.056655 0.077701
v 0.056655 -0.056655 0.077701
v -0.056655 -0.056655 0.077701
v -0.056655 0.056655 0.077701
v -0.000000 0.154749 0.077701
v -0.000000 -0.154749 0.077701
v 0.154749 0.000000 0.077701
v -0.154749 0.000000 0.077701
v 0.117513 0.353297 -0.035133
v 0.117513 0.353297 0.008188
v 0.166725 0.332913 0.008188
v 0.166725 0.332913 -0.035133
v 0.332913 0.166725 -0.035133
v 0.332913 0.166725 0.008188
v 0.353297 0.117513 0.008188
v 0.353297 0.117513 -0.035133
v 0.353297 -0.117513 -0.035133
v 0.353297 -0.117513 0.008188
v 0.332913 -0.166725 0.008188
v 0.332913 -0.166725 -0.035133
v 0.166725 -0.332913 -0.035133
v 0.166725 -0.332913 0.008188
v 0.117513 -0.353297 0.008188
v 0.117513 -0.353297 -0.035133
v -0.117513 -0.353297 -0.035133
v -0.117513 -0.353297 0.008188
v -0.166725 -0.332913 0.008188
v -0.166725 -0.332913 -0.035133
v -0.332913 -0.166725 -0.035133
v -0.332913 -0.166725 0.008188
v -0.353297 -0.117513 0.008188
v -0.353297 -0.117513 -0.035133
v -0.353297 0.117513 -0.035133
v -0.353297 0.117513 0.008188
v -0.332913 0.166725 0.008188
v -0.332913 0.166725 -0.035133
v -0.166725 0.332913 -0.035133
v -0.166725 0.332913 0.008188
v -0.117513 0.353297 0.008188
v -0.117513 0.353297 -0.035133
v 0.155003 0.374211 -0.013473
v 0.374211 0.155003 -0.013473
v 0.374211 -0.155003 -0.013473
v 0.155003 -0.374211 -0.013473
v -0.155003 -0.374211 -0.013473
v -0.374211 -0.155003 -0.013473
v -0.374211 0.155003 -0.013473
v -0.155003 0.374211 -0.013473
v 0.096447 0.292817 0.042691
v 0.138855 0.275251 0.042691
v 0.162491 0.316191 0.033715
v 0.108682 0.338479 0.033715
v 0.275251 0.138855 0.042691
v 0.292817 0.096447 0.042691
v 0.338479 0.108682 0.033715
v 0.316191 0.162491 0.033715
v 0.292817 -0.096447 0.042691
v 0.275251 -0.138855 0.042691
v 0.316191 -0.162491 0.033715
v 0.338479 -0.108682 0.033715
v 0.138855 -0.275252 0.042691
v 0.096447 -0.292817 0.042691
v 0.108682 -0.338479 0.033715
v 0.162491 -0.316191 0.033715
v -0.096447 -0.292817 0.042691
v -0.138855 -0.275252 0.042691
v -0.162491 -0.316191 0.033715
v -0.108682 -0.338479 0.033715
v -0.275251 -0.138855 0.042691
v -0.292817 -0.096447 0.042691
v -0.338479 -0.108682 0.033715
v -0.316191 -0.162491 0.033715
v -0.292817 0.096447 0.042691
v -0.275252 0.138855 0.042691
v -0.316191 0.162491 0.033715
v -0.338479 0.108682 0.033715
v -0.138855 0.275251 0.042691
v -0.096447 0.292817 0.042691
v -0.108682 0.338479 0.033715
v -0.162491 0.316191 0.033715
v 0.128766 0.310869 0.067507
v 0.310869 0.128766 0.067507
v 0.310869 -0.128766 0.067507
v 0.128766 -0.310869 0.067507
v -0.128766 -0.310869 0.067507
v -0.310869 -0.128766 0.067507
v -0.310869 0.128766 0.067507
v -0.128766 0.310869 0.067507
v -0.110637 -0.032880 -0.064707
v -0.110637 0.032880 -0.064707
v 0.110637 -0.032880 -0.064707
v 0.110637 0.032880 -0.064707
v 0.000000 -0.037204 -0.070438
v 0.000000 0.037204 -0.070438
v -0.122930 -0.045498 -0.000247
v -0.122930 0.045498 -0.000247
v 0.122930 -0.045498 -0.000247
v 0.122930 0.045498 -0.000247
v 0.000000 0.055806 -0.000247
v 0.000000 -0.055806 -0.000247
v -0.120824 0.043302 -0.045338
v -0.118718 0.000000 -0.068475
v -0.069091 -0.038533 -0.069456
v 0.069091 0.038533 -0.069456
v 0.118718 -0.000000 -0.068475
v 0.120824 -0.043302 -0.045338
v 0.069091 -0.038533 -0.069456
v -0.069091 0.038533 -0.069456
v -0.000000 -0.000000 -0.079035
v -0.120824 -0.043302 -0.045338
v 0.120824 0.043302 -0.045338
v -0.000000 0.053480 -0.046081
v 0.000000 -0.053480 -0.046081
v -0.070685 -0.058250 -0.000247
v 0.070685 0.058250 -0.000247
v -0.070685 0.058250 -0.000247
v 0.070685 -0.058250 -0.000247
v 0.141369 -0.000000 -0.000247
v -0.141369 0.000000 -0.000247
v -0.138523 -0.000000 -0.045710
v 0.069888 -0.000000 -0.077708
v -0.069888 -0.000000 -0.077708
v -0.070286 -0.055748 -0.045895
v 0.070286 0.055748 -0.045895
v -0.070286 0.055748 -0.045895
v 0.070286 -0.055748 -0.045895
v 0.138523 0.000000 -0.045710
vt 0.419920 0.928455
vt 0.419920 0.928455
vt 0.426088 0.927166
vt 0.426088 0.927166
vt 0.441100 0.888135
vt 0.442396 0.893104
vt 0.441100 0.888135
vt 0.431835 0.923388
vt 0.431835 0.923388
vt 0.436770 0.917379
vt 0.436770 0.917379
vt 0.440558 0.909547
vt 0.440558 0.909547
vt 0.412445 0.940635
vt 0.409314 0.938577
vt 0.412445 0.940635
vt 0.442937 0.900426
vt 0.442937 0.900426
vt 0.443749 0.890638
vt 0.443749 0.890638
vt 0.442937 0.880851
vt 0.442937 0.880851
vt 0.430527 0.952906
vt 0.430527 0.952906
vt 0.430527 0.952906
vt 0.440558 0.871730
vt 0.440558 0.871730
vt 0.436770 0.863898
vt 0.436770 0.863898
vt 0.431835 0.857888
vt 0.431835 0.857888
vt 0.397445 0.907433
vt 0.397445 0.907433
vt 0.397445 0.907433
vt 0.426088 0.854111
vt 0.426088 0.854110
vt 0.419920 0.852822
vt 0.419920 0.852822
vt 0.413753 0.854110
vt 0.413753 0.854111
vt 0.442396 0.907433
vt 0.442396 0.907433
vt 0.442396 0.907433
vt 0.408006 0.857888
vt 0.408006 0.857888
vt 0.403071 0.863898
vt 0.403071 0.863898
vt 0.399283 0.871730
vt 0.399283 0.871730
vt 0.409314 0.952906
vt 0.409314 0.952906
vt 0.409314 0.952906
vt 0.396903 0.880851
vt 0.396903 0.880851
vt 0.396091 0.890638
vt 0.396091 0.890638
vt 0.396903 0.900426
vt 0.396903 0.900426
vt 0.427397 0.969293
vt 0.430527 0.967235
vt 0.427397 0.969293
vt 0.399283 0.909547
vt 0.399283 0.909547
vt 0.403071 0.917379
vt 0.403071 0.917379
vt 0.408006 0.923388
vt 0.408006 0.923388
vt 0.410604 0.807716
vt 0.415098 0.804762
vt 0.415449 0.806835
vt 0.411281 0.809574
vt 0.398741 0.916794
vt 0.397445 0.921762
vt 0.398741 0.916794
vt 0.413753 0.927166
vt 0.413753 0.927166
vt 0.424825 0.862368
vt 0.429394 0.859364
vt 0.428136 0.855905
vt 0.424173 0.858509
vt 0.419920 0.891548
vt 0.424743 0.890540
vt 0.426088 0.898508
vt 0.419920 0.899796
vt 0.440036 0.907043
vt 0.437431 0.904657
vt 0.440036 0.907043
vt 0.429236 0.887586
vt 0.433096 0.882888
vt 0.436770 0.888720
vt 0.431835 0.894730
vt 0.436055 0.876764
vt 0.440558 0.880888
vt 0.398388 0.901611
vt 0.401293 0.900375
vt 0.398388 0.901611
vt 0.437916 0.869633
vt 0.438552 0.861980
vt 0.443749 0.861980
vt 0.442937 0.871768
vt 0.437916 0.854327
vt 0.442937 0.852192
vt 0.409584 0.873046
vt 0.413006 0.870795
vt 0.409584 0.873046
vt 0.436055 0.847196
vt 0.433096 0.841072
vt 0.436770 0.835240
vt 0.440558 0.843072
vt 0.429236 0.836374
vt 0.431835 0.829230
vt 0.437431 0.890328
vt 0.438548 0.886046
vt 0.437431 0.890328
vt 0.424743 0.833420
vt 0.419920 0.832412
vt 0.419920 0.824164
vt 0.426088 0.825452
vt 0.415098 0.833420
vt 0.413753 0.825452
vt 0.401293 0.886046
vt 0.402410 0.890328
vt 0.401293 0.886046
vt 0.410604 0.836374
vt 0.406746 0.841072
vt 0.403071 0.835240
vt 0.408006 0.829230
vt 0.403785 0.847196
vt 0.399283 0.843072
vt 0.411087 0.862850
vt 0.409584 0.858717
vt 0.411087 0.862850
vt 0.401924 0.854327
vt 0.401289 0.861980
vt 0.396091 0.861980
vt 0.396903 0.852192
vt 0.401924 0.869633
vt 0.396903 0.871768
vt 0.413006 0.856466
vt 0.413784 0.861076
vt 0.413006 0.856466
vt 0.403785 0.876764
vt 0.406746 0.882888
vt 0.403071 0.888720
vt 0.399283 0.880888
vt 0.410604 0.887586
vt 0.408006 0.894730
vt 0.440036 0.888563
vt 0.441453 0.893995
vt 0.440036 0.888563
vt 0.415098 0.890540
vt 0.413753 0.898508
vt 0.437916 0.825669
vt 0.438552 0.833322
vt 0.437198 0.833322
vt 0.436611 0.826225
vt 0.410604 0.858928
vt 0.406746 0.854229
vt 0.407703 0.852711
vt 0.411281 0.857069
vt 0.406746 0.812414
vt 0.407703 0.813932
vt 0.436055 0.818538
vt 0.434884 0.819611
vt 0.415098 0.861882
vt 0.415449 0.859809
vt 0.424743 0.861882
vt 0.419920 0.862889
vt 0.419920 0.860743
vt 0.424393 0.859809
vt 0.403785 0.818538
vt 0.404956 0.819611
vt 0.433096 0.812414
vt 0.432138 0.813932
vt 0.429236 0.858928
vt 0.428560 0.857069
vt 0.401924 0.825669
vt 0.403230 0.826225
vt 0.429236 0.807716
vt 0.428560 0.809574
vt 0.433096 0.854229
vt 0.432138 0.852711
vt 0.401289 0.833322
vt 0.402642 0.833322
vt 0.424743 0.804762
vt 0.424393 0.806835
vt 0.436055 0.848106
vt 0.434884 0.847032
vt 0.401924 0.840975
vt 0.403230 0.840419
vt 0.419920 0.803754
vt 0.419920 0.805901
vt 0.437916 0.840975
vt 0.436611 0.840419
vt 0.403785 0.848106
vt 0.404956 0.847032
vt 0.424825 0.891027
vt 0.419920 0.892051
vt 0.419920 0.899796
vt 0.426088 0.898508
vt 0.429394 0.888022
vt 0.431835 0.894730
vt 0.433320 0.883244
vt 0.436770 0.888720
vt 0.436330 0.877016
vt 0.440558 0.880888
vt 0.438223 0.869763
vt 0.442937 0.871768
vt 0.438869 0.861980
vt 0.443749 0.861980
vt 0.438223 0.854197
vt 0.442937 0.852192
vt 0.436330 0.846944
vt 0.440558 0.843072
vt 0.433320 0.840717
vt 0.436770 0.835240
vt 0.429394 0.835938
vt 0.431835 0.829230
vt 0.424825 0.832934
vt 0.426088 0.825452
vt 0.419920 0.831909
vt 0.419920 0.824164
vt 0.415017 0.832934
vt 0.413753 0.825452
vt 0.410446 0.835938
vt 0.408006 0.829230
vt 0.406521 0.840717
vt 0.403071 0.835240
vt 0.403510 0.846944
vt 0.399283 0.843072
vt 0.401617 0.854197
vt 0.396903 0.852192
vt 0.400972 0.861980
vt 0.396091 0.861980
vt 0.401617 0.869763
vt 0.396903 0.871768
vt 0.403510 0.877016
vt 0.399283 0.880888
vt 0.406521 0.883244
vt 0.403071 0.888720
vt 0.410446 0.888022
vt 0.408006 0.894730
vt 0.415017 0.891027
vt 0.413753 0.898508
vt 0.403510 0.818286
vt 0.401617 0.825539
vt 0.404048 0.826573
vt 0.405690 0.820284
vt 0.433320 0.812058
vt 0.429394 0.807279
vt 0.428136 0.810739
vt 0.431539 0.814883
vt 0.433320 0.854585
vt 0.431539 0.851760
vt 0.400972 0.833322
vt 0.403490 0.833322
vt 0.424825 0.804275
vt 0.424173 0.808134
vt 0.436330 0.848358
vt 0.434150 0.846360
vt 0.401617 0.841105
vt 0.404048 0.840071
vt 0.419920 0.803251
vt 0.419920 0.807246
vt 0.438223 0.841105
vt 0.435792 0.840071
vt 0.403510 0.848358
vt 0.405690 0.846360
vt 0.415017 0.804275
vt 0.415667 0.808134
vt 0.438869 0.833322
vt 0.436352 0.833322
vt 0.406521 0.854585
vt 0.408302 0.851760
vt 0.410446 0.807279
vt 0.411704 0.810739
vt 0.438223 0.825539
vt 0.435792 0.826573
vt 0.410446 0.859364
vt 0.411704 0.855905
vt 0.406521 0.812058
vt 0.408302 0.814883
vt 0.436330 0.818286
vt 0.434150 0.820284
vt 0.415017 0.862368
vt 0.415667 0.858509
vt 0.419920 0.863393
vt 0.419920 0.859398
vt 0.821308 0.613175
vt 0.825691 0.611981
vt 0.827291 0.624351
vt 0.821308 0.625982
vt 0.829775 0.608479
vt 0.832868 0.619570
vt 0.833281 0.602909
vt 0.837657 0.611965
vt 0.835974 0.595650
vt 0.841333 0.602053
vt 0.837666 0.587197
vt 0.843641 0.590511
vt 0.838241 0.578125
vt 0.844430 0.578125
vt 0.838241 0.609375
vt 0.837666 0.600303
vt 0.843641 0.596988
vt 0.844430 0.609375
vt 0.835974 0.591850
vt 0.841333 0.585446
vt 0.833281 0.584591
vt 0.837657 0.575535
vt 0.829775 0.579020
vt 0.832868 0.567930
vt 0.825691 0.575519
vt 0.827291 0.563149
vt 0.821308 0.574325
vt 0.821308 0.561518
vt 0.821308 0.543075
vt 0.816924 0.544269
vt 0.815323 0.531899
vt 0.821308 0.530268
vt 0.812840 0.547770
vt 0.809746 0.536680
vt 0.809333 0.553340
vt 0.804958 0.544285
vt 0.806641 0.560600
vt 0.801282 0.554196
vt 0.804949 0.569053
vt 0.798973 0.565738
vt 0.804373 0.578125
vt 0.798185 0.578125
vt 0.804373 0.609375
vt 0.804949 0.618447
vt 0.798973 0.621761
vt 0.798185 0.609375
vt 0.806641 0.626900
vt 0.801282 0.633303
vt 0.809333 0.634159
vt 0.804958 0.643215
vt 0.812840 0.639729
vt 0.809746 0.650820
vt 0.816924 0.643231
vt 0.815323 0.655601
vt 0.821308 0.625000
vt 0.821308 0.670509
vt 0.827000 0.668959
vt 0.832301 0.664412
vt 0.836856 0.657180
vt 0.840350 0.647754
vt 0.842547 0.636779
vt 0.843295 0.625000
vt 0.842547 0.613221
vt 0.840350 0.602245
vt 0.836856 0.592820
vt 0.832301 0.585588
vt 0.827000 0.581041
vt 0.821308 0.579490
vt 0.815615 0.581041
vt 0.810313 0.585588
vt 0.805759 0.592820
vt 0.802265 0.602245
vt 0.800068 0.613221
vt 0.799320 0.625000
vt 0.800068 0.636779
vt 0.802265 0.647754
vt 0.805759 0.657180
vt 0.810313 0.664412
vt 0.815615 0.668959
vt 0.410738 0.845618
vt 0.410738 0.845618
vt 0.395133 0.852848
vt 0.395133 0.852848
vt 0.419747 0.833099
vt 0.419747 0.833099
vt 0.428757 0.863874
vt 0.419747 0.871103
vt 0.419747 0.851355
vt 0.419747 0.902531
vt 0.410738 0.895302
vt 0.419747 0.882783
vt 0.410738 0.860078
vt 0.410738 0.860078
vt 0.419747 0.872596
vt 0.419747 0.872596
vt 0.428757 0.860078
vt 0.428757 0.860078
vt 0.428757 0.845618
vt 0.428757 0.845618
vt 0.444362 0.871103
vt 0.428757 0.878334
vt 0.444362 0.852848
vt 0.444362 0.852848
vt 0.410738 0.909761
vt 0.395133 0.902531
vt 0.428757 0.909761
vt 0.419747 0.922279
vt 0.410738 0.863874
vt 0.395133 0.871103
vt 0.419747 0.890852
vt 0.410738 0.878334
vt 0.428757 0.895302
vt 0.444362 0.902531
vt 0.827556 0.606682
vt 0.829775 0.624104
vt 0.825691 0.627606
vt 0.827556 0.612068
vt 0.837666 0.615928
vt 0.838241 0.625000
vt 0.815059 0.580818
vt 0.816924 0.559894
vt 0.821308 0.558700
vt 0.815059 0.637932
vt 0.804949 0.634072
vt 0.804373 0.625000
vt 0.833281 0.618534
vt 0.838241 0.593750
vt 0.837666 0.602822
vt 0.835974 0.611275
vt 0.821308 0.628800
vt 0.835974 0.607475
vt 0.821308 0.589950
vt 0.825691 0.591144
vt 0.829775 0.594645
vt 0.833281 0.600216
vt 0.812840 0.563395
vt 0.809333 0.568965
vt 0.806641 0.576225
vt 0.804949 0.584678
vt 0.804373 0.593750
vt 0.806641 0.642525
vt 0.821308 0.660050
vt 0.816924 0.658856
vt 0.812840 0.655354
vt 0.809333 0.649784
vt 0.427397 0.926306
vt 0.427397 0.926306
vt 0.430527 0.924248
vt 0.430527 0.924248
vt 0.441100 0.907470
vt 0.441100 0.907470
vt 0.442396 0.902502
vt 0.442396 0.902502
vt 0.442396 0.878775
vt 0.442396 0.878774
vt 0.441100 0.873806
vt 0.441100 0.873806
vt 0.430527 0.857028
vt 0.430527 0.857028
vt 0.427397 0.854970
vt 0.427397 0.854970
vt 0.412445 0.854970
vt 0.412445 0.854970
vt 0.409314 0.857028
vt 0.409314 0.857028
vt 0.398741 0.873806
vt 0.398741 0.873806
vt 0.397445 0.878774
vt 0.397445 0.878775
vt 0.397445 0.902502
vt 0.397445 0.902502
vt 0.398741 0.907470
vt 0.398741 0.907470
vt 0.409314 0.924248
vt 0.409314 0.924248
vt 0.412445 0.926306
vt 0.412445 0.926306
vt 0.409314 0.967236
vt 0.412445 0.969294
vt 0.409314 0.967236
vt 0.442396 0.921762
vt 0.441100 0.916794
vt 0.442396 0.921762
vt 0.412445 0.883629
vt 0.412445 0.883629
vt 0.412445 0.883629
vt 0.412445 0.954964
vt 0.412445 0.954965
vt 0.412445 0.954964
vt 0.441100 0.902464
vt 0.441100 0.902464
vt 0.441100 0.902464
vt 0.409314 0.871358
vt 0.412445 0.869300
vt 0.409314 0.871358
vt 0.412445 0.897958
vt 0.409314 0.900016
vt 0.412445 0.897958
vt 0.397445 0.931160
vt 0.397445 0.931160
vt 0.397445 0.931160
vt 0.441100 0.936129
vt 0.441100 0.936129
vt 0.441100 0.936129
vt 0.409314 0.885687
vt 0.409314 0.885687
vt 0.409314 0.885687
vt 0.398741 0.921799
vt 0.397445 0.916831
vt 0.398741 0.921799
vt 0.442396 0.916831
vt 0.441100 0.921799
vt 0.442396 0.916831
vt 0.397445 0.945489
vt 0.398741 0.950458
vt 0.397445 0.945489
vt 0.441100 0.950458
vt 0.442396 0.945489
vt 0.441100 0.950458
vt 0.430527 0.885687
vt 0.430527 0.885687
vt 0.430527 0.885687
vt 0.398741 0.936129
vt 0.398741 0.936129
vt 0.398741 0.936129
vt 0.442396 0.931160
vt 0.442396 0.931160
vt 0.442396 0.931160
vt 0.427397 0.869300
vt 0.430527 0.871357
vt 0.427397 0.869300
vt 0.430527 0.900016
vt 0.427397 0.897958
vt 0.430527 0.900016
vt 0.398741 0.902464
vt 0.398741 0.902464
vt 0.398741 0.902464
vt 0.427397 0.954964
vt 0.427397 0.954964
vt 0.427397 0.954964
vt 0.427397 0.883629
vt 0.427397 0.883629
vt 0.427397 0.883629
vt 0.397445 0.893104
vt 0.398741 0.888135
vt 0.397445 0.893104
vt 0.430527 0.938577
vt 0.427397 0.940635
vt 0.430527 0.938577
vt 0.428754 0.889769
vt 0.426056 0.891542
vt 0.430258 0.893902
vt 0.426835 0.896152
vt 0.438548 0.871717
vt 0.437431 0.875998
vt 0.441453 0.872952
vt 0.440036 0.878385
vt 0.437431 0.847961
vt 0.438548 0.852243
vt 0.440036 0.845575
vt 0.441453 0.851008
vt 0.426056 0.832418
vt 0.428754 0.834191
vt 0.426835 0.827808
vt 0.430258 0.830058
vt 0.411087 0.834191
vt 0.413784 0.832418
vt 0.409584 0.830058
vt 0.413006 0.827808
vt 0.401293 0.852243
vt 0.402410 0.847962
vt 0.398388 0.851008
vt 0.399805 0.845575
vt 0.402410 0.875998
vt 0.401293 0.871717
vt 0.399805 0.878385
vt 0.398388 0.872952
vt 0.413784 0.891542
vt 0.411087 0.889769
vt 0.413006 0.896152
vt 0.409584 0.893902
vt 0.402410 0.904657
vt 0.399805 0.907043
vt 0.402410 0.904657
vt 0.438548 0.900375
vt 0.441453 0.901611
vt 0.438548 0.900375
vt 0.428754 0.848521
vt 0.426056 0.846747
vt 0.428754 0.848521
vt 0.399805 0.921372
vt 0.398388 0.915940
vt 0.399805 0.921372
vt 0.441453 0.915940
vt 0.440036 0.921372
vt 0.441453 0.915940
vt 0.430258 0.858717
vt 0.428754 0.862850
vt 0.430258 0.858717
vt 0.426056 0.861076
vt 0.426835 0.856466
vt 0.426056 0.861076
vt 0.402410 0.862291
vt 0.401293 0.866572
vt 0.402410 0.862291
vt 0.426056 0.905871
vt 0.428754 0.904098
vt 0.426056 0.905871
vt 0.426835 0.870795
vt 0.430258 0.873046
vt 0.426835 0.870795
vt 0.399805 0.874234
vt 0.402410 0.876620
vt 0.399805 0.874234
vt 0.426835 0.924810
vt 0.426056 0.920200
vt 0.426835 0.924810
vt 0.401293 0.880901
vt 0.398388 0.879666
vt 0.401293 0.880901
vt 0.428754 0.918427
vt 0.430258 0.922560
vt 0.428754 0.918427
vt 0.411087 0.904098
vt 0.413784 0.905871
vt 0.411087 0.904098
vt 0.438548 0.866572
vt 0.437431 0.862291
vt 0.438548 0.866572
vt 0.398388 0.893995
vt 0.399805 0.888563
vt 0.398388 0.893995
vt 0.430258 0.936889
vt 0.426835 0.939139
vt 0.430258 0.936889
vt 0.409584 0.922560
vt 0.411087 0.918427
vt 0.409584 0.922560
vt 0.441453 0.879666
vt 0.438548 0.880901
vt 0.441453 0.879666
vt 0.413784 0.920200
vt 0.413006 0.924810
vt 0.413784 0.920200
vt 0.437431 0.876620
vt 0.440036 0.874234
vt 0.437431 0.876620
vt 0.413784 0.846747
vt 0.411087 0.848521
vt 0.413784 0.846747
vt 0.413006 0.939139
vt 0.409584 0.936889
vt 0.413006 0.939139
vt 0.821308 0.644425
vt 0.821308 0.657232
vt 0.389195 0.842604
vt 0.389195 0.859375
vt 0.390103 0.859375
vt 0.393734 0.848182
vt 0.389195 0.876146
vt 0.393734 0.870569
vt 0.389195 0.876146
vt 0.389195 0.859375
vt 0.389195 0.842604
vt 0.421874 0.849219
vt 0.421873 0.859375
vt 0.438211 0.859375
vt 0.438211 0.845912
vt 0.421874 0.869532
vt 0.438211 0.872839
vt 0.454548 0.876146
vt 0.454548 0.859375
vt 0.454548 0.842605
vt 0.405535 0.859375
vt 0.405535 0.845912
vt 0.405535 0.872839
vt 0.405988 0.846286
vt 0.421874 0.847382
vt 0.421874 0.849219
vt 0.405535 0.845912
vt 0.437757 0.872465
vt 0.450010 0.870569
vt 0.421873 0.871369
vt 0.421874 0.869532
vt 0.438211 0.872839
vt 0.454548 0.876146
vt 0.405989 0.872465
vt 0.405535 0.872839
vt 0.437757 0.846286
vt 0.450010 0.848182
vt 0.454548 0.842604
vt 0.438211 0.845912
vt 0.453641 0.859375
vt 0.454548 0.859375
vn 0.0000 1.0000 0.0000
vn 0.2588 0.9659 -0.0000
vn 0.4999 -0.2070 -0.8410
vn 0.5000 0.8660 0.0000
vn 0.7071 0.7071 0.0000
vn 0.8660 0.5000 0.0000
vn -0.2070 0.4999 -0.8410
vn 0.9659 0.2588 0.0000
vn 1.0000 -0.0000 -0.0000
vn 0.9659 -0.2588 0.0000
vn 0.9620 0.2730 0.0000
vn 0.8660 -0.5000 -0.0000
vn 0.7071 -0.7071 0.0000
vn 0.5000 -0.8660 0.0000
vn -0.8733 0.4872 0.0000
vn 0.2588 -0.9659 -0.0000
vn -0.0000 -1.0000 -0.0000
vn -0.2588 -0.9659 -0.0000
vn 0.8733 0.4872 0.0000
vn -0.5000 -0.8660 -0.0000
vn -0.7071 -0.7071 -0.0000
vn -0.8660 -0.5000 -0.0000
vn -0.9620 0.2730 0.0000
vn -0.9659 -0.2588 -0.0000
vn -1.0000 -0.0000 0.0000
vn -0.9659 0.2588 0.0000
vn 0.2070 0.4999 0.8410
vn -0.8660 0.5000 0.0000
vn -0.7071 0.7071 0.0000
vn -0.5000 0.8660 0.0000
vn 0.3870 0.6703 0.6331
vn 0.2003 0.7477 0.6331
vn -0.4999 -0.2070 0.8410
vn -0.2588 0.9659 0.0000
vn -0.1750 -0.6531 -0.7368
vn -0.3381 -0.5856 -0.7368
vn 0.0000 0.1865 0.9824
vn 0.0483 0.1802 0.9824
vn -0.2613 0.7035 0.6609
vn 0.0933 0.1615 0.9824
vn 0.1319 0.1319 0.9824
vn 0.1615 0.0933 0.9824
vn -0.3127 -0.6822 0.6609
vn 0.1802 0.0483 0.9824
vn 0.1865 -0.0000 0.9824
vn 0.1802 -0.0483 0.9824
vn -0.3385 -0.8172 0.4665
vn 0.1615 -0.0933 0.9824
vn 0.1319 -0.1319 0.9824
vn 0.0933 -0.1615 0.9824
vn -0.6001 -0.2486 0.7603
vn 0.0483 -0.1802 0.9824
vn -0.0000 -0.1865 0.9824
vn -0.0483 -0.1802 0.9824
vn 0.6001 -0.2486 0.7603
vn -0.0933 -0.1615 0.9824
vn -0.1319 -0.1319 0.9824
vn -0.1615 -0.0933 0.9824
vn -0.7035 0.2613 0.6609
vn -0.1802 -0.0483 0.9824
vn -0.1865 -0.0000 0.9824
vn -0.1802 0.0483 0.9824
vn 0.6822 -0.3127 0.6609
vn -0.1615 0.0933 0.9824
vn -0.1319 0.1319 0.9824
vn -0.0933 0.1615 0.9824
vn 0.8172 -0.3385 0.4665
vn -0.0483 0.1802 0.9824
vn -0.7477 0.2003 0.6331
vn -0.7740 0.0000 0.6331
vn 0.3870 -0.6703 0.6331
vn 0.5473 -0.5473 0.6331
vn 0.5473 0.5473 0.6331
vn -0.6703 0.3870 0.6331
vn 0.2003 -0.7477 0.6331
vn -0.2003 -0.7477 0.6331
vn -0.0000 -0.7740 0.6331
vn 0.6703 0.3870 0.6331
vn -0.5473 0.5473 0.6331
vn -0.3870 -0.6703 0.6331
vn 0.7477 0.2003 0.6331
vn -0.3870 0.6703 0.6331
vn -0.5473 -0.5473 0.6331
vn 0.7740 0.0000 0.6331
vn -0.2003 0.7477 0.6331
vn -0.6703 -0.3870 0.6331
vn 0.7477 -0.2003 0.6331
vn 0.0000 0.7740 0.6331
vn -0.7477 -0.2003 0.6331
vn 0.6703 -0.3870 0.6331
vn 0.0290 0.1084 -0.9937
vn 0.0000 0.1122 -0.9937
vn 0.0561 0.0972 -0.9937
vn 0.0793 0.0793 -0.9937
vn 0.0972 0.0561 -0.9937
vn 0.1084 0.0290 -0.9937
vn 0.1122 -0.0000 -0.9937
vn 0.1084 -0.0290 -0.9937
vn 0.0972 -0.0561 -0.9937
vn 0.0793 -0.0793 -0.9937
vn 0.0561 -0.0972 -0.9937
vn 0.0290 -0.1084 -0.9937
vn -0.0000 -0.1122 -0.9937
vn -0.0290 -0.1084 -0.9937
vn -0.0561 -0.0972 -0.9937
vn -0.0793 -0.0793 -0.9937
vn -0.0972 -0.0561 -0.9937
vn -0.1084 -0.0290 -0.9937
vn -0.1122 0.0000 -0.9937
vn -0.1084 0.0290 -0.9937
vn -0.0972 0.0561 -0.9937
vn -0.0793 0.0793 -0.9937
vn -0.0561 0.0972 -0.9937
vn -0.0290 0.1084 -0.9937
vn 0.5856 0.3381 -0.7368
vn 0.6531 0.1750 -0.7368
vn -0.4781 0.4781 -0.7368
vn -0.3381 0.5856 -0.7368
vn -0.4781 -0.4781 -0.7368
vn 0.6761 0.0000 -0.7368
vn -0.1750 0.6531 -0.7368
vn -0.5856 -0.3381 -0.7368
vn 0.6531 -0.1750 -0.7368
vn 0.0000 0.6761 -0.7368
vn -0.6531 -0.1750 -0.7368
vn 0.5856 -0.3381 -0.7368
vn 0.1750 0.6531 -0.7368
vn -0.6761 0.0000 -0.7368
vn 0.4781 -0.4781 -0.7368
vn 0.3381 0.5856 -0.7368
vn -0.6531 0.1750 -0.7368
vn 0.3381 -0.5856 -0.7368
vn 0.4781 0.4781 -0.7368
vn -0.5856 0.3381 -0.7368
vn 0.1750 -0.6531 -0.7368
vn -0.0000 -0.6761 -0.7368
vn -0.0000 0.2130 0.9770
vn 0.0551 0.2058 0.9770
vn 0.1065 0.1845 0.9770
vn 0.1506 0.1506 0.9770
vn 0.1845 0.1065 0.9770
vn 0.2058 0.0551 0.9770
vn 0.2130 -0.0000 0.9770
vn 0.2058 -0.0551 0.9770
vn 0.1845 -0.1065 0.9770
vn 0.1506 -0.1506 0.9770
vn 0.1065 -0.1845 0.9770
vn 0.0551 -0.2058 0.9770
vn -0.0000 -0.2130 0.9770
vn -0.0551 -0.2058 0.9770
vn -0.1065 -0.1845 0.9770
vn -0.1506 -0.1506 0.9770
vn -0.1845 -0.1065 0.9770
vn -0.2058 -0.0551 0.9770
vn -0.2130 0.0000 0.9770
vn -0.2058 0.0551 0.9770
vn -0.1845 0.1065 0.9770
vn -0.1506 0.1506 0.9770
vn -0.1065 0.1845 0.9770
vn -0.0551 0.2058 0.9770
vn -0.0000 -0.0000 -1.0000
vn -0.0000 -0.1245 -0.9922
vn -0.0322 -0.1202 -0.9922
vn -0.0622 -0.1078 -0.9922
vn -0.0880 -0.0880 -0.9922
vn -0.1078 -0.0622 -0.9922
vn -0.1202 -0.0322 -0.9922
vn -0.1245 0.0000 -0.9922
vn -0.1202 0.0322 -0.9922
vn -0.1078 0.0622 -0.9922
vn -0.0880 0.0880 -0.9922
vn -0.0622 0.1078 -0.9922
vn -0.0322 0.1202 -0.9922
vn 0.0000 0.1245 -0.9922
vn 0.0322 0.1202 -0.9922
vn 0.0622 0.1078 -0.9922
vn 0.0880 0.0880 -0.9922
vn 0.1078 0.0622 -0.9922
vn 0.1202 0.0322 -0.9922
vn 0.1245 -0.0000 -0.9922
vn 0.1202 -0.0322 -0.9922
vn 0.1078 -0.0622 -0.9922
vn 0.0880 -0.0880 -0.9922
vn 0.0622 -0.1078 -0.9922
vn 0.0322 -0.1202 -0.9922
vn -0.4427 -0.7612 0.4740
vn -0.7612 -0.4427 0.4740
vn 0.1846 -0.1066 0.9770
vn -0.1846 -0.1066 0.9770
vn -0.7612 0.4427 0.4740
vn 0.7612 0.4427 0.4740
vn 0.7612 -0.4427 0.4740
vn -0.4427 0.7612 0.4740
vn 0.1066 0.1846 0.9770
vn 0.4427 0.7612 0.4740
vn 0.4427 -0.7612 0.4740
vn -0.1066 0.1846 0.9770
vn 0.1846 0.1066 0.9770
vn -0.1066 -0.1846 0.9770
vn -0.1846 0.1066 0.9770
vn 0.1066 -0.1846 0.9770
vn 0.0000 0.0000 1.0000
vn 0.3827 0.9239 -0.0000
vn 0.9239 0.3827 0.0000
vn 0.9239 -0.3827 0.0000
vn 0.3827 -0.9239 0.0000
vn -0.3827 -0.9239 -0.0000
vn -0.9239 -0.3827 0.0000
vn -0.9239 0.3827 0.0000
vn -0.3827 0.9239 -0.0000
vn -0.2070 0.4999 0.8410
vn 0.4999 -0.2070 0.8410
vn 0.4872 -0.8733 -0.0000
vn 0.4872 0.8733 0.0000
vn 0.2730 -0.9620 0.0000
vn -0.2070 -0.4999 -0.8410
vn -0.2070 -0.4999 0.8410
vn -0.8733 -0.4872 0.0000
vn 0.2730 0.9620 0.0000
vn -0.9620 -0.2730 0.0000
vn -0.4999 0.2070 -0.8410
vn 0.4999 0.2070 -0.8410
vn -0.4999 0.2070 0.8410
vn 0.4999 0.2070 0.8410
vn 0.9620 -0.2730 0.0000
vn -0.2730 0.9620 -0.0000
vn 0.8733 -0.4872 0.0000
vn 0.2070 -0.4999 -0.8410
vn 0.2070 -0.4999 0.8410
vn -0.2730 -0.9620 0.0000
vn -0.4872 0.8733 0.0000
vn -0.4872 -0.8733 -0.0000
vn -0.4999 -0.2070 -0.8410
vn 0.2070 0.4999 -0.8410
vn 0.0720 0.1738 0.9822
vn 0.1738 0.0720 0.9822
vn 0.1738 -0.0720 0.9822
vn 0.0720 -0.1738 0.9822
vn -0.0720 -0.1738 0.9822
vn -0.1738 -0.0720 0.9822
vn -0.1738 0.0720 0.9822
vn -0.0720 0.1738 0.9822
vn 0.2613 0.7035 0.6609
vn 0.3127 -0.6822 0.6609
vn -0.2486 0.6001 0.7603
vn -0.8172 0.3385 0.4665
vn 0.8172 0.3385 0.4665
vn 0.7035 0.2613 0.6609
vn -0.6822 -0.3127 0.6609
vn 0.6001 0.2486 0.7603
vn -0.2486 -0.6001 0.7603
vn 0.3385 -0.8172 0.4665
vn 0.2613 -0.7035 0.6609
vn -0.6822 0.3127 0.6609
vn -0.3127 0.6822 0.6609
vn 0.7035 -0.2613 0.6609
vn 0.2486 -0.6001 0.7603
vn -0.6001 0.2486 0.7603
vn -0.8172 -0.3385 0.4665
vn 0.3385 0.8172 0.4665
vn -0.7035 -0.2613 0.6609
vn 0.3127 0.6822 0.6609
vn 0.6822 0.3127 0.6609
vn -0.2613 -0.7035 0.6609
vn 0.2486 0.6001 0.7603
vn -0.3385 0.8172 0.4665
vn -0.9245 -0.3765 -0.0597
vn -0.9979 0.0000 -0.0644
vn -0.9399 -0.0000 -0.3415
vn -0.6182 -0.7095 -0.3382
vn -0.9245 0.3765 -0.0597
vn -0.6182 0.7095 -0.3382
vn -0.4046 0.4732 -0.7826
vn -0.5313 0.0000 -0.8472
vn -0.4046 -0.4732 -0.7826
vn -0.0000 -0.5518 -0.8339
vn 0.0898 0.0000 -0.9960
vn 0.0906 -0.5538 -0.8277
vn -0.0000 0.5518 -0.8339
vn 0.0906 0.5538 -0.8277
vn 0.4046 0.4732 -0.7826
vn 0.5313 0.0000 -0.8472
vn 0.4046 -0.4732 -0.7826
vn -0.0898 0.0000 -0.9960
vn -0.0906 -0.5538 -0.8277
vn -0.0906 0.5538 -0.8277
vn -0.0984 -0.9424 -0.3198
vn -0.0000 -0.9449 -0.3273
vn 0.0000 -0.9986 -0.0526
vn -0.1036 -0.9931 -0.0552
vn -0.2380 -0.9696 -0.0568
vn 0.0984 0.9424 -0.3198
vn 0.6182 0.7095 -0.3382
vn -0.0000 0.9449 -0.3273
vn -0.0000 0.9986 -0.0526
vn 0.1036 0.9931 -0.0552
vn 0.2380 0.9696 -0.0568
vn -0.0984 0.9424 -0.3198
vn -0.2380 0.9696 -0.0568
vn -0.1036 0.9931 -0.0552
vn 0.0984 -0.9424 -0.3198
vn 0.6182 -0.7095 -0.3382
vn 0.2380 -0.9696 -0.0568
vn 0.1036 -0.9931 -0.0552
vn 0.9399 0.0000 -0.3415
vn 0.9245 0.3765 -0.0597
vn 0.9979 -0.0000 -0.0644
vn 0.9245 -0.3765 -0.0597
usemtl cleric
s 1
f 73/1/1 50/2/1 49/3/2 74/4/2
f 194/5/3 191/6/3 217/7/3
f 75/8/4 51/9/4 52/10/5 76/11/5
f 76/11/5 52/10/5 53/12/6 77/13/6
f 214/14/7 211/15/7 222/16/7
f 78/17/8 54/18/8 55/19/9 79/20/9
f 79/20/9 55/19/9 56/21/10 80/22/10
f 185/23/11 186/24/11 215/25/11
f 81/26/12 57/27/12 58/28/13 82/29/13
f 82/29/13 58/28/13 59/30/14 83/31/14
f 205/32/15 206/33/15 220/34/15
f 84/35/16 60/36/16 61/37/17 85/38/17
f 85/38/17 61/37/17 62/39/18 86/40/18
f 191/41/19 192/42/19 217/43/19
f 87/44/20 63/45/20 64/46/21 88/47/21
f 88/47/21 64/46/21 65/48/22 89/49/22
f 211/50/23 212/51/23 222/52/23
f 90/53/24 66/54/24 67/55/25 91/56/25
f 91/56/25 67/55/25 68/57/26 92/58/26
f 184/59/27 185/60/27 215/61/27
f 93/62/28 69/63/28 70/64/29 94/65/29
f 94/65/29 70/64/29 71/66/30 95/67/30
f 30/68/31 28/69/32 111/70/32 112/71/31
f 204/72/33 205/73/33 220/74/33
f 96/75/34 72/76/34 50/2/1 73/1/1
f 3/77/35 5/78/36 148/79/36 147/80/35
f 2/81/37 4/82/38 49/83/38 50/84/37
f 230/85/39 227/86/39 256/87/39
f 6/88/40 8/89/41 52/90/41 51/91/40
f 8/89/41 10/92/42 53/93/42 52/90/41
f 250/94/43 247/95/43 261/96/43
f 12/97/44 14/98/45 55/99/45 54/100/44
f 14/98/45 16/101/46 56/102/46 55/99/45
f 241/103/47 242/104/47 259/105/47
f 18/106/48 20/107/49 58/108/49 57/109/48
f 20/107/49 22/110/50 59/111/50 58/108/49
f 227/112/51 228/113/51 256/114/51
f 24/115/52 26/116/53 61/117/53 60/118/52
f 26/116/53 28/119/54 62/120/54 61/117/53
f 247/121/55 248/122/55 261/123/55
f 30/124/56 32/125/57 64/126/57 63/127/56
f 32/125/57 34/128/58 65/129/58 64/126/57
f 240/130/59 241/131/59 259/132/59
f 36/133/60 38/134/61 67/135/61 66/136/60
f 38/134/61 40/137/62 68/138/62 67/135/61
f 242/139/63 239/140/63 259/141/63
f 42/142/64 44/143/65 70/144/65 69/145/64
f 44/143/65 46/146/66 71/147/66 70/144/65
f 233/148/67 234/149/67 257/150/67
f 48/151/68 2/81/37 50/84/37 72/152/68
f 16/153/69 14/154/70 104/155/70 105/156/69
f 46/157/71 44/158/72 119/159/72 120/160/71
f 32/161/73 30/68/31 112/71/31 113/162/73
f 18/163/74 16/153/69 105/156/69 106/164/74
f 48/165/75 46/157/71 120/160/71 121/166/75
f 4/167/76 2/168/77 99/169/77 98/170/76
f 34/171/78 32/161/73 113/162/73 114/172/78
f 20/173/79 18/163/74 106/164/74 107/174/79
f 2/168/77 48/165/75 121/166/75 99/169/77
f 6/175/80 4/167/76 98/170/76 100/176/80
f 36/177/81 34/171/78 114/172/78 115/178/81
f 22/179/82 20/173/79 107/174/79 108/180/82
f 8/181/83 6/175/80 100/176/80 101/182/83
f 38/183/84 36/177/81 115/178/81 116/184/84
f 24/185/85 22/179/82 108/180/82 109/186/85
f 10/187/86 8/181/83 101/182/83 102/188/86
f 40/189/87 38/183/84 116/184/84 117/190/87
f 26/191/88 24/185/85 109/186/85 110/192/88
f 12/193/89 10/187/86 102/188/86 103/194/89
f 42/195/90 40/189/87 117/190/87 118/196/90
f 28/69/32 26/191/88 110/192/88 111/70/32
f 14/154/70 12/193/89 103/194/89 104/155/70
f 44/158/72 42/195/90 118/196/90 119/159/72
f 3/197/91 1/198/92 73/199/92 74/200/91
f 5/201/93 3/197/91 74/200/91 75/202/93
f 7/203/94 5/201/93 75/202/93 76/204/94
f 9/205/95 7/203/94 76/204/94 77/206/95
f 11/207/96 9/205/95 77/206/95 78/208/96
f 13/209/97 11/207/96 78/208/96 79/210/97
f 15/211/98 13/209/97 79/210/97 80/212/98
f 17/213/99 15/211/98 80/212/98 81/214/99
f 19/215/100 17/213/99 81/214/99 82/216/100
f 21/217/101 19/215/100 82/216/100 83/218/101
f 23/219/102 21/217/101 83/218/101 84/220/102
f 25/221/103 23/219/102 84/220/102 85/222/103
f 27/223/104 25/221/103 85/222/103 86/224/104
f 29/225/105 27/223/104 86/224/104 87/226/105
f 31/227/106 29/225/105 87/226/105 88/228/106
f 33/229/107 31/227/106 88/228/106 89/230/107
f 35/231/108 33/229/107 89/230/107 90/232/108
f 37/233/109 35/231/108 90/232/108 91/234/109
f 39/235/110 37/233/109 91/234/109 92/236/110
f 41/237/111 39/235/110 92/236/110 93/238/111
f 43/239/112 41/237/111 93/238/111 94/240/112
f 45/241/113 43/239/112 94/240/112 95/242/113
f 47/243/114 45/241/113 95/242/113 96/244/114
f 1/198/92 47/243/114 96/244/114 73/199/92
f 33/245/115 35/246/116 163/247/116 162/248/115
f 19/249/117 21/250/118 156/251/118 155/252/117
f 5/78/36 7/253/119 149/254/119 148/79/36
f 35/246/116 37/255/120 164/256/120 163/247/116
f 21/250/118 23/257/121 157/258/121 156/251/118
f 7/253/119 9/259/122 150/260/122 149/254/119
f 37/255/120 39/261/123 165/262/123 164/256/120
f 23/257/121 25/263/124 158/264/124 157/258/121
f 9/259/122 11/265/125 151/266/125 150/260/122
f 39/261/123 41/267/126 166/268/126 165/262/123
f 25/263/124 27/269/127 159/270/127 158/264/124
f 11/265/125 13/271/128 152/272/128 151/266/125
f 41/267/126 43/273/129 167/274/129 166/268/126
f 27/269/127 29/275/130 160/276/130 159/270/127
f 13/271/128 15/277/131 153/278/131 152/272/128
f 43/273/129 45/279/132 168/280/132 167/274/129
f 29/275/130 31/281/133 161/282/133 160/276/130
f 15/277/131 17/283/134 154/284/134 153/278/131
f 45/279/132 47/285/135 169/286/135 168/280/132
f 1/287/136 3/77/35 147/80/35 146/288/136
f 31/281/133 33/245/115 162/248/115 161/282/133
f 17/283/134 19/249/117 155/252/117 154/284/134
f 47/285/135 1/287/136 146/288/136 169/286/135
f 122/289/137 123/290/138 98/291/138 99/292/137
f 123/290/138 124/293/139 100/294/139 98/291/138
f 124/293/139 125/295/140 101/296/140 100/294/139
f 125/295/140 126/297/141 102/298/141 101/296/140
f 126/297/141 127/299/142 103/300/142 102/298/141
f 127/299/142 128/301/143 104/302/143 103/300/142
f 128/303/143 129/304/144 105/305/144 104/306/143
f 129/304/144 130/307/145 106/308/145 105/305/144
f 130/307/145 131/309/146 107/310/146 106/308/145
f 131/309/146 132/311/147 108/312/147 107/310/146
f 132/311/147 133/313/148 109/314/148 108/312/147
f 133/313/148 134/315/149 110/316/149 109/314/148
f 134/317/149 135/318/150 111/319/150 110/320/149
f 135/318/150 136/321/151 112/322/151 111/319/150
f 136/321/151 137/323/152 113/324/152 112/322/151
f 137/323/152 138/325/153 114/326/153 113/324/152
f 138/325/153 139/327/154 115/328/154 114/326/153
f 139/327/154 140/329/155 116/330/155 115/328/154
f 140/331/155 141/332/156 117/333/156 116/334/155
f 141/332/156 142/335/157 118/336/157 117/333/156
f 142/335/157 143/337/158 119/338/158 118/336/157
f 143/337/158 144/339/159 120/340/159 119/338/158
f 144/339/159 145/341/160 121/342/160 120/340/159
f 97/343/161 146/344/162 147/345/163
f 148/346/164 97/343/161 147/345/163
f 149/347/165 97/343/161 148/346/164
f 150/348/166 97/343/161 149/347/165
f 151/349/167 97/343/161 150/348/166
f 152/350/168 97/343/161 151/349/167
f 153/351/169 97/343/161 152/350/168
f 154/352/170 97/343/161 153/351/169
f 155/353/171 97/343/161 154/352/170
f 156/354/172 97/343/161 155/353/171
f 157/355/173 97/343/161 156/354/172
f 158/356/174 97/343/161 157/355/173
f 159/357/175 97/343/161 158/356/174
f 160/358/176 97/343/161 159/357/175
f 161/359/177 97/343/161 160/358/176
f 162/360/178 97/343/161 161/359/177
f 163/361/179 97/343/161 162/360/178
f 164/362/180 97/343/161 163/361/179
f 165/363/181 97/343/161 164/362/180
f 166/364/182 97/343/161 165/363/181
f 167/365/183 97/343/161 166/364/182
f 168/366/184 97/343/161 167/365/183
f 169/367/185 97/343/161 168/366/184
f 146/344/162 97/343/161 169/367/185
f 173/368/186 177/369/186 182/370/186 140/371/186
f 177/369/187 173/368/187 134/372/187 180/373/187
f 176/374/188 172/375/188 180/376/188
f 172/377/189 177/378/189 180/379/189
f 174/380/190 178/381/190 179/382/190 122/383/190
f 175/384/191 171/385/191 122/383/191 179/382/191
f 170/386/192 176/387/192 180/373/192 134/372/192
f 178/381/193 174/380/193 140/371/193 182/370/193
f 181/388/194 175/389/194 172/375/194
f 171/385/195 175/384/195 181/390/195 128/391/195
f 176/387/196 170/386/196 128/391/196 181/390/196
f 172/377/197 178/392/197 182/393/197
f 175/394/198 179/395/198 172/377/198
f 177/396/199 172/375/199 182/397/199
f 179/398/200 178/399/200 172/375/200
f 176/400/201 181/401/201 172/377/201
f 171/402/202 124/403/202 123/404/202
f 170/405/202 129/406/202 128/407/202
f 173/408/202 135/409/202 134/410/202
f 174/411/202 141/412/202 140/413/202
f 171/402/202 125/414/202 124/403/202
f 128/415/202 127/416/202 171/402/202
f 126/417/202 125/414/202 171/402/202
f 127/416/202 126/417/202 171/402/202
f 122/418/202 171/402/202 123/404/202
f 130/419/202 129/406/202 170/405/202
f 134/420/202 133/421/202 170/405/202
f 133/421/202 132/422/202 170/405/202
f 132/422/202 131/423/202 170/405/202
f 131/423/202 130/419/202 170/405/202
f 173/408/202 136/424/202 135/409/202
f 173/408/202 137/425/202 136/424/202
f 173/408/202 138/426/202 137/425/202
f 139/427/202 138/426/202 173/408/202
f 140/428/202 139/427/202 173/408/202
f 174/411/202 142/429/202 141/412/202
f 122/430/202 145/431/202 174/411/202
f 145/431/202 144/432/202 174/411/202
f 143/433/202 142/429/202 174/411/202
f 144/432/202 143/433/202 174/411/202
f 74/4/2 49/3/2 184/434/203 183/435/203
f 49/3/2 51/9/4 185/436/203 184/434/203
f 51/9/4 75/8/4 186/437/203 185/436/203
f 75/8/4 74/4/2 183/435/203 186/437/203
f 77/13/6 53/12/6 188/438/204 187/439/204
f 53/12/6 54/18/8 189/440/204 188/438/204
f 54/18/8 78/17/8 190/441/204 189/440/204
f 78/17/8 77/13/6 187/439/204 190/441/204
f 80/22/10 56/21/10 192/442/205 191/443/205
f 56/21/10 57/27/12 193/444/205 192/442/205
f 57/27/12 81/26/12 194/445/205 193/444/205
f 81/26/12 80/22/10 191/443/205 194/445/205
f 83/31/14 59/30/14 196/446/206 195/447/206
f 59/30/14 60/36/16 197/448/206 196/446/206
f 60/36/16 84/35/16 198/449/206 197/448/206
f 84/35/16 83/31/14 195/447/206 198/449/206
f 86/40/18 62/39/18 200/450/207 199/451/207
f 62/39/18 63/45/20 201/452/207 200/450/207
f 63/45/20 87/44/20 202/453/207 201/452/207
f 87/44/20 86/40/18 199/451/207 202/453/207
f 89/49/22 65/48/22 204/454/208 203/455/208
f 65/48/22 66/54/24 205/456/208 204/454/208
f 66/54/24 90/53/24 206/457/208 205/456/208
f 90/53/24 89/49/22 203/455/208 206/457/208
f 92/58/26 68/57/26 208/458/209 207/459/209
f 68/57/26 69/63/28 209/460/209 208/458/209
f 69/63/28 93/62/28 210/461/209 209/460/209
f 93/62/28 92/58/26 207/459/209 210/461/209
f 95/67/30 71/66/30 212/462/210 211/463/210
f 71/66/30 72/76/34 213/464/210 212/462/210
f 72/76/34 96/75/34 214/465/210 213/464/210
f 96/75/34 95/67/30 211/463/210 214/465/210
f 212/466/211 213/467/211 222/468/211
f 192/469/212 193/470/212 217/471/212
f 199/472/213 200/473/213 219/474/213
f 213/475/214 214/476/214 222/477/214
f 193/478/215 194/479/215 217/480/215
f 202/481/216 199/482/216 219/483/216
f 200/484/217 201/485/217 219/486/217
f 207/487/218 208/488/218 221/489/218
f 187/490/219 188/491/219 216/492/219
f 201/493/220 202/494/220 219/495/220
f 210/496/221 207/497/221 221/498/221
f 190/499/222 187/500/222 216/501/222
f 208/502/223 209/503/223 221/504/223
f 188/505/224 189/506/224 216/507/224
f 195/508/225 196/509/225 218/510/225
f 209/511/226 210/512/226 221/513/226
f 189/514/227 190/515/227 216/516/227
f 198/517/228 195/518/228 218/519/228
f 196/520/229 197/521/229 218/522/229
f 203/523/230 204/524/230 220/525/230
f 183/526/231 184/527/231 215/528/231
f 197/529/232 198/530/232 218/531/232
f 206/532/233 203/533/233 220/534/233
f 186/535/234 183/536/234 215/537/234
f 4/82/38 6/88/40 224/538/235 223/539/235
f 6/88/40 51/91/40 225/540/235 224/538/235
f 51/91/40 49/83/38 226/541/235 225/540/235
f 49/83/38 4/82/38 223/539/235 226/541/235
f 10/92/42 12/97/44 228/542/236 227/543/236
f 12/97/44 54/100/44 229/544/236 228/542/236
f 54/100/44 53/93/42 230/545/236 229/544/236
f 53/93/42 10/92/42 227/543/236 230/545/236
f 16/101/46 18/106/48 232/546/237 231/547/237
f 18/106/48 57/109/48 233/548/237 232/546/237
f 57/109/48 56/102/46 234/549/237 233/548/237
f 56/102/46 16/101/46 231/547/237 234/549/237
f 22/110/50 24/115/52 236/550/238 235/551/238
f 24/115/52 60/118/52 237/552/238 236/550/238
f 60/118/52 59/111/50 238/553/238 237/552/238
f 59/111/50 22/110/50 235/551/238 238/553/238
f 28/119/54 30/124/56 240/554/239 239/555/239
f 30/124/56 63/127/56 241/556/239 240/554/239
f 63/127/56 62/120/54 242/557/239 241/556/239
f 62/120/54 28/119/54 239/555/239 242/557/239
f 34/128/58 36/133/60 244/558/240 243/559/240
f 36/133/60 66/136/60 245/560/240 244/558/240
f 66/136/60 65/129/58 246/561/240 245/560/240
f 65/129/58 34/128/58 243/559/240 246/561/240
f 40/137/62 42/142/64 248/562/241 247/563/241
f 42/142/64 69/145/64 249/564/241 248/562/241
f 69/145/64 68/138/62 250/565/241 249/564/241
f 68/138/62 40/137/62 247/563/241 250/565/241
f 46/146/66 48/151/68 252/566/242 251/567/242
f 48/151/68 72/152/68 253/568/242 252/566/242
f 72/152/68 71/147/66 254/569/242 253/568/242
f 71/147/66 46/146/66 251/567/242 254/569/242
f 248/570/243 249/571/243 261/572/243
f 228/573/244 229/574/244 256/575/244
f 235/576/245 236/577/245 258/578/245
f 249/579/246 250/580/246 261/581/246
f 229/582/247 230/583/247 256/584/247
f 238/585/248 235/586/248 258/587/248
f 236/588/249 237/589/249 258/590/249
f 243/591/250 244/592/250 260/593/250
f 223/594/251 224/595/251 255/596/251
f 237/597/252 238/598/252 258/599/252
f 246/600/253 243/601/253 260/602/253
f 226/603/254 223/604/254 255/605/254
f 244/606/255 245/607/255 260/608/255
f 224/609/256 225/610/256 255/611/256
f 251/612/257 252/613/257 262/614/257
f 231/615/258 232/616/258 257/617/258
f 245/618/259 246/619/259 260/620/259
f 225/621/260 226/622/260 255/623/260
f 254/624/261 251/625/261 262/626/261
f 234/627/262 231/628/262 257/629/262
f 252/630/263 253/631/263 262/632/263
f 232/633/264 233/634/264 257/635/264
f 239/636/265 240/637/265 259/638/265
f 253/639/266 254/640/266 262/641/266
f 145/341/160 122/642/137 99/643/137 121/342/160
f 269/644/267 293/645/268 294/646/269 284/647/270
f 293/645/268 270/648/271 275/649/272 294/646/269
f 294/646/269 275/649/272 264/650/273 276/651/274
f 284/647/270 294/646/269 276/651/274 263/652/275
f 267/653/276 283/654/161 295/655/277 281/656/278
f 283/654/161 268/657/279 278/658/280 295/655/277
f 295/655/277 278/658/280 266/659/281 279/660/282
f 281/656/278 295/655/277 279/660/282 265/661/283
f 263/652/275 276/651/274 296/662/284 277/663/285
f 276/651/274 264/650/273 282/664/286 296/662/284
f 296/662/284 282/664/286 268/657/279 283/654/161
f 277/663/285 296/662/284 283/654/161 267/653/276
f 263/652/275 277/663/285 297/665/287 284/647/270
f 277/663/285 267/653/276 287/666/288 297/665/287
f 297/665/287 287/666/288 274/667/289 288/668/290
f 284/647/270 297/665/287 288/668/290 269/644/291
f 266/659/281 278/658/280 298/669/292 285/670/293
f 278/658/280 268/657/279 286/671/294 298/669/292
f 298/669/292 286/671/294 273/672/295 289/673/296
f 285/670/293 298/669/292 289/673/296 272/674/297
f 268/657/279 282/664/286 299/675/298 286/671/294
f 282/664/286 264/650/273 275/649/272 299/675/298
f 299/675/298 275/649/272 270/648/299 290/676/300
f 286/671/294 299/675/298 290/676/300 273/672/295
f 267/653/276 281/656/278 300/677/301 287/666/288
f 281/656/278 265/661/283 280/678/302 300/677/301
f 300/677/301 280/678/302 271/679/303 291/680/304
f 287/666/288 300/677/301 291/680/304 274/667/289
f 265/661/283 279/660/282 301/681/305 280/678/302
f 279/660/282 266/659/281 285/670/293 301/681/305
f 301/681/305 285/670/293 272/674/306 292/682/307
f 280/678/302 301/681/305 292/682/307 271/679/308
