# Blender v3.4.1 OBJ File: 'September2025_Cleric_Assets_Export.blend'
# www.blender.org
mtllib Cleric_Tome.mtl
o Cleric_Tome
v -0.073823 -0.284453 0.001252
v -0.404104 -0.284453 -0.075270
v -0.414085 -0.284453 -0.030365
v -0.371857 -0.258765 -0.078390
v -0.074876 -0.258765 -0.008652
v -0.076177 -0.284453 0.040621
v -0.076177 -0.204932 0.040621
v -0.076177 -0.094099 0.040621
v -0.084686 -0.195014 0.054631
v -0.084686 -0.103998 0.054631
v -0.000000 -0.284453 -0.015468
v -0.000000 -0.258765 -0.029382
v -0.042658 -0.094099 0.067542
v -0.044649 -0.103998 0.081166
v -0.044649 -0.195014 0.081166
v -0.042658 -0.284453 0.067542
v -0.042658 -0.204924 0.067542
v 0.073823 -0.284453 0.001252
v 0.404103 -0.284453 -0.075271
v 0.414085 -0.284453 -0.030365
v 0.371857 -0.258765 -0.078390
v 0.074876 -0.258765 -0.008652
v 0.076177 -0.284453 0.040621
v 0.076177 -0.204932 0.040621
v 0.076177 -0.094099 0.040621
v 0.084686 -0.195014 0.054631
v 0.084686 -0.103998 0.054631
v 0.042658 -0.094099 0.067542
v 0.044649 -0.103998 0.081166
v 0.044649 -0.195014 0.081166
v 0.042658 -0.284453 0.067542
v 0.042658 -0.204924 0.067542
v -0.180637 -0.118607 0.022198
v -0.144496 -0.093921 0.029416
v -0.144335 -0.204932 0.029449
v -0.180637 -0.180282 0.022198
v -0.126792 -0.103998 0.045626
v -0.163566 -0.128729 0.037354
v -0.163566 -0.170364 0.037354
v -0.126575 -0.195014 0.045675
v 0.144496 -0.093921 0.029416
v 0.180637 -0.118607 0.022198
v 0.180637 -0.180282 0.022198
v 0.144335 -0.204932 0.029449
v 0.163566 -0.128729 0.037354
v 0.126792 -0.103998 0.045626
v 0.126575 -0.195014 0.045675
v 0.163566 -0.170364 0.037354
v -0.371857 -0.118607 -0.078390
v -0.404104 -0.118607 -0.075270
v -0.223366 -0.258765 -0.043521
v -0.245131 -0.284453 0.005128
v -0.414085 -0.118607 -0.030365
v 0.371857 -0.118607 -0.078390
v -0.238963 -0.284453 -0.037009
v 0.404103 -0.118607 -0.075271
v 0.245131 -0.284453 0.005128
v 0.414085 -0.118607 -0.030365
v 0.223366 -0.258765 -0.043521
v 0.238963 -0.284453 -0.037009
v -0.073823 0.284453 0.001252
v -0.404104 0.284453 -0.075270
v -0.414085 0.284453 -0.030365
v -0.371857 0.258765 -0.078390
v -0.074876 0.258765 -0.008652
v -0.076177 0.284453 0.040621
v -0.076177 0.204932 0.040621
v -0.076177 0.094099 0.040621
v -0.084686 0.195014 0.054631
v -0.084686 0.103998 0.054631
v -0.000000 0.284453 -0.015468
v -0.000000 0.258765 -0.029382
v -0.042658 0.094099 0.067542
v -0.044649 0.103998 0.081166
v -0.044649 0.195014 0.081166
v -0.042658 0.284453 0.067542
v -0.042658 0.204924 0.067542
v 0.073823 0.284453 0.001252
v 0.404103 0.284453 -0.075271
v 0.414085 0.284453 -0.030365
v 0.371857 0.258765 -0.078390
v 0.074876 0.258765 -0.008652
v 0.076177 0.284453 0.040621
v 0.076177 0.204932 0.040621
v 0.076177 0.094099 0.040621
v 0.084686 0.195014 0.054631
v 0.084686 0.103998 0.054631
v 0.042658 0.094099 0.067542
v 0.044649 0.103998 0.081166
v 0.044649 0.195014 0.081166
v 0.042658 0.284453 0.067542
v 0.042658 0.204924 0.067542
v -0.180637 0.118607 0.022198
v -0.144496 0.093921 0.029416
v -0.144335 0.204932 0.029449
v -0.180637 0.180282 0.022198
v -0.126792 0.103998 0.045626
v -0.163566 0.128729 0.037354
v -0.163566 0.170364 0.037354
v -0.126575 0.195014 0.045675
v 0.144496 0.093921 0.029416
v 0.180637 0.118607 0.022198
v 0.180637 0.180282 0.022198
v 0.144335 0.204932 0.029449
v 0.163566 0.128729 0.037354
v 0.126792 0.103998 0.045626
v 0.126575 0.195014 0.045675
v 0.163566 0.170364 0.037354
v -0.371857 0.118607 -0.078390
v -0.404104 0.118607 -0.075270
v -0.223366 0.258765 -0.043521
v -0.245131 0.284453 0.005128
v -0.414085 0.118607 -0.030365
v 0.371857 0.118607 -0.078390
v -0.238963 0.284453 -0.037009
v 0.404103 0.118607 -0.075271
v 0.245131 0.284453 0.005128
v 0.414085 0.118607 -0.030365
v 0.223366 0.258765 -0.043521
v 0.238963 0.284453 -0.037009
v -0.205761 -0.258765 -0.153643
v -0.346263 -0.258765 -0.185639
v -0.000000 -0.258765 -0.080654
v -0.065258 -0.258765 -0.121646
v 0.205760 -0.258765 -0.153643
v 0.346263 -0.258765 -0.185639
v 0.065258 -0.258765 -0.121646
v -0.000000 -0.118607 -0.080654
v -0.346263 -0.118607 -0.185639
v -0.065258 -0.118607 -0.121646
v 0.205760 -0.118607 -0.153643
v 0.065258 -0.118607 -0.121646
v 0.346263 -0.118607 -0.185639
v -0.205761 -0.118607 -0.153643
v -0.205761 0.258765 -0.153643
v -0.346263 0.258765 -0.185639
v -0.000000 0.258765 -0.080654
v -0.065258 0.258765 -0.121646
v 0.205760 0.258765 -0.153643
v 0.346263 0.258765 -0.185639
v 0.065258 0.258765 -0.121646
v -0.000000 0.118607 -0.080654
v -0.346263 0.118607 -0.185639
v -0.065258 0.118607 -0.121646
v 0.205760 0.118607 -0.153643
v 0.065258 0.118607 -0.121646
v 0.346263 0.118607 -0.185639
v -0.205761 0.118607 -0.153643
v -0.400197 0.282935 -0.085990
v -0.415370 0.282916 -0.018678
v -0.268666 0.291920 -0.055714
v -0.281270 0.291920 0.009751
v -0.408848 0.153107 -0.087912
v -0.424002 0.153107 -0.020596
v -0.268666 0.229261 -0.055714
v -0.281270 0.229261 0.009751
v -0.347681 0.153107 -0.074317
v -0.362836 0.153107 -0.007001
v -0.302088 0.228390 -0.063553
v -0.346861 0.182552 -0.074097
v -0.333232 0.214494 -0.070870
v -0.362008 0.182572 -0.006779
v -0.316938 0.228370 0.002484
v -0.348287 0.214502 -0.003926
v -0.417678 0.295685 -0.066337
v -0.422734 0.295680 -0.043899
v -0.431799 0.140805 -0.045929
v -0.426748 0.140805 -0.068368
v -0.260772 0.305079 -0.031576
v -0.264971 0.305077 -0.009754
v -0.345533 0.140180 -0.026682
v -0.340481 0.140181 -0.049121
v -0.260198 0.216678 -0.031450
v -0.264401 0.216676 -0.009629
v -0.303246 0.210784 -0.040693
v -0.308201 0.210777 -0.018682
v -0.330862 0.201729 -0.023450
v -0.325841 0.201729 -0.045764
v -0.339805 0.178611 -0.025357
v -0.334756 0.178606 -0.047796
v 0.400196 0.282935 -0.085990
v 0.415370 0.282916 -0.018678
v 0.268666 0.291920 -0.055714
v 0.281270 0.291920 0.009750
v 0.408847 0.153107 -0.087913
v 0.424002 0.153107 -0.020597
v 0.268666 0.229261 -0.055714
v 0.281270 0.229261 0.009750
v 0.347681 0.153107 -0.074317
v 0.362836 0.153107 -0.007001
v 0.302088 0.228390 -0.063553
v 0.346861 0.182552 -0.074097
v 0.333232 0.214494 -0.070870
v 0.362008 0.182572 -0.006779
v 0.316938 0.228370 0.002484
v 0.348287 0.214502 -0.003926
v 0.417677 0.295685 -0.066337
v 0.422734 0.295680 -0.043899
v 0.431799 0.140805 -0.045930
v 0.426748 0.140805 -0.068368
v 0.260772 0.305079 -0.031576
v 0.264971 0.305077 -0.009754
v 0.345533 0.140180 -0.026682
v 0.340481 0.140181 -0.049121
v 0.260198 0.216678 -0.031450
v 0.264401 0.216676 -0.009629
v 0.303246 0.210784 -0.040694
v 0.308201 0.210777 -0.018682
v 0.330862 0.201729 -0.023450
v 0.325841 0.201729 -0.045764
v 0.339805 0.178611 -0.025357
v 0.334756 0.178606 -0.047797
v -0.400197 -0.282935 -0.085990
v -0.415370 -0.282916 -0.018678
v -0.268666 -0.291920 -0.055714
v -0.281270 -0.291920 0.009751
v -0.408848 -0.153107 -0.087912
v -0.424002 -0.153107 -0.020596
v -0.268666 -0.229261 -0.055714
v -0.281270 -0.229261 0.009751
v -0.347681 -0.153107 -0.074317
v -0.362836 -0.153107 -0.007001
v -0.302088 -0.228390 -0.063553
v -0.346861 -0.182552 -0.074097
v -0.333232 -0.214494 -0.070870
v -0.362008 -0.182572 -0.006779
v -0.316938 -0.228370 0.002484
v -0.348287 -0.214502 -0.003926
v -0.417678 -0.295685 -0.066337
v -0.422734 -0.295680 -0.043899
v -0.431799 -0.140805 -0.045929
v -0.426748 -0.140805 -0.068368
v -0.260772 -0.305079 -0.031576
v -0.264971 -0.305077 -0.009754
v -0.345533 -0.140180 -0.026682
v -0.340481 -0.140181 -0.049121
v -0.260198 -0.216678 -0.031450
v -0.264401 -0.216676 -0.009629
v -0.303246 -0.210784 -0.040693
v -0.308201 -0.210777 -0.018682
v -0.330862 -0.201729 -0.023450
v -0.325841 -0.201729 -0.045764
v -0.339805 -0.178611 -0.025357
v -0.334756 -0.178606 -0.047796
v 0.400196 -0.282935 -0.085990
v 0.415370 -0.282916 -0.018678
v 0.268666 -0.291920 -0.055714
v 0.281270 -0.291920 0.009750
v 0.408847 -0.153107 -0.087913
v 0.424002 -0.153107 -0.020597
v 0.268666 -0.229261 -0.055714
v 0.281270 -0.229261 0.009750
v 0.347681 -0.153107 -0.074317
v 0.362836 -0.153107 -0.007001
v 0.302088 -0.228390 -0.063553
v 0.346861 -0.182552 -0.074097
v 0.333232 -0.214494 -0.070870
v 0.362008 -0.182572 -0.006779
v 0.316938 -0.228370 0.002484
v 0.348287 -0.214502 -0.003926
v 0.417677 -0.295685 -0.066337
v 0.422734 -0.295680 -0.043899
v 0.431799 -0.140805 -0.045930
v 0.426748 -0.140805 -0.068368
v 0.260772 -0.305079 -0.031576
v 0.264971 -0.305077 -0.009754
v 0.345533 -0.140180 -0.026682
v 0.340481 -0.140181 -0.049121
v 0.260198 -0.216678 -0.031450
v 0.264401 -0.216676 -0.009629
v 0.303246 -0.210784 -0.040694
v 0.308201 -0.210777 -0.018682
v 0.330862 -0.201729 -0.023450
v 0.325841 -0.201729 -0.045764
v 0.339805 -0.178611 -0.025357
v 0.334756 -0.178606 -0.047797
v 0.299744 -0.043023 -0.015963
v 0.299744 0.043023 -0.015963
v 0.265438 0.000000 0.026698
v 0.215903 -0.043023 0.003393
v 0.215903 0.043023 0.003393
v 0.257824 -0.117513 -0.006285
v 0.295570 0.033210 0.009581
v 0.295570 -0.033210 0.009581
v 0.230853 -0.033210 0.024522
v 0.230853 0.033210 0.024522
v 0.263211 0.090710 0.017052
v 0.263211 -0.090710 0.017052
v 0.257824 0.117513 -0.006285
v 0.372325 0.000000 -0.032720
v 0.351596 0.000000 -0.003354
v 0.174826 0.000000 0.037457
v 0.143322 0.000000 0.020149
v -0.155153 -0.342212 -0.053850
v -0.135244 -0.177393 -0.140084
v -0.152824 -0.347699 -0.063937
v -0.132624 -0.176125 -0.151433
v -0.088776 -0.342212 -0.038526
v -0.068867 -0.177393 -0.124759
v -0.086447 -0.347699 -0.048613
v -0.066247 -0.176125 -0.136109
v -0.147774 -0.320561 -0.085812
v -0.145314 -0.324763 -0.096469
v -0.078937 -0.324763 -0.081144
v -0.081397 -0.320561 -0.070488
v -0.099436 -0.176125 -0.143771
v -0.102056 -0.177393 -0.132421
v -0.114585 -0.320561 -0.078150
v -0.112125 -0.324763 -0.088807
v -0.140627 -0.290297 -0.116767
v -0.136174 -0.254493 -0.136056
v -0.134697 -0.216125 -0.142455
v -0.132067 -0.215388 -0.153848
v -0.133542 -0.255109 -0.147457
v -0.138048 -0.292698 -0.127941
v -0.065690 -0.215388 -0.138524
v -0.067165 -0.255109 -0.132132
v -0.071671 -0.292698 -0.112617
v -0.068320 -0.216125 -0.127130
v -0.069797 -0.254493 -0.120732
v -0.074250 -0.290297 -0.101443
v -0.101508 -0.216125 -0.134792
v -0.102986 -0.254493 -0.128394
v -0.107439 -0.290297 -0.109105
v -0.098878 -0.215388 -0.146186
v -0.100354 -0.255109 -0.139795
v -0.104859 -0.292698 -0.120279
v -0.144646 0.267036 -0.099359
v -0.142466 0.280007 -0.108804
v -0.135978 0.280735 -0.136907
v -0.133543 0.268254 -0.147451
v -0.100355 0.268254 -0.139789
v -0.102789 0.280735 -0.129245
v -0.067166 0.268254 -0.132127
v -0.069601 0.280735 -0.121583
v -0.076089 0.280007 -0.093479
v -0.078269 0.267036 -0.084035
v -0.111458 0.267036 -0.091697
v -0.109277 0.280007 -0.101142
vt 0.426363 0.854428
vt 0.426363 0.854428
vt 0.410758 0.861657
vt 0.410758 0.861657
vt 0.435372 0.841909
vt 0.435372 0.841909
vt 0.444382 0.879499
vt 0.435372 0.886728
vt 0.435372 0.866980
vt 0.435372 0.949406
vt 0.426363 0.942177
vt 0.435372 0.929658
vt 0.426363 0.868887
vt 0.426363 0.868887
vt 0.435372 0.881406
vt 0.435372 0.881406
vt 0.444382 0.868887
vt 0.444382 0.868887
vt 0.444382 0.854428
vt 0.444382 0.854428
vt 0.459987 0.886728
vt 0.444382 0.893959
vt 0.459987 0.861657
vt 0.459987 0.861657
vt 0.426363 0.956636
vt 0.410758 0.949406
vt 0.444382 0.956636
vt 0.435372 0.969154
vt 0.426363 0.879499
vt 0.410758 0.886728
vt 0.435372 0.906477
vt 0.426363 0.893959
vt 0.444382 0.942177
vt 0.459987 0.949406
vt 0.826914 0.875075
vt 0.836928 0.875075
vt 0.834973 0.877890
vt 0.825969 0.877890
vt 0.421200 0.849219
vt 0.426636 0.849219
vt 0.425662 0.853395
vt 0.422362 0.853395
vt 0.426636 0.895884
vt 0.421187 0.895958
vt 0.422345 0.891716
vt 0.425662 0.891716
vt 0.815011 0.812575
vt 0.815011 0.814989
vt 0.817044 0.814988
vt 0.817044 0.812575
vt 0.797560 0.843825
vt 0.796714 0.848940
vt 0.798916 0.846238
vt 0.428474 0.922966
vt 0.425662 0.922966
vt 0.425662 0.884645
vt 0.428474 0.884645
vt 0.428900 0.849221
vt 0.435974 0.849221
vt 0.435879 0.853395
vt 0.428474 0.853395
vt 0.422362 0.884645
vt 0.422345 0.922966
vt 0.419455 0.912553
vt 0.419455 0.895023
vt 0.418329 0.859598
vt 0.419455 0.863773
vt 0.419455 0.881303
vt 0.418329 0.885565
vt 0.816965 0.877890
vt 0.812425 0.877890
vt 0.812425 0.875075
vt 0.816901 0.875075
vt 0.428474 0.891716
vt 0.428900 0.895884
vt 0.812425 0.812575
vt 0.807948 0.812575
vt 0.816901 0.812575
vt 0.435974 0.895884
vt 0.435879 0.891716
vt 0.435879 0.884645
vt 0.435879 0.922966
vt 0.815011 0.843825
vt 0.809838 0.843825
vt 0.809838 0.846239
vt 0.815011 0.846239
vt 0.807805 0.812575
vt 0.826914 0.812575
vt 0.827288 0.812575
vt 0.024086 0.017230
vt 0.024086 0.017230
vt 0.024086 0.017230
vt 0.024086 0.017230
vt 0.024086 0.054365
vt 0.024086 0.054365
vt 0.024086 0.017230
vt 0.024086 0.017230
vt 0.024086 0.017230
vt 0.024086 0.017230
vt 0.797934 0.875075
vt 0.798880 0.877890
vt 0.789876 0.877890
vt 0.787920 0.875075
vt 0.448281 0.859598
vt 0.448281 0.885565
vt 0.446575 0.881303
vt 0.446575 0.863773
vt 0.439268 0.849219
vt 0.445133 0.849219
vt 0.443349 0.853395
vt 0.439706 0.853395
vt 0.809838 0.812575
vt 0.807805 0.814988
vt 0.809838 0.814989
vt 0.809838 0.860365
vt 0.809838 0.827135
vt 0.807805 0.827135
vt 0.807805 0.860365
vt 0.439706 0.884645
vt 0.439706 0.922966
vt 0.439706 0.891716
vt 0.443369 0.891716
vt 0.445146 0.895958
vt 0.439268 0.895884
vt 0.443349 0.884645
vt 0.443369 0.922966
vt 0.446575 0.895023
vt 0.446575 0.912553
vt 0.817044 0.843825
vt 0.817044 0.846238
vt 0.825933 0.846238
vt 0.827288 0.843825
vt 0.807805 0.843825
vt 0.807805 0.846238
vt 0.807884 0.877890
vt 0.807948 0.875075
vt 0.797934 0.812575
vt 0.797560 0.812575
vt 0.024086 0.017230
vt 0.024086 0.017230
vt 0.024086 0.017230
vt 0.024086 0.017230
vt 0.024086 0.017230
vt 0.024086 0.017230
vt 0.024086 0.054365
vt 0.024086 0.054365
vt 0.828134 0.848940
vt 0.828134 0.855699
vt 0.837534 0.855699
vt 0.837534 0.843825
vt 0.024086 0.154352
vt 0.024086 0.154352
vt 0.024086 0.117217
vt 0.024086 0.117217
vt 0.024086 0.122564
vt 0.024086 0.122564
vt 0.024086 0.122564
vt 0.024086 0.122564
vt 0.787920 0.812575
vt 0.787920 0.824449
vt 0.787315 0.824449
vt 0.787315 0.812575
vt 0.789876 0.886949
vt 0.787920 0.886949
vt 0.024086 0.117217
vt 0.024086 0.117217
vt 0.787315 0.843825
vt 0.787315 0.855699
vt 0.796714 0.855699
vt 0.836928 0.812575
vt 0.837534 0.812575
vt 0.837534 0.824449
vt 0.836928 0.824449
vt 0.024086 0.122564
vt 0.024086 0.122564
vt 0.024086 0.122564
vt 0.024086 0.122564
vt 0.836928 0.886949
vt 0.834973 0.886949
vt 0.024086 0.154352
vt 0.024086 0.154352
vt 0.836928 0.925551
vt 0.834973 0.925551
vt 0.836928 0.863051
vt 0.837534 0.863051
vt 0.828134 0.894301
vt 0.837534 0.894301
vt 0.024086 0.122564
vt 0.024086 0.122564
vt 0.024086 0.122564
vt 0.024086 0.122564
vt 0.787920 0.925551
vt 0.789876 0.925551
vt 0.787920 0.863051
vt 0.787315 0.863051
vt 0.807805 0.891615
vt 0.807805 0.858385
vt 0.798906 0.858405
vt 0.798906 0.891595
vt 0.817044 0.891615
vt 0.825942 0.891595
vt 0.825942 0.858405
vt 0.817044 0.858385
vt 0.796714 0.894301
vt 0.787315 0.894301
vt 0.815011 0.891615
vt 0.815011 0.858385
vt 0.809838 0.858385
vt 0.809838 0.891615
vt 0.815011 0.860365
vt 0.817044 0.860365
vt 0.817044 0.827135
vt 0.815011 0.827135
vt 0.826914 0.937426
vt 0.825969 0.934610
vt 0.834973 0.934610
vt 0.836928 0.937426
vt 0.421200 0.922077
vt 0.422362 0.917902
vt 0.425662 0.917902
vt 0.426636 0.922077
vt 0.426636 0.875413
vt 0.425662 0.879580
vt 0.422345 0.879580
vt 0.421187 0.875337
vt 0.815011 0.874926
vt 0.817044 0.874926
vt 0.817044 0.872512
vt 0.815011 0.872511
vt 0.797560 0.906176
vt 0.798916 0.903762
vt 0.796714 0.901061
vt 0.428474 0.910830
vt 0.428474 0.949152
vt 0.425662 0.949152
vt 0.425662 0.910830
vt 0.428900 0.922075
vt 0.428474 0.917902
vt 0.435879 0.917902
vt 0.435974 0.922075
vt 0.422362 0.949152
vt 0.419455 0.938773
vt 0.419455 0.921243
vt 0.422345 0.910830
vt 0.418329 0.911699
vt 0.418329 0.885732
vt 0.419455 0.889993
vt 0.419455 0.907523
vt 0.816965 0.934610
vt 0.816901 0.937426
vt 0.812425 0.937426
vt 0.812425 0.934610
vt 0.428900 0.875413
vt 0.428474 0.879580
vt 0.812425 0.874926
vt 0.816901 0.874926
vt 0.807948 0.874926
vt 0.435974 0.875413
vt 0.435879 0.879580
vt 0.435879 0.910830
vt 0.435879 0.949152
vt 0.815011 0.906176
vt 0.815011 0.903761
vt 0.809838 0.903761
vt 0.809838 0.906176
vt 0.807805 0.874926
vt 0.826914 0.874926
vt 0.827288 0.874926
vt 0.797934 0.937426
vt 0.787920 0.937426
vt 0.789876 0.934610
vt 0.798880 0.934610
vt 0.448281 0.911699
vt 0.446575 0.907523
vt 0.446575 0.889993
vt 0.448281 0.885732
vt 0.439268 0.922077
vt 0.439706 0.917902
vt 0.443349 0.917902
vt 0.445133 0.922077
vt 0.809838 0.874926
vt 0.809838 0.872511
vt 0.807805 0.872512
vt 0.439706 0.910830
vt 0.439706 0.949152
vt 0.439706 0.879580
vt 0.439268 0.875413
vt 0.445146 0.875337
vt 0.443369 0.879580
vt 0.443369 0.910830
vt 0.443349 0.949152
vt 0.446575 0.921243
vt 0.446575 0.938773
vt 0.817044 0.906176
vt 0.827288 0.906176
vt 0.825933 0.903762
vt 0.817044 0.903762
vt 0.807805 0.906176
vt 0.807805 0.903762
vt 0.807884 0.934610
vt 0.807948 0.937426
vt 0.797934 0.874926
vt 0.797560 0.874926
vt 0.024086 0.122564
vt 0.024086 0.122564
vt 0.828134 0.901061
vt 0.837534 0.906176
vt 0.787920 0.874926
vt 0.787315 0.874926
vt 0.787315 0.906176
vt 0.836928 0.874926
vt 0.837534 0.874926
vt 0.116979 0.041273
vt 0.166085 0.041273
vt 0.166085 0.090259
vt 0.116979 0.090259
vt 0.020976 0.041273
vt 0.020976 0.035319
vt 0.020976 0.052101
vt 0.020976 0.090259
vt 0.020976 0.173167
vt 0.020976 0.080503
vt 0.067872 0.041273
vt 0.067872 0.090259
vt 0.116979 0.090259
vt 0.116979 0.041273
vt 0.166085 0.090259
vt 0.166085 0.041273
vt 0.020976 0.041273
vt 0.020976 0.090259
vt 0.020976 0.090259
vt 0.020976 0.041273
vt 0.020976 0.173167
vt 0.020976 0.173167
vt 0.067872 0.041273
vt 0.067872 0.090259
vt 0.116979 0.173167
vt 0.166085 0.173167
vt 0.067872 0.173167
vt 0.116979 0.173167
vt 0.067872 0.173167
vt 0.116979 0.222153
vt 0.166085 0.173167
vt 0.166085 0.222153
vt 0.020976 0.222153
vt 0.020976 0.097285
vt 0.067872 0.222153
vt 0.116979 0.222153
vt 0.166085 0.222153
vt 0.020976 0.222153
vt 0.020976 0.222153
vt 0.067872 0.222153
vt 0.398971 0.900258
vt 0.403782 0.900258
vt 0.403847 0.912663
vt 0.399651 0.954912
vt 0.399524 0.929036
vt 0.398809 0.863827
vt 0.398971 0.869008
vt 0.399651 0.923662
vt 0.410225 0.927453
vt 0.411949 0.932992
vt 0.405595 0.863565
vt 0.403782 0.869008
vt 0.402198 0.954920
vt 0.412523 0.958703
vt 0.412523 0.932322
vt 0.409902 0.931954
vt 0.411994 0.895772
vt 0.410225 0.901072
vt 0.407406 0.931945
vt 0.410225 0.932322
vt 0.410225 0.958703
vt 0.406392 0.912655
vt 0.406328 0.900258
vt 0.401517 0.900258
vt 0.406044 0.879745
vt 0.403847 0.881413
vt 0.407460 0.926103
vt 0.404930 0.926107
vt 0.408535 0.893289
vt 0.407406 0.900695
vt 0.404930 0.894857
vt 0.406749 0.889479
vt 0.409902 0.900704
vt 0.412523 0.901072
vt 0.412760 0.895773
vt 0.409367 0.893291
vt 0.409367 0.862041
vt 0.412760 0.864523
vt 0.411994 0.864522
vt 0.408535 0.862039
vt 0.407460 0.894853
vt 0.407592 0.889479
vt 0.406891 0.879744
vt 0.406392 0.881405
vt 0.407592 0.858229
vt 0.406749 0.858229
vt 0.406044 0.848495
vt 0.406891 0.848494
vt 0.406443 0.863565
vt 0.406328 0.869008
vt 0.405595 0.832315
vt 0.406443 0.832315
vt 0.412523 0.927453
vt 0.412715 0.932993
vt 0.412715 0.901743
vt 0.411949 0.901742
vt 0.401517 0.869008
vt 0.399658 0.863827
vt 0.399658 0.832577
vt 0.398809 0.832577
vt 0.402198 0.923670
vt 0.400372 0.929038
vt 0.400372 0.897788
vt 0.399524 0.897786
vt 0.469277 0.900258
vt 0.468524 0.954912
vt 0.463872 0.912663
vt 0.463946 0.900258
vt 0.469618 0.929036
vt 0.468524 0.923662
vt 0.469277 0.869008
vt 0.470408 0.863827
vt 0.455885 0.932992
vt 0.456862 0.927453
vt 0.463946 0.869008
vt 0.462888 0.863565
vt 0.468555 0.954920
vt 0.459992 0.931954
vt 0.457070 0.932322
vt 0.457070 0.958703
vt 0.455835 0.895772
vt 0.456862 0.901072
vt 0.456862 0.958703
vt 0.456862 0.932322
vt 0.459959 0.931945
vt 0.469309 0.900258
vt 0.463977 0.900258
vt 0.463905 0.912655
vt 0.462386 0.879745
vt 0.463872 0.881413
vt 0.462714 0.926103
vt 0.462680 0.926107
vt 0.459640 0.893289
vt 0.461609 0.889479
vt 0.462680 0.894857
vt 0.459959 0.900695
vt 0.459992 0.900704
vt 0.459650 0.893291
vt 0.455903 0.895773
vt 0.457070 0.901072
vt 0.459650 0.862041
vt 0.459640 0.862039
vt 0.455835 0.864522
vt 0.455903 0.864523
vt 0.462714 0.894853
vt 0.463905 0.881405
vt 0.462398 0.879744
vt 0.461621 0.889479
vt 0.461621 0.858229
vt 0.462398 0.848494
vt 0.462386 0.848495
vt 0.461609 0.858229
vt 0.463977 0.869008
vt 0.462899 0.863565
vt 0.462899 0.832315
vt 0.462888 0.832315
vt 0.455954 0.932993
vt 0.457070 0.927453
vt 0.455885 0.901742
vt 0.455954 0.901743
vt 0.469309 0.869008
vt 0.470419 0.863827
vt 0.470419 0.832577
vt 0.470408 0.832577
vt 0.468555 0.923670
vt 0.469628 0.929038
vt 0.469628 0.897788
vt 0.469618 0.897786
vt 0.398971 0.917914
vt 0.399651 0.863259
vt 0.403847 0.905508
vt 0.403782 0.917914
vt 0.399524 0.826636
vt 0.399651 0.832009
vt 0.398971 0.886664
vt 0.398809 0.891844
vt 0.411949 0.822679
vt 0.410225 0.828219
vt 0.403782 0.886664
vt 0.405595 0.892107
vt 0.402198 0.863252
vt 0.409902 0.886217
vt 0.412523 0.885850
vt 0.412523 0.859469
vt 0.411994 0.859899
vt 0.410225 0.854600
vt 0.410225 0.859469
vt 0.410225 0.885850
vt 0.407406 0.886226
vt 0.401517 0.917914
vt 0.406328 0.917914
vt 0.406392 0.905517
vt 0.406044 0.875927
vt 0.403847 0.874258
vt 0.407460 0.892068
vt 0.404930 0.892065
vt 0.408535 0.862383
vt 0.406749 0.866192
vt 0.404930 0.860815
vt 0.407406 0.854976
vt 0.409902 0.854967
vt 0.409367 0.862380
vt 0.412760 0.859898
vt 0.412523 0.854600
vt 0.409367 0.831130
vt 0.408535 0.831133
vt 0.411994 0.828649
vt 0.412760 0.828648
vt 0.407460 0.860818
vt 0.406392 0.874267
vt 0.406891 0.875927
vt 0.407592 0.866192
vt 0.407592 0.834942
vt 0.406891 0.844677
vt 0.406044 0.844677
vt 0.406749 0.834942
vt 0.406328 0.886664
vt 0.406443 0.892107
vt 0.406443 0.860857
vt 0.405595 0.860857
vt 0.412715 0.822678
vt 0.412523 0.828219
vt 0.411949 0.791429
vt 0.412715 0.791428
vt 0.401517 0.886664
vt 0.399658 0.891844
vt 0.399658 0.860594
vt 0.398809 0.860594
vt 0.402198 0.832002
vt 0.400372 0.826634
vt 0.400372 0.795384
vt 0.399524 0.795386
vt 0.469277 0.917914
vt 0.463946 0.917914
vt 0.463872 0.905508
vt 0.468524 0.863259
vt 0.469618 0.826636
vt 0.470408 0.891844
vt 0.469277 0.886664
vt 0.468524 0.832009
vt 0.456862 0.828219
vt 0.455885 0.822679
vt 0.462888 0.892107
vt 0.463946 0.886664
vt 0.468555 0.863252
vt 0.457070 0.859469
vt 0.457070 0.885850
vt 0.459992 0.886217
vt 0.455835 0.859899
vt 0.456862 0.854600
vt 0.459959 0.886226
vt 0.456862 0.885850
vt 0.456862 0.859469
vt 0.463905 0.905517
vt 0.463977 0.917914
vt 0.469309 0.917914
vt 0.462386 0.875927
vt 0.463872 0.874258
vt 0.462714 0.892068
vt 0.462680 0.892065
vt 0.459640 0.862383
vt 0.459959 0.854976
vt 0.462680 0.860815
vt 0.461609 0.866192
vt 0.459992 0.854967
vt 0.457070 0.854600
vt 0.455903 0.859898
vt 0.459650 0.862380
vt 0.459650 0.831130
vt 0.455903 0.828648
vt 0.455835 0.828649
vt 0.459640 0.831133
vt 0.462714 0.860818
vt 0.461621 0.866192
vt 0.462398 0.875927
vt 0.463905 0.874267
vt 0.461621 0.834942
vt 0.461609 0.834942
vt 0.462386 0.844677
vt 0.462398 0.844677
vt 0.462899 0.892107
vt 0.463977 0.886664
vt 0.462888 0.860857
vt 0.462899 0.860857
vt 0.457070 0.828219
vt 0.455954 0.822678
vt 0.455954 0.791428
vt 0.455885 0.791429
vt 0.469309 0.886664
vt 0.470419 0.891844
vt 0.470419 0.860594
vt 0.470408 0.860594
vt 0.468555 0.832002
vt 0.469628 0.826634
vt 0.469628 0.795384
vt 0.469618 0.795386
vt 0.023728 0.653659
vt 0.023728 0.680596
vt 0.023728 0.680596
vt 0.023728 0.653659
vt 0.047211 0.653659
vt 0.047211 0.680596
vt 0.070695 0.680596
vt 0.070695 0.653659
vt 0.070695 0.680596
vt 0.070695 0.653659
vt 0.047211 0.653659
vt 0.047211 0.680596
vt 0.047211 0.680596
vt 0.070695 0.680596
vt 0.047211 0.572846
vt 0.023728 0.572846
vt 0.023728 0.549365
vt 0.070695 0.549365
vt 0.070695 0.572846
vt 0.070695 0.572846
vt 0.070695 0.549365
vt 0.047211 0.572846
vt 0.023728 0.572846
vt 0.023728 0.549365
vt 0.023728 0.680596
vt 0.023728 0.599783
vt 0.047211 0.599783
vt 0.023728 0.626721
vt 0.047211 0.626721
vt 0.070695 0.599783
vt 0.047211 0.599783
vt 0.070695 0.626721
vt 0.047211 0.626721
vt 0.023728 0.599783
vt 0.023728 0.626721
vt 0.070695 0.599783
vt 0.070695 0.626721
vt 0.047211 0.680596
vt 0.023728 0.680596
vt 0.070695 0.680596
vt 0.070695 0.680596
vt 0.070695 0.680596
vt 0.047211 0.680596
vt 0.047211 0.680596
vt 0.023728 0.680596
vt 0.023728 0.680596
vn -0.3154 -0.7556 0.5741
vn -0.6264 -0.4364 0.6459
vn 0.3997 -0.1066 0.9104
vn 0.0399 -0.1066 0.9935
vn -0.6264 0.4364 0.6459
vn 0.8461 0.4364 0.3059
vn 0.8461 -0.4364 0.3059
vn -0.3154 0.7556 0.5741
vn 0.3237 0.1846 0.9280
vn 0.5351 0.7556 0.3777
vn 0.5351 -0.7556 0.3777
vn 0.1159 0.1846 0.9760
vn 0.3997 0.1066 0.9104
vn 0.1159 -0.1846 0.9760
vn 0.0399 0.1066 0.9935
vn 0.3237 -0.1846 0.9280
vn 0.2117 -0.3613 -0.9081
vn 0.0431 -0.1696 -0.9846
vn 0.0649 -0.1957 -0.9785
vn 0.2121 -0.3568 -0.9098
vn -0.3785 -0.5451 0.7481
vn -0.2307 -0.8258 0.5146
vn -0.2130 -0.8255 0.5227
vn -0.2180 -0.7245 0.6539
vn -0.2301 0.8253 0.5156
vn -0.3779 0.5424 0.7503
vn -0.2184 0.7215 0.6571
vn -0.2124 0.8248 0.5239
vn -0.3319 0.0000 0.9433
vn -0.6262 0.0000 0.7797
vn 0.2038 -0.0313 0.9785
vn 0.2155 -0.0151 0.9764
vn 0.2000 -0.0276 0.9794
vn -0.5524 0.0000 0.8336
vn -0.1847 -0.8288 0.5283
vn 0.1847 -0.8288 0.5283
vn 0.1554 -0.8277 0.5393
vn -0.1554 -0.8277 0.5393
vn -0.2131 0.0000 0.9770
vn -0.2194 0.0000 0.9756
vn -0.5787 -0.2180 0.7858
vn -0.5750 -0.2258 0.7864
vn -0.5752 0.2227 0.7871
vn -0.5777 0.2175 0.7867
vn -0.0009 -0.3917 -0.9201
vn -0.0000 -0.4244 -0.9055
vn -0.0107 -0.3931 -0.9194
vn -0.1553 0.8280 0.5388
vn -0.1845 0.8291 0.5278
vn 0.0000 -1.0000 -0.0000
vn 0.1845 0.8291 0.5278
vn 0.1553 0.8280 0.5388
vn 0.0000 0.0000 1.0000
vn 0.3319 0.0000 0.9433
vn -0.9727 0.0000 -0.2321
vn -0.2117 -0.3613 -0.9081
vn -0.2121 -0.3568 -0.9098
vn -0.0649 -0.1957 -0.9785
vn -0.0431 -0.1696 -0.9846
vn 0.5787 -0.2180 0.7858
vn 0.5777 0.2175 0.7867
vn 0.5752 0.2227 0.7871
vn 0.5750 -0.2258 0.7864
vn 0.2307 -0.8258 0.5146
vn 0.3785 -0.5451 0.7481
vn 0.2180 -0.7245 0.6539
vn 0.2130 -0.8255 0.5227
vn 0.6262 0.0000 0.7797
vn 0.5524 0.0000 0.8336
vn 0.2124 0.8248 0.5239
vn 0.2184 0.7215 0.6571
vn 0.3779 0.5424 0.7503
vn 0.2301 0.8253 0.5156
vn 0.2091 0.0000 0.9779
vn 0.2131 0.0000 0.9770
vn 0.2194 0.0000 0.9756
vn -0.1930 -0.0276 0.9808
vn -0.2000 -0.0276 0.9794
vn -0.2038 -0.0313 0.9785
vn 0.1930 -0.0276 0.9808
vn 0.0009 -0.3917 -0.9201
vn 0.0107 -0.3931 -0.9194
vn 0.9727 0.0000 -0.2321
vn -0.2155 -0.0151 0.9764
vn -0.2140 -0.0000 0.9768
vn -0.2197 -0.0000 0.9756
vn -0.2160 -0.0086 0.9764
vn 0.0000 1.0000 0.0000
vn 0.9762 0.0000 -0.2170
vn 0.0963 0.0000 -0.9954
vn 0.2160 -0.0086 0.9764
vn 0.2197 0.0000 0.9756
vn 0.2140 0.0000 0.9768
vn -0.9762 0.0000 -0.2170
vn -0.0963 0.0000 -0.9954
vn 0.1618 0.0000 0.9868
vn 0.1816 0.0000 0.9834
vn -0.1618 0.0000 0.9868
vn -0.1816 0.0000 0.9834
vn 0.2117 0.3613 -0.9081
vn 0.2121 0.3568 -0.9098
vn 0.0649 0.1957 -0.9785
vn 0.0431 0.1696 -0.9846
vn -0.3785 0.5451 0.7481
vn -0.2180 0.7245 0.6539
vn -0.2130 0.8255 0.5227
vn -0.2307 0.8258 0.5146
vn -0.2301 -0.8253 0.5156
vn -0.2124 -0.8248 0.5239
vn -0.2184 -0.7215 0.6571
vn -0.3779 -0.5424 0.7503
vn 0.2038 0.0313 0.9785
vn 0.2000 0.0276 0.9794
vn 0.2155 0.0151 0.9764
vn -0.1847 0.8288 0.5283
vn -0.1554 0.8277 0.5393
vn 0.1554 0.8277 0.5393
vn 0.1847 0.8288 0.5283
vn -0.5787 0.2180 0.7858
vn -0.5777 -0.2175 0.7867
vn -0.5752 -0.2227 0.7871
vn -0.5750 0.2258 0.7864
vn -0.0009 0.3917 -0.9201
vn -0.0107 0.3931 -0.9194
vn -0.0000 0.4244 -0.9055
vn -0.1845 -0.8291 0.5278
vn -0.1553 -0.8280 0.5388
vn 0.1845 -0.8291 0.5278
vn 0.1553 -0.8280 0.5388
vn -0.2117 0.3613 -0.9081
vn -0.0431 0.1696 -0.9846
vn -0.0649 0.1957 -0.9785
vn -0.2121 0.3568 -0.9098
vn 0.5787 0.2180 0.7858
vn 0.5750 0.2258 0.7864
vn 0.5752 -0.2227 0.7871
vn 0.5777 -0.2175 0.7867
vn 0.2307 0.8258 0.5146
vn 0.2130 0.8255 0.5227
vn 0.2180 0.7245 0.6539
vn 0.3785 0.5451 0.7481
vn 0.2124 -0.8248 0.5239
vn 0.2301 -0.8253 0.5156
vn 0.3779 -0.5424 0.7503
vn 0.2184 -0.7215 0.6571
vn -0.1930 0.0276 0.9808
vn -0.2038 0.0313 0.9785
vn -0.2000 0.0276 0.9794
vn 0.1930 0.0276 0.9808
vn 0.0009 0.3917 -0.9201
vn 0.0107 0.3931 -0.9194
vn -0.2155 0.0151 0.9764
vn -0.2160 0.0086 0.9764
vn 0.2160 0.0086 0.9764
vn -0.2220 0.0000 -0.9750
vn -0.3824 -0.0000 -0.9240
vn -0.5319 -0.0000 -0.8468
vn 0.2220 0.0000 -0.9750
vn 0.3824 -0.0000 -0.9240
vn 0.5319 -0.0000 -0.8468
vn -0.2175 -0.0002 0.9761
vn -0.2159 0.0008 0.9764
vn -0.2105 0.0035 0.9776
vn -0.9982 0.0599 -0.0056
vn -0.9981 0.0600 -0.0102
vn -0.9562 0.0555 0.2873
vn -0.1024 0.9744 0.2004
vn -0.1559 0.8678 0.4718
vn -0.1017 0.9751 0.1973
vn -0.0503 -0.9787 0.1991
vn -0.0506 -0.9784 0.2002
vn -0.1081 -0.8768 0.4686
vn 0.2224 0.0022 -0.9749
vn 0.2250 0.0018 -0.9744
vn 0.2253 0.0029 -0.9743
vn 0.9198 0.0055 0.3923
vn 0.9205 0.0055 0.3906
vn 0.7608 0.0034 0.6490
vn -0.2056 0.0054 0.9786
vn -0.2060 0.0037 0.9786
vn 0.2190 0.0010 -0.9757
vn 0.2175 0.0002 -0.9761
vn 0.8259 -0.2405 0.5099
vn 0.6367 -0.1958 0.7458
vn 0.6751 -0.0819 0.7332
vn 0.8789 -0.1270 0.4598
vn 0.2247 0.0046 -0.9744
vn -0.2080 0.0069 0.9781
vn 0.1603 -0.9177 0.3634
vn 0.0645 -0.7797 0.6228
vn 0.4017 -0.5431 0.7373
vn 0.5630 -0.6560 0.5026
vn 0.0548 -0.9594 0.2766
vn -0.0487 -0.8157 0.5764
vn 0.3175 -0.7793 -0.5402
vn 0.1948 -0.8119 -0.5503
vn 0.1642 -0.9601 -0.2262
vn 0.2969 -0.9181 -0.2625
vn 0.6754 -0.5462 -0.4955
vn 0.7223 -0.6581 -0.2127
vn 0.9648 -0.2406 -0.1065
vn 0.8949 -0.1958 -0.4011
vn 0.9912 -0.1264 -0.0391
vn 0.9243 -0.0806 -0.3730
vn 0.9473 0.0033 -0.3203
vn 0.9998 0.0054 -0.0210
vn 0.9997 0.0054 -0.0228
vn 0.1010 -0.8767 -0.4702
vn 0.0394 -0.9783 -0.2035
vn 0.0388 -0.9788 -0.2011
vn 0.0574 0.8647 -0.4990
vn -0.0091 0.9744 -0.2245
vn -0.0115 0.9767 -0.2144
vn -0.7409 0.0554 -0.6694
vn -0.9062 0.0599 -0.4186
vn -0.9042 0.0599 -0.4229
vn 0.2175 -0.0002 0.9761
vn 0.2105 0.0035 0.9776
vn 0.2159 0.0008 0.9764
vn 0.9982 0.0599 -0.0056
vn 0.9562 0.0555 0.2873
vn 0.9981 0.0600 -0.0102
vn 0.1024 0.9744 0.2004
vn 0.1017 0.9751 0.1973
vn 0.1559 0.8678 0.4718
vn 0.0503 -0.9787 0.1991
vn 0.1081 -0.8768 0.4686
vn 0.0506 -0.9784 0.2002
vn -0.2224 0.0022 -0.9749
vn -0.2253 0.0029 -0.9743
vn -0.2250 0.0018 -0.9744
vn -0.9198 0.0055 0.3923
vn -0.7608 0.0034 0.6490
vn -0.9205 0.0055 0.3906
vn 0.2060 0.0037 0.9786
vn 0.2056 0.0054 0.9786
vn -0.2175 0.0002 -0.9761
vn -0.2190 0.0010 -0.9757
vn -0.8259 -0.2405 0.5099
vn -0.8789 -0.1270 0.4598
vn -0.6751 -0.0819 0.7332
vn -0.6367 -0.1958 0.7458
vn -0.2247 0.0046 -0.9744
vn 0.2080 0.0069 0.9781
vn -0.1603 -0.9177 0.3634
vn -0.5630 -0.6560 0.5026
vn -0.4017 -0.5431 0.7373
vn -0.0645 -0.7797 0.6228
vn 0.0487 -0.8157 0.5764
vn -0.0548 -0.9594 0.2766
vn -0.3175 -0.7793 -0.5402
vn -0.2969 -0.9181 -0.2625
vn -0.1642 -0.9601 -0.2262
vn -0.1948 -0.8119 -0.5503
vn -0.6754 -0.5462 -0.4955
vn -0.8949 -0.1958 -0.4011
vn -0.9648 -0.2406 -0.1065
vn -0.7223 -0.6581 -0.2127
vn -0.9243 -0.0807 -0.3730
vn -0.9912 -0.1264 -0.0391
vn -0.9473 0.0033 -0.3203
vn -0.9997 0.0054 -0.0228
vn -0.9998 0.0054 -0.0210
vn -0.1010 -0.8767 -0.4702
vn -0.0388 -0.9788 -0.2011
vn -0.0394 -0.9783 -0.2035
vn -0.0574 0.8647 -0.4990
vn 0.0115 0.9767 -0.2144
vn 0.0091 0.9744 -0.2245
vn 0.7409 0.0554 -0.6694
vn 0.9042 0.0599 -0.4229
vn 0.9062 0.0599 -0.4186
vn -0.2175 0.0002 0.9761
vn -0.2105 -0.0035 0.9776
vn -0.2159 -0.0008 0.9764
vn -0.9982 -0.0599 -0.0056
vn -0.9562 -0.0555 0.2873
vn -0.9981 -0.0600 -0.0102
vn -0.1024 -0.9744 0.2004
vn -0.1017 -0.9751 0.1973
vn -0.1559 -0.8678 0.4718
vn -0.0503 0.9787 0.1991
vn -0.1081 0.8768 0.4686
vn -0.0506 0.9784 0.2002
vn 0.2224 -0.0022 -0.9749
vn 0.2253 -0.0029 -0.9743
vn 0.2250 -0.0018 -0.9744
vn 0.9198 -0.0055 0.3923
vn 0.7608 -0.0034 0.6490
vn 0.9205 -0.0055 0.3906
vn -0.2060 -0.0037 0.9786
vn -0.2056 -0.0054 0.9786
vn 0.2175 -0.0002 -0.9761
vn 0.2190 -0.0010 -0.9757
vn 0.8259 0.2405 0.5099
vn 0.8789 0.1270 0.4598
vn 0.6751 0.0819 0.7332
vn 0.6367 0.1958 0.7458
vn 0.2247 -0.0046 -0.9744
vn -0.2080 -0.0069 0.9781
vn 0.1603 0.9177 0.3634
vn 0.5630 0.6560 0.5026
vn 0.4017 0.5431 0.7373
vn 0.0645 0.7797 0.6228
vn -0.0487 0.8157 0.5764
vn 0.0548 0.9594 0.2766
vn 0.3175 0.7793 -0.5402
vn 0.2969 0.9181 -0.2625
vn 0.1642 0.9601 -0.2262
vn 0.1948 0.8119 -0.5503
vn 0.6754 0.5462 -0.4955
vn 0.8949 0.1958 -0.4011
vn 0.9648 0.2406 -0.1065
vn 0.7223 0.6581 -0.2127
vn 0.9243 0.0806 -0.3730
vn 0.9912 0.1264 -0.0391
vn 0.9473 -0.0033 -0.3203
vn 0.9997 -0.0054 -0.0228
vn 0.9998 -0.0054 -0.0210
vn 0.1010 0.8767 -0.4702
vn 0.0388 0.9788 -0.2011
vn 0.0394 0.9783 -0.2035
vn 0.0574 -0.8647 -0.4990
vn -0.0115 -0.9767 -0.2144
vn -0.0091 -0.9744 -0.2245
vn -0.7409 -0.0554 -0.6694
vn -0.9042 -0.0599 -0.4229
vn -0.9062 -0.0599 -0.4186
vn 0.2175 0.0002 0.9761
vn 0.2159 -0.0008 0.9764
vn 0.2105 -0.0035 0.9776
vn 0.9982 -0.0599 -0.0056
vn 0.9981 -0.0600 -0.0102
vn 0.9562 -0.0555 0.2873
vn 0.1024 -0.9744 0.2004
vn 0.1559 -0.8678 0.4718
vn 0.1017 -0.9751 0.1973
vn 0.0503 0.9787 0.1991
vn 0.0506 0.9784 0.2002
vn 0.1081 0.8768 0.4686
vn -0.2224 -0.0022 -0.9749
vn -0.2250 -0.0018 -0.9744
vn -0.2253 -0.0029 -0.9743
vn -0.9198 -0.0055 0.3923
vn -0.9205 -0.0055 0.3906
vn -0.7608 -0.0034 0.6490
vn 0.2056 -0.0054 0.9786
vn 0.2060 -0.0037 0.9786
vn -0.2190 -0.0010 -0.9757
vn -0.2175 -0.0002 -0.9761
vn -0.8259 0.2405 0.5099
vn -0.6367 0.1958 0.7458
vn -0.6751 0.0819 0.7332
vn -0.8789 0.1270 0.4598
vn -0.2247 -0.0046 -0.9744
vn 0.2080 -0.0069 0.9781
vn -0.1603 0.9177 0.3634
vn -0.0645 0.7797 0.6228
vn -0.4017 0.5431 0.7373
vn -0.5630 0.6560 0.5026
vn -0.0548 0.9594 0.2766
vn 0.0487 0.8157 0.5764
vn -0.3175 0.7793 -0.5402
vn -0.1948 0.8119 -0.5503
vn -0.1642 0.9601 -0.2262
vn -0.2969 0.9181 -0.2625
vn -0.6754 0.5462 -0.4955
vn -0.7223 0.6581 -0.2127
vn -0.9648 0.2406 -0.1065
vn -0.8949 0.1958 -0.4011
vn -0.9912 0.1264 -0.0391
vn -0.9243 0.0807 -0.3730
vn -0.9473 -0.0033 -0.3203
vn -0.9998 -0.0054 -0.0210
vn -0.9997 -0.0054 -0.0228
vn -0.1010 0.8767 -0.4702
vn -0.0394 0.9783 -0.2035
vn -0.0388 0.9788 -0.2011
vn -0.0574 -0.8647 -0.4990
vn 0.0091 -0.9744 -0.2245
vn 0.0115 -0.9767 -0.2144
vn 0.7409 -0.0554 -0.6694
vn 0.9062 -0.0599 -0.4186
vn 0.9042 -0.0599 -0.4229
vn -0.2091 -0.0000 0.9779
vn -0.9744 0.0000 -0.2250
vn 0.2247 -0.0503 -0.9731
vn 0.2248 0.0361 -0.9737
vn 0.9744 -0.0000 0.2250
vn -0.2246 0.0534 0.9730
vn -0.2243 -0.0782 0.9714
vn 0.2104 0.3539 -0.9113
vn -0.1447 0.7658 0.6266
vn -0.1401 0.7824 0.6068
vn -0.1239 0.8346 0.5367
vn 0.9744 -0.0000 0.2249
vn 0.1479 -0.7534 -0.6408
vn 0.1435 -0.7701 -0.6216
vn 0.1274 -0.8243 -0.5517
vn 0.6224 -0.6442 0.4446
vn -0.7543 -0.6442 0.1267
vn 0.1805 -0.5966 -0.7819
vn 0.2131 -0.3208 -0.9229
vn -0.1781 0.6110 0.7713
vn -0.2123 0.3309 0.9195
vn -0.2166 0.2706 0.9380
vn -0.0057 0.9997 0.0246
vn 0.1700 0.6551 -0.7362
vn -0.1802 0.5986 0.7805
usemtl cleric
s off
f 280/1/1 285/2/1 292/3/1 293/4/1
f 285/2/2 280/1/2 282/5/2 288/6/2
f 284/7/3 279/8/3 288/9/3
f 279/10/4 285/11/4 288/12/4
f 281/13/5 286/14/5 287/15/5 289/16/5
f 283/17/6 278/18/6 289/16/6 287/15/6
f 277/19/7 284/20/7 288/6/7 282/5/7
f 286/14/8 281/13/8 293/4/8 292/3/8
f 291/21/9 283/22/9 279/8/9
f 278/18/10 283/17/10 291/23/10 290/24/10
f 284/20/11 277/19/11 290/24/11 291/23/11
f 279/10/12 286/25/12 292/26/12
f 283/27/13 287/28/13 279/10/13
f 285/29/14 279/8/14 292/30/14
f 287/31/15 286/32/15 279/8/15
f 284/33/16 291/34/16 279/10/16
s 1
f 55/35/17 2/36/18 4/37/19 51/38/20
f 35/39/21 7/40/22 9/41/23 40/42/24
f 8/43/25 34/44/26 37/45/27 10/46/28
f 16/47/29 17/48/29 7/49/30 6/50/30
f 57/51/31 43/52/32 44/53/33
f 14/54/34 10/55/34 9/56/34 15/57/34
f 17/58/35 32/59/36 30/60/37 15/61/38
f 17/58/35 15/61/38 9/41/23 7/40/22
f 40/62/39 37/63/39 38/64/40 39/65/40
f 36/66/41 39/67/42 38/68/43 33/69/44
f 5/70/45 12/71/46 11/72/46 1/73/47
f 8/43/25 10/46/28 14/74/48 13/75/49
f 11/76/50 18/77/50 1/78/50
f 28/79/51 13/75/49 14/74/48 29/80/52
f 15/57/53 30/81/53 29/82/53 14/54/53
f 16/83/29 31/84/54 32/85/54 17/86/29
f 18/77/50 23/87/50 6/50/50 1/78/50
f 55/88/50 1/78/50 6/50/50 52/89/50
f 121/90/50 124/91/50 5/92/50 51/93/50
f 49/94/55 129/95/55 122/96/55 4/97/55
f 5/92/50 124/91/50 123/98/50 12/99/50
f 60/100/56 59/101/57 21/102/58 19/103/59
f 43/104/60 42/105/61 45/106/62 48/107/63
f 24/108/64 44/109/65 47/110/66 26/111/67
f 31/112/54 23/87/68 24/113/68 32/114/54
f 88/115/54 28/116/54 25/117/68 85/118/68
f 29/82/69 30/81/69 26/119/69 27/120/69
f 32/59/36 24/108/64 26/111/67 30/60/37
f 27/121/70 46/122/71 41/123/72 25/124/73
f 26/119/74 47/125/75 46/126/75 27/120/74
f 47/125/75 48/127/76 45/128/76 46/126/75
f 6/129/77 7/130/77 35/131/78 52/132/79
f 23/133/80 57/51/31 44/53/33 24/134/80
f 22/135/81 18/136/82 11/72/46 12/71/46
f 25/124/73 28/79/51 29/80/52 27/121/70
f 60/137/50 57/138/50 23/87/50 18/77/50
f 22/139/50 127/140/50 125/141/50 59/142/50
f 21/143/83 126/144/83 133/145/83 54/146/83
f 12/99/50 123/98/50 127/140/50 22/139/50
f 23/87/50 31/112/50 16/47/50 6/50/50
f 36/147/84 33/148/85 53/149/86 3/150/87
f 37/45/27 34/44/26 33/69/44 38/68/43
f 35/39/21 40/42/24 39/67/42 36/66/41
f 45/106/62 42/105/61 41/123/72 46/122/71
f 43/104/60 48/107/63 47/110/66 44/109/65
f 64/151/55 136/152/55 143/153/55 109/154/55
f 111/155/88 135/156/88 136/157/88 64/158/88
f 4/97/50 122/96/50 121/90/50 51/93/50
f 109/154/55 143/153/55 129/95/55 49/94/55
f 19/159/89 56/160/89 58/161/89 20/162/89
f 18/136/82 22/135/81 59/101/57 60/100/56
f 19/103/59 21/102/58 54/163/90 56/164/90
f 19/159/50 20/162/50 57/138/50 60/137/50
f 147/165/83 114/166/83 54/146/83 133/145/83
f 43/52/32 20/167/91 58/168/92 42/169/93
f 2/170/94 3/171/94 53/172/94 50/173/94
f 81/174/88 140/175/88 139/176/88 119/177/88
f 2/36/18 50/178/95 49/179/95 4/37/19
f 147/165/83 140/180/83 81/181/83 114/166/83
f 2/170/50 55/88/50 52/89/50 3/171/50
f 1/73/47 55/35/17 51/38/20 5/70/45
f 20/167/91 43/52/32 57/51/31
f 3/150/87 52/132/79 36/147/84
f 52/132/79 35/131/78 36/147/84
f 110/182/95 109/183/95 49/179/95 50/178/95
f 110/184/94 50/173/94 53/172/94 113/185/94
f 33/148/85 93/186/85 113/187/86 53/149/86
f 65/188/88 72/189/88 137/190/88 138/191/88
f 116/192/90 56/164/90 54/163/90 114/193/90
f 116/194/89 118/195/89 58/161/89 56/160/89
f 85/196/96 25/197/96 41/198/97 101/199/97
f 68/200/98 94/201/99 34/202/99 8/203/98
f 101/199/97 41/198/97 42/169/93 102/204/93
f 58/168/92 118/205/92 102/204/93 42/169/93
f 73/206/29 13/207/29 28/208/54 88/209/54
f 94/201/99 93/186/85 33/148/85 34/202/99
f 73/210/29 68/211/30 8/212/30 13/213/29
f 115/214/100 111/215/101 64/216/102 62/217/103
f 95/218/104 100/219/105 69/220/106 67/221/107
f 68/222/108 70/223/109 97/224/110 94/225/111
f 76/226/29 66/227/30 67/228/30 77/229/29
f 117/230/112 104/231/113 103/232/114
f 74/233/34 75/234/34 69/235/34 70/236/34
f 77/237/115 75/238/116 90/239/117 92/240/118
f 77/237/115 67/221/107 69/220/106 75/238/116
f 100/241/39 99/242/40 98/243/40 97/244/39
f 96/245/119 93/246/120 98/247/121 99/248/122
f 65/249/123 61/250/124 71/251/125 72/252/125
f 68/222/108 73/253/126 74/254/127 70/223/109
f 71/255/88 61/256/88 78/257/88
f 88/258/128 89/259/129 74/254/127 73/253/126
f 75/234/53 74/233/53 89/260/53 90/261/53
f 76/262/29 77/263/29 92/264/54 91/265/54
f 78/257/88 61/256/88 66/227/88 83/266/88
f 115/267/88 112/268/88 66/227/88 61/256/88
f 65/188/88 138/191/88 135/156/88 111/155/88
f 120/269/130 79/270/131 81/271/132 119/272/133
f 103/273/134 108/274/135 105/275/136 102/276/137
f 84/277/138 86/278/139 107/279/140 104/280/141
f 91/281/54 92/282/54 84/283/68 83/266/68
f 89/260/69 87/284/69 86/285/69 90/261/69
f 92/240/118 90/239/117 86/278/139 84/277/138
f 87/286/142 85/287/143 101/288/144 106/289/145
f 86/285/74 87/284/74 106/290/75 107/291/75
f 107/291/75 106/290/75 105/292/76 108/293/76
f 66/294/146 112/295/147 95/296/148 67/297/146
f 83/298/149 84/299/149 104/231/113 117/230/112
f 82/300/150 72/252/125 71/251/125 78/301/151
f 85/287/143 87/286/142 89/259/129 88/258/128
f 120/302/88 78/257/88 83/266/88 117/303/88
f 82/304/88 119/177/88 139/176/88 141/305/88
f 82/304/88 141/305/88 137/190/88 72/189/88
f 83/266/88 66/227/88 76/226/88 91/281/88
f 96/306/152 63/307/153 113/187/86 93/186/85
f 97/224/110 98/247/121 93/246/120 94/225/111
f 95/218/104 96/245/119 99/248/122 100/219/105
f 105/275/136 106/289/145 101/288/144 102/276/137
f 103/273/134 104/280/141 107/279/140 108/274/135
f 79/308/89 80/309/89 118/195/89 116/194/89
f 78/301/151 120/269/130 119/272/133 82/300/150
f 79/270/131 116/192/90 114/193/90 81/271/132
f 79/308/88 120/302/88 117/303/88 80/309/88
f 103/232/114 102/204/93 118/205/92 80/310/154
f 62/311/94 110/184/94 113/185/94 63/312/94
f 62/217/103 64/216/102 109/183/95 110/182/95
f 62/311/88 63/312/88 112/268/88 115/267/88
f 61/250/124 65/249/123 111/215/101 115/214/100
f 80/310/154 117/230/112 103/232/114
f 63/307/153 96/306/152 112/295/147
f 112/295/147 96/306/152 95/296/148
f 125/313/155 127/314/156 132/315/156 131/316/155
f 127/317/156 123/318/157 128/319/157 132/320/156
f 146/321/156 132/320/156 128/319/157 142/322/157
f 122/323/158 129/324/158 134/325/158 121/326/158
f 121/326/158 134/325/158 130/327/159 124/328/159
f 124/329/159 130/330/159 128/331/160 123/332/160
f 144/333/159 142/334/160 128/331/160 130/330/159
f 126/335/155 125/313/155 131/316/155 133/336/155
f 148/337/158 144/338/159 130/327/159 134/325/158
f 147/339/155 133/336/155 131/316/155 145/340/155
f 143/341/158 148/337/158 134/325/158 129/324/158
f 139/342/155 145/340/155 146/343/156 141/344/156
f 141/345/156 146/321/156 142/322/157 137/346/157
f 136/347/158 135/348/158 148/337/158 143/341/158
f 135/348/158 138/349/159 144/338/159 148/337/158
f 138/350/159 137/351/160 142/334/160 144/333/159
f 140/352/155 147/339/155 145/340/155 139/342/155
f 145/340/155 131/316/155 132/315/156 146/343/156
f 59/142/50 125/141/50 126/144/50 21/143/50
f 154/353/161 158/354/161 162/355/162 150/356/163
f 166/357/164 167/358/165 154/359/166 150/360/166
f 166/357/167 150/360/168 152/361/168 170/362/169
f 167/358/170 171/363/171 158/364/172 154/359/172
f 149/365/173 151/366/174 155/367/174 159/368/175
f 174/369/176 170/362/177 152/361/178 156/370/178
f 150/356/163 163/371/179 156/372/180 152/373/180
f 149/365/173 160/374/181 157/375/182 153/376/182
f 179/377/183 162/378/184 158/364/185 171/363/186
f 159/368/175 161/379/187 149/365/173
f 161/379/187 160/374/181 149/365/173
f 162/355/162 164/380/188 150/356/163
f 164/380/188 163/371/179 150/356/163
f 176/381/189 163/382/190 164/383/191 177/384/192
f 177/384/192 164/383/191 162/378/184 179/377/183
f 176/381/189 174/369/193 156/370/194 163/382/190
f 159/385/195 155/386/196 173/387/197 175/388/198
f 175/389/198 173/390/197 174/391/193 176/392/189
f 161/393/199 178/394/200 180/395/201 160/396/202
f 178/397/200 177/398/192 179/399/183 180/400/201
f 159/385/195 175/388/198 178/394/200 161/393/199
f 175/389/198 176/392/189 177/398/192 178/397/200
f 160/396/202 180/395/201 172/401/203 157/402/204
f 180/400/201 179/399/183 171/403/186 172/404/203
f 155/386/205 151/405/205 169/406/206 173/387/207
f 173/390/207 169/407/206 170/408/177 174/391/176
f 153/409/208 157/402/208 172/401/209 168/410/210
f 168/411/210 172/404/209 171/403/171 167/412/170
f 149/413/211 165/414/212 169/406/213 151/405/211
f 165/415/212 166/416/167 170/408/169 169/407/213
f 149/413/214 153/409/214 168/410/215 165/414/216
f 165/415/216 168/411/215 167/412/165 166/416/164
f 186/417/217 182/418/218 194/419/219 190/420/217
f 198/421/220 182/422/221 186/423/221 199/424/222
f 198/421/223 202/425/224 184/426/225 182/422/225
f 199/424/226 186/423/227 190/427/227 203/428/228
f 181/429/229 191/430/230 187/431/231 183/432/231
f 206/433/232 188/434/233 184/426/233 202/425/234
f 182/418/218 184/435/235 188/436/235 195/437/236
f 181/429/229 185/438/237 189/439/237 192/440/238
f 211/441/239 203/428/240 190/427/241 194/442/242
f 191/430/230 181/429/229 193/443/243
f 193/443/243 181/429/229 192/440/238
f 194/419/219 182/418/218 196/444/244
f 196/444/244 182/418/218 195/437/236
f 208/445/245 209/446/246 196/447/247 195/448/248
f 209/446/246 211/441/239 194/442/242 196/447/247
f 208/445/245 195/448/248 188/434/249 206/433/250
f 191/449/251 207/450/252 205/451/253 187/452/254
f 207/453/252 208/454/245 206/455/250 205/456/253
f 193/457/255 192/458/256 212/459/257 210/460/258
f 210/461/258 212/462/257 211/463/239 209/464/246
f 191/449/251 193/457/255 210/460/258 207/450/252
f 207/453/252 210/461/258 209/464/246 208/454/245
f 192/458/256 189/465/259 204/466/260 212/459/257
f 212/462/257 204/467/260 203/468/240 211/463/239
f 187/452/261 205/451/262 201/469/263 183/470/261
f 205/456/262 206/455/232 202/471/234 201/472/263
f 185/473/264 200/474/265 204/466/266 189/465/264
f 200/475/265 199/476/226 203/468/228 204/467/266
f 181/477/267 183/470/267 201/469/268 197/478/269
f 197/479/269 201/472/268 202/471/224 198/480/223
f 181/477/270 197/478/271 200/474/272 185/473/270
f 197/479/271 198/480/220 199/476/222 200/475/272
f 218/481/273 214/482/274 226/483/275 222/484/273
f 230/485/276 214/486/277 218/487/277 231/488/278
f 230/485/279 234/489/280 216/490/281 214/486/281
f 231/488/282 218/487/283 222/491/283 235/492/284
f 213/493/285 223/494/286 219/495/287 215/496/287
f 238/497/288 220/498/289 216/490/289 234/489/290
f 214/482/274 216/499/291 220/500/291 227/501/292
f 213/493/285 217/502/293 221/503/293 224/504/294
f 243/505/295 235/492/296 222/491/297 226/506/298
f 223/494/286 213/493/285 225/507/299
f 225/507/299 213/493/285 224/504/294
f 226/483/275 214/482/274 228/508/300
f 228/508/300 214/482/274 227/501/292
f 240/509/301 241/510/302 228/511/303 227/512/304
f 241/510/302 243/505/295 226/506/298 228/511/303
f 240/509/301 227/512/304 220/498/305 238/497/306
f 223/513/307 239/514/308 237/515/309 219/516/310
f 239/517/308 240/518/301 238/519/306 237/520/309
f 225/521/311 224/522/312 244/523/313 242/524/314
f 242/525/314 244/526/313 243/527/295 241/528/302
f 223/513/307 225/521/311 242/524/314 239/514/308
f 239/517/308 242/525/314 241/528/302 240/518/301
f 224/522/312 221/529/315 236/530/316 244/523/313
f 244/526/313 236/531/316 235/532/296 243/527/295
f 219/516/317 237/515/318 233/533/319 215/534/317
f 237/520/318 238/519/288 234/535/290 233/536/319
f 217/537/320 232/538/321 236/530/322 221/529/320
f 232/539/321 231/540/282 235/532/284 236/531/322
f 213/541/323 215/534/323 233/533/324 229/542/325
f 229/543/325 233/536/324 234/535/280 230/544/279
f 213/541/326 229/542/327 232/538/328 217/537/326
f 229/543/327 230/544/276 231/540/278 232/539/328
f 250/545/329 254/546/329 258/547/330 246/548/331
f 262/549/332 263/550/333 250/551/334 246/552/334
f 262/549/335 246/552/336 248/553/336 266/554/337
f 263/550/338 267/555/339 254/556/340 250/551/340
f 245/557/341 247/558/342 251/559/342 255/560/343
f 270/561/344 266/554/345 248/553/346 252/562/346
f 246/548/331 259/563/347 252/564/348 248/565/348
f 245/557/341 256/566/349 253/567/350 249/568/350
f 275/569/351 258/570/352 254/556/353 267/555/354
f 255/560/343 257/571/355 245/557/341
f 257/571/355 256/566/349 245/557/341
f 258/547/330 260/572/356 246/548/331
f 260/572/356 259/563/347 246/548/331
f 272/573/357 259/574/358 260/575/359 273/576/360
f 273/576/360 260/575/359 258/570/352 275/569/351
f 272/573/357 270/561/361 252/562/362 259/574/358
f 255/577/363 251/578/364 269/579/365 271/580/366
f 271/581/366 269/582/365 270/583/361 272/584/357
f 257/585/367 274/586/368 276/587/369 256/588/370
f 274/589/368 273/590/360 275/591/351 276/592/369
f 255/577/363 271/580/366 274/586/368 257/585/367
f 271/581/366 272/584/357 273/590/360 274/589/368
f 256/588/370 276/587/369 268/593/371 253/594/372
f 276/592/369 275/591/351 267/595/354 268/596/371
f 251/578/373 247/597/373 265/598/374 269/579/375
f 269/582/375 265/599/374 266/600/345 270/583/344
f 249/601/376 253/594/376 268/593/377 264/602/378
f 264/603/378 268/596/377 267/595/339 263/604/338
f 245/605/379 261/606/380 265/598/381 247/597/379
f 261/607/380 262/608/335 266/600/337 265/599/381
f 245/605/382 249/601/382 264/602/383 261/606/384
f 261/607/384 264/603/383 263/604/333 262/608/332
f 69/235/385 100/241/39 97/244/39 70/236/385
f 9/56/385 10/55/385 37/63/39 40/62/39
f 312/609/386 295/610/386 297/611/386 313/612/386
f 325/613/387 306/614/388 301/615/388 316/616/387
f 316/616/389 301/615/389 299/617/389 319/618/389
f 322/619/390 307/620/391 295/610/391 312/609/390
f 301/615/388 306/614/388 332/621/392 334/622/392
f 308/623/393 302/624/394 294/625/395
f 300/626/396 304/627/389 305/628/389 298/629/396
f 309/630/397 304/627/398 300/626/399
f 294/625/386 302/624/386 303/631/386 296/632/386
f 296/632/399 303/631/398 309/630/397
f 298/629/395 305/628/394 308/623/393
f 306/614/388 297/611/388 331/633/392 332/621/392
f 319/618/390 299/617/391 307/620/391 322/619/390
f 313/612/387 297/611/388 306/614/388 325/613/387
f 309/630/400 308/623/400 294/625/400 296/632/400
f 300/626/401 298/629/401 308/623/401 309/630/401
f 303/631/398 315/634/402 327/635/402 309/630/397
f 315/634/402 314/636/403 326/637/403 327/635/402
f 314/636/403 313/612/387 325/613/387 326/637/403
f 305/628/394 321/638/404 324/639/404 308/623/393
f 321/638/404 320/640/405 323/641/405 324/639/404
f 320/640/405 319/618/390 322/619/390 323/641/405
f 308/623/393 324/639/404 310/642/404 302/624/394
f 324/639/404 323/641/405 311/643/405 310/642/404
f 323/641/405 322/619/390 312/609/390 311/643/405
f 304/627/389 318/644/389 321/638/389 305/628/389
f 318/644/389 317/645/389 320/640/389 321/638/389
f 317/645/389 316/616/389 319/618/389 320/640/389
f 309/630/397 327/635/402 318/644/402 304/627/398
f 327/635/402 326/637/403 317/645/403 318/644/402
f 326/637/403 325/613/387 316/616/387 317/645/403
f 302/624/386 310/642/386 315/634/386 303/631/386
f 310/642/386 311/643/386 314/636/386 315/634/386
f 311/643/386 312/609/386 313/612/386 314/636/386
f 295/610/391 307/620/391 338/646/406 328/647/406
f 337/648/389 334/622/389 335/649/389 336/650/389
f 307/620/391 299/617/391 337/648/406 338/646/406
f 299/617/389 301/615/389 334/622/389 337/648/389
f 335/649/407 333/651/407 339/652/407 336/650/407
f 333/651/407 330/653/407 329/654/407 339/652/407
f 333/651/408 335/649/408 334/622/392 332/621/392
f 339/652/409 329/654/409 328/647/406 338/646/406
f 330/653/408 333/651/408 332/621/392 331/633/392
f 336/650/409 339/652/409 338/646/406 337/648/406
f 331/633/386 328/647/386 329/654/386 330/653/386
f 297/611/386 295/610/386 328/647/386 331/633/386
