# Blender v3.4.1 OBJ File: 'September2025_Cleric_Assets_Export.blend'
# www.blender.org
mtllib Cleric_Font.mtl
o Cleric_Font
v 0.166181 0.594247 -0.616363
v -0.147387 0.493066 -0.545905
v 0.123892 0.395704 -0.462302
v 0.318360 0.594247 -0.553329
v -0.281762 0.493066 -0.490245
v 0.239324 0.395704 -0.414489
v 0.553347 0.594247 -0.318341
v -0.490226 0.493066 -0.281781
v 0.414508 0.395704 -0.239305
v 0.616382 0.594247 -0.166162
v -0.545886 0.493066 -0.147406
v 0.462321 0.395704 -0.123873
v 0.616382 0.594247 0.166162
v -0.545886 0.493066 0.147406
v 0.462321 0.395704 0.123873
v 0.553347 0.594247 0.318341
v -0.490226 0.493066 0.281781
v 0.414508 0.395704 0.239305
v 0.318360 0.594247 0.553329
v -0.281762 0.493066 0.490245
v 0.239324 0.395704 0.414489
v 0.166181 0.594247 0.616363
v -0.147387 0.493066 0.545905
v 0.123892 0.395704 0.462302
v -0.166143 0.594247 0.616363
v 0.147425 0.493066 0.545905
v -0.123855 0.395704 0.462302
v -0.318322 0.594247 0.553329
v 0.281800 0.493066 0.490245
v -0.239286 0.395704 0.414489
v -0.553310 0.594247 0.318341
v 0.490263 0.493066 0.281781
v -0.414470 0.395704 0.239305
v -0.616345 0.594247 0.166162
v 0.545923 0.493066 0.147406
v -0.462283 0.395704 0.123873
v -0.616345 0.594247 -0.166162
v 0.545923 0.493066 -0.147406
v -0.462283 0.395704 -0.123873
v -0.553310 0.594247 -0.318341
v 0.490263 0.493066 -0.281781
v -0.414470 0.395704 -0.239305
v -0.318322 0.594247 -0.553328
v 0.147425 0.493066 -0.545905
v -0.239286 0.395704 -0.414488
v -0.166143 0.594247 -0.616363
v 0.281800 0.493066 -0.490245
v -0.123855 0.395704 -0.462302
v 0.104749 0.377034 -0.252850
v 0.252865 0.377034 -0.104734
v 0.252865 0.377034 0.104734
v 0.104749 0.377034 0.252849
v -0.104718 0.377034 0.252849
v -0.252834 0.377034 0.104734
v -0.252834 0.377034 -0.104734
v -0.104718 0.377034 -0.252849
v 0.192173 0.607125 -0.463902
v 0.173122 0.534642 -0.417909
v 0.136462 0.482507 -0.329403
v 0.463921 0.607125 -0.192155
v 0.417928 0.534642 -0.173104
v 0.329422 0.482507 -0.136443
v 0.463921 0.607125 0.192155
v 0.417928 0.534642 0.173104
v 0.329422 0.482507 0.136443
v 0.192173 0.607125 0.463902
v 0.173122 0.534642 0.417909
v 0.136462 0.482507 0.329403
v -0.192136 0.607125 0.463902
v -0.173085 0.534642 0.417909
v -0.136425 0.482507 0.329403
v -0.329385 0.482507 0.136443
v -0.463883 0.607125 0.192155
v -0.417890 0.534642 0.173104
v -0.329385 0.482507 -0.136443
v -0.463883 0.607125 -0.192154
v -0.417890 0.534642 -0.173104
v -0.136425 0.482507 -0.329403
v -0.192136 0.607125 -0.463902
v -0.173085 0.534642 -0.417909
v 0.095050 0.479038 -0.229427
v 0.229445 0.479038 -0.095032
v 0.229445 0.479038 0.095032
v 0.095050 0.479038 0.229427
v -0.095014 0.479038 0.229427
v -0.229409 0.479038 0.095032
v -0.229409 0.479038 -0.095032
v -0.095014 0.479038 -0.229427
v 0.000018 0.479038 0.000000
v -0.262151 -0.000000 -0.262151
v 0.262151 -0.000000 -0.262151
v 0.262151 -0.000000 0.262151
v -0.262151 -0.000000 0.262151
v 0.181627 0.606621 -0.694319
v 0.362560 0.606621 -0.619374
v 0.619393 0.606621 -0.362541
v 0.694338 0.606621 -0.181608
v 0.694338 0.606621 0.181609
v 0.619393 0.606621 0.362541
v 0.362560 0.606621 0.619374
v 0.181627 0.606621 0.694319
v -0.181590 0.606621 0.694319
v -0.362522 0.606621 0.619374
v -0.619356 0.606621 0.362541
v -0.694300 0.606621 0.181609
v -0.694300 0.606621 -0.181608
v -0.619356 0.606621 -0.362541
v -0.362522 0.606621 -0.619374
v -0.181590 0.606621 -0.694319
v 0.261424 0.764397 -0.459971
v 0.140428 0.764397 -0.510090
v 0.459991 0.764397 -0.261404
v 0.510109 0.764397 0.140408
v 0.459991 0.764397 0.261404
v 0.261424 0.764397 0.459971
v 0.140427 0.764397 0.510089
v -0.140389 0.764397 0.510089
v -0.261385 0.764397 0.459971
v -0.459952 0.764397 0.261404
v -0.510070 0.764397 0.140408
v -0.459951 0.764397 -0.261404
v -0.261385 0.764397 -0.459971
v -0.140388 0.764397 -0.510089
v -0.171707 0.805000 -0.648604
v -0.337188 0.805000 -0.580060
v 0.337223 0.805000 -0.580060
v -0.580042 0.805000 -0.337205
v -0.648587 0.805000 0.171724
v -0.171707 0.805000 0.648604
v 0.337223 0.805000 0.580060
v 0.648622 0.805000 0.171724
v 0.580078 0.805000 0.337205
v 0.580078 0.805000 -0.337205
v 0.171742 0.805000 -0.648605
v -0.337188 0.805000 0.580060
v 0.188307 0.666169 -0.718750
v 0.183467 0.763645 -0.696979
v 0.363139 0.763645 -0.622556
v 0.375111 0.666169 -0.641373
v 0.622575 0.763645 -0.363121
v 0.641391 0.666169 -0.375093
v 0.696997 0.763645 -0.183449
v 0.718768 0.666169 -0.188288
v 0.696997 0.763645 0.183449
v 0.718768 0.666169 0.188288
v 0.622575 0.763645 0.363121
v 0.641391 0.666169 0.375093
v 0.363139 0.763645 0.622556
v 0.375111 0.666169 0.641373
v 0.188307 0.666169 0.718750
v -0.183430 0.763645 0.696979
v -0.188270 0.666169 0.718750
v -0.363102 0.763645 0.622556
v -0.375075 0.666169 0.641373
v -0.641355 0.666169 0.375093
v -0.696960 0.763645 0.183449
v -0.718732 0.666169 0.188288
v -0.696960 0.763645 -0.183449
v -0.718732 0.666169 -0.188288
v -0.622538 0.763645 -0.363120
v -0.641354 0.666169 -0.375093
v -0.363102 0.763645 -0.622556
v -0.375075 0.666169 -0.641373
v -0.183430 0.763645 -0.696978
v -0.188270 0.666169 -0.718750
v -0.262151 -0.000000 0.504603
v -0.244842 0.015254 0.524302
v -0.274391 0.015254 0.512063
v -0.512063 0.015254 0.274391
v -0.524302 0.015254 0.244842
v -0.504603 -0.000000 0.262151
v -0.508000 0.230419 0.252698
v -0.524302 0.211401 0.244842
v -0.512063 0.211401 0.274391
v -0.244842 0.211401 0.524302
v -0.252697 0.230419 0.508001
v -0.274391 0.211401 0.512063
v -0.504603 -0.000000 -0.262151
v -0.524302 0.015254 -0.244842
v -0.512063 0.015254 -0.274391
v -0.244842 0.015254 -0.524302
v -0.262151 -0.000000 -0.504603
v -0.274391 0.015254 -0.512063
v -0.252697 0.230419 -0.508001
v -0.244842 0.211401 -0.524302
v -0.274391 0.211401 -0.512063
v -0.512063 0.211401 -0.274391
v -0.524302 0.211401 -0.244842
v -0.508000 0.230419 -0.252698
v 0.504603 -0.000000 0.262151
v 0.524302 0.015254 0.244842
v 0.512063 0.015254 0.274391
v 0.244842 0.015254 0.524302
v 0.262151 -0.000000 0.504603
v 0.274391 0.015254 0.512063
v 0.252699 0.230419 0.508001
v 0.244842 0.211401 0.524302
v 0.274391 0.211401 0.512063
v 0.512063 0.211401 0.274391
v 0.524302 0.211401 0.244842
v 0.508002 0.230419 0.252698
v 0.262151 -0.000000 -0.504603
v 0.244842 0.015254 -0.524302
v 0.274391 0.015254 -0.512063
v 0.524302 0.015254 -0.244842
v 0.504603 -0.000000 -0.262151
v 0.512063 0.015254 -0.274391
v 0.508002 0.230419 -0.252698
v 0.524302 0.211401 -0.244842
v 0.512063 0.211401 -0.274391
v 0.274391 0.211401 -0.512063
v 0.244842 0.211401 -0.524302
v 0.252699 0.230419 -0.508001
v 0.135890 0.691261 -0.507078
v 0.262502 0.691261 -0.454634
v 0.454653 0.691261 -0.262483
v 0.507097 0.691261 -0.135871
v 0.507097 0.691261 0.135871
v 0.454653 0.691261 0.262483
v 0.262502 0.691261 0.454634
v 0.135890 0.691261 0.507078
v -0.135852 0.691261 0.507078
v -0.262464 0.691261 0.454634
v -0.454615 0.691261 0.262483
v -0.507059 0.691261 0.135871
v -0.507059 0.691261 -0.135871
v -0.454615 0.691261 -0.262483
v -0.262464 0.691261 -0.454634
v -0.135852 0.691261 -0.507078
v 0.331983 0.249836 0.331978
v 0.361486 0.138634 0.361480
v 0.227168 0.249836 0.227163
v 0.197666 0.138634 0.197660
v 0.331983 0.273981 0.263217
v 0.295929 0.273981 0.227163
v 0.305136 0.138634 0.197660
v 0.361486 0.138634 0.254010
v 0.227168 0.273981 0.295924
v 0.263222 0.273981 0.331978
v 0.254016 0.138634 0.361480
v 0.197666 0.138634 0.305130
v 0.181560 0.230804 0.312956
v 0.170399 0.204588 0.332012
v 0.221213 0.245342 0.245256
v 0.232374 0.204588 0.226200
v 0.216773 0.243584 0.303756
v 0.230413 0.258122 0.280469
v 0.246753 0.204588 0.281236
v 0.225435 0.204588 0.317633
v 0.186000 0.258122 0.254456
v 0.172360 0.243584 0.277743
v 0.156020 0.204588 0.276976
v 0.177338 0.204588 0.240579
v -0.273734 0.249836 -0.210150
v -0.294148 0.138634 -0.173762
v -0.201210 0.249836 -0.339426
v -0.180796 0.138634 -0.375815
v -0.207541 0.273981 -0.228765
v -0.182594 0.273981 -0.273233
v -0.151701 0.138634 -0.272358
v -0.190691 0.138634 -0.202857
v -0.267403 0.273981 -0.320811
v -0.292349 0.273981 -0.276343
v -0.323243 0.138634 -0.277219
v -0.284252 0.138634 -0.346720
v -0.365465 0.230098 -0.288273
v -0.393503 0.195697 -0.295602
v -0.265857 0.249176 -0.262233
v -0.237820 0.195697 -0.254903
v -0.341334 0.246868 -0.247058
v -0.307071 0.265946 -0.238101
v -0.302235 0.195697 -0.217187
v -0.355787 0.195697 -0.231186
v -0.289988 0.265946 -0.303447
v -0.324251 0.246868 -0.312404
v -0.329087 0.195697 -0.333318
v -0.275536 0.195697 -0.319319
v 0.229796 0.230098 -0.198121
v 0.250616 0.195697 -0.177963
v 0.155828 0.249176 -0.269736
v 0.135008 0.195697 -0.289894
v 0.229024 0.246868 -0.245874
v 0.203581 0.265946 -0.270508
v 0.209644 0.195697 -0.291100
v 0.249410 0.195697 -0.252598
v 0.156600 0.265946 -0.221983
v 0.182043 0.246868 -0.197349
v 0.175980 0.195697 -0.176757
v 0.136214 0.195697 -0.215259
v -0.396108 0.230098 0.202633
v -0.390355 0.195697 0.231036
v -0.416546 0.249176 0.101726
v -0.422299 0.195697 0.073324
v -0.369713 0.246868 0.162831
v -0.376743 0.265946 0.128121
v -0.360089 0.195697 0.114577
v -0.349101 0.195697 0.168826
v -0.442941 0.265946 0.141529
v -0.435911 0.246868 0.176239
v -0.452565 0.195697 0.189783
v -0.463553 0.195697 0.135533
v -0.379021 0.058083 0.541961
v -0.371831 0.000000 0.583060
v -0.404568 0.058083 0.395949
v -0.411758 0.000000 0.354850
v -0.339507 0.077449 0.485687
v -0.348294 0.077449 0.435463
v -0.323806 0.000000 0.416609
v -0.310072 0.000000 0.495107
v -0.444082 0.077449 0.452222
v -0.435295 0.077449 0.502446
v -0.459783 0.000000 0.521301
v -0.473517 0.000000 0.442802
v -0.523438 0.042817 0.417713
v -0.543754 0.000000 0.426372
v -0.451263 0.054478 0.386948
v -0.430948 0.000000 0.378288
v -0.489673 0.053068 0.431296
v -0.464846 0.064729 0.420713
v -0.452177 0.000000 0.431062
v -0.490980 0.000000 0.447602
v -0.485029 0.064729 0.373365
v -0.509855 0.053068 0.383947
v -0.522524 0.000000 0.373598
v -0.483722 0.000000 0.357059
v -0.265762 0.042817 0.539456
v -0.244373 0.000000 0.544954
v -0.341749 0.054478 0.519922
v -0.363138 0.000000 0.514424
v -0.284279 0.053068 0.508124
v -0.310417 0.064729 0.501405
v -0.314168 0.000000 0.485482
v -0.273315 0.000000 0.495983
v -0.323232 0.064729 0.551255
v -0.297094 0.053068 0.557974
v -0.293344 0.000000 0.573896
v -0.334196 0.000000 0.563395
v 0.624682 0.058083 0.026783
v 0.650656 0.000000 0.059434
v 0.532401 0.058083 -0.089220
v 0.506427 0.000000 -0.121871
v 0.632463 0.077449 -0.041537
v 0.600721 0.077449 -0.081439
v 0.613206 0.000000 -0.109710
v 0.662818 0.000000 -0.047345
v 0.524620 0.077449 -0.020900
v 0.556363 0.077449 0.019001
v 0.543877 0.000000 0.047273
v 0.494265 0.000000 -0.015092
v 0.574656 0.042817 0.193444
v 0.583244 0.000000 0.173098
v 0.544145 0.054478 0.265726
v 0.535557 0.000000 0.286072
v 0.540938 0.053068 0.207146
v 0.530443 0.064729 0.232009
v 0.514142 0.000000 0.233373
v 0.530545 0.000000 0.194513
v 0.577863 0.064729 0.252025
v 0.588358 0.053068 0.227162
v 0.604659 0.000000 0.225797
v 0.588256 0.000000 0.264657
v -0.101725 0.042817 -0.535071
v -0.079704 0.000000 -0.536739
v -0.179959 0.054478 -0.529143
v -0.201980 0.000000 -0.527475
v -0.129331 0.053068 -0.558788
v -0.156242 0.064729 -0.556749
v -0.164911 0.000000 -0.570622
v -0.122851 0.000000 -0.573808
v -0.152353 0.064729 -0.505426
v -0.125442 0.053068 -0.507465
v -0.116773 0.000000 -0.493593
v -0.158833 0.000000 -0.490406
v 0.145613 0.461555 -0.543364
v 0.154992 0.505863 -0.577521
v 0.298805 0.505863 -0.517952
v 0.281285 0.461555 -0.487167
v 0.517971 0.505863 -0.298786
v 0.487186 0.461555 -0.281266
v 0.577540 0.505863 -0.154974
v 0.543383 0.461555 -0.145594
v 0.577540 0.505863 0.154974
v 0.543383 0.461555 0.145594
v 0.517971 0.505863 0.298786
v 0.487186 0.461555 0.281266
v 0.298805 0.505863 0.517952
v 0.281285 0.461555 0.487167
v 0.154992 0.505863 0.577521
v 0.145613 0.461555 0.543364
v -0.154955 0.505863 0.577521
v -0.145575 0.461555 0.543364
v -0.298768 0.505863 0.517952
v -0.281247 0.461555 0.487167
v -0.517933 0.505863 0.298786
v -0.487148 0.461555 0.281266
v -0.577502 0.505863 0.154974
v -0.543345 0.461555 0.145594
v -0.577502 0.505863 -0.154974
v -0.543345 0.461555 -0.145594
v -0.517933 0.505863 -0.298786
v -0.487148 0.461555 -0.281266
v -0.298768 0.505863 -0.517952
v -0.281247 0.461555 -0.487167
v -0.154955 0.505863 -0.577521
v -0.145575 0.461555 -0.543364
v -0.244842 0.117123 0.524302
v -0.244842 0.144848 0.524302
v -0.238963 0.130986 0.511714
v -0.274391 0.144848 0.512063
v -0.274391 0.117123 0.512063
v -0.267803 0.130986 0.499768
v -0.524302 0.144848 0.244842
v -0.524302 0.117123 0.244842
v -0.511714 0.130986 0.238963
v -0.512063 0.117123 0.274391
v -0.512063 0.144848 0.274391
v -0.499768 0.130986 0.267803
v -0.244842 0.144848 -0.524302
v -0.244842 0.117123 -0.524302
v -0.238963 0.130986 -0.511714
v -0.274391 0.117123 -0.512063
v -0.274391 0.144848 -0.512063
v -0.267803 0.130986 -0.499768
v -0.524302 0.117123 -0.244842
v -0.524302 0.144848 -0.244842
v -0.511714 0.130986 -0.238963
v -0.512063 0.144848 -0.274391
v -0.512063 0.117123 -0.274391
v -0.499768 0.130986 -0.267803
v 0.524302 0.144848 -0.244842
v 0.524302 0.117123 -0.244842
v 0.511714 0.130986 -0.238963
v 0.512063 0.117123 -0.274391
v 0.512063 0.144848 -0.274391
v 0.499768 0.130986 -0.267803
v 0.244842 0.117123 -0.524302
v 0.244842 0.144848 -0.524302
v 0.238963 0.130986 -0.511714
v 0.274391 0.144848 -0.512063
v 0.274391 0.117123 -0.512063
v 0.267803 0.130986 -0.499768
v 0.244842 0.144848 0.524302
v 0.244842 0.117123 0.524302
v 0.238963 0.130986 0.511714
v 0.274391 0.117123 0.512063
v 0.274391 0.144848 0.512063
v 0.267803 0.130986 0.499768
v 0.524302 0.117123 0.244842
v 0.524302 0.144848 0.244842
v 0.511714 0.130986 0.238963
v 0.512063 0.144848 0.274391
v 0.512063 0.117123 0.274391
v 0.499768 0.130986 0.267803
v 0.510109 0.764397 -0.097998
v 0.494030 0.764397 -0.179226
v 0.519203 0.738181 -0.141176
v -0.493991 0.764397 -0.179226
v -0.510070 0.764397 -0.097997
v -0.519165 0.738181 -0.141176
v 0.632544 0.805000 -0.210542
v 0.648622 0.805000 -0.129314
v 0.657908 0.779150 -0.174169
v -0.648587 0.805000 -0.129314
v -0.632508 0.805000 -0.210542
v -0.657873 0.779150 -0.174169
v -0.596012 0.805000 0.298650
v -0.550278 0.805000 0.366970
v -0.558489 0.786153 0.323463
v 0.129648 0.805000 0.648604
v 0.210297 0.805000 0.632634
v 0.166219 0.786153 0.623647
v 0.222022 0.763645 0.681009
v 0.141373 0.763645 0.696979
v 0.181330 0.738389 0.686008
v -0.592773 0.763645 0.392885
v -0.638508 0.763645 0.324566
v -0.613270 0.738389 0.356874
v 0.252865 0.298597 -0.104734
v 0.314918 0.230420 -0.140721
v 0.208986 0.230420 -0.148612
v 0.140731 0.230420 -0.314903
v 0.104749 0.298597 -0.252850
v 0.148627 0.230420 -0.208971
v -0.104718 0.298597 -0.252849
v -0.140707 0.230420 -0.314903
v -0.148597 0.230420 -0.208971
v -0.314888 0.230420 -0.140717
v -0.252834 0.298597 -0.104734
v -0.208956 0.230420 -0.148612
v -0.252834 0.298597 0.104734
v -0.314888 0.230420 0.140717
v -0.208956 0.230420 0.148612
v -0.140707 0.230420 0.314903
v -0.104718 0.298597 0.252849
v -0.148597 0.230420 0.208971
v 0.104749 0.298597 0.252849
v 0.140731 0.230420 0.314903
v 0.148627 0.230420 0.208971
v 0.314918 0.230420 0.140721
v 0.252865 0.298597 0.104734
v 0.208986 0.230420 0.148612
vt 0.438688 0.551274
vt 0.408814 0.551274
vt 0.408814 0.551274
vt 0.438688 0.551274
vt 0.452502 0.551274
vt 0.452502 0.551274
vt 0.438688 0.551274
vt 0.394999 0.551274
vt 0.394999 0.551274
vt 0.408814 0.551274
vt 0.408814 0.551274
vt 0.438688 0.551274
vt 0.408117 0.612293
vt 0.408117 0.614706
vt 0.394574 0.614706
vt 0.394574 0.612293
vt 0.409800 0.609585
vt 0.409800 0.599638
vt 0.408117 0.599638
vt 0.408117 0.609585
vt 0.441694 0.616195
vt 0.441694 0.616195
vt 0.452695 0.616195
vt 0.452695 0.616195
vt 0.453623 0.609585
vt 0.453623 0.599638
vt 0.452926 0.599638
vt 0.452926 0.609585
vt 0.405809 0.616195
vt 0.411844 0.616195
vt 0.415283 0.616195
vt 0.415733 0.616195
vt 0.435658 0.616195
vt 0.432219 0.616195
vt 0.431769 0.616195
vt 0.415733 0.616195
vt 0.415283 0.616195
vt 0.411844 0.616195
vt 0.405809 0.616195
vt 0.438158 0.605910
vt 0.435658 0.600570
vt 0.432219 0.600570
vt 0.429719 0.605910
vt 0.437629 0.621863
vt 0.438838 0.627824
vt 0.449880 0.627824
vt 0.447788 0.621863
vt 0.429468 0.582265
vt 0.430470 0.618673
vt 0.436731 0.618673
vt 0.434795 0.582265
vt 0.438158 0.580803
vt 0.445086 0.582265
vt 0.445086 0.582265
vt 0.438158 0.580803
vt 0.418034 0.582265
vt 0.417032 0.618673
vt 0.416568 0.621863
vt 0.415942 0.627824
vt 0.431561 0.627824
vt 0.430935 0.621863
vt 0.446234 0.618673
vt 0.442879 0.582265
vt 0.452896 0.627824
vt 0.450561 0.621863
vt 0.448826 0.618673
vt 0.452896 0.627824
vt 0.450560 0.621863
vt 0.448826 0.618673
vt 0.449880 0.627824
vt 0.447788 0.621863
vt 0.446234 0.618673
vt 0.442879 0.582265
vt 0.438838 0.627824
vt 0.437629 0.621863
vt 0.436731 0.618673
vt 0.434795 0.582265
vt 0.431561 0.627824
vt 0.430935 0.621863
vt 0.430470 0.618673
vt 0.429468 0.582265
vt 0.415942 0.627824
vt 0.416568 0.621863
vt 0.417032 0.618673
vt 0.418034 0.582265
vt 0.408665 0.627824
vt 0.409873 0.621863
vt 0.410771 0.618673
vt 0.412707 0.582265
vt 0.397621 0.627824
vt 0.399714 0.621863
vt 0.401269 0.618673
vt 0.404623 0.582265
vt 0.394607 0.627824
vt 0.396941 0.621863
vt 0.398675 0.618673
vt 0.402417 0.582265
vt 0.394607 0.627824
vt 0.396941 0.621863
vt 0.398675 0.618673
vt 0.402417 0.582265
vt 0.397621 0.627824
vt 0.399714 0.621863
vt 0.401269 0.618673
vt 0.404623 0.582265
vt 0.408665 0.627824
vt 0.409873 0.621863
vt 0.429719 0.580803
vt 0.410771 0.618673
vt 0.412707 0.582265
vt 0.416800 0.620268
vt 0.430703 0.620268
vt 0.429719 0.580803
vt 0.417783 0.580803
vt 0.409344 0.580803
vt 0.409344 0.580803
vt 0.417783 0.580803
vt 0.412926 0.585498
vt 0.432249 0.585498
vt 0.433312 0.590812
vt 0.411864 0.590812
vt 0.414972 0.649678
vt 0.430203 0.649678
vt 0.440972 0.649678
vt 0.435393 0.649423
vt 0.435393 0.649423
vt 0.440972 0.649678
vt 0.445912 0.585498
vt 0.448479 0.590812
vt 0.445912 0.585498
vt 0.448479 0.590812
vt 0.432249 0.585498
vt 0.433312 0.590812
vt 0.430203 0.649678
vt 0.412926 0.585498
vt 0.411864 0.590812
vt 0.414972 0.649678
vt 0.399263 0.585498
vt 0.396698 0.590812
vt 0.404203 0.649678
vt 0.399263 0.585498
vt 0.396698 0.590812
vt 0.404203 0.649678
vt 0.427891 0.649423
vt 0.427891 0.649423
vt 0.417284 0.649423
vt 0.409784 0.649423
vt 0.409784 0.649423
vt 0.417284 0.649423
vt 0.417783 0.612053
vt 0.417783 0.605910
vt 0.429719 0.605910
vt 0.429719 0.612053
vt 0.422588 0.649423
vt 0.429719 0.612053
vt 0.417783 0.605910
vt 0.417783 0.612053
vt 0.409353 0.616195
vt 0.438148 0.616195
vt 0.409344 0.612053
vt 0.409344 0.605910
vt 0.409344 0.605910
vt 0.409344 0.612053
vt 0.431769 0.616195
vt 0.438148 0.616195
vt 0.409353 0.616195
vt 0.394806 0.616195
vt 0.394806 0.616195
vt 0.432219 0.616195
vt 0.435658 0.616195
vt 0.415283 0.600570
vt 0.411844 0.600570
vt 0.432219 0.600570
vt 0.435658 0.600570
vt 0.438158 0.605910
vt 0.393877 0.609585
vt 0.393877 0.599638
vt 0.394574 0.599638
vt 0.394574 0.609585
vt 0.408117 0.599638
vt 0.408117 0.609585
vt 0.411844 0.600570
vt 0.415283 0.600570
vt 0.394607 0.596574
vt 0.397621 0.596574
vt 0.395167 0.598784
vt 0.391709 0.598784
vt 0.408665 0.596574
vt 0.415942 0.596574
vt 0.415371 0.598784
vt 0.407020 0.598784
vt 0.449880 0.596574
vt 0.452896 0.596574
vt 0.455793 0.598784
vt 0.452335 0.598784
vt 0.447961 0.596980
vt 0.448259 0.602342
vt 0.437176 0.602342
vt 0.437238 0.596980
vt 0.431561 0.596574
vt 0.438838 0.596574
vt 0.440482 0.598784
vt 0.432133 0.598784
vt 0.452896 0.596574
vt 0.449880 0.596574
vt 0.452335 0.598784
vt 0.455793 0.598784
vt 0.394287 0.565730
vt 0.394204 0.568393
vt 0.394119 0.571092
vt 0.438838 0.596574
vt 0.431561 0.596574
vt 0.432133 0.598784
vt 0.440482 0.598784
vt 0.397215 0.596980
vt 0.396916 0.602342
vt 0.407999 0.602342
vt 0.407939 0.596980
vt 0.453684 0.645571
vt 0.447291 0.642391
vt 0.447291 0.642391
vt 0.453684 0.645571
vt 0.455916 0.611082
vt 0.452942 0.614321
vt 0.455043 0.612349
vt 0.437238 0.596980
vt 0.437176 0.602342
vt 0.448259 0.602342
vt 0.447961 0.596980
vt 0.415005 0.596980
vt 0.414751 0.602342
vt 0.407999 0.602342
vt 0.407939 0.596980
vt 0.430171 0.596980
vt 0.415005 0.596980
vt 0.414751 0.602342
vt 0.430424 0.602342
vt 0.408665 0.596574
vt 0.397621 0.596574
vt 0.395167 0.598784
vt 0.407020 0.598784
vt 0.394607 0.596574
vt 0.391709 0.598784
vt 0.415942 0.596574
vt 0.415371 0.598784
vt 0.450888 0.596980
vt 0.451056 0.602342
vt 0.430171 0.596980
vt 0.430424 0.602342
vt 0.394287 0.596980
vt 0.394119 0.602342
vt 0.394561 0.645571
vt 0.400954 0.642391
vt 0.402524 0.642391
vt 0.396982 0.645571
vt 0.397215 0.596980
vt 0.396916 0.602342
vt 0.415285 0.673582
vt 0.415827 0.676821
vt 0.431677 0.676821
vt 0.432218 0.673582
vt 0.452482 0.673582
vt 0.450520 0.676821
vt 0.439313 0.676821
vt 0.440509 0.673582
vt 0.455916 0.626707
vt 0.455043 0.627974
vt 0.453684 0.629946
vt 0.433456 0.676821
vt 0.433997 0.673582
vt 0.455916 0.673582
vt 0.453684 0.676821
vt 0.433456 0.614321
vt 0.430231 0.611141
vt 0.431275 0.613437
vt 0.429734 0.629946
vt 0.431275 0.629062
vt 0.430231 0.626766
vt 0.396245 0.629946
vt 0.398523 0.629062
vt 0.402524 0.626766
vt 0.415285 0.673582
vt 0.415827 0.676821
vt 0.408190 0.676821
vt 0.406994 0.673582
vt 0.395021 0.673582
vt 0.396982 0.676821
vt 0.408190 0.676821
vt 0.406994 0.673582
vt 0.398356 0.614321
vt 0.402524 0.611141
vt 0.398523 0.613437
vt 0.432133 0.630034
vt 0.432441 0.634698
vt 0.441061 0.634698
vt 0.440482 0.630034
vt 0.391586 0.611082
vt 0.393819 0.614321
vt 0.392459 0.612349
vt 0.391586 0.626707
vt 0.392459 0.627974
vt 0.394561 0.629946
vt 0.439313 0.645571
vt 0.435814 0.642391
vt 0.444978 0.642391
vt 0.450520 0.645571
vt 0.446549 0.642391
vt 0.452942 0.645571
vt 0.415827 0.645571
vt 0.417272 0.642391
vt 0.430231 0.642391
vt 0.431677 0.645571
vt 0.394287 0.581355
vt 0.395017 0.586717
vt 0.394204 0.584018
vt 0.444978 0.642391
vt 0.450520 0.645571
vt 0.408190 0.645571
vt 0.411688 0.642391
vt 0.398356 0.676821
vt 0.396395 0.673582
vt 0.450888 0.581355
vt 0.451056 0.586717
vt 0.450972 0.584018
vt 0.393819 0.645571
vt 0.400212 0.642391
vt 0.400212 0.642391
vt 0.393819 0.645571
vt 0.433997 0.611082
vt 0.432300 0.608250
vt 0.432441 0.603448
vt 0.394284 0.673582
vt 0.396245 0.676821
vt 0.393819 0.676821
vt 0.391586 0.673582
vt 0.415827 0.645571
vt 0.417272 0.642391
vt 0.411688 0.642391
vt 0.408190 0.645571
vt 0.435814 0.642391
vt 0.439313 0.645571
vt 0.440509 0.673582
vt 0.439313 0.676821
vt 0.450520 0.676821
vt 0.452482 0.673582
vt 0.432133 0.630034
vt 0.432441 0.634698
vt 0.415063 0.634698
vt 0.415371 0.630034
vt 0.440482 0.630034
vt 0.441061 0.634698
vt 0.407020 0.630034
vt 0.406441 0.634698
vt 0.394152 0.634698
vt 0.395167 0.630034
vt 0.391709 0.630034
vt 0.390582 0.634698
vt 0.390582 0.634698
vt 0.391709 0.630034
vt 0.453351 0.634698
vt 0.452335 0.630034
vt 0.395167 0.630034
vt 0.394152 0.634698
vt 0.406441 0.634698
vt 0.407020 0.630034
vt 0.455793 0.630034
vt 0.456921 0.634698
vt 0.456921 0.634698
vt 0.455793 0.630034
vt 0.415063 0.634698
vt 0.415371 0.630034
vt 0.452335 0.630034
vt 0.453351 0.634698
vt 0.432218 0.642332
vt 0.440509 0.642332
vt 0.452482 0.642332
vt 0.455916 0.642332
vt 0.455916 0.642332
vt 0.452482 0.642332
vt 0.440509 0.642332
vt 0.432441 0.619073
vt 0.432300 0.623875
vt 0.430275 0.626707
vt 0.394284 0.642332
vt 0.391586 0.642332
vt 0.415285 0.642332
vt 0.406994 0.642332
vt 0.396395 0.642332
vt 0.391586 0.642332
vt 0.395021 0.642332
vt 0.406994 0.642332
vt 0.415285 0.642332
vt 0.408814 0.582524
vt 0.409800 0.584013
vt 0.408117 0.584013
vt 0.394574 0.584013
vt 0.393877 0.584013
vt 0.394999 0.582524
vt 0.394806 0.600570
vt 0.393877 0.599081
vt 0.394574 0.599081
vt 0.409800 0.599081
vt 0.409353 0.600570
vt 0.408117 0.599081
vt 0.394999 0.582524
vt 0.393877 0.584013
vt 0.394574 0.584013
vt 0.409800 0.584013
vt 0.408814 0.582524
vt 0.408117 0.584013
vt 0.409353 0.600570
vt 0.409800 0.599081
vt 0.408117 0.599081
vt 0.394574 0.599081
vt 0.393877 0.599081
vt 0.394806 0.600570
vt 0.452502 0.582524
vt 0.453623 0.584013
vt 0.452926 0.584013
vt 0.437701 0.584013
vt 0.438688 0.582524
vt 0.439385 0.584013
vt 0.438148 0.600570
vt 0.437701 0.599081
vt 0.439385 0.599081
vt 0.452926 0.599081
vt 0.453623 0.599081
vt 0.452695 0.600570
vt 0.438688 0.582524
vt 0.437701 0.584013
vt 0.439385 0.584013
vt 0.453623 0.584013
vt 0.452502 0.582524
vt 0.452926 0.584013
vt 0.452695 0.600570
vt 0.453623 0.599081
vt 0.452926 0.599081
vt 0.439385 0.599081
vt 0.437701 0.599081
vt 0.438148 0.600570
vt 0.437701 0.599638
vt 0.437701 0.609585
vt 0.409800 0.609585
vt 0.409800 0.599638
vt 0.393877 0.599638
vt 0.393877 0.609585
vt 0.394574 0.609585
vt 0.394574 0.599638
vt 0.437701 0.599638
vt 0.437701 0.609585
vt 0.439385 0.609585
vt 0.439385 0.599638
vt 0.453623 0.599638
vt 0.453623 0.609585
vt 0.452926 0.609585
vt 0.452926 0.599638
vt 0.430275 0.673582
vt 0.429734 0.676821
vt 0.450888 0.596980
vt 0.394287 0.596980
vt 0.404073 0.653516
vt 0.422395 0.659371
vt 0.424846 0.634843
vt 0.396211 0.634843
vt 0.404073 0.659371
vt 0.396211 0.634843
vt 0.431998 0.653516
vt 0.431998 0.659371
vt 0.413682 0.659371
vt 0.439861 0.634843
vt 0.439861 0.634843
vt 0.411231 0.634843
vt 0.404073 0.653516
vt 0.422395 0.659371
vt 0.424846 0.634843
vt 0.396211 0.634843
vt 0.404073 0.659371
vt 0.396211 0.634843
vt 0.431998 0.653516
vt 0.431998 0.659371
vt 0.413682 0.659371
vt 0.439861 0.634843
vt 0.439861 0.634843
vt 0.411231 0.634843
vt 0.404073 0.653516
vt 0.422395 0.659371
vt 0.424846 0.634843
vt 0.396211 0.634843
vt 0.404073 0.659371
vt 0.396211 0.634843
vt 0.431998 0.653516
vt 0.431998 0.659371
vt 0.413682 0.659371
vt 0.439861 0.634843
vt 0.439861 0.634843
vt 0.411231 0.634843
vt 0.404073 0.653516
vt 0.422395 0.659371
vt 0.424846 0.634843
vt 0.396211 0.634843
vt 0.404073 0.659371
vt 0.396211 0.634843
vt 0.431998 0.653516
vt 0.431998 0.659371
vt 0.413682 0.659371
vt 0.439861 0.634843
vt 0.439861 0.634843
vt 0.411231 0.634843
vt 0.404073 0.653516
vt 0.422395 0.659371
vt 0.424846 0.634843
vt 0.396211 0.634843
vt 0.404073 0.659371
vt 0.396211 0.634843
vt 0.431998 0.653516
vt 0.431998 0.659371
vt 0.413682 0.659371
vt 0.439861 0.634843
vt 0.439861 0.634843
vt 0.411231 0.634843
vt 0.404073 0.653516
vt 0.422395 0.659371
vt 0.424846 0.634843
vt 0.396211 0.634843
vt 0.404073 0.659371
vt 0.396211 0.634843
vt 0.431998 0.653516
vt 0.431998 0.659371
vt 0.413682 0.659371
vt 0.439861 0.634843
vt 0.439861 0.634843
vt 0.411231 0.634843
vt 0.404073 0.653516
vt 0.422395 0.659371
vt 0.424846 0.634843
vt 0.396211 0.634843
vt 0.404073 0.659371
vt 0.396211 0.634843
vt 0.431998 0.653516
vt 0.431998 0.659371
vt 0.413682 0.659371
vt 0.439861 0.634843
vt 0.439861 0.634843
vt 0.411231 0.634843
vt 0.404073 0.653516
vt 0.422395 0.659371
vt 0.424846 0.634843
vt 0.396211 0.634843
vt 0.404073 0.659371
vt 0.396211 0.634843
vt 0.431998 0.653516
vt 0.431998 0.659371
vt 0.413682 0.659371
vt 0.439861 0.634843
vt 0.439861 0.634843
vt 0.411231 0.634843
vt 0.404073 0.653516
vt 0.422395 0.659371
vt 0.424846 0.634843
vt 0.396211 0.634843
vt 0.404073 0.659371
vt 0.396211 0.634843
vt 0.431998 0.653516
vt 0.431998 0.659371
vt 0.413682 0.659371
vt 0.439861 0.634843
vt 0.439861 0.634843
vt 0.411231 0.634843
vt 0.404073 0.653516
vt 0.422395 0.659371
vt 0.424846 0.634843
vt 0.396211 0.634843
vt 0.404073 0.659371
vt 0.396211 0.634843
vt 0.431998 0.653516
vt 0.431998 0.659371
vt 0.413682 0.659371
vt 0.439861 0.634843
vt 0.439861 0.634843
vt 0.411231 0.634843
vt 0.404073 0.653516
vt 0.422395 0.659371
vt 0.424846 0.634843
vt 0.396211 0.634843
vt 0.404073 0.659371
vt 0.396211 0.634843
vt 0.431998 0.653516
vt 0.431998 0.659371
vt 0.413682 0.659371
vt 0.439861 0.634843
vt 0.439861 0.634843
vt 0.411231 0.634843
vt 0.404073 0.653516
vt 0.422395 0.659371
vt 0.424846 0.634843
vt 0.396211 0.634843
vt 0.404073 0.659371
vt 0.396211 0.634843
vt 0.431998 0.653516
vt 0.431998 0.659371
vt 0.413682 0.659371
vt 0.439861 0.634843
vt 0.439861 0.634843
vt 0.411231 0.634843
vt 0.437180 0.589018
vt 0.430703 0.589018
vt 0.430935 0.590613
vt 0.437629 0.590613
vt 0.437180 0.620268
vt 0.447011 0.620268
vt 0.449693 0.589018
vt 0.447011 0.589018
vt 0.447788 0.590613
vt 0.450561 0.590613
vt 0.449693 0.620268
vt 0.449693 0.620268
vt 0.447011 0.589018
vt 0.449693 0.589018
vt 0.450560 0.590613
vt 0.447788 0.590613
vt 0.447011 0.620268
vt 0.437180 0.620268
vt 0.430703 0.589018
vt 0.437180 0.589018
vt 0.437629 0.590613
vt 0.430935 0.590613
vt 0.416800 0.589018
vt 0.416568 0.590613
vt 0.410322 0.589018
vt 0.409873 0.590613
vt 0.400492 0.589018
vt 0.399714 0.590613
vt 0.397808 0.589018
vt 0.396941 0.590613
vt 0.397808 0.589018
vt 0.396941 0.590613
vt 0.400492 0.589018
vt 0.399714 0.590613
vt 0.410322 0.589018
vt 0.409873 0.590613
vt 0.416800 0.589018
vt 0.416568 0.590613
vt 0.410322 0.620268
vt 0.400492 0.620268
vt 0.397808 0.620268
vt 0.397808 0.620268
vt 0.400492 0.620268
vt 0.410322 0.620268
vt 0.416800 0.620268
vt 0.430702 0.620268
vt 0.439385 0.599638
vt 0.439385 0.609585
vt 0.439385 0.614706
vt 0.439385 0.612293
vt 0.452926 0.612293
vt 0.452926 0.614706
vt 0.437701 0.614706
vt 0.437701 0.612293
vt 0.452926 0.614706
vt 0.452926 0.612293
vt 0.439385 0.612293
vt 0.439385 0.614706
vt 0.453623 0.614706
vt 0.453623 0.612293
vt 0.408117 0.614706
vt 0.408117 0.612293
vt 0.394574 0.612293
vt 0.394574 0.614706
vt 0.409800 0.614706
vt 0.409800 0.612293
vt 0.409800 0.614706
vt 0.409800 0.612293
vt 0.393877 0.614706
vt 0.393877 0.612293
vt 0.393877 0.614706
vt 0.393877 0.612293
vt 0.453623 0.612292
vt 0.453623 0.614706
vt 0.437701 0.612292
vt 0.437701 0.614706
vt 0.453623 0.596667
vt 0.452926 0.596668
vt 0.452926 0.595314
vt 0.453623 0.595314
vt 0.452926 0.593960
vt 0.453623 0.593960
vt 0.437701 0.593960
vt 0.439385 0.593960
vt 0.439385 0.595314
vt 0.437701 0.595314
vt 0.439385 0.596667
vt 0.437701 0.596668
vt 0.437701 0.596667
vt 0.439385 0.596668
vt 0.439385 0.595314
vt 0.437701 0.595314
vt 0.439385 0.593960
vt 0.437701 0.593960
vt 0.453623 0.593960
vt 0.452926 0.593960
vt 0.452926 0.595314
vt 0.453623 0.595314
vt 0.452926 0.596667
vt 0.453623 0.596668
vt 0.393877 0.596667
vt 0.394574 0.596668
vt 0.394574 0.595314
vt 0.393877 0.595314
vt 0.394574 0.593960
vt 0.393877 0.593960
vt 0.409800 0.593960
vt 0.408117 0.593960
vt 0.408117 0.595314
vt 0.409800 0.595314
vt 0.408117 0.596667
vt 0.409800 0.596668
vt 0.393877 0.593960
vt 0.394574 0.593960
vt 0.394574 0.595314
vt 0.393877 0.595314
vt 0.394574 0.596667
vt 0.393877 0.596668
vt 0.409800 0.596667
vt 0.408117 0.596668
vt 0.408117 0.595314
vt 0.409800 0.595314
vt 0.408117 0.593960
vt 0.409800 0.593960
vt 0.395017 0.602342
vt 0.394119 0.602342
vt 0.402524 0.642391
vt 0.398356 0.645571
vt 0.396245 0.645571
vt 0.394699 0.608250
vt 0.394152 0.603448
vt 0.396395 0.611082
vt 0.394699 0.623875
vt 0.394284 0.626707
vt 0.394152 0.619073
vt 0.393819 0.676821
vt 0.391586 0.673582
vt 0.394561 0.676821
vt 0.447291 0.626766
vt 0.453487 0.629848
vt 0.447291 0.626766
vt 0.447291 0.611141
vt 0.453487 0.614223
vt 0.446549 0.611141
vt 0.400954 0.626766
vt 0.394015 0.629848
vt 0.400212 0.626766
vt 0.400212 0.611141
vt 0.394015 0.614223
vt 0.400212 0.611141
vt 0.429734 0.661196
vt 0.430275 0.657957
vt 0.432190 0.658124
vt 0.431677 0.661196
vt 0.431677 0.645571
vt 0.432190 0.642499
vt 0.433997 0.642332
vt 0.433456 0.645571
vt 0.396245 0.661196
vt 0.394284 0.657957
vt 0.395122 0.658124
vt 0.396982 0.661196
vt 0.396982 0.645571
vt 0.395122 0.642499
vt 0.450888 0.565730
vt 0.450972 0.568393
vt 0.450159 0.571092
vt 0.429734 0.645571
vt 0.430231 0.642391
vt 0.430275 0.642332
vt 0.450159 0.602342
vt 0.451056 0.602342
vt 0.452942 0.676821
vt 0.455916 0.673582
vt 0.453684 0.676821
vt 0.438158 0.616195
vt 0.429719 0.616195
vt 0.417783 0.616195
vt 0.409344 0.616195
vt 0.409344 0.616195
vt 0.417783 0.616195
vt 0.429719 0.616195
vt 0.438158 0.616195
vt 0.438158 0.612053
vt 0.438158 0.612053
vn 0.2065 -0.8853 0.4166
vn -0.2065 -0.8853 0.4166
vn -0.0000 -1.0000 0.0000
vn 0.4166 -0.8853 -0.2065
vn 0.4166 -0.8853 0.2065
vn -0.4166 -0.8853 0.2065
vn -0.4166 -0.8853 -0.2065
vn -0.2065 -0.8853 -0.4166
vn 0.2065 -0.8853 -0.4166
vn -0.5144 -0.3673 0.7749
vn -0.5439 0.3353 0.7693
vn -0.7693 0.3353 0.5439
vn -0.7749 -0.3673 0.5144
vn -0.1886 0.3620 -0.9129
vn -0.1508 -0.3977 -0.9050
vn -0.5338 -0.3356 -0.7762
vn -0.5144 0.3673 -0.7749
vn 0.0000 1.0000 -0.0000
vn 0.9129 0.3620 -0.1886
vn 0.9050 -0.3977 -0.1508
vn 0.7762 -0.3356 -0.5338
vn 0.7749 0.3673 -0.5144
vn 0.8873 -0.0000 -0.4611
vn 0.7071 -0.0000 -0.7071
vn 0.3968 -0.7027 -0.5906
vn 0.5025 -0.4148 -0.7586
vn 0.7586 -0.4148 -0.5025
vn 0.5906 -0.7027 -0.3968
vn 0.0747 -0.9170 -0.3917
vn 0.1240 -0.7862 -0.6054
vn 0.3405 -0.7862 -0.5158
vn 0.2241 -0.9170 -0.3298
vn 0.0773 -0.9965 -0.0320
vn 0.3917 -0.9170 -0.0747
vn 0.3917 -0.9170 0.0747
vn 0.0773 -0.9965 0.0320
vn -0.0747 -0.9170 -0.3917
vn -0.1240 -0.7862 -0.6054
vn -0.1370 -0.7027 -0.6981
vn -0.1811 -0.4148 -0.8917
vn 0.1811 -0.4148 -0.8917
vn 0.1370 -0.7027 -0.6981
vn 0.5158 -0.7862 -0.3405
vn 0.3298 -0.9170 -0.2241
vn 0.8917 -0.4148 -0.1811
vn 0.6981 -0.7027 -0.1370
vn 0.6054 -0.7862 -0.1240
vn 0.8917 -0.4148 0.1811
vn 0.6981 -0.7027 0.1370
vn 0.6054 -0.7862 0.1240
vn 0.7586 -0.4148 0.5025
vn 0.5906 -0.7027 0.3968
vn 0.5158 -0.7862 0.3405
vn 0.3298 -0.9170 0.2241
vn 0.5025 -0.4148 0.7586
vn 0.3968 -0.7027 0.5906
vn 0.3405 -0.7862 0.5158
vn 0.2241 -0.9170 0.3298
vn 0.1811 -0.4148 0.8917
vn 0.1370 -0.7027 0.6981
vn 0.1240 -0.7862 0.6054
vn 0.0747 -0.9170 0.3917
vn -0.1811 -0.4148 0.8917
vn -0.1370 -0.7027 0.6981
vn -0.1240 -0.7862 0.6054
vn -0.0747 -0.9170 0.3917
vn -0.5025 -0.4148 0.7586
vn -0.3968 -0.7027 0.5906
vn -0.3405 -0.7862 0.5158
vn -0.2241 -0.9170 0.3298
vn -0.7586 -0.4148 0.5025
vn -0.5906 -0.7027 0.3968
vn -0.5158 -0.7862 0.3405
vn -0.3298 -0.9170 0.2241
vn -0.8917 -0.4148 0.1811
vn -0.6981 -0.7027 0.1370
vn -0.6054 -0.7862 0.1240
vn -0.3917 -0.9170 0.0747
vn -0.8917 -0.4148 -0.1811
vn -0.6981 -0.7027 -0.1370
vn -0.6054 -0.7862 -0.1240
vn -0.3917 -0.9170 -0.0747
vn -0.7586 -0.4148 -0.5025
vn -0.5906 -0.7027 -0.3968
vn -0.5158 -0.7862 -0.3405
vn -0.3298 -0.9170 -0.2241
vn -0.5025 -0.4148 -0.7586
vn -0.3968 -0.7027 -0.5906
vn 0.0320 -0.9965 -0.0773
vn -0.3405 -0.7862 -0.5158
vn -0.2241 -0.9170 -0.3298
vn 0.1893 -0.0897 -0.9778
vn -0.1893 -0.0897 -0.9778
vn -0.1991 -0.0901 -0.9758
vn 0.1991 -0.0901 -0.9758
vn 0.0320 -0.9965 0.0773
vn -0.0320 -0.9965 0.0773
vn -0.0773 -0.9965 0.0320
vn -0.0773 -0.9965 -0.0320
vn -0.0320 -0.9965 -0.0773
vn 0.2675 0.7151 0.6458
vn -0.2675 0.7151 0.6458
vn -0.3391 0.4635 0.8186
vn 0.3391 0.4635 0.8186
vn 0.1202 0.9494 0.2902
vn -0.1202 0.9494 0.2902
vn -0.2902 0.9494 0.1202
vn -0.0185 0.9998 0.0077
vn -0.0185 0.9998 -0.0077
vn -0.2902 0.9494 -0.1202
vn -0.6458 0.7151 0.2675
vn -0.8186 0.4635 0.3391
vn -0.6458 0.7151 -0.2675
vn -0.8186 0.4635 -0.3391
vn -0.2675 0.7151 -0.6458
vn -0.3391 0.4635 -0.8186
vn -0.1202 0.9494 -0.2902
vn 0.2675 0.7151 -0.6458
vn 0.3391 0.4635 -0.8186
vn 0.1202 0.9494 -0.2902
vn 0.6458 0.7151 -0.2675
vn 0.8186 0.4635 -0.3391
vn 0.2902 0.9494 -0.1202
vn 0.6458 0.7151 0.2675
vn 0.8186 0.4635 0.3391
vn 0.2902 0.9494 0.1202
vn -0.0077 0.9998 0.0185
vn -0.0077 0.9998 -0.0185
vn 0.0077 0.9998 -0.0185
vn 0.0185 0.9998 -0.0077
vn 0.0185 0.9998 0.0077
vn 0.0077 0.9998 0.0185
vn -0.3827 0.0000 0.9239
vn -0.4611 0.0000 0.8873
vn 0.4611 0.0000 0.8873
vn 0.3827 0.0000 0.9239
vn -0.0000 0.0000 -1.0000
vn -0.4611 0.0000 -0.8873
vn -0.3827 0.0000 -0.9239
vn -1.0000 0.0000 0.0000
vn -0.7071 0.0000 -0.7071
vn 0.7071 0.0000 0.7071
vn 0.8873 0.0000 0.4611
vn -0.9129 0.3620 0.1886
vn -0.9050 -0.3977 0.1508
vn -0.7762 -0.3356 0.5338
vn -0.7749 0.3673 0.5144
vn -0.5338 -0.3356 0.7762
vn -0.5144 0.3673 0.7749
vn -0.7071 0.0000 0.7071
vn -0.1509 -0.9881 0.0300
vn -0.1279 -0.9881 0.0855
vn -0.0855 -0.9881 0.1279
vn -0.0300 -0.9881 0.1509
vn 0.1279 -0.9881 0.0855
vn 0.1509 -0.9881 0.0300
vn -0.7903 0.2211 0.5715
vn -0.8339 0.0528 0.5494
vn -0.5494 0.0528 0.8339
vn -0.5715 0.2211 0.7903
vn 0.0300 -0.9881 0.1509
vn 0.0855 -0.9881 0.1279
vn 0.1509 -0.9881 -0.0300
vn 0.1279 -0.9881 -0.0855
vn 0.9260 0.2029 -0.3183
vn 0.0855 -0.9881 -0.1279
vn 0.0300 -0.9881 -0.1509
vn 0.7903 0.2211 -0.5715
vn 0.8339 0.0527 -0.5494
vn 0.5494 0.0527 -0.8339
vn 0.5715 0.2211 -0.7903
vn -0.2813 0.9596 0.0000
vn -0.2699 0.9614 -0.0526
vn -0.2695 0.9615 -0.0544
vn 0.4138 0.8531 0.3177
vn -0.5715 0.2211 -0.7903
vn -0.5494 0.0528 -0.8339
vn -0.8339 0.0528 -0.5494
vn -0.7903 0.2211 -0.5715
vn 0.1547 0.2211 0.9629
vn 0.2012 0.0527 0.9781
vn 0.5494 0.0527 0.8339
vn 0.5715 0.2211 0.7903
vn -0.1547 0.2211 -0.9629
vn 0.1547 0.2211 -0.9629
vn 0.2012 0.0527 -0.9781
vn -0.2012 0.0528 -0.9781
vn -0.0855 -0.9881 -0.1279
vn -0.1279 -0.9881 -0.0855
vn -0.1509 -0.9881 -0.0300
vn -0.0300 -0.9881 -0.1509
vn -0.9629 0.2211 -0.1547
vn -0.9781 0.0528 -0.2012
vn -0.1547 0.2211 0.9629
vn -0.2012 0.0528 0.9781
vn 0.9629 0.2211 -0.1547
vn 0.9781 0.0527 -0.2012
vn 0.2574 0.9604 0.1066
vn 0.2281 0.9614 0.1536
vn 0.2290 0.9615 0.1522
vn 0.7903 0.2211 0.5715
vn 0.8339 0.0527 0.5494
vn -0.1269 0.7689 -0.6266
vn -0.1219 0.7688 -0.6277
vn 0.1219 0.7688 -0.6277
vn 0.1269 0.7689 -0.6266
vn 0.5328 0.7689 0.3533
vn 0.5300 0.7688 0.3577
vn 0.3577 0.7688 0.5300
vn 0.3533 0.7689 0.5328
vn 0.2357 0.8623 -0.4482
vn 0.2463 0.7654 0.5946
vn 0.6266 0.7689 0.1269
vn 0.6277 0.7688 0.1219
vn -0.3757 0.9222 -0.0914
vn 0.3063 0.9197 -0.2458
vn 0.3303 0.9222 0.2011
vn -0.1269 0.7689 0.6266
vn -0.1219 0.7688 0.6277
vn -0.3577 0.7688 0.5300
vn -0.3533 0.7689 0.5328
vn -0.5328 0.7689 -0.3533
vn -0.5300 0.7688 -0.3577
vn -0.3577 0.7688 -0.5300
vn -0.3533 0.7689 -0.5328
vn -0.0428 0.9197 -0.3903
vn 0.1763 -0.3905 -0.9036
vn 0.1962 -0.0849 -0.9769
vn 0.5520 -0.0849 -0.8295
vn 0.5143 -0.3905 -0.7636
vn -0.2357 0.8623 -0.4482
vn -0.4138 0.8531 0.3177
vn -0.1522 0.9615 0.2290
vn -0.1537 0.9614 0.2281
vn -0.2281 0.9614 0.1537
vn -0.2290 0.9615 0.1522
vn -0.2574 0.9604 0.1066
vn 0.0544 0.9615 0.2695
vn 0.0526 0.9614 0.2699
vn -0.0526 0.9614 0.2699
vn -0.0544 0.9615 0.2695
vn 0.7145 0.2579 0.6504
vn -0.2281 0.9614 -0.1537
vn -0.2290 0.9615 -0.1522
vn 0.1522 0.9615 0.2290
vn 0.1536 0.9614 0.2281
vn -0.4595 0.7601 0.4595
vn -0.9260 0.2029 -0.3183
vn 0.2695 0.9615 -0.0544
vn 0.2699 0.9614 -0.0526
vn 0.2813 0.9596 0.0000
vn -0.1357 0.3982 0.9072
vn -0.5946 0.7654 0.2463
vn -0.6277 0.7688 0.1219
vn -0.6266 0.7689 0.1269
vn 0.0544 0.9615 -0.2695
vn 0.0526 0.9614 -0.2699
vn 0.1536 0.9614 -0.2281
vn 0.1522 0.9615 -0.2290
vn -0.1537 0.9614 -0.2281
vn -0.1522 0.9615 -0.2290
vn 0.3533 0.7689 -0.5328
vn 0.3577 0.7688 -0.5300
vn 0.5300 0.7688 -0.3577
vn 0.5328 0.7689 -0.3533
vn 0.1763 -0.3905 0.9036
vn 0.1955 -0.1321 0.9718
vn -0.1962 -0.0849 0.9769
vn -0.1763 -0.3905 0.9036
vn 0.5143 -0.3905 0.7636
vn 0.5520 -0.0849 0.8295
vn -0.5143 -0.3905 0.7636
vn -0.5520 -0.0849 0.8295
vn -0.8254 -0.1321 0.5489
vn -0.7636 -0.3905 0.5143
vn -0.9036 -0.3905 0.1763
vn -0.9769 -0.0849 0.1962
vn -0.9769 -0.0849 -0.1962
vn -0.9036 -0.3905 -0.1763
vn 0.8295 -0.0849 -0.5520
vn 0.7636 -0.3905 -0.5143
vn -0.7636 -0.3905 -0.5143
vn -0.8295 -0.0849 -0.5520
vn -0.5520 -0.0849 -0.8295
vn -0.5143 -0.3905 -0.7636
vn 0.9036 -0.3905 -0.1763
vn 0.9769 -0.0849 -0.1962
vn 0.9769 -0.0849 0.1962
vn 0.9036 -0.3905 0.1763
vn -0.1962 -0.0849 -0.9769
vn -0.1763 -0.3905 -0.9036
vn 0.7636 -0.3905 0.5143
vn 0.8295 -0.0849 0.5520
vn 0.1896 0.2230 -0.9562
vn 0.5421 0.2230 -0.8102
vn 0.8102 0.2230 -0.5421
vn 0.9562 0.2230 -0.1896
vn 0.9562 0.2230 0.1896
vn 0.8102 0.2230 0.5421
vn 0.5421 0.2230 0.8102
vn 0.4698 0.4018 0.7861
vn -0.9013 0.2198 0.3733
vn -0.9562 0.2230 0.1896
vn -0.1896 0.2230 0.9562
vn -0.5421 0.2230 0.8102
vn -0.6901 0.2180 0.6901
vn -0.9562 0.2230 -0.1896
vn -0.8102 0.2230 -0.5421
vn -0.5421 0.2230 -0.8102
vn -0.1896 0.2230 -0.9562
vn -0.1508 -0.3977 0.9050
vn -0.7118 0.6452 0.2775
vn -0.9343 0.3154 0.1663
vn -0.1663 0.3154 0.9343
vn -0.2775 0.6452 0.7119
vn -0.9050 -0.3977 -0.1508
vn -0.7762 -0.3356 -0.5338
vn -0.2775 0.6452 -0.7119
vn -0.1663 0.3154 -0.9343
vn -0.5439 0.3353 -0.7693
vn -0.7693 0.3353 -0.5439
vn -0.9343 0.3154 -0.1663
vn -0.7118 0.6452 -0.2775
vn 0.9050 -0.3977 0.1508
vn 0.7762 -0.3356 0.5338
vn 0.1508 -0.3977 0.9050
vn 0.5338 -0.3356 0.7762
vn 0.2775 0.6452 0.7119
vn 0.1663 0.3153 0.9343
vn 0.5439 0.3353 0.7693
vn 0.7693 0.3353 0.5439
vn 0.9343 0.3153 0.1663
vn 0.7119 0.6451 0.2775
vn 0.1508 -0.3977 -0.9050
vn 0.5338 -0.3356 -0.7762
vn 0.7119 0.6451 -0.2775
vn 0.9343 0.3153 -0.1663
vn 0.7693 0.3353 -0.5439
vn 0.5439 0.3353 -0.7693
vn 0.1663 0.3153 -0.9343
vn 0.2775 0.6452 -0.7119
vn 0.1886 0.3620 0.9129
vn -0.1886 0.3620 0.9129
vn -0.9129 0.3620 -0.1886
vn -0.7749 0.3673 -0.5144
vn 0.1886 0.3620 -0.9129
vn 0.5144 0.3673 -0.7749
vn 0.9129 0.3620 0.1886
vn 0.7749 0.3673 0.5144
vn 0.0000 0.7601 0.6498
vn -0.9556 0.2555 0.1469
vn 0.9556 0.2555 0.1469
vn -0.0322 0.2351 -0.9714
vn -0.9714 0.2351 -0.0322
vn 0.3145 0.8956 0.3145
vn 0.1123 0.9873 0.1123
vn 0.9714 0.2351 0.0322
vn 0.0322 0.2351 0.9714
vn 0.6931 0.1982 -0.6931
vn -0.6931 0.1982 0.6931
vn -0.1123 0.9873 -0.1123
vn -0.3145 0.8956 -0.3145
vn 0.9051 0.3186 -0.2816
vn -0.1971 0.3186 -0.9272
vn -0.2248 0.8956 0.3838
vn -0.2345 0.8858 0.4004
vn 0.5898 0.3765 0.7144
vn 0.1684 0.4392 0.8825
vn 0.5067 0.3974 0.7651
vn -0.8520 0.4392 0.2848
vn -0.9116 0.3765 -0.1649
vn -0.9151 0.3974 -0.0677
vn 0.7902 0.2983 0.5354
vn -0.8535 0.2983 -0.4273
vn 0.2248 0.8956 -0.3838
vn -0.2397 0.8804 0.4092
vn 0.9264 0.2351 -0.2940
vn -0.2320 0.2351 -0.9439
vn -0.2176 0.8956 0.3879
vn -0.0777 0.9873 0.1385
vn 0.2320 0.2351 0.9439
vn -0.9264 0.2351 0.2940
vn 0.8548 0.1982 0.4796
vn -0.8548 0.1982 -0.4796
vn 0.0777 0.9873 -0.1385
vn 0.2176 0.8956 -0.3879
vn 0.5161 0.3186 0.7951
vn 0.8392 0.3186 -0.4408
vn -0.4303 0.8956 -0.1125
vn -0.4490 0.8858 -0.1174
vn -0.5281 0.3765 0.7612
vn -0.8039 0.4392 0.4010
vn -0.5993 0.3974 0.6949
vn -0.5048 0.4392 -0.7431
vn -0.0880 0.3765 -0.9222
vn -0.1826 0.3974 -0.8993
vn -0.3015 0.2983 0.9056
vn 0.1802 0.2983 -0.9373
vn 0.4303 0.8956 0.1125
vn -0.4588 0.8804 -0.1200
vn -0.0589 0.3186 -0.9461
vn -0.9475 0.3186 -0.0284
vn 0.3195 0.8956 0.3094
vn 0.3334 0.8858 0.3228
vn 0.8339 0.3765 -0.4035
vn 0.8972 0.4392 0.0457
vn 0.8634 0.3974 -0.3108
vn 0.0746 0.4392 0.8953
vn -0.3764 0.3765 0.8465
vn -0.2828 0.3974 0.8730
vn 0.7075 0.2983 -0.6407
vn -0.6175 0.2983 0.7279
vn -0.3195 0.8956 -0.3094
vn 0.3407 0.8804 0.3299
vn 0.4869 0.3186 -0.8133
vn -0.7650 0.3186 -0.5597
vn 0.0883 0.8956 0.4359
vn 0.0921 0.8858 0.4548
vn 0.9159 0.3765 0.1394
vn 0.7138 0.4392 0.5455
vn 0.8877 0.3974 0.2325
vn -0.4452 0.4392 0.7803
vn -0.7895 0.3765 0.4848
vn -0.7273 0.3974 0.5596
vn 0.9459 0.2983 -0.1276
vn -0.9210 0.2983 0.2505
vn -0.0883 0.8956 -0.4359
vn 0.0941 0.8804 0.4648
vn 0.4886 0.4044 -0.7731
vn 0.7887 0.3942 -0.4717
vn 0.7603 0.3992 -0.5125
vn -0.9021 0.3942 -0.1759
vn -0.7221 0.4044 -0.5613
vn -0.8891 0.3992 -0.2239
vn 0.0638 0.9290 0.3645
vn 0.0223 0.9916 0.1273
vn 0.9021 0.3942 0.1759
vn 0.7221 0.4044 0.5613
vn 0.8891 0.3992 0.2239
vn -0.4886 0.4044 0.7732
vn -0.7887 0.3942 0.4717
vn -0.7603 0.3992 0.5125
vn -0.0223 0.9916 -0.1273
vn -0.0638 0.9290 -0.3645
vn 0.9070 0.2557 0.3346
vn 0.3867 0.2557 -0.8860
vn -0.3404 0.9290 0.1451
vn -0.3565 0.9219 0.1520
vn 0.0559 0.2876 0.9561
vn -0.3861 0.3130 0.8677
vn -0.0296 0.2972 0.9543
vn -0.8934 0.3130 -0.3223
vn -0.6510 0.2876 -0.7024
vn -0.7090 0.2972 -0.6395
vn 0.3434 0.2387 0.9083
vn -0.4175 0.2387 -0.8768
vn 0.3404 0.9290 -0.1451
vn -0.3649 0.9180 0.1555
vn -0.5159 0.2557 -0.8176
vn -0.8462 0.2557 0.4675
vn 0.3584 0.9290 0.0921
vn 0.3753 0.9219 0.0965
vn 0.5377 0.2876 -0.7926
vn 0.8346 0.3130 -0.4533
vn 0.6045 0.2972 -0.7391
vn 0.5125 0.3130 0.7996
vn 0.0888 0.2876 0.9536
vn 0.1731 0.2972 0.9390
vn 0.2805 0.2387 -0.9297
vn -0.2026 0.2387 0.9497
vn -0.3584 0.9290 -0.0921
vn 0.3842 0.9180 0.0987
vn 0.0592 0.4044 -0.9127
vn 0.4670 0.3942 -0.7916
vn 0.4225 0.3992 -0.8137
vn -0.8763 0.3942 0.2770
vn -0.9026 0.4044 -0.1475
vn -0.8879 0.3992 0.2287
vn 0.2304 0.9290 0.2896
vn 0.0804 0.9916 0.1011
vn 0.8763 0.3942 -0.2770
vn 0.9026 0.4044 0.1475
vn 0.8879 0.3992 -0.2287
vn -0.0592 0.4044 0.9127
vn -0.4670 0.3942 0.7916
vn -0.4225 0.3992 0.8137
vn -0.0804 0.9916 -0.1011
vn -0.2304 0.9290 -0.2896
vn -0.8847 0.2557 0.3898
vn 0.3378 0.2557 0.9058
vn 0.1439 0.9290 -0.3409
vn 0.1507 0.9219 -0.3570
vn -0.7047 0.2876 -0.6486
vn -0.3255 0.3130 -0.8923
vn -0.6420 0.2972 -0.7067
vn 0.8664 0.3130 -0.3892
vn 0.9563 0.2876 0.0526
vn 0.9542 0.2972 -0.0329
vn -0.8782 0.2387 -0.4144
vn 0.9095 0.2387 0.3403
vn -0.1439 0.9290 0.3409
vn 0.1542 0.9180 -0.3654
vn -0.7513 0.2557 -0.6084
vn -0.6510 0.2557 0.7147
vn 0.3690 0.9290 -0.0280
vn 0.3864 0.9219 -0.0293
vn 0.2544 0.2876 -0.9233
vn 0.6446 0.3130 -0.6975
vn 0.3348 0.2972 -0.8942
vn 0.7423 0.3130 0.5924
vn 0.3907 0.2876 0.8745
vn 0.4657 0.2972 0.8335
vn -0.0332 0.2387 -0.9705
vn 0.1134 0.2387 0.9645
vn -0.3690 0.9290 0.0280
vn 0.3955 0.9180 -0.0300
vn 0.2053 -0.9304 -0.3037
vn 0.0696 -0.9304 -0.3599
vn 0.5492 -0.0901 -0.8308
vn 0.8308 -0.0901 -0.5492
vn 0.8253 -0.0897 -0.5576
vn 0.5576 -0.0897 -0.8253
vn 0.3599 -0.9304 -0.0696
vn 0.3037 -0.9304 -0.2053
vn 0.9758 -0.0901 -0.1991
vn 0.9758 -0.0901 0.1991
vn 0.9778 -0.0897 0.1893
vn 0.9778 -0.0897 -0.1893
vn 0.3037 -0.9304 0.2053
vn 0.3599 -0.9304 0.0696
vn 0.8308 -0.0901 0.5492
vn 0.5492 -0.0901 0.8308
vn 0.5576 -0.0897 0.8253
vn 0.8253 -0.0897 0.5576
vn 0.0696 -0.9304 0.3599
vn 0.2053 -0.9304 0.3037
vn -0.0696 -0.9304 0.3599
vn -0.2053 -0.9304 0.3037
vn -0.3037 -0.9304 0.2053
vn -0.3599 -0.9304 0.0696
vn -0.3599 -0.9304 -0.0696
vn -0.3037 -0.9304 -0.2053
vn -0.2053 -0.9304 -0.3037
vn -0.0696 -0.9304 -0.3599
vn -0.5576 -0.0897 -0.8253
vn -0.5492 -0.0901 -0.8308
vn -0.8253 -0.0897 -0.5576
vn -0.8308 -0.0901 -0.5492
vn -0.9778 -0.0897 -0.1893
vn -0.9758 -0.0901 -0.1991
vn -0.9778 -0.0897 0.1893
vn -0.9758 -0.0901 0.1991
vn -0.8253 -0.0897 0.5576
vn -0.8308 -0.0901 0.5492
vn -0.5576 -0.0897 0.8253
vn -0.5492 -0.0901 0.8308
vn -0.1893 -0.0897 0.9778
vn -0.1991 -0.0901 0.9758
vn 0.1893 -0.0897 0.9778
vn 0.1991 -0.0901 0.9758
vn 0.5144 0.3673 0.7749
vn 0.5144 -0.3673 0.7749
vn 0.7749 -0.3673 0.5144
vn 0.1886 -0.3620 0.9129
vn 0.7749 -0.3673 -0.5144
vn 0.5144 -0.3673 -0.7749
vn 0.9129 -0.3620 -0.1886
vn -0.5144 -0.3673 -0.7749
vn -0.7749 -0.3673 -0.5144
vn -0.1886 -0.3620 -0.9129
vn -0.1886 -0.3620 0.9129
vn -0.9129 -0.3620 0.1886
vn -0.9129 -0.3620 -0.1886
vn 0.9129 -0.3620 0.1886
vn 0.1886 -0.3620 -0.9129
vn 0.5839 -0.7073 0.3985
vn 0.7081 -0.6953 0.1232
vn 0.7081 0.6953 0.1232
vn 0.5839 0.7073 0.3985
vn 0.3985 0.7073 0.5839
vn 0.1232 0.6953 0.7081
vn 0.1232 -0.6953 0.7081
vn 0.3985 -0.7073 0.5839
vn 0.3985 -0.7073 -0.5839
vn 0.1232 -0.6953 -0.7081
vn 0.1232 0.6953 -0.7081
vn 0.3985 0.7073 -0.5839
vn 0.5839 0.7073 -0.3985
vn 0.7081 0.6953 -0.1232
vn 0.7081 -0.6953 -0.1232
vn 0.5839 -0.7073 -0.3985
vn -0.5839 -0.7073 -0.3985
vn -0.7081 -0.6953 -0.1232
vn -0.7081 0.6953 -0.1232
vn -0.5839 0.7073 -0.3985
vn -0.3985 0.7073 -0.5839
vn -0.1232 0.6953 -0.7081
vn -0.1232 -0.6953 -0.7081
vn -0.3985 -0.7073 -0.5839
vn -0.5839 0.7073 0.3985
vn -0.7081 0.6953 0.1232
vn -0.7081 -0.6953 0.1232
vn -0.5839 -0.7073 0.3985
vn -0.3985 -0.7073 0.5839
vn -0.1232 -0.6953 0.7081
vn -0.1232 0.6953 0.7081
vn -0.3985 0.7073 0.5839
vn 0.9221 0.0616 0.3820
vn 0.9992 0.0411 0.0000
vn 0.1989 0.9596 -0.1989
vn 0.2574 0.9604 -0.1066
vn -0.8880 0.4017 0.2237
vn -0.5456 0.3982 0.7374
vn -0.6498 0.7601 -0.0000
vn -0.5946 0.7654 -0.2463
vn -0.3502 0.7724 -0.5299
vn -0.0897 0.7865 0.6111
vn 0.0897 0.7865 0.6111
vn 0.3502 0.7724 -0.5299
vn 0.5925 0.6916 0.4130
vn -0.3802 0.6734 0.6341
vn -0.1795 0.6734 0.7172
vn -0.7110 0.6916 -0.1269
vn -0.7145 0.2579 0.6504
vn 0.0000 0.9596 -0.2813
vn -0.1066 0.9604 -0.2574
vn 0.0000 0.2180 0.9760
vn 0.3733 0.2198 0.9013
vn -0.9221 0.0617 0.3820
vn -0.9992 0.0411 -0.0000
vn 0.5946 0.7654 -0.2463
vn 0.6498 0.7601 0.0000
vn 0.0639 0.5107 -0.8574
vn 0.8574 0.5107 -0.0639
vn -0.8574 0.5107 -0.0639
vn -0.0639 0.5107 -0.8574
vn -0.0639 0.5107 0.8574
vn -0.8574 0.5107 0.0639
vn 0.8574 0.5107 0.0639
vn 0.0639 0.5107 0.8574
vn -0.7395 0.6731 0.0000
vn -0.0000 0.6731 0.7395
vn 0.7395 0.6731 0.0000
vn -0.0000 0.6731 -0.7395
vn 0.9239 0.0000 0.3827
vn 0.9239 0.0000 -0.3827
usemtl cleric
s 1
f 194/1/1 166/2/2 93/3/3 92/4/3
f 206/5/4 190/6/5 92/4/3 91/7/3
f 171/8/6 178/9/7 90/10/3 93/3/3
f 182/11/8 202/12/9 91/7/3 90/10/3
f 409/13/10 177/14/11 174/15/12 416/16/13
f 419/17/14 181/18/15 183/19/16 421/20/17
f 479/21/18 499/22/18 201/23/18 208/24/18
f 431/25/19 205/26/20 207/27/21 433/28/22
f 90/10/3 91/7/3 92/4/3 93/3/3
f 202/12/9 206/5/4 91/7/3
f 487/29/18 489/30/18 486/31/18 485/32/18
f 499/22/18 501/33/18 498/34/18 497/35/18
f 493/36/18 495/37/18 492/38/18 491/39/18
f 178/9/7 182/11/8 90/10/3
f 478/40/23 480/41/24 483/42/24 482/43/24
f 190/6/5 194/1/1 92/4/3
f 376/44/25 4/45/26 7/46/27 378/47/28
f 3/48/29 374/49/30 377/50/31 6/51/32
f 50/52/33 12/53/34 15/54/35 51/55/36
f 48/56/37 405/57/38 374/49/30 3/48/29
f 404/58/39 46/59/40 1/60/41 375/61/42
f 6/51/32 377/50/31 379/62/43 9/63/44
f 378/47/28 7/46/27 10/64/45 380/65/46
f 9/63/44 379/62/43 381/66/47 12/53/34
f 380/65/46 10/64/45 13/67/48 382/68/49
f 12/53/34 381/66/47 383/69/50 15/54/35
f 382/68/49 13/67/48 16/70/51 384/71/52
f 15/54/35 383/69/50 385/72/53 18/73/54
f 384/71/52 16/70/51 19/74/55 386/75/56
f 18/73/54 385/72/53 387/76/57 21/77/58
f 386/75/56 19/74/55 22/78/59 388/79/60
f 21/77/58 387/76/57 389/80/61 24/81/62
f 388/79/60 22/78/59 25/82/63 390/83/64
f 24/81/62 389/80/61 391/84/65 27/85/66
f 390/83/64 25/82/63 28/86/67 392/87/68
f 27/85/66 391/84/65 393/88/69 30/89/70
f 392/87/68 28/86/67 31/90/71 394/91/72
f 30/89/70 393/88/69 395/92/73 33/93/74
f 394/91/72 31/90/71 34/94/75 396/95/76
f 33/93/74 395/92/73 397/96/77 36/97/78
f 396/95/76 34/94/75 37/98/79 398/99/80
f 36/97/78 397/96/77 399/100/81 39/101/82
f 398/99/80 37/98/79 40/102/83 400/103/84
f 39/101/82 399/100/81 401/104/85 42/105/86
f 400/103/84 40/102/83 43/106/87 402/107/88
f 49/108/89 6/51/32 9/63/44 50/52/33
f 42/105/86 401/104/85 403/109/90 45/110/91
f 402/107/88 43/106/87 46/59/40 404/58/39
f 45/110/91 403/109/90 405/57/38 48/56/37
f 374/49/92 405/57/93 2/111/94 44/112/95
f 51/55/36 18/73/54 21/77/58 52/113/96
f 9/63/44 12/53/34 50/52/33
f 52/113/96 24/81/62 27/85/66 53/114/97
f 15/54/35 18/73/54 51/55/36
f 53/114/97 30/89/70 33/93/74 54/115/98
f 21/77/58 24/81/62 52/113/96
f 54/115/98 36/97/78 39/101/82 55/116/99
f 27/85/66 30/89/70 53/114/97
f 55/116/99 42/105/86 45/110/91 56/117/100
f 33/93/74 36/97/78 54/115/98
f 56/117/100 48/56/37 3/48/29 49/108/89
f 39/101/82 42/105/86 55/116/99
f 45/110/91 48/56/37 56/117/100
f 3/48/29 6/51/32 49/108/89
f 80/118/101 58/119/102 57/120/103 79/121/104
f 78/122/105 59/123/106 58/119/102 80/118/101
f 62/124/107 82/125/108 83/126/109 65/127/110
f 57/120/103 58/119/102 61/128/111 60/129/112
f 58/119/102 59/123/106 62/124/107 61/128/111
f 60/129/112 61/128/111 64/130/113 63/131/114
f 61/128/111 62/124/107 65/127/110 64/130/113
f 63/131/114 64/130/113 67/132/115 66/133/116
f 64/130/113 65/127/110 68/134/117 67/132/115
f 66/133/116 67/132/115 70/135/118 69/136/119
f 67/132/115 68/134/117 71/137/120 70/135/118
f 69/136/119 70/135/118 74/138/121 73/139/122
f 70/135/118 71/137/120 72/140/123 74/138/121
f 73/139/122 74/138/121 77/141/124 76/142/125
f 74/138/121 72/140/123 75/143/126 77/141/124
f 59/123/106 81/144/127 82/125/108 62/124/107
f 76/142/125 77/141/124 80/118/101 79/121/104
f 77/141/124 75/143/126 78/122/105 80/118/101
f 65/127/110 83/126/109 84/145/128 68/134/117
f 68/134/117 84/145/128 85/146/129 71/137/120
f 71/137/120 85/146/129 86/147/130 72/140/123
f 72/140/123 86/147/130 87/148/131 75/143/126
f 75/143/126 87/148/131 88/149/132 78/122/105
f 78/122/105 88/149/132 81/144/127 59/123/106
f 53/150/133 494/151/134 496/152/135 52/153/136
f 82/125/108 89/154/18 83/126/109
f 81/144/127 89/154/18 82/125/108
f 49/155/137 482/43/137 484/156/138 56/157/139
f 497/35/18 493/36/18 176/158/18 196/159/18
f 83/126/109 89/154/18 84/145/128
f 55/160/140 488/161/140 490/162/140 54/163/140
f 84/145/128 89/154/18 85/146/129
f 85/146/129 89/154/18 86/147/130
f 485/32/18 481/164/18 213/165/18 184/166/18
f 86/147/130 89/154/18 87/148/131
f 87/148/131 89/154/18 88/149/132
f 491/39/18 487/29/18 189/167/18 172/168/18
f 88/149/132 89/154/18 81/144/127
f 481/164/18 483/169/18 480/170/18 479/21/18
f 484/156/138 486/171/141 489/172/141 488/161/141
f 496/152/135 498/173/142 501/174/142 500/175/143
f 413/176/144 170/177/145 169/178/146 415/179/147
f 168/180/148 410/181/149 415/179/147 169/178/146
f 490/162/150 492/182/150 495/183/150 494/151/134
f 34/184/151 31/185/152 104/186/152 105/187/151
f 28/188/153 25/189/154 102/190/154 103/191/153
f 16/192/155 13/193/156 98/194/156 99/195/155
f 216/196/157 112/197/158 110/198/159 215/199/160
f 22/200/161 19/201/162 100/202/162 101/203/161
f 10/204/163 7/205/164 96/206/164 97/207/163
f 226/208/165 459/209/165 458/210/165
f 4/211/166 1/212/167 94/213/167 95/214/166
f 224/215/168 119/216/169 118/217/170 223/218/171
f 461/219/172 454/220/172 113/221/173 131/222/174
f 142/223/175 460/224/175 462/225/175
f 220/226/176 115/227/177 114/228/178 219/229/179
f 229/230/180 123/231/181 122/232/182 228/233/183
f 221/234/184 222/235/185 117/236/186 116/237/187
f 43/238/188 40/239/189 107/240/189 108/241/188
f 19/201/162 16/192/155 99/195/155 100/202/162
f 37/242/190 34/184/151 105/187/151 106/243/190
f 13/193/156 10/204/163 97/207/163 98/194/156
f 31/185/152 28/188/153 103/191/153 104/186/152
f 1/212/167 46/244/191 109/245/191 94/213/167
f 7/205/164 4/211/166 95/214/166 96/206/164
f 25/189/154 22/200/161 101/203/161 102/190/154
f 218/246/192 219/229/179 114/228/178 113/247/193
f 221/234/184 116/237/187 115/227/177 220/226/176
f 229/230/180 214/248/194 111/249/195 123/231/181
f 223/218/171 118/217/170 117/236/186 222/235/185
f 224/215/168 225/250/196 120/251/197 119/216/169
f 214/248/194 215/199/160 110/198/159 111/249/195
f 464/252/198 457/253/198 121/254/199 127/255/200
f 227/256/201 228/233/183 122/232/182 121/257/202
f 46/244/191 43/238/188 108/241/188 109/245/191
f 40/239/189 37/242/190 106/243/190 107/240/189
f 164/258/203 124/259/204 134/260/205 137/261/206
f 146/262/207 132/263/208 130/264/209 148/265/210
f 142/266/211 462/267/211 461/268/211
f 148/265/210 130/264/209 470/269/212 472/270/212
f 144/271/213 131/272/214 132/263/208 146/262/207
f 470/273/215 116/274/215 471/275/215
f 469/276/216 471/277/216 116/278/216
f 466/279/217 468/280/217 119/281/217
f 151/282/218 129/283/219 135/284/220 153/285/221
f 160/286/222 127/287/223 125/288/224 162/289/225
f 467/290/226 119/291/226 468/292/226
f 94/293/227 136/294/228 139/295/229 95/296/230
f 158/297/231 463/298/231 465/299/231
f 162/289/225 125/288/224 124/259/204 164/258/203
f 158/300/232 465/301/232 464/302/232
f 126/303/233 110/304/234 112/305/235 133/306/236
f 133/306/236 112/305/235 455/307/237 460/308/237
f 124/309/238 123/310/239 111/311/240 134/312/241
f 226/313/242 457/314/242 459/315/242
f 131/222/174 113/221/173 114/316/243 132/317/244
f 125/318/245 122/319/246 123/310/239 124/309/238
f 127/255/200 121/254/199 122/319/246 125/318/245
f 153/285/221 135/284/220 467/320/247 475/321/247
f 217/322/248 454/323/248 456/324/248
f 128/325/249 120/326/250 458/327/251 463/328/251
f 472/329/252 474/330/252 150/331/252
f 134/312/241 111/311/240 110/304/234 126/303/233
f 476/332/253 466/333/253 128/334/254 156/335/255
f 129/336/256 117/337/257 118/338/258 135/339/259
f 132/317/244 114/316/243 115/340/260 130/341/261
f 138/342/262 126/343/263 133/344/264 140/345/265
f 101/346/266 150/347/267 152/348/268 102/349/269
f 100/350/270 149/351/271 150/347/267 101/346/266
f 103/352/272 154/353/273 155/354/274 104/355/275
f 105/356/276 157/357/277 159/358/278 106/359/279
f 95/296/230 139/295/229 141/360/280 96/361/281
f 102/349/269 152/348/268 154/353/273 103/352/272
f 107/362/282 161/363/283 163/364/284 108/365/285
f 97/366/286 143/367/287 145/368/288 98/369/289
f 104/355/275 155/354/274 157/357/277 105/356/276
f 108/365/285 163/364/284 165/370/290 109/371/291
f 99/372/292 147/373/293 149/351/271 100/350/270
f 106/359/279 159/358/278 161/363/283 107/362/282
f 137/261/206 134/260/205 126/343/263 138/342/262
f 98/369/289 145/368/288 147/373/293 99/372/292
f 96/361/281 141/360/280 143/367/287 97/366/286
f 139/295/229 136/294/228 137/374/294 138/375/295
f 141/360/280 139/295/229 138/375/295 140/376/296
f 143/367/287 141/360/280 140/376/296 142/377/297
f 145/368/288 143/367/287 142/377/297 144/378/298
f 147/373/293 145/368/288 144/378/298 146/379/299
f 149/351/271 147/373/293 146/379/299 148/380/300
f 150/381/301 474/382/301 473/383/301
f 476/384/302 156/385/303 157/357/277 155/354/274
f 151/386/304 153/387/305 154/353/273 152/348/268
f 155/354/274 154/353/273 153/387/305 475/388/306
f 159/358/278 157/357/277 156/385/303 158/389/307
f 158/389/307 160/390/308 161/363/283 159/358/278
f 163/364/284 161/363/283 160/390/308 162/391/309
f 162/391/309 164/392/310 165/370/290 163/364/284
f 136/294/228 165/370/290 164/392/310 137/374/294
f 109/371/291 165/370/290 136/294/228 94/293/227
f 166/393/2 167/394/311 168/395/148
f 169/396/146 170/397/145 171/398/6
f 172/399/312 173/400/313 174/401/12
f 175/402/314 176/403/315 177/404/11
f 178/405/7 179/406/316 180/407/317
f 181/408/15 182/409/8 183/410/16
f 184/411/318 185/412/319 186/413/320
f 187/414/321 188/415/322 189/416/323
f 190/417/5 191/418/324 192/419/325
f 193/420/326 194/421/1 195/422/327
f 196/423/328 197/424/329 198/425/330
f 199/426/331 200/427/332 201/428/333
f 202/429/9 203/430/334 204/431/335
f 205/432/20 206/433/4 207/434/21
f 208/435/336 209/436/337 210/437/338
f 211/438/339 212/439/340 213/440/341
f 171/398/6 166/393/2 168/395/148 169/396/146
f 193/441/326 443/442/342 406/443/343 167/444/311
f 176/403/315 172/399/312 174/401/12 177/404/11
f 189/416/323 184/411/318 186/413/320 187/414/321
f 182/409/8 178/405/7 180/407/317 183/410/16
f 179/445/316 424/446/344 428/447/345 180/448/317
f 213/440/341 208/435/336 210/437/338 211/438/339
f 206/433/4 202/429/9 204/431/335 207/434/21
f 203/449/334 436/450/346 440/451/347 204/452/335
f 201/428/333 196/423/328 198/425/330 199/426/331
f 194/421/1 190/417/5 192/419/325 195/422/327
f 191/453/324 448/454/348 452/455/349 192/456/325
f 170/397/145 179/406/316 178/405/7 171/398/6
f 181/408/15 203/430/334 202/429/9 182/409/8
f 205/432/20 191/418/324 190/417/5 206/433/4
f 193/420/326 167/394/311 166/393/2 194/421/1
f 172/399/312 189/416/323 188/415/322 173/400/313
f 196/423/328 176/403/315 175/402/314 197/424/329
f 200/427/332 209/436/337 208/435/336 201/428/333
f 212/439/340 185/412/319 184/411/318 213/440/341
f 166/2/2 171/8/6 93/3/3
f 473/457/350 469/458/350 129/283/219 151/282/218
f 215/199/160 57/120/103 60/129/112 216/196/157
f 217/459/351 60/129/112 63/131/114 218/246/192
f 57/120/103 215/199/160 214/248/194
f 219/229/179 63/131/114 66/133/116 220/226/176
f 60/129/112 217/459/351 216/196/157
f 221/234/184 66/133/116 69/136/119 222/235/185
f 63/131/114 219/229/179 218/246/192
f 223/218/171 69/136/119 73/139/122 224/215/168
f 66/133/116 221/234/184 220/226/176
f 225/250/196 73/139/122 76/142/125 226/460/352
f 69/136/119 223/218/171 222/235/185
f 227/256/201 76/142/125 79/121/104 228/233/183
f 73/139/122 225/250/196 224/215/168
f 79/121/104 57/120/103 214/248/194 229/230/180
f 76/142/125 227/256/201 226/460/352
f 79/121/104 229/230/180 228/233/183
f 232/461/353 235/462/353 236/463/353 233/464/353
f 238/465/354 232/461/354 233/464/354 241/466/354
f 230/467/355 234/468/356 239/469/356
f 234/468/357 230/467/357 231/470/357 237/471/357
f 230/467/358 239/469/358 240/472/358 231/470/358
f 234/468/359 237/471/359 236/463/359 235/462/359
f 240/472/360 239/469/360 238/465/360 241/466/360
f 235/462/361 232/461/362 238/465/361
f 234/468/356 235/462/361 238/465/361 239/469/356
f 244/473/363 247/474/363 248/475/363 245/476/363
f 250/477/364 244/473/364 245/476/364 253/478/364
f 242/479/365 246/480/366 251/481/366
f 246/480/367 242/479/368 243/482/368 249/483/369
f 242/479/370 251/481/371 252/484/372 243/482/370
f 246/480/367 249/483/369 248/475/373 247/474/373
f 252/484/372 251/481/371 250/477/374 253/478/374
f 247/474/375 244/473/375 250/477/375
f 246/480/366 247/474/376 250/477/376 251/481/366
f 256/485/377 259/486/377 260/487/377 257/488/377
f 262/489/378 256/485/378 257/488/378 265/490/378
f 254/491/379 258/492/380 263/493/380
f 258/492/381 254/491/381 255/494/381 261/495/381
f 254/491/382 263/493/382 264/496/382 255/494/382
f 258/492/383 261/495/383 260/487/383 259/486/383
f 264/496/384 263/493/384 262/489/384 265/490/384
f 259/486/385 256/485/386 262/489/385
f 258/492/380 259/486/385 262/489/385 263/493/380
f 268/497/387 271/498/387 272/499/387 269/500/387
f 274/501/388 268/497/388 269/500/388 277/502/388
f 266/503/389 270/504/390 275/505/390
f 270/504/391 266/503/392 267/506/392 273/507/393
f 266/503/394 275/505/395 276/508/396 267/506/394
f 270/504/391 273/507/393 272/499/397 271/498/397
f 276/508/396 275/505/395 274/501/398 277/502/398
f 271/498/399 268/497/399 274/501/399
f 270/504/390 271/498/400 274/501/400 275/505/390
f 280/509/401 283/510/401 284/511/401 281/512/401
f 286/513/402 280/509/402 281/512/402 289/514/402
f 278/515/403 282/516/404 287/517/404
f 282/516/405 278/515/406 279/518/406 285/519/407
f 278/515/408 287/517/409 288/520/410 279/518/408
f 282/516/405 285/519/407 284/511/411 283/510/411
f 288/520/410 287/517/409 286/513/412 289/514/412
f 283/510/413 280/509/413 286/513/413
f 282/516/404 283/510/414 286/513/414 287/517/404
f 292/521/415 295/522/415 296/523/415 293/524/415
f 298/525/416 292/521/416 293/524/416 301/526/416
f 290/527/417 294/528/418 299/529/418
f 294/528/419 290/527/420 291/530/420 297/531/421
f 290/527/422 299/529/423 300/532/424 291/530/422
f 294/528/419 297/531/421 296/523/425 295/522/425
f 300/532/424 299/529/423 298/525/426 301/526/426
f 295/522/427 292/521/427 298/525/427
f 294/528/418 295/522/428 298/525/428 299/529/418
f 304/533/429 307/534/430 308/535/431 305/536/429
f 310/537/432 304/533/433 305/536/433 313/538/434
f 302/539/435 306/540/436 311/541/436
f 306/540/437 302/539/438 303/542/438 309/543/439
f 302/539/440 311/541/441 312/544/442 303/542/440
f 306/540/437 309/543/439 308/535/431 307/534/430
f 312/544/442 311/541/441 310/537/432 313/538/434
f 307/534/443 304/533/444 310/537/443
f 306/540/436 307/534/443 310/537/443 311/541/436
f 316/545/445 319/546/445 320/547/445 317/548/445
f 322/549/446 316/545/446 317/548/446 325/550/446
f 314/551/447 318/552/448 323/553/448
f 318/552/449 314/551/450 315/554/450 321/555/451
f 314/551/452 323/553/453 324/556/454 315/554/452
f 318/552/449 321/555/451 320/547/455 319/546/455
f 324/556/454 323/553/453 322/549/456 325/550/456
f 319/546/457 316/545/457 322/549/457
f 318/552/448 319/546/458 322/549/458 323/553/448
f 308/535/3 309/543/3 303/542/3 312/544/3
f 305/536/3 308/535/3 312/544/3 313/538/3
f 321/555/3 315/554/3 324/556/3 325/550/3
f 320/547/3 321/555/3 325/550/3 317/548/3
f 328/557/459 331/558/459 332/559/459 329/560/459
f 334/561/460 328/557/460 329/560/460 337/562/460
f 326/563/461 330/564/462 335/565/462
f 330/564/463 326/563/464 327/566/464 333/567/465
f 326/563/466 335/565/467 336/568/468 327/566/466
f 330/564/463 333/567/465 332/559/469 331/558/469
f 336/568/468 335/565/467 334/561/470 337/562/470
f 331/558/471 328/557/471 334/561/471
f 330/564/462 331/558/472 334/561/472 335/565/462
f 333/567/3 327/566/3 336/568/3 337/562/3
f 332/559/3 333/567/3 337/562/3 329/560/3
f 340/569/473 343/570/474 344/571/475 341/572/473
f 346/573/476 340/569/477 341/572/477 349/574/478
f 338/575/479 342/576/480 347/577/480
f 342/576/481 338/575/482 339/578/482 345/579/483
f 338/575/484 347/577/485 348/580/486 339/578/484
f 342/576/481 345/579/483 344/571/475 343/570/474
f 348/580/486 347/577/485 346/573/476 349/574/478
f 343/570/487 340/569/488 346/573/487
f 342/576/480 343/570/487 346/573/487 347/577/480
f 344/571/3 345/579/3 339/578/3 348/580/3
f 341/572/3 344/571/3 348/580/3 349/574/3
f 352/581/489 355/582/489 356/583/489 353/584/489
f 358/585/490 352/581/490 353/584/490 361/586/490
f 350/587/491 354/588/492 359/589/492
f 354/588/493 350/587/494 351/590/494 357/591/495
f 350/587/496 359/589/497 360/592/498 351/590/496
f 354/588/493 357/591/495 356/583/499 355/582/499
f 360/592/498 359/589/497 358/585/500 361/586/500
f 355/582/501 352/581/501 358/585/501
f 354/588/492 355/582/502 358/585/502 359/589/492
f 357/591/3 351/590/3 360/592/3 361/586/3
f 356/583/3 357/591/3 361/586/3 353/584/3
f 364/593/503 367/594/503 368/595/503 365/596/503
f 370/597/504 364/593/504 365/596/504 373/598/504
f 362/599/505 366/600/506 371/601/506
f 366/600/507 362/599/508 363/602/508 369/603/509
f 362/599/510 371/601/511 372/604/512 363/602/510
f 366/600/507 369/603/509 368/595/513 367/594/513
f 372/604/512 371/601/511 370/597/514 373/598/514
f 367/594/515 364/593/515 370/597/515
f 366/600/506 367/594/516 370/597/516 371/601/506
f 369/603/3 363/602/3 372/604/3 373/598/3
f 368/595/3 369/603/3 373/598/3 365/596/3
f 47/605/517 44/606/518 375/607/42 376/608/25
f 47/609/519 41/610/520 379/62/521 377/50/522
f 38/611/523 41/612/524 378/613/28 380/614/46
f 38/615/525 35/616/526 383/69/527 381/66/528
f 32/617/529 35/618/530 382/619/49 384/620/52
f 32/621/531 29/622/532 387/76/533 385/72/534
f 26/623/535 29/624/536 386/625/56 388/626/60
f 23/627/537 26/623/535 388/626/60 390/628/64
f 20/629/538 23/627/537 390/628/64 392/630/68
f 17/631/539 20/629/538 392/630/68 394/632/72
f 14/633/540 17/631/539 394/632/72 396/634/76
f 11/635/541 14/633/540 396/634/76 398/636/80
f 8/637/542 11/635/541 398/636/80 400/638/84
f 5/639/543 8/637/542 400/638/84 402/640/88
f 2/641/544 5/639/543 402/640/88 404/642/39
f 44/606/518 2/641/544 404/642/39 375/607/42
f 375/61/42 1/60/41 4/45/26 376/44/25
f 405/57/93 403/109/545 5/643/546 2/111/94
f 403/109/545 401/104/547 8/644/548 5/643/546
f 401/104/547 399/100/549 11/645/550 8/644/548
f 399/100/549 397/96/551 14/646/552 11/645/550
f 397/96/551 395/92/553 17/647/554 14/646/552
f 395/92/553 393/88/555 20/648/556 17/647/554
f 393/88/555 391/84/557 23/649/558 20/648/556
f 391/84/557 389/80/559 26/650/560 23/649/558
f 389/80/559 387/76/533 29/622/532 26/650/560
f 384/620/52 386/625/56 29/624/536 32/617/529
f 385/72/534 383/69/527 35/616/526 32/621/531
f 380/614/46 382/619/49 35/618/530 38/611/523
f 381/66/528 379/62/521 41/610/520 38/615/525
f 376/608/25 378/613/28 41/612/524 47/605/517
f 377/50/522 374/49/92 44/112/95 47/609/519
f 443/442/342 193/441/326 195/651/327 445/652/561
f 198/653/330 446/654/562 451/655/563 199/656/331
f 197/657/329 442/658/564 446/654/562 198/653/330
f 205/26/20 431/25/19 448/454/348 191/453/324
f 210/659/338 434/660/565 439/661/566 211/662/339
f 209/663/337 430/664/567 434/660/565 210/659/338
f 181/18/15 419/17/14 436/450/346 203/449/334
f 186/665/320 422/666/568 427/667/569 187/668/321
f 170/177/145 413/176/144 424/446/344 179/445/316
f 185/669/319 418/670/570 422/666/568 186/665/320
f 442/658/564 197/657/329 175/671/314 407/672/571
f 173/673/313 412/674/572 416/16/13 174/15/12
f 412/674/572 173/673/313 188/675/322 425/676/573
f 445/652/561 195/651/327 192/456/325 452/455/349
f 449/677/574 200/678/332 199/656/331 451/655/563
f 433/28/22 207/27/21 204/452/335 440/451/347
f 437/679/575 212/680/340 211/662/339 439/661/566
f 421/20/17 183/19/16 180/448/317 428/447/345
f 425/676/573 188/675/322 187/668/321 427/667/569
f 430/664/567 209/663/337 200/678/332 449/677/574
f 418/670/570 185/669/319 212/680/340 437/679/575
f 167/444/311 406/443/343 410/181/149 168/180/148
f 449/681/574 451/682/563 453/683/576 450/684/577
f 450/684/578 453/683/579 452/685/349 448/686/348
f 443/687/342 445/688/561 447/689/580 444/690/581
f 444/690/582 447/689/583 446/691/562 442/692/564
f 437/693/575 439/694/566 441/695/584 438/696/585
f 438/696/586 441/695/587 440/697/347 436/698/346
f 431/699/19 433/700/22 435/701/588 432/702/589
f 432/702/590 435/701/591 434/703/565 430/704/567
f 425/705/573 427/706/569 429/707/592 426/708/593
f 426/708/594 429/707/595 428/709/345 424/710/344
f 419/711/14 421/712/17 423/713/596 420/714/597
f 420/714/598 423/713/599 422/715/568 418/716/570
f 413/717/144 415/718/147 417/719/600 414/720/601
f 414/720/602 417/719/603 416/721/13 412/722/572
f 407/723/571 409/724/10 411/725/604 408/726/605
f 408/726/606 411/725/607 410/727/149 406/728/343
f 409/724/10 416/721/13 417/719/603 411/725/604
f 411/725/607 417/719/600 415/718/147 410/727/149
f 412/722/572 425/705/573 426/708/593 414/720/602
f 414/720/601 426/708/594 424/710/344 413/717/144
f 445/688/561 452/685/349 453/683/579 447/689/580
f 447/689/583 453/683/576 451/682/563 446/691/562
f 433/700/22 440/697/347 441/695/587 435/701/588
f 435/701/591 441/695/584 439/694/566 434/703/565
f 421/712/17 428/709/345 429/707/595 423/713/596
f 423/713/599 429/707/592 427/706/569 422/715/568
f 430/704/567 449/681/574 450/684/577 432/702/590
f 432/702/589 450/684/578 448/686/348 431/699/19
f 418/716/570 437/693/575 438/696/585 420/714/598
f 420/714/597 438/696/586 436/698/346 419/711/14
f 442/692/564 407/723/571 408/726/605 444/690/582
f 444/690/581 408/726/606 406/728/343 443/687/342
f 407/672/571 175/671/314 177/14/11 409/13/10
f 227/256/201 121/257/202 457/729/608 226/460/352
f 225/250/196 226/460/352 458/730/609 120/251/197
f 135/339/259 118/338/258 119/731/610 467/732/610
f 128/325/249 466/733/611 119/731/611 120/326/250
f 477/734/612 155/735/612 475/736/612
f 477/737/613 476/738/613 155/739/613
f 156/335/255 128/334/254 463/740/614 158/741/614
f 160/286/222 158/741/615 464/742/615 127/287/223
f 454/743/616 461/268/616 462/744/616 456/745/616
f 456/746/617 462/747/617 460/224/617 455/748/617
f 457/749/618 464/302/618 465/750/618 459/751/618
f 459/752/619 465/753/619 463/298/619 458/754/619
f 469/755/620 473/756/620 474/757/620 471/758/620
f 471/759/621 474/760/621 472/761/621 470/762/621
f 466/763/622 476/764/622 477/765/622 468/766/622
f 468/767/623 477/768/623 475/388/623 467/732/623
f 217/769/624 456/770/624 455/771/624
f 129/336/256 469/772/625 116/773/625 117/337/257
f 130/341/261 115/340/260 116/773/626 470/762/626
f 152/348/268 150/347/267 473/774/627 151/386/304
f 148/380/300 472/761/628 150/347/267 149/351/271
f 216/196/157 217/459/351 455/775/629 112/197/158
f 218/246/192 113/247/193 454/776/630 217/459/351
f 140/345/265 133/344/264 460/777/631 142/778/631
f 144/271/213 142/778/632 461/779/632 131/272/214
f 478/780/633 479/21/633 480/170/633
f 481/164/634 482/781/634 483/169/634
f 484/782/635 485/32/635 486/31/635
f 487/29/636 488/783/636 489/30/636
f 490/784/637 491/39/637 492/38/637
f 493/36/638 494/785/638 495/37/638
f 496/786/639 497/35/639 498/34/639
f 499/22/640 500/787/640 501/33/640
f 487/29/641 491/39/641 490/784/641 488/783/641
f 493/36/642 497/35/642 496/786/642 494/785/642
f 499/22/643 479/21/643 478/780/643 500/787/643
f 484/782/644 482/781/644 481/164/644 485/32/644
f 51/788/645 500/175/143 478/40/23 50/789/646
f 176/158/18 493/36/18 491/39/18 172/168/18
f 54/163/150 490/162/150 494/151/134 53/150/133
f 56/157/139 484/156/138 488/161/141 55/160/141
f 189/167/18 487/29/18 485/32/18 184/166/18
f 213/165/18 481/164/18 479/21/18 208/24/18
f 50/789/646 478/40/23 482/43/24 49/155/24
f 201/23/18 499/22/18 497/35/18 196/159/18
f 52/153/136 496/152/135 500/175/143 51/788/645
