# Blender v3.4.1 OBJ File: 'September2025_Cleric_Assets_Export.blend'
# www.blender.org
mtllib Cleric_Font_Water.mtl
o Cleric_Font_Water
v 0.135890 0.691261 -0.507078
v 0.262502 0.691261 -0.454634
v 0.454653 0.691261 -0.262483
v 0.507097 0.691261 -0.135871
v 0.507097 0.691261 0.135871
v 0.454653 0.691261 0.262483
v 0.262502 0.691261 0.454634
v 0.135890 0.691261 0.507078
v -0.135852 0.691261 0.507078
v -0.262464 0.691261 0.454634
v -0.454615 0.691261 0.262483
v -0.507059 0.691261 0.135871
v -0.507059 0.691261 -0.135871
v -0.454615 0.691261 -0.262483
v -0.262464 0.691261 -0.454634
v -0.135852 0.691261 -0.507078
v 0.183725 0.691261 -0.336737
v 0.336755 0.691261 -0.183706
v 0.368028 0.691261 -0.108209
v 0.368028 0.691261 0.108209
v 0.336755 0.691261 0.183706
v 0.183725 0.691261 0.336736
v 0.108227 0.691261 0.368009
v -0.108190 0.691261 0.368009
v -0.183688 0.691261 0.336736
v -0.336718 0.691261 0.183706
v -0.367990 0.691261 0.108208
v -0.367990 0.691261 -0.108208
v -0.336718 0.691261 -0.183706
v -0.183688 0.691261 -0.336736
v -0.108190 0.691261 -0.368008
v 0.108228 0.691261 -0.368009
v 0.080604 0.691261 -0.194550
v 0.194568 0.691261 -0.080585
v 0.194568 0.691261 0.080585
v 0.080604 0.691261 0.194550
v -0.080566 0.691261 0.194550
v -0.194531 0.691261 0.080585
v -0.194531 0.691261 -0.080585
v -0.080566 0.691261 -0.194550
v 0.000019 0.691261 -0.000000
vt 0.698355 0.595099
vt 0.693782 0.621993
vt 0.702666 0.621993
vt 0.709510 0.595099
vt 0.704482 0.621993
vt 0.712555 0.595099
vt 0.704482 0.621993
vt 0.712555 0.595099
vt 0.702666 0.621993
vt 0.709510 0.595099
vt 0.693782 0.621993
vt 0.698355 0.595099
vt 0.689400 0.621993
vt 0.691005 0.595099
vt 0.676835 0.621993
vt 0.675230 0.595099
vt 0.672454 0.621993
vt 0.667880 0.595099
vt 0.663569 0.621993
vt 0.656724 0.595099
vt 0.661754 0.621993
vt 0.653680 0.595099
vt 0.661754 0.621993
vt 0.653680 0.595099
vt 0.663569 0.621993
vt 0.656724 0.595099
vt 0.672454 0.621993
vt 0.667880 0.595099
vt 0.676835 0.621993
vt 0.675230 0.595099
vt 0.689400 0.621993
vt 0.691005 0.595099
vt 0.687795 0.595099
vt 0.694412 0.595099
vt 0.694412 0.595099
vt 0.687795 0.595099
vt 0.678439 0.595099
vt 0.671824 0.595099
vt 0.671824 0.595099
vt 0.678439 0.595099
vt 0.683118 0.621993
vn 0.0000 1.0000 0.0000
usemtl cleric
s 1
f 2/1/1 17/2/1 18/3/1 3/4/1
f 3/4/1 18/3/1 19/5/1 4/6/1
f 4/6/1 19/5/1 20/7/1 5/8/1
f 5/8/1 20/7/1 21/9/1 6/10/1
f 6/10/1 21/9/1 22/11/1 7/12/1
f 7/12/1 22/11/1 23/13/1 8/14/1
f 8/14/1 23/13/1 24/15/1 9/16/1
f 9/16/1 24/15/1 25/17/1 10/18/1
f 10/18/1 25/17/1 26/19/1 11/20/1
f 11/20/1 26/19/1 27/21/1 12/22/1
f 12/22/1 27/21/1 28/23/1 13/24/1
f 13/24/1 28/23/1 29/25/1 14/26/1
f 14/26/1 29/25/1 30/27/1 15/28/1
f 15/28/1 30/27/1 31/29/1 16/30/1
f 16/30/1 31/29/1 32/31/1 1/32/1
f 1/32/1 32/31/1 17/2/1 2/1/1
f 17/2/1 33/33/1 34/34/1 18/3/1
f 18/3/1 34/34/1 19/5/1
f 19/5/1 34/34/1 35/35/1 20/7/1
f 20/7/1 35/35/1 21/9/1
f 21/9/1 35/35/1 36/36/1 22/11/1
f 22/11/1 36/36/1 23/13/1
f 23/13/1 36/36/1 37/37/1 24/15/1
f 24/15/1 37/37/1 25/17/1
f 25/17/1 37/37/1 38/38/1 26/19/1
f 26/19/1 38/38/1 27/21/1
f 27/21/1 38/38/1 39/39/1 28/23/1
f 28/23/1 39/39/1 29/25/1
f 29/25/1 39/39/1 40/40/1 30/27/1
f 30/27/1 40/40/1 31/29/1
f 31/29/1 40/40/1 33/33/1 32/31/1
f 32/31/1 33/33/1 17/2/1
f 33/33/1 41/41/1 34/34/1
f 34/34/1 41/41/1 35/35/1
f 35/35/1 41/41/1 36/36/1
f 36/36/1 41/41/1 37/37/1
f 37/37/1 41/41/1 38/38/1
f 38/38/1 41/41/1 39/39/1
f 39/39/1 41/41/1 40/40/1
f 40/40/1 41/41/1 33/33/1
