# Blender v3.4.1 OBJ File: 'Fantasy Weapons_Export.blend'
# www.blender.org
mtllib arrow_C.mtl
o arrow_C
v -0.000000 0.000000 0.653611
v -0.000000 -0.038555 0.475050
v 0.056988 0.000000 0.476499
v -0.000000 0.038555 0.475050
v -0.056988 0.000000 0.476499
v -0.018567 0.000000 -0.419679
v 0.018567 0.000000 -0.419679
v 0.000001 -0.019472 0.254859
v 0.000000 -0.031910 0.427059
v 0.000000 -0.023342 0.341059
v -0.042925 -0.000000 0.412523
v -0.023468 -0.000000 0.240674
v -0.029440 -0.000000 0.326772
v 0.042925 -0.000000 0.412523
v 0.023469 -0.000000 0.240674
v 0.029441 -0.000000 0.326772
v 0.000000 0.031910 0.427059
v 0.000001 0.019472 0.254859
v 0.000000 0.023342 0.341059
v -0.058941 -0.000000 -0.632820
v 0.000000 0.015405 -0.571592
v 0.058942 -0.000000 -0.632820
v 0.000000 -0.012647 -0.444287
v 0.000000 -0.015406 -0.571592
v 0.000000 -0.014026 -0.482546
v 0.000000 -0.015036 -0.527648
v 0.000000 0.012647 -0.444287
v 0.000000 0.014026 -0.482546
v 0.000000 0.015036 -0.527648
v -0.032190 -0.000000 -0.439898
v -0.058941 -0.000000 -0.540776
v -0.045565 -0.000000 -0.469406
v -0.055357 -0.000000 -0.506330
v 0.058942 -0.000000 -0.540776
v 0.032190 -0.000000 -0.439898
v 0.055358 -0.000000 -0.506330
v 0.045566 -0.000000 -0.469407
vt 0.343331 0.686603
vt 0.351950 0.686822
vt 0.349824 0.677146
vt 0.343331 0.679345
vt 0.343331 0.547559
vt 0.346140 0.551281
vt 0.348200 0.548223
vt 0.296456 0.717853
vt 0.287837 0.718072
vt 0.296456 0.744859
vt 0.343331 0.713609
vt 0.334712 0.686822
vt 0.343331 0.686603
vt 0.293648 0.582531
vt 0.296456 0.578809
vt 0.291588 0.579473
vt 0.296456 0.710595
vt 0.289964 0.708396
vt 0.296456 0.717853
vt 0.305075 0.718072
vt 0.336839 0.677146
vt 0.343331 0.679345
vt 0.296456 0.710595
vt 0.302949 0.708396
vt 0.296456 0.684551
vt 0.296456 0.578809
vt 0.299265 0.582531
vt 0.300006 0.682405
vt 0.339782 0.651155
vt 0.343331 0.653301
vt 0.343331 0.666338
vt 0.338879 0.664177
vt 0.296456 0.684551
vt 0.292907 0.682405
vt 0.292004 0.695427
vt 0.296456 0.697588
vt 0.346881 0.651155
vt 0.343331 0.653301
vt 0.343331 0.666338
vt 0.347784 0.664177
vt 0.300909 0.695427
vt 0.296456 0.697588
vt 0.305371 0.564216
vt 0.296456 0.559555
vt 0.305371 0.550295
vt 0.343331 0.547559
vt 0.340523 0.551281
vt 0.338463 0.548223
vt 0.287542 0.564216
vt 0.296456 0.559555
vt 0.287542 0.550295
vt 0.343331 0.528305
vt 0.334417 0.532966
vt 0.334417 0.519045
vt 0.343331 0.528305
vt 0.352246 0.532966
vt 0.352246 0.519045
vt 0.301325 0.579473
vt 0.296456 0.573023
vt 0.303348 0.575010
vt 0.296456 0.566202
vt 0.304829 0.569426
vt 0.336440 0.543760
vt 0.343331 0.541773
vt 0.334959 0.538176
vt 0.343331 0.534952
vt 0.296456 0.573023
vt 0.289565 0.575010
vt 0.296456 0.566202
vt 0.288084 0.569426
vt 0.350223 0.543760
vt 0.343331 0.541773
vt 0.351704 0.538176
vt 0.343331 0.534952
vn 0.5615 0.8271 0.0248
vn 0.5614 0.8271 0.0270
vn 0.5731 0.8132 -0.1014
vn 0.5701 0.8147 -0.1061
vn 0.3879 0.9169 0.0937
vn 0.5209 0.8504 0.0738
vn 0.3168 0.9388 0.1350
vn -0.5615 0.8271 0.0248
vn -0.5614 0.8271 0.0270
vn -0.5485 0.8173 0.1765
vn 0.5485 0.8173 0.1765
vn -0.5614 -0.8271 0.0270
vn -0.5615 -0.8271 0.0248
vn -0.5485 -0.8173 0.1765
vn -0.5209 0.8504 0.0738
vn -0.3879 0.9169 0.0937
vn -0.3168 0.9388 0.1350
vn -0.5701 0.8147 -0.1061
vn -0.5731 0.8132 -0.1014
vn 0.5615 -0.8271 0.0248
vn 0.5614 -0.8271 0.0270
vn 0.5485 -0.8173 0.1765
vn -0.5731 -0.8132 -0.1014
vn -0.5701 -0.8147 -0.1061
vn 0.5701 -0.8147 -0.1061
vn 0.5731 -0.8132 -0.1014
vn 0.6131 -0.7895 -0.0273
vn 0.3879 -0.9169 0.0937
vn 0.5209 -0.8504 0.0738
vn 0.6111 -0.7914 -0.0184
vn -0.6111 -0.7914 -0.0184
vn -0.6131 -0.7895 -0.0273
vn -0.5953 -0.8006 -0.0686
vn -0.6024 -0.7961 -0.0585
vn -0.6131 0.7895 -0.0273
vn -0.6111 0.7914 -0.0184
vn -0.6024 0.7961 -0.0586
vn -0.5953 0.8006 -0.0686
vn 0.6111 0.7914 -0.0184
vn 0.6131 0.7895 -0.0273
vn 0.5953 0.8006 -0.0686
vn 0.6024 0.7961 -0.0585
vn 0.6024 -0.7961 -0.0585
vn 0.5953 -0.8006 -0.0686
vn 0.2514 -0.9678 0.0102
vn 0.2518 -0.9678 0.0075
vn 0.2529 -0.9675 0.0000
vn -0.3879 -0.9169 0.0937
vn -0.5209 -0.8504 0.0738
vn -0.3168 -0.9388 0.1350
vn -0.2514 0.9678 0.0102
vn -0.2518 0.9678 0.0075
vn -0.2529 0.9675 -0.0000
vn -0.2518 -0.9678 0.0075
vn -0.2514 -0.9678 0.0102
vn -0.2529 -0.9675 0.0000
vn 0.2518 0.9678 0.0075
vn 0.2514 0.9678 0.0102
vn 0.2529 0.9675 -0.0000
vn 0.7204 -0.0000 -0.6935
vn -0.7204 -0.0000 -0.6935
vn 0.3168 -0.9388 0.1350
vn 0.2812 -0.9579 0.0584
vn 0.2843 -0.9568 0.0609
vn 0.2553 -0.9665 0.0265
vn 0.2574 -0.9658 0.0313
vn -0.2843 -0.9568 0.0609
vn -0.2812 -0.9579 0.0584
vn -0.2574 -0.9658 0.0313
vn -0.2553 -0.9665 0.0265
vn -0.2812 0.9579 0.0584
vn -0.2843 0.9568 0.0609
vn -0.2553 0.9665 0.0265
vn -0.2574 0.9658 0.0313
vn 0.2843 0.9568 0.0609
vn 0.2812 0.9579 0.0584
vn 0.2574 0.9658 0.0313
vn 0.2553 0.9665 0.0265
usemtl weapons
s 1
f 4/1/1 3/2/2 14/3/3 17/4/4
f 27/5/5 7/6/6 35/7/7
f 4/8/8 5/9/9 1/10/10
f 3/2/2 4/1/1 1/11/11
f 5/12/12 2/13/13 1/11/14
f 6/14/15 27/15/16 30/16/17
f 5/9/9 4/8/8 17/17/18 11/18/19
f 2/19/20 3/20/21 1/10/22
f 2/13/13 5/12/12 11/21/23 9/22/24
f 9/23/25 14/24/26 3/20/21 2/19/20
f 8/25/27 23/26/28 7/27/29 15/28/30
f 12/29/31 8/30/32 10/31/33 13/32/34
f 13/32/34 10/31/33 9/22/24 11/21/23
f 18/33/35 12/34/36 13/35/37 19/36/38
f 19/36/38 13/35/37 11/18/19 17/17/18
f 15/37/39 18/38/40 19/39/41 16/40/42
f 16/40/42 19/39/41 17/4/4 14/3/3
f 8/25/27 15/28/30 16/41/43 10/42/44
f 10/42/44 16/41/43 14/24/26 9/23/25
f 34/43/45 24/44/46 22/45/47
f 15/37/39 7/6/6 27/5/5 18/38/40
f 23/46/48 6/47/49 30/48/50
f 31/49/51 21/50/52 20/51/53
f 24/52/54 31/53/55 20/54/56
f 21/55/57 34/56/58 22/57/59
f 24/52/60 20/54/60 21/55/60
f 22/57/61 24/52/61 21/55/61
f 7/27/29 23/26/28 35/58/62
f 18/33/35 27/15/16 6/14/15 12/34/36
f 35/58/62 23/26/28 25/59/63 37/60/64
f 37/60/64 25/59/63 26/61/65 36/62/66
f 36/62/66 26/61/65 24/44/46 34/43/45
f 23/46/48 30/48/50 32/63/67 25/64/68
f 25/64/68 32/63/67 33/65/69 26/66/70
f 26/66/70 33/65/69 31/53/55 24/52/54
f 30/16/17 27/15/16 28/67/71 32/68/72
f 32/68/72 28/67/71 29/69/73 33/70/74
f 33/70/74 29/69/73 21/50/52 31/49/51
f 27/5/5 35/7/7 37/71/75 28/72/76
f 28/72/76 37/71/75 36/73/77 29/74/78
f 29/74/78 36/73/77 34/56/58 21/55/57
f 12/29/31 6/47/49 23/46/48 8/30/32
