# Blender v3.4.1 OBJ File: 'October2025_Monstrosity_Assets_Export.blend'
# www.blender.org
mtllib Monstrosity_Pitchfork_Large.mtl
o Monstrosity_Pitchfork_Large
v 0.018938 1.072037 -0.084392
v -0.062806 1.071013 -0.059244
v -0.082885 1.071279 0.024930
v -0.020111 1.071224 0.084278
v 0.041936 1.071837 0.073334
v 0.084524 1.071861 0.018688
v 0.073218 1.071833 -0.042118
v -0.040275 0.368277 -0.019521
v -0.031621 0.785731 -0.060551
v -0.057844 0.792061 -0.033509
v -0.058205 0.792193 0.032770
v -0.032145 0.781676 0.059608
v 0.030672 0.766749 0.060040
v 0.058940 0.764463 0.033550
v 0.057269 0.760034 -0.031985
v 0.030671 0.765294 -0.059269
v -0.054204 1.087615 -0.094331
v -0.000554 1.087595 -0.108737
v -0.094488 1.087641 -0.053995
v -0.108833 1.087637 -0.000319
v -0.094119 1.087668 0.054632
v -0.054847 1.087640 0.093930
v 0.000148 1.087902 0.108839
v 0.054135 1.087545 0.094198
v 0.094028 1.087750 0.054554
v 0.108746 1.087846 -0.000073
v 0.093940 1.087526 -0.054546
v 0.054506 1.087724 -0.094108
v 0.014654 1.318263 -0.068695
v -0.052365 1.318274 -0.047247
v -0.067561 1.318331 0.018104
v -0.021726 1.318275 0.067102
v 0.047039 1.318261 0.052167
v 0.068530 1.318201 -0.018361
v -0.027004 1.445444 -0.026412
v -0.101576 1.384111 -0.088187
v -0.046829 1.426142 -0.070755
v -0.083261 1.386156 0.088433
v -0.027078 1.445495 0.026468
v -0.046303 1.426370 0.070465
v 0.027000 1.445447 -0.026396
v 0.046811 1.426154 -0.070744
v 0.027264 1.445412 0.027060
v 0.103534 1.384725 0.088173
v 0.046896 1.426397 0.070672
v -0.176142 1.445444 -0.026413
v -0.156301 1.426203 -0.070735
v -0.176068 1.445495 0.026468
v -0.156825 1.426462 0.070432
v -0.225822 1.445412 -0.026740
v -0.245385 1.426103 -0.070714
v -0.282643 1.385185 0.088417
v -0.245193 1.426369 0.070534
v 0.316642 1.274930 -0.024973
v -0.318499 1.338273 0.087492
v -0.379301 1.340121 0.026547
v -0.354990 1.296448 0.052390
v -0.359845 1.342664 0.071006
v -0.318425 1.293637 0.068607
v -0.317154 1.274964 -0.025080
v -0.316567 1.293620 -0.068599
v -0.356912 1.298412 -0.052451
v -0.361185 1.336979 -0.067926
v 0.176142 1.445445 -0.026413
v 0.103372 1.383043 -0.088308
v 0.156336 1.426138 -0.070749
v 0.176068 1.445495 0.026468
v 0.156411 1.426471 0.070584
v 0.288783 1.388489 -0.086306
v 0.225817 1.445414 -0.026723
v 0.245386 1.426038 -0.070740
v -0.316159 1.336765 -0.087058
v 0.225971 1.445428 0.027038
v 0.245200 1.426343 0.070548
v -0.316642 1.274930 0.024975
v 0.316468 1.336829 -0.086973
v 0.379977 1.340365 -0.023461
v 0.318432 1.293623 -0.068590
v 0.354972 1.296437 -0.052399
v 0.361061 1.336635 -0.068038
v 0.360316 1.342326 0.070534
v 0.315380 1.350129 0.090803
v 0.317153 1.274964 0.025080
v 0.356886 1.298442 0.052531
v 0.316518 1.293699 0.068686
v 0.065570 2.190563 0.108917
v 0.102375 2.262733 0.141936
v 0.085980 2.208966 0.076987
v -0.300279 2.262250 0.142786
v -0.270427 2.200178 0.084953
v -0.271340 2.185299 0.131907
v -0.312587 2.188479 0.145123
v -0.315539 2.206268 0.074051
v -0.336210 2.190985 0.108972
v 0.089440 2.186812 0.144862
v 0.131959 2.201523 0.129270
v 0.127647 2.198616 0.078589
v 0.268437 2.209078 0.101561
v 0.300286 2.262272 0.142740
v 0.315232 2.208507 0.076190
v 0.286463 2.189169 0.144482
v 0.330905 2.198954 0.130350
v -0.107772 2.035939 0.036233
v -0.049195 1.812278 0.048660
v -0.032945 1.824228 -0.012207
v -0.101348 1.804223 -0.093345
v -0.101573 1.617786 -0.087768
v -0.049976 1.821828 -0.073388
v -0.059822 1.930682 0.064139
v -0.047049 1.968042 0.023549
v -0.154054 1.812349 0.048548
v -0.101657 1.795481 0.066660
v -0.118279 1.386753 0.088994
v -0.170225 1.824075 -0.011987
v -0.153029 1.821717 -0.073553
v -0.368775 1.821553 0.010950
v -0.347229 2.021265 0.085333
v -0.352588 1.818920 0.048879
v -0.302538 2.043267 0.108607
v -0.305460 1.810982 0.067492
v -0.241238 2.065036 0.047522
v -0.231810 1.823984 0.010897
v -0.225951 1.445435 0.027009
v -0.247933 1.809666 0.048719
v -0.253186 2.016082 0.084014
v -0.303537 2.069232 -0.021735
v -0.304298 1.822344 -0.092436
v -0.288348 1.390986 -0.086173
v -0.249237 1.821183 -0.074024
v -0.253417 2.042886 -0.021614
v -0.231781 1.825159 -0.034346
v -0.359059 2.071418 0.050787
v -0.368745 1.829681 -0.033368
v -0.379959 1.340231 -0.023534
v -0.352088 1.834794 -0.072422
v -0.347036 2.048061 -0.019338
v 0.054413 2.043342 -0.021106
v 0.049566 1.825738 -0.072497
v 0.038012 2.044974 0.035525
v 0.032936 1.825837 -0.011784
v 0.101154 2.009260 0.099676
v 0.100194 1.794516 0.066806
v 0.101516 1.584823 0.082255
v 0.048613 1.809573 0.048068
v 0.054400 2.015945 0.083916
v 0.034928 1.913164 0.007405
v 0.148857 2.016056 0.083812
v 0.154091 1.811823 0.048504
v 0.165370 2.044070 0.034514
v 0.170246 1.823576 -0.012003
v 0.099812 2.033872 -0.043273
v 0.099318 1.805656 -0.093495
v 0.100894 1.613142 -0.087839
v 0.153065 1.821142 -0.073615
v 0.148650 2.043409 -0.021160
v 0.051686 1.941853 -0.044716
v 0.256917 2.079752 0.004790
v 0.248395 1.825752 -0.072611
v 0.236701 2.044732 0.035078
v 0.231966 1.827875 -0.034324
v 0.300117 2.005748 0.099125
v 0.301515 1.805099 0.067361
v 0.282537 1.387947 0.088229
v 0.248021 1.809601 0.048804
v 0.258802 2.048303 0.094914
v 0.231837 1.823914 0.011057
v 0.344421 2.047236 0.092499
v 0.352641 1.818906 0.048821
v 0.364323 2.043726 0.036610
v 0.372325 1.833220 -0.014832
v 0.379918 1.342649 0.027229
v 0.299314 2.042759 -0.040204
v 0.301842 1.828426 -0.092294
v 0.352508 1.834693 -0.072022
v 0.341358 2.081026 0.000744
v -0.135991 2.025267 -0.008726
v -0.100216 2.038581 -0.021655
v -0.148931 2.011294 0.030296
v -0.138353 2.004297 0.067253
v -0.105371 2.010033 0.082155
v -0.066226 2.042730 -0.001391
v -0.056582 2.034763 0.040352
v -0.070426 2.021439 0.075275
v -0.046517 0.474517 -0.089059
v -0.080351 0.459426 -0.056494
v -0.072729 0.501847 0.024793
v -0.057794 0.427908 0.055721
v 0.013956 0.406355 0.056686
v 0.035788 0.341716 0.026190
v 0.040090 0.378979 -0.053901
v 0.006366 0.362270 -0.086658
v 0.100553 1.884589 0.080665
v 0.051790 1.920081 0.067377
v 0.151184 1.921115 0.067537
v 0.168575 1.900064 0.004335
v 0.099640 1.910754 -0.070509
v 0.151149 1.939758 -0.045316
v -0.099423 1.966870 -0.045069
v -0.064644 1.947320 -0.028058
v -0.145485 1.919985 0.059568
v -0.103394 1.942849 0.078459
v -0.156226 1.953511 0.017133
v -0.143031 1.943311 -0.035789
v 0.005077 -1.028916 -0.009169
v -0.005848 0.222547 -0.062601
v -0.039590 0.226921 -0.027533
v -0.039580 0.223907 0.055846
v -0.007009 0.212936 0.088474
v 0.071631 0.199760 0.088339
v 0.107549 0.199493 0.055185
v 0.105812 0.198016 -0.027537
v 0.072624 0.203727 -0.061802
v -0.089038 0.087416 -0.045610
v -0.038073 0.078280 -0.099244
v -0.086184 -0.057779 -0.045575
v -0.044482 -0.066521 -0.087580
v -0.094337 -0.336456 -0.050442
v -0.111191 -0.602959 -0.062795
v -0.054644 -0.611581 -0.117070
v -0.052299 -0.344759 -0.093298
v -0.049054 -0.993389 -0.097363
v -0.090415 -0.991375 -0.056348
v -0.090801 -0.986701 0.045827
v -0.049069 -0.991728 0.084772
v 0.051173 -0.990058 0.085740
v 0.093375 -0.985541 0.047179
v 0.092882 -0.996663 -0.053343
v 0.052543 -0.999490 -0.094413
v 0.093653 0.811174 0.036177
v 0.146280 0.773494 -0.053632
v 0.187537 0.715600 -0.012870
v 0.188097 0.766579 0.089302
v 0.146649 0.718186 0.128742
v 0.046317 0.774434 0.130026
v 0.003937 0.715957 0.091377
v 0.004549 0.781285 -0.008767
v 0.044909 0.727741 -0.050044
v -0.024297 0.084836 -0.068977
v -0.044274 -0.630361 -0.085673
v -0.080766 -0.622034 -0.049075
v -0.057915 0.092545 -0.034009
v -0.080570 -0.618283 0.039881
v -0.057146 0.096016 0.049433
v -0.044103 -0.628016 0.074867
v -0.023926 0.086975 0.082298
v 0.042230 -0.641859 0.075761
v 0.055066 0.074147 0.082452
v 0.079960 -0.645414 0.041047
v 0.090546 0.070705 0.049279
v 0.078901 -0.654064 -0.046867
v 0.088344 0.062735 -0.033299
v 0.043078 -0.650391 -0.083334
v 0.054876 0.066469 -0.067635
v -0.110981 -0.599503 0.053531
v -0.093780 -0.332777 0.045145
v -0.085659 -0.054549 0.048809
v -0.087894 0.089859 0.062235
v -0.055210 -0.609741 0.106210
v -0.052005 -0.342643 0.086038
v -0.044458 -0.065250 0.089065
v -0.037518 0.078155 0.112427
v 0.054979 -0.624099 0.106154
v 0.040446 -0.356486 0.087209
v 0.045099 -0.079824 0.089417
v 0.066223 0.062284 0.113314
v 0.110227 -0.627762 0.053020
v 0.084631 -0.360064 0.046508
v 0.088113 -0.083992 0.048902
v 0.120275 0.057412 0.063108
v 0.108919 -0.636180 -0.059852
v 0.083479 -0.368537 -0.048825
v 0.086179 -0.091861 -0.044203
v 0.118881 0.050265 -0.045405
v 0.057636 -0.632185 -0.112847
v 0.041580 -0.364723 -0.091364
v 0.045996 -0.087039 -0.085330
v 0.067280 0.056660 -0.098298
v -0.049035 -0.078515 -0.098579
v -0.053709 -0.331675 -0.104185
v -0.054003 -0.330959 0.097668
v -0.104063 -0.321280 0.048910
v -0.097624 -0.068194 0.051749
v -0.104460 -0.323975 -0.053684
v -0.098289 -0.070517 -0.048416
v -0.049091 -0.078532 0.099804
v 0.044261 -0.343892 0.098498
v 0.047015 -0.092146 0.100727
v 0.096193 -0.347322 0.049580
v 0.098369 -0.096120 0.052557
v 0.095002 -0.354202 -0.052147
v 0.097093 -0.102496 -0.047663
v 0.046360 -0.349991 -0.101682
v 0.048685 -0.097329 -0.096915
v -0.055968 0.582830 -0.101874
v -0.106568 0.589401 -0.046628
v -0.103185 0.584752 0.057424
v -0.052919 0.570203 0.112917
v 0.135296 0.544501 0.129095
v 0.188750 0.542182 0.075920
v 0.196352 0.541600 -0.024645
v 0.146428 0.549961 -0.081375
v -0.042758 0.578672 -0.077541
v -0.083299 0.584910 -0.035186
v -0.079851 0.580618 0.045700
v -0.039379 0.566846 0.088846
v 0.122177 0.541313 0.105094
v 0.165166 0.539160 0.064356
v 0.173011 0.538492 -0.013210
v 0.133118 0.546404 -0.057226
v -0.049263 0.619345 -0.100238
v -0.099864 0.625916 -0.044992
v -0.096480 0.621268 0.059061
v -0.046215 0.606718 0.114554
v 0.142001 0.581016 0.130732
v 0.195455 0.578697 0.077557
v 0.203057 0.578115 -0.023009
v 0.153133 0.586476 -0.079739
v -0.036053 0.622551 -0.075904
v -0.076595 0.628788 -0.033549
v -0.073146 0.624497 0.047337
v -0.032674 0.610724 0.090483
v 0.128882 0.585191 0.106731
v 0.171870 0.583038 0.065993
v 0.179716 0.582370 -0.011573
v 0.139823 0.590282 -0.055589
v 0.044034 0.566526 -0.106902
v 0.043968 0.562648 -0.080659
v 0.050738 0.603041 -0.105265
v 0.050673 0.606527 -0.079022
v 0.043613 0.556306 0.137562
v 0.043920 0.553194 0.111626
v 0.050317 0.592821 0.139199
v 0.050625 0.597073 0.113263
v -0.044217 0.534429 -0.095778
v -0.091742 0.514843 -0.043390
v -0.087670 0.512040 0.055281
v -0.038756 0.523656 0.107903
v 0.138289 0.595275 0.123244
v 0.187513 0.620481 0.072819
v 0.194567 0.623819 -0.022544
v 0.147278 0.606331 -0.076339
v -0.031379 0.527857 -0.072703
v -0.069442 0.508914 -0.032539
v -0.065539 0.506851 0.044163
v -0.026209 0.518387 0.085077
v 0.125586 0.593212 0.100484
v 0.165157 0.617657 0.061854
v 0.172427 0.621850 -0.011700
v 0.134661 0.604944 -0.053439
v -0.045859 0.573557 -0.094226
v -0.093384 0.553972 -0.041837
v -0.089312 0.551168 0.056833
v -0.040398 0.562784 0.109455
v 0.136647 0.634403 0.124797
v 0.185871 0.659610 0.074372
v 0.192924 0.662947 -0.020992
v 0.145636 0.645460 -0.074787
v -0.033021 0.574875 -0.071151
v -0.071084 0.555933 -0.030987
v -0.067181 0.553869 0.045715
v -0.027851 0.565406 0.086629
v 0.123944 0.640231 0.102036
v 0.163515 0.664676 0.063406
v 0.170785 0.668868 -0.010148
v 0.133019 0.651963 -0.051887
v 0.050412 0.569893 -0.100545
v 0.050516 0.565760 -0.075659
v 0.048770 0.609021 -0.098993
v 0.048874 0.612778 -0.074107
v 0.052199 0.559690 0.131273
v 0.052143 0.556491 0.106679
v 0.050557 0.598818 0.132825
v 0.050501 0.603510 0.108231
v 0.149382 0.626216 -0.080540
v 0.199208 0.643687 -0.023638
v -0.047545 0.554094 -0.100211
v -0.097994 0.534258 -0.044591
v -0.093812 0.531292 0.058300
v -0.042459 0.542901 0.113681
v 0.139993 0.614739 0.129221
v 0.191959 0.640172 0.075978
v 0.050062 0.589705 -0.105527
v 0.051015 0.579010 0.137815
v 0.152748 0.567896 -0.085509
v 0.205105 0.558949 -0.025682
v -0.054988 0.601758 -0.106286
v -0.108538 0.608725 -0.047803
v -0.105097 0.603877 0.060471
v -0.052493 0.588774 0.118713
v 0.141038 0.562086 0.135136
v 0.197257 0.559386 0.079137
v 0.047971 0.584934 -0.111834
v 0.046487 0.574393 0.144140
v 0.065899 0.630899 0.160125
v 0.056177 0.625484 0.189912
v 0.068408 0.606541 0.167492
v 0.043015 0.604634 0.169834
v 0.040506 0.628992 0.162467
v 0.095290 0.611857 0.186380
v 0.092189 0.641959 0.177276
v 0.075293 0.588905 0.194864
v 0.043912 0.586548 0.197758
v 0.019531 0.606167 0.193366
v 0.016430 0.636270 0.184262
v 0.036427 0.659222 0.175778
v 0.067808 0.661579 0.172885
v 0.091045 0.636826 0.160691
v 0.094146 0.606723 0.169795
v 0.074149 0.583771 0.178279
v 0.042768 0.581414 0.181172
v 0.018387 0.601033 0.176781
v 0.015286 0.631136 0.167677
v 0.035283 0.654088 0.159193
v 0.066664 0.656445 0.156299
v 0.057248 0.592004 0.101859
v 0.044081 0.591015 0.103074
v 0.042780 0.603646 0.099254
v 0.055947 0.604635 0.098040
v -0.065315 0.598097 -0.142256
v -0.068273 0.588178 -0.172323
v -0.070418 0.573131 -0.144392
v -0.048065 0.569580 -0.156294
v -0.042962 0.594547 -0.154158
v -0.102638 0.577248 -0.151645
v -0.096332 0.608102 -0.149005
v -0.087564 0.552329 -0.163911
v -0.059940 0.547942 -0.178620
v -0.035948 0.566656 -0.187153
v -0.029642 0.597510 -0.184513
v -0.044716 0.622429 -0.172247
v -0.072340 0.626816 -0.157539
v -0.088627 0.605215 -0.133673
v -0.094933 0.574362 -0.136313
v -0.079859 0.549443 -0.148580
v -0.052235 0.545056 -0.163288
v -0.028243 0.563770 -0.171822
v -0.021937 0.594623 -0.169182
v -0.037011 0.619542 -0.156915
v -0.064635 0.623930 -0.142207
v -0.033881 0.567075 -0.087192
v -0.022291 0.565234 -0.093363
v -0.019645 0.578179 -0.092256
v -0.031235 0.580020 -0.086084
v 0.093684 0.550156 -0.117375
v 0.105505 0.531479 -0.140235
v 0.088293 0.525360 -0.114207
v 0.113209 0.520291 -0.111484
v 0.118600 0.545087 -0.114652
v 0.064627 0.524409 -0.137589
v 0.071289 0.555051 -0.141504
v 0.081689 0.498312 -0.132441
v 0.112480 0.492048 -0.129075
v 0.138963 0.509286 -0.129463
v 0.145625 0.539928 -0.133378
v 0.128563 0.566025 -0.138526
v 0.097772 0.572289 -0.141892
v 0.069919 0.557542 -0.124338
v 0.063257 0.526900 -0.120423
v 0.080319 0.500803 -0.115275
v 0.111110 0.494539 -0.111909
v 0.137594 0.511776 -0.112298
v 0.144256 0.542419 -0.116212
v 0.127194 0.568516 -0.121361
v 0.096403 0.574780 -0.124726
v 0.090270 0.539784 -0.047638
v 0.103189 0.537156 -0.046226
v 0.105984 0.550013 -0.047868
v 0.093065 0.552641 -0.049280
v 0.012943 1.193301 0.135728
v -0.000721 1.217111 0.164522
v -0.018831 1.192230 0.139310
v -0.020838 1.222978 0.130706
v 0.010935 1.224049 0.127123
v -0.017953 1.168928 0.173807
v 0.021312 1.170253 0.169380
v -0.047472 1.194861 0.169418
v -0.049953 1.232859 0.158785
v -0.023942 1.260665 0.148135
v 0.015323 1.261989 0.143708
v 0.044842 1.236057 0.148096
v 0.047323 1.198058 0.158730
v 0.019166 1.164285 0.148556
v -0.020100 1.162961 0.152983
v -0.049619 1.188893 0.148594
v -0.052099 1.226892 0.137961
v -0.026089 1.254697 0.127311
v 0.013176 1.256022 0.122884
v 0.042695 1.230089 0.127272
v 0.045176 1.192091 0.137906
v -0.020003 1.176710 0.055490
v -0.021044 1.192653 0.051029
v -0.004569 1.193209 0.049171
v -0.003528 1.177266 0.053633
vt 0.808617 0.656481
vt 0.808394 0.687454
vt 0.813930 0.687366
vt 0.815846 0.656382
vt 0.433604 0.544876
vt 0.432432 0.546270
vt 0.435765 0.546270
vt 0.805821 0.656996
vt 0.805342 0.623202
vt 0.805347 0.622588
vt 0.805827 0.656382
vt 0.818626 0.656990
vt 0.818147 0.623196
vt 0.815367 0.622588
vt 0.804577 0.687427
vt 0.817860 0.687402
vt 0.815840 0.656934
vt 0.818601 0.656990
vt 0.805615 0.687454
vt 0.808491 0.656305
vt 0.808012 0.622511
vt 0.815360 0.623140
vt 0.808139 0.622687
vt 0.425765 0.569568
vt 0.426658 0.569568
vt 0.428333 0.591024
vt 0.437460 0.544912
vt 0.438206 0.546270
vt 0.439099 0.546270
vt 0.436250 0.544912
vt 0.438206 0.546270
vt 0.435765 0.546270
vt 0.439099 0.569568
vt 0.438206 0.569568
vt 0.436460 0.591024
vt 0.429099 0.569568
vt 0.426658 0.569568
vt 0.429629 0.591024
vt 0.435765 0.569568
vt 0.432432 0.569568
vt 0.433737 0.591024
vt 0.454051 0.594048
vt 0.438168 0.598485
vt 0.440482 0.598575
vt 0.451774 0.598372
vt 0.453898 0.593911
vt 0.425360 0.598250
vt 0.412607 0.598737
vt 0.413044 0.598608
vt 0.411011 0.595174
vt 0.453914 0.565457
vt 0.454070 0.566956
vt 0.456177 0.567189
vt 0.457599 0.594258
vt 0.456549 0.593900
vt 0.456299 0.590663
vt 0.410938 0.565457
vt 0.410782 0.566956
vt 0.408675 0.567189
vt 0.407255 0.594484
vt 0.408351 0.594408
vt 0.408554 0.590663
vt 0.552124 0.607284
vt 0.551023 0.607291
vt 0.550427 0.613578
vt 0.551195 0.608601
vt 0.578683 0.639580
vt 0.577967 0.644783
vt 0.576566 0.639146
vt 0.578503 0.638699
vt 0.576643 0.638266
vt 0.579608 0.638573
vt 0.551023 0.638541
vt 0.549121 0.639743
vt 0.550427 0.644828
vt 0.549121 0.608493
vt 0.549249 0.607720
vt 0.551195 0.639851
vt 0.549249 0.638970
vt 0.538331 0.608845
vt 0.537491 0.607520
vt 0.536886 0.613533
vt 0.536188 0.639798
vt 0.538331 0.640095
vt 0.536886 0.644783
vt 0.537491 0.638770
vt 0.535514 0.639488
vt 0.410782 0.590254
vt 0.453943 0.590259
vt 0.576566 0.607896
vt 0.577967 0.613533
vt 0.576643 0.607016
vt 0.550587 0.611062
vt 0.553121 0.611062
vt 0.547865 0.611062
vt 0.546951 0.611062
vt 0.539270 0.596125
vt 0.540398 0.593023
vt 0.414873 0.640407
vt 0.415376 0.602082
vt 0.534474 0.624786
vt 0.533343 0.624175
vt 0.410932 0.593914
vt 0.411776 0.642090
vt 0.408318 0.593873
vt 0.580561 0.622209
vt 0.578108 0.624534
vt 0.449476 0.602082
vt 0.449979 0.640407
vt 0.452219 0.598979
vt 0.450033 0.641404
vt 0.449476 0.602082
vt 0.453214 0.641499
vt 0.442344 0.640633
vt 0.439374 0.638978
vt 0.436404 0.640633
vt 0.437112 0.666021
vt 0.439455 0.670144
vt 0.448438 0.572332
vt 0.449113 0.610530
vt 0.449979 0.609157
vt 0.457558 0.594248
vt 0.456822 0.641540
vt 0.448436 0.572335
vt 0.449109 0.610607
vt 0.449763 0.657505
vt 0.425563 0.638914
vt 0.425483 0.618124
vt 0.422508 0.640633
vt 0.428465 0.609157
vt 0.429332 0.610530
vt 0.430006 0.572329
vt 0.425613 0.639911
vt 0.425522 0.620986
vt 0.428437 0.641853
vt 0.428465 0.640407
vt 0.425543 0.657833
vt 0.428265 0.663923
vt 0.428267 0.665757
vt 0.425601 0.660797
vt 0.408921 0.641340
vt 0.411808 0.639987
vt 0.414873 0.609157
vt 0.415739 0.610530
vt 0.416413 0.572331
vt 0.414844 0.641853
vt 0.415739 0.610862
vt 0.819656 0.687402
vt 0.810496 0.687474
vt 0.818121 0.623196
vt 0.426658 0.546270
vt 0.425765 0.546270
vt 0.427305 0.544935
vt 0.428004 0.544962
vt 0.429099 0.546270
vt 0.429876 0.544962
vt 0.429099 0.546270
vt 0.431291 0.544981
vt 0.432432 0.546270
vt 0.426658 0.546270
vt 0.431565 0.591024
vt 0.435564 0.591024
vt 0.429099 0.569568
vt 0.432432 0.569568
vt 0.435765 0.569568
vt 0.438206 0.569568
vt 0.416416 0.572335
vt 0.420948 0.572335
vt 0.420948 0.572335
vt 0.439374 0.598269
vt 0.425343 0.598302
vt 0.574763 0.595005
vt 0.453914 0.573130
vt 0.410938 0.573130
vt 0.410909 0.573131
vt 0.443905 0.572335
vt 0.443905 0.572335
vt 0.453943 0.573131
vt 0.456177 0.590487
vt 0.454070 0.590254
vt 0.456469 0.594425
vt 0.453943 0.565458
vt 0.456299 0.567365
vt 0.453943 0.566961
vt 0.408675 0.590487
vt 0.410909 0.590259
vt 0.407252 0.594277
vt 0.435884 0.570832
vt 0.428968 0.570832
vt 0.434843 0.572335
vt 0.410909 0.565458
vt 0.408554 0.567365
vt 0.410909 0.566961
vt 0.428968 0.602082
vt 0.435884 0.602082
vt 0.428968 0.570832
vt 0.435884 0.570832
vt 0.434843 0.572335
vt 0.430009 0.572335
vt 0.435884 0.602082
vt 0.428968 0.602082
vt 0.442864 0.602082
vt 0.449476 0.570832
vt 0.442864 0.570832
vt 0.442864 0.602082
vt 0.442864 0.570832
vt 0.449476 0.570832
vt 0.421988 0.602082
vt 0.415376 0.602082
vt 0.415376 0.570832
vt 0.421988 0.570832
vt 0.421988 0.602082
vt 0.421988 0.570832
vt 0.415376 0.570832
vt 0.553990 0.611062
vt 0.550515 0.611062
vt 0.422544 0.641404
vt 0.422544 0.610154
vt 0.421621 0.610607
vt 0.539270 0.627375
vt 0.536926 0.623790
vt 0.439374 0.621446
vt 0.436440 0.641404
vt 0.436440 0.610154
vt 0.435516 0.610607
vt 0.536912 0.620776
vt 0.442309 0.610154
vt 0.443233 0.610600
vt 0.442309 0.641404
vt 0.581155 0.626861
vt 0.450033 0.610154
vt 0.439283 0.672054
vt 0.439374 0.639730
vt 0.441608 0.667453
vt 0.441608 0.636203
vt 0.442275 0.639716
vt 0.441753 0.664718
vt 0.442344 0.609383
vt 0.443228 0.610337
vt 0.441753 0.633468
vt 0.561483 0.578678
vt 0.562127 0.579076
vt 0.562411 0.592022
vt 0.561881 0.591325
vt 0.562127 0.610326
vt 0.564283 0.609554
vt 0.564246 0.622871
vt 0.562411 0.623272
vt 0.435520 0.610338
vt 0.436404 0.609383
vt 0.562613 0.590230
vt 0.562112 0.572271
vt 0.562112 0.603521
vt 0.562613 0.621480
vt 0.564489 0.620484
vt 0.564455 0.607644
vt 0.436483 0.641178
vt 0.437112 0.634771
vt 0.453188 0.688755
vt 0.455936 0.642722
vt 0.455593 0.686873
vt 0.580593 0.624373
vt 0.578188 0.626255
vt 0.456821 0.642308
vt 0.456155 0.689361
vt 0.450323 0.655116
vt 0.575323 0.592616
vt 0.575323 0.623866
vt 0.450323 0.686366
vt 0.575354 0.621697
vt 0.453108 0.687034
vt 0.453293 0.640581
vt 0.450353 0.684197
vt 0.450353 0.652947
vt 0.575354 0.590447
vt 0.455931 0.641340
vt 0.455561 0.684709
vt 0.547835 0.611062
vt 0.557479 0.571472
vt 0.558443 0.579612
vt 0.558577 0.611062
vt 0.557693 0.611062
vt 0.558443 0.610862
vt 0.561343 0.606109
vt 0.561329 0.611062
vt 0.421624 0.610338
vt 0.422508 0.609383
vt 0.558607 0.611062
vt 0.558442 0.578090
vt 0.558442 0.609340
vt 0.561257 0.611062
vt 0.561285 0.603145
vt 0.553092 0.611062
vt 0.564937 0.573980
vt 0.564007 0.577985
vt 0.563834 0.611062
vt 0.564732 0.611062
vt 0.564007 0.609235
vt 0.429332 0.610862
vt 0.428437 0.610603
vt 0.563863 0.611062
vt 0.564009 0.579820
vt 0.564009 0.611070
vt 0.429195 0.628668
vt 0.428267 0.634507
vt 0.534650 0.627497
vt 0.407798 0.642659
vt 0.408917 0.642722
vt 0.409650 0.689997
vt 0.408343 0.686675
vt 0.411926 0.686290
vt 0.409474 0.687286
vt 0.411912 0.683276
vt 0.539123 0.593643
vt 0.414123 0.656143
vt 0.415398 0.655523
vt 0.414123 0.687393
vt 0.539123 0.624893
vt 0.414844 0.610603
vt 0.414270 0.658625
vt 0.414270 0.689875
vt 0.564374 0.637240
vt 0.564246 0.638496
vt 0.566156 0.637352
vt 0.566882 0.636138
vt 0.566317 0.635578
vt 0.564489 0.636109
vt 0.561881 0.638200
vt 0.562411 0.638897
vt 0.562613 0.637105
vt 0.772461 0.732512
vt 0.776436 0.735859
vt 0.769088 0.735230
vt 0.779197 0.735915
vt 0.779222 0.735915
vt 0.766423 0.735307
vt 0.766418 0.735921
vt 0.776443 0.735307
vt 0.769215 0.735407
vt 0.428265 0.632672
vt 0.422700 0.664027
vt 0.421737 0.626159
vt 0.422700 0.632777
vt 0.422700 0.665549
vt 0.422700 0.634299
vt 0.437127 0.672826
vt 0.437127 0.641576
vt 0.566317 0.588703
vt 0.566882 0.589263
vt 0.567275 0.577216
vt 0.566753 0.570968
vt 0.566317 0.619953
vt 0.566753 0.602218
vt 0.566156 0.590477
vt 0.566608 0.573703
vt 0.566608 0.604953
vt 0.566156 0.621727
vt 0.808370 0.579190
vt 0.808139 0.539680
vt 0.805342 0.540194
vt 0.805572 0.579465
vt 0.818357 0.580383
vt 0.818121 0.540188
vt 0.818147 0.540188
vt 0.818382 0.580374
vt 0.818601 0.656650
vt 0.818552 0.636046
vt 0.818579 0.636696
vt 0.818626 0.656650
vt 0.805578 0.578882
vt 0.805347 0.539580
vt 0.808012 0.539503
vt 0.808243 0.578999
vt 0.815602 0.579594
vt 0.815367 0.539580
vt 0.815595 0.580120
vt 0.815360 0.540132
vt 0.805827 0.656650
vt 0.805778 0.635760
vt 0.808442 0.635538
vt 0.808491 0.656650
vt 0.811385 0.521160
vt 0.815360 0.524507
vt 0.808012 0.523878
vt 0.808617 0.656650
vt 0.808571 0.636773
vt 0.805774 0.636625
vt 0.805821 0.656650
vt 0.815800 0.636695
vt 0.815846 0.656650
vt 0.818121 0.524563
vt 0.818147 0.524563
vt 0.815840 0.656650
vt 0.815791 0.635704
vt 0.681993 0.573536
vt 0.683378 0.573668
vt 0.683376 0.579439
vt 0.681874 0.579383
vt 0.805347 0.523955
vt 0.805342 0.524569
vt 0.815367 0.523955
vt 0.808139 0.524055
vt 0.808012 0.622511
vt 0.805347 0.622588
vt 0.771319 0.734754
vt 0.775294 0.738100
vt 0.767946 0.737472
vt 0.805342 0.623202
vt 0.808139 0.622687
vt 0.815367 0.622588
vt 0.818147 0.623196
vt 0.778055 0.738157
vt 0.778080 0.738157
vt 0.818121 0.623196
vt 0.815360 0.623140
vt 0.765281 0.737549
vt 0.765276 0.738163
vt 0.775301 0.737549
vt 0.768073 0.737648
vt 0.678405 0.569984
vt 0.677070 0.570096
vt 0.677070 0.570096
vt 0.678405 0.569984
vt 0.678306 0.541631
vt 0.681993 0.542193
vt 0.681993 0.542193
vt 0.678306 0.541631
vt 0.683378 0.542325
vt 0.683390 0.542321
vt 0.683390 0.542321
vt 0.683378 0.542325
vt 0.681996 0.541929
vt 0.681996 0.541929
vt 0.678370 0.541727
vt 0.678370 0.541727
vt 0.683476 0.570239
vt 0.682091 0.570068
vt 0.682091 0.570068
vt 0.683476 0.570239
vt 0.676967 0.541865
vt 0.676967 0.541865
vt 0.683489 0.570565
vt 0.683489 0.570565
vt 0.676969 0.541572
vt 0.676969 0.541572
vt 0.682096 0.570565
vt 0.682096 0.570565
vt 0.678470 0.570603
vt 0.678470 0.570603
vt 0.677068 0.570530
vt 0.677068 0.570530
vt 0.683391 0.558463
vt 0.683411 0.558346
vt 0.683411 0.558346
vt 0.683391 0.558463
vt 0.681907 0.589620
vt 0.683411 0.589689
vt 0.683476 0.601581
vt 0.682091 0.601410
vt 0.683390 0.573663
vt 0.683355 0.579433
vt 0.681907 0.558277
vt 0.678181 0.558031
vt 0.678181 0.558031
vt 0.681907 0.558277
vt 0.683391 0.589806
vt 0.683489 0.601908
vt 0.681996 0.573272
vt 0.681846 0.579109
vt 0.681878 0.558281
vt 0.681878 0.558281
vt 0.681878 0.589623
vt 0.682096 0.601907
vt 0.678370 0.573070
vt 0.678237 0.579069
vt 0.681874 0.548041
vt 0.683376 0.548097
vt 0.683376 0.548097
vt 0.681874 0.548041
vt 0.678268 0.589673
vt 0.678470 0.601946
vt 0.676967 0.573207
vt 0.676957 0.579263
vt 0.676993 0.589797
vt 0.677068 0.601872
vt 0.676969 0.572915
vt 0.676937 0.578955
vt 0.678268 0.558330
vt 0.678268 0.558330
vt 0.676972 0.589426
vt 0.677070 0.601438
vt 0.678306 0.572974
vt 0.678151 0.578969
vt 0.683355 0.548090
vt 0.681846 0.547766
vt 0.681846 0.547766
vt 0.683355 0.548090
vt 0.678181 0.589374
vt 0.678405 0.601327
vt 0.676993 0.558454
vt 0.676993 0.558454
vt 0.681874 0.579383
vt 0.683376 0.579439
vt 0.683411 0.589689
vt 0.681907 0.589620
vt 0.683355 0.579433
vt 0.683391 0.589806
vt 0.681846 0.579109
vt 0.681878 0.589623
vt 0.678237 0.579069
vt 0.678268 0.589673
vt 0.676957 0.579263
vt 0.676993 0.589797
vt 0.676937 0.578955
vt 0.676972 0.589426
vt 0.678151 0.578969
vt 0.678181 0.589374
vt 0.678151 0.547626
vt 0.678151 0.547626
vt 0.676937 0.547612
vt 0.676937 0.547612
vt 0.676957 0.547920
vt 0.676957 0.547920
vt 0.678237 0.547726
vt 0.678237 0.547726
vt 0.676972 0.558083
vt 0.676972 0.558083
vt 0.402336 0.633473
vt 0.402331 0.634486
vt 0.412898 0.632897
vt 0.412901 0.632184
vt 0.457450 0.626696
vt 0.473752 0.624778
vt 0.463211 0.626058
vt 0.451727 0.627409
vt 0.474606 0.625274
vt 0.456963 0.625364
vt 0.451384 0.626471
vt 0.463812 0.626408
vt 0.418334 0.629789
vt 0.424171 0.629588
vt 0.418905 0.633017
vt 0.424573 0.631862
vt 0.438178 0.629856
vt 0.438150 0.629636
vt 0.438055 0.627738
vt 0.438064 0.627787
vt 0.405145 0.643935
vt 0.415710 0.642645
vt 0.415707 0.643359
vt 0.405140 0.644948
vt 0.460260 0.637158
vt 0.454537 0.637871
vt 0.466020 0.636520
vt 0.476562 0.635240
vt 0.477415 0.635736
vt 0.466621 0.636869
vt 0.454193 0.636932
vt 0.459772 0.635825
vt 0.421144 0.640251
vt 0.426981 0.640050
vt 0.427383 0.642324
vt 0.421715 0.643479
vt 0.440987 0.640318
vt 0.440960 0.640097
vt 0.440864 0.638199
vt 0.440873 0.638248
vt 0.475157 0.630009
vt 0.458855 0.631927
vt 0.439582 0.635087
vt 0.420310 0.638248
vt 0.403736 0.639717
vt 0.403740 0.638704
vt 0.419739 0.635020
vt 0.439460 0.632969
vt 0.458368 0.630594
vt 0.476010 0.630505
vt 0.402336 0.633473
vt 0.402331 0.634486
vt 0.412898 0.632897
vt 0.412901 0.632184
vt 0.457450 0.626696
vt 0.473752 0.624778
vt 0.463211 0.626058
vt 0.451727 0.627409
vt 0.474606 0.625274
vt 0.456963 0.625364
vt 0.451384 0.626471
vt 0.463812 0.626408
vt 0.418334 0.629789
vt 0.424171 0.629588
vt 0.418905 0.633017
vt 0.424573 0.631862
vt 0.438178 0.629856
vt 0.438150 0.629636
vt 0.438055 0.627738
vt 0.438064 0.627787
vt 0.405145 0.643935
vt 0.415710 0.642645
vt 0.415707 0.643359
vt 0.405140 0.644948
vt 0.460260 0.637158
vt 0.454537 0.637871
vt 0.466020 0.636520
vt 0.476562 0.635240
vt 0.477415 0.635736
vt 0.466621 0.636869
vt 0.454193 0.636932
vt 0.459772 0.635825
vt 0.421144 0.640251
vt 0.426981 0.640050
vt 0.427383 0.642324
vt 0.421715 0.643479
vt 0.440987 0.640318
vt 0.440960 0.640097
vt 0.440864 0.638199
vt 0.440873 0.638248
vt 0.475157 0.630009
vt 0.458855 0.631927
vt 0.439582 0.635087
vt 0.420310 0.638248
vt 0.403736 0.639717
vt 0.403740 0.638704
vt 0.419739 0.635020
vt 0.439460 0.632969
vt 0.458368 0.630594
vt 0.476010 0.630505
vt 0.435581 0.630627
vt 0.435581 0.635764
vt 0.435581 0.635764
vt 0.435581 0.630627
vt 0.428984 0.635764
vt 0.428984 0.630627
vt 0.419655 0.635764
vt 0.419655 0.630627
vt 0.413058 0.635764
vt 0.413058 0.630627
vt 0.413058 0.635764
vt 0.413058 0.630627
vt 0.419655 0.635764
vt 0.419655 0.630627
vt 0.428984 0.635764
vt 0.428984 0.630627
vt 0.428094 0.629464
vt 0.420545 0.629464
vt 0.422363 0.609512
vt 0.426277 0.609512
vt 0.424320 0.683188
vt 0.435581 0.681766
vt 0.435581 0.681766
vt 0.428984 0.681766
vt 0.419655 0.681766
vt 0.413058 0.681766
vt 0.413058 0.681766
vt 0.419655 0.681766
vt 0.428984 0.681766
vt 0.428094 0.629464
vt 0.420545 0.629464
vt 0.426277 0.609512
vt 0.422363 0.609512
vt 0.435581 0.630627
vt 0.435581 0.635764
vt 0.435581 0.635764
vt 0.435581 0.630627
vt 0.428984 0.635764
vt 0.428984 0.630627
vt 0.419655 0.635764
vt 0.419655 0.630627
vt 0.413058 0.635764
vt 0.413058 0.630627
vt 0.413058 0.635764
vt 0.413058 0.630627
vt 0.419655 0.635764
vt 0.419655 0.630627
vt 0.428984 0.635764
vt 0.428984 0.630627
vt 0.428094 0.629464
vt 0.420545 0.629464
vt 0.422363 0.609512
vt 0.426277 0.609512
vt 0.424320 0.683188
vt 0.435581 0.681766
vt 0.435581 0.681766
vt 0.428984 0.681766
vt 0.419655 0.681766
vt 0.413058 0.681766
vt 0.413058 0.681766
vt 0.419655 0.681766
vt 0.428984 0.681766
vt 0.428094 0.629464
vt 0.420545 0.629464
vt 0.426277 0.609512
vt 0.422363 0.609512
vt 0.435581 0.630627
vt 0.435581 0.635764
vt 0.435581 0.635764
vt 0.435581 0.630627
vt 0.428984 0.635764
vt 0.428984 0.630627
vt 0.419655 0.635764
vt 0.419655 0.630627
vt 0.413058 0.635764
vt 0.413058 0.630627
vt 0.413058 0.635764
vt 0.413058 0.630627
vt 0.419655 0.635764
vt 0.419655 0.630627
vt 0.428984 0.635764
vt 0.428984 0.630627
vt 0.428094 0.629464
vt 0.420545 0.629464
vt 0.422363 0.609512
vt 0.426277 0.609512
vt 0.424320 0.683188
vt 0.435581 0.681766
vt 0.435581 0.681766
vt 0.428984 0.681766
vt 0.419655 0.681766
vt 0.413058 0.681766
vt 0.413058 0.681766
vt 0.419655 0.681766
vt 0.428984 0.681766
vt 0.428094 0.629464
vt 0.420545 0.629464
vt 0.426277 0.609512
vt 0.422363 0.609512
vt 0.435581 0.630627
vt 0.435581 0.635764
vt 0.435581 0.635764
vt 0.435581 0.630627
vt 0.428984 0.635764
vt 0.428984 0.630627
vt 0.419655 0.635764
vt 0.419655 0.630627
vt 0.413058 0.635764
vt 0.413058 0.630627
vt 0.413058 0.635764
vt 0.413058 0.630627
vt 0.419655 0.635764
vt 0.419655 0.630627
vt 0.428984 0.635764
vt 0.428984 0.630627
vt 0.428094 0.629464
vt 0.420545 0.629464
vt 0.422363 0.609512
vt 0.426277 0.609512
vt 0.424320 0.683188
vt 0.435581 0.681766
vt 0.435581 0.681766
vt 0.428984 0.681766
vt 0.419655 0.681766
vt 0.413058 0.681766
vt 0.413058 0.681766
vt 0.419655 0.681766
vt 0.428984 0.681766
vt 0.428094 0.629464
vt 0.420545 0.629464
vt 0.426277 0.609512
vt 0.422363 0.609512
vn 0.4178 -0.0432 0.9075
vn 0.4503 -0.0593 0.8909
vn 0.0761 -0.0665 0.9949
vn 0.0366 -0.0412 0.9985
vn -0.1374 -0.8306 0.5397
vn 0.0359 -0.8265 0.5618
vn -0.2964 -0.8556 0.4244
vn 0.9361 -0.0571 0.3471
vn 0.9691 -0.0522 0.2411
vn 0.9987 -0.0504 0.0067
vn 0.9104 -0.0430 -0.4114
vn -0.7373 -0.0060 0.6756
vn -0.9485 -0.0312 0.3153
vn -0.9808 -0.1745 0.0871
vn -0.7509 0.0053 0.6604
vn 0.7519 -0.0436 0.6578
vn -0.9813 -0.0628 -0.1818
vn -0.7179 0.0230 -0.6957
vn -0.9222 0.0004 -0.3867
vn 0.8841 -0.0637 -0.4629
vn 0.9925 -0.0706 -0.0995
vn 0.0004 0.0223 -0.9998
vn 0.1138 0.0713 -0.9909
vn -0.0585 -0.0033 -0.9983
vn 0.7047 0.0073 -0.7094
vn 0.6756 -0.0224 -0.7369
vn 0.7227 -0.0462 0.6896
vn 0.9842 0.1758 0.0198
vn 0.8403 0.1757 -0.5128
vn 0.9435 0.2151 -0.2522
vn -0.5118 -0.8458 0.1505
vn -0.4253 -0.8541 0.2993
vn -0.5134 -0.8571 -0.0436
vn -0.3854 -0.8468 -0.3667
vn -0.4722 -0.8543 -0.2173
vn -0.2155 -0.8593 -0.4639
vn -0.9847 0.1741 -0.0030
vn -0.8514 0.1741 0.4947
vn -0.9452 0.2057 0.2534
vn 0.4714 0.1757 0.8643
vn 0.8533 0.1766 0.4905
vn 0.6714 0.2120 0.7101
vn -0.5109 0.1736 0.8419
vn 0.0001 0.1746 0.9846
vn -0.2788 0.2084 0.9375
vn -0.2008 -0.1823 0.9625
vn 0.0544 0.0613 0.9966
vn -0.0403 0.0351 0.9986
vn 0.0139 0.0760 0.9970
vn -0.1924 -0.1932 -0.9621
vn 0.0067 0.0006 -1.0000
vn -0.0694 0.0448 -0.9966
vn -0.0604 0.1044 0.9927
vn 0.1955 -0.1470 0.9696
vn -0.2140 -0.9636 0.1600
vn -0.1705 -0.6788 0.7142
vn -0.6352 -0.6443 0.4259
vn -0.9681 -0.1994 -0.1519
vn -0.6905 -0.1645 -0.7044
vn -0.6454 -0.6312 -0.4302
vn 0.2141 -0.9636 -0.1598
vn 0.1708 -0.6810 -0.7121
vn 0.6340 -0.6456 -0.4258
vn 0.9655 -0.1882 0.1798
vn 0.6775 -0.1472 0.7207
vn 0.6430 -0.6284 0.4378
vn -0.8768 0.0547 0.4777
vn -0.8598 0.0869 0.5031
vn -0.8145 0.1603 0.5576
vn -0.8658 0.4197 -0.2725
vn -0.8226 0.5223 -0.2248
vn -0.8629 0.4279 -0.2689
vn 0.2258 0.6386 -0.7357
vn 0.2531 0.7218 -0.6441
vn 0.2704 0.6367 -0.7222
vn -0.3516 -0.0347 0.9355
vn 0.3103 -0.1450 0.9395
vn 0.3036 -0.0205 0.9526
vn -0.8587 0.4292 -0.2799
vn -0.8119 0.5278 -0.2496
vn -0.8606 0.4247 -0.2812
vn -0.8740 0.0508 0.4833
vn -0.8221 0.1545 0.5479
vn 0.3053 -0.1453 0.9411
vn 0.3594 -0.1124 0.9264
vn 0.3514 -0.0238 0.9359
vn 0.9290 0.3587 -0.0909
vn 0.9282 0.3307 -0.1704
vn 0.8873 0.4498 -0.1013
vn 0.1750 0.6484 -0.7409
vn 0.2059 0.7276 -0.6543
vn 0.2129 0.6261 -0.7501
vn -0.9286 0.1194 0.3513
vn -0.9087 0.0998 0.4054
vn -0.8757 0.1763 0.4495
vn -0.2944 0.6201 -0.7272
vn -0.3428 0.6371 -0.6903
vn -0.3365 0.6941 -0.6364
vn 0.2694 -0.1459 0.9519
vn 0.3231 -0.1260 0.9379
vn 0.3100 -0.0360 0.9500
vn 0.9199 0.3641 -0.1454
vn 0.9050 0.3719 -0.2067
vn 0.8732 0.4559 -0.1723
vn -0.1684 -0.6846 -0.7092
vn 0.9650 0.2556 0.0594
vn 0.9344 0.3339 0.1240
vn 0.9625 0.2386 0.1291
vn -0.0158 0.3651 -0.9308
vn -0.3248 0.3997 -0.8572
vn 0.9535 -0.0166 0.3010
vn 0.9936 0.1120 0.0118
vn -0.6822 0.4010 -0.6114
vn -0.9937 0.1107 -0.0192
vn -0.6996 -0.0222 0.7142
vn -0.3248 0.3651 0.8725
vn 0.9454 -0.0132 0.3257
vn 0.9935 0.1109 -0.0262
vn 0.1916 -0.1906 -0.9628
vn -0.0031 0.1268 -0.9919
vn 0.7003 -0.1691 -0.6935
vn -0.7288 -0.1039 0.6768
vn -0.0144 -0.2225 0.9748
vn 0.3236 0.3661 0.8725
vn 0.7048 -0.0185 0.7092
vn 0.0723 0.0491 -0.9962
vn 0.2772 0.1246 -0.9527
vn 0.1458 0.3858 -0.9110
vn -0.0302 0.1187 -0.9925
vn -0.3413 -0.0162 0.9398
vn -0.0076 0.0065 1.0000
vn 0.3181 -0.0206 0.9478
vn 0.2984 -0.0774 0.9513
vn -0.0491 -0.0725 0.9962
vn 0.9704 0.0244 0.2404
vn 0.9846 0.0143 0.1742
vn -0.9635 -0.1994 0.1788
vn -0.9835 0.0176 0.1801
vn 0.9740 0.0106 -0.2263
vn 0.9807 0.0486 -0.1895
vn 0.9920 0.1252 0.0171
vn -0.0116 -0.0219 0.9997
vn 0.0007 0.0514 0.9987
vn 0.3365 -0.0590 0.9398
vn -0.9632 0.0114 0.2684
vn -0.9988 0.0296 -0.0388
vn -0.9693 0.0244 0.2445
vn -0.0215 0.0719 -0.9972
vn -0.0040 -0.0037 -1.0000
vn -0.3495 0.1247 -0.9286
vn -0.3510 -0.0573 0.9346
vn -0.0059 -0.1565 0.9877
vn -0.3526 -0.1448 0.9245
vn -0.3594 0.2111 -0.9090
vn -0.0113 0.2261 -0.9740
vn 0.7351 -0.0293 0.6773
vn 0.0100 -0.0415 0.9991
vn -0.9829 0.0091 0.1838
vn -0.9703 0.0247 0.2405
vn -0.6956 0.1022 -0.7112
vn -0.9718 0.0575 -0.2289
vn -0.6981 -0.0367 0.7151
vn 0.6495 -0.0477 -0.7589
vn -0.9713 -0.1692 0.1672
vn -0.9987 -0.0015 -0.0513
vn -0.0129 -0.0094 0.9999
vn 0.4291 -0.8670 -0.2533
vn 0.5565 -0.8302 -0.0327
vn 0.5450 -0.8286 0.1282
vn 0.4297 -0.8670 -0.2524
vn 0.2537 -0.8654 0.4321
vn 0.2538 -0.8654 0.4320
vn 0.2936 -0.8464 -0.4444
vn 0.1186 -0.8450 -0.5214
vn -0.0434 -0.8599 -0.5086
vn 0.4470 -0.8441 0.2962
vn 0.0007 1.0000 -0.0002
vn 0.4956 0.1767 -0.8504
vn 0.2262 0.2123 -0.9507
vn -0.0251 0.1759 -0.9841
vn -0.4919 0.1746 -0.8530
vn -0.7108 0.2084 -0.6719
vn -0.8625 0.1737 -0.4753
vn 0.0003 0.9739 0.2270
vn 0.0004 0.9737 -0.2280
vn 0.0004 0.9739 -0.2268
vn 0.0003 0.9745 0.2246
vn -0.0002 0.0745 -0.9972
vn -0.0003 0.0945 0.9955
vn 0.2203 -0.9614 0.1651
vn -0.0004 0.9738 -0.2276
vn 0.0001 0.9739 0.2272
vn 0.0000 0.9745 0.2245
vn -0.0004 0.9741 -0.2263
vn -0.2201 -0.9614 -0.1649
vn -0.6787 -0.1346 0.7219
vn 0.1643 -0.6771 0.7173
vn 0.9675 -0.2038 -0.1498
vn 0.1744 0.4035 0.8982
vn -0.1368 0.4067 0.9032
vn -0.0007 0.9737 0.2279
vn -0.0007 0.9744 0.2246
vn -0.1224 0.3814 -0.9163
vn 0.1213 0.3811 -0.9165
vn 0.0003 0.9741 -0.2262
vn 0.0003 0.9742 -0.2259
vn -0.1733 0.4104 0.8953
vn -0.1195 0.3866 -0.9145
vn 0.1224 0.3795 -0.9171
vn -0.1453 0.3788 -0.9140
vn 0.1389 0.4090 0.9019
vn -0.9917 0.1281 0.0127
vn -0.9407 0.1810 -0.2868
vn 0.3519 -0.1729 0.9199
vn 0.0116 -0.1958 0.9806
vn -0.9067 0.0289 0.4207
vn 0.3227 0.1193 -0.9390
vn 0.9818 0.0161 -0.1895
vn 0.9430 0.0161 -0.3325
vn 0.9512 0.0449 -0.3054
vn 0.9992 0.0295 -0.0252
vn -0.0302 0.3522 -0.9354
vn 0.0002 -0.0044 -1.0000
vn 0.3755 0.1725 -0.9106
vn 0.9429 0.0160 -0.3326
vn 0.9391 0.0950 -0.3304
vn 0.9959 0.0814 -0.0386
vn 0.0167 -0.1857 0.9825
vn 0.3331 -0.1884 0.9239
vn -0.9486 0.0812 -0.3060
vn -0.9428 0.0162 -0.3331
vn -0.9817 0.0161 -0.1897
vn -0.9970 0.0730 -0.0243
vn -0.3217 0.1653 -0.9323
vn -0.9879 0.1496 0.0410
vn 0.9138 0.0059 -0.4060
vn 0.9335 0.0520 -0.3549
vn 0.0592 0.3121 -0.9482
vn 0.0183 0.1048 -0.9943
vn -0.3273 0.2933 -0.8982
vn -0.9492 0.1663 -0.2673
vn -0.9933 0.1150 0.0074
vn -0.3700 -0.0679 0.9265
vn -0.9519 0.0408 0.3037
vn -0.9804 0.0282 0.1950
vn -0.9431 0.0367 0.3304
vn -0.9600 0.0488 0.2759
vn 0.9938 0.1101 0.0175
vn 0.7333 0.2502 -0.6321
vn 0.7962 0.2064 -0.5687
vn 0.9939 0.1056 0.0324
vn 0.5043 0.2545 -0.8252
vn 0.9804 0.0284 0.1949
vn 0.9495 0.0354 0.3117
vn 0.9432 0.0369 0.3300
vn 0.9298 0.0543 0.3642
vn 0.9486 0.0402 0.3138
vn 0.2594 -0.0698 0.9632
vn -0.0255 -0.0673 0.9974
vn -0.0029 0.4615 -0.8871
vn -0.6810 0.1203 -0.7223
vn -0.2727 0.3520 -0.8954
vn -0.9438 0.1748 -0.2805
vn -0.9818 0.0495 -0.1835
vn 0.9486 0.1518 -0.2776
vn 0.2520 0.3627 -0.8972
vn 0.3277 -0.1781 0.9279
vn -0.0324 -0.0515 0.9981
vn 0.9431 -0.0134 0.3323
vn -0.3794 -0.0605 0.9232
vn -0.9289 0.0029 0.3704
vn 0.9553 0.1589 -0.2495
vn 0.9996 0.0271 -0.0013
vn 0.9575 0.0820 -0.2765
vn 0.2766 0.4194 -0.8646
vn 0.3355 0.2119 -0.9179
vn 0.9801 0.0281 0.1966
vn 0.9535 0.0074 0.3013
vn 0.9421 0.0365 0.3332
vn 0.9599 -0.0311 0.2785
vn 0.3437 -0.1471 0.9275
vn -0.9368 -0.0202 0.3492
vn -0.9996 0.0278 0.0025
vn -0.9607 -0.0295 0.2761
vn -0.3441 -0.1970 0.9180
vn -0.9823 0.0159 -0.1866
vn -0.9528 0.0458 -0.3000
vn -0.9437 0.0160 -0.3303
vn -0.9598 0.0825 -0.2684
vn 0.6856 0.3970 -0.6102
vn 0.9973 0.0463 -0.0572
vn 0.7107 0.1136 -0.6943
vn -0.9302 0.0150 0.3668
vn -0.3366 -0.2239 0.9146
vn -0.9746 0.0107 -0.2238
vn -0.9156 0.0059 -0.4020
vn -0.2720 0.9292 0.2503
vn -0.2419 0.9702 0.0127
vn -0.4285 0.9019 0.0549
vn -0.5243 0.8234 0.2170
vn -0.4357 0.8086 0.3953
vn -0.2672 0.8333 0.4840
vn 0.0002 0.9623 0.2721
vn -0.0719 0.9924 0.0998
vn -0.0972 0.8991 0.4269
vn -0.7763 -0.3765 -0.5056
vn -0.9565 -0.2695 0.1117
vn 0.2298 -0.9422 0.2440
vn 0.0944 -0.9916 -0.0881
vn 0.0488 -0.9804 -0.1911
vn -0.0609 -0.9037 -0.4237
vn -0.9891 -0.0606 -0.1342
vn -0.2440 -0.7869 0.5668
vn -0.4177 -0.6584 0.6262
vn -0.4109 -0.6643 0.6244
vn -0.6600 -0.1110 -0.7430
vn -0.4732 -0.5018 -0.7241
vn -0.6007 -0.2695 -0.7527
vn -0.5676 -0.5002 0.6539
vn -0.1701 -0.0519 -0.9841
vn -0.9569 0.0553 0.2852
vn -0.9927 0.1204 0.0047
vn -0.3921 -0.0556 0.9182
vn -0.9492 0.1730 -0.2627
vn -0.3844 0.3022 -0.8723
vn 0.3295 0.0355 0.9435
vn 0.3499 0.0359 0.9361
vn 0.6750 0.0392 0.7368
vn -0.9996 0.0269 -0.0022
vn -0.9176 0.1162 -0.3802
vn -0.9063 0.1421 -0.3979
vn -0.9908 0.1354 0.0043
vn -0.9142 0.0767 0.3979
vn 0.9237 0.0442 -0.3805
vn 0.9139 0.0442 -0.4034
vn 0.4056 0.0400 -0.9132
vn 0.3660 0.0394 -0.9298
vn 0.9991 0.0401 -0.0124
vn -0.4101 0.0311 0.9115
vn -0.3634 0.0310 0.9311
vn -0.7035 0.0322 -0.7100
vn 0.9150 -0.1143 -0.3869
vn 0.9076 -0.1006 -0.4076
vn 0.7115 -0.0622 -0.6999
vn 0.6922 -0.0715 -0.7182
vn 0.0324 0.0322 -0.9990
vn -0.6837 0.0300 0.7292
vn 0.1939 -0.9699 -0.1473
vn -0.0461 -0.9361 -0.3488
vn 0.1173 -0.9571 -0.2651
vn 0.3707 -0.1061 0.9227
vn 0.3613 -0.0915 0.9279
vn 0.6721 -0.1225 0.7303
vn 0.6999 -0.1369 0.7010
vn -0.6952 0.0589 0.7164
vn -0.6942 0.0366 0.7188
vn -0.3236 -0.9415 -0.0943
vn -0.3419 -0.9382 -0.0546
vn -0.3830 -0.9229 0.0408
vn -0.3718 0.0735 -0.9254
vn 0.0037 0.0320 -0.9995
vn 0.0233 0.0413 -0.9989
vn -0.0144 -0.0605 0.9981
vn -0.0078 -0.0469 0.9989
vn 0.9902 -0.1395 0.0080
vn 0.9915 -0.1287 -0.0163
vn -0.6935 0.0735 -0.7167
vn -0.8753 -0.3439 -0.3400
vn -0.4208 -0.3200 -0.8488
vn 0.3228 -0.9452 -0.0486
vn 0.3868 -0.9168 0.0995
vn -0.2975 -0.9339 0.1982
vn 0.0114 -0.9545 0.2981
vn -0.1636 -0.9459 0.2802
vn 0.1740 -0.9381 0.2996
vn -0.2619 -0.9402 -0.2180
vn 0.3078 -0.9236 0.2287
vn -0.3900 0.0571 -0.9190
vn -0.6831 0.0826 -0.7257
vn -0.1634 0.7535 -0.6368
vn -0.3636 0.7637 -0.5335
vn -0.1161 0.7458 -0.6560
vn -0.8979 0.0468 0.4376
vn -0.6927 0.0109 0.7211
vn 0.7245 -0.1500 0.6727
vn 0.6787 0.7254 -0.1143
vn 0.6617 0.7324 -0.1606
vn 0.5592 0.7406 -0.3726
vn 0.9883 -0.1492 0.0301
vn -0.0205 -0.0732 0.9971
vn -0.9963 0.0820 0.0273
vn -0.0187 0.0214 -0.9996
vn 0.1430 0.6696 -0.7288
vn -0.6262 0.7372 0.2538
vn -0.4858 0.7334 0.4755
vn -0.6690 0.7251 0.1634
vn -0.0925 0.6755 0.7315
vn 0.2392 0.7501 0.6166
vn 0.1595 0.7406 0.6527
vn 0.4262 0.7486 0.5080
vn 0.7446 0.6468 0.1650
vn -0.7587 0.6377 -0.1330
vn 0.6725 -0.0807 -0.7357
vn 0.2543 0.9412 -0.2223
vn 0.3479 0.9280 -0.1332
vn 0.3490 0.9278 -0.1320
vn 0.2557 0.9411 -0.2212
vn 0.0936 -0.8783 -0.4688
vn -0.3023 -0.8553 -0.4208
vn -0.3105 -0.8553 -0.4147
vn 0.0827 -0.8778 -0.4718
vn -0.4947 -0.8578 -0.1394
vn -0.4934 -0.8552 0.1589
vn -0.4942 -0.8552 0.1561
vn -0.4958 -0.8579 -0.1349
vn -0.2893 -0.8683 0.4028
vn -0.2983 -0.8681 0.3968
vn 0.1003 -0.8806 0.4632
vn 0.0904 -0.8804 0.4654
vn -0.1120 0.9854 -0.1283
vn 0.0824 0.9663 -0.2438
vn 0.0844 0.9661 -0.2441
vn -0.1124 0.9854 -0.1278
vn 0.4189 -0.8764 0.2375
vn 0.4169 -0.8764 0.2409
vn -0.1154 0.9848 0.1295
vn -0.1142 0.9846 0.1321
vn 0.4298 -0.8875 -0.1662
vn 0.4288 -0.8875 -0.1687
vn 0.0487 0.9509 0.3057
vn 0.0509 0.9506 0.3061
vn 0.2264 0.9324 0.2819
vn 0.2281 0.9322 0.2810
vn 0.3553 0.9313 0.0800
vn 0.3552 0.9313 0.0802
vn -0.7037 0.1281 -0.6989
vn -0.8502 0.3527 0.3908
vn -0.8355 0.3907 -0.3865
vn -0.8559 0.3712 -0.3601
vn -0.8515 0.3682 0.3734
vn -0.3876 0.5362 -0.7498
vn -0.9365 -0.0200 -0.3501
vn -0.7198 -0.0192 -0.6939
vn -0.9980 0.0637 0.0015
vn -0.8597 -0.3799 0.3416
vn 0.3689 0.7132 -0.5961
vn 0.3962 0.3526 -0.8478
vn -0.3058 0.3779 -0.8739
vn -0.9222 -0.0518 0.3832
vn -0.6838 0.0650 0.7268
vn -0.3301 0.0747 0.9410
vn -0.4240 -0.3667 0.8281
vn -0.3237 0.3226 0.8895
vn -0.3249 0.3272 0.8873
vn -0.4131 -0.1265 0.9019
vn 0.3989 0.0859 0.9130
vn 0.3098 -0.3548 0.8821
vn -0.8899 -0.2944 -0.3485
vn -0.3759 -0.2826 -0.8825
vn 0.3456 -0.2056 0.9156
vn 0.3267 -0.2039 0.9229
vn 0.6871 0.0858 0.7215
vn 0.7279 -0.4678 0.5012
vn 0.6550 -0.2203 0.7228
vn 0.9953 0.0950 -0.0195
vn 0.9175 0.1034 -0.3841
vn 0.8745 -0.3103 -0.3728
vn 0.3478 0.6524 0.6733
vn 0.3600 0.3107 0.8797
vn 0.9748 -0.2230 0.0005
vn 0.8948 -0.2086 -0.3948
vn 0.9079 -0.2113 -0.3620
vn 0.4437 0.0990 -0.8907
vn 0.3419 -0.2962 -0.8918
vn -0.3843 -0.3440 0.8567
vn -0.8844 -0.3035 0.3546
vn 0.3899 -0.1374 -0.9105
vn 0.3628 -0.1343 -0.9221
vn -0.0020 -0.0849 -0.9964
vn 0.6796 0.6814 0.2717
vn 0.8731 0.3352 0.3541
vn 0.0465 0.0855 -0.9953
vn 0.3123 -0.3601 0.8791
vn 0.8640 -0.3374 0.3737
vn 0.8706 -0.3387 -0.3569
vn 0.8730 0.3366 -0.3529
vn 0.3466 -0.3167 -0.8830
vn 0.6545 0.7035 -0.2769
vn -0.2160 -0.9753 -0.0463
vn -0.1849 -0.9818 -0.0437
vn -0.1846 -0.9819 -0.0434
vn -0.2135 -0.9759 -0.0459
vn -0.0578 -0.9830 -0.1743
vn 0.0649 -0.9940 -0.0880
vn 0.0761 -0.9947 -0.0698
vn -0.0523 -0.9833 -0.1740
vn 0.0948 -0.9934 0.0652
vn -0.0272 -0.9908 0.1323
vn -0.0342 -0.9904 0.1340
vn 0.0955 -0.9934 0.0642
vn -0.2093 -0.9777 0.0146
vn -0.2095 -0.9777 0.0141
vn -0.1813 -0.9805 -0.0762
vn -0.1806 -0.9803 -0.0798
vn -0.1504 -0.9785 -0.1408
vn -0.1463 -0.9784 -0.1460
vn -0.1465 -0.9821 0.1188
vn -0.1481 -0.9821 0.1162
vn -0.0370 0.9873 0.1548
vn -0.0479 0.9886 0.1430
vn -0.0777 0.9961 -0.0429
vn -0.0701 0.9959 -0.0568
vn 0.1944 0.9794 -0.0552
vn 0.1945 0.9794 -0.0541
vn 0.1885 0.9821 -0.0039
vn 0.1900 0.9818 -0.0061
vn 0.1586 0.9860 0.0523
vn 0.1589 0.9859 0.0516
vn 0.1430 0.9834 0.1117
vn 0.1424 0.9837 0.1099
vn 0.0723 0.9743 0.2134
vn 0.0702 0.9740 0.2152
vn 0.0735 0.9843 -0.1602
vn 0.0680 0.9849 -0.1595
vn 0.1752 0.9755 -0.1327
vn 0.1766 0.9758 -0.1288
vn 0.1255 0.9797 0.1565
vn 0.1226 0.9794 0.1602
vn 0.9343 -0.1565 -0.3204
vn 0.5143 -0.0572 -0.8557
vn 0.5416 0.2386 -0.8061
vn 0.9447 0.1460 -0.2937
vn -0.5146 0.0467 0.8562
vn -0.7304 0.0863 0.6775
vn -0.5112 0.0461 0.8582
vn 0.1005 0.0248 -0.9946
vn -0.4117 0.1147 -0.9041
vn -0.3386 0.4070 -0.8483
vn 0.1439 0.3112 -0.9394
vn -0.9205 0.1836 -0.3449
vn -0.8247 0.4689 -0.3161
vn -0.1163 -0.0193 0.9930
vn -0.1116 -0.0200 0.9935
vn 0.7060 -0.1338 0.6955
vn 0.3889 -0.0936 0.9165
vn 0.4028 -0.0955 0.9103
vn -0.9100 0.1540 0.3849
vn -0.8152 0.4362 0.3811
vn 0.9039 -0.1228 -0.4098
vn 0.9876 -0.1490 -0.0500
vn 0.9138 -0.1252 -0.3864
vn -0.5083 0.0465 0.8599
vn -0.4315 0.3436 0.8341
vn 0.4989 -0.0439 -0.8656
vn 0.5135 -0.0465 -0.8568
vn -0.0823 -0.0296 0.9962
vn 0.4140 -0.1182 0.9026
vn 0.4451 0.1840 0.8764
vn -0.0349 0.2604 0.9649
vn 0.0950 0.0226 -0.9952
vn 0.0953 0.0226 -0.9952
vn 0.8933 -0.1725 0.4151
vn 0.9046 0.1182 0.4096
vn -0.8847 0.1516 -0.4409
vn -0.3952 0.0945 -0.9137
vn -0.4046 0.0958 -0.9095
vn -0.8866 0.1518 -0.4370
vn -0.9829 0.1540 -0.1007
vn -0.1311 -0.9819 0.1370
vn -0.0970 -0.9714 -0.2167
vn -0.1232 -0.9755 -0.1822
vn -0.1428 -0.9823 0.1215
vn 0.3122 -0.9477 0.0668
vn 0.1765 -0.9823 0.0631
vn 0.1656 -0.9850 0.0475
vn 0.3092 -0.9485 0.0696
vn 0.2172 -0.9689 -0.1190
vn 0.3647 -0.9245 -0.1110
vn 0.3704 -0.9235 -0.0993
vn 0.2157 -0.9693 -0.1179
vn 0.1666 -0.9506 0.2620
vn 0.1430 -0.9541 0.2631
vn 0.1956 -0.9219 -0.3344
vn 0.1895 -0.9227 -0.3357
vn 0.3749 -0.9140 -0.1550
vn 0.3756 -0.9148 -0.1483
vn 0.3790 -0.9189 0.1096
vn 0.3721 -0.9188 0.1319
vn -0.1556 0.9877 -0.0122
vn -0.1517 0.9884 -0.0089
vn -0.1743 0.9799 0.0967
vn -0.1838 0.9773 0.1054
vn -0.1690 0.9355 -0.3102
vn -0.1431 0.9380 -0.3156
vn 0.1353 0.9828 -0.1254
vn 0.1097 0.9794 -0.1695
vn 0.0582 0.9662 0.2512
vn 0.0759 0.9694 0.2337
vn -0.2389 0.9043 0.3538
vn -0.2441 0.9037 0.3517
vn -0.3079 0.9514 -0.0092
vn -0.3063 0.9519 -0.0098
vn -0.3215 0.9433 0.0828
vn -0.3143 0.9449 0.0914
vn -0.3540 0.9272 -0.1221
vn -0.3465 0.9259 -0.1507
vn -0.3938 0.9040 0.1664
vn -0.3939 0.9041 0.1658
vn 0.9424 0.0741 -0.3263
vn 0.5036 0.0626 -0.8617
vn 0.4546 0.3332 -0.8260
vn 0.6597 0.3202 -0.6799
vn -0.4497 -0.0452 0.8920
vn -0.7309 -0.0480 0.6808
vn -0.5625 -0.0469 0.8254
vn 0.0812 0.0425 -0.9958
vn -0.4304 0.0082 -0.9026
vn -0.4440 0.3018 -0.8437
vn 0.0048 0.3141 -0.9494
vn -0.9370 -0.0460 -0.3462
vn -0.9155 0.2549 -0.3113
vn -0.0577 -0.0350 0.9977
vn -0.1312 -0.0373 0.9907
vn 0.7252 0.0026 0.6885
vn 0.4973 -0.0113 0.8675
vn 0.3408 -0.0191 0.9399
vn -0.9190 -0.0678 0.3885
vn -0.8975 0.2298 0.3765
vn 0.9254 0.0447 -0.3763
vn 0.9981 0.0365 -0.0498
vn 0.9056 0.0455 -0.4217
vn -0.4922 -0.0712 0.8676
vn -0.5195 0.2278 0.8236
vn 0.5484 0.0467 -0.8349
vn 0.4538 0.0452 -0.8899
vn -0.0617 -0.0430 0.9972
vn 0.4345 -0.0120 0.9006
vn 0.3898 0.2655 0.8818
vn -0.1328 0.2326 0.9635
vn 0.1223 0.0370 -0.9918
vn 0.0288 0.0340 -0.9990
vn 0.9069 0.0484 0.4185
vn 0.8604 0.3055 0.4079
vn -0.8824 -0.0153 -0.4702
vn -0.3422 0.0191 -0.9394
vn -0.5019 0.0110 -0.8649
vn -0.9214 -0.0194 -0.3880
vn 0.9501 0.3016 0.0803
vn -0.9945 -0.0314 -0.1001
vn -0.4494 -0.3353 0.8280
vn 0.0131 -0.3148 0.9491
vn 0.5251 -0.2289 -0.8197
vn 0.1495 -0.2304 -0.9615
vn 0.8926 -0.2555 0.3714
vn 0.9206 -0.2329 -0.3135
vn 0.4556 -0.2998 0.8382
vn -0.8691 -0.3367 0.3623
vn -0.9514 -0.3064 0.0302
vn -0.3983 -0.2681 -0.8772
vn -0.6646 -0.2637 -0.6991
vn -0.5370 -0.2413 0.8083
vn -0.1225 -0.3171 0.9404
vn 0.4409 -0.3466 -0.8280
vn 0.0486 -0.2614 -0.9640
vn 0.7995 -0.4636 0.3819
vn 0.8371 -0.4457 -0.3172
vn 0.3447 -0.4072 0.8458
vn -0.9237 -0.1487 0.3530
vn -0.9323 -0.1171 -0.3422
vn -0.4464 -0.1859 -0.8753
vn 0.9930 0.0746 -0.0916
vn 0.9550 -0.2956 0.0257
vn 0.7715 -0.6208 0.1390
vn 0.0981 -0.9526 0.2881
vn -0.2894 -0.9086 0.3012
vn -0.6328 -0.7263 0.2685
vn -0.9930 -0.0746 0.0916
vn -0.9550 0.2956 -0.0256
vn -0.7715 0.6208 -0.1390
vn -0.0981 0.9526 -0.2881
vn 0.2894 0.9086 -0.3012
vn 0.6328 0.7263 -0.2685
vn 0.0917 -0.9754 0.2004
vn 0.0657 0.2951 0.9532
vn 0.1759 0.2588 0.9498
vn 0.1672 0.3433 0.9242
vn 0.1198 0.1944 0.9736
vn 0.0318 0.1878 0.9817
vn -0.0367 0.2429 0.9694
vn -0.0454 0.3273 0.9438
vn 0.0108 0.3917 0.9200
vn 0.0988 0.3983 0.9119
vn 0.0373 -0.3749 -0.9263
vn 0.0189 -0.1960 -0.9804
vn 0.0761 -0.2303 -0.9701
vn 0.0864 -0.3306 -0.9398
vn 0.0018 -0.4277 -0.9039
vn -0.1492 -0.3889 -0.9091
vn -0.1028 -0.4356 -0.8943
vn -0.2059 -0.3526 -0.9128
vn -0.1676 -0.2100 -0.9632
vn -0.2163 -0.2522 -0.9432
vn -0.1317 -0.1551 -0.9791
vn -0.0271 -0.1473 -0.9887
vn -0.1037 0.9219 -0.3734
vn -0.9949 -0.1010 0.0047
vn 0.9829 0.0475 -0.1777
vn -0.8741 0.1388 0.4654
vn -0.8840 -0.2454 0.3980
vn -0.7592 -0.5922 0.2700
vn -0.1995 -0.9763 -0.0835
vn 0.1502 -0.9551 -0.2553
vn 0.4770 -0.7885 -0.3882
vn 0.8741 -0.1388 -0.4654
vn 0.8840 0.2454 -0.3980
vn 0.7592 0.5922 -0.2700
vn 0.1995 0.9763 0.0835
vn -0.1502 0.9551 0.2553
vn -0.4770 0.7885 0.3882
vn -0.1586 -0.9873 -0.0033
vn -0.4428 0.1659 -0.8811
vn -0.5422 0.1363 -0.8291
vn -0.5246 0.2229 -0.8217
vn -0.4999 0.0664 -0.8635
vn -0.4224 0.0541 -0.9048
vn -0.3551 0.1066 -0.9287
vn -0.3374 0.1932 -0.9213
vn -0.3797 0.2631 -0.8869
vn -0.4572 0.2754 -0.8456
vn 0.3380 -0.2431 0.9092
vn 0.3755 -0.0597 0.9249
vn 0.3192 -0.0920 0.9432
vn 0.2982 -0.1948 0.9344
vn 0.3619 -0.3003 0.8825
vn 0.5022 -0.2692 0.8218
vn 0.4540 -0.3149 0.8335
vn 0.5555 -0.2357 0.7974
vn 0.5397 -0.0858 0.8375
vn 0.5766 -0.1329 0.8062
vn 0.5128 -0.0274 0.8581
vn 0.4207 -0.0128 0.9071
vn 0.2389 0.9572 0.1631
vn 0.9107 -0.1533 -0.3836
vn -0.8304 0.1232 0.5434
vn -0.9744 0.1982 -0.1065
vn -0.9809 -0.1879 -0.0510
vn -0.8380 -0.5455 0.0123
vn -0.2108 -0.9696 0.1239
vn 0.1781 -0.9717 0.1552
vn 0.5399 -0.8258 0.1629
vn 0.9744 -0.1982 0.1065
vn 0.9809 0.1879 0.0510
vn 0.8380 0.5455 -0.0123
vn 0.2108 0.9696 -0.1239
vn -0.1781 0.9717 -0.1552
vn -0.5399 0.8258 -0.1629
vn -0.2171 -0.9527 0.2129
vn 0.0787 -0.1432 -0.9866
vn -0.0355 -0.1640 -0.9858
vn -0.0168 -0.0780 -0.9968
vn 0.0124 -0.2372 -0.9714
vn 0.0988 -0.2548 -0.9619
vn 0.1731 -0.2064 -0.9630
vn 0.1918 -0.1204 -0.9740
vn 0.1439 -0.0472 -0.9885
vn 0.0575 -0.0296 -0.9979
vn -0.1893 0.0694 0.9795
vn -0.1497 0.2516 0.9562
vn -0.2101 0.2217 0.9522
vn -0.2323 0.1195 0.9653
vn -0.1601 0.0091 0.9871
vn -0.0063 0.0322 0.9995
vn -0.0574 -0.0118 0.9983
vn 0.0546 0.0611 0.9966
vn 0.0333 0.2143 0.9762
vn 0.0768 0.1633 0.9836
vn 0.0046 0.2737 0.9618
vn -0.0980 0.2946 0.9506
vn 0.2028 0.9786 -0.0339
vn 0.9632 -0.1844 0.1956
vn -0.9775 0.2104 -0.0166
vn 0.0627 -0.9611 0.2690
vn -0.3221 -0.9008 0.2913
vn -0.6579 -0.7033 0.2694
vn -0.9931 -0.0335 0.1120
vn -0.9416 0.3368 0.0005
vn -0.7466 0.6559 -0.1110
vn -0.0627 0.9611 -0.2690
vn 0.3221 0.9008 -0.2913
vn 0.6579 0.7033 -0.2694
vn 0.9931 0.0335 -0.1120
vn 0.9416 -0.3368 -0.0005
vn 0.7466 -0.6559 0.1110
vn -0.9980 -0.0582 0.0247
vn 0.0986 0.2741 0.9566
vn 0.0606 0.1679 0.9839
vn 0.1487 0.1709 0.9740
vn -0.0056 0.2261 0.9741
vn -0.0111 0.3113 0.9502
vn 0.0472 0.3737 0.9264
vn 0.1353 0.3767 0.9164
vn 0.2015 0.3185 0.9263
vn 0.2070 0.2333 0.9501
vn -0.1851 -0.3651 -0.9124
vn 0.0014 -0.3588 -0.9334
vn -0.0358 -0.4105 -0.9112
vn -0.1405 -0.4140 -0.8994
vn -0.2403 -0.3263 -0.9142
vn -0.1969 -0.1846 -0.9629
vn -0.2469 -0.2251 -0.9425
vn -0.1590 -0.1310 -0.9785
vn -0.0103 -0.1783 -0.9839
vn -0.0543 -0.1275 -0.9903
vn 0.0455 -0.2152 -0.9755
vn 0.0521 -0.3165 -0.9472
vn 0.9801 0.0085 -0.1983
vn -0.0714 0.9323 -0.3546
vn 0.0535 -0.9820 0.1811
usemtl monstrosity
s 1
f 13/1/1 5/2/2 4/3/3 12/4/4
f 4/5/5 23/6/6 22/7/7
f 14/8/8 189/9/9 190/10/10 15/11/11
f 11/12/12 186/13/13 187/14/14 12/4/15
f 14/8/8 6/15/16 5/2/2 13/1/1
f 2/16/17 9/17/18 10/18/19
f 15/11/11 7/19/20 6/15/21 14/8/8
f 16/20/22 191/21/23 184/22/23 9/17/24
f 15/11/11 190/10/25 191/21/25 16/20/26
f 13/1/1 188/23/27 189/9/9 14/8/8
f 26/24/28 27/25/29 34/26/30
f 3/27/31 21/28/32 20/29/33
f 2/30/34 19/31/35 17/32/36
f 20/33/37 21/34/38 31/35/39
f 24/36/40 25/37/41 33/38/42
f 22/39/43 23/40/44 32/41/45
f 55/42/46 38/43/47 113/44/48
f 55/42/46 113/44/48 52/45/49
f 72/46/50 65/47/51 69/48/52
f 163/49/53 55/42/46 82/50/54
f 75/51/55 59/52/56 57/53/57
f 134/54/58 63/55/59 62/56/60
f 54/57/61 78/58/62 79/59/63
f 171/60/64 81/61/65 84/62/66
f 86/63/67 95/64/68 87/65/69
f 86/63/70 87/65/71 88/66/72
f 93/67/73 89/68/74 90/69/75
f 92/70/76 91/71/77 89/68/78
f 94/72/79 89/68/80 93/67/81
f 94/72/82 92/70/76 89/68/83
f 95/73/84 96/74/85 87/75/86
f 96/76/87 97/77/88 87/65/89
f 88/78/90 87/75/91 97/79/92
f 98/80/93 101/81/94 99/82/95
f 100/83/96 98/84/97 99/85/98
f 101/86/99 102/87/100 99/85/101
f 102/87/102 100/83/103 99/85/104
f 72/46/50 78/88/62 61/89/105
f 90/90/106 89/91/107 91/92/108
f 88/78/90 151/93/109 137/94/110
f 147/95/111 149/96/112 96/76/87
f 98/80/93 157/97/113 159/98/114
f 163/49/53 164/99/115 74/100/116
f 167/101/117 169/102/118 102/87/102
f 76/103/119 173/104/120 80/105/121
f 92/70/76 117/106/122 119/107/123
f 53/108/124 124/109/125 52/45/49
f 128/110/126 129/111/127 51/112/128
f 63/55/59 127/113/129 72/46/50
f 111/114/130 113/44/48 112/115/131
f 112/115/131 38/43/47 104/116/132
f 104/116/132 109/117/133 201/118/134 112/115/131
f 113/44/48 38/43/47 112/115/131
f 123/119/135 122/120/136 124/121/125
f 72/46/50 127/113/129 128/110/126
f 134/54/58 56/122/137 116/123/138
f 50/124/139 131/125/140 123/119/135
f 122/120/136 131/125/140 121/126/141
f 142/127/142 143/128/143 148/129/144
f 144/130/145 140/131/146 43/132/147
f 152/133/148 153/134/149 138/135/150
f 144/136/151 142/127/142 192/137/152 193/138/153
f 138/135/150 156/139/154 196/140/155 152/133/148
f 168/141/156 81/61/65 171/60/64
f 162/142/157 82/50/54 168/141/156
f 164/143/115 166/144/158 73/145/159
f 173/104/120 69/48/52 158/146/160
f 160/147/161 73/145/159 166/144/158
f 12/4/15 4/3/162 3/148/162 11/12/12
f 16/20/26 1/149/163 7/19/20 15/11/11
f 10/18/19 185/150/164 186/13/13 11/12/165
f 19/31/35 2/30/34 3/27/31 20/29/33
f 12/4/4 187/14/166 188/23/166 13/1/1
f 27/151/167 26/152/168 6/153/169 7/154/170
f 24/155/171 23/6/6 4/5/5 5/156/172
f 28/157/173 27/151/167 7/154/170 1/158/174
f 18/159/175 1/158/174 2/30/34 17/32/36
f 25/160/176 24/155/171 5/156/172 6/153/169
f 21/28/32 3/27/31 4/5/5 22/7/7
f 33/38/42 32/41/45 23/40/44 24/36/40
f 1/158/174 18/159/175 28/157/173
f 6/153/169 26/152/168 25/160/176
f 32/41/177 33/38/177 34/26/177 29/161/177 30/162/177 31/35/177
f 34/26/30 27/25/29 28/163/178 29/161/179
f 29/161/179 18/164/180 17/165/181 30/162/182
f 32/41/45 31/35/39 21/34/38 22/39/43
f 34/26/30 33/38/42 25/37/41 26/24/28
f 18/164/180 29/161/179 28/163/178
f 19/166/183 30/162/182 17/165/181
f 30/162/182 19/166/183 20/33/37 31/35/39
f 73/145/184 70/167/185 64/168/186 67/169/187
f 72/46/50 36/170/188 65/47/51
f 55/42/46 44/171/189 38/43/47
f 36/170/188 72/46/50 128/110/126
f 121/172/141 90/90/106 91/92/108
f 75/173/55 54/174/61 83/175/190
f 44/171/189 55/42/46 163/49/53
f 50/124/191 123/119/192 48/176/193 46/177/194
f 69/48/52 76/103/119 72/46/50
f 54/174/61 75/173/55 60/178/195
f 57/179/57 59/180/56 55/42/46 58/181/196
f 56/122/137 57/179/57 58/181/196
f 62/56/60 63/55/59 72/46/50 61/89/105
f 60/182/195 62/183/60 61/184/105
f 79/185/63 78/88/62 76/103/119 80/105/121
f 84/62/66 81/61/65 82/50/54 85/186/197
f 77/187/198 79/185/63 80/105/121
f 40/188/199 45/189/200 43/132/201 39/190/202
f 83/191/190 84/192/66 85/193/197
f 44/171/189 45/194/200 40/195/199 38/43/47
f 42/196/203 37/197/204 35/198/205 41/199/206
f 36/170/188 37/200/204 42/201/203 65/47/51
f 49/202/207 53/108/124 52/45/49 113/44/48
f 48/176/193 123/119/192 53/203/124 49/204/207
f 51/112/128 47/205/208 36/170/188 128/110/126
f 50/124/191 46/177/194 47/206/208 51/207/128
f 57/53/57 62/183/60 60/182/195 75/51/55
f 56/122/137 134/54/58 62/56/60 57/179/57
f 60/182/195 61/184/105 78/58/62 54/57/61
f 66/208/209 71/209/210 69/48/52 65/47/51
f 64/168/186 70/167/185 71/210/210 66/211/209
f 74/100/116 68/212/211 44/171/189 163/49/53
f 73/145/184 67/169/187 68/213/211 74/214/116
f 79/59/63 84/192/66 83/191/190 54/57/61
f 77/187/198 171/60/64 84/62/66 79/185/63
f 85/193/197 59/52/56 75/51/55 83/191/190
f 55/42/46 59/180/56 85/186/197 82/50/54
f 139/215/212 86/63/70 88/66/72 137/94/213
f 78/88/62 72/46/50 76/103/119
f 45/194/200 44/171/189 143/128/143 144/136/151
f 147/95/214 96/74/85 95/73/84 141/216/215
f 144/130/145 43/132/147 45/189/216
f 66/208/209 65/47/51 153/134/149 154/217/217
f 64/168/218 66/211/219 154/218/220 150/219/221
f 157/220/113 98/84/97 100/83/96 172/221/222
f 164/143/115 73/145/159 74/214/116
f 37/200/204 36/170/188 107/222/223 108/223/224
f 35/198/218 37/197/225 108/224/226 105/225/227
f 102/87/100 101/86/99 161/226/228 167/101/229
f 115/227/230 47/206/231 46/177/232 114/228/233
f 107/222/223 36/170/188 47/205/208 115/229/234
f 117/106/122 92/70/76 94/72/82 132/230/235
f 50/124/139 51/207/236 129/231/237 131/125/140
f 123/119/135 124/121/125 53/203/124
f 39/190/202 43/132/201 41/199/206 35/198/205
f 198/232/238 106/233/239 115/229/234 203/234/240
f 115/229/234 106/233/239 107/222/223
f 203/235/241 115/227/230 114/228/233 202/236/242
f 201/118/134 200/237/243 111/114/130 112/115/131
f 49/202/207 113/44/48 111/114/130
f 111/238/244 114/239/233 48/176/245 49/204/246
f 200/240/247 202/236/242 114/239/233 111/238/244
f 110/241/248 199/242/249 181/243/250 182/244/251
f 199/245/249 198/246/238 177/247/252 181/248/250
f 39/190/253 105/249/227 104/250/254 40/188/255
f 106/233/239 108/223/224 107/222/223
f 110/241/248 182/244/251 183/251/256 109/252/257
f 109/253/133 183/254/258 180/255/259 201/256/134
f 38/43/47 40/195/199 104/116/132
f 114/228/233 46/177/232 48/176/245
f 105/249/227 39/190/253 35/198/218
f 105/249/227 110/257/248 109/258/257 104/250/254
f 126/259/260 127/113/129 135/260/261 136/261/262
f 136/262/262 93/67/73 126/263/260
f 93/67/81 136/262/263 132/230/235 94/72/79
f 135/260/261 127/113/129 63/55/59
f 136/261/263 135/260/261 133/264/264 132/265/235
f 63/55/59 134/54/58 133/264/264 135/260/261
f 131/125/140 129/231/237 130/266/265 121/126/141
f 90/90/106 121/172/141 130/267/265
f 130/268/266 126/263/260 93/67/73 90/69/75
f 129/111/127 127/113/129 126/259/260 130/269/266
f 92/70/76 119/107/123 125/270/267 91/71/77
f 127/113/129 129/111/127 128/110/126
f 119/271/123 120/272/268 124/109/125 125/273/267
f 125/274/269 124/121/125 122/120/136 121/126/141
f 124/109/125 120/272/268 52/45/49
f 91/92/108 125/275/269 121/172/141
f 120/272/268 118/276/270 58/181/196 55/42/46
f 120/272/268 119/271/123 117/277/122 118/276/270
f 118/276/271 116/123/138 56/122/137 58/181/196
f 118/276/271 117/277/122 132/265/235 116/123/138
f 149/96/112 155/278/272 97/77/88 96/76/87
f 134/54/58 116/123/138 133/264/264
f 116/123/138 132/265/235 133/264/264
f 131/125/140 122/120/136 123/119/135
f 55/42/46 52/45/49 120/272/268
f 195/279/273 197/280/274 155/281/272 149/282/112
f 155/278/275 151/93/109 88/78/90 97/79/92
f 197/283/276 196/284/155 151/285/109 155/281/275
f 67/169/277 150/286/221 148/287/278 68/213/279
f 152/133/148 154/217/217 153/134/149
f 195/279/273 149/282/112 147/288/111 194/289/280
f 68/212/211 148/129/144 143/128/143 44/171/189
f 194/290/281 147/288/214 141/291/215 192/292/152
f 86/63/67 139/215/212 145/293/282 95/64/68
f 146/294/283 193/295/284 145/296/282 139/297/212
f 193/298/153 192/292/152 141/291/215 145/296/285
f 95/73/84 145/293/285 141/216/215
f 41/199/286 140/299/146 138/300/287 42/196/288
f 142/127/142 144/136/151 143/128/143
f 146/294/283 139/297/212 137/301/213 156/302/289
f 42/201/203 138/135/150 153/134/149 65/47/51
f 156/303/154 137/301/110 151/285/109 196/284/155
f 150/286/221 67/169/277 64/168/218
f 41/199/286 43/132/147 140/299/146
f 140/299/146 146/304/283 156/305/289 138/300/287
f 169/102/118 175/306/290 100/83/103 102/87/102
f 170/307/291 174/308/292 175/309/290 169/310/118
f 170/307/291 77/187/198 80/105/121 174/308/292
f 174/308/292 173/104/120 172/311/222 175/309/290
f 100/83/96 175/306/290 172/221/222
f 169/310/118 167/312/117 168/141/156 170/307/291
f 173/104/120 174/308/292 80/105/121
f 168/141/156 171/60/64 170/307/291
f 167/312/229 161/313/228 162/142/157 168/141/156
f 82/50/54 81/61/65 168/141/156
f 98/80/93 159/98/114 165/314/293 101/81/94
f 166/144/158 164/143/115 165/315/293 159/316/114
f 164/99/115 162/142/157 161/313/228 165/317/294
f 101/86/99 165/318/294 161/226/228
f 70/167/295 160/147/161 158/319/160 71/210/296
f 162/142/157 164/99/115 163/49/53
f 160/147/161 159/316/114 157/320/113 158/319/160
f 158/146/160 157/321/113 172/311/222 173/104/120
f 69/48/52 71/209/210 158/146/160
f 70/167/295 73/145/159 160/147/161
f 166/144/158 159/316/114 160/147/161
f 76/103/119 69/48/52 173/104/120
f 82/50/54 162/142/157 163/49/53
f 77/187/198 170/307/291 171/60/64
f 103/322/297 177/323/298 176/324/299
f 103/322/297 176/324/299 178/325/300
f 103/322/297 179/326/301 180/327/302
f 103/322/297 178/325/300 179/326/301
f 103/322/297 182/328/303 181/329/304
f 103/322/297 181/329/304 177/323/298
f 103/322/297 183/330/305 182/328/303
f 103/322/297 180/327/302 183/330/305
f 8/331/306 184/332/306 191/333/306
f 185/334/164 8/331/307 186/335/13
f 191/333/308 190/336/309 8/331/310
f 8/331/310 190/336/309 189/337/311
f 186/335/13 8/331/307 187/338/14
f 10/18/19 11/12/165 3/148/312 2/16/17
f 187/338/313 8/331/314 188/339/315
f 184/332/316 8/331/317 185/334/318
f 189/337/319 188/339/315 8/331/314
f 9/17/24 2/16/320 1/149/320 16/20/22
f 140/131/146 144/130/145 193/340/284 146/304/283
f 148/129/144 194/341/281 192/137/152 142/127/142
f 150/286/221 195/342/273 194/343/280 148/287/278
f 154/217/217 152/133/148 196/140/155 197/344/276
f 150/219/221 154/218/220 197/345/274 195/342/273
f 108/223/224 106/233/239 198/232/238 199/346/249
f 105/225/227 108/224/226 199/347/249 110/257/248
f 179/348/321 178/349/322 202/350/242 200/351/247
f 180/255/259 179/352/323 200/353/243 201/256/134
f 176/354/324 203/355/241 202/350/242 178/349/322
f 177/247/325 198/246/238 203/356/240 176/357/325
f 246/358/326 225/359/327 226/360/328 248/361/328
f 240/362/329 222/363/329 223/364/329 242/365/329
f 206/366/330 241/367/331 243/368/332 207/369/333
f 250/370/334 227/371/335 228/372/336 252/373/337
f 248/361/338 226/360/338 227/371/335 250/370/334
f 244/374/339 224/375/340 225/359/327 246/358/326
f 239/376/341 221/377/341 222/363/341 240/362/341
f 211/378/342 251/379/343 253/380/344 212/381/345
f 252/373/337 228/372/336 221/377/346 239/376/346
f 242/365/347 223/364/347 224/375/340 244/374/339
f 204/382/348 221/383/349 228/384/350
f 209/385/351 247/386/352 249/387/353 210/388/354
f 207/369/333 243/368/355 245/389/355 208/390/356
f 222/391/357 204/382/358 223/392/359
f 205/393/360 212/381/361 253/380/362 238/394/362
f 208/390/363 245/389/364 247/386/352 209/385/351
f 210/388/365 249/387/366 251/379/343 211/378/342
f 219/395/367 218/396/367 217/397/368 220/398/369
f 228/384/350 227/399/370 204/382/348
f 204/382/348 227/399/370 226/400/371
f 223/392/372 204/382/373 224/401/374
f 224/401/374 204/382/373 225/402/375
f 221/383/376 204/382/358 222/391/357
f 226/400/377 225/402/375 204/382/373
f 237/403/378 205/393/360 206/366/330 236/404/379
f 229/405/380 230/406/381 237/407/382
f 235/408/383 207/369/333 208/390/356 234/409/384
f 233/410/385 209/385/351 210/388/354 232/411/385
f 231/412/386 229/405/387 232/413/388
f 232/411/389 210/388/365 211/378/342 231/414/389
f 234/409/390 208/390/363 209/385/351 233/410/390
f 236/404/391 206/366/330 207/369/333 235/408/383
f 230/415/392 212/381/361 205/393/360 237/403/378
f 237/407/382 236/416/393 229/405/380
f 229/405/394 236/416/395 235/417/396
f 232/413/397 229/405/398 233/418/399
f 233/418/399 229/405/398 234/419/400
f 230/406/401 229/405/387 231/412/386
f 235/417/396 234/419/402 229/405/394
f 231/414/403 211/378/342 212/381/345 230/415/403
f 9/17/18 184/22/316 185/150/318 10/18/19
f 253/420/404 251/421/405 273/422/406 277/423/407
f 252/424/408 239/425/409 219/426/410 274/427/411
f 240/428/412 242/429/413 254/430/414 218/431/415
f 242/429/413 244/432/416 258/433/417 254/430/414
f 244/432/416 246/434/418 262/435/419 258/433/417
f 241/436/420 238/437/421 214/438/422 213/439/423
f 246/434/418 248/440/424 266/441/425 262/435/419
f 243/442/426 241/436/420 213/439/423 257/443/427
f 248/440/424 250/444/428 270/445/429 266/441/425
f 239/425/409 240/428/412 218/431/415 219/426/410
f 245/446/430 243/442/426 257/443/427 261/447/431
f 250/444/428 252/424/408 274/427/411 270/445/429
f 247/448/432 245/446/430 261/447/431 265/449/433
f 238/437/421 253/420/404 277/423/407 214/438/422
f 249/450/434 247/448/432 265/449/433 269/451/435
f 251/421/405 249/450/434 269/451/435 273/422/406
f 205/393/360 238/394/436 241/367/331 206/366/330
f 256/452/437 215/453/438 284/454/439 282/455/440
f 216/456/441 215/457/438 213/458/442 214/459/443
f 218/396/444 254/460/444 255/461/445 217/397/368
f 216/462/441 276/463/446 293/464/447 278/465/448
f 215/457/438 256/466/437 257/467/449 213/458/442
f 254/460/450 258/468/451 259/469/452 255/461/445
f 260/470/453 256/452/437 282/455/440 285/471/454
f 256/466/437 260/472/453 261/473/455 257/467/449
f 258/468/451 262/474/456 263/475/457 259/469/452
f 220/476/369 217/477/368 283/478/458 279/479/459
f 260/472/453 264/480/460 265/481/461 261/473/455
f 262/474/456 266/482/462 267/483/463 263/475/457
f 215/453/438 216/462/441 278/465/448 284/454/439
f 264/480/460 268/484/464 269/485/464 265/481/461
f 266/482/465 270/486/466 271/487/467 267/483/465
f 264/488/468 260/470/453 285/471/454 287/489/469
f 268/484/470 272/490/471 273/491/472 269/485/470
f 270/486/466 274/492/473 275/493/474 271/487/467
f 255/494/445 259/495/452 280/496/475 281/497/476
f 272/490/471 276/498/477 277/499/478 273/491/472
f 214/459/479 277/499/478 276/498/477 216/456/479
f 268/500/480 264/488/468 287/489/469 289/501/481
f 220/398/369 275/493/474 274/492/473 219/395/482
f 279/502/459 283/503/458 284/504/439 278/505/448
f 283/503/458 281/506/476 282/507/440 284/504/439
f 281/506/476 280/508/475 285/509/454 282/507/440
f 280/508/475 286/510/483 287/511/469 285/509/454
f 286/510/483 288/512/484 289/513/481 287/511/469
f 288/512/484 290/514/485 291/515/486 289/513/481
f 290/514/485 292/516/487 293/517/447 291/515/486
f 278/505/448 293/517/447 292/516/487 279/502/459
f 275/518/474 220/476/369 279/479/459 292/519/487
f 271/520/467 275/518/474 292/519/487 290/521/485
f 267/522/463 271/520/467 290/521/485 288/523/484
f 263/524/457 267/522/463 288/523/484 286/525/483
f 259/495/452 263/524/457 286/525/483 280/496/475
f 217/477/368 255/494/445 281/497/476 283/478/458
f 276/463/446 272/526/488 291/527/486 293/464/447
f 272/526/488 268/500/480 289/501/481 291/527/486
f 296/528/489 295/529/490 303/530/491 304/531/492
f 301/532/493 300/533/494 308/534/495 309/535/496
f 299/536/497 298/537/498 306/538/499 307/539/500
f 297/540/501 296/528/489 304/531/492 305/541/502
f 295/529/490 294/542/503 302/543/504 303/530/491
f 326/544/505 327/545/506 302/543/504 294/542/503
f 300/533/494 299/536/497 307/539/500 308/534/495
f 330/546/507 297/540/501 305/541/502 331/547/508
f 312/548/509 320/549/510 319/550/511 311/551/512
f 317/552/513 325/553/514 324/554/515 316/555/516
f 315/556/517 323/557/518 322/558/519 314/559/520
f 313/560/521 321/561/522 320/549/510 312/548/509
f 311/551/512 319/550/511 318/562/523 310/563/524
f 328/564/525 310/563/524 318/562/523 329/565/526
f 316/555/516 324/554/515 323/557/518 315/556/517
f 332/566/527 333/567/528 321/561/522 313/560/521
f 385/568/529 384/569/530 317/552/531 316/555/532
f 309/535/533 308/534/534 324/554/534 325/553/535
f 392/570/536 386/571/537 310/563/538 328/564/539
f 386/571/537 387/572/540 311/551/541 310/563/538
f 327/545/542 309/535/533 325/553/535 329/565/543
f 303/530/544 302/543/545 318/562/546 319/550/544
f 387/572/540 388/573/547 312/548/548 311/551/541
f 304/531/549 303/530/550 319/550/550 320/549/551
f 388/573/547 389/574/552 313/560/553 312/548/548
f 305/541/554 304/531/549 320/549/551 321/561/555
f 393/575/556 390/576/557 314/559/558 332/566/559
f 331/547/560 305/541/554 321/561/555 333/567/561
f 390/576/557 391/577/562 315/556/563 314/559/558
f 307/539/564 306/538/565 322/558/566 323/557/567
f 391/577/562 385/568/529 316/555/532 315/556/563
f 308/534/568 307/539/564 323/557/567 324/554/568
f 302/543/545 327/545/542 329/565/543 318/562/546
f 384/569/530 392/570/536 328/564/539 317/552/531
f 317/552/513 328/564/525 329/565/526 325/553/514
f 301/532/493 309/535/496 327/545/506 326/544/505
f 306/538/565 331/547/560 333/567/561 322/558/566
f 389/574/552 393/575/556 332/566/559 313/560/553
f 314/559/520 322/558/519 333/567/528 332/566/527
f 298/537/498 330/546/507 331/547/508 306/538/499
f 336/578/569 335/579/570 343/580/571 344/581/572
f 341/582/573 340/583/574 348/584/575 349/585/576
f 339/586/577 338/587/578 346/588/579 347/589/580
f 337/590/581 336/578/569 344/581/572 345/591/582
f 335/579/570 334/592/583 342/593/584 343/580/571
f 366/594/585 367/595/586 342/593/584 334/592/583
f 340/583/574 339/586/577 347/589/580 348/584/575
f 370/596/587 337/590/581 345/591/582 371/597/588
f 352/598/589 360/599/590 359/600/591 351/601/592
f 357/602/593 365/603/594 364/604/595 356/605/596
f 355/606/597 363/607/598 362/608/599 354/609/600
f 353/610/601 361/611/602 360/599/590 352/598/589
f 351/601/592 359/600/591 358/612/603 350/613/604
f 368/614/605 350/613/604 358/612/603 369/615/606
f 356/605/596 364/604/595 363/607/598 355/606/597
f 372/616/607 373/617/608 361/611/602 353/610/601
f 375/618/609 374/619/610 357/602/611 356/605/612
f 349/585/613 348/584/614 364/604/614 365/603/615
f 382/620/616 376/621/617 350/613/618 368/614/619
f 376/621/617 377/622/620 351/601/621 350/613/618
f 367/595/622 349/585/613 365/603/615 369/615/623
f 343/580/624 342/593/625 358/612/626 359/600/624
f 377/622/620 378/623/627 352/598/628 351/601/621
f 344/581/629 343/580/630 359/600/630 360/599/631
f 378/623/627 379/624/632 353/610/633 352/598/628
f 345/591/634 344/581/629 360/599/631 361/611/635
f 383/625/636 380/626/637 354/609/638 372/616/639
f 371/597/640 345/591/634 361/611/635 373/617/641
f 380/626/637 381/627/642 355/606/643 354/609/638
f 347/589/644 346/588/645 362/608/646 363/607/647
f 381/627/642 375/618/609 356/605/648 355/606/643
f 348/584/649 347/589/644 363/607/647 364/604/649
f 342/593/625 367/595/622 369/615/623 358/612/626
f 374/619/610 382/620/616 368/614/619 357/602/611
f 357/602/593 368/614/605 369/615/606 365/603/594
f 341/582/573 349/585/576 367/595/586 366/594/585
f 346/588/645 371/597/640 373/617/641 362/608/646
f 379/624/632 383/625/636 372/616/639 353/610/633
f 354/609/600 362/608/599 373/617/608 372/616/607
f 338/587/578 370/596/587 371/597/588 346/588/579
f 337/590/650 370/596/651 383/625/636 379/624/632
f 341/582/652 366/594/653 382/620/616 374/619/610
f 339/586/654 340/583/655 375/618/609 381/627/642
f 338/587/656 339/586/654 381/627/642 380/626/637
f 370/596/651 338/587/656 380/626/637 383/625/636
f 336/578/657 337/590/650 379/624/632 378/623/627
f 335/579/658 336/578/657 378/623/627 377/622/620
f 334/592/659 335/579/660 377/622/620 376/621/617
f 366/594/653 334/592/659 376/621/617 382/620/616
f 340/583/655 341/582/652 374/619/610 375/618/609
f 297/540/661 330/546/662 393/575/556 389/574/552
f 301/532/663 326/544/664 392/570/536 384/569/530
f 299/536/665 300/533/666 385/568/529 391/577/562
f 298/537/667 299/536/665 391/577/562 390/576/557
f 330/546/662 298/537/667 390/576/557 393/575/556
f 296/528/668 297/540/661 389/574/552 388/573/547
f 295/529/669 296/528/668 388/573/547 387/572/540
f 294/542/670 295/529/669 387/572/540 386/571/537
f 326/544/664 294/542/670 386/571/537 392/570/536
f 300/533/666 301/532/663 384/569/530 385/568/529
f 407/628/671 400/629/671 399/630/672 408/631/672
f 408/631/672 399/630/672 401/632/673 409/633/673
f 409/633/674 401/632/674 402/634/675 410/635/675
f 410/635/675 402/634/675 403/636/676 411/637/676
f 411/637/677 403/636/677 404/638/678 412/639/678
f 412/639/678 404/638/678 405/640/679 413/641/679
f 413/641/680 405/640/680 406/642/681 414/643/681
f 414/643/681 406/642/681 400/629/682 407/628/682
f 396/644/683 397/645/683 416/646/683 415/647/683
f 395/648/684 399/649/685 400/650/686
f 395/648/684 401/651/687 399/649/685
f 395/648/684 402/652/688 401/651/687
f 395/648/684 403/653/689 402/652/688
f 395/648/684 404/654/690 403/653/689
f 395/648/684 405/655/691 404/654/690
f 395/648/684 406/656/692 405/655/691
f 395/648/684 400/650/686 406/656/692
f 396/644/693 394/657/694 407/628/695 408/631/696
f 396/644/693 408/631/696 409/633/697
f 397/645/698 396/644/693 409/633/697 410/635/699
f 397/645/698 410/635/699 411/637/700
f 398/658/701 397/645/698 411/637/700 412/639/702
f 398/658/701 412/639/702 413/641/703
f 394/657/694 398/658/701 413/641/703 414/643/704
f 394/657/694 414/643/704 407/628/695
f 398/658/705 394/657/705 418/659/705 417/660/705
f 397/645/706 398/658/706 417/660/706 416/646/706
f 394/657/707 396/644/707 415/647/707 418/659/707
f 432/661/708 425/662/708 424/663/709 433/664/709
f 433/664/709 424/663/709 426/665/710 434/666/710
f 434/666/711 426/665/711 427/667/712 435/668/712
f 435/668/712 427/667/712 428/669/713 436/670/713
f 436/670/714 428/669/714 429/671/715 437/672/715
f 437/672/715 429/671/715 430/673/716 438/674/716
f 438/674/717 430/673/717 431/675/718 439/676/718
f 439/676/718 431/675/718 425/662/719 432/661/719
f 421/677/720 422/678/720 441/679/720 440/680/720
f 420/681/721 424/682/722 425/683/723
f 420/681/721 426/684/724 424/682/722
f 420/681/721 427/685/725 426/684/724
f 420/681/721 428/686/726 427/685/725
f 420/681/721 429/687/727 428/686/726
f 420/681/721 430/688/728 429/687/727
f 420/681/721 431/689/729 430/688/728
f 420/681/721 425/683/723 431/689/729
f 421/677/730 419/690/731 432/661/732 433/664/733
f 421/677/730 433/664/733 434/666/734
f 422/678/735 421/677/730 434/666/734 435/668/736
f 422/678/735 435/668/736 436/670/737
f 423/691/738 422/678/735 436/670/737 437/672/739
f 423/691/738 437/672/739 438/674/740
f 419/690/731 423/691/738 438/674/740 439/676/741
f 419/690/731 439/676/741 432/661/732
f 423/691/742 419/690/742 443/692/742 442/693/742
f 422/678/743 423/691/743 442/693/743 441/679/743
f 419/690/744 421/677/744 440/680/744 443/692/744
f 457/694/745 450/695/745 449/696/746 458/697/746
f 458/697/746 449/696/746 451/698/747 459/699/747
f 459/699/748 451/698/748 452/700/749 460/701/749
f 460/701/749 452/700/749 453/702/750 461/703/750
f 461/703/751 453/702/751 454/704/752 462/705/752
f 462/705/752 454/704/752 455/706/753 463/707/753
f 463/707/754 455/706/754 456/708/755 464/709/755
f 464/709/755 456/708/755 450/695/756 457/694/756
f 446/710/757 447/711/757 466/712/757 465/713/757
f 445/714/758 449/715/759 450/716/760
f 445/714/758 451/717/761 449/715/759
f 445/714/758 452/718/762 451/717/761
f 445/714/758 453/719/763 452/718/762
f 445/714/758 454/720/764 453/719/763
f 445/714/758 455/721/765 454/720/764
f 445/714/758 456/722/766 455/721/765
f 445/714/758 450/716/760 456/722/766
f 446/710/767 444/723/768 457/694/769 458/697/770
f 446/710/767 458/697/770 459/699/771
f 447/711/772 446/710/767 459/699/771 460/701/773
f 447/711/772 460/701/773 461/703/774
f 448/724/775 447/711/772 461/703/774 462/705/776
f 448/724/775 462/705/776 463/707/777
f 444/723/768 448/724/775 463/707/777 464/709/778
f 444/723/768 464/709/778 457/694/769
f 448/724/779 444/723/779 468/725/779 467/726/779
f 447/711/780 448/724/780 467/726/780 466/712/780
f 444/723/781 446/710/781 465/713/781 468/725/781
f 482/727/782 475/728/782 474/729/783 483/730/783
f 483/730/783 474/729/783 476/731/784 484/732/784
f 484/732/785 476/731/785 477/733/786 485/734/786
f 485/734/786 477/733/786 478/735/787 486/736/787
f 486/736/788 478/735/788 479/737/789 487/738/789
f 487/738/789 479/737/789 480/739/790 488/740/790
f 488/740/791 480/739/791 481/741/792 489/742/792
f 489/742/792 481/741/792 475/728/793 482/727/793
f 471/743/794 472/744/794 491/745/794 490/746/794
f 470/747/795 474/748/796 475/749/797
f 470/747/795 476/750/798 474/748/796
f 470/747/795 477/751/799 476/750/798
f 470/747/795 478/752/800 477/751/799
f 470/747/795 479/753/801 478/752/800
f 470/747/795 480/754/802 479/753/801
f 470/747/795 481/755/803 480/754/802
f 470/747/795 475/749/797 481/755/803
f 471/743/804 469/756/805 482/727/806 483/730/807
f 471/743/804 483/730/807 484/732/808
f 472/744/809 471/743/804 484/732/808 485/734/810
f 472/744/809 485/734/810 486/736/811
f 473/757/812 472/744/809 486/736/811 487/738/813
f 473/757/812 487/738/813 488/740/814
f 469/756/805 473/757/812 488/740/814 489/742/815
f 469/756/805 489/742/815 482/727/806
f 473/757/816 469/756/816 493/758/816 492/759/816
f 472/744/817 473/757/817 492/759/817 491/745/817
f 469/756/818 471/743/818 490/746/818 493/758/818
