# Blender v3.4.1 OBJ File: 'August2024_Superhero_Assets_Export.blend'
# www.blender.org
mtllib Cape_SingleSidedForClothPhysics.mtl
o Cape_SingleSidedForClothPhysics
v -0.629078 -0.815556 -0.463889
v 0.629077 -0.815556 -0.463889
v -0.566163 -0.576118 -0.384681
v -0.498564 -0.379899 -0.406769
v -0.425397 -0.179776 -0.423174
v 0.425395 -0.179776 -0.423174
v 0.498562 -0.379899 -0.406769
v 0.566161 -0.576118 -0.384681
v 0.334142 -0.786241 -0.429626
v 0.111526 -0.785523 -0.458852
v -0.111526 -0.785523 -0.458852
v -0.334142 -0.786241 -0.429626
v -0.260232 -0.179776 -0.400568
v -0.271408 -0.379899 -0.382414
v -0.294480 -0.576217 -0.360869
v -0.092332 -0.179776 -0.435222
v -0.091730 -0.379899 -0.417092
v -0.097092 -0.576273 -0.395057
v 0.092333 -0.179776 -0.435222
v 0.091731 -0.379899 -0.417092
v 0.097093 -0.576273 -0.395057
v 0.260233 -0.179776 -0.400568
v 0.271408 -0.379899 -0.382414
v 0.294480 -0.576217 -0.360869
v -0.650159 -1.042272 -0.629109
v 0.650158 -1.042272 -0.629109
v 0.392994 -1.028273 -0.599655
v 0.137867 -1.019665 -0.646386
v -0.137865 -1.019665 -0.646386
v -0.392995 -1.028273 -0.599655
v -0.283962 0.068292 -0.008557
v -0.334965 0.047549 -0.187413
v 0.334971 0.047548 -0.187413
v 0.283966 0.068292 -0.008557
v -0.241895 0.050941 -0.160299
v -0.102338 0.061230 -0.012069
v -0.090315 0.047888 -0.197645
v 0.102339 0.061230 -0.012069
v 0.090316 0.047888 -0.197645
v 0.241897 0.050941 -0.160300
v -0.377388 -0.024370 -0.334509
v -0.249097 -0.024370 -0.311921
v 0.249099 -0.024370 -0.311921
v 0.377390 -0.024370 -0.334509
v -0.090804 -0.024370 -0.346765
v 0.090805 -0.024370 -0.346765
v 0.599293 -0.683322 -0.405857
v -0.474199 -0.801278 -0.484793
v -0.599294 -0.683322 -0.405857
v -0.533211 -0.478946 -0.389677
v -0.460759 -0.278049 -0.422932
v 0.460757 -0.278049 -0.422932
v 0.533210 -0.478946 -0.389676
v 0.474198 -0.801278 -0.484793
v 0.217948 -0.777672 -0.486171
v 0.000000 -0.796175 -0.374745
v -0.217947 -0.777672 -0.486171
v -0.311823 -0.676790 -0.378788
v -0.265215 -0.278049 -0.399950
v -0.281046 -0.478946 -0.366572
v -0.102843 -0.676281 -0.409699
v -0.091875 -0.278049 -0.434563
v -0.093407 -0.478946 -0.401399
v 0.102844 -0.676281 -0.409699
v 0.091876 -0.278049 -0.434563
v 0.093408 -0.478946 -0.401399
v 0.311823 -0.676790 -0.378788
v 0.265216 -0.278049 -0.399950
v 0.281047 -0.478946 -0.366572
v -0.342523 -0.179776 -0.457484
v -0.380001 -0.379899 -0.439594
v -0.422832 -0.576375 -0.417456
v -0.178183 -0.179776 -0.458506
v -0.178719 -0.379899 -0.440359
v -0.190393 -0.576254 -0.418510
v 0.000000 -0.179776 -0.353854
v 0.000000 -0.379899 -0.335731
v 0.000000 -0.576273 -0.313715
v 0.178184 -0.179776 -0.458506
v 0.178720 -0.379899 -0.440359
v 0.190394 -0.576254 -0.418510
v 0.342522 -0.179776 -0.457484
v 0.380001 -0.379899 -0.439594
v 0.422831 -0.576375 -0.417456
v -0.522264 -1.045849 -0.658754
v 0.522262 -1.045849 -0.658754
v 0.265973 -1.000743 -0.660081
v 0.000002 -1.050503 -0.572217
v -0.265972 -1.000742 -0.660081
v -0.123695 -0.898224 -0.555028
v -0.361999 -0.906326 -0.518543
v -0.645411 -0.952855 -0.560271
v 0.361998 -0.906326 -0.518544
v 0.123697 -0.898224 -0.555028
v 0.645410 -0.952855 -0.560271
v -0.294577 0.046958 -0.223733
v -0.297188 0.063965 -0.106709
v -0.090048 0.063269 -0.113241
v -0.172725 0.047607 -0.217453
v 0.192469 0.068372 -0.019321
v 0.090049 0.063269 -0.113241
v 0.000000 0.048221 -0.117851
v 0.000000 0.052246 -0.009352
v 0.172726 0.047607 -0.217453
v 0.297194 0.063965 -0.106709
v 0.294581 0.046958 -0.223733
v 0.239343 0.061796 -0.140911
v -0.359104 0.021518 -0.264879
v -0.254505 -0.093002 -0.368749
v 0.245252 0.021518 -0.241697
v 0.398084 -0.093002 -0.391304
v -0.091759 -0.093002 -0.403560
v 0.091760 -0.093002 -0.403560
v -0.398084 -0.093002 -0.391304
v -0.245250 0.021518 -0.241697
v 0.254506 -0.093002 -0.368749
v 0.359109 0.021518 -0.264879
v -0.090361 0.021518 -0.276877
v 0.090362 0.021518 -0.276877
v -0.174381 -0.024370 -0.370013
v 0.315518 -0.024370 -0.368534
v 0.174382 -0.024370 -0.370013
v 0.000000 -0.024370 -0.265407
v -0.315516 -0.024370 -0.368534
v -0.239340 0.061796 -0.140910
v -0.192467 0.068371 -0.019321
v 0.447643 -0.679688 -0.434073
v -0.447643 -0.679688 -0.434073
v -0.201645 -0.674596 -0.436405
v 0.000000 -0.678312 -0.326648
v 0.201645 -0.674596 -0.436405
v -0.327546 -0.093002 -0.425339
v -0.360361 -0.278049 -0.457430
v -0.400557 -0.478946 -0.423354
v 0.000000 -0.093002 -0.322196
v -0.178096 -0.278049 -0.457845
v -0.182743 -0.478946 -0.424633
v 0.000000 -0.278049 -0.353198
v 0.000000 -0.478946 -0.320048
v 0.176564 -0.093002 -0.426826
v 0.178097 -0.278049 -0.457845
v 0.182744 -0.478946 -0.424633
v 0.327547 -0.093002 -0.425339
v -0.176564 -0.093002 -0.426826
v 0.360361 -0.278049 -0.457430
v 0.400557 -0.478946 -0.423354
v -0.240243 -0.884473 -0.576028
v -0.500336 -0.928522 -0.577519
v 0.240243 -0.884473 -0.576028
v 0.000001 -0.920798 -0.475993
v 0.500334 -0.928522 -0.577519
v -0.281068 0.059473 -0.158140
v -0.171813 0.064571 -0.125990
v 0.000000 0.057332 -0.108365
v 0.171815 0.064571 -0.125990
v 0.281072 0.059473 -0.158140
v -0.173203 0.021518 -0.299681
v 0.305641 0.021518 -0.299172
v 0.173204 0.021518 -0.299681
v 0.000000 0.021518 -0.195720
v -0.305638 0.021518 -0.299172
v -0.101291 -0.031135 0.208193
v 0.101293 -0.031135 0.208193
v -0.265791 0.062384 0.077675
v 0.265795 0.062384 0.077674
v -0.095789 0.050226 0.081574
v 0.095791 0.050226 0.081574
v 0.000001 -0.051218 0.218551
v 0.180153 0.059108 0.071584
v 0.000000 0.041358 0.081244
v -0.191147 0.018791 0.157827
v 0.191149 0.018791 0.157827
v -0.093264 0.015837 0.158334
v 0.093265 0.015837 0.158334
v -0.180151 0.059108 0.071584
v -0.159858 0.029591 0.136387
v 0.159860 0.029591 0.136387
v 0.000000 0.004938 0.160093
vt 0.202942 0.563551
vt 0.210016 0.585674
vt 0.211383 0.576270
vt 0.203898 0.554396
vt 0.217915 0.585698
vt 0.219741 0.575939
vt 0.221383 0.563903
vt 0.212847 0.565202
vt 0.205128 0.544433
vt 0.155509 0.585698
vt 0.163409 0.585674
vt 0.162041 0.576270
vt 0.153683 0.575939
vt 0.170482 0.563551
vt 0.169527 0.554396
vt 0.168297 0.544433
vt 0.160577 0.565202
vt 0.152042 0.563903
vt 0.176219 0.585685
vt 0.175599 0.576734
vt 0.181361 0.585684
vt 0.181044 0.576580
vt 0.180566 0.566636
vt 0.174700 0.567351
vt 0.186712 0.563546
vt 0.186712 0.554258
vt 0.192063 0.585684
vt 0.192380 0.576580
vt 0.192859 0.566636
vt 0.186712 0.543529
vt 0.197206 0.585685
vt 0.197826 0.576734
vt 0.198724 0.567351
vt 0.165913 0.635921
vt 0.169323 0.635921
vt 0.168660 0.629674
vt 0.164772 0.629674
vt 0.172984 0.613783
vt 0.172686 0.607536
vt 0.172370 0.599637
vt 0.167835 0.621775
vt 0.163267 0.621775
vt 0.166851 0.612830
vt 0.161318 0.612830
vt 0.172095 0.590692
vt 0.171754 0.581421
vt 0.165769 0.603559
vt 0.159235 0.603559
vt 0.164636 0.594543
vt 0.157325 0.594543
vt 0.171223 0.572405
vt 0.181708 0.635921
vt 0.186712 0.613783
vt 0.186712 0.607536
vt 0.181655 0.629674
vt 0.191717 0.635921
vt 0.191770 0.629674
vt 0.191801 0.621775
vt 0.186712 0.599637
vt 0.181624 0.621775
vt 0.176105 0.644363
vt 0.171062 0.622218
vt 0.172064 0.643818
vt 0.176784 0.643520
vt 0.176892 0.621775
vt 0.176897 0.612830
vt 0.181649 0.612830
vt 0.181657 0.603559
vt 0.176862 0.603559
vt 0.176641 0.594543
vt 0.181564 0.594543
vt 0.202363 0.622218
vt 0.197320 0.644363
vt 0.196641 0.643520
vt 0.201361 0.643818
vt 0.192353 0.643713
vt 0.186712 0.620757
vt 0.186712 0.619766
vt 0.191992 0.642711
vt 0.186712 0.590692
vt 0.191776 0.612830
vt 0.191768 0.603559
vt 0.186712 0.581421
vt 0.186712 0.572405
vt 0.191860 0.594543
vt 0.196323 0.635921
vt 0.196443 0.629674
vt 0.200441 0.613783
vt 0.200739 0.607536
vt 0.201055 0.599637
vt 0.196533 0.621775
vt 0.196528 0.612830
vt 0.201329 0.590692
vt 0.201671 0.581421
vt 0.196562 0.603559
vt 0.196784 0.594543
vt 0.202202 0.572405
vt 0.204102 0.635921
vt 0.204765 0.629674
vt 0.207512 0.635921
vt 0.208652 0.629674
vt 0.210157 0.621775
vt 0.205590 0.621775
vt 0.177102 0.635921
vt 0.176981 0.629674
vt 0.206573 0.612830
vt 0.212106 0.612830
vt 0.214190 0.603559
vt 0.207655 0.603559
vt 0.208788 0.594543
vt 0.216099 0.594543
vt 0.173472 0.557629
vt 0.166761 0.533502
vt 0.179895 0.556378
vt 0.179114 0.545323
vt 0.172054 0.547046
vt 0.165053 0.522402
vt 0.159137 0.553620
vt 0.151141 0.551405
vt 0.157928 0.542940
vt 0.150880 0.543265
vt 0.199953 0.557629
vt 0.193530 0.556378
vt 0.206663 0.533502
vt 0.208372 0.522402
vt 0.201371 0.547046
vt 0.194311 0.545323
vt 0.186712 0.532185
vt 0.186712 0.520379
vt 0.214288 0.553620
vt 0.222283 0.551405
vt 0.222545 0.543265
vt 0.215496 0.542940
vt 0.173381 0.620638
vt 0.170477 0.642414
vt 0.171222 0.643553
vt 0.173521 0.621627
vt 0.168251 0.642467
vt 0.170333 0.643962
vt 0.181735 0.642498
vt 0.177193 0.642473
vt 0.177243 0.644017
vt 0.181749 0.643898
vt 0.181072 0.643713
vt 0.191690 0.642498
vt 0.186712 0.620391
vt 0.186712 0.621220
vt 0.191675 0.643898
vt 0.200044 0.620638
vt 0.196232 0.642473
vt 0.196182 0.644017
vt 0.199903 0.621627
vt 0.205174 0.642467
vt 0.202948 0.642414
vt 0.202203 0.643553
vt 0.203092 0.643962
vt 0.177166 0.640098
vt 0.173196 0.617960
vt 0.181732 0.640098
vt 0.203557 0.640098
vt 0.200229 0.617960
vt 0.206504 0.640098
vt 0.196258 0.640098
vt 0.191692 0.640098
vt 0.186712 0.617960
vt 0.169868 0.640098
vt 0.166921 0.640098
vt 0.181130 0.635305
vt 0.181572 0.639581
vt 0.177902 0.640833
vt 0.176178 0.639850
vt 0.181433 0.642711
vt 0.192295 0.635305
vt 0.197247 0.639850
vt 0.195523 0.640833
vt 0.191852 0.639581
vt 0.186712 0.611339
vt 0.186712 0.616451
vn -0.4038 -0.0384 -0.9141
vn -0.0980 0.0485 -0.9940
vn -0.0883 0.2795 -0.9561
vn -0.3693 0.1748 -0.9127
vn 0.2149 0.1398 -0.9666
vn 0.1823 0.3382 -0.9233
vn 0.1732 0.5171 -0.8382
vn -0.0579 0.4920 -0.8687
vn -0.3095 0.3981 -0.8636
vn -0.2149 0.1398 -0.9666
vn 0.0980 0.0485 -0.9940
vn 0.0883 0.2795 -0.9561
vn -0.1823 0.3382 -0.9233
vn 0.4038 -0.0384 -0.9141
vn 0.3693 0.1748 -0.9127
vn 0.3095 0.3981 -0.8636
vn 0.0579 0.4920 -0.8687
vn -0.1732 0.5171 -0.8382
vn -0.4819 0.1194 -0.8681
vn -0.1250 0.0780 -0.9891
vn -0.1020 0.3289 -0.9388
vn -0.4442 0.3405 -0.8287
vn 0.4648 0.0211 -0.8852
vn 0.4526 0.2330 -0.8607
vn 0.4157 0.4693 -0.7791
vn -0.0933 0.5593 -0.8237
vn -0.4129 0.5376 -0.7352
vn 0.6426 0.0117 -0.7661
vn 0.6209 0.1824 -0.7624
vn -0.6426 0.0117 -0.7661
vn -0.4648 0.0211 -0.8852
vn -0.4526 0.2330 -0.8607
vn -0.6209 0.1824 -0.7624
vn -0.4157 0.4693 -0.7791
vn -0.5757 0.3947 -0.7161
vn 0.5757 0.3947 -0.7161
vn 0.1250 0.0780 -0.9891
vn 0.1020 0.3289 -0.9388
vn 0.4819 0.1194 -0.8681
vn 0.4442 0.3405 -0.8287
vn 0.4129 0.5376 -0.7352
vn 0.0933 0.5593 -0.8237
vn -0.3186 0.7505 -0.5789
vn 0.1103 0.7172 -0.6881
vn 0.1156 0.4801 -0.8696
vn -0.3652 0.5266 -0.7677
vn 0.4983 0.6480 -0.5761
vn 0.5653 0.3888 -0.7275
vn 0.5656 0.0912 -0.8196
vn 0.1079 0.1794 -0.9778
vn -0.3646 0.2285 -0.9027
vn 0.1002 -0.0680 -0.9926
vn -0.3164 -0.0104 -0.9486
vn 0.5118 -0.1376 -0.8480
vn 0.4584 -0.2086 -0.8639
vn 0.0991 -0.1574 -0.9825
vn -0.2694 -0.0854 -0.9592
vn 0.0980 -0.1138 -0.9887
vn -0.2425 -0.0280 -0.9698
vn 0.4257 -0.1705 -0.8887
vn 0.3559 0.6887 -0.6317
vn 0.4904 0.6776 -0.5481
vn 0.6019 0.4223 -0.6778
vn 0.4250 0.4433 -0.7892
vn -0.4904 0.6776 -0.5481
vn -0.3559 0.6887 -0.6317
vn -0.4250 0.4433 -0.7892
vn -0.6019 0.4223 -0.6778
vn -0.4592 0.1495 -0.8757
vn -0.6557 0.1392 -0.7420
vn 0.6557 0.1392 -0.7420
vn 0.4592 0.1495 -0.8757
vn 0.0304 0.9992 0.0278
vn 0.0074 0.9997 0.0254
vn 0.0321 0.9780 0.2062
vn 0.0522 0.9672 0.2485
vn -0.5684 0.1637 -0.8063
vn -0.1654 0.1698 -0.9715
vn -0.1568 -0.0772 -0.9846
vn -0.5516 -0.0624 -0.8318
vn 0.4681 -0.0769 -0.8803
vn 0.4689 -0.1471 -0.8709
vn -0.1451 -0.1499 -0.9780
vn -0.5260 -0.1114 -0.8432
vn -0.1368 -0.0921 -0.9863
vn -0.5061 -0.0445 -0.8613
vn 0.4669 -0.1082 -0.8777
vn -0.0074 0.9997 0.0254
vn -0.0304 0.9992 0.0278
vn -0.0522 0.9672 0.2485
vn -0.0321 0.9780 0.2062
vn -0.0733 0.9953 0.0637
vn -0.0819 0.9936 0.0781
vn -0.0909 0.9591 0.2680
vn -0.0781 0.9606 0.2666
vn 0.6612 -0.0675 -0.7472
vn -0.4681 -0.0769 -0.8803
vn -0.6612 -0.0675 -0.7472
vn -0.4689 -0.1471 -0.8709
vn -0.6564 -0.1251 -0.7440
vn 0.6564 -0.1251 -0.7440
vn 0.6518 -0.0912 -0.7529
vn -0.4669 -0.1082 -0.8777
vn -0.6518 -0.0912 -0.7529
vn 0.1423 0.7231 -0.6759
vn 0.1607 0.4809 -0.8619
vn 0.4344 0.7067 -0.5585
vn 0.5295 0.4620 -0.7115
vn 0.5684 0.1637 -0.8063
vn 0.1654 0.1698 -0.9715
vn 0.1568 -0.0772 -0.9846
vn 0.5516 -0.0624 -0.8318
vn 0.5260 -0.1114 -0.8431
vn 0.1451 -0.1499 -0.9780
vn 0.1368 -0.0921 -0.9863
vn 0.5061 -0.0445 -0.8613
vn -0.4983 0.6480 -0.5761
vn -0.1103 0.7172 -0.6881
vn -0.1156 0.4801 -0.8696
vn -0.5653 0.3888 -0.7275
vn 0.3186 0.7505 -0.5789
vn 0.3652 0.5266 -0.7677
vn 0.3646 0.2285 -0.9027
vn -0.1079 0.1794 -0.9778
vn -0.5656 0.0912 -0.8196
vn -0.4344 0.7067 -0.5585
vn -0.1424 0.7231 -0.6759
vn -0.1607 0.4809 -0.8619
vn -0.5295 0.4620 -0.7115
vn -0.1002 -0.0680 -0.9926
vn -0.5118 -0.1376 -0.8480
vn 0.3164 -0.0104 -0.9486
vn 0.2694 -0.0854 -0.9592
vn -0.0991 -0.1574 -0.9825
vn -0.4584 -0.2086 -0.8639
vn -0.0980 -0.1138 -0.9887
vn -0.4257 -0.1705 -0.8887
vn 0.2425 -0.0280 -0.9698
vn -0.1114 0.6242 -0.7733
vn -0.4220 0.5994 -0.6802
vn 0.3692 0.5557 -0.7449
vn 0.3425 0.5396 -0.7691
vn -0.1523 0.6034 -0.7828
vn -0.4400 0.5801 -0.6855
vn 0.0509 0.5652 -0.8234
vn -0.1782 0.5921 -0.7859
vn 0.2685 0.5211 -0.8102
vn 0.2889 0.4930 -0.8207
vn 0.0118 0.5682 -0.8228
vn -0.1799 0.5930 -0.7849
vn 0.1114 0.6242 -0.7733
vn -0.3692 0.5557 -0.7449
vn 0.4220 0.5994 -0.6802
vn 0.4400 0.5801 -0.6855
vn 0.1523 0.6034 -0.7828
vn -0.3425 0.5396 -0.7691
vn 0.5247 0.5119 -0.6802
vn -0.5247 0.5119 -0.6802
vn -0.5122 0.4952 -0.7017
vn 0.5122 0.4952 -0.7017
vn -0.0509 0.5652 -0.8234
vn -0.2685 0.5211 -0.8102
vn 0.1782 0.5921 -0.7859
vn 0.1799 0.5929 -0.7849
vn -0.0118 0.5682 -0.8228
vn -0.2889 0.4930 -0.8207
vn 0.2205 0.9268 -0.3041
vn 0.0614 0.9553 -0.2891
vn 0.0079 0.9839 -0.1787
vn 0.0776 0.9850 -0.1543
vn -0.1614 0.9676 -0.1942
vn -0.0276 0.9966 -0.0776
vn 0.0027 0.9983 -0.0588
vn 0.1481 0.9527 -0.2653
vn -0.0611 0.9597 -0.2744
vn 0.0049 0.9934 -0.1142
vn 0.0804 0.9922 -0.0958
vn -0.1208 0.9573 -0.2627
vn -0.0454 0.9875 -0.1508
vn 0.0733 0.9953 0.0637
vn -0.1481 0.9527 -0.2653
vn -0.1854 0.9454 -0.2681
vn -0.1121 0.9883 -0.1039
vn -0.0804 0.9922 -0.0958
vn 0.1854 0.9454 -0.2681
vn 0.1121 0.9883 -0.1039
vn 0.0819 0.9936 0.0781
vn 0.1208 0.9573 -0.2627
vn 0.0611 0.9597 -0.2744
vn -0.0049 0.9934 -0.1142
vn 0.0454 0.9875 -0.1508
vn 0.1614 0.9676 -0.1942
vn -0.0614 0.9553 -0.2891
vn -0.0079 0.9839 -0.1787
vn 0.0276 0.9966 -0.0776
vn -0.2205 0.9268 -0.3041
vn -0.0776 0.9850 -0.1543
vn -0.0027 0.9983 -0.0588
vn -0.1119 0.8823 -0.4571
vn -0.2848 0.8833 -0.3723
vn 0.2537 0.8652 -0.4325
vn -0.0915 0.8763 -0.4730
vn -0.3721 0.8412 -0.3924
vn 0.2377 0.9005 -0.3641
vn 0.1119 0.8823 -0.4571
vn -0.2537 0.8652 -0.4325
vn 0.2848 0.8833 -0.3723
vn 0.3273 0.8705 -0.3677
vn -0.3273 0.8705 -0.3677
vn 0.0915 0.8763 -0.4730
vn -0.2377 0.9005 -0.3641
vn 0.3721 0.8412 -0.3924
vn 0.0520 0.7401 0.6705
vn 0.0589 0.8310 0.5532
vn 0.0384 0.8690 0.4934
vn 0.0327 0.8504 0.5251
vn 0.0781 0.9606 0.2666
vn -0.0520 0.7401 0.6705
vn -0.0327 0.8504 0.5251
vn -0.0384 0.8690 0.4934
vn -0.0589 0.8310 0.5532
vn 0.0716 0.7197 0.6906
vn 0.0823 0.8203 0.5660
vn -0.0716 0.7197 0.6906
vn -0.0823 0.8203 0.5660
vn 0.0909 0.9591 0.2680
usemtl superhero
s 1
f 24/1/1 84/2/2 127/3/3 67/4/4
f 84/2/2 8/5/5 47/6/6 127/3/3
f 127/3/3 47/6/6 2/7/7 54/8/8
f 67/4/4 127/3/3 54/8/8 9/9/9
f 3/10/10 72/11/11 128/12/12 49/13/13
f 72/11/11 15/14/14 58/15/15 128/12/12
f 128/12/12 58/15/15 12/16/16 48/17/17
f 49/13/13 128/12/12 48/17/17 1/18/18
f 15/14/19 75/19/20 129/20/21 58/15/22
f 75/19/20 18/21/23 61/22/24 129/20/21
f 129/20/21 61/22/24 11/23/25 57/24/26
f 58/15/22 129/20/21 57/24/26 12/16/27
f 18/21/23 78/25/28 130/26/29 61/22/24
f 78/25/30 21/27/31 64/28/32 130/26/33
f 130/26/33 64/28/32 10/29/34 56/30/35
f 61/22/24 130/26/29 56/30/36 11/23/25
f 21/27/31 81/31/37 131/32/38 64/28/32
f 81/31/37 24/1/39 67/4/40 131/32/38
f 131/32/38 67/4/40 9/9/41 55/33/42
f 64/28/32 131/32/38 55/33/42 10/29/34
f 41/34/43 124/35/44 132/36/45 114/37/46
f 124/35/44 42/38/47 109/39/48 132/36/45
f 132/36/45 109/39/48 13/40/49 70/41/50
f 114/37/46 132/36/45 70/41/50 5/42/51
f 5/42/51 70/41/50 133/43/52 51/44/53
f 70/41/50 13/40/49 59/45/54 133/43/52
f 133/43/52 59/45/54 14/46/55 71/47/56
f 51/44/53 133/43/52 71/47/56 4/48/57
f 4/48/57 71/47/56 134/49/58 50/50/59
f 71/47/56 14/46/55 60/51/60 134/49/58
f 134/49/58 60/51/60 15/14/14 72/11/11
f 50/50/59 134/49/58 72/11/11 3/10/10
f 45/52/61 123/53/62 135/54/63 112/55/64
f 123/53/65 46/56/66 113/57/67 135/54/68
f 135/54/68 113/57/67 19/58/69 76/59/70
f 112/55/64 135/54/63 76/59/71 16/60/72
f 126/61/73 31/62/74 164/63/75 175/64/76
f 13/40/77 73/65/78 136/66/79 59/45/80
f 73/65/78 16/60/72 62/67/81 136/66/79
f 136/66/79 62/67/81 17/68/82 74/69/83
f 59/45/80 136/66/79 74/69/83 14/46/84
f 14/46/84 74/69/83 137/70/85 60/51/86
f 74/69/83 17/68/82 63/71/87 137/70/85
f 137/70/85 63/71/87 18/21/23 75/19/20
f 60/51/86 137/70/85 75/19/20 15/14/19
f 34/72/88 100/73/89 169/74/90 165/75/91
f 38/76/92 103/77/93 170/78/94 167/79/95
f 100/73/89 38/76/92 167/79/95 169/74/90
f 16/60/72 76/59/71 138/80/96 62/67/81
f 76/59/70 19/58/69 65/81/97 138/80/98
f 138/80/98 65/81/97 20/82/99 77/83/100
f 62/67/81 138/80/96 77/83/101 17/68/82
f 17/68/82 77/83/101 139/84/102 63/71/87
f 77/83/100 20/82/99 66/85/103 139/84/104
f 139/84/104 66/85/103 21/27/31 78/25/30
f 63/71/87 139/84/102 78/25/28 18/21/23
f 46/56/66 122/86/105 140/87/106 113/57/67
f 122/86/105 43/88/107 116/89/108 140/87/106
f 140/87/106 116/89/108 22/90/109 79/91/110
f 113/57/67 140/87/106 79/91/110 19/58/69
f 19/58/69 79/91/110 141/92/111 65/81/97
f 79/91/110 22/90/109 68/93/112 141/92/111
f 141/92/111 68/93/112 23/94/113 80/95/114
f 65/81/97 141/92/111 80/95/114 20/82/99
f 20/82/99 80/95/114 142/96/115 66/85/103
f 80/95/114 23/94/113 69/97/116 142/96/115
f 142/96/115 69/97/116 24/1/39 81/31/37
f 66/85/103 142/96/115 81/31/37 21/27/31
f 43/88/117 121/98/118 143/99/119 116/89/120
f 121/98/118 44/100/121 111/101/122 143/99/119
f 143/99/119 111/101/122 6/102/123 82/103/124
f 116/89/120 143/99/119 82/103/124 22/90/125
f 42/38/126 120/104/127 144/105/128 109/39/129
f 120/104/127 45/52/61 112/55/64 144/105/128
f 144/105/128 112/55/64 16/60/72 73/65/78
f 109/39/129 144/105/128 73/65/78 13/40/77
f 22/90/125 82/103/124 145/106/130 68/93/131
f 82/103/124 6/102/123 52/107/132 145/106/130
f 145/106/130 52/107/132 7/108/133 83/109/134
f 68/93/131 145/106/130 83/109/134 23/94/135
f 23/94/135 83/109/134 146/110/136 69/97/137
f 83/109/134 7/108/133 53/111/138 146/110/136
f 146/110/136 53/111/138 8/5/5 84/2/2
f 69/97/137 146/110/136 84/2/2 24/1/1
f 12/16/27 57/24/26 147/112/139 91/113/140
f 57/24/26 11/23/25 90/114/141 147/112/139
f 147/112/139 90/114/141 29/115/142 89/116/143
f 91/113/140 147/112/139 89/116/143 30/117/144
f 1/18/18 48/17/17 148/118/145 92/119/146
f 48/17/17 12/16/16 91/113/147 148/118/145
f 148/118/145 91/113/147 30/117/148 85/120/149
f 92/119/146 148/118/145 85/120/149 25/121/150
f 10/29/34 55/33/42 149/122/151 94/123/152
f 55/33/42 9/9/41 93/124/153 149/122/151
f 149/122/151 93/124/153 27/125/154 87/126/155
f 94/123/152 149/122/151 87/126/155 28/127/156
f 11/23/25 56/30/36 150/128/157 90/114/141
f 56/30/35 10/29/34 94/123/152 150/128/158
f 150/128/158 94/123/152 28/127/156 88/129/159
f 90/114/141 150/128/157 88/129/160 29/115/142
f 9/9/9 54/8/8 151/130/161 93/124/162
f 54/8/8 2/7/7 95/131/163 151/130/161
f 151/130/161 95/131/163 26/132/164 86/133/165
f 93/124/162 151/130/161 86/133/165 27/125/166
f 35/134/167 96/135/168 152/136/169 125/137/170
f 32/138/171 97/139/172 152/136/169 96/135/168
f 31/62/173 125/137/170 152/136/169 97/139/172
f 37/140/174 99/141/175 153/142/176 98/143/177
f 99/141/175 35/134/178 125/137/179 153/142/176
f 153/142/176 125/137/179 31/62/74 126/61/73
f 98/143/177 153/142/176 126/61/73 36/144/180
f 39/145/181 102/146/182 154/147/183 101/148/184
f 102/146/185 37/140/174 98/143/177 154/147/186
f 154/147/186 98/143/177 36/144/180 103/77/187
f 101/148/184 154/147/183 103/77/93 38/76/92
f 40/149/188 104/150/189 155/151/190 107/152/191
f 104/150/189 39/145/181 101/148/184 155/151/190
f 155/151/190 101/148/184 38/76/92 100/73/89
f 107/152/191 155/151/190 100/73/89 34/72/88
f 33/153/192 106/154/193 156/155/194 105/156/195
f 40/149/196 107/152/197 156/155/194 106/154/193
f 34/72/198 105/156/195 156/155/194 107/152/197
f 35/134/178 99/141/175 157/157/199 115/158/200
f 99/141/175 37/140/174 118/159/201 157/157/199
f 157/157/199 118/159/201 45/52/61 120/104/127
f 115/158/200 157/157/199 120/104/127 42/38/126
f 40/149/196 106/154/193 158/160/202 110/161/203
f 106/154/193 33/153/192 117/162/204 158/160/202
f 158/160/202 117/162/204 44/100/121 121/98/118
f 110/161/203 158/160/202 121/98/118 43/88/117
f 39/145/181 104/150/189 159/163/205 119/164/206
f 104/150/189 40/149/188 110/161/207 159/163/205
f 159/163/205 110/161/207 43/88/107 122/86/105
f 119/164/206 159/163/205 122/86/105 46/56/66
f 37/140/174 102/146/185 160/165/208 118/159/201
f 102/146/182 39/145/181 119/164/206 160/165/209
f 160/165/209 119/164/206 46/56/66 123/53/65
f 118/159/201 160/165/208 123/53/62 45/52/61
f 32/138/171 96/135/168 161/166/210 108/167/211
f 96/135/168 35/134/167 115/158/212 161/166/210
f 161/166/210 115/158/212 42/38/47 124/35/44
f 108/167/211 161/166/210 124/35/44 41/34/43
f 162/168/213 173/169/214 176/170/215 171/171/216
f 166/172/217 175/64/76 176/170/215 173/169/214
f 164/63/75 171/171/216 176/170/215 175/64/76
f 163/173/218 172/174/219 177/175/220 174/176/221
f 165/75/91 169/74/90 177/175/220 172/174/219
f 167/79/95 174/176/221 177/175/220 169/74/90
f 162/168/213 168/177/222 178/178/223 173/169/214
f 168/177/224 163/173/218 174/176/221 178/178/225
f 178/178/225 174/176/221 167/79/95 170/78/94
f 173/169/214 178/178/223 170/78/226 166/172/217
f 103/77/187 36/144/180 166/172/217 170/78/226
f 36/144/180 126/61/73 175/64/76 166/172/217
