# Blender v3.4.1 OBJ File: 'May2026_MagicalGirl_Assets_Export.blend'
# www.blender.org
mtllib MagicalGirl_Wand.mtl
o MagicalGirl_Wand
v 0.000001 -0.373279 -0.053346
v 0.000001 0.499464 -0.047102
v 0.037722 -0.373279 -0.037721
v 0.034975 0.485333 -0.033307
v 0.053347 -0.373279 -0.000000
v 0.049462 0.479480 -0.000000
v 0.037722 -0.373279 0.037721
v 0.034975 0.485333 0.033307
v 0.000001 -0.373279 0.053346
v 0.000001 0.499464 0.047102
v -0.037721 -0.373279 0.037721
v -0.034974 0.485333 0.033307
v -0.053345 -0.373279 -0.000000
v -0.049461 0.479480 -0.000000
v -0.037721 -0.373279 -0.037721
v -0.034974 0.485333 -0.033307
v -0.000001 0.309462 -0.033439
v 0.023644 0.299643 -0.023645
v 0.033438 0.288067 -0.000000
v 0.023644 0.299643 0.023645
v -0.000001 0.309462 0.033439
v -0.023646 0.299643 0.023645
v -0.033440 0.288067 -0.000000
v -0.023646 0.299643 -0.023645
v -0.000001 -0.130824 -0.034219
v -0.000003 -0.214475 -0.043926
v 0.024196 -0.130824 -0.024197
v 0.031058 -0.214475 -0.031061
v 0.034219 -0.130824 -0.000000
v 0.043923 -0.214476 -0.000000
v 0.024196 -0.130824 0.024197
v 0.031058 -0.214475 0.031061
v -0.000001 -0.130824 0.034219
v -0.000003 -0.214475 0.043926
v -0.024198 -0.130824 0.024197
v -0.031063 -0.214475 0.031061
v -0.034220 -0.130824 -0.000000
v -0.043929 -0.214475 -0.000000
v -0.024198 -0.130824 -0.024197
v -0.031063 -0.214475 -0.031061
v -0.000010 -0.302435 -0.080799
v -0.000007 -0.340732 -0.075596
v 0.053447 -0.340732 -0.053454
v 0.057123 -0.302435 -0.057134
v 0.075588 -0.340733 -0.000000
v 0.080789 -0.302435 -0.000000
v 0.053447 -0.340732 0.053454
v 0.057123 -0.302435 0.057134
v -0.000007 -0.340732 0.075596
v -0.000010 -0.302435 0.080799
v -0.053462 -0.340732 0.053455
v -0.057144 -0.302435 0.057134
v -0.075604 -0.340732 -0.000000
v -0.080810 -0.302435 -0.000000
v -0.053462 -0.340732 -0.053455
v -0.057144 -0.302435 -0.057134
v 0.000001 -0.382876 0.000000
v -0.000010 0.439734 -0.083274
v -0.000010 0.396802 -0.077479
v 0.054776 0.379709 -0.054786
v 0.058873 0.422641 -0.058883
v 0.077469 0.362616 -0.000000
v 0.083264 0.405548 -0.000000
v 0.054776 0.379709 0.054786
v 0.058873 0.422641 0.058883
v -0.054796 0.379709 0.054786
v -0.058894 0.422641 0.058883
v -0.077488 0.362617 -0.000000
v -0.083284 0.405548 -0.000000
v -0.054796 0.379709 -0.054786
v -0.058894 0.422641 -0.058883
v -0.047785 0.401175 -0.047776
v -0.000008 0.415544 -0.067566
v -0.067574 0.386806 -0.000000
v -0.047785 0.401175 0.047776
v 0.047768 0.401175 0.047776
v 0.067558 0.386806 -0.000000
v 0.047768 0.401175 -0.047776
v -0.000001 0.130717 -0.033790
v 0.023892 0.130717 -0.023893
v -0.023894 0.130717 -0.023893
v 0.033789 0.130717 -0.000000
v 0.023892 0.130717 0.023893
v -0.000001 0.130717 0.033790
v -0.023894 0.130717 0.023893
v -0.033791 0.130717 -0.000000
v -0.034670 0.000000 -0.000000
v -0.024516 0.000000 0.024515
v -0.000001 0.000000 0.034670
v 0.024515 0.000000 0.024515
v 0.034669 0.000000 -0.000000
v -0.024516 0.000000 -0.024515
v -0.000001 0.000000 -0.034670
v 0.024515 0.000000 -0.024515
v 0.026974 0.062414 -0.026974
v 0.027105 -0.062414 -0.027106
v 0.038147 0.062414 -0.000000
v 0.038333 -0.062414 -0.000000
v 0.026974 0.062414 0.026974
v 0.027105 -0.062414 0.027106
v -0.000001 0.062414 0.038147
v -0.000001 -0.062414 0.038333
v -0.026975 0.062414 0.026974
v -0.027106 -0.062413 0.027106
v -0.038148 0.062414 -0.000000
v -0.038334 -0.062414 -0.000000
v -0.000001 -0.062414 -0.038333
v -0.000001 0.062414 -0.038147
v -0.027106 -0.062413 -0.027106
v -0.026975 0.062414 -0.026974
v -0.032076 -0.121661 -0.032075
v -0.035297 -0.108404 -0.035296
v -0.000001 -0.108404 -0.049916
v -0.000001 -0.121661 -0.045361
v -0.045361 -0.121661 -0.000000
v -0.049917 -0.108404 -0.000000
v -0.032076 -0.121661 0.032075
v -0.035297 -0.108404 0.035296
v -0.000001 -0.121661 0.045361
v -0.000001 -0.108404 0.049916
v 0.032074 -0.121661 0.032075
v 0.035295 -0.108404 0.035296
v 0.045360 -0.121661 -0.000000
v 0.049915 -0.108404 -0.000000
v 0.032074 -0.121661 -0.032075
v 0.035295 -0.108404 -0.035296
v 0.031761 0.121607 -0.031762
v 0.035015 0.108357 -0.035016
v 0.044917 0.121607 -0.000000
v 0.049519 0.108357 -0.000000
v 0.031761 0.121607 0.031762
v 0.035015 0.108357 0.035016
v -0.000001 0.121607 0.044918
v -0.000001 0.108357 0.049519
v -0.031763 0.121607 0.031762
v -0.035016 0.108357 0.035016
v -0.044919 0.121607 -0.000000
v -0.049520 0.108357 -0.000000
v -0.000001 0.108357 -0.049519
v -0.000001 0.121607 -0.044918
v -0.035016 0.108357 -0.035016
v -0.031763 0.121607 -0.031762
v -0.099211 -0.407052 0.000062
v -0.093389 -0.407052 -0.013995
v -0.079333 -0.407052 -0.019817
v -0.065276 -0.407052 -0.013995
v -0.059454 -0.407052 0.000061
v -0.065276 -0.407052 0.014118
v -0.079333 -0.407052 0.019940
v -0.093389 -0.407052 0.014118
v -0.085895 -0.357355 0.000061
v -0.080853 -0.360266 -0.013995
v -0.068680 -0.367295 -0.019817
v -0.056506 -0.374323 -0.013995
v -0.051464 -0.377234 0.000061
v -0.056506 -0.374323 0.014118
v -0.068680 -0.367295 0.019940
v -0.080853 -0.360266 0.014118
v -0.049514 -0.320975 0.000061
v -0.046603 -0.326017 -0.013995
v -0.039575 -0.338190 -0.019817
v -0.032547 -0.350363 -0.013995
v -0.029636 -0.355406 0.000061
v -0.032547 -0.350363 0.014118
v -0.039575 -0.338190 0.019940
v -0.046603 -0.326017 0.014118
v 0.000183 -0.307658 0.000061
v 0.000183 -0.313481 -0.013995
v 0.000183 -0.327537 -0.019817
v 0.000183 -0.341594 -0.013995
v 0.000183 -0.347416 0.000061
v 0.000183 -0.341594 0.014118
v 0.000183 -0.327537 0.019940
v 0.000183 -0.313481 0.014118
v 0.049880 -0.320975 0.000061
v 0.046968 -0.326017 -0.013995
v 0.039940 -0.338190 -0.019817
v 0.032912 -0.350363 -0.013995
v 0.030001 -0.355406 0.000061
v 0.032912 -0.350363 0.014118
v 0.039940 -0.338190 0.019940
v 0.046968 -0.326017 0.014118
v 0.086260 -0.357355 0.000061
v 0.081218 -0.360266 -0.013995
v 0.069045 -0.367295 -0.019817
v 0.056872 -0.374323 -0.013995
v 0.051829 -0.377234 0.000061
v 0.056872 -0.374323 0.014118
v 0.069045 -0.367295 0.019940
v 0.081218 -0.360266 0.014118
v 0.099577 -0.407052 0.000061
v 0.093754 -0.407052 -0.013995
v 0.079698 -0.407052 -0.019817
v 0.065641 -0.407052 -0.013995
v 0.059819 -0.407052 0.000061
v 0.065641 -0.407052 0.014118
v 0.079698 -0.407052 0.019940
v 0.093754 -0.407052 0.014118
v 0.086260 -0.456749 0.000061
v 0.081218 -0.453838 -0.013995
v 0.069045 -0.446810 -0.019817
v 0.056872 -0.439782 -0.013995
v 0.051829 -0.436871 0.000061
v 0.056872 -0.439782 0.014118
v 0.069045 -0.446810 0.019940
v 0.081218 -0.453838 0.014118
v 0.049880 -0.493130 0.000061
v 0.046968 -0.488088 -0.013995
v 0.039940 -0.475915 -0.019817
v 0.032912 -0.463741 -0.013995
v 0.030001 -0.458699 0.000061
v 0.032912 -0.463741 0.014118
v 0.039940 -0.475915 0.019940
v 0.046968 -0.488088 0.014118
v 0.000183 -0.506446 0.000061
v 0.000183 -0.500624 -0.013995
v 0.000183 -0.486568 -0.019817
v 0.000183 -0.472511 -0.013995
v 0.000183 -0.466689 0.000061
v 0.000183 -0.472511 0.014118
v 0.000183 -0.486568 0.019940
v 0.000183 -0.500624 0.014118
v -0.049514 -0.493130 0.000062
v -0.046603 -0.488088 -0.013995
v -0.039575 -0.475915 -0.019817
v -0.032547 -0.463741 -0.013995
v -0.029636 -0.458699 0.000061
v -0.032547 -0.463741 0.014118
v -0.039575 -0.475915 0.019940
v -0.046603 -0.488088 0.014118
v -0.085895 -0.456749 0.000062
v -0.080853 -0.453838 -0.013995
v -0.068680 -0.446810 -0.019817
v -0.056506 -0.439782 -0.013995
v -0.051464 -0.436871 0.000061
v -0.056506 -0.439782 0.014118
v -0.068680 -0.446810 0.019940
v -0.080853 -0.453838 0.014118
v -0.000024 0.560174 -0.025241
v -0.000024 0.560174 0.025241
v -0.163653 0.679057 -0.025241
v -0.163653 0.679057 0.025241
v -0.101152 0.871414 -0.025241
v -0.101152 0.871414 0.025241
v 0.101104 0.871414 -0.025241
v 0.101104 0.871414 0.025241
v 0.163605 0.679057 -0.025241
v 0.163605 0.679057 0.025241
v -0.069958 0.596240 -0.080092
v -0.107740 0.623691 -0.080092
v -0.107740 0.623690 0.080092
v -0.069958 0.596240 0.080092
v -0.150962 0.756715 -0.080092
v -0.136530 0.801130 -0.080092
v -0.136530 0.801130 0.080092
v -0.150962 0.756714 0.080092
v -0.023373 0.883343 -0.080092
v 0.023328 0.883343 -0.080092
v -0.000022 0.732223 0.052014
v 0.023328 0.883343 0.080092
v -0.023373 0.883343 0.080092
v -0.000022 0.732223 -0.052015
v 0.136485 0.801129 -0.080092
v 0.150916 0.756714 -0.080092
v 0.150916 0.756714 0.080092
v 0.136485 0.801129 0.080092
v 0.107694 0.623690 -0.080092
v 0.069912 0.596240 -0.080092
v 0.069912 0.596240 0.080092
v 0.107694 0.623690 0.080092
v 0.179929 0.860717 0.024903
v 0.221087 0.734041 0.024903
v 0.241087 0.836194 0.024664
v 0.256152 0.789827 0.024664
v 0.221087 0.734041 -0.024903
v 0.179929 0.860717 -0.024903
v 0.256152 0.789827 -0.024664
v 0.241087 0.836194 -0.024664
v -0.066620 0.943074 0.024903
v 0.066575 0.943072 0.024903
v -0.024398 0.993660 0.024664
v 0.024355 0.993659 0.024664
v 0.066575 0.943072 -0.024903
v -0.066620 0.943074 -0.024903
v 0.024355 0.993659 -0.024664
v -0.024398 0.993660 -0.024664
v -0.221132 0.734041 0.024903
v -0.179970 0.860718 0.024903
v -0.256195 0.789828 0.024664
v -0.241129 0.836195 0.024664
v -0.179970 0.860718 -0.024903
v -0.221132 0.734041 -0.024903
v -0.241129 0.836195 -0.024664
v -0.256195 0.789828 -0.024664
v -0.070076 0.522499 0.024903
v -0.177836 0.600788 0.024903
v -0.133968 0.506390 0.024664
v -0.173411 0.535046 0.024664
v -0.177836 0.600788 -0.024903
v -0.070076 0.522499 -0.024903
v -0.173411 0.535046 -0.024664
v -0.133968 0.506390 -0.024664
v 0.177790 0.600789 0.024903
v 0.070034 0.522497 0.024903
v 0.173367 0.535046 0.024664
v 0.133926 0.506389 0.024664
v 0.070034 0.522497 -0.024903
v 0.177790 0.600789 -0.024903
v 0.133926 0.506389 -0.024664
v 0.173367 0.535046 -0.024664
v -0.103246 0.698685 -0.085295
v -0.000024 0.623689 -0.085295
v 0.103198 0.698684 -0.085295
v -0.000024 0.623689 0.085295
v -0.103246 0.698685 0.085295
v -0.063819 0.820029 0.085295
v -0.063819 0.820029 -0.085295
v 0.063771 0.820029 -0.085295
v 0.103198 0.698684 0.085295
v 0.063771 0.820029 0.085295
v -0.051635 0.661187 -0.073083
v 0.051587 0.661187 -0.073083
v -0.051635 0.661187 0.073082
v -0.083533 0.759357 0.073082
v -0.083533 0.759357 -0.073083
v -0.000024 0.820029 -0.073083
v 0.083484 0.759357 -0.073083
v 0.051587 0.661187 0.073082
v 0.083484 0.759357 0.073082
v -0.000024 0.820029 0.073082
v -0.029263 0.375816 0.049404
v -0.029263 0.375816 0.080239
v -0.029263 0.434339 0.049404
v -0.029263 0.434339 0.080239
v 0.029260 0.375816 0.049404
v 0.029260 0.375816 0.080239
v 0.029260 0.434339 0.049404
v 0.029260 0.434339 0.080239
v -0.032425 0.372655 0.064822
v -0.032425 0.437501 0.064822
v 0.032421 0.437501 0.064822
v 0.032421 0.372655 0.064822
v -0.032897 0.416730 0.044909
v -0.032897 0.393426 0.044909
v -0.032897 0.393426 0.084734
v -0.032897 0.416730 0.084734
v 0.011650 0.437973 0.044909
v -0.011654 0.437973 0.044909
v -0.011654 0.437973 0.084734
v 0.011650 0.437973 0.084734
v 0.032894 0.393426 0.044909
v 0.032894 0.416730 0.044909
v 0.032894 0.416730 0.084734
v 0.032894 0.393426 0.084734
v -0.011654 0.372182 0.044909
v 0.011650 0.372182 0.044909
v 0.011650 0.372182 0.084734
v -0.011654 0.372182 0.084734
v -0.040774 0.417332 0.064822
v -0.040774 0.392824 0.064822
v 0.012252 0.445850 0.064822
v -0.012256 0.445850 0.064822
v 0.040771 0.392824 0.064822
v 0.040771 0.417332 0.064822
v -0.012256 0.364305 0.064822
v 0.012252 0.364305 0.064822
v -0.012260 0.417336 0.032993
v 0.012257 0.417336 0.032993
v 0.012257 0.392819 0.032993
v -0.012260 0.392819 0.032993
v 0.012257 0.417336 0.096650
v -0.012260 0.417336 0.096650
v -0.012260 0.392819 0.096650
v 0.012257 0.392819 0.096650
v 0.138699 0.230464 0.059509
v 0.060758 0.197386 0.059250
v 0.007696 0.363599 0.052988
v 0.125508 0.272381 0.063497
v 0.031888 0.374355 0.064224
v 0.082737 0.254751 0.075236
v 0.065745 0.294905 0.075773
v 0.048624 0.335159 0.071674
v 0.010121 0.389974 0.048304
v 0.022715 0.395313 0.048220
v -0.138699 0.230464 0.059509
v -0.060758 0.197386 0.059250
v -0.056079 0.384103 0.052474
v -0.085539 0.350307 0.060005
v -0.108052 0.312339 0.064043
v -0.023437 0.276393 0.062941
v -0.011709 0.318965 0.059524
v -0.031888 0.374355 0.064224
v -0.082737 0.254751 0.075236
v -0.065745 0.294905 0.075773
v -0.048624 0.335159 0.071674
v -0.035309 0.400639 0.047836
v 0.047755 0.376099 0.036612
v 0.039391 0.375368 0.068891
v 0.042286 0.438611 0.036612
v 0.033922 0.437879 0.068891
v 0.180830 0.374996 0.065987
v 0.169998 0.374048 0.107788
v 0.173147 0.462806 0.065987
v 0.162316 0.461858 0.107788
v 0.108425 0.468214 0.042723
v 0.094382 0.466985 0.096916
v 0.118029 0.358431 0.042723
v 0.103987 0.357203 0.096916
v 0.042319 0.407119 0.033332
v 0.040669 0.370612 0.051883
v 0.032705 0.406278 0.070435
v 0.034355 0.442785 0.051883
v 0.067833 0.451778 0.036656
v 0.134953 0.472383 0.106765
v 0.170432 0.469778 0.087756
v 0.169987 0.418288 0.063569
v 0.158228 0.417260 0.111943
v 0.179367 0.367658 0.087756
v 0.158539 0.360127 0.054045
v 0.063499 0.366545 0.081813
v 0.148614 0.473578 0.054045
v 0.056131 0.450754 0.081813
v 0.075200 0.367569 0.036656
v 0.144878 0.358932 0.106765
v 0.096408 0.411851 0.107631
v 0.116004 0.413565 0.032008
v 0.112910 0.336076 0.069820
v 0.099501 0.489340 0.069820
v 0.029747 0.406019 0.049856
v 0.140607 0.493855 0.080573
v 0.171392 0.418411 0.089783
v 0.070065 0.351444 0.059066
v 0.147061 0.416283 0.044537
v 0.057011 0.408404 0.089972
v 0.129541 0.414750 0.116609
v 0.073029 0.409806 0.028159
v 0.154176 0.338768 0.080573
v 0.059975 0.466766 0.059066
v -0.047755 0.376104 0.036612
v -0.039391 0.375372 0.068891
v -0.042286 0.438616 0.036612
v -0.033922 0.437884 0.068891
v -0.180830 0.375000 0.065987
v -0.169998 0.374053 0.107788
v -0.173147 0.462810 0.065987
v -0.162316 0.461863 0.107788
v -0.108425 0.468218 0.042723
v -0.094382 0.466990 0.096916
v -0.118029 0.358436 0.042723
v -0.103987 0.357207 0.096916
v -0.042319 0.407123 0.033332
v -0.040669 0.370616 0.051883
v -0.032705 0.406282 0.070435
v -0.034355 0.442789 0.051883
v -0.067832 0.451782 0.036656
v -0.134953 0.472387 0.106765
v -0.170432 0.469783 0.087756
v -0.169986 0.418293 0.063569
v -0.158227 0.417264 0.111943
v -0.179366 0.367663 0.087756
v -0.158539 0.360132 0.054045
v -0.063498 0.366550 0.081813
v -0.148613 0.473582 0.054045
v -0.056131 0.450758 0.081813
v -0.075200 0.367574 0.036656
v -0.144878 0.358937 0.106765
v -0.096408 0.411856 0.107631
v -0.116003 0.413570 0.032008
v -0.112910 0.336081 0.069820
v -0.099501 0.489345 0.069820
v -0.029747 0.406024 0.049856
v -0.140607 0.493859 0.080573
v -0.171391 0.418416 0.089783
v -0.070064 0.351449 0.059066
v -0.147060 0.416287 0.044537
v -0.057011 0.408409 0.089972
v -0.129540 0.414754 0.116609
v -0.073028 0.409810 0.028159
v -0.154175 0.338773 0.080573
v -0.059975 0.466770 0.059066
v 0.011709 0.318965 0.059524
v 0.031888 0.373394 0.042336
v 0.056079 0.384103 0.052474
v 0.085539 0.350307 0.060005
v 0.108052 0.312339 0.064043
v 0.039965 0.236052 0.062617
v 0.023437 0.276393 0.062941
v 0.082737 0.253791 0.053348
v 0.065745 0.293945 0.053885
v 0.048624 0.334198 0.049786
v 0.035309 0.400639 0.047836
v -0.125508 0.272381 0.063497
v -0.007696 0.363599 0.052988
v -0.031888 0.373394 0.042336
v -0.039965 0.236052 0.062617
v -0.082737 0.253791 0.053348
v -0.065745 0.293945 0.053885
v -0.048624 0.334198 0.049786
v -0.022715 0.395313 0.048220
v -0.010121 0.389974 0.048304
vt 0.571329 0.619924
vt 0.567760 0.629296
vt 0.569922 0.628421
vt 0.574977 0.617368
vt 0.566066 0.601535
vt 0.570720 0.613505
vt 0.574112 0.610950
vt 0.567528 0.599805
vt 0.570720 0.613505
vt 0.566066 0.601535
vt 0.569670 0.647964
vt 0.555389 0.647964
vt 0.554339 0.644755
vt 0.570720 0.644755
vt 0.558994 0.601535
vt 0.554339 0.613505
vt 0.550947 0.610950
vt 0.557531 0.599805
vt 0.557303 0.598046
vt 0.555137 0.597171
vt 0.557303 0.598046
vt 0.554339 0.613505
vt 0.558994 0.601535
vt 0.562532 0.603003
vt 0.562532 0.616061
vt 0.302719 0.621633
vt 0.312496 0.621633
vt 0.312489 0.593955
vt 0.294514 0.593955
vt 0.567760 0.629296
vt 0.571329 0.619924
vt 0.298678 0.621633
vt 0.287068 0.593955
vt 0.302719 0.621633
vt 0.294514 0.593955
vt 0.933479 0.625533
vt 0.931800 0.625533
vt 0.932347 0.634864
vt 0.933864 0.634864
vt 0.312496 0.621633
vt 0.312489 0.593955
vt 0.550082 0.617368
vt 0.555137 0.628421
vt 0.557303 0.629296
vt 0.553726 0.619924
vt 0.932414 0.568430
vt 0.933911 0.568430
vt 0.932736 0.569800
vt 0.930751 0.569800
vt 0.322266 0.621633
vt 0.330470 0.593955
vt 0.553726 0.619924
vt 0.557303 0.629296
vt 0.941148 0.568430
vt 0.942646 0.568430
vt 0.944313 0.569800
vt 0.942327 0.569800
vt 0.326314 0.621633
vt 0.337917 0.593955
vt 0.562532 0.631409
vt 0.942768 0.651063
vt 0.944934 0.651063
vt 0.943236 0.644194
vt 0.941561 0.644194
vt 0.322266 0.621633
vt 0.330470 0.593955
vt 0.930126 0.651063
vt 0.932296 0.651063
vt 0.933499 0.644194
vt 0.931828 0.644194
vt 0.941581 0.625533
vt 0.943263 0.625533
vt 0.944993 0.618657
vt 0.942807 0.618657
vt 0.562532 0.622479
vt 0.562532 0.631409
vt 0.295712 0.524788
vt 0.288706 0.535029
vt 0.295669 0.535029
vt 0.300626 0.524788
vt 0.300626 0.524788
vt 0.295669 0.535029
vt 0.312496 0.524788
vt 0.312496 0.535029
vt 0.324366 0.524788
vt 0.329316 0.535029
vt 0.329280 0.524788
vt 0.336279 0.535029
vt 0.312496 0.535029
vt 0.312496 0.524788
vt 0.932296 0.651063
vt 0.933499 0.644194
vt 0.304883 0.647955
vt 0.312496 0.647955
vt 0.301730 0.647955
vt 0.304883 0.647955
vt 0.312496 0.647955
vt 0.320109 0.647955
vt 0.323262 0.647955
vt 0.320109 0.647955
vt 0.937532 0.625533
vt 0.937532 0.618657
vt 0.324366 0.524788
vt 0.329316 0.535029
vt 0.312496 0.566279
vt 0.295669 0.566279
vt 0.288706 0.566279
vt 0.295669 0.566279
vt 0.312496 0.566279
vt 0.329316 0.566279
vt 0.336279 0.566279
vt 0.329316 0.566279
vt 0.312496 0.521768
vt 0.555389 0.647964
vt 0.562532 0.650113
vt 0.562532 0.647311
vt 0.554339 0.644755
vt 0.552429 0.645816
vt 0.550947 0.642200
vt 0.572630 0.645816
vt 0.574112 0.642200
vt 0.569670 0.647964
vt 0.570720 0.644755
vt 0.567760 0.598046
vt 0.562532 0.600159
vt 0.562532 0.600159
vt 0.567760 0.598046
vt 0.569922 0.597171
vt 0.562532 0.591229
vt 0.571329 0.588674
vt 0.569670 0.585464
vt 0.562532 0.587613
vt 0.574977 0.586118
vt 0.572630 0.583316
vt 0.571329 0.588674
vt 0.569670 0.585464
vt 0.553726 0.588674
vt 0.550082 0.586118
vt 0.552429 0.583316
vt 0.555389 0.585464
vt 0.553726 0.588674
vt 0.555389 0.585464
vt 0.312496 0.712608
vt 0.319935 0.709518
vt 0.320015 0.656363
vt 0.312496 0.656363
vt 0.305049 0.709518
vt 0.304977 0.656363
vt 0.323017 0.705876
vt 0.323132 0.656363
vt 0.319935 0.709518
vt 0.320015 0.656363
vt 0.312496 0.712608
vt 0.312496 0.656363
vt 0.305049 0.709518
vt 0.304977 0.656363
vt 0.301968 0.705876
vt 0.301860 0.656363
vt 0.937532 0.651063
vt 0.937532 0.644194
vt 0.932476 0.685656
vt 0.933958 0.685656
vt 0.932783 0.684294
vt 0.930817 0.684294
vt 0.933958 0.685656
vt 0.932783 0.684294
vt 0.937532 0.685656
vt 0.937532 0.684294
vt 0.941101 0.685656
vt 0.942280 0.684294
vt 0.941148 0.568430
vt 0.942327 0.569800
vt 0.933479 0.625533
vt 0.930067 0.618657
vt 0.932256 0.618657
vt 0.937532 0.685656
vt 0.941101 0.685656
vt 0.942280 0.684294
vt 0.937532 0.684294
vt 0.932256 0.618657
vt 0.942768 0.651063
vt 0.941561 0.644194
vt 0.941581 0.625533
vt 0.942807 0.618657
vt 0.937532 0.651063
vt 0.937532 0.644194
vt 0.937532 0.625533
vt 0.937532 0.618657
vt 0.942583 0.685656
vt 0.944246 0.684294
vt 0.933911 0.568430
vt 0.932736 0.569800
vt 0.937532 0.568430
vt 0.937532 0.569800
vt 0.941195 0.634864
vt 0.937532 0.634864
vt 0.942713 0.634864
vt 0.941195 0.634864
vt 0.937532 0.634864
vt 0.933864 0.634864
vt 0.937532 0.568430
vt 0.937532 0.569800
vt 0.937532 0.616675
vt 0.932736 0.616675
vt 0.930751 0.616675
vt 0.932736 0.616675
vt 0.937532 0.616675
vt 0.942327 0.616675
vt 0.944313 0.616675
vt 0.942327 0.616675
vt 0.937532 0.653044
vt 0.942280 0.653044
vt 0.932783 0.653044
vt 0.944246 0.653044
vt 0.942280 0.653044
vt 0.937532 0.653044
vt 0.932783 0.653044
vt 0.930817 0.653044
vt 0.547696 0.620884
vt 0.549689 0.628314
vt 0.550444 0.627878
vt 0.548569 0.620884
vt 0.552264 0.626828
vt 0.550668 0.620884
vt 0.554080 0.625777
vt 0.552771 0.620884
vt 0.552771 0.589634
vt 0.554080 0.594527
vt 0.554839 0.594092
vt 0.553640 0.589634
vt 0.554080 0.594527
vt 0.552771 0.589634
vt 0.552771 0.620884
vt 0.554080 0.625777
vt 0.552264 0.626828
vt 0.550668 0.620884
vt 0.550444 0.627878
vt 0.548569 0.620884
vt 0.555130 0.633753
vt 0.555562 0.632999
vt 0.556615 0.631179
vt 0.557665 0.629359
vt 0.557665 0.598109
vt 0.558101 0.597355
vt 0.557665 0.598109
vt 0.557665 0.629359
vt 0.556615 0.631179
vt 0.555562 0.632999
vt 0.562559 0.635743
vt 0.562559 0.634873
vt 0.562559 0.632772
vt 0.562559 0.630670
vt 0.562559 0.599420
vt 0.562559 0.598550
vt 0.562559 0.599420
vt 0.562559 0.630670
vt 0.562559 0.632772
vt 0.562559 0.634873
vt 0.569985 0.633753
vt 0.569552 0.632999
vt 0.568499 0.631179
vt 0.567453 0.629359
vt 0.567453 0.598109
vt 0.567013 0.597355
vt 0.567453 0.598109
vt 0.567453 0.629359
vt 0.568499 0.631179
vt 0.569552 0.632999
vt 0.575425 0.628314
vt 0.574675 0.627878
vt 0.572851 0.626828
vt 0.571034 0.625777
vt 0.571034 0.594527
vt 0.570280 0.594092
vt 0.571034 0.594527
vt 0.571034 0.625777
vt 0.572851 0.626828
vt 0.574675 0.627878
vt 0.577418 0.620884
vt 0.576550 0.620884
vt 0.574447 0.620884
vt 0.572343 0.620884
vt 0.572343 0.589634
vt 0.571475 0.589634
vt 0.572343 0.589634
vt 0.572343 0.620884
vt 0.574447 0.620884
vt 0.576550 0.620884
vt 0.575425 0.613454
vt 0.574675 0.613890
vt 0.572851 0.614940
vt 0.571034 0.615991
vt 0.571034 0.584741
vt 0.570280 0.585176
vt 0.571034 0.584741
vt 0.571034 0.615991
vt 0.572851 0.614940
vt 0.574675 0.613890
vt 0.569985 0.608015
vt 0.569552 0.608769
vt 0.568499 0.610589
vt 0.567453 0.612409
vt 0.567453 0.581159
vt 0.567013 0.581913
vt 0.567453 0.581159
vt 0.567453 0.612409
vt 0.568499 0.610589
vt 0.569552 0.608769
vt 0.562559 0.606025
vt 0.562559 0.606895
vt 0.562559 0.608996
vt 0.562559 0.611098
vt 0.562559 0.579848
vt 0.562559 0.580718
vt 0.562559 0.579848
vt 0.562559 0.611098
vt 0.562559 0.608996
vt 0.562559 0.606895
vt 0.555130 0.608015
vt 0.555562 0.608769
vt 0.556615 0.610589
vt 0.557665 0.612409
vt 0.557665 0.581159
vt 0.558101 0.581913
vt 0.557665 0.581159
vt 0.557665 0.612409
vt 0.556615 0.610589
vt 0.555562 0.608769
vt 0.549689 0.613454
vt 0.550444 0.613890
vt 0.552264 0.614940
vt 0.554080 0.615991
vt 0.554080 0.584741
vt 0.554839 0.585176
vt 0.554080 0.584741
vt 0.554080 0.615991
vt 0.552264 0.614940
vt 0.550444 0.613890
vt 0.437500 0.587372
vt 0.451385 0.579904
vt 0.437500 0.599960
vt 0.472743 0.611046
vt 0.472743 0.611046
vt 0.469928 0.626559
vt 0.469928 0.626559
vt 0.457957 0.614825
vt 0.469928 0.610934
vt 0.472743 0.595421
vt 0.424853 0.638875
vt 0.401833 0.646940
vt 0.417457 0.649060
vt 0.423615 0.595529
vt 0.423615 0.595529
vt 0.437500 0.602997
vt 0.437500 0.602997
vt 0.424298 0.678888
vt 0.424298 0.678888
vt 0.417457 0.664685
vt 0.417457 0.664685
vt 0.450143 0.638875
vt 0.450698 0.663263
vt 0.457543 0.649060
vt 0.417040 0.614825
vt 0.393673 0.621832
vt 0.405069 0.610934
vt 0.401833 0.662565
vt 0.401833 0.662565
vt 0.481323 0.621832
vt 0.424853 0.638875
vt 0.424298 0.663263
vt 0.417457 0.649060
vt 0.450698 0.678888
vt 0.450698 0.678888
vt 0.457543 0.664685
vt 0.457543 0.664685
vt 0.402257 0.611046
vt 0.402257 0.611046
vt 0.405069 0.626559
vt 0.405069 0.626559
vt 0.450143 0.638875
vt 0.473167 0.646940
vt 0.457543 0.649060
vt 0.481323 0.637457
vt 0.481323 0.637457
vt 0.393673 0.637457
vt 0.393673 0.637457
vt 0.423615 0.579904
vt 0.451385 0.595529
vt 0.451385 0.595529
vt 0.447728 0.638552
vt 0.457957 0.631120
vt 0.458848 0.645984
vt 0.454049 0.619094
vt 0.457957 0.631120
vt 0.467415 0.619618
vt 0.454049 0.619094
vt 0.450143 0.607069
vt 0.464556 0.610815
vt 0.437497 0.607069
vt 0.450143 0.607069
vt 0.442125 0.594520
vt 0.437497 0.607069
vt 0.424853 0.607069
vt 0.432872 0.594520
vt 0.469928 0.610934
vt 0.481323 0.621832
vt 0.457957 0.614825
vt 0.437500 0.599960
vt 0.451385 0.579904
vt 0.437500 0.587372
vt 0.427268 0.638552
vt 0.417040 0.631120
vt 0.416148 0.645984
vt 0.427268 0.638552
vt 0.437497 0.645984
vt 0.423636 0.651424
vt 0.472743 0.595421
vt 0.402257 0.595421
vt 0.473167 0.662565
vt 0.473167 0.662565
vt 0.405069 0.610934
vt 0.393673 0.621832
vt 0.417040 0.614825
vt 0.401833 0.646940
vt 0.424298 0.663263
vt 0.450698 0.663263
vt 0.473167 0.646940
vt 0.420945 0.619094
vt 0.417040 0.631120
vt 0.407582 0.619618
vt 0.420945 0.619094
vt 0.424853 0.607069
vt 0.410440 0.610815
vt 0.402257 0.595421
vt 0.447728 0.638552
vt 0.437497 0.645984
vt 0.451361 0.651424
vt 0.485289 0.657704
vt 0.485289 0.657704
vt 0.488276 0.648514
vt 0.488276 0.648514
vt 0.488276 0.632889
vt 0.467415 0.626326
vt 0.485289 0.642079
vt 0.464556 0.635129
vt 0.485289 0.642079
vt 0.464556 0.635129
vt 0.488276 0.632889
vt 0.467415 0.626326
vt 0.432670 0.688914
vt 0.432670 0.688914
vt 0.442330 0.688914
vt 0.442330 0.688914
vt 0.432872 0.651424
vt 0.432670 0.673289
vt 0.442125 0.651424
vt 0.442330 0.673289
vt 0.442125 0.651424
vt 0.442330 0.673289
vt 0.432872 0.651424
vt 0.432670 0.673289
vt 0.386724 0.648514
vt 0.386724 0.648514
vt 0.389711 0.657705
vt 0.389711 0.657705
vt 0.407582 0.626326
vt 0.386724 0.632889
vt 0.410440 0.635129
vt 0.389711 0.642080
vt 0.410440 0.635130
vt 0.389711 0.642080
vt 0.407582 0.626326
vt 0.386724 0.632889
vt 0.403135 0.598016
vt 0.403135 0.598016
vt 0.410948 0.592336
vt 0.410948 0.592336
vt 0.423636 0.594520
vt 0.410948 0.576711
vt 0.416148 0.599961
vt 0.403135 0.582391
vt 0.416148 0.599961
vt 0.403135 0.582391
vt 0.423636 0.594520
vt 0.410948 0.576711
vt 0.423615 0.579904
vt 0.471865 0.598016
vt 0.471865 0.598016
vt 0.464048 0.592336
vt 0.464048 0.592336
vt 0.464048 0.576711
vt 0.451361 0.594520
vt 0.471865 0.582391
vt 0.458848 0.599961
vt 0.471865 0.582391
vt 0.458848 0.599961
vt 0.464048 0.576711
vt 0.451361 0.594520
vt 0.437497 0.624472
vt 0.437497 0.624472
vt 0.432872 0.594520
vt 0.464556 0.610815
vt 0.407582 0.619618
vt 0.423636 0.651424
vt 0.458848 0.645984
vt 0.442125 0.594520
vt 0.410440 0.610815
vt 0.416148 0.645984
vt 0.467415 0.619618
vt 0.451361 0.651424
vt 0.562532 0.603003
vt 0.930179 0.603762
vt 0.928426 0.603995
vt 0.930284 0.611813
vt 0.930988 0.610588
vt 0.934908 0.658872
vt 0.930988 0.657463
vt 0.930179 0.650637
vt 0.934774 0.650872
vt 0.930284 0.633552
vt 0.930988 0.634778
vt 0.930179 0.641604
vt 0.928426 0.641371
vt 0.930179 0.594729
vt 0.934774 0.594494
vt 0.934908 0.586494
vt 0.930988 0.587903
vt 0.940097 0.611997
vt 0.940232 0.615050
vt 0.944722 0.611813
vt 0.944018 0.610588
vt 0.944018 0.657463
vt 0.940097 0.658872
vt 0.940232 0.650872
vt 0.944827 0.650637
vt 0.940232 0.594494
vt 0.944827 0.594729
vt 0.944018 0.587903
vt 0.940097 0.586494
vt 0.930284 0.658688
vt 0.934775 0.661925
vt 0.946582 0.594496
vt 0.944722 0.586677
vt 0.944827 0.641604
vt 0.940232 0.641369
vt 0.940097 0.633369
vt 0.944018 0.634778
vt 0.934775 0.583441
vt 0.930284 0.586677
vt 0.944722 0.658688
vt 0.946582 0.650870
vt 0.944722 0.633552
vt 0.940232 0.630316
vt 0.934775 0.630316
vt 0.934908 0.633369
vt 0.940232 0.583441
vt 0.928426 0.594496
vt 0.934775 0.615050
vt 0.934908 0.611997
vt 0.946582 0.603995
vt 0.944827 0.603762
vt 0.934774 0.641369
vt 0.940232 0.661925
vt 0.940232 0.603997
vt 0.928426 0.650870
vt 0.946582 0.641371
vt 0.934774 0.603997
vt 0.926679 0.612755
vt 0.930404 0.587955
vt 0.935790 0.594395
vt 0.934897 0.622581
vt 0.923976 0.698859
vt 0.919084 0.663305
vt 0.928606 0.674690
vt 0.922866 0.638125
vt 0.932285 0.649387
vt 0.913448 0.626863
vt 0.918459 0.602928
vt 0.909560 0.651920
vt 0.925018 0.581516
vt 0.906622 0.678111
vt 0.932446 0.574365
vt 0.935251 0.577717
vt 0.929642 0.571012
vt 0.948330 0.612755
vt 0.940110 0.622581
vt 0.939218 0.594395
vt 0.944604 0.587955
vt 0.951033 0.698859
vt 0.946402 0.674690
vt 0.955924 0.663305
vt 0.942722 0.649387
vt 0.952141 0.638125
vt 0.961561 0.626863
vt 0.956549 0.602928
vt 0.965448 0.651920
vt 0.949990 0.581516
vt 0.968385 0.678111
vt 0.939757 0.577717
vt 0.942561 0.574365
vt 0.945366 0.571012
vt 0.948537 0.590283
vt 0.947072 0.587925
vt 0.943964 0.601229
vt 0.946731 0.602078
vt 0.947072 0.634800
vt 0.946697 0.636593
vt 0.944613 0.648303
vt 0.943964 0.648104
vt 0.944271 0.660547
vt 0.944272 0.662456
vt 0.944272 0.615581
vt 0.946112 0.614238
vt 0.960207 0.627903
vt 0.957817 0.635760
vt 0.966848 0.638892
vt 0.969017 0.631332
vt 0.957817 0.682635
vt 0.957116 0.673829
vt 0.966009 0.677284
vt 0.966848 0.685767
vt 0.972282 0.674145
vt 0.973928 0.677477
vt 0.973928 0.630602
vt 0.974666 0.628002
vt 0.975139 0.610799
vt 0.974830 0.610704
vt 0.972241 0.656785
vt 0.975139 0.657674
vt 0.975691 0.640496
vt 0.977893 0.638345
vt 0.977893 0.591470
vt 0.978075 0.594353
vt 0.964467 0.585835
vt 0.963767 0.577029
vt 0.953963 0.581517
vt 0.954791 0.587916
vt 0.963767 0.623904
vt 0.961377 0.631761
vt 0.952214 0.634001
vt 0.953963 0.628392
vt 0.969784 0.609155
vt 0.962948 0.607057
vt 0.973419 0.587858
vt 0.948947 0.666269
vt 0.949964 0.649946
vt 0.958636 0.652608
vt 0.965927 0.654846
vt 0.970413 0.633810
vt 0.951523 0.620185
vt 0.953489 0.604153
vt 0.972865 0.579463
vt 0.972865 0.626338
vt 0.949489 0.625707
vt 0.949489 0.672582
vt 0.926471 0.590283
vt 0.928277 0.602078
vt 0.931043 0.601229
vt 0.927935 0.587925
vt 0.928895 0.614238
vt 0.930736 0.615581
vt 0.931043 0.648104
vt 0.930736 0.662456
vt 0.930737 0.660547
vt 0.930393 0.648303
vt 0.927935 0.634800
vt 0.928310 0.636593
vt 0.914801 0.627903
vt 0.905991 0.631332
vt 0.908160 0.638892
vt 0.917190 0.635760
vt 0.900340 0.628002
vt 0.901078 0.630602
vt 0.908160 0.685767
vt 0.901078 0.677477
vt 0.902724 0.674145
vt 0.908998 0.677284
vt 0.917190 0.682635
vt 0.917892 0.673829
vt 0.900178 0.610704
vt 0.899868 0.610799
vt 0.896932 0.594353
vt 0.897115 0.591470
vt 0.899868 0.657674
vt 0.897115 0.638345
vt 0.899316 0.640496
vt 0.902766 0.656785
vt 0.910541 0.585835
vt 0.920216 0.587916
vt 0.921043 0.581517
vt 0.911241 0.577029
vt 0.921043 0.628392
vt 0.922792 0.634001
vt 0.911241 0.623904
vt 0.913630 0.631761
vt 0.912060 0.607057
vt 0.905224 0.609155
vt 0.901587 0.587858
vt 0.916372 0.652608
vt 0.925043 0.649946
vt 0.926061 0.666269
vt 0.909079 0.654846
vt 0.904595 0.633810
vt 0.921519 0.604153
vt 0.923485 0.620185
vt 0.902142 0.579463
vt 0.902142 0.626338
vt 0.925518 0.625707
vt 0.925518 0.672582
vt 0.926679 0.565880
vt 0.934897 0.575706
vt 0.935790 0.547520
vt 0.930404 0.541080
vt 0.923976 0.651984
vt 0.928606 0.627815
vt 0.919084 0.616430
vt 0.932285 0.602512
vt 0.922866 0.591250
vt 0.913448 0.579988
vt 0.918459 0.556053
vt 0.909560 0.605045
vt 0.925018 0.534641
vt 0.906622 0.631236
vt 0.935251 0.530842
vt 0.932446 0.527490
vt 0.929642 0.524137
vt 0.948330 0.565880
vt 0.944604 0.541080
vt 0.939218 0.547520
vt 0.940110 0.575706
vt 0.951033 0.651984
vt 0.955924 0.616430
vt 0.946402 0.627815
vt 0.952141 0.591250
vt 0.942722 0.602512
vt 0.961561 0.579988
vt 0.956549 0.556053
vt 0.965448 0.605045
vt 0.949990 0.534641
vt 0.968385 0.631236
vt 0.942561 0.527490
vt 0.939757 0.530842
vt 0.945366 0.524137
vt 0.919084 0.663305
vt 0.955924 0.663305
vn 0.7357 0.4627 -0.4947
vn 0.6767 0.4706 -0.5662
vn 0.9019 0.4320 -0.0000
vn 0.5647 -0.4752 -0.6747
vn 0.4584 -0.4701 -0.7542
vn 0.7482 -0.4600 -0.4781
vn 0.7482 -0.4600 0.4781
vn 0.2941 -0.1701 0.9405
vn 0.5582 -0.4718 0.6825
vn 0.0000 0.3104 0.9506
vn -0.2941 -0.1701 0.9405
vn -0.5581 -0.4719 0.6826
vn -0.7481 -0.4601 0.4781
vn -0.3746 0.9272 -0.0000
vn -0.7481 -0.4601 -0.4781
vn -0.4584 -0.4701 -0.7542
vn -0.5646 -0.4753 -0.6748
vn 0.0000 -0.4433 -0.8964
vn -0.6823 0.2623 -0.6824
vn 0.0000 0.2623 -0.9650
vn -0.0000 0.1230 -0.9924
vn -0.7017 0.1230 -0.7017
vn 0.6857 0.4758 0.5509
vn 0.5985 -0.0486 0.7997
vn -0.9650 0.2623 -0.0000
vn -0.9924 0.1230 -0.0000
vn -0.6823 0.2623 0.6824
vn -0.7017 0.1230 0.7017
vn -0.6985 0.1556 -0.6985
vn -0.9878 0.1556 -0.0000
vn -1.0000 0.0015 -0.0000
vn -0.7071 0.0015 -0.7071
vn 0.0000 0.2623 0.9650
vn -0.0000 0.1230 0.9924
vn -0.9018 0.4322 -0.0000
vn -0.6766 0.4708 -0.5662
vn -0.7356 0.4628 -0.4946
vn -0.6352 -0.7723 -0.0000
vn -0.4492 -0.7723 0.4492
vn -0.5947 -0.5409 0.5947
vn -0.8411 -0.5409 -0.0000
vn 0.6824 0.2622 0.6824
vn 0.7017 0.1230 0.7017
vn -0.5985 -0.0485 0.7997
vn -0.6856 0.4760 0.5508
vn 0.4492 -0.7723 0.4492
vn 0.6352 -0.7723 -0.0000
vn 0.8411 -0.5409 -0.0000
vn 0.5947 -0.5409 0.5947
vn 0.9650 0.2622 0.0000
vn 0.9924 0.1230 -0.0000
vn 0.0000 0.3546 0.9350
vn 0.7065 0.0429 -0.7065
vn 0.9991 0.0429 0.0000
vn 0.9884 -0.1521 0.0000
vn 0.6989 -0.1521 -0.6989
vn 0.6824 0.2622 -0.6824
vn 0.7017 0.1230 -0.7017
vn -0.9991 0.0429 -0.0000
vn -0.7065 0.0429 -0.7065
vn -0.6989 -0.1521 -0.6989
vn -0.9884 -0.1521 -0.0000
vn 0.6985 0.1556 -0.6985
vn 0.9878 0.1556 0.0000
vn 0.9992 -0.0395 -0.0000
vn 0.7066 -0.0395 -0.7066
vn 0.4623 0.4696 -0.7522
vn -0.6042 -0.7968 0.0000
vn -0.9398 -0.3417 0.0000
vn -0.6646 -0.3417 -0.6646
vn -0.4272 -0.7968 -0.4273
vn -0.4272 -0.7968 0.4273
vn -0.6646 -0.3417 0.6646
vn 0.0000 -0.7968 0.6043
vn -0.0000 -0.3416 0.9399
vn 0.4273 -0.7967 0.4273
vn 0.6646 -0.3415 0.6646
vn 0.6044 -0.7967 -0.0000
vn 0.9399 -0.3415 -0.0000
vn -0.0000 -0.3416 -0.9399
vn 0.0000 -0.7968 -0.6043
vn -0.7065 0.0429 0.7065
vn -0.6989 -0.1521 0.6989
vn -0.7024 0.1153 -0.7024
vn 0.0000 0.1153 -0.9933
vn -0.9933 0.1153 -0.0000
vn -0.7024 0.1153 0.7024
vn 0.0000 0.1153 0.9933
vn 0.7024 0.1152 0.7024
vn 0.9933 0.1152 0.0000
vn 0.7024 0.1152 -0.7024
vn 0.0000 0.1556 -0.9878
vn -0.0000 -0.0395 -0.9992
vn 0.4273 -0.7967 -0.4273
vn 0.6646 -0.3415 -0.6646
vn 0.0000 -1.0000 0.0000
vn -0.6831 0.4194 -0.5979
vn -0.4537 0.4118 -0.7903
vn -0.7587 0.4119 -0.5047
vn -0.9237 0.3831 -0.0000
vn -0.8929 0.3703 0.2562
vn 0.9237 0.3830 -0.0000
vn 0.8929 0.3702 0.2563
vn 0.6831 0.4193 -0.5979
vn 0.7587 0.4118 -0.5047
vn 0.4537 0.4117 -0.7904
vn -0.4623 0.4697 -0.7521
vn 0.3746 0.9272 0.0000
vn 0.0000 1.0000 0.0000
vn -0.0000 -0.5403 -0.8415
vn 0.4130 -0.5785 -0.7034
vn 0.4872 -0.5859 -0.6476
vn 0.6795 -0.5780 -0.4519
vn 0.6795 -0.5780 0.4519
vn 0.3738 -0.5685 0.7329
vn -0.6794 -0.5780 0.4519
vn -0.3738 -0.5685 0.7329
vn -0.6794 -0.5780 -0.4519
vn -0.4129 -0.5785 -0.7034
vn -0.4871 -0.5859 -0.6476
vn 0.0000 0.0020 -1.0000
vn 0.6288 0.0021 -0.7776
vn 0.7074 0.0021 -0.7068
vn -0.6288 0.0021 -0.7776
vn -0.7074 0.0021 -0.7068
vn 1.0000 0.0022 -0.0000
vn 0.6288 0.0021 0.7776
vn 0.7074 0.0021 0.7068
vn 0.0000 0.0020 1.0000
vn -0.6288 0.0021 0.7776
vn -0.7074 0.0021 0.7068
vn -1.0000 0.0022 -0.0000
vn -0.0000 0.0429 -0.9991
vn 0.0000 -0.1521 -0.9884
vn -0.6335 0.7738 0.0000
vn -0.4479 0.7738 -0.4479
vn -0.5937 0.5431 -0.5937
vn -0.8396 0.5431 -0.0000
vn -0.4479 0.7738 0.4479
vn -0.5937 0.5431 0.5937
vn -0.0000 0.7738 0.6335
vn -0.0000 0.5431 0.8396
vn 0.4479 0.7738 0.4479
vn 0.5937 0.5431 0.5937
vn 0.4492 -0.7723 -0.4492
vn 0.5947 -0.5409 -0.5947
vn -0.6985 0.1556 0.6985
vn -0.9992 -0.0395 0.0000
vn -0.7066 -0.0395 0.7066
vn -0.0000 0.7738 -0.6335
vn 0.4479 0.7738 -0.4479
vn 0.5937 0.5431 -0.5937
vn -0.0000 0.5431 -0.8396
vn -0.7066 -0.0395 -0.7066
vn 0.7065 0.0429 0.7065
vn 0.6989 -0.1521 0.6989
vn 0.6985 0.1556 0.6985
vn 0.7066 -0.0395 0.7066
vn -0.0000 0.0429 0.9991
vn 0.0000 -0.1521 0.9884
vn 0.0000 0.1556 0.9878
vn -0.0000 -0.0395 0.9992
vn 0.6335 0.7738 0.0000
vn 0.8396 0.5431 -0.0000
vn -0.4492 -0.7723 -0.4492
vn -0.5947 -0.5409 -0.5947
vn -0.0000 -0.7723 0.6352
vn -0.0000 -0.5409 0.8411
vn 0.7071 0.0015 -0.7071
vn 0.0000 0.0015 -1.0000
vn 1.0000 0.0015 0.0000
vn 0.7071 0.0015 0.7071
vn 0.0000 0.0015 1.0000
vn -0.7071 0.0015 0.7071
vn -0.0000 -0.7723 -0.6352
vn -0.0000 -0.5409 -0.8411
vn -1.0000 0.0000 0.0000
vn -0.8660 0.5000 0.0000
vn -0.6375 0.3681 -0.6768
vn -0.7362 0.0000 -0.6768
vn -0.0550 0.0318 -0.9980
vn -0.0635 -0.0000 -0.9980
vn 0.5823 -0.3362 -0.7402
vn 0.6724 -0.0000 -0.7402
vn 0.8660 -0.5000 0.0000
vn 1.0000 -0.0000 0.0000
vn 0.5823 -0.3362 0.7402
vn 0.6724 -0.0000 0.7402
vn -0.0550 0.0318 0.9980
vn -0.0635 0.0000 0.9980
vn -0.6375 0.3681 0.6768
vn -0.7362 0.0000 0.6768
vn -0.5000 0.8660 0.0000
vn -0.3681 0.6375 -0.6768
vn -0.0318 0.0550 -0.9980
vn 0.3362 -0.5823 -0.7402
vn 0.5000 -0.8660 0.0000
vn 0.3362 -0.5823 0.7402
vn -0.0318 0.0550 0.9980
vn -0.3681 0.6375 0.6768
vn -0.0000 0.7362 -0.6768
vn -0.0000 0.0635 -0.9980
vn -0.0000 -0.6724 -0.7402
vn 0.0000 -0.6724 0.7402
vn -0.0000 0.0635 0.9980
vn 0.0000 0.7362 0.6768
vn 0.5000 0.8660 0.0000
vn 0.3681 0.6375 -0.6768
vn 0.0318 0.0550 -0.9980
vn -0.3362 -0.5823 -0.7402
vn -0.5000 -0.8660 0.0000
vn -0.3362 -0.5823 0.7402
vn 0.0318 0.0550 0.9980
vn 0.3681 0.6375 0.6768
vn 0.8660 0.5000 0.0000
vn 0.6375 0.3681 -0.6768
vn 0.0550 0.0318 -0.9980
vn -0.5823 -0.3362 -0.7402
vn -0.8660 -0.5000 0.0000
vn -0.5823 -0.3362 0.7402
vn 0.0550 0.0318 0.9980
vn 0.6375 0.3681 0.6768
vn 0.7362 0.0000 -0.6768
vn 0.0635 0.0000 -0.9980
vn -0.6724 -0.0000 -0.7402
vn -0.6724 -0.0000 0.7402
vn 0.0635 0.0000 0.9980
vn 0.7362 0.0000 0.6768
vn 0.6375 -0.3681 -0.6768
vn 0.0550 -0.0318 -0.9980
vn -0.5823 0.3362 -0.7402
vn -0.5823 0.3362 0.7402
vn 0.0550 -0.0318 0.9980
vn 0.6375 -0.3681 0.6768
vn 0.3681 -0.6375 -0.6768
vn 0.0318 -0.0550 -0.9980
vn -0.3362 0.5823 -0.7402
vn -0.3362 0.5823 0.7402
vn 0.0318 -0.0550 0.9980
vn 0.3681 -0.6375 0.6768
vn -0.0000 -0.7362 -0.6768
vn -0.0000 -0.0635 -0.9980
vn -0.0000 0.6724 -0.7402
vn -0.0000 0.6724 0.7402
vn 0.0000 -0.0635 0.9980
vn 0.0000 -0.7362 0.6768
vn -0.3681 -0.6375 -0.6768
vn -0.0318 -0.0550 -0.9980
vn 0.3362 0.5823 -0.7402
vn 0.3362 0.5823 0.7402
vn -0.0318 -0.0550 0.9980
vn -0.3681 -0.6375 0.6768
vn -0.6375 -0.3681 -0.6768
vn -0.0550 -0.0318 -0.9980
vn 0.5823 0.3362 -0.7402
vn 0.5823 0.3362 0.7402
vn -0.0550 -0.0318 0.9980
vn -0.6375 -0.3681 0.6768
vn 0.0000 -0.6870 0.7266
vn -0.2010 -0.6057 0.7699
vn 0.0000 -0.6393 0.7689
vn 0.9984 0.0563 0.0000
vn 0.9840 0.1783 0.0000
vn 0.6080 -0.1976 -0.7689
vn 0.6534 -0.2123 -0.7266
vn 0.6381 0.0040 -0.7699
vn -0.3758 0.5172 -0.7689
vn -0.1934 0.6081 -0.7699
vn -0.4038 0.5558 -0.7266
vn 0.3621 -0.9321 -0.0000
vn 0.4737 -0.8807 -0.0000
vn -0.8408 0.5413 0.0000
vn -0.9009 0.4341 0.0000
vn 0.3758 0.5172 -0.7689
vn 0.5186 0.3719 -0.7699
vn 0.4038 0.5558 -0.7266
vn -0.6080 -0.1976 0.7689
vn -0.5139 -0.3783 0.7699
vn -0.6534 -0.2123 0.7266
vn -0.2550 0.9670 0.0000
vn -0.1345 0.9909 0.0000
vn 0.5139 -0.3783 -0.7699
vn -0.3758 0.5172 0.7689
vn -0.5186 0.3719 0.7699
vn -0.4038 0.5558 0.7266
vn 0.8408 0.5413 0.0000
vn 0.9009 0.4341 0.0000
vn -0.9984 0.0563 0.0000
vn -0.9840 0.1783 0.0000
vn 0.3758 0.5172 0.7689
vn 0.1934 0.6081 0.7699
vn 0.4038 0.5558 0.7266
vn 0.7746 -0.6324 0.0000
vn 0.6912 -0.7226 0.0000
vn -0.7746 -0.6324 0.0000
vn -0.6912 -0.7226 0.0000
vn 0.2010 -0.6057 0.7699
vn -0.3621 -0.9321 -0.0000
vn -0.4736 -0.8807 -0.0000
vn 0.0863 0.1188 0.9892
vn 0.2055 0.0668 0.9764
vn 0.1132 0.0163 0.9934
vn 0.1396 -0.0454 -0.9892
vn 0.2055 0.0668 -0.9764
vn 0.1012 0.0534 -0.9934
vn 0.1396 -0.0454 0.9892
vn 0.1270 -0.1748 0.9764
vn 0.0505 -0.1026 0.9934
vn 0.0000 -0.1468 -0.9892
vn 0.1270 -0.1748 -0.9764
vn 0.0820 -0.0797 -0.9934
vn 0.0000 -0.1468 0.9892
vn -0.1270 -0.1748 0.9764
vn -0.0820 -0.0797 0.9934
vn 0.6534 -0.2123 0.7266
vn 0.5139 -0.3783 0.7699
vn 0.6080 -0.1976 0.7689
vn 0.0000 -0.6393 -0.7689
vn -0.2010 -0.6057 -0.7699
vn 0.0000 -0.6870 -0.7266
vn -0.0863 0.1188 -0.9892
vn -0.2055 0.0668 -0.9764
vn -0.1132 0.0163 -0.9934
vn -0.0863 0.1188 0.9892
vn -0.0000 0.2161 0.9764
vn 0.0195 0.1127 0.9934
vn 0.6381 0.0040 0.7699
vn -0.6381 0.0040 0.7699
vn 0.2550 0.9670 0.0000
vn 0.1345 0.9909 0.0000
vn -0.6534 -0.2123 -0.7266
vn -0.5139 -0.3783 -0.7699
vn -0.6080 -0.1976 -0.7689
vn -0.1934 0.6081 0.7699
vn -0.5186 0.3719 -0.7699
vn 0.5186 0.3719 0.7699
vn 0.1934 0.6081 -0.7699
vn -0.1396 -0.0454 0.9892
vn -0.2055 0.0668 0.9764
vn -0.1012 0.0534 0.9934
vn -0.1396 -0.0454 -0.9892
vn -0.1270 -0.1748 -0.9764
vn -0.0505 -0.1026 -0.9934
vn -0.6381 0.0040 -0.7699
vn 0.0863 0.1188 -0.9892
vn -0.0000 0.2161 -0.9764
vn -0.0195 0.1127 -0.9934
vn 0.3722 0.9282 0.0000
vn 0.9511 0.3090 0.0000
vn 0.8466 -0.5322 0.0000
vn 0.4697 -0.0251 0.8825
vn 0.4939 -0.1547 0.8556
vn 0.3652 0.2964 0.8825
vn 0.3087 0.4154 0.8556
vn 0.3652 0.2964 -0.8825
vn 0.3087 0.4154 -0.8556
vn 0.4697 -0.0251 -0.8825
vn 0.4939 -0.1547 -0.8556
vn -0.7677 0.6408 0.0000
vn 0.7677 0.6408 0.0000
vn -0.2997 0.4220 0.8556
vn -0.1690 0.4389 0.8825
vn 0.2997 0.4220 0.8556
vn 0.1690 0.4389 0.8825
vn 0.2997 0.4220 -0.8556
vn 0.1690 0.4389 -0.8825
vn -0.2997 0.4220 -0.8556
vn -0.1690 0.4389 -0.8825
vn -0.8467 -0.5321 0.0000
vn -0.9511 0.3090 0.0000
vn -0.3722 0.9282 0.0000
vn -0.4939 -0.1546 0.8556
vn -0.4697 -0.0251 0.8825
vn -0.3087 0.4154 0.8556
vn -0.3652 0.2964 0.8825
vn -0.3087 0.4154 -0.8556
vn -0.3652 0.2964 -0.8825
vn -0.4939 -0.1546 -0.8556
vn -0.4697 -0.0251 -0.8825
vn -0.9977 -0.0672 -0.0000
vn -0.5878 -0.8090 0.0000
vn 0.2445 -0.9697 -0.0000
vn -0.0056 -0.5175 0.8556
vn -0.1212 -0.4544 0.8825
vn -0.4905 -0.1652 0.8556
vn -0.3947 -0.2557 0.8825
vn -0.4905 -0.1652 -0.8556
vn -0.3947 -0.2557 -0.8825
vn -0.0056 -0.5175 -0.8556
vn -0.1212 -0.4544 -0.8825
vn 0.2010 -0.6057 -0.7699
vn 0.9977 -0.0671 0.0000
vn 0.5878 -0.8090 0.0000
vn -0.2445 -0.9697 -0.0000
vn 0.1212 -0.4544 0.8825
vn 0.0056 -0.5175 0.8556
vn 0.3947 -0.2557 0.8825
vn 0.4905 -0.1652 0.8556
vn 0.3947 -0.2557 -0.8825
vn 0.4905 -0.1652 -0.8556
vn 0.1212 -0.4544 -0.8825
vn 0.0056 -0.5175 -0.8556
vn -0.0000 0.0000 -1.0000
vn -0.0000 -0.0000 1.0000
vn -0.0820 -0.0797 -0.9934
vn 0.0505 -0.1026 -0.9934
vn -0.1012 0.0534 -0.9934
vn 0.0195 0.1127 -0.9934
vn 0.1132 0.0163 -0.9934
vn 0.0820 -0.0797 0.9934
vn -0.0505 -0.1026 0.9934
vn -0.1132 0.0163 0.9934
vn 0.1012 0.0534 0.9934
vn -0.0195 0.1127 0.9934
vn 0.0000 -0.3855 0.9227
vn -0.7363 0.1862 -0.6505
vn -0.9857 0.1683 -0.0000
vn -0.7071 0.7071 -0.0000
vn -0.5985 0.5985 -0.5326
vn -0.1862 0.7363 0.6505
vn -0.5985 0.5985 0.5326
vn -0.7363 0.1862 0.6505
vn -0.2315 0.2315 0.9449
vn -0.7071 -0.7071 -0.0000
vn -0.5985 -0.5985 0.5326
vn -0.7363 -0.1862 0.6505
vn -0.9857 -0.1683 -0.0000
vn -0.7363 -0.1862 -0.6505
vn -0.2315 -0.2315 -0.9449
vn -0.1862 -0.7363 -0.6505
vn -0.5985 -0.5985 -0.5326
vn 0.1862 0.7363 -0.6505
vn 0.1683 0.9857 -0.0000
vn 0.7071 0.7071 -0.0000
vn 0.5985 0.5985 -0.5326
vn 0.5985 0.5985 0.5326
vn 0.1862 0.7363 0.6505
vn 0.2315 0.2315 0.9449
vn 0.7363 0.1862 0.6505
vn 0.2315 -0.2315 -0.9449
vn 0.7363 -0.1862 -0.6505
vn 0.5985 -0.5985 -0.5326
vn 0.1862 -0.7363 -0.6505
vn -0.1683 0.9857 -0.0000
vn 0.9857 -0.1683 0.0000
vn 0.7071 -0.7071 0.0000
vn 0.7363 -0.1862 0.6505
vn 0.2315 -0.2315 0.9449
vn 0.1862 -0.7363 0.6505
vn 0.5985 -0.5985 0.5326
vn -0.1683 -0.9857 -0.0000
vn 0.9857 0.1683 -0.0000
vn 0.1683 -0.9857 0.0000
vn -0.1862 -0.7363 0.6505
vn -0.1862 0.7363 -0.6505
vn 0.7363 0.1862 -0.6505
vn -0.2315 -0.2315 0.9449
vn 0.2315 0.2315 -0.9449
vn -0.2315 0.2315 -0.9449
vn -0.0664 0.1495 0.9865
vn -0.1261 0.3133 0.9412
vn -0.3911 0.1638 0.9057
vn -0.3323 0.0173 0.9430
vn -0.1999 -0.1912 0.9610
vn 0.0088 -0.0418 0.9991
vn -0.2205 -0.1505 0.9637
vn -0.0264 0.0420 0.9988
vn -0.2665 -0.0654 0.9616
vn 0.2171 0.1415 0.9658
vn 0.2090 0.2569 0.9436
vn 0.2497 0.0401 0.9675
vn 0.1597 0.4078 0.8990
vn 0.2675 -0.0075 0.9635
vn -0.1722 0.4344 0.8841
vn -0.3999 0.3186 0.8594
vn 0.0668 0.5216 0.8505
vn 0.0664 0.1495 0.9865
vn 0.3323 0.0173 0.9430
vn 0.3911 0.1638 0.9057
vn 0.1261 0.3133 0.9412
vn 0.1999 -0.1912 0.9610
vn 0.2205 -0.1505 0.9637
vn -0.0088 -0.0418 0.9991
vn 0.2665 -0.0654 0.9616
vn 0.0264 0.0420 0.9988
vn -0.2171 0.1415 0.9658
vn -0.2090 0.2569 0.9436
vn -0.2497 0.0401 0.9675
vn -0.1597 0.4078 0.8990
vn -0.2675 -0.0075 0.9635
vn 0.3999 0.3186 0.8594
vn 0.1722 0.4344 0.8841
vn -0.0668 0.5216 0.8505
vn -0.4460 -0.4342 -0.7826
vn -0.7439 -0.6354 -0.2072
vn -0.9641 -0.0843 -0.2517
vn -0.5263 -0.0460 -0.8490
vn -0.7650 -0.4622 0.4485
vn -0.8717 -0.0763 0.4840
vn -0.8336 0.3223 0.4485
vn -0.8429 0.4966 -0.2072
vn -0.5146 0.3502 -0.7826
vn 0.0484 0.5379 -0.8416
vn -0.0710 0.7845 -0.6160
vn 0.3032 0.8175 -0.4897
vn 0.4169 0.5500 -0.7237
vn -0.3697 0.7584 0.5368
vn -0.3868 0.5084 0.7693
vn -0.0093 0.5405 0.8413
vn 0.0183 0.7926 0.6095
vn 0.2372 0.4592 0.8561
vn 0.3617 0.7342 0.5746
vn 0.5871 0.7539 -0.2950
vn 0.9993 -0.0231 0.0307
vn 0.9715 -0.0124 0.2369
vn 0.9634 0.0843 0.2546
vn 0.9957 0.0871 0.0309
vn 0.8929 -0.0001 0.4503
vn 0.8888 0.0778 0.4517
vn 0.8793 0.1551 0.4503
vn 0.9546 0.1809 0.2369
vn 0.9801 0.1962 0.0307
vn 0.1411 -0.5214 -0.8416
vn 0.0663 -0.7849 -0.6160
vn -0.1873 -0.7813 -0.5954
vn -0.1014 -0.5202 -0.8480
vn -0.2324 -0.8111 0.5368
vn -0.2926 -0.5679 0.7693
vn -0.4946 -0.5546 0.6692
vn -0.4441 -0.8038 0.3958
vn 0.4243 0.0371 -0.9048
vn 0.2002 0.0175 -0.9796
vn 0.5544 0.0715 -0.8292
vn 0.5565 0.0487 -0.8294
vn 0.5583 0.0259 -0.8292
vn 0.5061 -0.4692 -0.7237
vn -0.5834 0.4603 0.6692
vn -0.4977 -0.0435 0.8662
vn -0.3298 -0.0289 0.9436
vn -0.0970 -0.0085 0.9952
vn 0.0936 0.0082 0.9956
vn 0.0847 -0.5340 0.8413
vn 0.3134 -0.4110 0.8561
vn -0.1902 0.4947 -0.8480
vn -0.0142 -0.0012 -0.9999
vn 0.7091 -0.6405 -0.2950
vn 0.4405 -0.7524 -0.4897
vn 0.4837 -0.6602 0.5746
vn 0.1557 -0.7774 0.6095
vn -0.3201 0.7369 -0.5954
vn -0.5770 0.7145 0.3958
vn 0.4460 -0.4342 -0.7826
vn 0.5263 -0.0460 -0.8490
vn 0.9641 -0.0843 -0.2517
vn 0.7439 -0.6354 -0.2072
vn 0.5146 0.3502 -0.7826
vn 0.8429 0.4966 -0.2072
vn 0.8336 0.3223 0.4485
vn 0.8717 -0.0763 0.4840
vn 0.7650 -0.4622 0.4485
vn -0.0484 0.5379 -0.8416
vn -0.4169 0.5500 -0.7237
vn -0.3032 0.8175 -0.4897
vn 0.0710 0.7845 -0.6160
vn -0.5871 0.7539 -0.2950
vn -0.0183 0.7926 0.6095
vn -0.3617 0.7342 0.5746
vn -0.2372 0.4592 0.8561
vn 0.0093 0.5405 0.8413
vn 0.3697 0.7584 0.5368
vn 0.3868 0.5084 0.7693
vn -0.9993 -0.0231 0.0307
vn -0.9957 0.0871 0.0309
vn -0.9634 0.0843 0.2546
vn -0.9715 -0.0124 0.2369
vn -0.9801 0.1962 0.0307
vn -0.9545 0.1809 0.2369
vn -0.8793 0.1552 0.4503
vn -0.8888 0.0778 0.4517
vn -0.8929 -0.0001 0.4503
vn -0.1411 -0.5214 -0.8416
vn 0.1014 -0.5202 -0.8480
vn 0.1873 -0.7813 -0.5954
vn -0.0663 -0.7849 -0.6160
vn 0.4441 -0.8038 0.3958
vn 0.4946 -0.5546 0.6692
vn 0.2324 -0.8111 0.5368
vn 0.2926 -0.5679 0.7693
vn -0.2002 0.0175 -0.9796
vn -0.4243 0.0371 -0.9048
vn -0.5061 -0.4692 -0.7237
vn -0.5583 0.0259 -0.8292
vn -0.5565 0.0487 -0.8294
vn -0.5544 0.0715 -0.8292
vn 0.3298 -0.0289 0.9436
vn 0.4977 -0.0435 0.8662
vn 0.5834 0.4603 0.6692
vn -0.0936 0.0082 0.9956
vn 0.0970 -0.0085 0.9952
vn -0.3134 -0.4110 0.8561
vn -0.0847 -0.5340 0.8413
vn 0.0142 -0.0012 -0.9999
vn 0.1902 0.4947 -0.8480
vn -0.7091 -0.6405 -0.2950
vn -0.4405 -0.7524 -0.4897
vn -0.1557 -0.7774 0.6095
vn -0.4837 -0.6602 0.5746
vn 0.3201 0.7369 -0.5954
vn 0.5770 0.7145 0.3958
vn 0.0407 -0.0877 -0.9953
vn -0.1950 -0.1762 -0.9648
vn -0.2465 -0.1436 -0.9585
vn -0.0013 -0.0156 -0.9999
vn -0.2024 -0.0236 -0.9790
vn -0.1928 -0.0456 -0.9802
vn -0.0035 0.0311 -0.9995
vn -0.1774 -0.1050 -0.9785
vn 0.0202 -0.0248 -0.9995
vn 0.2151 0.0601 -0.9747
vn 0.2717 0.0139 -0.9623
vn 0.1804 0.1196 -0.9763
vn 0.2683 0.0647 -0.9611
vn 0.1680 0.1456 -0.9750
vn -0.2746 -0.0145 -0.9614
vn -0.0481 0.0816 -0.9955
vn 0.1814 0.1726 -0.9681
vn -0.0407 -0.0877 -0.9953
vn 0.0013 -0.0156 -0.9999
vn 0.2465 -0.1436 -0.9585
vn 0.1950 -0.1762 -0.9648
vn 0.2024 -0.0236 -0.9790
vn 0.0035 0.0311 -0.9995
vn 0.1928 -0.0456 -0.9802
vn -0.0202 -0.0248 -0.9995
vn 0.1774 -0.1050 -0.9785
vn -0.2151 0.0601 -0.9747
vn -0.2717 0.0139 -0.9623
vn -0.1804 0.1196 -0.9763
vn -0.2683 0.0647 -0.9611
vn -0.1680 0.1456 -0.9750
vn 0.0481 0.0816 -0.9955
vn 0.2746 -0.0145 -0.9614
vn -0.1814 0.1726 -0.9681
vn -0.3882 -0.9207 0.0404
vn -0.9322 -0.3616 0.0159
vn 0.9322 -0.3616 0.0159
vn 0.3882 -0.9207 0.0404
usemtl magicalgirl
s 1
f 61/1/1 4/2/2 6/3/3 63/4/3
f 18/5/4 60/6/5 62/7/6 19/8/6
f 19/8/7 62/7/7 64/9/8 20/10/9
f 76/11/10 75/12/10 66/13/11 64/14/8
f 22/15/12 66/16/11 68/17/13 23/18/13
f 16/19/14 14/20/14 12/21/14
f 23/18/15 68/17/15 70/22/16 24/23/17
f 17/24/18 59/25/18 60/6/5 18/5/4
f 40/26/19 26/27/20 41/28/21 56/29/22
f 24/23/17 70/22/16 59/25/18 17/24/18
f 63/4/3 6/3/3 8/30/23 65/31/24
f 38/32/25 40/26/19 56/29/22 54/33/26
f 36/34/27 38/32/25 54/33/26 52/35/28
f 109/36/29 106/37/30 87/38/31 92/39/32
f 34/40/33 36/34/27 52/35/28 50/41/34
f 69/42/35 14/43/35 16/44/36 71/45/37
f 37/46/38 35/47/39 117/48/40 115/49/41
f 32/50/42 34/40/33 50/41/34 48/51/43
f 67/52/44 12/53/45 14/43/35 69/42/35
f 31/54/46 29/55/47 123/56/48 121/57/49
f 30/58/50 32/50/42 48/51/43 46/59/51
f 10/60/52 12/53/45 67/52/44
f 128/61/53 130/62/54 97/63/55 95/64/56
f 28/65/57 30/58/50 46/59/51 44/66/58
f 65/31/24 8/30/23 10/60/52
f 138/67/59 141/68/60 110/69/61 105/70/62
f 26/27/20 28/65/57 44/66/58 41/28/21
f 96/71/63 98/72/64 124/73/65 126/74/66
f 58/75/67 2/76/67 4/2/2 61/1/1
f 13/77/68 53/78/69 55/79/70 15/80/71
f 11/81/72 51/82/73 53/78/69 13/77/68
f 9/83/74 49/84/75 51/82/73 11/81/72
f 7/85/76 47/86/77 49/84/75 9/83/74
f 5/87/78 45/88/79 47/86/77 7/85/76
f 15/80/71 55/79/70 42/89/80 1/90/81
f 136/91/82 138/67/59 105/70/62 103/92/83
f 26/27/20 40/26/19 39/93/84 25/94/85
f 40/26/19 38/32/25 37/95/86 39/93/84
f 38/32/25 36/34/27 35/96/87 37/95/86
f 36/34/27 34/40/33 33/97/88 35/96/87
f 34/40/33 32/50/42 31/98/89 33/97/88
f 32/50/42 30/58/50 29/99/90 31/98/89
f 30/58/50 28/65/57 27/100/91 29/99/90
f 28/65/57 26/27/20 25/94/85 27/100/91
f 107/101/92 96/71/63 126/74/66 113/102/93
f 3/103/94 43/104/95 45/88/79 5/87/78
f 56/29/22 41/28/21 42/105/80 55/106/70
f 54/33/26 56/29/22 55/106/70 53/107/69
f 52/35/28 54/33/26 53/107/69 51/108/73
f 50/41/34 52/35/28 51/108/73 49/109/75
f 48/51/43 50/41/34 49/109/75 47/110/77
f 46/59/51 48/51/43 47/110/77 45/111/79
f 44/66/58 46/59/51 45/111/79 43/112/95
f 41/28/21 44/66/58 43/112/95 42/105/80
f 1/90/81 42/89/80 43/104/95 3/103/94
f 1/90/81 57/113/96 15/80/71
f 7/85/76 57/113/96 5/87/78
f 9/83/74 57/113/96 7/85/76
f 11/81/72 57/113/96 9/83/74
f 13/77/68 57/113/96 11/81/72
f 15/80/71 57/113/96 13/77/68
f 5/87/78 57/113/96 3/103/94
f 72/114/97 73/115/98 59/116/98 70/117/99
f 74/118/100 72/114/97 70/117/99 68/119/100
f 75/12/101 74/118/100 68/119/100 66/13/101
f 77/120/102 76/11/103 64/14/103 62/121/102
f 78/122/104 77/120/102 62/121/102 60/123/105
f 73/115/106 78/122/104 60/123/105 59/116/106
f 71/45/37 16/44/36 2/76/107 58/75/107
f 4/124/108 2/125/109 10/126/109 8/127/108
f 6/128/108 4/124/108 8/127/108
f 2/125/109 16/19/14 12/21/14 10/126/109
f 58/129/110 61/130/111 78/131/112 73/132/110
f 61/130/111 63/133/113 77/134/113 78/131/112
f 63/133/114 65/135/24 76/136/115 77/134/114
f 67/52/44 65/31/24 10/60/52
f 67/137/44 69/138/116 74/139/116 75/140/117
f 69/138/118 71/141/119 72/142/120 74/139/118
f 71/141/119 58/129/110 73/132/110 72/142/120
f 17/143/121 18/144/122 80/145/123 79/146/121
f 24/147/124 17/143/121 79/146/121 81/148/125
f 18/144/122 19/149/126 82/150/126 80/145/123
f 19/149/126 20/151/127 83/152/128 82/150/126
f 20/151/127 21/153/129 84/154/129 83/152/128
f 21/153/129 22/155/130 85/156/131 84/154/129
f 22/155/130 23/157/132 86/158/132 85/156/131
f 23/157/132 24/147/124 81/148/125 86/158/132
f 141/68/60 139/159/133 108/160/134 110/69/61
f 86/161/135 81/162/136 142/163/137 137/164/138
f 85/165/139 86/161/135 137/164/138 135/166/140
f 84/167/141 85/165/139 135/166/140 133/168/142
f 83/169/143 84/167/141 133/168/142 131/170/144
f 29/55/47 27/171/145 125/172/146 123/56/48
f 139/159/133 128/61/53 95/64/56 108/160/134
f 104/173/147 106/37/30 116/174/148 118/175/149
f 79/176/150 80/177/151 127/178/152 140/179/153
f 106/37/30 109/36/29 112/180/154 116/174/148
f 130/62/54 132/181/155 99/182/156 97/63/55
f 98/72/64 100/183/157 122/184/158 124/73/65
f 132/181/155 134/185/159 101/186/160 99/182/156
f 100/183/157 102/187/161 120/188/162 122/184/158
f 134/185/159 136/91/82 103/92/83 101/186/160
f 80/177/151 82/189/163 129/190/164 127/178/152
f 39/191/165 37/46/38 115/49/41 111/192/166
f 82/189/163 83/169/143 131/170/144 129/190/164
f 33/193/167 31/54/46 121/57/49 119/194/168
f 35/47/39 33/193/167 119/194/168 117/48/40
f 102/187/161 104/173/147 118/175/149 120/188/162
f 109/36/29 107/101/92 113/102/93 112/180/154
f 81/162/136 79/176/150 140/179/153 142/163/137
f 94/195/169 93/196/170 108/160/134 95/64/56
f 93/196/170 92/39/32 110/69/61 108/160/134
f 91/197/171 94/195/169 95/64/56 97/63/55
f 90/198/172 91/197/171 97/63/55 99/182/156
f 89/199/173 90/198/172 99/182/156 101/186/160
f 88/200/174 89/199/173 101/186/160 103/92/83
f 87/38/31 88/200/174 103/92/83 105/70/62
f 92/39/32 87/38/31 105/70/62 110/69/61
f 27/171/145 25/201/175 114/202/176 125/172/146
f 112/180/154 113/102/93 114/203/176 111/204/166
f 116/174/148 112/180/154 111/204/166 115/205/41
f 118/175/149 116/174/148 115/205/41 117/206/40
f 120/188/162 118/175/149 117/206/40 119/207/168
f 122/184/158 120/188/162 119/207/168 121/208/49
f 124/73/65 122/184/158 121/208/49 123/209/48
f 126/74/66 124/73/65 123/209/48 125/210/146
f 113/102/93 126/74/66 125/210/146 114/203/176
f 128/61/53 139/159/133 140/211/153 127/212/152
f 139/159/133 141/68/60 142/213/137 140/211/153
f 130/62/54 128/61/53 127/212/152 129/214/164
f 132/181/155 130/62/54 129/214/164 131/215/144
f 134/185/159 132/181/155 131/215/144 133/216/142
f 136/91/82 134/185/159 133/216/142 135/217/140
f 138/67/59 136/91/82 135/217/140 137/218/138
f 141/68/60 138/67/59 137/218/138 142/213/137
f 25/201/175 39/191/165 111/192/166 114/202/176
f 106/37/30 104/173/147 88/200/174 87/38/31
f 104/173/147 102/187/161 89/199/173 88/200/174
f 102/187/161 100/183/157 90/198/172 89/199/173
f 100/183/157 98/72/64 91/197/171 90/198/172
f 98/72/64 96/71/63 94/195/169 91/197/171
f 107/101/92 109/36/29 92/39/32 93/196/170
f 96/71/63 107/101/92 93/196/170 94/195/169
f 3/103/94 57/113/96 1/90/81
f 143/219/177 151/220/178 152/221/179 144/222/180
f 144/222/180 152/221/179 153/223/181 145/224/182
f 145/224/182 153/223/181 154/225/183 146/226/184
f 146/227/184 154/228/183 155/229/185 147/230/186
f 147/230/186 155/229/185 156/231/187 148/232/188
f 148/233/188 156/234/187 157/235/189 149/236/190
f 149/236/190 157/235/189 158/237/191 150/238/192
f 150/238/192 158/237/191 151/220/178 143/219/177
f 151/220/178 159/239/193 160/240/194 152/221/179
f 152/221/179 160/240/194 161/241/195 153/223/181
f 153/223/181 161/241/195 162/242/196 154/225/183
f 154/228/183 162/243/196 163/244/197 155/229/185
f 155/229/185 163/244/197 164/245/198 156/231/187
f 156/234/187 164/246/198 165/247/199 157/235/189
f 157/235/189 165/247/199 166/248/200 158/237/191
f 158/237/191 166/248/200 159/239/193 151/220/178
f 159/239/193 167/249/109 168/250/201 160/240/194
f 160/240/194 168/250/201 169/251/202 161/241/195
f 161/241/195 169/251/202 170/252/203 162/242/196
f 162/243/196 170/253/203 171/254/96 163/244/197
f 163/244/197 171/254/96 172/255/204 164/245/198
f 164/246/198 172/256/204 173/257/205 165/247/199
f 165/247/199 173/257/205 174/258/206 166/248/200
f 166/248/200 174/258/206 167/249/109 159/239/193
f 167/249/109 175/259/207 176/260/208 168/250/201
f 168/250/201 176/260/208 177/261/209 169/251/202
f 169/251/202 177/261/209 178/262/210 170/252/203
f 170/253/203 178/263/210 179/264/211 171/254/96
f 171/254/96 179/264/211 180/265/212 172/255/204
f 172/256/204 180/266/212 181/267/213 173/257/205
f 173/257/205 181/267/213 182/268/214 174/258/206
f 174/258/206 182/268/214 175/259/207 167/249/109
f 175/259/207 183/269/215 184/270/216 176/260/208
f 176/260/208 184/270/216 185/271/217 177/261/209
f 177/261/209 185/271/217 186/272/218 178/262/210
f 178/263/210 186/273/218 187/274/219 179/264/211
f 179/264/211 187/274/219 188/275/220 180/265/212
f 180/266/212 188/276/220 189/277/221 181/267/213
f 181/267/213 189/277/221 190/278/222 182/268/214
f 182/268/214 190/278/222 183/269/215 175/259/207
f 183/269/215 191/279/186 192/280/223 184/270/216
f 184/270/216 192/280/223 193/281/224 185/271/217
f 185/271/217 193/281/224 194/282/225 186/272/218
f 186/273/218 194/283/225 195/284/177 187/274/219
f 187/274/219 195/284/177 196/285/226 188/275/220
f 188/276/220 196/286/226 197/287/227 189/277/221
f 189/277/221 197/287/227 198/288/228 190/278/222
f 190/278/222 198/288/228 191/279/186 183/269/215
f 191/279/186 199/289/185 200/290/229 192/280/223
f 192/280/223 200/290/229 201/291/230 193/281/224
f 193/281/224 201/291/230 202/292/231 194/282/225
f 194/283/225 202/293/231 203/294/178 195/284/177
f 195/284/177 203/294/178 204/295/232 196/285/226
f 196/286/226 204/296/232 205/297/233 197/287/227
f 197/287/227 205/297/233 206/298/234 198/288/228
f 198/288/228 206/298/234 199/289/185 191/279/186
f 199/289/185 207/299/197 208/300/235 200/290/229
f 200/290/229 208/300/235 209/301/236 201/291/230
f 201/291/230 209/301/236 210/302/237 202/292/231
f 202/293/231 210/303/237 211/304/193 203/294/178
f 203/294/178 211/304/193 212/305/238 204/295/232
f 204/296/232 212/306/238 213/307/239 205/297/233
f 205/297/233 213/307/239 214/308/240 206/298/234
f 206/298/234 214/308/240 207/299/197 199/289/185
f 207/299/197 215/309/96 216/310/241 208/300/235
f 208/300/235 216/310/241 217/311/242 209/301/236
f 209/301/236 217/311/242 218/312/243 210/302/237
f 210/303/237 218/313/243 219/314/109 211/304/193
f 211/304/193 219/314/109 220/315/244 212/305/238
f 212/306/238 220/316/244 221/317/245 213/307/239
f 213/307/239 221/317/245 222/318/246 214/308/240
f 214/308/240 222/318/246 215/309/96 207/299/197
f 215/309/96 223/319/211 224/320/247 216/310/241
f 216/310/241 224/320/247 225/321/248 217/311/242
f 217/311/242 225/321/248 226/322/249 218/312/243
f 218/313/243 226/323/249 227/324/207 219/314/109
f 219/314/109 227/324/207 228/325/250 220/315/244
f 220/316/244 228/326/250 229/327/251 221/317/245
f 221/317/245 229/327/251 230/328/252 222/318/246
f 222/318/246 230/328/252 223/319/211 215/309/96
f 223/319/211 231/329/219 232/330/253 224/320/247
f 224/320/247 232/330/253 233/331/254 225/321/248
f 225/321/248 233/331/254 234/332/255 226/322/249
f 226/323/249 234/333/255 235/334/215 227/324/207
f 227/324/207 235/334/215 236/335/256 228/325/250
f 228/326/250 236/336/256 237/337/257 229/327/251
f 229/327/251 237/337/257 238/338/258 230/328/252
f 230/328/252 238/338/258 231/329/219 223/319/211
f 231/329/219 143/219/177 144/222/180 232/330/253
f 232/330/253 144/222/180 145/224/182 233/331/254
f 233/331/254 145/224/182 146/226/184 234/332/255
f 234/333/255 146/227/184 147/230/186 235/334/215
f 235/334/215 147/230/186 148/232/188 236/335/256
f 236/336/256 148/233/188 149/236/190 237/337/257
f 237/337/257 149/236/190 150/238/192 238/338/258
f 238/338/258 150/238/192 143/219/177 231/329/219
f 240/339/259 304/340/260 314/341/261
f 303/342/262 308/343/262 247/344/263 248/345/263
f 313/346/264 247/347/265 308/348/266
f 317/349/267 291/350/268 243/351/269
f 295/352/270 300/353/270 239/354/271 240/355/271
f 279/356/272 284/357/272 243/358/273 244/359/273
f 318/360/274 283/361/275 245/362/276
f 315/363/277 287/364/278 242/365/279
f 291/366/280 288/367/280 244/359/281 243/358/281
f 313/346/264 275/368/282 247/347/265
f 316/369/283 279/370/284 244/371/285
f 283/372/286 280/373/286 246/374/287 245/375/287
f 299/376/288 296/377/288 242/378/289 241/379/289
f 320/380/290 271/381/291 246/382/292
f 275/383/293 272/384/293 248/345/294 247/344/294
f 287/385/295 292/386/295 241/379/296 242/378/296
f 314/341/261 295/387/297 240/339/259
f 307/388/298 304/389/298 240/355/299 239/354/299
f 323/390/300 315/391/301 251/392/302
f 325/393/303 311/394/304 253/395/305
f 324/396/306 316/397/307 255/398/308
f 326/399/309 317/400/310 257/401/311
f 330/402/312 320/403/313 260/404/314
f 248/405/315 272/406/316 319/407/317
f 312/408/318 307/409/319 239/410/320
f 322/411/321 313/412/322 267/413/323
f 328/414/324 314/415/325 269/416/326
f 319/407/317 303/417/327 248/405/315
f 242/365/279 296/418/328 315/363/277
f 271/419/329 276/420/329 245/375/330 246/374/330
f 241/421/331 292/422/332 311/423/333
f 244/371/285 288/424/334 316/369/283
f 243/351/269 284/425/335 317/349/267
f 246/382/292 280/426/336 320/380/290
f 318/360/274 245/362/276 276/427/337
f 329/428/338 319/429/339 265/430/340
f 327/431/341 318/432/342 263/433/343
f 311/423/333 299/434/344 241/421/331
f 321/435/345 312/436/346 249/437/347
f 276/420/329 271/419/329 273/438/348 278/439/348
f 278/439/349 273/438/349 274/440/349 277/441/349
f 277/441/350 274/440/350 272/384/293 275/383/293
f 319/407/317 272/406/316 274/442/351 265/443/352
f 265/443/352 274/442/351 273/444/353 266/445/354
f 266/445/354 273/444/353 271/381/291 320/380/290
f 318/360/274 276/427/337 278/446/355 263/447/356
f 263/447/356 278/446/355 277/448/357 264/449/358
f 264/449/358 277/448/357 275/368/282 313/346/264
f 284/357/272 279/356/272 281/450/359 286/451/359
f 286/451/109 281/450/109 282/452/109 285/453/109
f 285/453/360 282/452/360 280/373/286 283/372/286
f 279/370/284 316/369/283 261/454/361 281/455/362
f 281/455/362 261/454/361 260/456/363 282/457/364
f 282/457/364 260/456/363 320/380/290 280/426/336
f 283/361/275 318/360/274 258/458/365 285/459/366
f 285/459/366 258/458/365 257/460/367 286/461/368
f 286/461/368 257/460/367 317/349/267 284/425/335
f 292/386/295 287/385/295 289/462/369 294/463/369
f 294/463/370 289/462/370 290/464/370 293/465/370
f 293/465/371 290/464/371 288/367/280 291/366/280
f 287/364/278 315/363/277 256/466/372 289/467/373
f 289/467/373 256/466/372 255/468/374 290/469/375
f 290/469/375 255/468/374 316/369/283 288/424/334
f 291/350/268 317/349/267 254/470/376 293/471/377
f 293/471/377 254/470/376 253/472/378 294/473/379
f 294/473/379 253/472/378 311/423/333 292/422/332
f 296/377/288 299/376/288 301/474/380 298/475/380
f 298/475/381 301/474/381 302/476/381 297/477/381
f 297/477/382 302/476/382 300/353/270 295/352/270
f 295/387/297 314/341/261 252/478/383 297/479/384
f 297/479/384 252/478/383 251/480/385 298/481/386
f 298/481/386 251/480/385 315/363/277 296/418/328
f 299/434/344 311/423/333 250/482/387 301/483/388
f 301/483/388 250/482/387 249/484/389 302/485/390
f 302/485/390 249/484/389 312/408/318 300/486/391
f 308/343/262 303/342/262 305/487/392 310/488/392
f 310/488/393 305/487/393 306/489/393 309/490/393
f 309/490/394 306/489/394 304/389/298 307/388/298
f 314/341/261 304/340/260 306/491/395 269/492/396
f 269/492/396 306/491/395 305/493/397 270/494/398
f 270/494/398 305/493/397 303/417/327 319/407/317
f 313/346/264 308/348/266 310/495/399 267/496/400
f 267/496/400 310/495/399 309/497/401 268/498/402
f 268/498/402 309/497/401 307/409/319 312/408/318
f 239/410/320 300/486/391 312/408/318
f 262/499/403 312/436/346 321/435/345
f 262/499/403 313/412/322 322/411/321
f 259/500/404 315/391/301 323/390/300
f 259/500/404 316/397/307 324/396/306
f 262/499/403 311/394/304 325/393/303
f 262/499/403 317/400/310 326/399/309
f 262/499/403 318/432/342 327/431/341
f 259/500/404 314/415/325 328/414/324
f 259/500/404 319/429/339 329/428/338
f 259/500/404 320/403/313 330/402/312
f 318/432/342 326/399/309 258/501/405
f 318/432/342 262/499/403 326/399/309
f 317/400/310 262/499/403 325/393/303
f 317/400/310 325/393/303 254/502/406
f 254/502/406 325/393/303 253/395/305
f 258/501/405 326/399/309 257/401/311
f 327/431/341 263/433/343 264/503/407
f 313/412/322 327/431/341 264/503/407
f 313/412/322 262/499/403 327/431/341
f 311/394/304 262/499/403 321/435/345
f 312/436/346 262/499/403 322/411/321
f 312/436/346 322/411/321 268/504/408
f 268/504/408 322/411/321 267/413/323
f 321/435/345 249/437/347 250/505/409
f 311/394/304 321/435/345 250/505/409
f 316/397/307 330/402/312 261/506/410
f 261/506/410 330/402/312 260/404/314
f 320/403/313 329/428/338 266/507/411
f 266/507/411 329/428/338 265/430/340
f 319/429/339 328/414/324 270/508/412
f 270/508/412 328/414/324 269/416/326
f 320/403/313 259/500/404 329/428/338
f 314/415/325 259/500/404 323/390/300
f 319/429/339 259/500/404 328/414/324
f 316/397/307 259/500/404 330/402/312
f 324/396/306 255/398/308 256/509/413
f 315/391/301 259/500/404 324/396/306
f 315/391/301 324/396/306 256/509/413
f 323/390/300 251/392/302 252/510/414
f 314/415/325 323/390/300 252/510/414
f 66/16/11 21/511/415 64/9/8
f 20/10/9 64/9/8 21/511/415
f 22/15/12 21/511/415 66/16/11
f 67/137/44 75/140/117 76/136/115 65/135/24
f 343/512/416 359/513/417 340/514/418 333/515/419
f 349/516/420 334/517/421 346/518/422 372/519/423
f 339/520/424 332/521/425 345/522/426 360/523/427
f 344/524/428 370/525/429 355/526/430 331/527/431
f 347/528/432 361/529/433 341/530/434 337/531/435
f 338/532/436 350/533/437 371/534/438 353/535/439
f 369/536/440 351/537/441 335/538/442 356/539/443
f 340/540/418 334/517/421 349/516/420 362/541/444
f 351/537/441 363/542/445 342/543/446 335/538/442
f 354/544/447 374/545/448 357/546/449 336/547/450
f 355/526/430 365/548/451 339/549/424 331/527/431
f 341/550/434 338/532/436 353/535/439 364/551/452
f 342/552/446 336/547/450 357/546/449 366/553/453
f 365/554/451 358/555/454 332/521/425 339/520/424
f 335/538/442 342/543/446 366/556/453 356/539/443
f 331/527/431 339/549/424 360/557/427 344/524/428
f 333/515/419 340/514/418 362/558/444 348/559/455
f 337/531/435 341/530/434 364/560/452 352/561/456
f 373/562/457 345/522/426 332/521/425 358/555/454
f 361/563/433 350/533/437 338/532/436 341/550/434
f 347/528/432 337/531/435 352/561/456 368/564/458
f 359/565/417 346/518/422 334/517/421 340/540/418
f 363/566/445 354/544/447 336/547/450 342/552/446
f 367/567/459 368/564/458 369/536/440 370/525/429
f 371/534/438 372/519/423 373/562/457 374/545/448
f 346/518/422 359/565/417 360/523/427 345/522/426
f 344/524/428 360/557/427 359/513/417 343/512/416
f 350/533/437 361/563/433 362/541/444 349/516/420
f 348/559/455 362/558/444 361/529/433 347/528/432
f 354/544/447 363/566/445 364/551/452 353/535/439
f 352/561/456 364/560/452 363/542/445 351/537/441
f 358/555/454 365/554/451 366/553/453 357/546/449
f 356/539/443 366/556/453 365/548/451 355/526/430
f 347/528/432 368/564/458 367/567/459 348/559/455
f 351/537/441 369/536/440 368/564/458 352/561/456
f 355/526/430 370/525/429 369/536/440 356/539/443
f 343/512/416 367/567/459 370/525/429 344/524/428
f 349/516/420 372/519/423 371/534/438 350/533/437
f 345/522/426 373/562/457 372/519/423 346/518/422
f 357/546/449 374/545/448 373/562/457 358/555/454
f 353/535/439 371/534/438 374/545/448 354/544/447
f 333/515/419 348/559/455 367/567/459 343/512/416
f 382/568/460 379/569/461 377/570/462 481/571/463
f 376/572/464 380/573/465 486/574/466
f 380/573/465 381/575/467 487/576/468 486/574/466
f 381/575/467 382/568/460 481/571/463 487/576/468
f 485/577/469 484/578/470 382/568/460 381/575/467
f 378/579/471 485/577/469 381/575/467 380/573/465
f 484/578/470 483/580/472 379/569/461 382/568/460
f 378/579/471 380/573/465 375/581/473
f 379/569/461 384/582/474 383/583/475 377/570/462
f 483/580/472 491/584/476 384/582/474 379/569/461
f 395/585/477 391/586/478 493/587/479 392/588/480
f 386/589/481 495/590/482 393/591/483
f 393/591/483 495/590/482 390/592/484 394/593/485
f 394/593/485 390/592/484 391/586/478 395/585/477
f 389/594/486 394/593/485 395/585/477 388/595/487
f 492/596/488 393/591/483 394/593/485 389/594/486
f 388/595/487 395/585/477 392/588/480 387/597/489
f 492/596/488 385/598/490 393/591/483
f 392/588/480 493/587/479 500/599/491 499/600/492
f 387/597/489 392/588/480 499/600/492 396/601/493
f 397/602/494 410/603/495 429/604/496 409/605/497
f 410/606/495 398/607/498 411/608/499 429/609/496
f 429/609/496 411/608/499 400/610/500 412/611/501
f 409/605/497 429/604/496 412/612/501 399/613/502
f 405/614/503 428/615/504 430/616/505 421/617/506
f 428/618/507 406/619/508 414/620/509 430/621/510
f 430/621/510 414/620/509 404/622/511 415/623/512
f 421/617/506 430/616/505 415/624/513 403/625/513
f 403/625/514 415/624/515 431/626/516 416/627/517
f 415/623/515 404/622/518 417/628/519 431/629/516
f 431/629/516 417/628/519 402/630/520 418/631/521
f 416/627/517 431/626/516 418/632/521 401/633/522
f 407/634/523 427/635/524 432/636/525 423/637/526
f 427/638/527 408/639/528 420/640/529 432/641/530
f 432/641/530 420/640/529 398/607/498 410/606/495
f 423/637/526 432/636/525 410/603/495 397/602/494
f 405/614/503 421/617/506 433/642/531 426/643/532
f 421/617/506 403/625/533 416/627/534 433/642/531
f 433/642/531 416/627/534 401/633/535 419/644/536
f 426/643/532 433/642/531 419/644/536 407/634/523
f 406/619/508 422/645/537 434/646/538 425/647/539
f 422/645/537 400/610/500 411/608/499 434/646/538
f 434/646/538 411/608/499 398/607/498 420/640/529
f 425/647/539 434/646/538 420/640/529 408/639/528
f 404/622/511 414/620/509 435/648/540 417/628/541
f 414/620/509 406/619/508 425/647/539 435/648/540
f 435/648/540 425/647/539 408/639/528 424/649/542
f 417/628/541 435/648/540 424/649/542 402/630/543
f 399/613/502 413/650/544 436/651/545 409/605/497
f 413/650/544 405/614/503 426/643/532 436/651/545
f 436/651/545 426/643/532 407/634/523 423/637/526
f 409/605/497 436/651/545 423/637/526 397/602/494
f 401/633/546 418/632/546 437/652/547 419/644/536
f 418/631/548 402/630/543 424/649/542 437/653/549
f 437/653/549 424/649/542 408/639/528 427/638/527
f 419/644/536 437/652/547 427/635/524 407/634/523
f 399/613/502 412/612/501 438/654/550 413/650/544
f 412/611/501 400/610/500 422/645/537 438/655/551
f 438/655/551 422/645/537 406/619/508 428/618/507
f 413/650/544 438/654/550 428/615/504 405/614/503
f 439/656/552 451/657/553 471/658/554 452/659/555
f 451/657/553 441/660/556 454/661/557 471/658/554
f 471/662/554 454/663/557 442/664/558 453/665/559
f 452/666/555 471/662/554 453/665/559 440/667/560
f 447/668/561 463/669/562 472/670/563 470/671/564
f 463/669/562 445/672/565 457/673/565 472/670/563
f 472/674/566 457/675/567 446/676/568 456/677/569
f 470/678/570 472/674/566 456/677/569 448/679/571
f 445/672/572 458/680/573 473/681/574 457/673/575
f 458/680/573 443/682/576 460/683/577 473/681/574
f 473/684/574 460/685/577 444/686/578 459/687/579
f 457/675/575 473/684/574 459/687/579 446/676/580
f 449/688/581 465/689/582 474/690/583 469/691/584
f 465/689/582 439/656/552 452/659/555 474/690/583
f 474/692/585 452/666/555 440/667/560 462/693/586
f 469/694/587 474/692/585 462/693/586 450/695/588
f 447/668/561 468/696/589 475/697/590 463/669/562
f 468/696/589 449/688/581 461/698/591 475/697/590
f 475/697/590 461/698/591 443/682/592 458/680/593
f 463/669/562 475/697/590 458/680/593 445/672/594
f 448/679/571 467/699/595 476/700/596 464/701/597
f 467/699/595 450/695/588 462/693/586 476/700/596
f 476/700/596 462/693/586 440/667/560 453/665/559
f 464/701/597 476/700/596 453/665/559 442/664/558
f 446/676/568 459/687/598 477/702/599 456/677/569
f 459/687/598 444/686/600 466/703/601 477/702/599
f 477/702/599 466/703/601 450/695/588 467/699/595
f 456/677/569 477/702/599 467/699/595 448/679/571
f 441/660/556 451/657/553 478/704/602 455/705/603
f 451/657/553 439/656/552 465/689/582 478/704/602
f 478/704/602 465/689/582 449/688/581 468/696/589
f 455/705/603 478/704/602 468/696/589 447/668/561
f 443/682/604 461/698/591 479/706/605 460/683/604
f 461/698/591 449/688/581 469/691/584 479/706/605
f 479/707/606 469/694/587 450/695/588 466/703/601
f 460/685/607 479/707/606 466/703/601 444/686/600
f 441/660/556 455/705/603 480/708/608 454/661/557
f 455/705/603 447/668/561 470/671/564 480/708/608
f 480/709/609 470/678/570 448/679/571 464/701/597
f 454/663/557 480/709/609 464/701/597 442/664/558
f 490/710/610 481/711/611 377/712/612 482/713/613
f 376/714/614 486/715/615 488/716/616
f 488/716/616 486/715/615 487/717/617 489/718/618
f 489/718/618 487/717/617 481/711/611 490/710/610
f 485/719/619 489/718/618 490/710/610 484/720/620
f 378/721/621 488/716/616 489/718/618 485/719/619
f 484/720/620 490/710/610 482/713/613 483/722/622
f 378/721/621 375/723/623 488/716/616
f 482/713/613 377/712/612 383/724/624 384/725/625
f 483/722/622 482/713/613 384/725/625 491/726/626
f 498/727/627 494/728/628 493/729/629 391/730/630
f 386/731/631 496/732/632 495/733/633
f 496/732/632 497/734/634 390/735/635 495/733/633
f 497/734/634 498/727/627 391/730/630 390/735/635
f 389/736/636 388/737/637 498/727/627 497/734/634
f 492/738/638 389/736/636 497/734/634 496/732/632
f 388/737/637 387/739/639 494/728/628 498/727/627
f 492/738/638 496/732/632 385/740/640
f 494/728/628 499/741/641 500/742/642 493/729/629
f 387/739/639 396/743/643 499/741/641 494/728/628
f 380/573/644 488/744/644 375/581/644
f 393/591/645 496/745/645 386/589/645
f 376/572/646 488/744/646 380/573/646
f 385/598/647 496/745/647 393/591/647
