# Blender v3.4.1 OBJ File: 'May2025_Hiker_Assets_Export.blend'
# www.blender.org
mtllib Waterbottle.mtl
o Waterbottle
v 0.018427 0.387915 -0.031916
v 0.000001 0.387915 -0.036853
v 0.031916 0.387915 -0.018426
v 0.036854 0.387915 0.000000
v 0.031916 0.387915 0.018426
v 0.018427 0.387915 0.031916
v 0.000001 0.387915 0.036853
v -0.018426 0.387915 0.031916
v -0.031915 0.387915 0.018426
v -0.036852 0.387915 0.000000
v -0.031915 0.387915 -0.018426
v -0.018426 0.387915 -0.031916
v 0.024422 0.425226 -0.042299
v 0.000001 0.425226 -0.048843
v 0.042300 0.425226 -0.024421
v 0.048844 0.425226 0.000000
v 0.042300 0.425226 0.024421
v 0.024422 0.425226 0.042299
v 0.000001 0.425226 0.048843
v -0.024421 0.425226 0.042299
v -0.042298 0.425226 0.024421
v -0.048842 0.425226 0.000000
v -0.042298 0.425226 -0.024421
v -0.024421 0.425226 -0.042299
v 0.000000 0.431800 -0.000000
v -0.000001 0.359888 -0.093829
v -0.000000 0.373620 -0.083588
v 0.041793 0.373620 -0.072389
v 0.046914 0.359888 -0.081258
v 0.072389 0.373620 -0.041794
v 0.081258 0.359888 -0.046914
v 0.083587 0.373620 0.000000
v 0.093828 0.359888 0.000000
v 0.072389 0.373620 0.041794
v 0.081258 0.359888 0.046914
v 0.041793 0.373620 0.072389
v 0.046914 0.359888 0.081258
v -0.000001 0.373620 0.083588
v -0.000001 0.359888 0.093829
v -0.041794 0.373620 0.072389
v -0.046915 0.359888 0.081258
v -0.072390 0.373620 0.041794
v -0.081259 0.359888 0.046914
v -0.083588 0.373620 -0.000000
v -0.093829 0.359888 -0.000000
v -0.072390 0.373620 -0.041794
v -0.081259 0.359888 -0.046914
v -0.041794 0.373620 -0.072389
v -0.046915 0.359888 -0.081258
v -0.000001 0.306302 -0.093829
v -0.000001 0.206997 -0.093829
v 0.046914 0.206997 -0.081258
v 0.046914 0.306302 -0.081258
v 0.081258 0.206997 -0.046914
v 0.081258 0.306302 -0.046914
v 0.093828 0.206997 0.000000
v 0.093828 0.306302 0.000000
v 0.081258 0.206997 0.046914
v 0.081258 0.306302 0.046914
v 0.046914 0.206997 0.081258
v 0.046914 0.306302 0.081258
v -0.000001 0.206997 0.093829
v -0.000001 0.306302 0.093829
v -0.046915 0.206997 0.081258
v -0.046915 0.306302 0.081258
v -0.081259 0.206997 0.046914
v -0.081259 0.306302 0.046914
v -0.093829 0.206997 -0.000000
v -0.093829 0.306302 -0.000000
v -0.081259 0.206997 -0.046914
v -0.081259 0.306302 -0.046914
v -0.046915 0.206997 -0.081258
v -0.046915 0.306302 -0.081258
v -0.000001 0.270972 -0.070832
v -0.000001 0.251091 -0.069588
v 0.034794 0.251091 -0.060265
v 0.035415 0.270972 -0.061342
v 0.060265 0.251091 -0.034794
v 0.061341 0.270972 -0.035416
v 0.069588 0.251091 -0.000000
v 0.070831 0.270972 -0.000000
v 0.060265 0.251091 0.034794
v 0.061341 0.270972 0.035416
v 0.034794 0.251091 0.060265
v 0.035415 0.270972 0.061342
v -0.000001 0.251091 0.069588
v -0.000001 0.270972 0.070832
v -0.034795 0.251091 0.060265
v -0.035416 0.270972 0.061342
v -0.060266 0.251091 0.034794
v -0.061342 0.270972 0.035416
v -0.069589 0.251091 -0.000000
v -0.070832 0.270972 -0.000000
v -0.060266 0.251091 -0.034794
v -0.061342 0.270972 -0.035416
v -0.034795 0.251091 -0.060265
v -0.035416 0.270972 -0.061342
v -0.000001 -0.000001 -0.000000
v 0.035272 -0.000000 -0.061094
v 0.000000 -0.000000 -0.070545
v 0.061094 -0.000000 -0.035272
v 0.070545 -0.000000 0.000000
v 0.061094 -0.000000 0.035272
v 0.035273 -0.000000 0.061094
v 0.000000 -0.000000 0.070545
v -0.035272 -0.000000 0.061094
v -0.061094 -0.000000 0.035272
v -0.070545 -0.000000 0.000000
v -0.061094 -0.000000 -0.035272
v -0.035272 -0.000000 -0.061094
v -0.000001 0.031110 -0.093829
v 0.046914 0.031110 -0.081258
v 0.081258 0.031110 -0.046914
v 0.093828 0.031110 0.000000
v 0.081258 0.031110 0.046914
v 0.046914 0.031110 0.081258
v -0.000001 0.031110 0.093829
v -0.046915 0.031110 0.081258
v -0.081259 0.031110 0.046914
v -0.093829 0.031110 -0.000000
v -0.081259 0.031110 -0.046914
v -0.046915 0.031110 -0.081258
v -0.024421 0.397705 0.042299
v -0.042298 0.397705 0.024421
v 0.042300 0.397705 0.024421
v 0.024422 0.397705 0.042299
v -0.024421 0.397705 -0.042299
v 0.000001 0.397705 -0.048843
v 0.024422 0.397705 -0.042299
v 0.042300 0.397705 -0.024421
v -0.048842 0.397705 0.000000
v 0.000001 0.397705 0.048843
v 0.048844 0.397705 0.000000
v -0.042298 0.397705 -0.024421
v -0.046915 0.089739 -0.081258
v -0.046915 0.148368 -0.081258
v -0.000001 0.148368 -0.093829
v -0.000001 0.089739 -0.093829
v 0.046914 0.148368 -0.081258
v 0.046914 0.089739 -0.081258
v 0.081258 0.148368 -0.046914
v 0.081258 0.089739 -0.046914
v 0.093828 0.148368 0.000000
v 0.093828 0.089739 0.000000
v 0.081258 0.148368 0.046914
v 0.081258 0.089739 0.046914
v 0.046914 0.148368 0.081258
v 0.046914 0.089739 0.081258
v -0.000001 0.148368 0.093829
v -0.000001 0.089739 0.093829
v -0.046915 0.148368 0.081258
v -0.046915 0.089739 0.081258
v -0.081259 0.148368 0.046914
v -0.081259 0.089739 0.046914
v -0.093829 0.148368 -0.000000
v -0.093829 0.089739 -0.000000
v -0.081259 0.148368 -0.046914
v -0.081259 0.089739 -0.046914
vt 0.567008 0.609492
vt 0.577416 0.609492
vt 0.571380 0.598785
vt 0.563523 0.598785
vt 0.581226 0.609492
vt 0.574256 0.598785
vt 0.577416 0.609492
vt 0.571380 0.598785
vt 0.567008 0.609492
vt 0.563523 0.598785
vt 0.552790 0.609492
vt 0.552790 0.598785
vt 0.538573 0.609492
vt 0.542057 0.598785
vt 0.528165 0.609492
vt 0.534200 0.598785
vt 0.524355 0.609492
vt 0.531325 0.598785
vt 0.528165 0.609492
vt 0.534200 0.598785
vt 0.530852 0.676768
vt 0.540125 0.676768
vt 0.547207 0.681100
vt 0.543119 0.681100
vt 0.581226 0.608504
vt 0.581226 0.641897
vt 0.577416 0.641897
vt 0.577416 0.608504
vt 0.577416 0.608504
vt 0.577416 0.641897
vt 0.552790 0.609492
vt 0.552790 0.598785
vt 0.540125 0.676768
vt 0.530852 0.676768
vt 0.543119 0.681100
vt 0.547207 0.681100
vt 0.527459 0.676768
vt 0.541622 0.681100
vt 0.552790 0.676768
vt 0.552791 0.681100
vt 0.552790 0.672606
vt 0.538573 0.672606
vt 0.565456 0.676768
vt 0.558375 0.681100
vt 0.574728 0.676768
vt 0.562463 0.681100
vt 0.578122 0.676768
vt 0.563959 0.681100
vt 0.574728 0.676768
vt 0.562463 0.681100
vt 0.552790 0.676768
vt 0.552791 0.681100
vt 0.567008 0.641897
vt 0.563335 0.655260
vt 0.571054 0.655260
vt 0.567008 0.608504
vt 0.538573 0.641897
vt 0.528165 0.641897
vt 0.534527 0.655260
vt 0.542246 0.655260
vt 0.524355 0.641897
vt 0.531701 0.655260
vt 0.528165 0.641897
vt 0.534527 0.655260
vt 0.528165 0.608504
vt 0.538573 0.608504
vt 0.538573 0.641897
vt 0.542246 0.655260
vt 0.524355 0.608504
vt 0.552790 0.641897
vt 0.552790 0.655260
vt 0.528165 0.608504
vt 0.567008 0.641897
vt 0.563335 0.655260
vt 0.538573 0.608504
vt 0.571054 0.655260
vt 0.552790 0.608504
vt 0.573879 0.655260
vt 0.567008 0.608504
vt 0.552790 0.641897
vt 0.552790 0.655260
vt 0.565456 0.676768
vt 0.558375 0.681100
vt 0.539972 0.934067
vt 0.545390 0.934067
vt 0.545390 0.942407
vt 0.539972 0.942407
vt 0.567008 0.672606
vt 0.577416 0.672606
vt 0.528165 0.672606
vt 0.524355 0.672606
vt 0.581226 0.672606
vt 0.577416 0.672606
vt 0.528165 0.672606
vt 0.538573 0.672606
vt 0.538573 0.609492
vt 0.567008 0.672606
vt 0.552790 0.672606
vt 0.560192 0.973657
vt 0.552791 0.973657
vt 0.552791 0.975649
vt 0.560192 0.934067
vt 0.565610 0.934067
vt 0.565610 0.942407
vt 0.560192 0.942407
vt 0.552791 0.934067
vt 0.545390 0.934067
vt 0.545390 0.942407
vt 0.552791 0.942407
vt 0.565610 0.934067
vt 0.560192 0.934067
vt 0.560192 0.942407
vt 0.565610 0.942407
vt 0.537989 0.934067
vt 0.537989 0.942407
vt 0.552791 0.934067
vt 0.552791 0.942407
vt 0.567593 0.934067
vt 0.567593 0.942407
vt 0.539972 0.934067
vt 0.539972 0.942407
vt 0.539972 0.973657
vt 0.545390 0.973657
vt 0.560192 0.973657
vt 0.565610 0.973657
vt 0.545390 0.973657
vt 0.565610 0.973657
vt 0.537989 0.973657
vt 0.552791 0.973657
vt 0.567593 0.973657
vt 0.539972 0.973657
vt 0.567008 0.688231
vt 0.552790 0.688231
vt 0.552790 0.692393
vt 0.565456 0.692393
vt 0.577416 0.688231
vt 0.574728 0.692393
vt 0.581226 0.688231
vt 0.578122 0.692393
vt 0.577416 0.688231
vt 0.574728 0.692393
vt 0.567008 0.688231
vt 0.565456 0.692393
vt 0.552790 0.688231
vt 0.552790 0.692393
vt 0.538573 0.688231
vt 0.540125 0.692393
vt 0.528165 0.688231
vt 0.530852 0.692393
vt 0.524355 0.688231
vt 0.527459 0.692393
vt 0.528165 0.688231
vt 0.530852 0.692393
vt 0.538573 0.688231
vt 0.540125 0.692393
vt 0.542057 0.598785
vt 0.577416 0.541719
vt 0.581226 0.541719
vt 0.574169 0.532291
vt 0.571305 0.532291
vt 0.577416 0.541719
vt 0.571305 0.532291
vt 0.567008 0.541719
vt 0.563480 0.532291
vt 0.552790 0.541719
vt 0.552791 0.532291
vt 0.538573 0.541719
vt 0.542101 0.532291
vt 0.528165 0.541719
vt 0.534276 0.532291
vt 0.524355 0.541719
vt 0.531412 0.532291
vt 0.528165 0.541719
vt 0.534276 0.532291
vt 0.538573 0.541719
vt 0.542101 0.532291
vt 0.552790 0.541719
vt 0.552791 0.532291
vt 0.552790 0.608504
vt 0.552790 0.532291
vt 0.563480 0.532291
vt 0.567008 0.541719
vt 0.558375 0.899850
vt 0.552791 0.899850
vt 0.552791 0.902817
vt 0.560192 0.902817
vt 0.547207 0.899850
vt 0.543119 0.899850
vt 0.539972 0.902817
vt 0.545390 0.902817
vt 0.562463 0.899850
vt 0.563959 0.899850
vt 0.567593 0.902817
vt 0.565610 0.902817
vt 0.547207 0.899850
vt 0.552791 0.899850
vt 0.552791 0.902817
vt 0.545390 0.902817
vt 0.541622 0.899850
vt 0.537989 0.902817
vt 0.562463 0.899850
vt 0.565610 0.902817
vt 0.558375 0.899850
vt 0.560192 0.902817
vt 0.543119 0.899850
vt 0.539972 0.902817
vt 0.552790 0.590737
vt 0.567008 0.590737
vt 0.538573 0.590737
vt 0.577416 0.590737
vt 0.567008 0.590737
vt 0.552790 0.590737
vt 0.538573 0.590737
vt 0.528165 0.590737
vt 0.524355 0.590737
vt 0.528165 0.590737
vt 0.577416 0.590737
vt 0.581226 0.590737
vn 0.4811 -0.2725 -0.8333
vn 0.8333 -0.2725 -0.4811
vn 0.8182 -0.3276 -0.4724
vn 0.4724 -0.3276 -0.8182
vn 0.9622 -0.2725 0.0000
vn 0.9448 -0.3276 0.0000
vn 0.8333 -0.2725 0.4811
vn 0.8182 -0.3276 0.4724
vn 0.4811 -0.2725 0.8333
vn 0.4724 -0.3276 0.8182
vn -0.0000 -0.2725 0.9622
vn 0.0000 -0.3276 0.9448
vn -0.4811 -0.2725 0.8333
vn -0.4724 -0.3276 0.8182
vn -0.8333 -0.2725 0.4811
vn -0.8182 -0.3276 0.4724
vn -0.9622 -0.2725 -0.0000
vn -0.9448 -0.3276 0.0000
vn -0.8333 -0.2725 -0.4811
vn -0.8182 -0.3276 -0.4724
vn -0.5268 0.7937 0.3041
vn -0.3041 0.7937 0.5268
vn -0.1462 0.9563 0.2533
vn -0.2533 0.9563 0.1462
vn 1.0000 -0.0000 0.0000
vn 0.9709 0.2393 0.0000
vn 0.8409 0.2393 0.4855
vn 0.8660 -0.0000 0.5000
vn 0.8660 -0.0000 -0.5000
vn 0.8409 0.2393 -0.4855
vn -0.0000 -0.2725 -0.9622
vn 0.0000 -0.3276 -0.9448
vn -0.3041 0.7937 -0.5268
vn -0.5268 0.7937 -0.3041
vn -0.2533 0.9563 -0.1462
vn -0.1462 0.9563 -0.2533
vn -0.6082 0.7937 -0.0000
vn -0.2925 0.9563 -0.0000
vn -0.0000 0.7937 0.6083
vn 0.0000 0.9563 0.2925
vn -0.0000 0.3004 0.9538
vn -0.4769 0.3004 0.8260
vn 0.3041 0.7937 0.5268
vn 0.1462 0.9563 0.2533
vn 0.5268 0.7937 0.3041
vn 0.2533 0.9563 0.1462
vn 0.6083 0.7937 0.0000
vn 0.2925 0.9563 0.0000
vn 0.5268 0.7937 -0.3041
vn 0.2533 0.9563 -0.1462
vn 0.0000 0.7937 -0.6083
vn 0.0000 0.9563 -0.2925
vn 0.4855 0.2393 -0.8409
vn 0.4867 0.2288 -0.8431
vn 0.8431 0.2288 -0.4867
vn 0.5000 -0.0000 -0.8660
vn -0.4855 0.2393 -0.8409
vn -0.8409 0.2393 -0.4855
vn -0.8431 0.2288 -0.4867
vn -0.4867 0.2288 -0.8431
vn -0.9709 0.2393 -0.0000
vn -0.9735 0.2288 0.0000
vn -0.8409 0.2393 0.4855
vn -0.8431 0.2288 0.4867
vn -0.8660 0.0000 -0.5000
vn -0.5000 0.0000 -0.8660
vn -0.4855 0.2393 0.8409
vn -0.4867 0.2288 0.8431
vn -1.0000 0.0000 -0.0000
vn -0.0000 0.2393 0.9709
vn 0.0000 0.2288 0.9735
vn -0.8660 -0.0000 0.5000
vn 0.4855 0.2393 0.8409
vn 0.4867 0.2288 0.8431
vn -0.5000 -0.0000 0.8660
vn 0.8431 0.2288 0.4867
vn -0.0000 -0.0000 1.0000
vn 0.9735 0.2288 0.0000
vn 0.5000 0.0000 0.8660
vn -0.0000 0.2393 -0.9709
vn 0.0000 0.2288 -0.9735
vn 0.3041 0.7937 -0.5268
vn 0.1462 0.9563 -0.2533
vn 0.4769 0.3004 -0.8260
vn 0.8260 0.3004 -0.4769
vn -0.8260 0.3004 0.4769
vn -0.9538 0.3004 -0.0000
vn 0.9538 0.3004 0.0000
vn 0.8260 0.3004 0.4769
vn -0.8260 0.3004 -0.4769
vn -0.4769 0.3004 -0.8260
vn -0.4811 -0.2725 -0.8333
vn 0.4769 0.3004 0.8260
vn -0.0000 0.3004 -0.9538
vn 0.0667 0.9911 -0.1155
vn 0.0000 0.9911 -0.1334
vn -0.0000 1.0000 0.0000
vn 0.0000 0.0000 -1.0000
vn -0.1155 0.9911 0.0667
vn -0.0667 0.9911 0.1155
vn 0.0667 0.9911 0.1155
vn 0.1155 0.9911 0.0667
vn -0.0667 0.9911 -0.1155
vn 0.1155 0.9911 -0.0667
vn -0.1334 0.9911 -0.0000
vn 0.0000 0.9911 0.1334
vn 0.1334 0.9911 0.0000
vn -0.1155 0.9911 -0.0667
vn -0.4724 -0.3276 -0.8182
vn 0.8258 -0.3012 -0.4768
vn 0.9536 -0.3012 0.0000
vn 0.8006 -0.5992 0.0000
vn 0.6933 -0.5992 -0.4003
vn 0.8258 -0.3012 0.4768
vn 0.6933 -0.5992 0.4003
vn 0.4768 -0.3012 0.8258
vn 0.4003 -0.5992 0.6933
vn -0.0000 -0.3012 0.9536
vn 0.0000 -0.5992 0.8006
vn -0.4768 -0.3012 0.8258
vn -0.4003 -0.5992 0.6933
vn -0.8258 -0.3012 0.4768
vn -0.6933 -0.5992 0.4003
vn -0.9536 -0.3012 -0.0000
vn -0.8006 -0.5992 -0.0000
vn -0.8258 -0.3012 -0.4768
vn -0.6933 -0.5992 -0.4003
vn -0.4768 -0.3012 -0.8258
vn -0.4003 -0.5992 -0.6933
vn -0.0000 -0.3012 -0.9536
vn 0.0000 -0.5992 -0.8006
vn 0.0000 -1.0000 -0.0000
vn 0.4768 -0.3012 -0.8258
vn 0.4003 -0.5992 -0.6933
vn 0.3162 -0.7746 -0.5477
vn 0.0000 -0.7746 -0.6324
vn -0.3162 -0.7746 -0.5477
vn -0.5477 -0.7746 -0.3162
vn 0.5477 -0.7746 0.3162
vn 0.6325 -0.7746 -0.0000
vn -0.3162 -0.7746 0.5477
vn 0.0000 -0.7746 0.6324
vn -0.6324 -0.7746 -0.0000
vn 0.5477 -0.7746 -0.3162
vn 0.3162 -0.7746 0.5477
vn -0.5477 -0.7746 0.3162
usemtl hiker
s 1
f 53/1/1 55/2/2 79/3/3 77/4/4
f 55/2/2 57/5/5 81/6/6 79/3/3
f 57/5/5 59/7/7 83/8/8 81/6/6
f 59/7/7 61/9/9 85/10/10 83/8/8
f 61/9/9 63/11/11 87/12/12 85/10/10
f 63/11/11 65/13/13 89/14/14 87/12/12
f 65/13/13 67/15/15 91/16/16 89/14/14
f 67/15/15 69/17/17 93/18/18 91/16/16
f 69/17/17 71/19/19 95/20/20 93/18/18
f 42/21/21 40/22/22 8/23/23 9/24/24
f 143/25/25 56/26/26 58/27/27 145/28/28
f 141/29/29 54/30/30 56/26/26 143/25/25
f 50/31/31 53/1/1 77/4/4 74/32/32
f 48/33/33 46/34/34 11/35/35 12/36/36
f 46/34/34 44/37/37 10/38/38 11/35/35
f 44/37/37 42/21/21 9/24/24 10/38/38
f 40/22/22 38/39/39 7/40/40 8/23/23
f 63/11/11 39/41/41 41/42/42 65/13/13
f 38/39/39 36/43/43 6/44/44 7/40/40
f 36/43/43 34/45/45 5/46/46 6/44/44
f 34/45/45 32/47/47 4/48/48 5/46/46
f 32/47/47 30/49/49 3/50/50 4/48/48
f 27/51/51 48/33/33 12/36/36 2/52/52
f 54/30/30 52/53/53 76/54/54 78/55/55
f 139/56/56 52/53/53 54/30/30 141/29/29
f 72/57/57 70/58/58 94/59/59 96/60/60
f 70/58/58 68/61/61 92/62/62 94/59/59
f 68/61/61 66/63/63 90/64/64 92/62/62
f 157/65/65 70/58/58 72/57/57 136/66/66
f 66/63/63 64/67/67 88/68/68 90/64/64
f 155/69/69 68/61/61 70/58/58 157/65/65
f 64/67/67 62/70/70 86/71/71 88/68/68
f 153/72/72 66/63/63 68/61/61 155/69/69
f 62/70/70 60/73/73 84/74/74 86/71/71
f 151/75/75 64/67/67 66/63/63 153/72/72
f 60/73/73 58/27/27 82/76/76 84/74/74
f 149/77/77 62/70/70 64/67/67 151/75/75
f 58/27/27 56/26/26 80/78/78 82/76/76
f 147/79/79 60/73/73 62/70/70 149/77/77
f 56/26/26 54/30/30 78/55/55 80/78/78
f 145/28/28 58/27/27 60/73/73 147/79/79
f 52/53/53 51/80/80 75/81/81 76/54/54
f 96/60/60 75/81/81 51/80/80 72/57/57
f 30/49/49 28/82/82 1/83/83 3/50/50
f 124/84/72 123/85/75 20/86/75 21/87/72
f 53/1/1 29/88/84 31/89/85 55/2/2
f 67/15/15 43/90/86 45/91/87 69/17/17
f 57/5/5 33/92/88 35/93/89 59/7/7
f 71/19/19 47/94/90 49/95/91 73/96/92
f 61/9/9 37/97/93 39/41/41 63/11/11
f 50/31/31 26/98/94 29/88/84 53/1/1
f 65/13/13 41/42/42 43/90/86 67/15/15
f 55/2/2 31/89/85 33/92/88 57/5/5
f 69/17/17 45/91/87 47/94/90 71/19/19
f 59/7/7 35/93/89 37/97/93 61/9/9
f 73/96/92 49/95/91 26/98/94 50/31/31
f 13/99/95 14/100/96 25/101/97
f 126/102/79 125/103/28 17/104/28 18/105/79
f 128/106/98 127/107/66 24/108/66 14/109/98
f 130/110/29 129/111/56 13/112/56 15/113/29
f 131/114/69 124/84/72 21/87/72 22/115/69
f 132/116/77 126/102/79 18/105/79 19/117/77
f 133/118/25 130/110/29 15/113/29 16/119/25
f 134/120/65 131/114/69 22/115/69 23/121/65
f 123/85/75 132/116/77 19/117/77 20/86/75
f 125/103/28 133/118/25 16/119/25 17/104/28
f 127/107/66 134/120/65 23/121/65 24/108/66
f 129/111/56 128/106/98 14/109/98 13/112/56
f 21/122/99 20/123/100 25/101/97
f 18/124/101 17/125/102 25/101/97
f 14/100/96 24/126/103 25/101/97
f 15/127/104 13/99/95 25/101/97
f 22/128/105 21/122/99 25/101/97
f 19/129/106 18/124/101 25/101/97
f 16/130/107 15/127/104 25/101/97
f 23/131/108 22/128/105 25/101/97
f 20/123/100 19/129/106 25/101/97
f 17/125/102 16/130/107 25/101/97
f 24/126/103 23/131/108 25/101/97
f 29/132/84 26/133/94 27/134/51 28/135/82
f 31/136/85 29/132/84 28/135/82 30/137/49
f 33/138/88 31/136/85 30/137/49 32/139/47
f 35/140/89 33/138/88 32/139/47 34/141/45
f 37/142/93 35/140/89 34/141/45 36/143/43
f 39/144/41 37/142/93 36/143/43 38/145/39
f 41/146/42 39/144/41 38/145/39 40/147/22
f 43/148/86 41/146/42 40/147/22 42/149/21
f 45/150/87 43/148/86 42/149/21 44/151/37
f 47/152/90 45/150/87 44/151/37 46/153/34
f 49/154/91 47/152/90 46/153/34 48/155/33
f 26/133/94 49/154/91 48/155/33 27/134/51
f 71/19/19 73/96/92 97/156/109 95/20/20
f 28/82/82 27/51/51 2/52/52 1/83/83
f 75/81/81 96/60/60 97/156/109 74/32/32
f 96/60/60 94/59/59 95/20/20 97/156/109
f 94/59/59 92/62/62 93/18/18 95/20/20
f 92/62/62 90/64/64 91/16/16 93/18/18
f 90/64/64 88/68/68 89/14/14 91/16/16
f 88/68/68 86/71/71 87/12/12 89/14/14
f 86/71/71 84/74/74 85/10/10 87/12/12
f 84/74/74 82/76/76 83/8/8 85/10/10
f 82/76/76 80/78/78 81/6/6 83/8/8
f 80/78/78 78/55/55 79/3/3 81/6/6
f 78/55/55 76/54/54 77/4/4 79/3/3
f 76/54/54 75/81/81 74/32/32 77/4/4
f 113/157/110 114/158/111 102/159/112 101/160/113
f 114/158/111 115/161/114 103/162/115 102/159/112
f 115/161/114 116/163/116 104/164/117 103/162/115
f 116/163/116 117/165/118 105/166/119 104/164/117
f 117/165/118 118/167/120 106/168/121 105/166/119
f 118/167/120 119/169/122 107/170/123 106/168/121
f 119/169/122 120/171/124 108/172/125 107/170/123
f 120/171/124 121/173/126 109/174/127 108/172/125
f 121/173/126 122/175/128 110/176/129 109/174/127
f 122/175/128 111/177/130 100/178/131 110/176/129
f 136/66/66 72/57/57 51/80/80 137/179/98
f 137/179/98 51/80/80 52/53/53 139/56/56
f 98/180/132 100/178/132 99/181/132
f 98/180/132 99/181/132 101/160/132
f 98/180/132 101/160/132 102/159/132
f 98/180/132 102/159/132 103/162/132
f 98/180/132 103/162/132 104/164/132
f 98/180/132 104/164/132 105/166/132
f 98/180/132 105/166/132 106/168/132
f 98/180/132 106/168/132 107/170/132
f 98/180/132 107/170/132 108/172/132
f 98/180/132 108/172/132 109/174/132
f 98/180/132 109/174/132 110/176/132
f 98/180/132 110/176/132 100/178/132
f 112/182/133 113/157/110 101/160/113 99/181/134
f 1/183/135 2/184/136 128/185/136 129/186/135
f 12/187/137 11/188/138 134/189/138 127/190/137
f 5/191/139 4/192/140 133/193/140 125/194/139
f 8/195/141 7/196/142 132/197/142 123/198/141
f 11/188/138 10/199/143 131/200/143 134/189/138
f 4/192/140 3/201/144 130/202/144 133/193/140
f 7/196/142 6/203/145 126/204/145 132/197/142
f 10/199/143 9/205/146 124/206/146 131/200/143
f 3/201/144 1/183/135 129/186/135 130/202/144
f 2/184/136 12/187/137 127/190/137 128/185/136
f 6/203/145 5/191/139 125/194/139 126/204/145
f 9/205/146 8/195/141 123/198/141 124/206/146
f 73/96/92 50/31/31 74/32/32 97/156/109
f 112/182/133 99/181/134 100/178/131 111/177/130
f 111/177/130 138/207/98 140/208/56 112/182/133
f 136/66/66 137/179/98 138/207/98 135/209/66
f 122/175/128 135/209/66 138/207/98 111/177/130
f 115/161/114 146/210/28 148/211/79 116/163/116
f 116/163/116 148/211/79 150/212/77 117/165/118
f 117/165/118 150/212/77 152/213/75 118/167/120
f 118/167/120 152/213/75 154/214/72 119/169/122
f 119/169/122 154/214/72 156/215/69 120/171/124
f 120/171/124 156/215/69 158/216/65 121/173/126
f 121/173/126 158/216/65 135/209/66 122/175/128
f 112/182/133 140/208/56 142/217/29 113/157/110
f 113/157/110 142/217/29 144/218/25 114/158/111
f 114/158/111 144/218/25 146/210/28 115/161/114
f 149/77/77 151/75/75 152/213/75 150/212/77
f 145/28/28 147/79/79 148/211/79 146/210/28
f 141/29/29 143/25/25 144/218/25 142/217/29
f 139/56/56 141/29/29 142/217/29 140/208/56
f 155/69/69 157/65/65 158/216/65 156/215/69
f 143/25/25 145/28/28 146/210/28 144/218/25
f 153/72/72 155/69/69 156/215/69 154/214/72
f 137/179/98 139/56/56 140/208/56 138/207/98
f 157/65/65 136/66/66 135/209/66 158/216/65
f 147/79/79 149/77/77 150/212/77 148/211/79
f 151/75/75 153/72/72 154/214/72 152/213/75
