# Blender v3.4.1 OBJ File: 'Board_game_bits_export.blend'
# www.blender.org
mtllib card_hearts_seven.mtl
o card_hearts_seven
v -2.157310 -2.738884 0.025000
v -1.896184 -3.000011 0.025000
v -2.122326 -2.869448 0.025000
v -2.026747 -2.965027 0.025000
v 1.896184 -3.000011 0.025000
v 2.157310 -2.738884 0.025000
v 2.026747 -2.965027 0.025000
v 2.122326 -2.869448 0.025000
v -1.896184 3.000011 0.025000
v -2.157310 2.738884 0.025000
v -2.026747 2.965027 0.025000
v -2.122326 2.869448 0.025000
v 2.157310 2.738884 0.025000
v 1.896184 3.000011 0.025000
v 2.122326 2.869448 0.025000
v 2.026747 2.965027 0.025000
v -1.896184 -3.000011 -0.025000
v -2.157310 -2.738884 -0.025000
v -2.026747 -2.965027 -0.025000
v -2.122326 -2.869448 -0.025000
v 2.157310 -2.738884 -0.025000
v 1.896184 -3.000011 -0.025000
v 2.122326 -2.869448 -0.025000
v 2.026747 -2.965027 -0.025000
v -2.157310 2.738884 -0.025000
v -1.896184 3.000011 -0.025000
v -2.122326 2.869448 -0.025000
v -2.026747 2.965027 -0.025000
v 1.896184 3.000011 -0.025000
v 2.157310 2.738884 -0.025000
v 2.026747 2.965027 -0.025000
v 2.122326 2.869448 -0.025000
v -1.896184 2.738884 0.025000
v -1.896184 -2.738884 0.025000
v 1.896183 2.738884 0.025000
v 1.896184 -2.738884 0.025000
v 1.896184 -2.738884 -0.025000
v -1.896183 -2.738884 -0.025000
v 1.896184 2.738884 -0.025000
v -1.896184 2.738884 -0.025000
vt 0.984375 0.061125
vt 0.984375 0.061125
vt 0.984375 0.061125
vt 0.984375 0.061125
vt 0.984375 0.099326
vt 0.984375 0.900674
vt 0.984375 0.900674
vt 0.984375 0.099326
vt 0.984375 0.938875
vt 0.984375 0.938875
vt 0.984375 0.938875
vt 0.984375 0.938875
vt 0.933856 0.950639
vt 0.993603 0.950639
vt 0.985599 0.972121
vt 0.984375 0.099326
vt 0.984375 0.099326
vt 0.984375 0.080226
vt 0.984375 0.080226
vt 0.984375 0.062831
vt 0.984375 0.062831
vt 0.984375 0.080226
vt 0.984375 0.080226
vt 0.984375 0.062831
vt 0.984375 0.062831
vt 0.984375 0.937169
vt 0.984375 0.937169
vt 0.984375 0.919774
vt 0.984375 0.919774
vt 0.984375 0.900674
vt 0.984375 0.900674
vt 0.984375 0.919774
vt 0.984375 0.919774
vt 0.984375 0.937169
vt 0.984375 0.937169
vt 0.933856 0.049361
vt 0.933856 0.006397
vt 0.963730 0.012153
vt 0.066144 0.950639
vt 0.066144 0.993603
vt 0.036271 0.987847
vt 0.036271 0.012153
vt 0.066144 0.006397
vt 0.066144 0.049361
vt 0.993603 0.049361
vt 0.006397 0.950639
vt 0.006397 0.049361
vt 0.933856 0.993603
vt 0.014402 0.027879
vt 0.985599 0.027879
vt 0.963730 0.987847
vt 0.014402 0.972121
vt 0.066144 0.950639
vt 0.066144 0.993603
vt 0.036270 0.987847
vt 0.933856 0.950639
vt 0.993603 0.950639
vt 0.985598 0.972121
vt 0.066144 0.049361
vt 0.006397 0.049361
vt 0.014402 0.027879
vt 0.985598 0.027879
vt 0.993603 0.049361
vt 0.933856 0.049361
vt 0.933856 0.993603
vt 0.066144 0.006397
vt 0.933856 0.006397
vt 0.006397 0.950639
vt 0.036270 0.012153
vt 0.963730 0.012153
vt 0.014402 0.972121
vt 0.963730 0.987847
vn -0.1305 -0.9914 0.0000
vn 0.1305 -0.9914 0.0000
vn 0.9914 -0.1305 0.0000
vn 0.9914 0.1305 0.0000
vn 0.1305 0.9914 0.0000
vn -0.1305 0.9914 0.0000
vn 0.0000 -0.0000 1.0000
vn -0.9914 -0.1305 0.0000
vn -0.8660 -0.5000 0.0000
vn -0.5000 -0.8660 0.0000
vn 0.8660 -0.5000 0.0000
vn 0.5000 -0.8660 0.0000
vn 0.5000 0.8660 0.0000
vn 0.8660 0.5000 0.0000
vn -0.9914 0.1305 0.0000
vn -0.8660 0.5000 0.0000
vn -0.5000 0.8660 0.0000
vn 0.0000 0.0000 -1.0000
usemtl card_hearts_seven
s 1
f 17/1/1 22/2/2 5/3/2 2/4/1
f 21/5/3 30/6/4 13/7/4 6/8/3
f 29/9/5 26/10/6 9/11/6 14/12/5
f 35/13/7 13/14/7 15/15/7
f 1/16/8 18/17/8 20/18/9 3/19/9
f 3/19/9 20/18/9 19/20/10 4/21/10
f 4/21/10 19/20/10 17/1/1 2/4/1
f 21/5/3 6/8/3 8/22/11 23/23/11
f 23/23/11 8/22/11 7/24/12 24/25/12
f 24/25/12 7/24/12 5/3/2 22/2/2
f 29/9/5 14/12/5 16/26/13 31/27/13
f 31/27/13 16/26/13 15/28/14 32/29/14
f 32/29/14 15/28/14 13/7/4 30/6/4
f 25/30/15 10/31/15 12/32/16 27/33/16
f 27/33/16 12/32/16 11/34/17 28/35/17
f 28/35/17 11/34/17 9/11/6 26/10/6
f 25/30/15 18/17/8 1/16/8 10/31/15
f 36/36/7 5/37/7 7/38/7
f 33/39/7 9/40/7 11/41/7
f 4/42/7 2/43/7 34/44/7
f 35/13/7 36/36/7 6/45/7 13/14/7
f 10/46/7 1/47/7 34/44/7 33/39/7
f 33/39/7 34/44/7 36/36/7 35/13/7
f 33/39/7 35/13/7 14/48/7 9/40/7
f 34/44/7 2/43/7 5/37/7 36/36/7
f 1/47/7 3/49/7 34/44/7
f 3/49/7 4/42/7 34/44/7
f 6/45/7 36/36/7 8/50/7
f 8/50/7 36/36/7 7/38/7
f 14/48/7 35/13/7 16/51/7
f 16/51/7 35/13/7 15/15/7
f 33/39/7 11/41/7 12/52/7
f 10/46/7 33/39/7 12/52/7
usemtl card_cardback_A
f 39/53/18 29/54/18 31/55/18
f 40/56/18 25/57/18 27/58/18
f 37/59/18 21/60/18 23/61/18
f 20/62/18 18/63/18 38/64/18
f 39/53/18 40/56/18 26/65/18 29/54/18
f 22/66/18 17/67/18 38/64/18 37/59/18
f 37/59/18 38/64/18 40/56/18 39/53/18
f 37/59/18 39/53/18 30/68/18 21/60/18
f 38/64/18 18/63/18 25/57/18 40/56/18
f 37/59/18 23/61/18 24/69/18
f 22/66/18 37/59/18 24/69/18
f 17/67/18 19/70/18 38/64/18
f 19/70/18 20/62/18 38/64/18
f 39/53/18 31/55/18 32/71/18
f 30/68/18 39/53/18 32/71/18
f 26/65/18 40/56/18 28/72/18
f 28/72/18 40/56/18 27/58/18
