# Blender v3.4.1 OBJ File: 'April2026_Marksman_Assets_Export.blend'
# www.blender.org
mtllib Marksman_Rifle_Ghilliewrap.mtl
o Marksman_Rifle_Ghilliewrap
v 0.050895 -0.157518 -0.548264
v 0.060559 -0.155177 -0.472375
v 0.046097 -0.147575 -0.479297
v 0.031175 -0.153387 -0.488266
v 0.024617 -0.169213 -0.494241
v 0.030364 -0.185804 -0.493905
v 0.044985 -0.193434 -0.487263
v 0.059804 -0.187623 -0.478022
v 0.066205 -0.171761 -0.471757
v 0.022525 -0.151661 -0.419411
v 0.013473 -0.143578 -0.435396
v 0.001123 -0.150041 -0.450942
v -0.006789 -0.167317 -0.457333
v -0.005295 -0.185195 -0.450999
v 0.004180 -0.193452 -0.435619
v 0.015837 -0.187045 -0.419700
v 0.023321 -0.169661 -0.412778
v -0.021972 -0.132965 -0.393286
v -0.024125 -0.127061 -0.412606
v -0.035138 -0.132686 -0.428609
v -0.048200 -0.146489 -0.432321
v -0.055520 -0.160563 -0.421808
v -0.053167 -0.166863 -0.403059
v -0.042477 -0.161440 -0.386708
v -0.029614 -0.147268 -0.382482
v -0.052824 -0.088004 -0.379964
v -0.052494 -0.084536 -0.400565
v -0.065200 -0.086728 -0.416054
v -0.083667 -0.093217 -0.417570
v -0.096806 -0.100848 -0.404621
v -0.097036 -0.104966 -0.384727
v -0.084250 -0.102847 -0.369188
v -0.065937 -0.095733 -0.367106
v -0.060775 -0.009689 -0.370833
v -0.059886 -0.006185 -0.390852
v -0.073251 -0.002615 -0.405295
v -0.093042 -0.001071 -0.405703
v -0.107664 -0.002457 -0.391836
v -0.108553 -0.005961 -0.371817
v -0.095188 -0.009531 -0.357374
v -0.075397 -0.011075 -0.356966
v -0.042412 0.062543 -0.356586
v -0.039918 0.069414 -0.375351
v -0.050313 0.081065 -0.387172
v -0.067508 0.090672 -0.385125
v -0.081430 0.092606 -0.370408
v -0.083923 0.085736 -0.351643
v -0.073528 0.074085 -0.339821
v -0.056333 0.064478 -0.341869
v -0.008421 0.094976 -0.333067
v -0.001132 0.105770 -0.348176
v -0.004011 0.124011 -0.354286
v -0.015372 0.139016 -0.347818
v -0.028560 0.141994 -0.332562
v -0.035849 0.131201 -0.317453
v -0.032970 0.112959 -0.311343
v -0.021609 0.097954 -0.317811
v 0.031198 0.094477 -0.299706
v 0.044597 0.105614 -0.309296
v 0.049676 0.124641 -0.308334
v 0.043459 0.140414 -0.297384
v 0.029589 0.143691 -0.282860
v 0.016191 0.132554 -0.273270
v 0.011112 0.113527 -0.274232
v 0.017328 0.097754 -0.285182
v 0.064394 0.066898 -0.256831
v 0.082440 0.074737 -0.260347
v 0.092397 0.090570 -0.253179
v 0.088431 0.105122 -0.239525
v 0.072867 0.109870 -0.227385
v 0.054820 0.102031 -0.223869
v 0.044863 0.086198 -0.231037
v 0.048829 0.071645 -0.244690
v 0.077832 0.017943 -0.207138
v 0.097675 0.021807 -0.206143
v 0.109260 0.034189 -0.195012
v 0.105801 0.047834 -0.180265
v 0.089325 0.054751 -0.170541
v 0.069482 0.050886 -0.171536
v 0.057897 0.038504 -0.182668
v 0.061356 0.024859 -0.197415
v 0.077892 -0.039040 -0.156322
v 0.097967 -0.037093 -0.153491
v 0.109757 -0.026180 -0.140946
v 0.106354 -0.012692 -0.126036
v 0.089753 -0.004532 -0.117495
v 0.069678 -0.006479 -0.120326
v 0.057888 -0.017393 -0.132871
v 0.061291 -0.030880 -0.147781
v 0.074865 -0.090707 -0.109921
v 0.094603 -0.090567 -0.105388
v 0.106257 -0.080448 -0.092097
v 0.103001 -0.066277 -0.077832
v 0.086741 -0.056354 -0.070951
v 0.067004 -0.056493 -0.075484
v 0.055350 -0.066613 -0.088776
v 0.058606 -0.080784 -0.103040
v 0.061038 -0.130935 -0.070191
v 0.078541 -0.134796 -0.061466
v 0.089248 -0.126358 -0.046410
v 0.086887 -0.110564 -0.033843
v 0.072840 -0.096665 -0.031126
v 0.055337 -0.092804 -0.039851
v 0.044630 -0.101242 -0.054907
v 0.046992 -0.117037 -0.067474
v 0.025028 -0.155756 -0.037717
v 0.036716 -0.163625 -0.023645
v 0.045293 -0.156877 -0.006479
v 0.045734 -0.139465 0.003725
v 0.037781 -0.121590 0.000991
v 0.026093 -0.113721 -0.013081
v 0.017516 -0.120469 -0.030247
v 0.017075 -0.137880 -0.040451
v -0.037683 -0.161137 -0.011598
v -0.031593 -0.169863 0.005616
v -0.022726 -0.163683 0.022798
v -0.016277 -0.146216 0.029882
v -0.016023 -0.127694 0.022720
v -0.022114 -0.118968 0.005506
v -0.030980 -0.125148 -0.011676
v -0.037430 -0.142615 -0.018760
v -0.081129 -0.141223 0.009216
v -0.076867 -0.149523 0.027340
v -0.064174 -0.145443 0.042526
v -0.050485 -0.131372 0.045878
v -0.043818 -0.115553 0.035432
v -0.048080 -0.107253 0.017307
v -0.060773 -0.111333 0.002121
v -0.074462 -0.125404 -0.001230
v -0.113192 -0.096174 0.036592
v -0.109257 -0.104157 0.054938
v -0.093867 -0.103121 0.068141
v -0.076036 -0.093672 0.068466
v -0.066209 -0.081346 0.055722
v -0.070144 -0.073363 0.037376
v -0.085534 -0.074399 0.024174
v -0.103365 -0.083848 0.023849
v -0.136402 -0.032820 0.067906
v -0.132695 -0.040177 0.086555
v -0.116402 -0.041070 0.098754
v -0.097066 -0.034975 0.097358
v -0.086014 -0.025462 0.083184
v -0.089721 -0.018105 0.064535
v -0.106015 -0.017212 0.052336
v -0.125351 -0.023308 0.053732
v -0.151469 0.044838 0.099319
v -0.147953 0.038440 0.118352
v -0.131404 0.036438 0.130088
v -0.111516 0.040005 0.127652
v -0.099940 0.047051 0.112472
v -0.103456 0.053449 0.093439
v -0.120005 0.055451 0.081703
v -0.139893 0.051884 0.084139
v -0.157929 0.132940 0.127156
v -0.154498 0.127549 0.146516
v -0.137882 0.124685 0.157975
v -0.117814 0.126025 0.154820
v -0.106050 0.130784 0.138899
v -0.109481 0.136174 0.119538
v -0.126097 0.139038 0.108079
v -0.146165 0.137699 0.111235
v -0.155180 0.226324 0.150293
v -0.151748 0.221503 0.169807
v -0.135195 0.217429 0.180963
v -0.115217 0.216487 0.177226
v -0.103516 0.219231 0.160785
v -0.106948 0.224052 0.141270
v -0.123501 0.228126 0.130114
v -0.143480 0.229067 0.133851
v -0.141684 0.316723 0.169680
v -0.138295 0.311840 0.189186
v -0.122204 0.305533 0.199864
v -0.102838 0.301497 0.195459
v -0.091541 0.302095 0.178552
v -0.094930 0.306977 0.159046
v -0.111021 0.313284 0.148368
v -0.130387 0.317321 0.152773
v -0.113681 0.394794 0.185136
v -0.110694 0.389176 0.204494
v -0.096628 0.378779 0.214350
v -0.079724 0.369695 0.208929
v -0.069883 0.367244 0.191408
v -0.072870 0.372862 0.172049
v -0.086936 0.383258 0.162194
v -0.103840 0.392342 0.167614
v -0.065017 0.448876 0.195945
v -0.063662 0.441975 0.215017
v -0.055902 0.426135 0.223693
v -0.046283 0.410635 0.216889
v -0.040440 0.404555 0.198592
v -0.041796 0.411456 0.179520
v -0.049556 0.427296 0.170845
v -0.059174 0.442796 0.177648
v 0.002617 0.462354 0.201335
v 0.000262 0.454988 0.220055
v -0.002716 0.437221 0.227679
v -0.004572 0.419462 0.219740
v -0.004220 0.412113 0.200889
v -0.001865 0.419479 0.182170
v 0.001113 0.437245 0.174546
v 0.002970 0.455005 0.182485
v 0.061180 0.434734 0.205924
v 0.054453 0.429244 0.224207
v 0.042446 0.414864 0.230962
v 0.032192 0.400017 0.222234
v 0.029697 0.393400 0.203133
v 0.036424 0.398890 0.184851
v 0.048431 0.413270 0.178095
v 0.058685 0.428117 0.186824
v 0.106708 0.381714 0.216471
v 0.096947 0.379318 0.234089
v 0.080382 0.369298 0.239926
v 0.066716 0.357523 0.230562
v 0.063956 0.350892 0.211483
v 0.073717 0.353288 0.193865
v 0.090282 0.363308 0.188028
v 0.103947 0.375083 0.197391
v 0.142261 0.315907 0.235937
v 0.130678 0.316627 0.252595
v 0.112181 0.309766 0.257498
v 0.097605 0.299344 0.247775
v 0.095489 0.291467 0.229120
v 0.107072 0.290748 0.212462
v 0.125569 0.297608 0.207558
v 0.140145 0.308030 0.217282
v 0.169646 0.246508 0.266768
v 0.156738 0.250517 0.281878
v 0.137285 0.245968 0.285722
v 0.122683 0.235527 0.276047
v 0.121485 0.225309 0.258523
v 0.134393 0.221300 0.243413
v 0.153846 0.225848 0.239570
v 0.168448 0.236290 0.249244
v 0.188659 0.180483 0.312130
v 0.174764 0.188163 0.324683
v 0.154682 0.186011 0.326836
v 0.140176 0.175289 0.317329
v 0.139742 0.162277 0.301730
v 0.153637 0.154597 0.289177
v 0.173719 0.156748 0.287024
v 0.188226 0.167470 0.296531
v 0.193897 0.117465 0.375189
v 0.179738 0.128625 0.384398
v 0.159485 0.129272 0.383816
v 0.145001 0.119029 0.373783
v 0.144772 0.103894 0.360178
v 0.158930 0.092734 0.350969
v 0.179184 0.092086 0.351552
v 0.193667 0.102330 0.361584
v 0.179047 0.057204 0.450818
v 0.165600 0.071232 0.456490
v 0.146084 0.074680 0.452424
v 0.131932 0.065527 0.441002
v 0.131434 0.049136 0.428915
v 0.144881 0.035108 0.423243
v 0.164397 0.031660 0.427309
v 0.178549 0.040813 0.438730
v 0.141677 0.006331 0.528432
v 0.130274 0.022876 0.530211
v 0.112982 0.029018 0.521959
v 0.099930 0.021160 0.508510
v 0.098764 0.003905 0.497743
v 0.110167 -0.012639 0.495964
v 0.127459 -0.018782 0.504216
v 0.140511 -0.010924 0.517664
v 0.079995 -0.027140 0.596628
v 0.073053 -0.008670 0.593881
v 0.060371 -0.000367 0.580806
v 0.049379 -0.007096 0.565064
v 0.046516 -0.024915 0.555876
v 0.053458 -0.043386 0.558624
v 0.066140 -0.051688 0.571698
v 0.077131 -0.044959 0.587440
v -0.001354 -0.030536 0.644871
v -0.000425 -0.012527 0.636984
v -0.007266 -0.004204 0.619963
v -0.017869 -0.010443 0.603777
v -0.026023 -0.027589 0.597908
v -0.026952 -0.045599 0.605795
v -0.020111 -0.053921 0.622816
v -0.009508 -0.047682 0.639002
v -0.077999 0.023745 0.683086
v -0.069606 0.037148 0.671014
v -0.073160 0.043818 0.652134
v -0.086579 0.039848 0.637507
v -0.102002 0.027562 0.635701
v -0.110395 0.014159 0.647774
v -0.106842 0.007489 0.666654
v -0.093423 0.011459 0.681281
v -0.128244 0.137253 0.725231
v -0.116693 0.145684 0.710920
v -0.119496 0.151455 0.691565
v -0.135011 0.151185 0.678504
v -0.154150 0.145033 0.679388
v -0.165702 0.136603 0.693699
v -0.162899 0.130832 0.713054
v -0.147384 0.131101 0.726115
v -0.149565 0.275561 0.767747
v -0.137349 0.280541 0.752305
v -0.140072 0.286287 0.732931
v -0.156140 0.289433 0.720975
v -0.176140 0.288136 0.723441
v -0.188357 0.283156 0.738883
v -0.185633 0.277410 0.758257
v -0.169566 0.274264 0.770213
v -0.141671 0.395968 0.802791
v -0.130203 0.397182 0.786202
v -0.132679 0.403835 0.767105
v -0.147647 0.412029 0.756685
v -0.166340 0.416966 0.761046
v -0.177807 0.415752 0.777634
v -0.175331 0.409100 0.796732
v -0.160363 0.400905 0.807152
v -0.100731 0.464872 0.824710
v -0.092940 0.461330 0.806573
v -0.094250 0.469510 0.787972
v -0.103894 0.484618 0.779803
v -0.116223 0.497806 0.786851
v -0.124015 0.501348 0.804988
v -0.122705 0.493168 0.823589
v -0.113060 0.478059 0.831758
v -0.006704 0.494540 0.837866
v -0.005447 0.488576 0.818738
v -0.004825 0.497444 0.800422
v -0.005202 0.515949 0.793647
v -0.006358 0.533252 0.802382
v -0.007615 0.539216 0.821510
v -0.008237 0.530348 0.839826
v -0.007860 0.511843 0.846601
v 0.074008 0.477067 0.835558
v 0.069501 0.472252 0.816452
v 0.072496 0.480402 0.798077
v 0.081240 0.496743 0.791199
v 0.090610 0.511703 0.799846
v 0.095117 0.516518 0.818952
v 0.092121 0.508368 0.837326
v 0.083378 0.492027 0.844204
v 0.127530 0.420355 0.826005
v 0.120033 0.418059 0.807244
v 0.125602 0.423423 0.788518
v 0.140976 0.433305 0.780797
v 0.157148 0.441916 0.788603
v 0.164645 0.444213 0.807364
v 0.159075 0.438849 0.826090
v 0.143702 0.428966 0.833811
v 0.151960 0.333968 0.820012
v 0.143760 0.333024 0.801369
v 0.150804 0.333991 0.782402
v 0.168965 0.336303 0.774220
v 0.187605 0.338604 0.781617
v 0.195804 0.339548 0.800259
v 0.188761 0.338581 0.819226
v 0.170600 0.336269 0.827408
v 0.146211 0.230089 0.826488
v 0.137951 0.229245 0.807862
v 0.145077 0.226327 0.789050
v 0.163413 0.223044 0.781072
v 0.182220 0.221320 0.788602
v 0.190481 0.222164 0.807228
v 0.183355 0.225082 0.826040
v 0.165018 0.228365 0.834018
v 0.126218 0.139312 0.840063
v 0.117974 0.138481 0.821430
v 0.124672 0.133323 0.802907
v 0.142388 0.126861 0.795344
v 0.160745 0.122879 0.803172
v 0.168989 0.123710 0.821805
v 0.162291 0.128868 0.840328
v 0.144574 0.135330 0.847891
v 0.100548 0.064225 0.854401
v 0.092522 0.063828 0.835663
v 0.098042 0.056209 0.817714
v 0.113875 0.045830 0.811070
v 0.130745 0.038772 0.819622
v 0.138772 0.039169 0.838360
v 0.133251 0.046788 0.856308
v 0.117419 0.057166 0.862953
v 0.066692 0.016509 0.869020
v 0.059337 0.016796 0.850012
v 0.061098 0.005407 0.833571
v 0.070944 -0.010988 0.829327
v 0.083107 -0.022784 0.839767
v 0.090463 -0.023071 0.858776
v 0.088701 -0.011682 0.875217
v 0.078855 0.004713 0.879460
v 0.017471 0.003089 0.885777
v 0.010931 0.003819 0.866485
v 0.005851 -0.009377 0.852479
v 0.005208 -0.028768 0.851963
v 0.009378 -0.042995 0.865240
v 0.015918 -0.043725 0.884532
v 0.020998 -0.030530 0.898538
v 0.021641 -0.011138 0.899054
v -0.049152 0.027545 0.906336
v -0.056872 0.029363 0.887708
v -0.069878 0.019445 0.877066
v -0.080553 0.003601 0.880645
v -0.082642 -0.008888 0.896349
v -0.074922 -0.010706 0.914978
v -0.061916 -0.000788 0.925620
v -0.051241 0.015056 0.922040
v -0.079822 0.071831 0.927804
v -0.089889 0.078574 0.911896
v -0.108413 0.078117 0.906600
v -0.124545 0.070728 0.915020
v -0.128833 0.060735 0.932222
v -0.118767 0.053992 0.948130
v -0.100242 0.054448 0.953426
v -0.084111 0.061838 0.945006
v -0.063823 0.125012 0.958079
v -0.072565 0.138552 0.946452
v -0.089755 0.147973 0.947217
v -0.105322 0.147756 0.959926
v -0.110148 0.138028 0.977134
v -0.101405 0.124488 0.988761
v -0.084215 0.115067 0.987995
v -0.068648 0.115284 0.975286
v -0.016012 0.168121 0.999269
v -0.019274 0.186434 0.993153
v -0.031379 0.200947 0.999259
v -0.045237 0.203160 1.014009
v -0.052730 0.191776 1.028764
v -0.049468 0.173464 1.034880
v -0.037363 0.158950 1.028774
v -0.023505 0.156737 1.014024
v 0.042301 0.172989 1.048897
v 0.047680 0.191479 1.050778
v 0.041827 0.206406 1.062646
v 0.028172 0.209025 1.077549
v 0.014712 0.197802 1.086756
v 0.009333 0.179312 1.084875
v 0.015186 0.164385 1.073007
v 0.028841 0.161766 1.058104
v 0.087995 0.123512 1.101985
v 0.099678 0.136475 1.111255
v 0.097666 0.148414 1.127458
v 0.083137 0.152335 1.141102
v 0.064602 0.145942 1.144196
v 0.052918 0.132980 1.134926
v 0.054930 0.121041 1.118723
v 0.069460 0.117119 1.105079
v 0.099276 0.070413 1.135088
v 0.112512 0.078152 1.148281
v 0.111367 0.089173 1.165321
v 0.096511 0.097021 1.176227
v 0.076647 0.097098 1.174610
v 0.063411 0.089358 1.161418
v 0.064557 0.078337 1.144378
v 0.079412 0.070489 1.133472
v 0.085619 0.025980 1.166198
v 0.098501 0.031422 1.181010
v 0.099060 0.045475 1.195314
v 0.086967 0.059907 1.200729
v 0.069307 0.066263 1.194084
v 0.056425 0.060821 1.179271
v 0.055867 0.046768 1.164967
v 0.067959 0.032337 1.159552
v 0.048317 0.004524 1.205059
v 0.061536 0.009754 1.219654
v 0.067172 0.026729 1.228398
v 0.061922 0.045507 1.226168
v 0.048863 0.055087 1.214271
v 0.035643 0.049857 1.199676
v 0.030008 0.032882 1.190932
v 0.035257 0.014104 1.193162
v -0.006219 0.018961 1.255170
v 0.008732 0.023657 1.268063
v 0.019958 0.039913 1.271375
v 0.020885 0.058205 1.263168
v 0.010969 0.067819 1.248247
v -0.003982 0.063123 1.235354
v -0.015208 0.046868 1.232042
v -0.016135 0.028575 1.240250
v -0.066446 0.068683 1.319380
v -0.048828 0.070709 1.328527
v -0.033788 0.083847 1.327055
v -0.030137 0.100400 1.315827
v -0.040014 0.110673 1.301421
v -0.057633 0.108647 1.292274
v -0.072673 0.095509 1.293746
v -0.076323 0.078955 1.304973
v -0.089385 0.122211 1.381989
v -0.070240 0.118379 1.383617
v -0.053711 0.126872 1.376207
v -0.049481 0.142716 1.364100
v -0.060027 0.156629 1.354388
v -0.079172 0.160461 1.352760
v -0.095701 0.151968 1.360170
v -0.099932 0.136124 1.372277
v -0.065545 0.159365 1.439191
v -0.049405 0.150266 1.432272
v -0.034431 0.155431 1.419690
v -0.029395 0.171833 1.408813
v -0.037246 0.189865 1.406015
v -0.053386 0.198963 1.412933
v -0.068360 0.193799 1.425516
v -0.073396 0.177397 1.436392
v -0.019211 0.171891 1.487579
v -0.007670 0.161307 1.474936
v 0.006365 0.165631 1.460837
v 0.014672 0.182329 1.453541
v 0.012385 0.201621 1.457322
v 0.000843 0.212205 1.469965
v -0.013191 0.207881 1.484064
v -0.021498 0.191182 1.491360
v 0.023784 0.157000 1.525790
v 0.031965 0.147686 1.509745
v 0.047774 0.150551 1.497486
v 0.061951 0.163919 1.496194
v 0.066191 0.179958 1.506627
v 0.058010 0.189273 1.522671
v 0.042201 0.186407 1.534930
v 0.028024 0.173040 1.536222
v 0.051731 0.129943 1.550766
v 0.055676 0.125731 1.540640
v 0.065878 0.125216 1.535191
v 0.076361 0.128698 1.537613
v 0.080983 0.134138 1.546485
v 0.077038 0.138350 1.556612
v 0.066836 0.138865 1.562060
v 0.056353 0.135383 1.559639
v 0.067737 0.115124 1.551828
v 0.059769 -0.151793 -0.531796
v 0.063012 -0.160002 -0.533436
v 0.051674 -0.148265 -0.531210
v 0.043469 -0.151485 -0.532022
v 0.039960 -0.159566 -0.533756
v 0.043203 -0.167774 -0.535397
v 0.051299 -0.171302 -0.535983
v 0.059504 -0.168083 -0.535171
v 0.155442 0.221639 0.258122
v 0.259912 0.253342 0.228672
v 0.233493 0.289335 0.212173
v 0.205710 0.280555 0.224640
v 0.237080 0.237818 0.244231
v 0.257995 0.284740 0.231564
v 0.215067 0.252095 0.229096
v 0.250320 0.271505 0.214993
v 0.202808 0.298547 0.249045
v 0.171031 0.272154 0.262410
v 0.202179 0.229721 0.281865
v 0.241674 0.245599 0.273319
v 0.221499 0.273644 0.265797
v 0.164178 0.237623 0.278999
v 0.246859 0.284436 0.248733
v 0.264288 0.263419 0.248017
v 0.236182 0.301708 0.230464
v -0.116120 0.428623 0.767738
v -0.134588 0.565952 0.728910
v -0.190397 0.543281 0.722528
v -0.183583 0.506858 0.738454
v -0.117316 0.533779 0.746033
v -0.171870 0.573059 0.742163
v -0.145408 0.510148 0.734267
v -0.163428 0.558902 0.718666
v -0.198162 0.509696 0.774258
v -0.171034 0.463129 0.786441
v -0.105237 0.489859 0.793970
v -0.116061 0.543050 0.783650
v -0.157725 0.526126 0.785195
v -0.126188 0.445098 0.797242
v -0.169099 0.559950 0.764498
v -0.139270 0.575211 0.755252
v -0.198640 0.551092 0.748462
v -0.112657 0.425989 0.761743
v -0.209342 0.481012 0.732921
v -0.225680 0.436856 0.744030
v -0.198157 0.424562 0.755378
v -0.178759 0.476993 0.742188
v -0.230601 0.467358 0.752727
v -0.181132 0.446303 0.741779
v -0.221640 0.459156 0.733290
v -0.201641 0.426058 0.786101
v -0.158282 0.418608 0.789482
v -0.139021 0.470668 0.776388
v -0.177608 0.491018 0.769760
v -0.188803 0.459456 0.782788
v -0.122868 0.435880 0.786049
v -0.217895 0.466797 0.769184
v -0.213027 0.489274 0.753641
v -0.230407 0.442300 0.765459
v 0.051326 -0.008989 -0.216456
v 0.174229 0.060779 -0.277483
v 0.127873 0.105344 -0.285485
v 0.096613 0.085660 -0.263195
v 0.151657 0.032744 -0.253693
v 0.166672 0.101869 -0.267289
v 0.115567 0.049093 -0.265127
v 0.154186 0.084868 -0.289599
v 0.096587 0.105541 -0.226806
v 0.063635 0.061318 -0.205544
v 0.118290 0.008779 -0.196106
v 0.164785 0.039982 -0.215031
v 0.130771 0.074033 -0.214327
v 0.065957 0.011302 -0.188226
v 0.157114 0.096527 -0.241668
v 0.183779 0.072433 -0.251211
v 0.134463 0.119841 -0.259724
v 0.085147 0.042362 0.831127
v 0.194190 -0.031503 0.773147
v 0.207683 0.025465 0.757596
v 0.178916 0.044114 0.778841
v 0.162895 -0.023530 0.797308
v 0.224508 -0.005400 0.777081
v 0.158229 0.011815 0.782647
v 0.203227 -0.005621 0.757824
v 0.197744 0.057316 0.810046
v 0.148355 0.065944 0.833265
v 0.132449 -0.001221 0.851605
v 0.177896 -0.026492 0.832927
v 0.189398 0.016661 0.827431
v 0.110544 0.043023 0.855577
v 0.217725 0.002705 0.800886
v 0.210100 -0.030930 0.796559
v 0.224453 0.029675 0.780014
v 0.079715 0.040680 0.826380
v 0.172570 0.079614 0.770988
v 0.150212 0.120652 0.783480
v 0.127117 0.107809 0.801893
v 0.153665 0.059080 0.787060
v 0.178829 0.106601 0.787209
v 0.131039 0.079773 0.789806
v 0.162804 0.102714 0.771289
v 0.137268 0.112653 0.830733
v 0.106893 0.083654 0.844273
v 0.133254 0.035270 0.829547
v 0.170160 0.052281 0.812357
v 0.155048 0.081740 0.826321
v 0.098888 0.044988 0.846547
v 0.174690 0.098635 0.805972
v 0.185849 0.079465 0.789285
v 0.162064 0.123122 0.802575
v -0.054339 0.101586 1.328611
v -0.159983 0.125828 1.296394
v -0.163478 0.079922 1.308478
v -0.134433 0.076283 1.320625
v -0.130284 0.130793 1.306278
v -0.176840 0.107562 1.315889
v -0.123998 0.101168 1.306869
v -0.165535 0.101797 1.297244
v -0.139042 0.077547 1.350707
v -0.096162 0.082671 1.355185
v -0.092043 0.136795 1.340942
v -0.133902 0.145082 1.332932
v -0.136095 0.112539 1.346582
v -0.067436 0.108727 1.351959
v -0.165181 0.111008 1.332353
v -0.166364 0.133152 1.316409
v -0.170081 0.084316 1.329262
v 0.000079 0.539475 0.512475
v 0.000079 0.520867 0.819032
v 0.107764 0.504486 0.512475
v 0.096826 0.489432 0.810897
v 0.174316 0.412884 0.512476
v 0.156619 0.407134 0.798158
v 0.174316 0.299658 0.512476
v 0.156619 0.305409 0.798158
v 0.107764 0.208057 0.512476
v 0.096826 0.223111 0.811768
v 0.000079 0.173068 0.512476
v 0.000079 0.191675 0.725099
v -0.107605 0.208057 0.512476
v -0.096668 0.223111 0.734151
v -0.174157 0.299658 0.512476
v -0.156461 0.305408 0.758073
v -0.174157 0.412884 0.512476
v -0.156461 0.407134 0.798158
v -0.107605 0.504486 0.512475
v -0.096668 0.489432 0.810897
v -0.107605 0.124007 -0.018978
v -0.096668 0.139061 0.142378
v -0.150882 0.218841 -0.018978
v -0.133185 0.224591 0.161319
v -0.145063 0.324955 -0.018978
v -0.127366 0.319205 0.178129
v -0.096614 0.419790 -0.018978
v -0.085676 0.404736 0.191739
v 0.000079 0.460597 -0.018978
v 0.000079 0.441990 0.193646
v 0.097419 0.415911 -0.018978
v 0.079343 0.397287 0.202697
v 0.150394 0.319783 -0.018978
v 0.124369 0.311058 0.226619
v 0.162032 0.216255 -0.018978
v 0.144335 0.222005 0.266705
v -0.016476 0.003925 1.137728
v 0.013370 0.039030 1.272949
v -0.057833 0.059061 1.165880
v -0.037102 0.078012 1.303379
v -0.117771 0.131091 1.215732
v -0.084577 0.121238 1.359650
v -0.095816 0.196627 1.275597
v -0.068761 0.167995 1.400562
v -0.007748 0.226677 1.345551
v -0.011027 0.193993 1.472069
v 0.071295 0.203656 1.381576
v 0.036712 0.176559 1.505388
v 0.109273 0.172365 1.421743
v 0.062861 0.153967 1.551836
vt 0.824993 0.541673
vt 0.825169 0.541209
vt 0.826427 0.589509
vt 0.825716 0.591123
vt 0.823187 0.542158
vt 0.821945 0.542253
vt 0.821360 0.541716
vt 0.818619 0.541454
vt 0.820576 0.591183
vt 0.817158 0.589858
vt 0.821301 0.590056
vt 0.818439 0.587580
vt 0.823105 0.589572
vt 0.821697 0.586533
vt 0.824934 0.590014
vt 0.825001 0.587331
vt 0.816690 0.541691
vt 0.816868 0.589797
vt 0.814674 0.542801
vt 0.811920 0.541914
vt 0.810156 0.590119
vt 0.810490 0.587664
vt 0.812601 0.586530
vt 0.815201 0.587410
vt 0.806774 0.544258
vt 0.805071 0.592871
vt 0.806292 0.545069
vt 0.803839 0.544297
vt 0.800926 0.592978
vt 0.799295 0.591046
vt 0.799820 0.590181
vt 0.802202 0.590926
vt 0.799896 0.550432
vt 0.796974 0.599947
vt 0.799971 0.550908
vt 0.797138 0.550607
vt 0.793022 0.600293
vt 0.790092 0.599245
vt 0.790041 0.598680
vt 0.792892 0.598971
vt 0.798124 0.561185
vt 0.794863 0.611571
vt 0.798321 0.561666
vt 0.795343 0.562156
vt 0.790932 0.612945
vt 0.787672 0.612754
vt 0.787476 0.612273
vt 0.790453 0.611783
vt 0.802217 0.571102
vt 0.799112 0.621945
vt 0.802773 0.572046
vt 0.800455 0.573645
vt 0.796623 0.625541
vt 0.793520 0.625807
vt 0.792965 0.624863
vt 0.795282 0.623264
vt 0.809793 0.575555
vt 0.806854 0.626541
vt 0.811419 0.577037
vt 0.810776 0.579542
vt 0.808245 0.632179
vt 0.805305 0.632588
vt 0.803680 0.631106
vt 0.804321 0.628601
vt 0.818624 0.575487
vt 0.815533 0.626514
vt 0.821611 0.577016
vt 0.822742 0.579628
vt 0.821356 0.632371
vt 0.818264 0.632821
vt 0.815279 0.631292
vt 0.814146 0.628679
vt 0.826023 0.571700
vt 0.822554 0.622929
vt 0.830046 0.572776
vt 0.832266 0.574950
vt 0.831381 0.627525
vt 0.827911 0.628177
vt 0.823889 0.627101
vt 0.821671 0.624927
vt 0.829020 0.564978
vt 0.825346 0.616505
vt 0.833441 0.565509
vt 0.836023 0.567209
vt 0.835253 0.619660
vt 0.831581 0.620609
vt 0.827158 0.620078
vt 0.824575 0.618379
vt 0.829033 0.557155
vt 0.825333 0.608852
vt 0.833508 0.557422
vt 0.836136 0.558920
vt 0.835377 0.611349
vt 0.831676 0.612469
vt 0.827202 0.612202
vt 0.824574 0.610704
vt 0.828358 0.550061
vt 0.824734 0.602000
vt 0.832756 0.550080
vt 0.835356 0.551469
vt 0.834629 0.603992
vt 0.831003 0.605354
vt 0.826605 0.605335
vt 0.824007 0.603946
vt 0.825275 0.544537
vt 0.822145 0.597022
vt 0.829178 0.544007
vt 0.831564 0.545166
vt 0.831038 0.597911
vt 0.827906 0.599819
vt 0.824005 0.600350
vt 0.821619 0.599191
vt 0.817249 0.541129
vt 0.815475 0.594160
vt 0.819855 0.540049
vt 0.821766 0.540975
vt 0.821865 0.593943
vt 0.820091 0.596397
vt 0.817486 0.597478
vt 0.815575 0.596551
vt 0.803270 0.540390
vt 0.803328 0.593510
vt 0.804628 0.539192
vt 0.806604 0.540041
vt 0.808043 0.593016
vt 0.808100 0.595559
vt 0.806742 0.596757
vt 0.804766 0.595909
vt 0.793587 0.543125
vt 0.795073 0.595873
vt 0.794537 0.541985
vt 0.797367 0.542545
vt 0.800417 0.595054
vt 0.801905 0.597226
vt 0.800953 0.598366
vt 0.798124 0.597805
vt 0.786440 0.549310
vt 0.788631 0.601579
vt 0.787317 0.548214
vt 0.790747 0.548356
vt 0.794724 0.600230
vt 0.796913 0.601923
vt 0.796036 0.603019
vt 0.792604 0.602877
vt 0.781265 0.558009
vt 0.783730 0.609892
vt 0.782093 0.556998
vt 0.785725 0.556876
vt 0.790035 0.608290
vt 0.792498 0.609596
vt 0.791672 0.610606
vt 0.788040 0.610728
vt 0.777908 0.568671
vt 0.780489 0.620216
vt 0.778692 0.567793
vt 0.782381 0.567518
vt 0.786814 0.618585
vt 0.789394 0.619552
vt 0.788609 0.620430
vt 0.784922 0.620705
vt 0.776468 0.580768
vt 0.779091 0.631998
vt 0.777233 0.580028
vt 0.780937 0.579634
vt 0.785410 0.630395
vt 0.788033 0.631049
vt 0.787268 0.631789
vt 0.783564 0.632182
vt 0.777081 0.593590
vt 0.779690 0.644543
vt 0.777845 0.592928
vt 0.781536 0.592368
vt 0.785990 0.642816
vt 0.788597 0.643193
vt 0.787830 0.643855
vt 0.784143 0.644414
vt 0.780088 0.606002
vt 0.782608 0.656661
vt 0.780846 0.605331
vt 0.784431 0.604465
vt 0.788748 0.654488
vt 0.791267 0.654570
vt 0.790510 0.655240
vt 0.786924 0.656106
vt 0.786331 0.616721
vt 0.788525 0.666961
vt 0.786999 0.615950
vt 0.790133 0.614522
vt 0.793900 0.663852
vt 0.796093 0.663515
vt 0.795429 0.664287
vt 0.792292 0.665714
vt 0.797178 0.624147
vt 0.798481 0.673889
vt 0.797480 0.623199
vt 0.799210 0.621024
vt 0.801353 0.669473
vt 0.802656 0.668638
vt 0.802353 0.669586
vt 0.800625 0.671761
vt 0.812254 0.625997
vt 0.812332 0.675565
vt 0.811729 0.624986
vt 0.811064 0.622546
vt 0.810652 0.670685
vt 0.810730 0.669676
vt 0.811255 0.670687
vt 0.811918 0.673127
vt 0.825308 0.622205
vt 0.824751 0.671873
vt 0.823807 0.621451
vt 0.821133 0.619477
vt 0.818846 0.668015
vt 0.818291 0.667107
vt 0.819788 0.667860
vt 0.822466 0.669835
vt 0.835455 0.614925
vt 0.834839 0.664592
vt 0.833279 0.614596
vt 0.829586 0.613220
vt 0.826542 0.662181
vt 0.825926 0.661270
vt 0.828102 0.661599
vt 0.831795 0.662975
vt 0.843380 0.605890
vt 0.842909 0.655385
vt 0.840797 0.605989
vt 0.836676 0.605046
vt 0.833427 0.654192
vt 0.832954 0.653111
vt 0.835537 0.653012
vt 0.839659 0.653954
vt 0.849483 0.596361
vt 0.849216 0.645535
vt 0.846605 0.596911
vt 0.842270 0.596287
vt 0.839016 0.645430
vt 0.838749 0.644027
vt 0.841625 0.643477
vt 0.845963 0.644101
vt 0.853722 0.587296
vt 0.853624 0.636086
vt 0.850624 0.588350
vt 0.846148 0.588055
vt 0.842916 0.637159
vt 0.842817 0.635373
vt 0.845915 0.634318
vt 0.850391 0.634614
vt 0.854891 0.578643
vt 0.854837 0.627142
vt 0.851734 0.580175
vt 0.847218 0.580264
vt 0.843992 0.629435
vt 0.843939 0.627357
vt 0.847095 0.625824
vt 0.851610 0.625735
vt 0.851580 0.570369
vt 0.851467 0.618695
vt 0.848581 0.572295
vt 0.844233 0.572769
vt 0.841078 0.622089
vt 0.840965 0.619838
vt 0.843964 0.617912
vt 0.848314 0.617439
vt 0.843250 0.563384
vt 0.842991 0.611592
vt 0.840708 0.565656
vt 0.836853 0.566499
vt 0.833944 0.615997
vt 0.833685 0.613628
vt 0.836226 0.611356
vt 0.840080 0.610513
vt 0.829500 0.558788
vt 0.828863 0.606919
vt 0.827953 0.561324
vt 0.825127 0.562464
vt 0.822678 0.612117
vt 0.822039 0.609671
vt 0.823586 0.607135
vt 0.826412 0.605995
vt 0.811369 0.558322
vt 0.809551 0.606545
vt 0.811575 0.560795
vt 0.810051 0.561938
vt 0.807686 0.611658
vt 0.805870 0.609304
vt 0.805662 0.606831
vt 0.807188 0.605688
vt 0.794285 0.565775
vt 0.790846 0.614665
vt 0.796156 0.567615
vt 0.795362 0.568531
vt 0.792372 0.618563
vt 0.788935 0.616876
vt 0.787064 0.615036
vt 0.787857 0.614120
vt 0.783085 0.581360
vt 0.778820 0.631092
vt 0.785660 0.582518
vt 0.785034 0.583310
vt 0.781576 0.633850
vt 0.777311 0.633005
vt 0.774736 0.631848
vt 0.775360 0.631055
vt 0.778332 0.600350
vt 0.773876 0.650749
vt 0.781057 0.601034
vt 0.780449 0.601823
vt 0.776867 0.652832
vt 0.772409 0.652654
vt 0.769686 0.651970
vt 0.770292 0.651181
vt 0.780092 0.616882
vt 0.775925 0.668137
vt 0.782648 0.617049
vt 0.782097 0.617962
vt 0.778761 0.669664
vt 0.774593 0.670342
vt 0.772038 0.670176
vt 0.772589 0.669262
vt 0.789217 0.626343
vt 0.786470 0.678730
vt 0.790955 0.625857
vt 0.790663 0.626980
vt 0.788513 0.679631
vt 0.785765 0.681442
vt 0.784027 0.681928
vt 0.784321 0.680805
vt 0.810177 0.630416
vt 0.809917 0.683369
vt 0.810455 0.629598
vt 0.810595 0.630815
vt 0.810511 0.683933
vt 0.810253 0.686309
vt 0.809973 0.687127
vt 0.809834 0.685910
vt 0.828167 0.628017
vt 0.830256 0.680648
vt 0.827162 0.627356
vt 0.827829 0.628475
vt 0.829779 0.681296
vt 0.831867 0.683350
vt 0.832872 0.684011
vt 0.832205 0.682892
vt 0.840096 0.620231
vt 0.843700 0.671990
vt 0.838425 0.619915
vt 0.839668 0.620652
vt 0.843094 0.672586
vt 0.846699 0.673768
vt 0.848368 0.674083
vt 0.847128 0.673347
vt 0.845543 0.608369
vt 0.849695 0.659262
vt 0.843714 0.608240
vt 0.845284 0.608373
vt 0.849333 0.659267
vt 0.853487 0.659583
vt 0.855314 0.659712
vt 0.853745 0.659580
vt 0.844259 0.594107
vt 0.848452 0.644447
vt 0.842419 0.593991
vt 0.844007 0.593590
vt 0.848095 0.643716
vt 0.852287 0.643480
vt 0.854128 0.643595
vt 0.852539 0.643996
vt 0.839804 0.581643
vt 0.843895 0.631673
vt 0.837967 0.581529
vt 0.839458 0.580820
vt 0.843409 0.630510
vt 0.847500 0.629963
vt 0.849339 0.630077
vt 0.847843 0.630786
vt 0.834082 0.571333
vt 0.837843 0.620941
vt 0.832293 0.571279
vt 0.833523 0.570233
vt 0.837053 0.619384
vt 0.840813 0.618415
vt 0.842604 0.618470
vt 0.841372 0.619516
vt 0.826536 0.564782
vt 0.829248 0.613739
vt 0.824896 0.564821
vt 0.825289 0.563257
vt 0.827484 0.611583
vt 0.830194 0.609963
vt 0.831833 0.609924
vt 0.831442 0.611488
vt 0.815563 0.562939
vt 0.816494 0.611562
vt 0.814108 0.563039
vt 0.812975 0.561227
vt 0.812832 0.609142
vt 0.813761 0.607188
vt 0.815218 0.607088
vt 0.816351 0.608900
vt 0.800714 0.566297
vt 0.800249 0.615159
vt 0.798994 0.566546
vt 0.796095 0.565185
vt 0.793716 0.613586
vt 0.793251 0.611871
vt 0.794971 0.611622
vt 0.797869 0.612984
vt 0.793879 0.572377
vt 0.792921 0.621582
vt 0.791636 0.573303
vt 0.787504 0.573241
vt 0.783911 0.622803
vt 0.782953 0.621431
vt 0.785196 0.620505
vt 0.789328 0.620568
vt 0.797445 0.579679
vt 0.796370 0.628921
vt 0.795496 0.581538
vt 0.791664 0.582832
vt 0.788195 0.633379
vt 0.787119 0.632043
vt 0.789066 0.630184
vt 0.792898 0.628891
vt 0.808102 0.585598
vt 0.806431 0.634612
vt 0.807373 0.588113
vt 0.804678 0.590105
vt 0.801586 0.640986
vt 0.799917 0.639423
vt 0.800644 0.636909
vt 0.803341 0.634916
vt 0.821098 0.586267
vt 0.818098 0.635303
vt 0.822298 0.588805
vt 0.820993 0.590855
vt 0.817949 0.641791
vt 0.814951 0.640250
vt 0.813751 0.637712
vt 0.815056 0.635662
vt 0.831284 0.579473
vt 0.827154 0.629173
vt 0.833889 0.581253
vt 0.833439 0.582892
vt 0.830200 0.634008
vt 0.826071 0.633130
vt 0.823465 0.631350
vt 0.823915 0.629711
vt 0.833799 0.572183
vt 0.829370 0.622770
vt 0.836750 0.573245
vt 0.836493 0.574759
vt 0.833183 0.626413
vt 0.828754 0.626423
vt 0.825804 0.625361
vt 0.826059 0.623848
vt 0.830753 0.566082
vt 0.826818 0.617532
vt 0.833626 0.566829
vt 0.833750 0.568759
vt 0.831055 0.621317
vt 0.827118 0.622190
vt 0.824247 0.621443
vt 0.824121 0.619513
vt 0.822441 0.563136
vt 0.819529 0.615028
vt 0.825388 0.563854
vt 0.826643 0.566185
vt 0.825474 0.619340
vt 0.822561 0.620655
vt 0.819614 0.619937
vt 0.818359 0.617607
vt 0.810284 0.565118
vt 0.808073 0.617015
vt 0.813616 0.565763
vt 0.816120 0.567995
vt 0.816324 0.621083
vt 0.814116 0.622404
vt 0.810783 0.621759
vt 0.808281 0.619527
vt 0.796860 0.571945
vt 0.794659 0.623932
vt 0.800787 0.572223
vt 0.804140 0.574027
vt 0.804953 0.626877
vt 0.802752 0.628287
vt 0.798824 0.628009
vt 0.795471 0.626205
vt 0.791746 0.579295
vt 0.789396 0.631782
vt 0.796013 0.578769
vt 0.799698 0.579935
vt 0.800640 0.632687
vt 0.798290 0.634597
vt 0.794024 0.635123
vt 0.790339 0.633957
vt 0.797060 0.584396
vt 0.795311 0.637449
vt 0.800657 0.583147
vt 0.803997 0.583856
vt 0.805119 0.636685
vt 0.803370 0.639161
vt 0.799770 0.640410
vt 0.796434 0.639701
vt 0.807388 0.586116
vt 0.806879 0.639342
vt 0.809961 0.584663
vt 0.813087 0.585256
vt 0.814939 0.638126
vt 0.814430 0.640775
vt 0.811857 0.642228
vt 0.808729 0.641634
vt 0.816973 0.584071
vt 0.817917 0.636851
vt 0.818794 0.582792
vt 0.822319 0.583186
vt 0.825480 0.635598
vt 0.826424 0.637800
vt 0.824600 0.639079
vt 0.821077 0.638686
vt 0.823200 0.580356
vt 0.824232 0.631680
vt 0.824081 0.579778
vt 0.826353 0.579707
vt 0.828690 0.630762
vt 0.829721 0.631509
vt 0.828840 0.632088
vt 0.826569 0.632158
vt 0.826769 0.628899
vt 0.823015 0.591464
vt 0.818786 0.597821
vt 0.791407 0.611720
vt 0.783538 0.574219
vt 0.822722 0.596172
vt 0.836311 0.625618
vt 0.833181 0.624338
vt 0.791505 0.533743
vt 0.783538 0.574219
vt 0.818786 0.597821
vt 0.818130 0.557458
vt 0.793698 0.564275
vt 0.795845 0.639297
vt 0.791407 0.641291
vt 0.783538 0.603789
vt 0.817982 0.644544
vt 0.812203 0.639889
vt 0.833181 0.624338
vt 0.812203 0.639889
vt 0.794659 0.663567
vt 0.790221 0.665561
vt 0.811017 0.693730
vt 0.809405 0.692519
vt 0.791407 0.611720
vt 0.782351 0.628060
vt 0.792512 0.588546
vt 0.816796 0.698385
vt 0.817982 0.674114
vt 0.812203 0.669459
vt 0.810591 0.668248
vt 0.790318 0.587584
vt 0.791505 0.563313
vt 0.816476 0.525524
vt 0.818786 0.597821
vt 0.791407 0.611720
vt 0.783538 0.574219
vt 0.822722 0.596172
vt 0.836311 0.625618
vt 0.833181 0.624338
vt 0.791505 0.533743
vt 0.783538 0.574219
vt 0.818786 0.597821
vt 0.818130 0.557458
vt 0.793698 0.564275
vt 0.795845 0.639297
vt 0.791407 0.641291
vt 0.783538 0.603789
vt 0.817982 0.644544
vt 0.812203 0.639889
vt 0.833181 0.624338
vt 0.812203 0.639889
vt 0.794659 0.663567
vt 0.790221 0.665561
vt 0.811017 0.693730
vt 0.809405 0.692519
vt 0.791407 0.611720
vt 0.782351 0.628060
vt 0.792512 0.588546
vt 0.816796 0.698385
vt 0.817982 0.674114
vt 0.812203 0.669459
vt 0.810591 0.668248
vt 0.790318 0.587584
vt 0.791505 0.563313
vt 0.816476 0.525524
vt 0.818786 0.597821
vt 0.791407 0.611720
vt 0.783538 0.574219
vt 0.822722 0.596172
vt 0.836311 0.625618
vt 0.833181 0.624338
vt 0.791505 0.533743
vt 0.783538 0.574219
vt 0.818786 0.597821
vt 0.818130 0.557458
vt 0.793698 0.564275
vt 0.795845 0.639297
vt 0.791407 0.641291
vt 0.783538 0.603789
vt 0.817982 0.644544
vt 0.812203 0.639889
vt 0.833181 0.624338
vt 0.812203 0.639889
vt 0.794659 0.663567
vt 0.790221 0.665561
vt 0.811017 0.693730
vt 0.809405 0.692519
vt 0.791407 0.611720
vt 0.782351 0.628060
vt 0.792512 0.588546
vt 0.816796 0.698385
vt 0.817982 0.674114
vt 0.812203 0.669459
vt 0.810591 0.668248
vt 0.790318 0.587584
vt 0.791505 0.563313
vt 0.816476 0.525524
vt 0.818786 0.597821
vt 0.791407 0.611720
vt 0.783538 0.574219
vt 0.822722 0.596172
vt 0.836311 0.625618
vt 0.833181 0.624338
vt 0.791505 0.533743
vt 0.783538 0.574219
vt 0.818786 0.597821
vt 0.818130 0.557458
vt 0.793698 0.564275
vt 0.795845 0.639297
vt 0.791407 0.641291
vt 0.783538 0.603789
vt 0.817982 0.644544
vt 0.812203 0.639889
vt 0.833181 0.624338
vt 0.812203 0.639889
vt 0.794659 0.663567
vt 0.790221 0.665561
vt 0.811017 0.693730
vt 0.809405 0.692519
vt 0.791407 0.611720
vt 0.782351 0.628060
vt 0.792512 0.588546
vt 0.816796 0.698385
vt 0.817982 0.674114
vt 0.812203 0.669459
vt 0.810591 0.668248
vt 0.790318 0.587584
vt 0.791505 0.563313
vt 0.816476 0.525524
vt 0.818786 0.597821
vt 0.791407 0.611720
vt 0.783538 0.574219
vt 0.822722 0.596172
vt 0.836311 0.625618
vt 0.833181 0.624338
vt 0.791505 0.533743
vt 0.783538 0.574219
vt 0.818786 0.597821
vt 0.818130 0.557458
vt 0.793698 0.564275
vt 0.795845 0.639297
vt 0.791407 0.641291
vt 0.783538 0.603789
vt 0.817982 0.644544
vt 0.812203 0.639889
vt 0.833181 0.624338
vt 0.812203 0.639889
vt 0.794659 0.663567
vt 0.790221 0.665561
vt 0.811017 0.693730
vt 0.809405 0.692519
vt 0.791407 0.611720
vt 0.782351 0.628060
vt 0.792512 0.588546
vt 0.816796 0.698385
vt 0.817982 0.674114
vt 0.812203 0.669459
vt 0.810591 0.668248
vt 0.790318 0.587584
vt 0.791505 0.563313
vt 0.816476 0.525524
vt 0.818786 0.597821
vt 0.791407 0.611720
vt 0.783538 0.574219
vt 0.822722 0.596172
vt 0.836311 0.625618
vt 0.833181 0.624338
vt 0.791505 0.533743
vt 0.783538 0.574219
vt 0.818786 0.597821
vt 0.818130 0.557458
vt 0.793698 0.564275
vt 0.795845 0.639297
vt 0.791407 0.641291
vt 0.783538 0.603789
vt 0.817982 0.644544
vt 0.812203 0.639889
vt 0.833181 0.624338
vt 0.812203 0.639889
vt 0.794659 0.663567
vt 0.790221 0.665561
vt 0.811017 0.693730
vt 0.809405 0.692519
vt 0.791407 0.611720
vt 0.782351 0.628060
vt 0.792512 0.588546
vt 0.816796 0.698385
vt 0.817982 0.674114
vt 0.812203 0.669459
vt 0.810591 0.668248
vt 0.790318 0.587584
vt 0.791505 0.563313
vt 0.816476 0.525524
vt 0.818786 0.597821
vt 0.791407 0.611720
vt 0.783538 0.574219
vt 0.822722 0.596172
vt 0.836311 0.625618
vt 0.833181 0.624338
vt 0.791505 0.533743
vt 0.783538 0.574219
vt 0.818786 0.597821
vt 0.818130 0.557458
vt 0.793698 0.564275
vt 0.795845 0.639297
vt 0.791407 0.641291
vt 0.783538 0.603789
vt 0.817982 0.644544
vt 0.812203 0.639889
vt 0.833181 0.624338
vt 0.812203 0.639889
vt 0.794659 0.663567
vt 0.790221 0.665561
vt 0.811017 0.693730
vt 0.809405 0.692519
vt 0.791407 0.611720
vt 0.782351 0.628060
vt 0.792512 0.588546
vt 0.816796 0.698385
vt 0.817982 0.674114
vt 0.812203 0.669459
vt 0.810591 0.668248
vt 0.790318 0.587584
vt 0.791505 0.563313
vt 0.816476 0.525524
vt 0.200000 0.795402
vt 0.200000 0.017101
vt 0.300000 0.017101
vt 0.300000 0.795402
vt 0.400000 0.017101
vt 0.400000 0.795402
vt 0.500000 0.017101
vt 0.500000 0.795402
vt 0.600000 0.017101
vt 0.600000 0.795402
vt 0.700000 0.017101
vt 0.700000 0.795402
vt 0.800000 0.017101
vt 0.800000 0.795402
vt 0.900000 0.017101
vt 0.900000 0.795402
vt 1.000000 0.017101
vt 1.000000 0.795402
vt 0.000000 0.795402
vt 0.000000 0.017101
vt 0.100000 0.017101
vt 0.100000 0.795402
vt 0.008157 0.795402
vt 0.008157 0.017101
vt 0.148808 0.017101
vt 0.148808 0.795402
vt 0.289458 0.017101
vt 0.289458 0.795402
vt 0.430109 0.017101
vt 0.430109 0.795402
vt 0.570760 0.017101
vt 0.570760 0.795402
vt 0.711411 0.017101
vt 0.711411 0.795402
vt 0.852062 0.017101
vt 0.852062 0.795402
vt 0.992712 0.017101
vt 0.992712 0.795402
vt 0.010363 0.748100
vt 0.010363 0.153712
vt 0.174188 0.153712
vt 0.174188 0.748100
vt 0.338013 0.153712
vt 0.338013 0.748100
vt 0.501837 0.153712
vt 0.501838 0.748100
vt 0.665662 0.153712
vt 0.665663 0.748100
vt 0.829487 0.153711
vt 0.829488 0.748100
vt 0.993313 0.153711
vt 0.993313 0.748100
vn 0.6959 0.6787 -0.2348
vn 0.7470 0.6150 0.2527
vn 0.9501 -0.0969 0.2965
vn 0.9426 0.0537 -0.3295
vn 0.0537 0.9730 -0.2246
vn 0.1359 0.9907 0.0048
vn -0.6036 0.7347 -0.3096
vn -0.5420 0.7867 -0.2954
vn -0.8846 0.1124 -0.4525
vn -0.8602 0.0752 -0.5044
vn -0.6133 -0.5462 -0.5705
vn -0.5693 -0.6817 -0.4595
vn 0.0638 -0.8193 -0.5698
vn 0.0819 -0.9762 -0.2007
vn 0.6954 -0.5500 -0.4625
vn 0.6788 -0.7270 0.1041
vn 0.6315 0.5853 0.5086
vn 0.6309 -0.1505 0.7611
vn 0.2508 0.9669 -0.0473
vn -0.2713 0.7726 -0.5741
vn -0.6409 0.0715 -0.7643
vn -0.5743 -0.6776 -0.4594
vn -0.1667 -0.9828 0.0799
vn 0.2995 -0.7725 0.5599
vn 0.6902 0.4836 0.5383
vn 0.3611 -0.1252 0.9241
vn 0.5780 0.7927 -0.1939
vn 0.0968 0.5903 -0.8014
vn -0.4536 0.0110 -0.8911
vn -0.7013 -0.5575 -0.4443
vn -0.5660 -0.7966 0.2124
vn -0.1562 -0.6327 0.7585
vn 0.8541 0.2155 0.4734
vn 0.2935 -0.0809 0.9525
vn 0.8764 0.3707 -0.3075
vn 0.3362 0.2940 -0.8948
vn -0.4075 0.0310 -0.9127
vn -0.8784 -0.2470 -0.4092
vn -0.8739 -0.3913 0.2883
vn -0.4192 -0.3308 0.8455
vn 0.9050 -0.1305 0.4048
vn 0.3218 -0.1740 0.9307
vn 0.9302 -0.0132 -0.3668
vn 0.3761 0.1276 -0.9177
vn -0.3928 0.1898 -0.8998
vn -0.9113 0.1388 -0.3877
vn -0.9465 0.0142 0.3223
vn -0.4602 -0.1172 0.8800
vn 0.7810 -0.5569 0.2829
vn 0.2204 -0.4728 0.8531
vn 0.8344 -0.2825 -0.4732
vn 0.3719 0.1763 -0.9114
vn -0.2760 0.5168 -0.8104
vn -0.7606 0.5773 -0.2969
vn -0.8623 0.3405 0.3750
vn -0.4807 -0.0935 0.8719
vn 0.4057 -0.9139 -0.0116
vn -0.1183 -0.7903 0.6012
vn 0.6651 -0.4341 -0.6076
vn 0.5084 0.2945 -0.8092
vn 0.0799 0.8240 -0.5610
vn -0.3796 0.9244 -0.0368
vn -0.6548 0.5502 0.5182
vn -0.5661 -0.1554 0.8096
vn 0.0275 -0.9386 -0.3438
vn -0.5165 -0.8265 0.2240
vn 0.5575 -0.4631 -0.6890
vn 0.7328 0.2793 -0.6205
vn 0.4969 0.8388 -0.2226
vn 0.0091 0.9590 0.2832
vn -0.4988 0.5668 0.6557
vn -0.7346 -0.1841 0.6530
vn -0.1425 -0.8043 -0.5768
vn -0.7629 -0.6355 -0.1187
vn 0.5563 -0.4790 -0.6790
vn 0.9117 0.1205 -0.3927
vn 0.7627 0.6396 0.0956
vn 0.2111 0.8194 0.5329
vn -0.4765 0.5479 0.6876
vn -0.9037 -0.0639 0.4234
vn -0.2042 -0.6888 -0.6956
vn -0.8398 -0.4271 -0.3351
vn 0.5518 -0.5337 -0.6408
vn 0.9736 -0.0664 -0.2184
vn 0.8443 0.4311 0.3182
vn 0.2444 0.6903 0.6810
vn -0.5106 0.5565 0.6554
vn -0.9690 0.0908 0.2299
vn -0.2188 -0.6474 -0.7301
vn -0.8463 -0.3421 -0.4084
vn 0.5374 -0.5714 -0.6203
vn 0.9751 -0.1624 -0.1507
vn 0.8497 0.3393 0.4037
vn 0.2296 0.6463 0.7277
vn -0.5297 0.5731 0.6253
vn -0.9748 0.1624 0.1532
vn -0.1994 -0.6518 -0.7317
vn -0.8348 -0.2873 -0.4697
vn 0.5426 -0.6337 -0.5514
vn 0.9632 -0.2614 -0.0629
vn 0.8506 0.2567 0.4589
vn 0.2467 0.6369 0.7304
vn -0.5163 0.6343 0.5754
vn -0.9663 0.2456 0.0774
vn -0.1695 -0.6732 -0.7198
vn -0.7476 -0.1456 -0.6480
vn 0.4803 -0.7958 -0.3686
vn 0.8548 -0.4906 0.1691
vn 0.7813 0.0731 0.6199
vn 0.2712 0.6119 0.7430
vn -0.4222 0.7968 0.4323
vn -0.8635 0.4801 -0.1547
vn -0.1952 -0.6944 -0.6926
vn -0.5234 0.0020 -0.8521
vn 0.2350 -0.9600 -0.1521
vn 0.5336 -0.7143 0.4528
vn 0.5515 -0.0882 0.8295
vn 0.2529 0.6045 0.7554
vn -0.2015 0.9524 0.2286
vn -0.5282 0.7139 -0.4597
vn -0.3930 -0.6762 -0.6231
vn -0.3985 0.0180 -0.9170
vn -0.1658 -0.9861 -0.0027
vn 0.1508 -0.7760 0.6124
vn 0.3877 -0.1338 0.9120
vn 0.3911 0.6182 0.6818
vn 0.1572 0.9876 0.0026
vn -0.1676 0.7188 -0.6747
vn -0.7156 -0.5163 -0.4705
vn -0.4864 0.0654 -0.8713
vn -0.5574 -0.8124 0.1710
vn -0.1038 -0.6810 0.7249
vn 0.4240 -0.1622 0.8910
vn 0.7168 0.4758 0.5097
vn 0.5512 0.8069 -0.2125
vn 0.0358 0.6211 -0.7829
vn -0.8965 -0.2856 -0.3388
vn -0.5403 0.1680 -0.8245
vn -0.7519 -0.5732 0.3256
vn -0.1889 -0.5448 0.8171
vn 0.5015 -0.2026 0.8411
vn 0.8999 0.2566 0.3527
vn 0.7531 0.5595 -0.3463
vn 0.1479 0.5266 -0.8371
vn -0.9517 -0.1417 -0.2723
vn -0.5473 0.2113 -0.8098
vn -0.8125 -0.4104 0.4140
vn -0.2132 -0.4476 0.8685
vn 0.5173 -0.2275 0.8250
vn 0.9482 0.1271 0.2910
vn 0.8118 0.4068 -0.4188
vn 0.1863 0.4425 -0.8772
vn -0.9713 -0.0447 -0.2336
vn -0.5461 0.2183 -0.8088
vn -0.8370 -0.2798 0.4702
vn -0.2268 -0.3557 0.9066
vn 0.5191 -0.2274 0.8239
vn 0.9662 0.0353 0.2552
vn 0.8382 0.2783 -0.4691
vn 0.2061 0.3544 -0.9121
vn -0.9771 0.0380 -0.2094
vn -0.5442 0.2164 -0.8106
vn -0.8465 -0.1612 0.5074
vn -0.2326 -0.2683 0.9348
vn 0.5202 -0.2209 0.8250
vn 0.9726 -0.0432 0.2284
vn 0.8467 0.1608 -0.5072
vn 0.2133 0.2687 -0.9393
vn -0.9732 0.1305 -0.1893
vn -0.5435 0.2345 -0.8060
vn -0.8456 -0.0477 0.5317
vn -0.2338 -0.1992 0.9517
vn 0.5202 -0.2351 0.8210
vn 0.9704 -0.1310 0.2028
vn 0.8413 0.0511 -0.5381
vn 0.2090 0.2027 -0.9567
vn -0.9495 0.2710 -0.1582
vn -0.5401 0.2974 -0.7873
vn -0.8274 0.0930 0.5538
vn -0.2343 -0.1399 0.9620
vn 0.5087 -0.2894 0.8108
vn 0.9495 -0.2615 0.1732
vn 0.8191 -0.0784 -0.5683
vn 0.1937 0.1534 -0.9690
vn -0.8450 0.5245 -0.1043
vn -0.4987 0.4438 -0.7445
vn -0.7438 0.3264 0.5832
vn -0.2271 -0.0578 0.9722
vn 0.4530 -0.4076 0.7929
vn 0.8604 -0.4933 0.1282
vn 0.7361 -0.2847 -0.6141
vn 0.1541 0.1082 -0.9821
vn -0.4904 0.8708 -0.0345
vn -0.2878 0.6698 -0.6845
vn -0.4481 0.6347 0.6296
vn -0.1635 0.0512 0.9852
vn 0.2456 -0.5829 0.7745
vn 0.5159 -0.8542 0.0650
vn 0.4370 -0.5676 -0.6978
vn 0.0839 0.0916 -0.9923
vn 0.1227 0.9924 0.0095
vn 0.1435 0.7428 -0.6540
vn 0.0395 0.7441 0.6669
vn -0.0672 0.0844 0.9942
vn -0.1441 -0.6609 0.7365
vn -0.1452 -0.9893 -0.0118
vn -0.0428 -0.6612 -0.7490
vn 0.0839 0.0799 -0.9933
vn 0.6033 0.7966 0.0369
vn 0.5221 0.5617 -0.6419
vn 0.3682 0.6114 0.7004
vn -0.0887 0.0706 0.9936
vn -0.5215 -0.5208 0.6759
vn -0.6321 -0.7721 -0.0661
vn -0.3431 -0.5523 -0.7598
vn 0.1462 0.0108 -0.9892
vn 0.8127 0.5778 0.0748
vn 0.7121 0.3341 -0.6174
vn 0.4598 0.4991 0.7345
vn -0.1751 0.1265 0.9764
vn -0.7139 -0.3196 0.6231
vn -0.8161 -0.5681 -0.1065
vn -0.4254 -0.4769 -0.7692
vn 0.2117 -0.0988 -0.9723
vn 0.8850 0.4530 0.1081
vn 0.8003 0.1586 -0.5783
vn 0.4593 0.4884 0.7420
vn -0.2463 0.2336 0.9406
vn -0.8057 -0.1615 0.5699
vn -0.8770 -0.4586 -0.1433
vn -0.4257 -0.4819 -0.7658
vn 0.2661 -0.2244 -0.9375
vn 0.9130 0.3864 0.1307
vn 0.8565 0.0035 -0.5162
vn 0.4357 0.5493 0.7131
vn -0.3104 0.3811 0.8709
vn -0.8671 -0.0190 0.4977
vn -0.8975 -0.4054 -0.1735
vn -0.3981 -0.5493 -0.7347
vn 0.3214 -0.3779 -0.8683
vn 0.9308 0.3224 0.1723
vn 0.9023 -0.1599 -0.4003
vn 0.4197 0.6277 0.6557
vn -0.3530 0.5581 0.7509
vn -0.9115 0.1442 0.3852
vn -0.9101 -0.3550 -0.2140
vn -0.3682 -0.6360 -0.6782
vn 0.3743 -0.5498 -0.7468
vn 0.9347 0.2340 0.2677
vn 0.9185 -0.3213 -0.2303
vn 0.4154 0.6655 0.6202
vn -0.3594 0.7074 0.6086
vn -0.9204 0.3180 0.2273
vn -0.9181 -0.2662 -0.2936
vn -0.3617 -0.6838 -0.6337
vn 0.3939 -0.6969 -0.5992
vn 0.9070 0.1286 0.4009
vn 0.8830 -0.4676 -0.0404
vn 0.4158 0.6631 0.6224
vn -0.3322 0.8127 0.4786
vn -0.8827 0.4679 0.0442
vn -0.8939 -0.1625 -0.4177
vn -0.3629 -0.6916 -0.6245
vn 0.3715 -0.8064 -0.4600
vn 0.8224 0.0131 0.5688
vn 0.7738 -0.6079 0.1781
vn 0.4084 0.6414 0.6495
vn -0.2599 0.9006 0.3485
vn -0.7744 0.6104 -0.1662
vn -0.8114 -0.0576 -0.5816
vn -0.3490 -0.6893 -0.6349
vn 0.3060 -0.9002 -0.3097
vn 0.6395 -0.0903 0.7635
vn 0.5270 -0.7345 0.4275
vn 0.3886 0.6221 0.6797
vn -0.1009 0.9757 0.1945
vn -0.5317 0.7349 -0.4210
vn -0.6307 0.0170 -0.7758
vn -0.3376 -0.7003 -0.6290
vn 0.1365 -0.9823 -0.1281
vn 0.4443 -0.1339 0.8858
vn 0.1219 -0.7504 0.6497
vn 0.5204 0.5896 0.6177
vn 0.2682 0.9616 -0.0587
vn -0.1600 0.6941 -0.7019
vn -0.4824 -0.0066 -0.8759
vn -0.5083 -0.6762 -0.5332
vn -0.2577 -0.9628 0.0816
vn 0.4110 -0.1178 0.9040
vn -0.1926 -0.5633 0.8035
vn 0.7926 0.4159 0.4459
vn 0.6685 0.6782 -0.3052
vn 0.1208 0.5127 -0.8501
vn -0.4923 0.0345 -0.8697
vn -0.7985 -0.4567 -0.3922
vn -0.6685 -0.6898 0.2779
vn 0.4688 -0.1574 0.8692
vn -0.2711 -0.3812 0.8839
vn 0.9329 0.1602 0.3225
vn 0.8279 0.3767 -0.4156
vn 0.2211 0.3682 -0.9031
vn -0.5178 0.1339 -0.8449
vn -0.9375 -0.1761 -0.3002
vn -0.8342 -0.3832 0.3966
vn 0.4885 -0.2309 0.8414
vn -0.2827 -0.2856 0.9157
vn 0.9651 -0.0344 0.2597
vn 0.8610 0.1800 -0.4758
vn 0.2345 0.2879 -0.9285
vn -0.5289 0.2255 -0.8182
vn -0.9694 0.0370 -0.2426
vn -0.8722 -0.1703 0.4585
vn 0.4496 -0.3855 0.8058
vn -0.2995 -0.1861 0.9358
vn 0.9263 -0.3349 0.1725
vn 0.8198 -0.0805 -0.5669
vn 0.1983 0.2277 -0.9533
vn -0.5234 0.4021 -0.7512
vn -0.9248 0.3513 -0.1457
vn -0.8421 0.1189 0.5260
vn 0.2665 -0.6042 0.7510
vn -0.2299 -0.0425 0.9723
vn 0.6115 -0.7904 0.0361
vn 0.5467 -0.4491 -0.7067
vn 0.1268 0.1812 -0.9752
vn -0.3453 0.6765 -0.6504
vn -0.6117 0.7911 0.0003
vn -0.5701 0.5123 0.6423
vn -0.0050 -0.7261 0.6875
vn -0.0575 0.0044 0.9983
vn 0.0465 -0.9973 -0.0564
vn 0.0688 -0.6449 -0.7611
vn 0.0485 0.1302 -0.9903
vn -0.0039 0.7987 -0.6017
vn -0.0517 0.9951 0.0843
vn -0.0738 0.6937 0.7164
vn -0.3009 -0.6449 0.7026
vn 0.0740 -0.0166 0.9971
vn -0.4953 -0.8674 -0.0472
vn -0.3672 -0.5263 -0.7669
vn -0.0033 0.1471 -0.9891
vn 0.3436 0.7069 -0.6183
vn 0.4919 0.8684 0.0617
vn 0.3897 0.5908 0.7065
vn -0.5616 -0.3987 0.7250
vn 0.0992 -0.0502 0.9938
vn -0.8723 -0.4890 -0.0051
vn -0.6277 -0.2742 -0.7286
vn 0.0026 0.1097 -0.9940
vn 0.6055 0.4238 -0.6736
vn 0.8642 0.5030 -0.0061
vn 0.6739 0.3198 0.6660
vn -0.6748 -0.0765 0.7340
vn 0.0664 0.0060 0.9978
vn -0.9940 -0.1088 0.0125
vn -0.6976 -0.0771 -0.7123
vn 0.0154 0.0049 -0.9999
vn 0.7002 0.0871 -0.7087
vn 0.9918 0.1212 -0.0405
vn 0.7496 0.0893 0.6559
vn -0.6779 0.1675 0.7158
vn 0.0459 0.0980 0.9941
vn -0.9907 0.1357 0.0065
vn -0.7078 0.0218 -0.7060
vn -0.0055 -0.1020 -0.9948
vn 0.6888 -0.1631 -0.7064
vn 0.9909 -0.1323 -0.0263
vn 0.7370 -0.0268 0.6754
vn -0.6509 0.3008 0.6970
vn 0.0507 0.1535 0.9868
vn -0.9632 0.2685 -0.0062
vn -0.7021 0.0769 -0.7079
vn -0.0231 -0.1623 -0.9865
vn 0.6594 -0.3061 -0.6867
vn 0.9614 -0.2752 -0.0014
vn 0.7189 -0.0871 0.6897
vn -0.5832 0.4627 0.6676
vn 0.0875 0.1955 0.9768
vn -0.8939 0.4460 -0.0453
vn -0.6578 0.1600 -0.7360
vn -0.0262 -0.2332 -0.9721
vn 0.5959 -0.4875 -0.6381
vn 0.8809 -0.4722 0.0327
vn 0.6908 -0.1983 0.6953
vn -0.3086 0.7525 0.5818
vn 0.1863 0.2454 0.9514
vn -0.6081 0.7737 -0.1776
vn -0.5037 0.2842 -0.8158
vn -0.1011 -0.3674 -0.9246
vn 0.3356 -0.7859 -0.5193
vn 0.5905 -0.7946 0.1410
vn 0.5439 -0.3941 0.7409
vn 0.1725 0.8988 0.4030
vn 0.3121 0.2982 0.9020
vn -0.0700 0.9319 -0.3559
vn -0.2831 0.3559 -0.8906
vn -0.3108 -0.4242 -0.8506
vn -0.1588 -0.9229 -0.3508
vn 0.0679 -0.9475 0.3124
vn 0.2640 -0.4768 0.8384
vn 0.6524 0.7300 0.2035
vn 0.5453 0.2206 0.8087
vn 0.3491 0.7704 -0.5335
vn -0.1948 0.3290 -0.9240
vn -0.5979 -0.2889 -0.7477
vn -0.6619 -0.7243 -0.1930
vn -0.3956 -0.7976 0.4553
vn 0.0975 -0.4367 0.8943
vn 0.9701 0.2215 -0.0994
vn 0.7763 -0.1820 0.6035
vn 0.5041 0.4776 -0.7195
vn -0.2550 0.4278 -0.8672
vn -0.8333 0.1389 -0.5351
vn -0.9759 -0.2113 0.0547
vn -0.6319 -0.4608 0.6232
vn 0.0752 -0.4670 0.8811
vn 0.8836 -0.2678 -0.3840
vn 0.7117 -0.6411 0.2871
vn 0.5101 0.2875 -0.8106
vn -0.1702 0.6487 -0.7418
vn -0.7279 0.6279 -0.2754
vn -0.9025 0.2861 0.3218
vn -0.5971 -0.2194 0.7716
vn 0.0852 -0.6171 0.7822
vn 0.6946 -0.4264 -0.5794
vn 0.4224 -0.9064 -0.0022
vn 0.5400 0.3169 -0.7797
vn 0.0829 0.8438 -0.5303
vn -0.4021 0.9154 -0.0181
vn -0.6867 0.5158 0.5123
vn -0.5896 -0.1977 0.7832
vn -0.1150 -0.8081 0.5776
vn 0.5504 -0.4138 -0.7252
vn 0.0198 -0.9199 -0.3918
vn 0.7259 0.3216 -0.6079
vn 0.5005 0.8482 -0.1732
vn 0.0289 0.9403 0.3391
vn -0.4705 0.5490 0.6908
vn -0.7231 -0.1821 0.6663
vn -0.5254 -0.8240 0.2118
vn 0.4799 -0.3916 -0.7851
vn -0.2519 -0.6784 -0.6902
vn 0.9005 0.1257 -0.4164
vn 0.8146 0.5580 0.1582
vn 0.3050 0.6989 0.6470
vn -0.3905 0.4546 0.8005
vn -0.8757 -0.0744 0.4771
vn -0.8225 -0.5466 -0.1572
vn 0.4795 -0.4951 -0.7245
vn -0.2766 -0.5178 -0.8096
vn 0.9485 -0.1960 -0.2488
vn 0.9112 0.2097 0.3545
vn 0.3689 0.5035 0.7813
vn -0.4045 0.4909 0.7716
vn -0.9405 0.1813 0.2873
vn -0.8890 -0.2337 -0.3939
vn 0.3525 -0.7906 -0.5007
vn -0.2942 -0.5757 -0.7629
vn 0.8050 -0.5932 0.0121
vn 0.8461 -0.0861 0.5261
vn 0.4122 0.4845 0.7716
vn -0.2987 0.7745 0.5575
vn -0.8240 0.5649 -0.0430
vn -0.7982 -0.0192 -0.6021
vn -0.0067 -0.9899 -0.1418
vn -0.4815 -0.6577 -0.5793
vn 0.4613 -0.8100 0.3620
vn 0.6958 -0.1997 0.6899
vn 0.5418 0.5598 0.6269
vn 0.0498 0.9886 0.1422
vn -0.4735 0.7669 -0.4333
vn -0.6949 0.0617 -0.7165
vn -0.3429 -0.9286 0.1418
vn -0.7035 -0.5878 -0.3994
vn 0.2004 -0.7668 0.6097
vn 0.6435 -0.1622 0.7481
vn 0.7153 0.5522 0.4284
vn 0.3570 0.9194 -0.1650
vn -0.2246 0.7274 -0.6485
vn -0.6714 0.0932 -0.7352
vn -0.5372 -0.7859 0.3063
vn -0.8870 -0.4072 -0.2175
vn 0.1271 -0.7238 0.6782
vn 0.7227 -0.2163 0.6565
vn 0.8780 0.4218 0.2260
vn 0.4888 0.7986 -0.3513
vn -0.2064 0.6878 -0.6959
vn -0.7608 0.1847 -0.6222
vn -0.6217 -0.6148 0.4853
vn -0.9875 -0.1000 0.1222
vn 0.1130 -0.7968 0.5936
vn 0.8059 -0.4855 0.3388
vn 0.9767 0.1501 -0.1536
vn 0.5024 0.6809 -0.5329
vn -0.2530 0.7823 -0.5693
vn -0.8391 0.4558 -0.2968
vn -0.5753 -0.5260 0.6264
vn -0.8529 0.1578 0.4977
vn 0.0589 -0.9205 0.3862
vn 0.6571 -0.7452 -0.1136
vn 0.8368 -0.0932 -0.5396
vn 0.4947 0.6148 -0.6143
vn -0.1315 0.9340 -0.3322
vn -0.6664 0.7370 0.1130
vn -0.6022 -0.5372 0.5906
vn -0.6736 0.2289 0.7028
vn -0.1569 -0.9814 0.1106
vn 0.3773 -0.8090 -0.4507
vn 0.6849 -0.1260 -0.7176
vn 0.5772 0.6156 -0.5366
vn 0.1493 0.9862 -0.0708
vn -0.3517 0.8356 0.4220
vn -0.7301 -0.5175 0.4463
vn -0.5725 0.1791 0.8001
vn -0.3894 -0.9103 -0.1407
vn 0.2067 -0.7732 -0.5995
vn 0.7226 -0.2034 -0.6606
vn 0.8493 0.4436 -0.2863
vn 0.5390 0.7982 0.2690
vn -0.0297 0.7053 0.7083
vn -0.7336 -0.5540 0.3936
vn -0.4455 -0.1530 0.8821
vn -0.5173 -0.8290 -0.2127
vn 0.1153 -0.8130 -0.5707
vn 0.7557 -0.4967 -0.4269
vn 0.9900 -0.1077 0.0909
vn 0.6867 0.5610 0.4623
vn 0.1712 0.1264 0.9771
vn 0.6115 -0.3870 0.6902
vn 0.1231 -0.9488 0.2908
vn -0.0197 0.1707 -0.9851
vn 0.3404 -0.8937 -0.2924
vn 0.5202 -0.8378 0.1660
vn 0.1733 -0.9755 0.1353
vn -0.1436 -0.4975 -0.8555
vn -0.1273 -0.4890 -0.8629
vn 0.0112 -0.6579 -0.7530
vn -0.7500 -0.6351 -0.1845
vn -0.8044 0.3564 -0.4754
vn -0.5069 0.2607 -0.8216
vn -0.0189 0.4052 0.9140
vn 0.1571 0.5046 0.8490
vn 0.0828 0.6101 0.7880
vn -0.0729 0.4769 0.8759
vn 0.7898 0.3481 -0.5051
vn 0.7897 0.3482 -0.5051
vn 0.9250 0.0905 -0.3691
vn 0.5730 0.5699 -0.5890
vn 0.2407 0.3951 0.8866
vn 0.5296 0.4898 0.6925
vn 0.4649 0.6276 0.6245
vn -0.5674 0.6438 -0.5134
vn -0.4133 0.7411 -0.5291
vn 0.0352 0.3296 0.9434
vn -0.2582 -0.2909 -0.9213
vn 0.6292 0.6542 0.4197
vn 0.6671 -0.7305 0.1458
vn 0.3480 0.7373 0.5791
vn -0.2017 -0.7351 0.6472
vn -0.9435 0.2756 0.1838
vn 0.8433 0.1116 -0.5257
vn 0.9452 0.3151 -0.0855
vn 0.9917 -0.0553 -0.1161
vn 0.2225 -0.2853 -0.9322
vn 0.2162 -0.2678 -0.9389
vn 0.4333 -0.1690 -0.8853
vn 0.3888 -0.8837 -0.2605
vn -0.6312 -0.7145 -0.3019
vn -0.5631 -0.4598 -0.6866
vn -0.1562 0.1079 0.9818
vn -0.2278 0.3000 0.9263
vn -0.3589 0.2503 0.8992
vn -0.2451 0.0709 0.9669
vn -0.2831 0.8314 -0.4781
vn 0.0236 0.9072 -0.4200
vn -0.5606 0.6698 -0.4869
vn -0.0969 0.3568 0.9291
vn -0.1721 0.6530 0.7375
vn -0.3331 0.6201 0.7103
vn -0.8600 -0.4183 -0.2922
vn -0.9221 -0.2464 -0.2984
vn -0.0657 0.1438 0.9874
vn -0.0139 -0.3507 -0.9364
vn -0.3740 0.7789 0.5035
vn 0.8711 0.4823 -0.0930
vn -0.4735 0.5305 0.7031
vn 0.8120 -0.3457 0.4702
vn -0.4194 -0.8460 0.3293
vn 0.3560 0.5071 -0.7849
vn 0.3588 0.8363 -0.4146
vn 0.6563 0.6105 -0.4433
vn 0.1686 -0.2987 -0.9393
vn 0.1503 -0.2932 -0.9442
vn 0.2278 -0.0628 -0.9717
vn 0.8514 -0.4003 -0.3390
vn 0.0614 -0.9974 -0.0389
vn -0.1595 -0.8865 -0.4345
vn 0.0151 0.2387 0.9710
vn -0.1840 0.3033 0.9350
vn -0.2372 0.1724 0.9560
vn -0.0179 0.1486 0.9887
vn -0.8916 0.2321 -0.3888
vn -0.8916 0.2320 -0.3888
vn -0.7386 0.5095 -0.4415
vn -0.9527 -0.0693 -0.2960
vn -0.1412 0.4321 0.8907
vn -0.4465 0.5264 0.7235
vn -0.5313 0.3863 0.7540
vn -0.3029 -0.9524 0.0352
vn -0.4711 -0.8810 0.0431
vn 0.0479 0.3264 0.9440
vn 0.0638 -0.5059 -0.8602
vn -0.7161 0.4075 0.5667
vn 0.1861 0.8958 -0.4036
vn -0.5570 0.2277 0.7987
vn 0.8718 0.4551 0.1810
vn 0.4204 -0.7650 0.4879
vn 0.3890 -0.7903 -0.4734
vn 0.6540 -0.7544 -0.0562
vn 0.3309 -0.9429 -0.0365
vn -0.2548 -0.4213 -0.8704
vn -0.2419 -0.4095 -0.8796
vn -0.0610 -0.5642 -0.8234
vn -0.6775 -0.7260 -0.1184
vn -0.9292 0.2685 -0.2541
vn -0.7031 0.2596 -0.6620
vn 0.1231 0.2980 0.9466
vn 0.2656 0.4311 0.8623
vn 0.1660 0.5290 0.8322
vn 0.0528 0.3636 0.9301
vn 0.6066 0.5236 -0.5982
vn 0.8022 0.2786 -0.5281
vn 0.3485 0.7146 -0.6065
vn 0.3695 0.3334 0.8674
vn 0.5939 0.4939 0.6351
vn 0.4978 0.6257 0.6006
vn -0.7478 0.5930 -0.2984
vn -0.6156 0.7153 -0.3306
vn 0.1921 0.2297 0.9541
vn -0.4083 -0.2304 -0.8833
vn 0.6087 0.7002 0.3731
vn 0.7769 -0.6231 -0.0900
vn 0.3598 0.7190 0.5947
vn 0.0458 -0.8223 0.5673
vn -0.9104 0.0970 0.4021
vn -0.5246 -0.7803 -0.3403
vn -0.3260 -0.9416 0.0840
vn -0.6488 -0.7532 0.1085
vn -0.5633 -0.0908 -0.8213
vn -0.5474 -0.0972 -0.8312
vn -0.5851 -0.3226 -0.7440
vn -0.9749 0.2137 -0.0631
vn -0.2564 0.9033 -0.3439
vn -0.1846 0.6554 -0.7324
vn 0.3974 0.1529 0.9048
vn 0.5764 0.0854 0.8127
vn 0.6082 0.2157 0.7639
vn 0.4172 0.2438 0.8755
vn 0.7053 -0.3373 -0.6236
vn 0.7053 -0.3372 -0.6236
vn 0.5983 -0.6181 -0.5100
vn 0.7395 -0.0217 -0.6728
vn 0.5449 -0.0518 0.8369
vn 0.7763 -0.1941 0.5997
vn 0.8386 -0.0505 0.5424
vn 0.1103 0.9011 -0.4193
vn 0.2792 0.8433 -0.4592
vn 0.3738 0.0606 0.9255
vn -0.4770 0.1339 -0.8687
vn 0.9394 -0.1367 0.3143
vn -0.1541 -0.9872 0.0408
vn 0.8492 0.1137 0.5157
vn -0.6376 -0.3760 0.6724
vn -0.3398 0.8810 0.3292
vn 0.0097 -0.6681 -0.7441
vn 0.3484 -0.8361 -0.4238
vn -0.0079 -0.9328 -0.3604
vn -0.5438 -0.0411 -0.8382
vn -0.5299 -0.0307 -0.8475
vn -0.4019 -0.2357 -0.8849
vn -0.8861 -0.4533 -0.0967
vn -0.8220 0.5616 0.0944
vn -0.6960 0.6271 -0.3499
vn 0.3968 -0.0625 0.9158
vn 0.5554 0.0499 0.8301
vn 0.4892 0.1741 0.8546
vn 0.3500 0.0204 0.9365
vn 0.6139 0.5162 -0.5972
vn 0.6139 0.5163 -0.5972
vn 0.7288 0.2206 -0.6482
vn 0.4356 0.7586 -0.4845
vn 0.6207 -0.0672 0.7811
vn 0.8349 0.0970 0.5419
vn 0.7820 0.2526 0.5697
vn -0.5574 0.8262 0.0820
vn -0.4017 0.9147 0.0448
vn 0.4400 -0.1448 0.8863
vn -0.6262 0.1762 -0.7595
vn 0.8642 0.3656 0.3458
vn 0.4981 -0.7365 -0.4576
vn 0.6836 0.3746 0.6264
vn -0.1137 -0.9440 0.3098
vn -0.7315 0.1900 0.6549
vn 0.2220 0.5655 -0.7943
vn 0.1208 0.8920 -0.4356
vn 0.4706 0.7589 -0.4502
vn 0.2741 -0.2643 -0.9247
vn 0.2551 -0.2642 -0.9301
vn 0.2653 -0.0223 -0.9639
vn 0.9395 -0.1523 -0.3069
vn 0.3412 -0.9400 -0.0031
vn 0.1100 -0.9069 -0.4068
vn -0.0820 0.2595 0.9623
vn -0.2900 0.2642 0.9198
vn -0.3048 0.1243 0.9443
vn -0.0887 0.1643 0.9824
vn -0.9088 -0.0401 -0.4153
vn -0.9088 -0.0402 -0.4153
vn -0.8386 0.2677 -0.4743
vn -0.8852 -0.3439 -0.3134
vn -0.2839 0.3986 0.8721
vn -0.5983 0.3982 0.6953
vn -0.6411 0.2406 0.7288
vn -0.0230 -0.9978 0.0616
vn -0.2047 -0.9768 0.0635
vn -0.0745 0.3522 0.9330
vn 0.2297 -0.4904 -0.8407
vn -0.8186 0.2037 0.5371
vn -0.0619 0.9005 -0.4303
vn -0.6223 0.0826 0.7784
vn 0.7023 0.6878 0.1836
vn 0.6042 -0.6014 0.5228
vn 0.0000 0.9981 0.0614
vn 0.5718 0.8180 0.0624
vn 0.5890 0.8057 0.0625
vn 0.9458 0.3182 0.0642
vn 0.9496 0.3067 0.0643
vn 0.9456 -0.3188 0.0642
vn 0.9497 -0.3066 0.0642
vn 0.6426 -0.7633 0.0670
vn 0.5767 -0.8141 0.0683
vn 0.0352 -0.9964 0.0775
vn -0.0120 -0.9968 0.0785
vn -0.6057 -0.7914 0.0820
vn -0.5811 -0.8097 0.0823
vn -0.9622 -0.2622 0.0736
vn -0.9452 -0.3179 0.0746
vn -0.9330 0.3536 0.0662
vn -0.9514 0.3008 0.0668
vn -0.5718 0.8180 0.0624
vn -0.5890 0.8057 0.0625
vn -0.9059 -0.4114 0.1010
vn -0.9828 -0.1557 0.0994
vn -0.9771 -0.1879 0.0999
vn -0.9587 0.2695 0.0907
vn -0.9637 0.2508 0.0911
vn -0.6733 0.7340 0.0895
vn -0.6837 0.7242 0.0896
vn 0.0470 0.9941 0.0982
vn 0.0288 0.9948 0.0979
vn 0.7105 0.6953 0.1081
vn 0.6884 0.7174 0.1073
vn 0.9479 0.3044 0.0944
vn 0.9374 0.3344 0.0973
vn 0.9806 0.1779 0.0817
vn -0.6046 -0.7525 0.2613
vn -0.6364 -0.7482 0.1876
vn -0.6222 -0.7508 0.2218
vn -0.6513 -0.7441 0.1489
vn -0.9656 0.1158 0.2329
vn -0.7222 0.6407 0.2608
vn -0.9086 0.3314 0.2540
vn -0.0395 0.9632 0.2658
vn -0.3173 0.9104 0.2654
vn 0.3037 0.9136 0.2703
vn 0.2411 0.9342 0.2629
vn 0.3706 0.8865 0.2771
usemtl marksman
s 1
f 523/1/1 2/2/2 9/3/3 524/4/4
f 525/5/5 3/6/6 2/2/2 523/1/1
f 526/7/7 4/8/8 3/6/6 525/5/5
f 527/9/9 5/10/10 4/8/8 526/7/7
f 528/11/11 6/12/12 5/10/10 527/9/9
f 529/13/13 7/14/14 6/12/12 528/11/11
f 530/15/15 8/16/16 7/14/14 529/13/13
f 524/4/4 9/3/3 8/16/16 530/15/15
f 2/2/2 10/17/17 17/18/18 9/3/3
f 3/6/6 11/19/19 10/17/17 2/2/2
f 4/8/8 12/20/20 11/19/19 3/6/6
f 5/10/10 13/21/21 12/20/20 4/8/8
f 6/12/12 14/22/22 13/21/21 5/10/10
f 7/14/14 15/23/23 14/22/22 6/12/12
f 8/16/16 16/24/24 15/23/23 7/14/14
f 9/3/3 17/18/18 16/24/24 8/16/16
f 10/17/17 18/25/25 25/26/26 17/18/18
f 11/19/19 19/27/27 18/25/25 10/17/17
f 12/20/20 20/28/28 19/27/27 11/19/19
f 13/21/21 21/29/29 20/28/28 12/20/20
f 14/22/22 22/30/30 21/29/29 13/21/21
f 15/23/23 23/31/31 22/30/30 14/22/22
f 16/24/24 24/32/32 23/31/31 15/23/23
f 17/18/18 25/26/26 24/32/32 16/24/24
f 18/25/25 26/33/33 33/34/34 25/26/26
f 19/27/27 27/35/35 26/33/33 18/25/25
f 20/28/28 28/36/36 27/35/35 19/27/27
f 21/29/29 29/37/37 28/36/36 20/28/28
f 22/30/30 30/38/38 29/37/37 21/29/29
f 23/31/31 31/39/39 30/38/38 22/30/30
f 24/32/32 32/40/40 31/39/39 23/31/31
f 25/26/26 33/34/34 32/40/40 24/32/32
f 26/33/33 34/41/41 41/42/42 33/34/34
f 27/35/35 35/43/43 34/41/41 26/33/33
f 28/36/36 36/44/44 35/43/43 27/35/35
f 29/37/37 37/45/45 36/44/44 28/36/36
f 30/38/38 38/46/46 37/45/45 29/37/37
f 31/39/39 39/47/47 38/46/46 30/38/38
f 32/40/40 40/48/48 39/47/47 31/39/39
f 33/34/34 41/42/42 40/48/48 32/40/40
f 34/41/41 42/49/49 49/50/50 41/42/42
f 35/43/43 43/51/51 42/49/49 34/41/41
f 36/44/44 44/52/52 43/51/51 35/43/43
f 37/45/45 45/53/53 44/52/52 36/44/44
f 38/46/46 46/54/54 45/53/53 37/45/45
f 39/47/47 47/55/55 46/54/54 38/46/46
f 40/48/48 48/56/56 47/55/55 39/47/47
f 41/42/42 49/50/50 48/56/56 40/48/48
f 42/49/49 50/57/57 57/58/58 49/50/50
f 43/51/51 51/59/59 50/57/57 42/49/49
f 44/52/52 52/60/60 51/59/59 43/51/51
f 45/53/53 53/61/61 52/60/60 44/52/52
f 46/54/54 54/62/62 53/61/61 45/53/53
f 47/55/55 55/63/63 54/62/62 46/54/54
f 48/56/56 56/64/64 55/63/63 47/55/55
f 49/50/50 57/58/58 56/64/64 48/56/56
f 50/57/57 58/65/65 65/66/66 57/58/58
f 51/59/59 59/67/67 58/65/65 50/57/57
f 52/60/60 60/68/68 59/67/67 51/59/59
f 53/61/61 61/69/69 60/68/68 52/60/60
f 54/62/62 62/70/70 61/69/69 53/61/61
f 55/63/63 63/71/71 62/70/70 54/62/62
f 56/64/64 64/72/72 63/71/71 55/63/63
f 57/58/58 65/66/66 64/72/72 56/64/64
f 58/65/65 66/73/73 73/74/74 65/66/66
f 59/67/67 67/75/75 66/73/73 58/65/65
f 60/68/68 68/76/76 67/75/75 59/67/67
f 61/69/69 69/77/77 68/76/76 60/68/68
f 62/70/70 70/78/78 69/77/77 61/69/69
f 63/71/71 71/79/79 70/78/78 62/70/70
f 64/72/72 72/80/80 71/79/79 63/71/71
f 65/66/66 73/74/74 72/80/80 64/72/72
f 66/73/73 74/81/81 81/82/82 73/74/74
f 67/75/75 75/83/83 74/81/81 66/73/73
f 68/76/76 76/84/84 75/83/83 67/75/75
f 69/77/77 77/85/85 76/84/84 68/76/76
f 70/78/78 78/86/86 77/85/85 69/77/77
f 71/79/79 79/87/87 78/86/86 70/78/78
f 72/80/80 80/88/88 79/87/87 71/79/79
f 73/74/74 81/82/82 80/88/88 72/80/80
f 74/81/81 82/89/89 89/90/90 81/82/82
f 75/83/83 83/91/91 82/89/89 74/81/81
f 76/84/84 84/92/92 83/91/91 75/83/83
f 77/85/85 85/93/93 84/92/92 76/84/84
f 78/86/86 86/94/94 85/93/93 77/85/85
f 79/87/87 87/95/95 86/94/94 78/86/86
f 80/88/88 88/96/96 87/95/95 79/87/87
f 81/82/82 89/90/90 88/96/96 80/88/88
f 82/89/89 90/97/97 97/98/98 89/90/90
f 83/91/91 91/99/99 90/97/97 82/89/89
f 84/92/92 92/100/100 91/99/99 83/91/91
f 85/93/93 93/101/101 92/100/100 84/92/92
f 86/94/94 94/102/102 93/101/101 85/93/93
f 87/95/95 95/103/103 94/102/102 86/94/94
f 88/96/96 96/104/104 95/103/103 87/95/95
f 89/90/90 97/98/98 96/104/104 88/96/96
f 90/97/97 98/105/105 105/106/106 97/98/98
f 91/99/99 99/107/107 98/105/105 90/97/97
f 92/100/100 100/108/108 99/107/107 91/99/99
f 93/101/101 101/109/109 100/108/108 92/100/100
f 94/102/102 102/110/110 101/109/109 93/101/101
f 95/103/103 103/111/111 102/110/110 94/102/102
f 96/104/104 104/112/112 103/111/111 95/103/103
f 97/98/98 105/106/106 104/112/112 96/104/104
f 98/105/105 106/113/113 113/114/114 105/106/106
f 99/107/107 107/115/115 106/113/113 98/105/105
f 100/108/108 108/116/116 107/115/115 99/107/107
f 101/109/109 109/117/117 108/116/116 100/108/108
f 102/110/110 110/118/118 109/117/117 101/109/109
f 103/111/111 111/119/119 110/118/118 102/110/110
f 104/112/112 112/120/120 111/119/119 103/111/111
f 105/106/106 113/114/114 112/120/120 104/112/112
f 106/113/113 114/121/121 121/122/122 113/114/114
f 107/115/115 115/123/123 114/121/121 106/113/113
f 108/116/116 116/124/124 115/123/123 107/115/115
f 109/117/117 117/125/125 116/124/124 108/116/116
f 110/118/118 118/126/126 117/125/125 109/117/117
f 111/119/119 119/127/127 118/126/126 110/118/118
f 112/120/120 120/128/128 119/127/127 111/119/119
f 113/114/114 121/122/122 120/128/128 112/120/120
f 114/121/121 122/129/129 129/130/130 121/122/122
f 115/123/123 123/131/131 122/129/129 114/121/121
f 116/124/124 124/132/132 123/131/131 115/123/123
f 117/125/125 125/133/133 124/132/132 116/124/124
f 118/126/126 126/134/134 125/133/133 117/125/125
f 119/127/127 127/135/135 126/134/134 118/126/126
f 120/128/128 128/136/136 127/135/135 119/127/127
f 121/122/122 129/130/130 128/136/136 120/128/128
f 122/129/129 130/137/137 137/138/138 129/130/130
f 123/131/131 131/139/139 130/137/137 122/129/129
f 124/132/132 132/140/140 131/139/139 123/131/131
f 125/133/133 133/141/141 132/140/140 124/132/132
f 126/134/134 134/142/142 133/141/141 125/133/133
f 127/135/135 135/143/143 134/142/142 126/134/134
f 128/136/136 136/144/144 135/143/143 127/135/135
f 129/130/130 137/138/138 136/144/144 128/136/136
f 130/137/137 138/145/145 145/146/146 137/138/138
f 131/139/139 139/147/147 138/145/145 130/137/137
f 132/140/140 140/148/148 139/147/147 131/139/139
f 133/141/141 141/149/149 140/148/148 132/140/140
f 134/142/142 142/150/150 141/149/149 133/141/141
f 135/143/143 143/151/151 142/150/150 134/142/142
f 136/144/144 144/152/152 143/151/151 135/143/143
f 137/138/138 145/146/146 144/152/152 136/144/144
f 138/145/145 146/153/153 153/154/154 145/146/146
f 139/147/147 147/155/155 146/153/153 138/145/145
f 140/148/148 148/156/156 147/155/155 139/147/147
f 141/149/149 149/157/157 148/156/156 140/148/148
f 142/150/150 150/158/158 149/157/157 141/149/149
f 143/151/151 151/159/159 150/158/158 142/150/150
f 144/152/152 152/160/160 151/159/159 143/151/151
f 145/146/146 153/154/154 152/160/160 144/152/152
f 146/153/153 154/161/161 161/162/162 153/154/154
f 147/155/155 155/163/163 154/161/161 146/153/153
f 148/156/156 156/164/164 155/163/163 147/155/155
f 149/157/157 157/165/165 156/164/164 148/156/156
f 150/158/158 158/166/166 157/165/165 149/157/157
f 151/159/159 159/167/167 158/166/166 150/158/158
f 152/160/160 160/168/168 159/167/167 151/159/159
f 153/154/154 161/162/162 160/168/168 152/160/160
f 154/161/161 162/169/169 169/170/170 161/162/162
f 155/163/163 163/171/171 162/169/169 154/161/161
f 156/164/164 164/172/172 163/171/171 155/163/163
f 157/165/165 165/173/173 164/172/172 156/164/164
f 158/166/166 166/174/174 165/173/173 157/165/165
f 159/167/167 167/175/175 166/174/174 158/166/166
f 160/168/168 168/176/176 167/175/175 159/167/167
f 161/162/162 169/170/170 168/176/176 160/168/168
f 162/169/169 170/177/177 177/178/178 169/170/170
f 163/171/171 171/179/179 170/177/177 162/169/169
f 164/172/172 172/180/180 171/179/179 163/171/171
f 165/173/173 173/181/181 172/180/180 164/172/172
f 166/174/174 174/182/182 173/181/181 165/173/173
f 167/175/175 175/183/183 174/182/182 166/174/174
f 168/176/176 176/184/184 175/183/183 167/175/175
f 169/170/170 177/178/178 176/184/184 168/176/176
f 170/177/177 178/185/185 185/186/186 177/178/178
f 171/179/179 179/187/187 178/185/185 170/177/177
f 172/180/180 180/188/188 179/187/187 171/179/179
f 173/181/181 181/189/189 180/188/188 172/180/180
f 174/182/182 182/190/190 181/189/189 173/181/181
f 175/183/183 183/191/191 182/190/190 174/182/182
f 176/184/184 184/192/192 183/191/191 175/183/183
f 177/178/178 185/186/186 184/192/192 176/184/184
f 178/185/185 186/193/193 193/194/194 185/186/186
f 179/187/187 187/195/195 186/193/193 178/185/185
f 180/188/188 188/196/196 187/195/195 179/187/187
f 181/189/189 189/197/197 188/196/196 180/188/188
f 182/190/190 190/198/198 189/197/197 181/189/189
f 183/191/191 191/199/199 190/198/198 182/190/190
f 184/192/192 192/200/200 191/199/199 183/191/191
f 185/186/186 193/194/194 192/200/200 184/192/192
f 186/193/193 194/201/201 201/202/202 193/194/194
f 187/195/195 195/203/203 194/201/201 186/193/193
f 188/196/196 196/204/204 195/203/203 187/195/195
f 189/197/197 197/205/205 196/204/204 188/196/196
f 190/198/198 198/206/206 197/205/205 189/197/197
f 191/199/199 199/207/207 198/206/206 190/198/198
f 192/200/200 200/208/208 199/207/207 191/199/199
f 193/194/194 201/202/202 200/208/208 192/200/200
f 194/201/201 202/209/209 209/210/210 201/202/202
f 195/203/203 203/211/211 202/209/209 194/201/201
f 196/204/204 204/212/212 203/211/211 195/203/203
f 197/205/205 205/213/213 204/212/212 196/204/204
f 198/206/206 206/214/214 205/213/213 197/205/205
f 199/207/207 207/215/215 206/214/214 198/206/206
f 200/208/208 208/216/216 207/215/215 199/207/207
f 201/202/202 209/210/210 208/216/216 200/208/208
f 202/209/209 210/217/217 217/218/218 209/210/210
f 203/211/211 211/219/219 210/217/217 202/209/209
f 204/212/212 212/220/220 211/219/219 203/211/211
f 205/213/213 213/221/221 212/220/220 204/212/212
f 206/214/214 214/222/222 213/221/221 205/213/213
f 207/215/215 215/223/223 214/222/222 206/214/214
f 208/216/216 216/224/224 215/223/223 207/215/215
f 209/210/210 217/218/218 216/224/224 208/216/216
f 210/217/217 218/225/225 225/226/226 217/218/218
f 211/219/219 219/227/227 218/225/225 210/217/217
f 212/220/220 220/228/228 219/227/227 211/219/219
f 213/221/221 221/229/229 220/228/228 212/220/220
f 214/222/222 222/230/230 221/229/229 213/221/221
f 215/223/223 223/231/231 222/230/230 214/222/222
f 216/224/224 224/232/232 223/231/231 215/223/223
f 217/218/218 225/226/226 224/232/232 216/224/224
f 218/225/225 226/233/233 233/234/234 225/226/226
f 219/227/227 227/235/235 226/233/233 218/225/225
f 220/228/228 228/236/236 227/235/235 219/227/227
f 221/229/229 229/237/237 228/236/236 220/228/228
f 222/230/230 230/238/238 229/237/237 221/229/229
f 223/231/231 231/239/239 230/238/238 222/230/230
f 224/232/232 232/240/240 231/239/239 223/231/231
f 225/226/226 233/234/234 232/240/240 224/232/232
f 226/233/233 234/241/241 241/242/242 233/234/234
f 227/235/235 235/243/243 234/241/241 226/233/233
f 228/236/236 236/244/244 235/243/243 227/235/235
f 229/237/237 237/245/245 236/244/244 228/236/236
f 230/238/238 238/246/246 237/245/245 229/237/237
f 231/239/239 239/247/247 238/246/246 230/238/238
f 232/240/240 240/248/248 239/247/247 231/239/239
f 233/234/234 241/242/242 240/248/248 232/240/240
f 234/241/241 242/249/249 249/250/250 241/242/242
f 235/243/243 243/251/251 242/249/249 234/241/241
f 236/244/244 244/252/252 243/251/251 235/243/243
f 237/245/245 245/253/253 244/252/252 236/244/244
f 238/246/246 246/254/254 245/253/253 237/245/245
f 239/247/247 247/255/255 246/254/254 238/246/246
f 240/248/248 248/256/256 247/255/255 239/247/247
f 241/242/242 249/250/250 248/256/256 240/248/248
f 242/249/249 250/257/257 257/258/258 249/250/250
f 243/251/251 251/259/259 250/257/257 242/249/249
f 244/252/252 252/260/260 251/259/259 243/251/251
f 245/253/253 253/261/261 252/260/260 244/252/252
f 246/254/254 254/262/262 253/261/261 245/253/253
f 247/255/255 255/263/263 254/262/262 246/254/254
f 248/256/256 256/264/264 255/263/263 247/255/255
f 249/250/250 257/258/258 256/264/264 248/256/256
f 250/257/257 258/265/265 265/266/266 257/258/258
f 251/259/259 259/267/267 258/265/265 250/257/257
f 252/260/260 260/268/268 259/267/267 251/259/259
f 253/261/261 261/269/269 260/268/268 252/260/260
f 254/262/262 262/270/270 261/269/269 253/261/261
f 255/263/263 263/271/271 262/270/270 254/262/262
f 256/264/264 264/272/272 263/271/271 255/263/263
f 257/258/258 265/266/266 264/272/272 256/264/264
f 258/265/265 266/273/273 273/274/274 265/266/266
f 259/267/267 267/275/275 266/273/273 258/265/265
f 260/268/268 268/276/276 267/275/275 259/267/267
f 261/269/269 269/277/277 268/276/276 260/268/268
f 262/270/270 270/278/278 269/277/277 261/269/269
f 263/271/271 271/279/279 270/278/278 262/270/270
f 264/272/272 272/280/280 271/279/279 263/271/271
f 265/266/266 273/274/274 272/280/280 264/272/272
f 266/273/273 274/281/281 281/282/282 273/274/274
f 267/275/275 275/283/283 274/281/281 266/273/273
f 268/276/276 276/284/284 275/283/283 267/275/275
f 269/277/277 277/285/285 276/284/284 268/276/276
f 270/278/278 278/286/286 277/285/285 269/277/277
f 271/279/279 279/287/287 278/286/286 270/278/278
f 272/280/280 280/288/288 279/287/287 271/279/279
f 273/274/274 281/282/282 280/288/288 272/280/280
f 274/281/281 282/289/289 289/290/290 281/282/282
f 275/283/283 283/291/291 282/289/289 274/281/281
f 276/284/284 284/292/292 283/291/291 275/283/283
f 277/285/285 285/293/293 284/292/292 276/284/284
f 278/286/286 286/294/294 285/293/293 277/285/285
f 279/287/287 287/295/295 286/294/294 278/286/286
f 280/288/288 288/296/296 287/295/295 279/287/287
f 281/282/282 289/290/290 288/296/296 280/288/288
f 282/289/289 290/297/297 297/298/298 289/290/290
f 283/291/291 291/299/299 290/297/297 282/289/289
f 284/292/292 292/300/300 291/299/299 283/291/291
f 285/293/293 293/301/301 292/300/300 284/292/292
f 286/294/294 294/302/302 293/301/301 285/293/293
f 287/295/295 295/303/303 294/302/302 286/294/294
f 288/296/296 296/304/304 295/303/303 287/295/295
f 289/290/290 297/298/298 296/304/304 288/296/296
f 290/297/297 298/305/305 305/306/306 297/298/298
f 291/299/299 299/307/307 298/305/305 290/297/297
f 292/300/300 300/308/308 299/307/307 291/299/299
f 293/301/301 301/309/309 300/308/308 292/300/300
f 294/302/302 302/310/310 301/309/309 293/301/301
f 295/303/303 303/311/311 302/310/310 294/302/302
f 296/304/304 304/312/312 303/311/311 295/303/303
f 297/298/298 305/306/306 304/312/312 296/304/304
f 298/305/305 306/313/313 313/314/314 305/306/306
f 299/307/307 307/315/315 306/313/313 298/305/305
f 300/308/308 308/316/316 307/315/315 299/307/307
f 301/309/309 309/317/317 308/316/316 300/308/308
f 302/310/310 310/318/318 309/317/317 301/309/309
f 303/311/311 311/319/319 310/318/318 302/310/310
f 304/312/312 312/320/320 311/319/319 303/311/311
f 305/306/306 313/314/314 312/320/320 304/312/312
f 306/313/313 314/321/321 321/322/322 313/314/314
f 307/315/315 315/323/323 314/321/321 306/313/313
f 308/316/316 316/324/324 315/323/323 307/315/315
f 309/317/317 317/325/325 316/324/324 308/316/316
f 310/318/318 318/326/326 317/325/325 309/317/317
f 311/319/319 319/327/327 318/326/326 310/318/318
f 312/320/320 320/328/328 319/327/327 311/319/319
f 313/314/314 321/322/322 320/328/328 312/320/320
f 314/321/321 322/329/329 329/330/330 321/322/322
f 315/323/323 323/331/331 322/329/329 314/321/321
f 316/324/324 324/332/332 323/331/331 315/323/323
f 317/325/325 325/333/333 324/332/332 316/324/324
f 318/326/326 326/334/334 325/333/333 317/325/325
f 319/327/327 327/335/335 326/334/334 318/326/326
f 320/328/328 328/336/336 327/335/335 319/327/327
f 321/322/322 329/330/330 328/336/336 320/328/328
f 322/329/329 330/337/337 337/338/338 329/330/330
f 323/331/331 331/339/339 330/337/337 322/329/329
f 324/332/332 332/340/340 331/339/339 323/331/331
f 325/333/333 333/341/341 332/340/340 324/332/332
f 326/334/334 334/342/342 333/341/341 325/333/333
f 327/335/335 335/343/343 334/342/342 326/334/334
f 328/336/336 336/344/344 335/343/343 327/335/335
f 329/330/330 337/338/338 336/344/344 328/336/336
f 330/337/337 338/345/345 345/346/346 337/338/338
f 331/339/339 339/347/347 338/345/345 330/337/337
f 332/340/340 340/348/348 339/347/347 331/339/339
f 333/341/341 341/349/349 340/348/348 332/340/340
f 334/342/342 342/350/350 341/349/349 333/341/341
f 335/343/343 343/351/351 342/350/350 334/342/342
f 336/344/344 344/352/352 343/351/351 335/343/343
f 337/338/338 345/346/346 344/352/352 336/344/344
f 338/345/345 346/353/353 353/354/354 345/346/346
f 339/347/347 347/355/355 346/353/353 338/345/345
f 340/348/348 348/356/356 347/355/355 339/347/347
f 341/349/349 349/357/357 348/356/356 340/348/348
f 342/350/350 350/358/358 349/357/357 341/349/349
f 343/351/351 351/359/359 350/358/358 342/350/350
f 344/352/352 352/360/360 351/359/359 343/351/351
f 345/346/346 353/354/354 352/360/360 344/352/352
f 346/353/353 354/361/361 361/362/362 353/354/354
f 347/355/355 355/363/363 354/361/361 346/353/353
f 348/356/356 356/364/364 355/363/363 347/355/355
f 349/357/357 357/365/365 356/364/364 348/356/356
f 350/358/358 358/366/366 357/365/365 349/357/357
f 351/359/359 359/367/367 358/366/366 350/358/358
f 352/360/360 360/368/368 359/367/367 351/359/359
f 353/354/354 361/362/362 360/368/368 352/360/360
f 354/361/361 362/369/369 369/370/370 361/362/362
f 355/363/363 363/371/371 362/369/369 354/361/361
f 356/364/364 364/372/372 363/371/371 355/363/363
f 357/365/365 365/373/373 364/372/372 356/364/364
f 358/366/366 366/374/374 365/373/373 357/365/365
f 359/367/367 367/375/375 366/374/374 358/366/366
f 360/368/368 368/376/376 367/375/375 359/367/367
f 361/362/362 369/370/370 368/376/376 360/368/368
f 362/369/369 370/377/377 377/378/378 369/370/370
f 363/371/371 371/379/379 370/377/377 362/369/369
f 364/372/372 372/380/380 371/379/379 363/371/371
f 365/373/373 373/381/381 372/380/380 364/372/372
f 366/374/374 374/382/382 373/381/381 365/373/373
f 367/375/375 375/383/383 374/382/382 366/374/374
f 368/376/376 376/384/384 375/383/383 367/375/375
f 369/370/370 377/378/378 376/384/384 368/376/376
f 370/377/377 378/385/385 385/386/386 377/378/378
f 371/379/379 379/387/387 378/385/385 370/377/377
f 372/380/380 380/388/388 379/387/387 371/379/379
f 373/381/381 381/389/389 380/388/388 372/380/380
f 374/382/382 382/390/390 381/389/389 373/381/381
f 375/383/383 383/391/391 382/390/390 374/382/382
f 376/384/384 384/392/392 383/391/391 375/383/383
f 377/378/378 385/386/386 384/392/392 376/384/384
f 378/385/385 386/393/393 393/394/394 385/386/386
f 379/387/387 387/395/395 386/393/393 378/385/385
f 380/388/388 388/396/396 387/395/395 379/387/387
f 381/389/389 389/397/397 388/396/396 380/388/388
f 382/390/390 390/398/398 389/397/397 381/389/389
f 383/391/391 391/399/399 390/398/398 382/390/390
f 384/392/392 392/400/400 391/399/399 383/391/391
f 385/386/386 393/394/394 392/400/400 384/392/392
f 386/393/393 394/401/401 401/402/402 393/394/394
f 387/395/395 395/403/403 394/401/401 386/393/393
f 388/396/396 396/404/404 395/403/403 387/395/395
f 389/397/397 397/405/405 396/404/404 388/396/396
f 390/398/398 398/406/406 397/405/405 389/397/397
f 391/399/399 399/407/407 398/406/406 390/398/398
f 392/400/400 400/408/408 399/407/407 391/399/399
f 393/394/394 401/402/402 400/408/408 392/400/400
f 394/401/401 402/409/409 409/410/410 401/402/402
f 395/403/403 403/411/411 402/409/409 394/401/401
f 396/404/404 404/412/412 403/411/411 395/403/403
f 397/405/405 405/413/413 404/412/412 396/404/404
f 398/406/406 406/414/414 405/413/413 397/405/405
f 399/407/407 407/415/415 406/414/414 398/406/406
f 400/408/408 408/416/416 407/415/415 399/407/407
f 401/402/402 409/410/410 408/416/416 400/408/408
f 402/409/409 410/417/417 417/418/418 409/410/410
f 403/411/411 411/419/419 410/417/417 402/409/409
f 404/412/412 412/420/420 411/419/419 403/411/411
f 405/413/413 413/421/421 412/420/420 404/412/412
f 406/414/414 414/422/422 413/421/421 405/413/413
f 407/415/415 415/423/423 414/422/422 406/414/414
f 408/416/416 416/424/424 415/423/423 407/415/415
f 409/410/410 417/418/418 416/424/424 408/416/416
f 410/417/417 418/425/425 425/426/426 417/418/418
f 411/419/419 419/427/427 418/425/425 410/417/417
f 412/420/420 420/428/428 419/427/427 411/419/419
f 413/421/421 421/429/429 420/428/428 412/420/420
f 414/422/422 422/430/430 421/429/429 413/421/421
f 415/423/423 423/431/431 422/430/430 414/422/422
f 416/424/424 424/432/432 423/431/431 415/423/423
f 417/418/418 425/426/426 424/432/432 416/424/424
f 418/425/425 426/433/433 433/434/434 425/426/426
f 419/427/427 427/435/435 426/433/433 418/425/425
f 420/428/428 428/436/436 427/435/435 419/427/427
f 421/429/429 429/437/437 428/436/436 420/428/428
f 422/430/430 430/438/438 429/437/437 421/429/429
f 423/431/431 431/439/439 430/438/438 422/430/430
f 424/432/432 432/440/440 431/439/439 423/431/431
f 425/426/426 433/434/434 432/440/440 424/432/432
f 426/433/433 434/441/441 441/442/442 433/434/434
f 427/435/435 435/443/443 434/441/441 426/433/433
f 428/436/436 436/444/444 435/443/443 427/435/435
f 429/437/437 437/445/445 436/444/444 428/436/436
f 430/438/438 438/446/446 437/445/445 429/437/437
f 431/439/439 439/447/447 438/446/446 430/438/438
f 432/440/440 440/448/448 439/447/447 431/439/439
f 433/434/434 441/442/442 440/448/448 432/440/440
f 434/441/441 442/449/449 449/450/450 441/442/442
f 435/443/443 443/451/451 442/449/449 434/441/441
f 436/444/444 444/452/452 443/451/451 435/443/443
f 437/445/445 445/453/453 444/452/452 436/444/444
f 438/446/446 446/454/454 445/453/453 437/445/445
f 439/447/447 447/455/455 446/454/454 438/446/446
f 440/448/448 448/456/456 447/455/455 439/447/447
f 441/442/442 449/450/450 448/456/456 440/448/448
f 442/449/449 450/457/457 457/458/458 449/450/450
f 443/451/451 451/459/459 450/457/457 442/449/449
f 444/452/452 452/460/460 451/459/459 443/451/451
f 445/453/453 453/461/461 452/460/460 444/452/452
f 446/454/454 454/462/462 453/461/461 445/453/453
f 447/455/455 455/463/463 454/462/462 446/454/454
f 448/456/456 456/464/464 455/463/463 447/455/455
f 449/450/450 457/458/458 456/464/464 448/456/456
f 450/457/457 458/465/465 465/466/466 457/458/458
f 451/459/459 459/467/467 458/465/465 450/457/457
f 452/460/460 460/468/468 459/467/467 451/459/459
f 453/461/461 461/469/469 460/468/468 452/460/460
f 454/462/462 462/470/470 461/469/469 453/461/461
f 455/463/463 463/471/471 462/470/470 454/462/462
f 456/464/464 464/472/472 463/471/471 455/463/463
f 457/458/458 465/466/466 464/472/472 456/464/464
f 458/465/465 466/473/473 473/474/474 465/466/466
f 459/467/467 467/475/475 466/473/473 458/465/465
f 460/468/468 468/476/476 467/475/475 459/467/467
f 461/469/469 469/477/477 468/476/476 460/468/468
f 462/470/470 470/478/478 469/477/477 461/469/469
f 463/471/471 471/479/479 470/478/478 462/470/470
f 464/472/472 472/480/480 471/479/479 463/471/471
f 465/466/466 473/474/474 472/480/480 464/472/472
f 466/473/473 474/481/481 481/482/482 473/474/474
f 467/475/475 475/483/483 474/481/481 466/473/473
f 468/476/476 476/484/484 475/483/483 467/475/475
f 469/477/477 477/485/485 476/484/484 468/476/476
f 470/478/478 478/486/486 477/485/485 469/477/477
f 471/479/479 479/487/487 478/486/486 470/478/478
f 472/480/480 480/488/488 479/487/487 471/479/479
f 473/474/474 481/482/482 480/488/488 472/480/480
f 474/481/481 482/489/489 489/490/490 481/482/482
f 475/483/483 483/491/491 482/489/489 474/481/481
f 476/484/484 484/492/492 483/491/491 475/483/483
f 477/485/485 485/493/493 484/492/492 476/484/484
f 478/486/486 486/494/494 485/493/493 477/485/485
f 479/487/487 487/495/495 486/494/494 478/486/486
f 480/488/488 488/496/496 487/495/495 479/487/487
f 481/482/482 489/490/490 488/496/496 480/488/488
f 482/489/489 490/497/497 497/498/498 489/490/490
f 483/491/491 491/499/499 490/497/497 482/489/489
f 484/492/492 492/500/500 491/499/499 483/491/491
f 485/493/493 493/501/501 492/500/500 484/492/492
f 486/494/494 494/502/502 493/501/501 485/493/493
f 487/495/495 495/503/503 494/502/502 486/494/494
f 488/496/496 496/504/504 495/503/503 487/495/495
f 489/490/490 497/498/498 496/504/504 488/496/496
f 490/497/497 498/505/505 505/506/506 497/498/498
f 491/499/499 499/507/507 498/505/505 490/497/497
f 492/500/500 500/508/508 499/507/507 491/499/499
f 493/501/501 501/509/509 500/508/508 492/500/500
f 494/502/502 502/510/510 501/509/509 493/501/501
f 495/503/503 503/511/511 502/510/510 494/502/502
f 496/504/504 504/512/512 503/511/511 495/503/503
f 497/498/498 505/506/506 504/512/512 496/504/504
f 498/505/505 506/513/513 513/514/514 505/506/506
f 499/507/507 507/515/515 506/513/513 498/505/505
f 500/508/508 508/516/516 507/515/515 499/507/507
f 501/509/509 509/517/517 508/516/516 500/508/508
f 502/510/510 510/518/518 509/517/517 501/509/509
f 503/511/511 511/519/519 510/518/518 502/510/510
f 504/512/512 512/520/520 511/519/519 503/511/511
f 505/506/506 513/514/514 512/520/520 504/512/512
f 506/513/513 514/521/521 521/522/522 513/514/514
f 507/515/515 515/523/523 514/521/521 506/513/513
f 508/516/516 516/524/524 515/523/523 507/515/515
f 509/517/517 517/525/525 516/524/524 508/516/516
f 510/518/518 518/526/526 517/525/525 509/517/517
f 511/519/519 519/527/527 518/526/526 510/518/518
f 512/520/520 520/528/528 519/527/527 511/519/519
f 513/514/514 521/522/522 520/528/528 512/520/520
f 519/527/529 520/528/528 522/529/530
f 518/526/526 519/527/529 522/529/530
f 521/522/522 514/521/521 522/529/530
f 517/525/525 518/526/526 522/529/530
f 516/524/524 517/525/525 522/529/530
f 515/523/523 516/524/524 522/529/530
f 520/528/528 521/522/522 522/529/530
f 514/521/521 515/523/523 522/529/530
f 1/530/531 523/1/1 524/4/4
f 1/530/531 525/5/5 523/1/1
f 1/530/531 526/7/7 525/5/5
f 1/530/531 527/9/9 526/7/7
f 1/530/531 528/11/11 527/9/9
f 1/530/531 529/13/13 528/11/11
f 1/530/531 530/15/15 529/13/13
f 1/530/531 524/4/4 530/15/15
f 535/531/532 542/532/533 541/533/534
f 537/534/535 538/535/536 532/536/537 535/531/532
f 531/537/538 540/538/539 534/539/540
f 531/540/538 534/539/540 537/534/535
f 544/541/541 543/542/542 539/543/543 540/544/544
f 531/540/538 537/534/535 535/531/532
f 538/535/545 536/545/546 546/546/547 532/536/547
f 533/547/548 547/548/548 536/545/546 538/535/545
f 543/549/542 542/550/549 546/551/550 545/552/551
f 540/538/539 539/553/552 534/539/540
f 539/553/552 547/548/553 533/547/553 534/539/540
f 541/554/554 542/550/549 543/549/542 544/555/541
f 534/539/540 533/547/555 538/535/536 537/534/535
f 536/556/556 545/552/551 546/551/550
f 546/546/557 542/532/533 535/531/532 532/536/557
f 536/557/556 547/558/558 545/559/551
f 544/555/559 531/560/538 541/554/534
f 540/544/539 531/561/538 544/541/560
f 539/543/543 543/542/542 545/559/551 547/558/558
f 531/562/538 535/531/532 541/533/534
f 552/563/561 559/564/562 558/565/563
f 554/566/564 555/567/565 549/568/566 552/563/561
f 548/569/567 557/570/568 551/571/569
f 548/572/567 551/571/569 554/566/564
f 561/573/570 560/574/571 556/575/572 557/576/573
f 548/572/567 554/566/564 552/563/561
f 555/567/574 553/577/574 563/578/575 549/568/575
f 550/579/576 564/580/576 553/577/574 555/567/574
f 560/581/571 559/582/577 563/583/578 562/584/579
f 557/570/568 556/585/580 551/571/569
f 556/585/580 564/580/581 550/579/581 551/571/569
f 558/586/582 559/582/577 560/581/571 561/587/570
f 551/571/569 550/579/583 555/567/565 554/566/564
f 553/588/584 562/584/579 563/583/578
f 563/578/585 559/564/562 552/563/561 549/568/585
f 553/589/584 564/590/586 562/591/579
f 561/587/587 548/592/567 558/586/563
f 557/576/568 548/593/567 561/573/588
f 556/575/572 560/574/571 562/591/579 564/590/586
f 548/594/567 552/563/561 558/565/563
f 569/595/589 576/596/590 575/597/591
f 571/598/592 572/599/593 566/600/594 569/595/589
f 565/601/595 574/602/596 568/603/597
f 565/604/595 568/603/597 571/598/592
f 578/605/598 577/606/599 573/607/600 574/608/601
f 565/604/595 571/598/592 569/595/589
f 572/599/602 570/609/603 580/610/604 566/600/604
f 567/611/605 581/612/605 570/609/603 572/599/602
f 577/613/599 576/614/606 580/615/607 579/616/608
f 574/602/596 573/617/609 568/603/597
f 573/617/609 581/612/610 567/611/610 568/603/597
f 575/618/611 576/614/606 577/613/599 578/619/598
f 568/603/597 567/611/612 572/599/593 571/598/592
f 570/620/613 579/616/608 580/615/607
f 580/610/614 576/596/590 569/595/589 566/600/614
f 570/621/613 581/622/615 579/623/608
f 578/619/616 565/624/595 575/618/591
f 574/608/596 565/625/595 578/605/617
f 573/607/600 577/606/599 579/623/608 581/622/615
f 565/626/595 569/595/589 575/597/591
f 586/627/618 593/628/619 592/629/620
f 588/630/621 589/631/622 583/632/623 586/627/618
f 582/633/624 591/634/625 585/635/626
f 582/636/624 585/635/626 588/630/621
f 595/637/627 594/638/628 590/639/629 591/640/630
f 582/636/624 588/630/621 586/627/618
f 589/631/631 587/641/631 597/642/632 583/632/632
f 584/643/633 598/644/633 587/641/631 589/631/631
f 594/645/628 593/646/634 597/647/635 596/648/636
f 591/634/625 590/649/637 585/635/626
f 590/649/637 598/644/638 584/643/638 585/635/626
f 592/650/639 593/646/634 594/645/628 595/651/627
f 585/635/626 584/643/640 589/631/622 588/630/621
f 587/652/641 596/648/636 597/647/635
f 597/642/642 593/628/619 586/627/618 583/632/642
f 587/653/641 598/654/643 596/655/636
f 595/651/644 582/656/624 592/650/620
f 591/640/625 582/657/624 595/637/645
f 590/639/629 594/638/628 596/655/636 598/654/643
f 582/658/624 586/627/618 592/629/620
f 603/659/646 610/660/647 609/661/648
f 605/662/649 606/663/650 600/664/651 603/659/646
f 599/665/652 608/666/653 602/667/654
f 599/668/652 602/667/654 605/662/649
f 612/669/655 611/670/656 607/671/657 608/672/658
f 599/668/652 605/662/649 603/659/646
f 606/663/659 604/673/660 614/674/661 600/664/661
f 601/675/662 615/676/662 604/673/660 606/663/659
f 611/677/656 610/678/663 614/679/664 613/680/665
f 608/666/653 607/681/666 602/667/654
f 607/681/666 615/676/667 601/675/667 602/667/654
f 609/682/668 610/678/663 611/677/656 612/683/655
f 602/667/654 601/675/669 606/663/650 605/662/649
f 604/684/670 613/680/665 614/679/664
f 614/674/671 610/660/647 603/659/646 600/664/671
f 604/685/670 615/686/672 613/687/665
f 612/683/673 599/688/652 609/682/648
f 608/672/653 599/689/652 612/669/674
f 607/671/657 611/670/656 613/687/665 615/686/672
f 599/690/652 603/659/646 609/661/648
f 620/691/675 627/692/676 626/693/677
f 622/694/678 623/695/679 617/696/680 620/691/675
f 616/697/681 625/698/682 619/699/683
f 616/700/681 619/699/683 622/694/678
f 629/701/684 628/702/685 624/703/686 625/704/687
f 616/700/681 622/694/678 620/691/675
f 623/695/688 621/705/689 631/706/690 617/696/690
f 618/707/691 632/708/691 621/705/689 623/695/688
f 628/709/685 627/710/692 631/711/693 630/712/694
f 625/698/682 624/713/695 619/699/683
f 624/713/695 632/708/696 618/707/696 619/699/683
f 626/714/697 627/710/692 628/709/685 629/715/684
f 619/699/683 618/707/698 623/695/679 622/694/678
f 621/716/699 630/712/694 631/711/693
f 631/706/700 627/692/676 620/691/675 617/696/700
f 621/717/699 632/718/701 630/719/694
f 629/715/702 616/720/681 626/714/677
f 625/704/682 616/721/681 629/701/703
f 624/703/686 628/702/685 630/719/694 632/718/701
f 616/722/681 620/691/675 626/693/677
f 637/723/704 644/724/705 643/725/706
f 639/726/707 640/727/708 634/728/709 637/723/704
f 633/729/710 642/730/711 636/731/712
f 633/732/710 636/731/712 639/726/707
f 646/733/713 645/734/714 641/735/715 642/736/716
f 633/732/710 639/726/707 637/723/704
f 640/727/717 638/737/718 648/738/719 634/728/719
f 635/739/720 649/740/720 638/737/718 640/727/717
f 645/741/714 644/742/721 648/743/722 647/744/723
f 642/730/711 641/745/724 636/731/712
f 641/745/724 649/740/725 635/739/725 636/731/712
f 643/746/726 644/742/721 645/741/714 646/747/713
f 636/731/712 635/739/727 640/727/708 639/726/707
f 638/748/728 647/744/723 648/743/722
f 648/738/729 644/724/705 637/723/704 634/728/729
f 638/749/728 649/750/730 647/751/723
f 646/747/731 633/752/710 643/746/706
f 642/736/711 633/753/710 646/733/732
f 641/735/715 645/734/714 647/751/723 649/750/730
f 633/754/710 637/723/704 643/725/706
usemtl marksman_ghillie
f 650/755/733 651/756/733 653/757/734 652/758/735
f 652/758/735 653/757/734 655/759/736 654/760/737
f 654/760/737 655/759/736 657/761/738 656/762/739
f 656/762/739 657/761/738 659/763/740 658/764/741
f 658/764/741 659/763/740 661/765/742 660/766/743
f 660/766/743 661/765/742 663/767/744 662/768/745
f 662/768/745 663/767/744 665/769/746 664/770/747
f 664/770/747 665/769/746 667/771/748 666/772/749
f 666/773/749 667/774/748 669/775/750 668/776/751
f 668/776/751 669/775/750 651/756/733 650/755/733
f 670/777/752 671/778/752 673/779/753 672/780/754
f 672/780/754 673/779/753 675/781/755 674/782/756
f 674/782/756 675/781/755 677/783/757 676/784/758
f 676/784/758 677/783/757 679/785/759 678/786/760
f 678/786/760 679/785/759 681/787/761 680/788/762
f 680/788/762 681/787/761 683/789/763 682/790/764
f 682/790/764 683/789/763 685/791/765 684/792/765
f 686/793/766 687/794/766 689/795/767 688/796/768
f 688/796/768 689/795/767 691/797/769 690/798/769
f 690/798/770 691/797/770 693/799/771 692/800/772
f 692/800/772 693/799/771 695/801/773 694/802/774
f 694/802/774 695/801/773 697/803/775 696/804/776
f 696/804/776 697/803/775 699/805/777 698/806/777
