# Blender v3.4.1 OBJ File: 'RPG_Tool_Bits_Export.blend'
# www.blender.org
mtllib anvil.mtl
o anvil
v -0.375000 0.100000 0.375000
v -0.375000 0.100000 -0.375000
v 0.375000 0.100000 0.375000
v 0.375000 0.100000 -0.375000
v -0.375000 0.000000 -0.375000
v -0.375000 0.000000 0.375000
v 0.375000 0.000000 -0.375000
v 0.375000 0.000000 0.375000
v 0.712500 0.650000 -0.089928
v 0.712500 0.650000 0.089928
v -0.487500 0.500000 0.242282
v -0.487500 0.500000 -0.242282
v -0.247734 0.168289 0.247734
v -0.203640 0.233418 0.203640
v -0.203640 0.233418 -0.203640
v 0.203640 0.233418 0.203640
v 0.247734 0.168289 0.247734
v 0.203640 0.233418 -0.203640
v 0.247734 0.168289 -0.247734
v -0.314728 0.455545 0.281250
v -0.244558 0.413079 0.215716
v -0.314728 0.455545 -0.281250
v -0.204545 0.364219 -0.187500
v -0.244558 0.413079 -0.215716
v 0.243322 0.413079 -0.215716
v 0.204214 0.364219 -0.187500
v 0.204214 0.364219 0.187500
v 0.243322 0.413079 0.215716
v -0.187500 0.315000 0.187500
v 0.187500 0.315000 0.187500
v -0.187500 0.315000 -0.187500
v 0.187500 0.315000 -0.187500
v 0.176513 0.455545 -0.281250
v 0.446347 0.520692 -0.215625
v 0.311772 0.474626 -0.271705
v 0.176513 0.455545 0.281250
v 0.311772 0.474626 0.271705
v -0.886731 0.721913 0.089780
v -0.886731 0.721913 -0.089780
v -0.464194 0.631472 0.193197
v -0.464194 0.631472 -0.193197
v -0.904704 0.703500 0.054971
v -0.464194 0.516968 -0.054971
v -0.904704 0.703500 -0.054971
v -0.464194 0.516968 0.054971
v -0.314728 0.781250 0.351562
v -0.314728 0.800000 -0.327316
v -0.314728 0.781250 -0.351562
v 0.693750 0.800000 -0.098442
v 0.712500 0.781250 -0.112410
v 0.693750 0.800000 0.098442
v 0.712500 0.781250 0.112410
v -0.468750 0.800000 0.283900
v -0.487500 0.781250 0.302852
v -0.468750 0.800000 -0.283900
v -0.487500 0.781250 -0.302852
v 0.446377 0.800000 -0.238563
v 0.446375 0.781253 -0.263534
v 0.176513 0.781250 -0.351562
v 0.176513 0.800000 -0.327267
v 0.311780 0.800000 -0.310848
v 0.176513 0.800000 0.327267
v 0.176513 0.781250 0.351562
v 0.446375 0.781253 0.263534
v 0.446377 0.800000 0.238563
v 0.311780 0.781251 0.335510
v 0.311780 0.800000 0.310848
v -0.879875 0.774691 0.062627
v -0.886731 0.751667 0.089780
v -0.886731 0.751667 -0.089780
v -0.464194 0.774691 0.168975
v -0.464194 0.751667 0.193197
v -0.464194 0.751667 -0.193197
v -0.464194 0.774691 -0.168975
v -0.904704 0.751667 -0.054971
v -0.879875 0.774691 -0.062627
v -0.904704 0.751667 0.054971
v 0.187500 0.100000 -0.375000
v -0.187500 0.100000 -0.375000
v -0.187500 0.100000 0.375000
v 0.187500 0.100000 0.375000
v 0.187500 0.000000 -0.375000
v -0.187500 0.000000 -0.375000
v -0.187500 0.000000 0.375000
v 0.187500 0.000000 0.375000
v 0.101820 0.233418 -0.203640
v -0.101820 0.233418 -0.203640
v 0.123867 0.168289 -0.247734
v 0.000000 0.168289 -0.247734
v -0.123867 0.168289 -0.247734
v -0.101820 0.233418 0.203640
v 0.101820 0.233418 0.203640
v -0.123867 0.168289 0.247734
v 0.000000 0.168289 0.247734
v 0.123867 0.168289 0.247734
v -0.375000 0.100000 -0.187500
v -0.375000 0.100000 0.187500
v 0.375000 0.100000 0.187500
v 0.375000 0.100000 -0.187500
v -0.375000 0.000000 -0.187500
v -0.375000 0.000000 0.187500
v 0.375000 0.000000 0.187500
v 0.375000 0.000000 -0.187500
v -0.203640 0.233418 -0.101820
v -0.203640 0.233418 0.101820
v -0.247734 0.168289 -0.123867
v -0.247734 0.168289 0.000000
v -0.247734 0.168289 0.123867
v 0.203640 0.233418 0.101820
v 0.203640 0.233418 -0.101820
v 0.247734 0.168289 0.123867
v 0.247734 0.168289 0.000000
v 0.247734 0.168289 -0.123867
v 0.094582 0.100000 -0.314427
v -0.094584 0.100000 -0.314427
v -0.000000 0.168252 -0.247736
v -0.000001 0.100000 -0.288887
v -0.094584 0.100000 0.314427
v 0.094582 0.100000 0.314427
v -0.000000 0.168252 0.247736
v -0.000001 0.100000 0.288887
v -0.094584 0.000000 -0.314427
v 0.094582 0.000000 -0.314427
v -0.000000 0.000000 -0.187538
v -0.000001 0.000000 -0.288887
v 0.094582 0.000000 0.314427
v -0.094584 0.000000 0.314427
v -0.000000 0.000000 0.187538
v -0.000001 0.000000 0.288887
v -0.314428 0.100000 -0.094583
v -0.314428 0.100000 0.094583
v -0.247736 0.168252 0.000000
v -0.288888 0.100000 0.000000
v 0.314427 0.100000 0.094583
v 0.314427 0.100000 -0.094583
v 0.247736 0.168252 0.000000
v 0.288886 0.100000 0.000000
v -0.314428 0.000000 0.094583
v -0.314428 0.000000 -0.094583
v -0.187538 0.000000 0.000000
v -0.288888 0.000000 0.000000
v 0.314427 0.000000 -0.094583
v 0.314427 0.000000 0.094583
v 0.187538 0.000000 0.000000
v 0.288886 0.000000 0.000000
v -0.232868 0.190247 -0.232868
v -0.217335 0.168289 -0.247734
v -0.267831 0.157505 -0.267831
v -0.247734 0.168289 -0.217335
v -0.204545 0.364219 0.157101
v -0.194597 0.335494 0.187500
v -0.174146 0.364219 0.187500
v -0.222130 0.385692 0.199900
v 0.471513 0.532919 0.203740
v 0.446350 0.550590 0.221122
v 0.419590 0.511533 0.226775
v 0.446347 0.520692 0.185226
v -0.284329 0.800000 0.327313
v -0.314728 0.800000 0.296917
v -0.343986 0.800000 0.319069
v -0.314728 0.781404 0.351364
v 0.338587 0.781251 -0.321174
v 0.311779 0.751490 -0.329317
v 0.281593 0.781251 -0.339092
v 0.311780 0.799649 -0.311310
vt 0.807036 0.542301
vt 0.807036 0.542301
vt 0.808635 0.540303
vt 0.808635 0.540303
vt 0.808635 0.561871
vt 0.807036 0.563869
vt 0.826522 0.563869
vt 0.824960 0.561871
vt 0.804234 0.544037
vt 0.804234 0.544037
vt 0.797334 0.545854
vt 0.797334 0.545854
vt 0.821751 0.551817
vt 0.826698 0.551817
vt 0.831781 0.549025
vt 0.824292 0.549025
vt 0.809315 0.559809
vt 0.801827 0.559809
vt 0.801827 0.553677
vt 0.809315 0.553677
vt 0.809315 0.549025
vt 0.811857 0.551817
vt 0.806910 0.551817
vt 0.801827 0.549025
vt 0.826698 0.541033
vt 0.826698 0.541033
vt 0.831781 0.538241
vt 0.831781 0.538241
vt 0.824960 0.540303
vt 0.824960 0.540303
vt 0.824292 0.536656
vt 0.824292 0.536656
vt 0.831781 0.515933
vt 0.831781 0.515933
vt 0.824292 0.515933
vt 0.824292 0.559809
vt 0.831781 0.559809
vt 0.831781 0.553677
vt 0.824292 0.553677
vt 0.801827 0.549025
vt 0.801827 0.549025
vt 0.801827 0.542893
vt 0.801827 0.542893
vt 0.831781 0.549025
vt 0.831781 0.549025
vt 0.831781 0.542893
vt 0.831781 0.542893
vt 0.833562 0.578678
vt 0.834630 0.580274
vt 0.834631 0.589704
vt 0.804234 0.589704
vt 0.804234 0.576389
vt 0.823853 0.576389
vt 0.823853 0.589704
vt 0.823853 0.576389
vt 0.804234 0.576389
vt 0.804234 0.589704
vt 0.823853 0.589704
vt 0.834632 0.601255
vt 0.834632 0.601255
vt 0.844511 0.601255
vt 0.844511 0.601255
vt 0.804234 0.565605
vt 0.823853 0.565605
vt 0.804234 0.601255
vt 0.804234 0.601255
vt 0.798083 0.601255
vt 0.798083 0.601255
vt 0.834630 0.579052
vt 0.834631 0.589704
vt 0.845260 0.589704
vt 0.845260 0.584338
vt 0.828050 0.589704
vt 0.829256 0.588487
vt 0.829256 0.577169
vt 0.797334 0.578206
vt 0.797334 0.589704
vt 0.804234 0.565605
vt 0.807036 0.563869
vt 0.826522 0.563869
vt 0.823853 0.565605
vt 0.809849 0.561871
vt 0.809032 0.559742
vt 0.809315 0.558224
vt 0.807932 0.562749
vt 0.824937 0.543696
vt 0.824937 0.543696
vt 0.820870 0.554480
vt 0.824937 0.554480
vt 0.824937 0.543696
vt 0.824937 0.543696
vt 0.812737 0.554480
vt 0.808671 0.554480
vt 0.835635 0.547200
vt 0.834630 0.546700
vt 0.834630 0.546700
vt 0.826522 0.542301
vt 0.826522 0.542301
vt 0.809315 0.536656
vt 0.809315 0.536656
vt 0.808671 0.543696
vt 0.808671 0.543696
vt 0.820870 0.554480
vt 0.824937 0.554480
vt 0.824292 0.558224
vt 0.809315 0.558224
vt 0.824292 0.558224
vt 0.797334 0.589704
vt 0.797334 0.578206
vt 0.808671 0.543696
vt 0.807503 0.541931
vt 0.806910 0.541033
vt 0.806910 0.541033
vt 0.829256 0.566385
vt 0.797334 0.567422
vt 0.797334 0.567422
vt 0.797334 0.578920
vt 0.797334 0.578920
vt 0.829256 0.577169
vt 0.829256 0.589704
vt 0.780458 0.587569
vt 0.780458 0.588560
vt 0.779740 0.588560
vt 0.779740 0.586956
vt 0.807932 0.531499
vt 0.808635 0.509053
vt 0.809849 0.530621
vt 0.829256 0.601255
vt 0.829256 0.601255
vt 0.823853 0.601255
vt 0.823853 0.601255
vt 0.804234 0.601255
vt 0.805448 0.601255
vt 0.829256 0.544817
vt 0.829256 0.544817
vt 0.835635 0.579552
vt 0.829256 0.566385
vt 0.833562 0.546326
vt 0.797202 0.589326
vt 0.797334 0.588560
vt 0.780458 0.588560
vt 0.780652 0.589326
vt 0.797334 0.588560
vt 0.797334 0.584558
vt 0.797334 0.580746
vt 0.779740 0.586956
vt 0.780458 0.587569
vt 0.797334 0.584558
vt 0.797334 0.580746
vt 0.779740 0.588560
vt 0.780573 0.600110
vt 0.780891 0.600110
vt 0.797334 0.600110
vt 0.797334 0.600110
vt 0.845260 0.573554
vt 0.845260 0.573554
vt 0.845260 0.578920
vt 0.845260 0.578920
vt 0.797202 0.589326
vt 0.780652 0.589326
vt 0.845260 0.601255
vt 0.845260 0.601255
vt 0.797334 0.601255
vt 0.797334 0.601255
vt 0.804234 0.601255
vt 0.830327 0.589704
vt 0.823853 0.601255
vt 0.829255 0.601255
vt 0.829256 0.601255
vt 0.828050 0.601255
vt 0.823853 0.601255
vt 0.834626 0.601255
vt 0.804234 0.601255
vt 0.834632 0.601255
vt 0.780304 0.589326
vt 0.779988 0.589326
vt 0.779740 0.589326
vt 0.779740 0.589326
vt 0.830326 0.601255
vt 0.812737 0.554480
vt 0.821751 0.551817
vt 0.826698 0.551817
vt 0.816804 0.551817
vt 0.816804 0.551817
vt 0.811857 0.551817
vt 0.809315 0.549025
vt 0.801827 0.559809
vt 0.809315 0.559809
vt 0.809315 0.553677
vt 0.801827 0.553677
vt 0.813026 0.559809
vt 0.809315 0.538241
vt 0.809315 0.532109
vt 0.813026 0.553677
vt 0.816804 0.551816
vt 0.813026 0.549025
vt 0.809315 0.515933
vt 0.801827 0.515933
vt 0.801827 0.515933
vt 0.813026 0.515933
vt 0.801827 0.549025
vt 0.801827 0.527457
vt 0.801827 0.521325
vt 0.801827 0.542893
vt 0.824292 0.549025
vt 0.813026 0.549025
vt 0.816804 0.551816
vt 0.824292 0.538241
vt 0.820581 0.559809
vt 0.820581 0.553677
vt 0.824292 0.532109
vt 0.831781 0.559809
vt 0.824292 0.559809
vt 0.824292 0.553677
vt 0.831781 0.553677
vt 0.813026 0.515933
vt 0.801827 0.515933
vt 0.801827 0.515933
vt 0.809315 0.515933
vt 0.820581 0.549025
vt 0.806107 0.540592
vt 0.801827 0.538241
vt 0.809315 0.538241
vt 0.813026 0.559809
vt 0.813026 0.553677
vt 0.809315 0.532109
vt 0.820581 0.559809
vt 0.824292 0.538241
vt 0.824292 0.532109
vt 0.820581 0.553677
vt 0.820581 0.515933
vt 0.831781 0.515933
vt 0.806910 0.541033
vt 0.806910 0.541033
vt 0.801827 0.538241
vt 0.801827 0.538241
vt 0.801827 0.538241
vt 0.801827 0.538241
vt 0.801827 0.527457
vt 0.801827 0.549025
vt 0.801827 0.542893
vt 0.801827 0.521325
vt 0.808671 0.543696
vt 0.826698 0.541033
vt 0.826698 0.541033
vt 0.826698 0.541033
vt 0.806910 0.541033
vt 0.831781 0.549025
vt 0.831781 0.542893
vt 0.831781 0.542893
vt 0.826701 0.541032
vt 0.831781 0.538241
vt 0.801827 0.549025
vt 0.801827 0.542893
vt 0.801827 0.542893
vt 0.831781 0.538241
vt 0.806907 0.541032
vt 0.801827 0.538241
vt 0.824292 0.515933
vt 0.831781 0.515933
vt 0.831781 0.515933
vt 0.831781 0.515933
vt 0.820581 0.515933
vt 0.831781 0.538241
vt 0.831781 0.538241
vt 0.831781 0.527457
vt 0.831781 0.549025
vt 0.831781 0.542893
vt 0.831781 0.521325
vt 0.831781 0.549025
vt 0.831781 0.527457
vt 0.831781 0.521325
vt 0.831781 0.542893
vt 0.819699 0.547217
vt 0.816144 0.549025
vt 0.816144 0.549025
vt 0.816804 0.549025
vt 0.816144 0.515933
vt 0.816804 0.515933
vt 0.816804 0.515933
vt 0.816144 0.515933
vt 0.816804 0.515933
vt 0.798535 0.536433
vt 0.801827 0.538241
vt 0.831781 0.538241
vt 0.801827 0.515933
vt 0.809311 0.515933
vt 0.837499 0.515933
vt 0.831781 0.515933
vt 0.824297 0.515933
vt 0.816804 0.553677
vt 0.816804 0.559809
vt 0.816804 0.553677
vt 0.816804 0.559809
vt 0.831781 0.542893
vt 0.831781 0.549025
vt 0.801827 0.542893
vt 0.801827 0.549025
vt 0.820581 0.549025
vt 0.808671 0.554480
vt 0.801827 0.515933
vt 0.801827 0.515933
vt 0.808124 0.583067
vt 0.806107 0.582626
vt 0.806910 0.572283
vt 0.808635 0.571553
vt 0.809032 0.569424
vt 0.809849 0.593121
vt 0.834630 0.611524
vt 0.833562 0.609928
vt 0.834630 0.577950
vt 0.804234 0.632505
vt 0.803066 0.632505
vt 0.804234 0.632505
vt 0.829256 0.557237
vt 0.828050 0.558454
vt 0.829256 0.570005
vt 0.807503 0.510681
vt 0.808124 0.520567
vt 0.806910 0.509783
vt 0.830326 0.632505
vt 0.829256 0.619737
vt 0.829256 0.632505
vt 0.835635 0.515950
vt 0.834630 0.549024
vt 0.834630 0.515450
vt 0.805448 0.570005
vt 0.804234 0.570005
vt 0.804234 0.570005
vt 0.803066 0.601255
vt 0.845260 0.589704
vt 0.845260 0.584338
vt 0.845260 0.551986
vt 0.845260 0.551986
vt 0.807503 0.552715
vt 0.808124 0.551817
vt 0.806107 0.551376
vt 0.824960 0.561871
vt 0.809032 0.538174
vt 0.807932 0.541181
vn -0.6124 -0.7905 0.0000
vn -0.8624 -0.5062 0.0000
vn -0.8691 -0.4946 -0.0000
vn 0.0000 -0.3298 -0.9441
vn 0.0000 -0.7572 -0.6531
vn 0.0674 -0.7146 -0.6963
vn 0.0000 -0.3286 -0.9445
vn -0.3598 -0.9330 0.0000
vn -0.2492 -0.9685 0.0000
vn -0.0470 0.6837 -0.7283
vn 0.0000 0.7999 -0.6001
vn 0.0000 0.8812 -0.4728
vn -0.0975 0.8558 -0.5080
vn 0.0000 0.0000 1.0000
vn 0.0975 0.8558 0.5080
vn 0.0470 0.6837 0.7283
vn 0.0000 0.7999 0.6001
vn 0.0000 0.8812 0.4728
vn 0.7283 0.6837 -0.0470
vn 0.6001 0.7999 0.0000
vn 0.4728 0.8812 0.0000
vn 0.5080 0.8558 -0.0975
vn 0.8668 -0.4986 0.0000
vn 0.9987 -0.0506 0.0000
vn 0.0000 -1.0000 0.0000
vn 0.0000 0.0000 -1.0000
vn -1.0000 0.0000 0.0000
vn 1.0000 0.0000 0.0000
vn 0.4441 -0.1715 0.8794
vn 0.4536 -0.1612 0.8765
vn 0.4655 -0.1645 0.8696
vn -0.1314 -0.2091 0.9690
vn -0.1250 -0.2093 0.9698
vn 0.0512 -0.2091 0.9766
vn 0.0529 -0.2090 0.9765
vn 0.0507 -0.2093 -0.9765
vn -0.1250 -0.2093 -0.9698
vn -0.1314 -0.2091 -0.9690
vn 0.0524 -0.2092 -0.9765
vn 0.0000 1.0000 0.0000
vn 0.0000 -0.8392 -0.5438
vn 0.0427 -0.8180 -0.5736
vn 0.4615 -0.1649 -0.8717
vn 0.4641 -0.1638 -0.8705
vn 0.4852 -0.1547 -0.8606
vn 0.1083 -0.2055 -0.9726
vn 0.2923 -0.1948 -0.9363
vn 0.2611 -0.1945 -0.9455
vn -0.2653 -0.2032 -0.9425
vn 0.0000 -0.8392 0.5438
vn -0.0000 -0.7572 0.6531
vn 0.0674 -0.7146 0.6963
vn 0.0427 -0.8180 0.5736
vn -0.0000 -0.2841 0.9588
vn 0.0000 0.0937 0.9956
vn -0.0000 -0.5001 0.8660
vn 0.9229 0.3850 0.0000
vn 0.9063 0.4226 0.0000
vn 0.0000 0.3850 -0.9229
vn 0.0000 0.4226 -0.9063
vn 0.0000 0.3850 0.9229
vn 0.0000 0.4226 0.9063
vn 0.4370 -0.8995 0.0000
vn 0.3764 -0.9264 0.0000
vn 0.3670 -0.9302 -0.0000
vn 0.7102 -0.7040 -0.0000
vn -0.9986 -0.0534 0.0000
vn -0.9986 -0.0535 -0.0000
vn -0.9229 0.3850 0.0000
vn -0.9063 0.4226 0.0000
vn 0.0000 0.0939 0.9956
vn 0.0000 0.0937 -0.9956
vn 0.0000 0.0939 -0.9956
vn -0.2653 -0.2032 0.9425
vn -0.8281 0.5606 0.0000
vn -0.6462 0.7632 0.0000
vn -0.7283 0.6837 0.0470
vn 0.1514 -0.7520 0.6416
vn 0.2626 -0.1950 0.9450
vn 0.2756 -0.1938 0.9415
vn -0.8885 0.0000 0.4588
vn -0.9717 0.0000 0.2361
vn -0.9803 0.0000 0.1975
vn -0.3177 -0.8934 0.3177
vn -0.0872 0.7882 0.6091
vn 0.0375 0.7922 0.6091
vn 0.0001 0.7911 0.6117
vn 0.4929 -0.8701 -0.0000
vn 0.4846 -0.1559 0.8607
vn 0.1514 -0.7520 -0.6416
vn 0.3239 -0.9461 -0.0000
vn -0.1618 0.7455 -0.6466
vn -0.3798 0.7342 -0.5627
vn -0.5229 0.7639 -0.3782
vn -0.2377 0.0000 0.9713
vn -0.3718 -0.8824 -0.2883
vn -0.3713 -0.8813 -0.2922
vn -0.3088 -0.7385 -0.5994
vn -0.3713 -0.8813 0.2922
vn -0.3718 -0.8824 0.2883
vn -0.3088 -0.7385 0.5994
vn -0.9803 0.0000 -0.1975
vn -0.9717 0.0000 -0.2361
vn -0.8885 0.0000 -0.4588
vn -0.1618 0.7455 0.6466
vn -0.5229 0.7639 0.3782
vn -0.3798 0.7342 0.5627
vn 0.5575 0.7774 -0.2913
vn 0.5575 0.7774 0.2913
vn 0.5344 0.7801 0.3254
vn 0.5344 0.7801 -0.3254
vn -0.7071 0.7071 0.0000
vn -0.0790 0.7887 -0.6097
vn -0.1700 0.7795 -0.6029
vn -0.0908 0.7879 -0.6091
vn 0.4511 -0.1747 -0.8752
vn 0.0353 0.7922 0.6092
vn 0.1716 0.7837 0.5970
vn 0.2080 0.7787 0.5919
vn 0.1853 0.7819 -0.5952
vn 0.0729 0.7915 -0.6068
vn 0.0354 0.7919 -0.6096
vn 0.0376 0.7920 -0.6094
vn 0.2081 0.7787 -0.5919
vn 0.3135 0.7575 0.5726
vn 0.3176 0.7564 0.5719
vn -0.0790 0.7889 0.6094
vn -0.1700 0.7795 0.6030
vn -0.1700 0.7794 0.6030
vn 0.3135 0.7577 -0.5724
vn 0.3176 0.7564 -0.5718
vn -0.6955 0.7063 -0.1316
vn -0.2377 0.0000 -0.9713
vn -0.6955 0.7063 0.1316
vn 0.3073 0.7595 -0.5734
vn -0.0470 0.6837 0.7283
vn 0.0000 0.6321 -0.7749
vn 0.0000 0.6321 0.7749
vn 0.0470 0.6837 -0.7283
vn 0.0975 0.8558 -0.5080
vn 0.4084 -0.0000 0.9128
vn 0.5461 -0.0000 0.8377
vn 0.0000 0.6531 -0.7573
vn 0.2341 0.6910 -0.6839
vn -0.9128 -0.0000 0.4084
vn -0.8377 -0.0000 0.5461
vn -0.0975 0.8558 0.5080
vn 0.2341 0.6910 0.6839
vn 0.0000 0.6531 0.7573
vn -0.5461 0.0000 0.8377
vn -0.4084 0.0000 0.9128
vn -0.2341 0.6910 0.6839
vn -0.4728 0.8812 0.0000
vn 0.5461 0.0000 -0.8377
vn 0.4084 0.0000 -0.9128
vn -0.4084 -0.0000 -0.9128
vn -0.5461 -0.0000 -0.8377
vn -0.6001 0.7999 0.0000
vn -0.7283 0.6837 -0.0470
vn -0.5080 0.8558 -0.0975
vn -0.5080 0.8558 0.0975
vn -0.6839 0.6910 0.2341
vn -0.8377 0.0000 -0.5461
vn -0.9128 0.0000 -0.4084
vn 0.7283 0.6837 0.0470
vn 0.7749 0.6321 0.0000
vn -0.7749 0.6321 0.0000
vn 0.7573 0.6531 -0.0000
vn 0.6839 0.6910 0.2341
vn 0.6839 0.6910 -0.2341
vn -0.7573 0.6531 -0.0000
vn -0.6839 0.6910 -0.2341
vn 0.5080 0.8558 0.0975
vn 0.8377 0.0000 0.5461
vn 0.9128 -0.0000 0.4084
vn 0.9128 0.0000 -0.4084
vn 0.8377 0.0000 -0.5461
vn -0.2341 0.6910 -0.6839
vn 0.0000 0.5163 -0.8564
vn 0.0000 0.5163 0.8564
vn -0.8564 0.5163 -0.0000
vn 0.8564 0.5163 -0.0000
vn -0.1493 0.9775 -0.1493
vn -0.6316 0.4497 0.6316
vn 0.7825 -0.4785 0.3984
vn 0.2377 0.9192 0.3140
vn 0.5442 0.2938 -0.7859
vn -0.7069 -0.0215 -0.7069
vn -0.1038 0.3483 -0.9316
vn -0.0970 -0.7648 0.6370
vn -0.3075 0.9005 0.3076
vn -0.1699 0.7796 0.6028
vn 0.4853 -0.1544 0.8606
vn 0.0000 0.5606 -0.8281
vn 0.0000 0.7632 -0.6462
vn 0.0000 -0.3286 0.9445
vn -0.9449 -0.3273 -0.0000
vn -0.7737 -0.6336 0.0000
usemtl tools
s 1
f 21/1/1 24/2/1 23/3/2 150/4/3
f 23/5/4 24/6/5 25/7/6 26/8/7
f 22/9/8 20/10/8 11/11/9 12/12/9
f 88/13/10 19/14/11 4/15/12 78/16/13
f 80/17/14 1/18/14 6/19/14 84/20/14
f 80/21/15 93/22/16 13/23/17 1/24/18
f 111/25/19 17/26/20 3/27/21 98/28/22
f 26/29/23 27/30/23 30/31/24 32/32/24
f 102/33/25 8/34/25 85/35/25
f 78/36/26 4/37/26 7/38/26 82/39/26
f 96/40/27 2/41/27 5/42/27 100/43/27
f 98/44/28 3/45/28 8/46/28 102/47/28
f 156/48/29 155/49/30 64/50/31
f 46/51/32 20/52/33 36/53/34 63/54/35
f 33/55/36 22/56/37 48/57/38 59/58/39
f 57/59/40 65/60/40 51/61/40 49/62/40
f 25/7/6 24/6/5 22/63/41 33/64/42
f 159/65/40 47/66/40 55/67/40 53/68/40
f 34/69/43 58/70/44 50/71/45 9/72/45
f 164/73/46 163/74/47 35/75/48
f 48/57/38 22/56/37 12/76/49 56/77/49
f 20/78/50 21/79/51 28/80/52 36/81/53
f 152/82/54 151/83/14 29/84/55
f 21/79/51 153/85/56 152/82/54
f 110/86/57 18/87/58 32/32/24
f 86/88/59 18/89/60 19/14/11 88/13/10
f 109/90/57 16/91/58 17/26/20 111/25/19
f 91/92/61 14/93/62 13/23/17 93/22/16
f 20/10/8 22/9/8 24/2/1 21/1/1
f 154/94/63 157/95/64 34/96/65
f 25/97/66 28/98/66 27/30/23 26/29/23
f 150/4/3 23/3/2 31/99/67 29/100/68
f 105/101/69 14/102/70 29/100/68
f 92/103/61 16/104/62 30/105/71
f 31/106/72 23/5/4 26/8/7 32/107/73
f 20/52/33 46/51/32 54/108/74 11/109/74
f 15/110/70 146/111/75 149/112/76 106/113/77
f 37/114/78 36/81/53 28/80/52
f 12/115/27 11/116/27 54/117/27 56/118/27
f 37/119/79 66/120/80 63/54/35 36/53/34
f 38/121/81 69/122/81 77/123/82 42/124/83
f 153/125/84 150/126/84 152/127/84
f 61/128/40 67/129/40 65/60/40 57/59/40
f 60/130/40 62/131/40 67/129/40 61/128/40
f 161/132/85 62/131/86 158/133/87
f 28/98/66 25/97/66 35/134/88 37/135/88
f 64/50/31 155/49/30 154/136/89
f 33/64/42 35/137/90 25/7/6
f 156/138/91 34/96/65 157/95/64
f 74/139/92 73/140/92 70/141/93 76/142/94
f 72/143/95 69/122/95 38/121/95 40/144/95
f 43/145/96 44/146/97 39/147/98 41/148/98
f 42/124/99 45/149/100 40/144/101 38/121/101
f 44/146/102 75/150/103 70/141/104 39/147/104
f 45/149/100 42/124/99 44/146/97 43/145/96
f 76/151/40 68/152/40 71/153/40 74/154/40
f 10/155/28 9/156/28 50/157/28 52/158/28
f 71/159/105 68/160/106 69/122/107 72/143/105
f 42/124/83 77/123/82 75/150/103 44/146/102
f 49/62/108 51/61/109 52/161/110 50/162/111
f 53/68/112 55/67/112 56/163/112 54/164/112
f 62/131/40 159/65/40 158/133/40
f 48/165/113 56/163/114 55/67/114 47/66/115
f 162/166/116 35/75/48 163/74/47
f 63/167/117 66/168/118 67/129/119 62/131/86
f 165/169/120 164/170/121 59/171/122 60/130/123 61/128/124
f 66/168/118 64/172/125 65/60/126 67/129/119
f 47/66/115 60/130/123 59/171/122 48/165/113
f 46/173/127 53/68/128 54/164/129
f 50/162/111 58/174/130 57/59/131 49/62/108
f 64/172/125 52/161/110 51/61/109 65/60/126
f 76/175/94 70/141/93 75/150/132
f 73/140/133 41/148/133 39/147/133 70/141/133
f 68/176/106 77/123/134 69/122/107
f 68/177/106 76/178/94 75/150/132 77/123/134
f 58/174/130 162/179/135 165/169/120 61/128/124 57/59/131
f 31/106/72 32/107/73 86/88/59 87/180/59
f 91/92/61 92/103/61 30/105/71 29/84/55
f 16/104/62 92/103/61 95/181/136 17/182/17
f 86/88/59 89/183/137 87/180/59
f 91/92/61 93/22/16 94/184/138
f 2/41/12 90/185/139 79/186/140
f 86/88/59 88/13/10 89/183/137
f 2/187/26 79/188/26 83/189/26 5/190/26
f 118/191/141 80/192/142 84/193/142 127/194/141
f 90/185/139 89/183/137 116/195/143 115/196/144
f 84/197/25 101/198/25 138/199/25 127/200/25
f 130/201/145 96/202/146 100/203/146 139/204/145
f 3/45/18 17/182/17 95/181/136 81/205/147
f 118/206/148 120/207/149 94/184/138 93/22/16
f 81/208/150 119/209/151 126/210/151 85/211/150
f 3/212/14 81/213/14 85/214/14 8/215/14
f 122/216/25 139/217/25 100/218/25 83/219/25
f 95/181/136 94/184/138 120/207/149 119/220/152
f 106/113/77 149/112/76 148/221/153 2/222/153
f 79/223/154 115/224/155 122/225/155 83/226/154
f 114/227/156 78/228/157 82/229/157 123/230/156
f 126/231/25 143/232/25 102/33/25 85/35/25
f 13/233/158 108/234/159 97/235/160 1/236/153
f 106/113/77 96/237/161 130/238/162
f 97/239/163 131/240/164 138/241/164 101/242/163
f 104/243/69 105/101/69 29/100/68 31/99/67
f 18/87/58 110/86/57 113/244/165 19/245/20
f 109/90/57 111/25/19 112/246/166
f 109/90/57 110/86/57 32/32/24 30/31/24
f 14/102/70 105/101/69 108/234/159 13/233/158
f 104/243/69 106/113/77 107/247/167
f 4/15/28 99/248/28 103/249/28 7/250/28
f 113/244/165 112/246/166 136/251/168 135/252/169
f 1/24/27 97/253/27 101/254/27 6/255/27
f 111/25/19 98/28/22 134/256/170
f 108/234/159 107/247/167 132/257/171 131/258/172
f 82/259/25 7/260/25 103/261/25
f 81/205/147 95/181/136 119/220/152
f 82/259/25 103/261/25 142/262/25 123/263/25
f 19/245/20 113/244/165 99/264/173 4/265/21
f 99/266/174 135/267/175 142/268/175 103/269/174
f 134/270/176 98/271/177 102/272/177 143/273/176
f 114/274/178 117/275/179 116/195/143
f 117/275/179 115/196/144 116/195/143
f 118/206/148 121/276/180 120/207/149
f 121/276/180 119/277/152 120/207/149
f 122/216/25 125/278/25 124/279/25
f 125/278/25 123/280/25 124/279/25
f 126/231/25 129/281/25 128/282/25
f 129/281/25 127/200/25 128/282/25
f 130/283/162 133/284/181 132/257/171
f 133/284/181 131/258/172 132/257/171
f 134/256/170 137/285/182 136/251/168
f 137/285/182 135/252/169 136/251/168
f 138/199/25 141/286/25 140/287/25
f 141/286/25 139/217/25 140/287/25
f 142/288/25 145/289/25 144/290/25
f 145/289/25 143/232/25 144/290/25
f 114/227/156 123/230/156 125/291/26 117/292/26
f 117/292/26 125/291/26 122/225/155 115/224/155
f 118/191/141 127/194/141 129/293/14 121/294/14
f 121/294/14 129/293/14 126/210/151 119/209/151
f 134/270/176 143/273/176 145/295/28 137/296/28
f 137/296/28 145/295/28 142/268/175 135/267/175
f 130/201/145 139/204/145 141/297/27 133/298/27
f 133/298/27 141/297/27 138/241/164 131/240/164
f 88/13/10 78/16/13 114/299/178
f 80/21/15 118/206/148 93/22/16
f 97/235/160 108/234/159 131/258/172
f 107/247/167 106/113/77 130/238/162 132/257/171
f 79/186/140 90/185/139 115/196/144
f 89/183/137 88/13/10 114/299/178 116/195/143
f 99/264/173 113/244/165 135/252/169
f 112/246/166 111/25/19 134/256/170 136/251/168
f 95/181/136 92/103/61 94/184/138
f 113/244/165 110/86/57 112/246/166
f 16/91/58 109/90/57 30/31/24
f 91/92/61 94/184/138 92/103/61
f 104/243/69 107/247/167 105/101/69
f 18/89/60 86/88/59 32/107/73
f 90/185/139 87/180/59 89/183/137
f 15/300/60 31/106/72 87/180/59
f 15/110/70 104/243/69 31/99/67
f 108/234/159 105/101/69 107/247/167
f 109/90/57 112/246/166 110/86/57
f 14/93/62 91/92/61 29/84/55
f 6/301/25 101/198/25 84/197/25
f 140/287/25 128/282/25 127/200/25 138/199/25
f 124/279/25 140/287/25 139/217/25 122/216/25
f 5/302/25 83/219/25 100/218/25
f 128/282/25 140/287/25 124/279/25 144/290/25
f 144/290/25 143/232/25 126/231/25 128/282/25
f 144/290/25 124/279/25 123/263/25 142/288/25
f 147/303/183 148/304/183 149/305/183
f 150/306/184 151/307/184 152/308/184
f 155/309/185 156/310/185 157/311/185
f 159/312/186 160/313/186 161/314/186
f 163/315/187 164/316/187 165/317/187
f 15/300/60 87/180/59 90/185/139
f 146/318/188 147/319/188 149/320/188
f 162/321/189 163/322/189 165/323/189
f 154/324/190 155/325/190 157/326/190
f 158/327/191 159/328/191 161/329/191
f 160/330/40 159/65/40 53/68/40
f 60/130/40 47/66/40 159/65/40 62/131/40
f 46/173/127 63/167/117 62/131/86 161/132/85
f 161/132/85 160/330/192 53/68/128 46/173/127
f 52/331/193 64/50/31 154/136/89 10/332/193
f 37/119/79 156/48/29 64/50/31 66/120/80
f 10/333/63 154/94/63 34/96/65 9/334/63
f 37/135/88 35/134/88 34/96/65 156/138/91
f 58/70/44 34/69/43 35/75/48 162/166/116
f 59/58/39 164/73/46 35/75/48 33/55/36
f 146/335/194 15/300/60 90/185/139 147/336/195
f 104/243/69 15/110/70 106/113/77
f 96/237/161 106/113/77 2/222/153
f 148/337/12 147/336/195 90/185/139 2/41/12
f 28/80/52 21/79/51 152/82/54 27/338/196
f 27/338/196 152/82/54 29/84/55 30/105/71
f 151/339/197 150/4/3 29/100/68
f 153/340/198 21/1/1 150/4/3
