# Blender v3.4.1 OBJ File: 'RPG_Tool_Bits_Export.blend'
# www.blender.org
mtllib drafting_compass_legRight.mtl
o drafting_compass_legRight
v -0.167774 -0.592660 -0.019549
v -0.162611 -0.602918 -0.011907
v -0.025475 -0.061592 -0.019549
v -0.016115 -0.056188 -0.011907
v -0.167774 -0.592660 0.019549
v -0.162611 -0.602918 0.011907
v -0.025475 -0.061592 0.019549
v -0.016115 -0.056188 0.011907
v -0.069906 -0.049687 -0.019549
v -0.074895 -0.040438 -0.011907
v -0.069906 -0.049687 0.019549
v -0.074895 -0.040438 0.011907
v -0.176403 -0.590310 -0.019549
v -0.180724 -0.598064 -0.011907
v -0.197143 -0.496674 -0.011907
v -0.190780 -0.500727 -0.019549
v -0.202378 -0.563855 -0.011907
v -0.195476 -0.560008 -0.019549
v -0.190780 -0.500727 0.019549
v -0.197143 -0.496674 0.011907
v -0.180724 -0.598064 0.011907
v -0.176403 -0.590310 0.019549
v -0.195476 -0.560008 0.019549
v -0.202378 -0.563855 0.011907
v -0.143326 -0.530947 -0.011907
v -0.150708 -0.528969 -0.019549
v -0.143326 -0.530947 0.011907
v -0.150708 -0.528969 0.019549
v -0.030241 -0.042086 -0.019549
v -0.023999 -0.035847 -0.011907
v -0.030241 -0.042086 0.019549
v -0.023999 -0.035847 0.011907
v -0.057955 -0.026748 0.011907
v -0.055908 -0.035209 0.019549
v -0.055908 -0.035209 -0.019549
v -0.057955 -0.026748 -0.011907
v -0.193725 -0.657321 -0.000000
v -0.186690 -0.631066 0.006209
v -0.169390 -0.566500 0.008050
v -0.190931 -0.629930 0.004390
v -0.174888 -0.565027 0.005692
v -0.192688 -0.629459 -0.000000
v -0.177165 -0.564417 -0.000000
v -0.190931 -0.629930 -0.004391
v -0.174888 -0.565027 -0.005692
v -0.186690 -0.631066 -0.006209
v -0.169390 -0.566500 -0.008050
v -0.182449 -0.632202 -0.004391
v -0.163892 -0.567973 -0.005692
v -0.180692 -0.632673 -0.000000
v -0.161614 -0.568584 -0.000000
v -0.182449 -0.632202 0.004390
v -0.163892 -0.567973 0.005692
v -0.186405 -0.461856 0.044016
v -0.216023 -0.453920 0.044016
v -0.192101 -0.483114 0.038119
v -0.221719 -0.475178 0.038119
v -0.196271 -0.498676 0.022008
v -0.225889 -0.490740 0.022008
v -0.197797 -0.504372 0.000000
v -0.227415 -0.496436 0.000000
v -0.196271 -0.498676 -0.022008
v -0.225889 -0.490740 -0.022008
v -0.192101 -0.483114 -0.038119
v -0.221719 -0.475178 -0.038119
v -0.186405 -0.461856 -0.044016
v -0.216023 -0.453920 -0.044016
v -0.180709 -0.440598 -0.038119
v -0.210327 -0.432662 -0.038119
v -0.176539 -0.425036 -0.022008
v -0.206157 -0.417100 -0.022008
v -0.175013 -0.419340 0.000000
v -0.204631 -0.411404 0.000000
v -0.176539 -0.425036 0.022008
v -0.206157 -0.417100 0.022008
v -0.180709 -0.440598 0.038119
v -0.210327 -0.432662 0.038119
v -0.193895 -0.464302 0.046667
v -0.210759 -0.459783 0.046667
v -0.214721 -0.474569 0.042565
v -0.197857 -0.479088 0.042565
v -0.199785 -0.486283 0.038264
v -0.216649 -0.481764 0.038264
v -0.219550 -0.492588 0.027058
v -0.202685 -0.497107 0.027058
v -0.203798 -0.501262 0.019609
v -0.220663 -0.496743 0.019609
v -0.221725 -0.500705 0.004301
v -0.204860 -0.505224 0.004301
v -0.204860 -0.505224 -0.004301
v -0.221725 -0.500705 -0.004301
v -0.220663 -0.496743 -0.019609
v -0.203798 -0.501262 -0.019609
v -0.202685 -0.497107 -0.027058
v -0.219550 -0.492588 -0.027058
v -0.216649 -0.481764 -0.038264
v -0.199785 -0.486283 -0.038264
v -0.197857 -0.479088 -0.042565
v -0.214721 -0.474569 -0.042565
v -0.210759 -0.459783 -0.046667
v -0.193895 -0.464302 -0.046667
v -0.191668 -0.455993 -0.046667
v -0.208533 -0.451474 -0.046667
v -0.204571 -0.436688 -0.042565
v -0.187706 -0.441207 -0.042565
v -0.185778 -0.434011 -0.038264
v -0.202643 -0.429492 -0.038264
v -0.199743 -0.418668 -0.027058
v -0.182878 -0.423187 -0.027058
v -0.181765 -0.419033 -0.019609
v -0.198630 -0.414514 -0.019609
v -0.197568 -0.410552 -0.004301
v -0.180703 -0.415071 -0.004301
v -0.180703 -0.415071 0.004301
v -0.197568 -0.410552 0.004301
v -0.198630 -0.414514 0.019609
v -0.181765 -0.419033 0.019609
v -0.182878 -0.423187 0.027058
v -0.199743 -0.418668 0.027058
v -0.202643 -0.429492 0.038264
v -0.185778 -0.434011 0.038264
v -0.187706 -0.441207 0.042565
v -0.204571 -0.436688 0.042565
v -0.208533 -0.451474 0.046667
v -0.191668 -0.455993 0.046667
v -0.218606 -0.463562 0.017290
v -0.216023 -0.453920 0.019964
v -0.213439 -0.444278 0.017290
v -0.211548 -0.437219 0.009982
v -0.210856 -0.434636 0.000000
v -0.211548 -0.437219 -0.009982
v -0.213439 -0.444278 -0.017290
v -0.216023 -0.453920 -0.019964
v -0.218606 -0.463562 -0.017290
v -0.220498 -0.470620 -0.009982
v -0.221190 -0.473204 0.000000
v -0.220498 -0.470620 0.009982
v -0.186405 -0.461856 0.000000
v -0.226428 -0.460863 0.016280
v -0.223996 -0.451783 0.018799
v -0.228209 -0.467509 0.009399
v -0.221563 -0.442704 0.016280
v -0.219782 -0.436058 0.009399
v -0.219130 -0.433625 0.000000
v -0.219782 -0.436058 -0.009399
v -0.221563 -0.442704 -0.016280
v -0.223996 -0.451783 -0.018799
v -0.226428 -0.460863 -0.016280
v -0.228209 -0.467509 -0.009399
v -0.228861 -0.469942 0.000000
v -0.223996 -0.451783 0.000000
vt 0.841805 0.659849
vt 0.841805 0.660728
vt 0.841805 0.660728
vt 0.841805 0.659849
vt 0.829930 0.573938
vt 0.829930 0.660728
vt 0.829930 0.660728
vt 0.829930 0.573938
vt 0.841805 0.576419
vt 0.841805 0.660728
vt 0.841805 0.576419
vt 0.833166 0.586134
vt 0.838292 0.589283
vt 0.831421 0.594663
vt 0.831421 0.586129
vt 0.831421 0.594663
vt 0.833166 0.586134
vt 0.840401 0.596852
vt 0.840401 0.596852
vt 0.838292 0.589283
vt 0.831421 0.586129
vt 0.829930 0.564294
vt 0.833589 0.564294
vt 0.833589 0.564294
vt 0.829930 0.564294
vt 0.839399 0.567846
vt 0.839399 0.567846
vt 0.840398 0.680573
vt 0.831421 0.680572
vt 0.831421 0.680572
vt 0.840398 0.680573
vt 0.829930 0.573938
vt 0.829930 0.659846
vt 0.829930 0.573938
vt 0.829930 0.565404
vt 0.840398 0.680573
vt 0.831421 0.680572
vt 0.829930 0.660728
vt 0.829930 0.660728
vt 0.839335 0.567807
vt 0.834198 0.564666
vt 0.834198 0.564666
vt 0.839335 0.567807
vt 0.841679 0.575968
vt 0.839555 0.568402
vt 0.839555 0.568402
vt 0.841679 0.575968
vt 0.831421 0.564294
vt 0.833166 0.564294
vt 0.833166 0.564294
vt 0.831421 0.564294
vt 0.841805 0.576419
vt 0.841805 0.659849
vt 0.841805 0.576419
vt 0.829930 0.565404
vt 0.829930 0.659846
vt 0.841805 0.660728
vt 0.840398 0.660728
vt 0.831421 0.660728
vt 0.831421 0.660728
vt 0.840398 0.660728
vt 0.841805 0.659849
vt 0.829930 0.659846
vt 0.829930 0.659846
vt 0.831421 0.680572
vt 0.840398 0.680573
vt 0.705627 0.640571
vt 0.702561 0.640571
vt 0.695158 0.686400
vt 0.695158 0.640571
vt 0.695158 0.527874
vt 0.685561 0.527874
vt 0.687756 0.640571
vt 0.684690 0.640571
vt 0.687756 0.640571
vt 0.681586 0.527874
vt 0.685561 0.527874
vt 0.702561 0.640571
vt 0.695158 0.527874
vt 0.695158 0.640571
vt 0.704755 0.527874
vt 0.708730 0.527874
vt 0.704755 0.527874
vt 0.801371 0.624125
vt 0.803604 0.624125
vt 0.803605 0.615150
vt 0.801371 0.615150
vt 0.801371 0.611747
vt 0.803605 0.611747
vt 0.803604 0.605177
vt 0.801371 0.605177
vt 0.801371 0.603212
vt 0.803604 0.603212
vt 0.803604 0.600807
vt 0.801371 0.600808
vt 0.801371 0.600808
vt 0.803604 0.600808
vt 0.803605 0.603213
vt 0.801371 0.603212
vt 0.801371 0.605177
vt 0.803605 0.605177
vt 0.803604 0.611747
vt 0.801371 0.611747
vt 0.801371 0.615150
vt 0.803605 0.615150
vt 0.803605 0.624125
vt 0.801371 0.624125
vt 0.801371 0.628054
vt 0.803605 0.628054
vt 0.803605 0.637029
vt 0.801371 0.637029
vt 0.801371 0.640431
vt 0.803605 0.640431
vt 0.803605 0.647002
vt 0.801371 0.647002
vt 0.801371 0.648966
vt 0.803605 0.648966
vt 0.803604 0.651371
vt 0.801371 0.651371
vt 0.801371 0.651371
vt 0.803605 0.651371
vt 0.803604 0.648966
vt 0.801371 0.648966
vt 0.804449 0.579214
vt 0.804449 0.573361
vt 0.804449 0.573361
vt 0.804449 0.579214
vt 0.801371 0.647002
vt 0.803604 0.647002
vt 0.803604 0.640431
vt 0.801371 0.640431
vt 0.801371 0.637029
vt 0.803604 0.637029
vt 0.803605 0.628054
vt 0.801371 0.628054
vt 0.800527 0.626089
vt 0.804449 0.626089
vt 0.804449 0.613185
vt 0.800527 0.613185
vt 0.804449 0.603739
vt 0.800527 0.603739
vt 0.804449 0.600281
vt 0.800527 0.600281
vt 0.804449 0.603739
vt 0.800527 0.603739
vt 0.804449 0.613185
vt 0.800527 0.613185
vt 0.804449 0.626089
vt 0.800527 0.626089
vt 0.804449 0.638994
vt 0.800527 0.638994
vt 0.804449 0.648440
vt 0.800527 0.648440
vt 0.804449 0.651897
vt 0.800527 0.651897
vt 0.804449 0.648440
vt 0.800527 0.648440
vt 0.804449 0.638994
vt 0.800527 0.638994
vt 0.804449 0.626089
vt 0.804449 0.620236
vt 0.804449 0.631942
vt 0.804449 0.636227
vt 0.804449 0.637795
vt 0.804449 0.636227
vt 0.804449 0.631942
vt 0.804449 0.626089
vt 0.804449 0.620236
vt 0.804449 0.615952
vt 0.804449 0.614384
vt 0.804449 0.615952
vt 0.800527 0.626089
vt 0.800527 0.620236
vt 0.800527 0.615952
vt 0.800527 0.614384
vt 0.800527 0.631942
vt 0.800527 0.636227
vt 0.800527 0.637795
vt 0.804449 0.569077
vt 0.804449 0.573361
vt 0.804449 0.573361
vt 0.804449 0.569077
vt 0.804449 0.569077
vt 0.804449 0.569077
vt 0.804449 0.579214
vt 0.804449 0.585067
vt 0.804449 0.585067
vt 0.804449 0.579214
vt 0.804449 0.567509
vt 0.804449 0.567509
vt 0.804449 0.589352
vt 0.804449 0.589352
vt 0.804449 0.590920
vt 0.804449 0.590920
vt 0.804449 0.589352
vt 0.804449 0.589352
vt 0.804449 0.585067
vt 0.804449 0.585067
vt 0.804449 0.575803
vt 0.804449 0.579214
vt 0.804449 0.582625
vt 0.804449 0.585122
vt 0.804449 0.586036
vt 0.804449 0.573306
vt 0.804449 0.572392
vn -0.3750 0.1854 -0.9083
vn -0.7671 0.5153 -0.3820
vn -0.1405 0.6143 -0.7764
vn -0.0940 0.4160 -0.9045
vn 0.9659 -0.2588 -0.0000
vn 0.9985 0.0540 -0.0000
vn -0.9204 0.1638 0.3550
vn -0.7671 0.5153 0.3820
vn -0.9204 0.1638 -0.3550
vn -0.2582 -0.3294 -0.9082
vn -0.4408 -0.0871 -0.8934
vn 0.3696 -0.0990 -0.9239
vn 0.2215 -0.3441 0.9124
vn 0.3696 -0.0990 0.9239
vn -0.2582 -0.3294 0.9082
vn -0.0000 0.0000 -1.0000
vn 0.0000 -0.0000 1.0000
vn -0.4408 -0.0871 0.8934
vn 0.2215 -0.3441 -0.9124
vn -0.2588 -0.9659 0.0000
vn -0.5925 -0.8056 0.0000
vn -0.9031 -0.2357 -0.3589
vn -0.9031 -0.2357 0.3589
vn 0.4047 -0.0247 -0.9141
vn 0.4047 -0.0247 0.9141
vn -0.3750 0.1854 0.9083
vn 0.6471 0.0588 -0.7601
vn 0.6830 -0.1830 -0.7071
vn 0.6830 -0.1830 0.7071
vn 0.2843 0.3132 -0.9062
vn 0.9324 0.3614 -0.0000
vn -0.3785 -0.5336 -0.7563
vn -0.3785 -0.5336 0.7563
vn -0.7342 0.1132 -0.6694
vn -0.7342 0.1132 0.6694
vn -0.1729 -0.6420 0.7470
vn -0.1729 -0.6420 -0.7470
vn 0.6471 0.0588 0.7601
vn 0.0238 0.8531 0.5212
vn 0.4050 0.7480 0.5259
vn 0.2588 0.9659 0.0000
vn -0.0940 0.4160 0.9045
vn 0.2843 0.3132 0.9062
vn 0.4261 0.4553 -0.7818
vn -0.6285 0.7778 0.0000
vn 0.9268 -0.3755 0.0000
vn 0.6461 -0.3003 0.7017
vn -0.0318 -0.1186 0.9924
vn -0.0071 -0.0266 0.9996
vn -0.6899 0.1564 0.7068
vn -0.7096 0.0630 0.7018
vn -0.9904 0.1382 0.0000
vn -0.7096 0.0630 -0.7018
vn -0.9727 0.2321 0.0000
vn -0.6899 0.1564 -0.7068
vn 0.6461 -0.3003 -0.7017
vn -0.0071 -0.0266 -0.9996
vn -0.0318 -0.1186 -0.9924
vn 0.6756 -0.2095 -0.7068
vn 0.9584 -0.2853 -0.0000
vn 0.6756 -0.2095 0.7068
vn -0.0670 -0.2500 0.9659
vn -0.1830 -0.6830 0.7071
vn -0.2500 -0.9330 0.2588
vn -0.2500 -0.9330 -0.2588
vn -0.1830 -0.6830 -0.7071
vn -0.0670 -0.2500 -0.9659
vn 0.0670 0.2500 -0.9659
vn 0.1830 0.6830 -0.7071
vn 0.2500 0.9330 -0.2588
vn 0.2500 0.9330 0.2588
vn -0.1350 0.0362 -0.9902
vn -0.2632 -0.4420 -0.8575
vn 0.1830 0.6830 0.7071
vn 0.0670 0.2500 0.9659
vn 0.1358 0.5068 0.8513
vn -0.5282 -0.0926 0.8440
vn -0.2278 -0.8501 0.4749
vn 0.4112 -0.3443 0.8440
vn 0.0074 0.0278 0.9996
vn -0.6296 -0.4710 0.6179
vn -0.2587 -0.9655 -0.0287
vn 0.3098 -0.7227 0.6179
vn -0.1229 -0.4587 0.8800
vn -0.6882 -0.6894 0.2262
vn -0.2203 -0.8223 -0.5247
vn 0.2513 -0.9411 0.2262
vn -0.2203 -0.8223 0.5247
vn -0.6882 -0.6894 -0.2262
vn -0.1229 -0.4587 -0.8800
vn 0.2513 -0.9411 -0.2262
vn -0.2587 -0.9655 0.0287
vn -0.6296 -0.4710 -0.6179
vn 0.0074 0.0278 -0.9996
vn 0.3098 -0.7227 -0.6179
vn -0.2278 -0.8501 -0.4749
vn -0.5282 -0.0926 -0.8440
vn 0.1358 0.5068 -0.8513
vn 0.4112 -0.3443 -0.8440
vn -0.1358 -0.5068 -0.8513
vn -0.4112 0.3443 -0.8440
vn 0.2278 0.8501 -0.4749
vn 0.5282 0.0926 -0.8440
vn -0.0074 -0.0278 -0.9996
vn -0.3098 0.7227 -0.6179
vn 0.2587 0.9655 0.0287
vn 0.6296 0.4710 -0.6179
vn 0.1229 0.4587 -0.8800
vn -0.2513 0.9411 -0.2262
vn 0.2203 0.8223 0.5247
vn 0.6882 0.6894 -0.2262
vn 0.2203 0.8223 -0.5247
vn -0.2513 0.9411 0.2262
vn 0.1229 0.4587 0.8800
vn 0.6882 0.6894 0.2262
vn 0.2587 0.9655 -0.0287
vn -0.3098 0.7227 0.6179
vn -0.0074 -0.0278 0.9996
vn 0.6296 0.4710 0.6179
vn 0.2278 0.8501 0.4749
vn -0.4112 0.3443 0.8440
vn -0.1358 -0.5068 0.8513
vn 0.5282 0.0926 0.8440
vn -0.9659 0.2588 0.0000
vn -0.3570 -0.7921 0.4951
vn -0.2632 -0.4420 0.8575
vn -0.3570 -0.7921 -0.4951
vn -0.1350 0.0362 0.9902
vn -0.0069 0.5144 0.8575
vn -0.3913 -0.9203 0.0000
vn 0.0869 0.8645 0.4951
vn 0.1212 0.9926 -0.0000
vn 0.0869 0.8645 -0.4951
vn -0.0069 0.5144 -0.8575
usemtl tools
s 1
f 9/1/1 10/2/2 36/3/3 35/4/4
f 25/5/5 4/6/6 8/7/6 27/8/5
f 20/9/7 12/10/8 10/2/2 15/11/9
f 13/12/10 18/13/11 26/14/12
f 5/15/13 28/16/14 22/17/15
f 18/13/11 16/18/16 26/14/12
f 28/16/14 19/19/17 23/20/18
f 1/21/19 13/12/10 26/14/12
f 6/22/20 21/23/21 14/24/21 2/25/20
f 17/26/22 24/27/23 20/9/7 15/11/9
f 28/16/14 23/20/18 22/17/15
f 14/24/21 21/23/21 24/27/23 17/26/22
f 26/14/12 16/18/16 9/28/1 3/29/24
f 28/16/14 7/30/25 11/31/26 19/19/17
f 26/32/12 3/33/24 4/6/27 25/5/28
f 28/34/14 5/35/13 6/22/29 27/8/29
f 3/29/24 9/28/1 35/36/4 29/37/30
f 8/7/6 4/6/6 30/38/31 32/39/31
f 18/40/11 13/41/10 14/24/32 17/26/22
f 22/42/15 23/43/18 24/27/23 21/23/33
f 16/44/34 18/45/11 17/26/22 15/11/9
f 23/46/18 19/47/35 20/9/7 24/27/23
f 5/48/13 22/49/15 21/23/33 6/22/36
f 13/50/10 1/51/19 2/25/37 14/24/32
f 19/52/35 11/53/26 12/10/8 20/9/7
f 9/1/1 16/54/34 15/11/9 10/2/2
f 1/55/19 26/32/12 25/5/28 2/25/28
f 7/56/25 28/34/14 27/8/29 8/7/38
f 2/25/5 25/5/5 27/8/5 6/22/5
f 33/57/39 32/39/40 30/38/41 36/3/41
f 32/39/40 33/57/39 34/58/42 31/59/43
f 36/3/3 30/38/44 29/60/30 35/61/4
f 12/10/8 11/53/26 34/62/42 33/57/39
f 7/56/25 8/7/38 32/39/40 31/63/43
f 10/2/2 12/10/8 33/57/45 36/3/45
f 4/6/27 3/33/24 29/64/30 30/38/44
f 11/31/26 7/30/25 31/65/43 34/66/42
f 50/67/46 52/68/47 37/69/20
f 38/70/48 39/71/49 41/72/50 40/73/51
f 42/74/52 44/75/53 37/69/20
f 40/73/51 41/72/50 43/76/54 42/74/52
f 52/68/47 38/70/48 37/69/20
f 42/74/52 43/76/54 45/77/55 44/75/53
f 48/78/56 50/67/46 37/69/20
f 44/75/53 45/77/55 47/79/57 46/80/58
f 40/73/51 42/74/52 37/69/20
f 46/80/58 47/79/57 49/81/59 48/78/56
f 38/70/48 40/73/51 37/69/20
f 48/78/56 49/81/59 51/82/60 50/67/46
f 50/67/46 51/82/60 53/83/61 52/68/47
f 44/75/53 46/80/58 37/69/20
f 52/68/47 53/83/61 39/71/49 38/70/48
f 46/80/58 48/78/56 37/69/20
f 78/84/62 79/85/62 80/86/62 81/87/62
f 82/88/63 83/89/63 84/90/63 85/91/63
f 86/92/64 87/93/64 88/94/64 89/95/64
f 90/96/65 91/97/65 92/98/65 93/99/65
f 94/100/66 95/101/66 96/102/66 97/103/66
f 98/104/67 99/105/67 100/106/67 101/107/67
f 102/108/68 103/109/68 104/110/68 105/111/68
f 106/112/69 107/113/69 108/114/69 109/115/69
f 110/116/70 111/117/70 112/118/70 113/119/70
f 114/120/71 115/121/71 116/122/71 117/123/71
f 133/124/72 134/125/73 148/126/73 147/127/72
f 118/128/74 119/129/74 120/130/74 121/131/74
f 122/132/75 123/133/75 124/134/75 125/135/75
f 54/136/76 55/137/76 79/85/76 78/84/76
f 55/137/77 57/138/77 80/86/77 79/85/77
f 57/138/78 56/139/78 81/87/78 80/86/78
f 56/139/79 54/136/79 78/84/79 81/87/79
f 56/139/80 57/138/80 83/89/80 82/88/80
f 57/138/81 59/140/81 84/90/81 83/89/81
f 59/140/82 58/141/82 85/91/82 84/90/82
f 58/141/83 56/139/83 82/88/83 85/91/83
f 58/141/84 59/140/84 87/93/84 86/92/84
f 59/140/85 61/142/85 88/94/85 87/93/85
f 61/142/86 60/143/86 89/95/86 88/94/86
f 60/143/87 58/141/87 86/92/87 89/95/87
f 60/143/88 61/142/88 91/97/88 90/96/88
f 61/142/89 63/144/89 92/98/89 91/97/89
f 63/144/90 62/145/90 93/99/90 92/98/90
f 62/145/91 60/143/91 90/96/91 93/99/91
f 62/145/92 63/144/92 95/101/92 94/100/92
f 63/144/93 65/146/93 96/102/93 95/101/93
f 65/146/94 64/147/94 97/103/94 96/102/94
f 64/147/95 62/145/95 94/100/95 97/103/95
f 64/147/96 65/146/96 99/105/96 98/104/96
f 65/146/97 67/148/97 100/106/97 99/105/97
f 67/148/98 66/149/98 101/107/98 100/106/98
f 66/149/99 64/147/99 98/104/99 101/107/99
f 66/149/100 67/148/100 103/109/100 102/108/100
f 67/148/101 69/150/101 104/110/101 103/109/101
f 69/150/102 68/151/102 105/111/102 104/110/102
f 68/151/103 66/149/103 102/108/103 105/111/103
f 68/151/104 69/150/104 107/113/104 106/112/104
f 69/150/105 71/152/105 108/114/105 107/113/105
f 71/152/106 70/153/106 109/115/106 108/114/106
f 70/153/107 68/151/107 106/112/107 109/115/107
f 70/153/108 71/152/108 111/117/108 110/116/108
f 71/152/109 73/154/109 112/118/109 111/117/109
f 73/154/110 72/155/110 113/119/110 112/118/110
f 72/155/111 70/153/111 110/116/111 113/119/111
f 72/155/112 73/154/112 115/121/112 114/120/112
f 73/154/113 75/156/113 116/122/113 115/121/113
f 75/156/114 74/157/114 117/123/114 116/122/114
f 74/157/115 72/155/115 114/120/115 117/123/115
f 74/157/116 75/156/116 119/129/116 118/128/116
f 75/156/117 77/158/117 120/130/117 119/129/117
f 77/158/118 76/159/118 121/131/118 120/130/118
f 76/159/119 74/157/119 118/128/119 121/131/119
f 76/159/120 77/158/120 123/133/120 122/132/120
f 77/158/121 55/137/121 124/134/121 123/133/121
f 55/137/122 54/136/122 125/135/122 124/134/122
f 54/136/123 76/159/123 122/132/123 125/135/123
f 57/138/124 55/137/124 127/160/124 126/161/124
f 55/137/124 77/158/124 128/162/124 127/160/124
f 77/158/124 75/156/124 129/163/124 128/162/124
f 75/156/124 73/154/124 130/164/124 129/163/124
f 73/154/124 71/152/124 131/165/124 130/164/124
f 71/152/124 69/150/124 132/166/124 131/165/124
f 69/150/124 67/148/124 133/167/124 132/166/124
f 67/148/124 65/146/124 134/168/124 133/167/124
f 65/146/124 63/144/124 135/169/124 134/168/124
f 63/144/124 61/142/124 136/170/124 135/169/124
f 61/142/124 59/140/124 137/171/124 136/170/124
f 59/140/124 57/138/124 126/161/124 137/171/124
f 54/136/5 56/139/5 138/172/5
f 56/139/5 58/141/5 138/173/5
f 58/141/5 60/143/5 138/174/5
f 60/143/5 62/145/5 138/175/5
f 62/145/5 64/147/5 138/174/5
f 64/147/5 66/149/5 138/173/5
f 66/149/5 68/151/5 138/172/5
f 68/151/5 70/153/5 138/176/5
f 70/153/5 72/155/5 138/177/5
f 72/155/5 74/157/5 138/178/5
f 74/157/5 76/159/5 138/177/5
f 76/159/5 54/136/5 138/176/5
f 137/179/125 126/180/126 139/181/126 141/182/125
f 134/125/73 135/183/127 149/184/127 148/126/73
f 127/185/128 128/186/129 142/187/129 140/188/128
f 135/183/127 136/189/130 150/190/130 149/184/127
f 128/186/129 129/191/131 143/192/131 142/187/129
f 136/189/130 137/179/125 141/182/125 150/190/130
f 129/191/131 130/193/132 144/194/132 143/192/131
f 130/193/132 131/195/133 145/196/133 144/194/132
f 131/195/133 132/197/134 146/198/134 145/196/133
f 132/197/134 133/124/72 147/127/72 146/198/134
f 126/180/126 127/185/128 140/188/128 139/181/126
f 139/181/124 140/188/124 151/199/124
f 140/188/124 142/187/124 151/200/124
f 142/187/124 143/192/124 151/201/124
f 143/192/124 144/194/124 151/202/124
f 144/194/124 145/196/124 151/203/124
f 145/196/124 146/198/124 151/202/124
f 146/198/124 147/127/124 151/201/124
f 147/127/124 148/126/124 151/200/124
f 148/126/124 149/184/124 151/199/124
f 149/184/124 150/190/124 151/204/124
f 150/190/124 141/182/124 151/205/124
f 141/182/124 139/181/124 151/204/124
