# Blender v3.4.1 OBJ File: 'RPG_Tool_Bits_Export.blend'
# www.blender.org
mtllib fishing_worm.mtl
o fishing_worm
v -0.003392 -0.110739 0.000025
v -0.029550 -0.102237 -0.000818
v -0.038184 -0.077388 -0.001174
v -0.018075 -0.061807 0.000288
v 0.008536 -0.071379 0.001194
v 0.015901 -0.095972 0.000923
v -0.014930 -0.097392 0.054953
v -0.039828 -0.090137 0.048295
v -0.046018 -0.070421 0.034395
v -0.024638 -0.056899 0.027330
v 0.000694 -0.064598 0.036472
v 0.005060 -0.084918 0.049603
v -0.050302 -0.052876 0.075411
v -0.006540 -0.040112 0.050082
v -0.005311 -0.048856 0.075607
v 0.080399 0.033748 -0.057420
v 0.078447 0.036684 -0.035824
v 0.054445 0.038746 -0.027436
v 0.032520 0.037322 -0.039072
v 0.035846 0.033905 -0.060141
v 0.058879 0.032419 -0.069393
v 0.019413 0.059442 0.085067
v 0.001083 0.050854 0.076113
v 0.004102 0.040417 0.053139
v 0.025639 0.038567 0.034088
v 0.044533 0.048022 0.046761
v 0.040720 0.058236 0.072804
v 0.006780 0.095978 0.054154
v -0.012696 0.081239 0.048845
v -0.006489 0.059467 0.036247
v 0.019245 0.053322 0.028781
v 0.038961 0.069547 0.034499
v 0.031637 0.090323 0.047493
v -0.003126 0.109134 0.000054
v -0.022167 0.093160 0.001091
v -0.014559 0.068251 0.001312
v 0.011861 0.060006 -0.000082
v 0.031019 0.077576 -0.001492
v 0.022223 0.101671 -0.000936
v -0.006652 0.093931 -0.054151
v -0.026056 0.080187 -0.046961
v -0.018964 0.058789 -0.033785
v 0.007524 0.051493 -0.028871
v 0.026909 0.066449 -0.037177
v 0.018561 0.087483 -0.049246
v -0.005206 0.054004 -0.093857
v -0.026019 0.045423 -0.082749
v -0.022415 0.033461 -0.060100
v 0.002876 0.029488 -0.049847
v 0.023968 0.038420 -0.062527
v 0.018906 0.051035 -0.084155
v -0.000995 -0.001160 -0.108368
v -0.024528 -0.001248 -0.096671
v -0.027453 -0.000899 -0.071217
v -0.004995 -0.001046 -0.057528
v 0.019496 -0.001288 -0.070301
v 0.020975 -0.001033 -0.096045
v 0.001137 -0.054721 -0.093840
v -0.023781 -0.052064 -0.084318
v -0.031153 -0.039961 -0.062792
v -0.010898 -0.031347 -0.049892
v 0.015616 -0.034735 -0.059864
v 0.021506 -0.046108 -0.082483
v 0.002668 -0.094894 -0.054152
v -0.023406 -0.088326 -0.049097
v -0.032597 -0.067150 -0.036804
v -0.012785 -0.053110 -0.028800
v 0.014258 -0.060833 -0.034098
v 0.022115 -0.081483 -0.047139
v -0.027035 -0.055338 0.087416
v -0.052894 -0.044875 0.050070
v -0.030499 -0.038601 0.036706
v -0.032691 -0.020926 0.085602
v -0.053021 -0.022580 0.074244
v -0.053779 -0.023304 0.051276
v -0.033539 -0.022208 0.039145
v -0.012391 -0.020540 0.050648
v -0.012202 -0.019978 0.074323
v 0.060138 -0.062734 0.037369
v 0.035448 -0.055769 0.032971
v 0.026653 -0.031029 0.022611
v 0.046393 -0.012675 0.011983
v 0.073087 -0.020430 0.023224
v 0.079750 -0.046236 0.034997
v 0.052717 -0.044677 0.072817
v 0.028814 -0.041038 0.064623
v 0.021964 -0.024379 0.046759
v 0.042782 -0.008711 0.029236
v 0.068977 -0.012198 0.047129
v 0.072765 -0.030962 0.066012
v 0.057807 0.000572 -0.071951
v 0.034295 0.002734 -0.063130
v 0.030263 0.008337 -0.042629
v 0.053129 0.011250 -0.030727
v 0.078147 0.007995 -0.038825
v 0.079846 0.002891 -0.060168
v 0.059949 -0.035497 -0.047731
v 0.035685 -0.031037 -0.042645
v 0.028352 -0.015132 -0.030652
v 0.049079 -0.003220 -0.023064
v 0.075648 -0.009070 -0.027312
v 0.080596 -0.025422 -0.040236
v 0.062736 -0.058758 -0.005076
v 0.037850 -0.051865 -0.005839
v 0.028710 -0.028769 -0.006990
v 0.048736 -0.011615 -0.008321
v 0.075568 -0.019779 -0.005098
v 0.082369 -0.043742 -0.003085
v 0.040025 -0.000574 0.093972
v 0.018199 -0.001423 0.084683
v 0.015611 0.001628 0.063702
v 0.036337 0.006401 0.044086
v 0.059682 0.007589 0.059096
v 0.060771 0.003987 0.082928
v 0.065216 0.070204 -0.041170
v 0.064843 0.071086 -0.034929
v 0.056168 0.072016 -0.031518
v 0.050080 0.071448 -0.035234
v 0.050781 0.069996 -0.041463
v 0.059204 0.069485 -0.044786
v 0.055859 0.064034 -0.022222
v 0.074808 0.062351 -0.029559
v 0.038346 0.062599 -0.032239
v 0.040938 0.059518 -0.050020
v 0.076370 0.059649 -0.047700
v 0.059131 0.058299 -0.057535
v -0.034718 0.026965 0.085198
v -0.055174 0.025583 0.073799
v -0.055325 0.024908 0.051014
v -0.035449 0.025490 0.039877
v -0.015431 0.026952 0.050963
v -0.014809 0.027757 0.073555
v -0.037294 0.037858 0.084030
v -0.055751 0.036503 0.071991
v -0.054524 0.035886 0.050295
v -0.034884 0.036555 0.040904
v -0.016574 0.038018 0.052816
v -0.017649 0.038718 0.074487
v -0.037693 0.053240 0.073296
v -0.047099 0.052520 0.067120
v -0.046422 0.052081 0.055931
v -0.036295 0.052364 0.051165
v -0.026963 0.053083 0.057285
v -0.027565 0.053533 0.068455
v -0.032760 -0.016011 0.091880
v -0.058905 -0.017559 0.077423
v -0.059422 -0.018226 0.047829
v -0.033690 -0.017329 0.033084
v -0.007642 -0.015785 0.047448
v -0.007005 -0.015116 0.077032
v -0.034345 0.021158 0.091874
v -0.060445 0.019610 0.077518
v -0.061082 0.018942 0.047918
v -0.035274 0.019840 0.033078
v -0.009182 0.021385 0.047542
v -0.008665 0.022053 0.077121
vt 0.686410 0.072456
vt 0.682878 0.077885
vt 0.673068 0.080064
vt 0.676344 0.075458
vt 0.670388 0.087669
vt 0.673051 0.085168
vt 0.678511 0.093836
vt 0.680857 0.091999
vt 0.688722 0.091683
vt 0.691288 0.088771
vt 0.690735 0.083545
vt 0.694117 0.078785
vt 0.677640 0.094393
vt 0.668328 0.094423
vt 0.666975 0.097487
vt 0.675591 0.100880
vt 0.685139 0.101254
vt 0.685981 0.097842
vt 0.700482 0.119148
vt 0.691953 0.116526
vt 0.687237 0.130904
vt 0.696797 0.129994
vt 0.709689 0.120632
vt 0.705185 0.134647
vt 0.709899 0.119458
vt 0.703491 0.139673
vt 0.701468 0.116906
vt 0.694033 0.140267
vt 0.692783 0.115614
vt 0.685896 0.136041
vt 0.699523 0.117097
vt 0.697917 0.119328
vt 0.698817 0.130866
vt 0.700141 0.129506
vt 0.688569 0.154216
vt 0.680817 0.148349
vt 0.683288 0.139682
vt 0.693532 0.137235
vt 0.701380 0.143694
vt 0.698466 0.151965
vt 0.684627 0.159453
vt 0.677047 0.153094
vt 0.680076 0.143179
vt 0.690593 0.139896
vt 0.698218 0.146890
vt 0.694718 0.156482
vt 0.683223 0.153401
vt 0.675499 0.147930
vt 0.678322 0.139412
vt 0.688865 0.136507
vt 0.696584 0.142461
vt 0.693261 0.150834
vt 0.683798 0.137507
vt 0.675513 0.134091
vt 0.676948 0.129329
vt 0.687016 0.127748
vt 0.695413 0.131303
vt 0.693397 0.136325
vt 0.685475 0.115547
vt 0.676106 0.115512
vt 0.674942 0.115651
vt 0.683883 0.115592
vt 0.693633 0.115496
vt 0.694220 0.115598
vt 0.686389 0.094262
vt 0.676611 0.095320
vt 0.673978 0.100139
vt 0.682118 0.103894
vt 0.692433 0.102596
vt 0.694541 0.097766
vt 0.687595 0.078476
vt 0.677550 0.080971
vt 0.674263 0.089335
vt 0.682131 0.095383
vt 0.692613 0.092579
vt 0.695383 0.084030
vt 0.674005 0.107791
vt 0.666020 0.106310
vt 0.665751 0.105993
vt 0.673721 0.107248
vt 0.682028 0.108768
vt 0.682080 0.108998
vt 0.709811 0.091035
vt 0.706856 0.098224
vt 0.697341 0.099672
vt 0.699982 0.093808
vt 0.694615 0.106304
vt 0.696481 0.103657
vt 0.702901 0.112541
vt 0.704340 0.110963
vt 0.713330 0.111153
vt 0.714965 0.107876
vt 0.714838 0.103683
vt 0.717618 0.097603
vt 0.708884 0.116237
vt 0.709735 0.101878
vt 0.700076 0.103653
vt 0.697157 0.109985
vt 0.705409 0.114727
vt 0.707021 0.120487
vt 0.715986 0.112398
vt 0.716981 0.119192
vt 0.717955 0.105889
vt 0.717656 0.117159
vt 0.710845 0.092618
vt 0.700939 0.095362
vt 0.697300 0.104556
vt 0.705272 0.111385
vt 0.715954 0.108135
vt 0.718660 0.098596
vt 0.709310 0.128914
vt 0.717876 0.129443
vt 0.717099 0.130612
vt 0.707544 0.131433
vt 0.702168 0.139702
vt 0.709411 0.139217
vt 0.701136 0.140928
vt 0.716273 0.139754
vt 0.715652 0.140830
vt 0.708107 0.141500
vt 0.708230 0.144677
vt 0.711684 0.144307
vt 0.711833 0.143956
vt 0.709439 0.143670
vt 0.705807 0.144451
vt 0.706086 0.143873
vt 0.663180 0.093773
vt 0.671028 0.094810
vt 0.671326 0.092579
vt 0.661142 0.091176
vt 0.682028 0.030643
vt 0.673721 0.029123
vt 0.673463 0.031049
vt 0.683714 0.032718
vt 0.678896 0.096201
vt 0.681596 0.094251
vt 0.665751 0.027868
vt 0.663309 0.029650
vt 0.671258 0.095423
vt 0.663213 0.094046
vt 0.661367 0.091467
vt 0.671641 0.093139
vt 0.678896 0.127451
vt 0.671028 0.126060
vt 0.670802 0.130465
vt 0.677994 0.131787
vt 0.679109 0.127795
vt 0.677540 0.132021
vt 0.663213 0.125296
vt 0.671258 0.126673
vt 0.669795 0.130883
vt 0.662542 0.129597
vt 0.663180 0.125023
vt 0.663052 0.129403
vt 0.665317 0.136291
vt 0.665603 0.136145
vt 0.669603 0.136668
vt 0.673269 0.137331
vt 0.673012 0.137485
vt 0.669013 0.136958
vt 0.663309 0.045275
vt 0.663487 0.045560
vt 0.661367 0.060217
vt 0.661142 0.059926
vt 0.673463 0.046674
vt 0.671326 0.061329
vt 0.673777 0.047234
vt 0.671641 0.061889
vt 0.683941 0.048634
vt 0.681774 0.063286
vt 0.683714 0.048343
vt 0.681596 0.063001
vt 0.682080 0.030873
vt 0.683941 0.033009
vt 0.666020 0.028185
vt 0.674005 0.029666
vt 0.673777 0.031609
vt 0.663487 0.029935
vt 0.679109 0.096545
vt 0.681774 0.094536
vn 0.1660 -0.9861 0.0016
vn 0.1025 -0.8228 0.5590
vn -0.6960 -0.6648 0.2715
vn -0.6519 -0.7492 -0.1168
vn -0.9485 -0.3130 -0.0493
vn -0.9302 -0.3260 -0.1688
vn -0.6045 0.7910 -0.0939
vn -0.5783 0.5533 -0.5995
vn -0.1057 0.7921 -0.6011
vn -0.1598 0.9870 0.0193
vn 0.8336 0.5395 -0.1184
vn 0.7534 0.6331 0.1778
vn 0.9573 0.2710 0.1007
vn 0.9451 0.2722 0.1810
vn 0.6015 -0.7968 0.0565
vn 0.5591 -0.6293 0.5398
vn 0.0172 -0.2909 0.9566
vn -0.7843 -0.2923 0.5472
vn -0.9841 -0.1735 0.0391
vn -0.5203 0.1664 -0.8376
vn -0.0512 0.3040 -0.9513
vn 0.8517 0.3551 -0.3854
vn 0.9672 0.2521 0.0318
vn 0.5017 -0.1656 0.8491
vn -0.7070 -0.0183 -0.7070
vn -0.9362 -0.2369 -0.2595
vn -0.8380 -0.4615 -0.2912
vn -0.5430 -0.5104 -0.6669
vn 0.8631 0.3995 -0.3089
vn 0.5406 0.3040 -0.7844
vn 0.5472 -0.1419 -0.8249
vn 0.5482 -0.1344 -0.8255
vn 0.7908 0.1696 0.5881
vn 0.9470 0.3204 0.0234
vn 0.7326 0.4613 0.5005
vn 0.0590 -0.1293 0.9898
vn -0.0485 0.4010 0.9148
vn -0.7316 -0.2948 0.6147
vn -0.9408 -0.3321 0.0681
vn -0.7120 -0.1563 -0.6846
vn -0.9753 -0.0205 -0.2199
vn -0.9626 0.1930 -0.1903
vn -0.7354 0.2331 -0.6363
vn -0.1496 0.8239 0.5466
vn -0.5999 0.6070 0.5212
vn -0.4929 0.2317 0.8387
vn -0.9343 -0.3392 0.1096
vn -0.7813 -0.6153 -0.1047
vn 0.1281 -0.7765 -0.6170
vn 0.6297 -0.4931 -0.6003
vn 0.9449 0.3261 -0.0272
vn 0.6755 0.6870 0.2679
vn -0.2031 0.9791 0.0062
vn -0.6376 0.7681 0.0580
vn -0.9484 -0.2826 0.1436
vn -0.7488 -0.6491 0.1340
vn 0.2171 -0.9761 -0.0121
vn 0.6676 -0.7373 -0.1035
vn 0.9305 0.3370 -0.1433
vn 0.6363 0.7651 -0.0985
vn -0.1755 0.8505 -0.4958
vn -0.6187 0.6830 -0.3881
vn -0.9673 -0.1885 0.1700
vn -0.7733 -0.5143 0.3709
vn 0.2080 -0.8491 0.4855
vn 0.6545 -0.6824 0.3254
vn 0.9508 0.2371 -0.1995
vn 0.6651 0.6299 -0.4010
vn -0.0878 0.4914 -0.8665
vn -0.5436 0.3977 -0.7392
vn -0.9945 -0.0411 0.0963
vn -0.8442 -0.2265 0.4857
vn 0.1197 -0.4941 0.8611
vn 0.5834 -0.4553 0.6725
vn 0.9861 0.0763 -0.1473
vn 0.7412 0.3407 -0.5784
vn 0.0215 -0.0030 -0.9998
vn -0.7869 -0.0020 -0.6171
vn -0.9958 0.0109 -0.0910
vn -0.5167 0.0677 0.8535
vn -0.0349 0.0074 0.9994
vn 0.8830 -0.0317 0.4683
vn 0.9995 -0.0031 0.0325
vn 0.4850 0.0039 -0.8745
vn 0.1017 -0.4910 -0.8652
vn -0.7093 -0.3553 -0.6088
vn -0.9662 -0.1190 -0.2288
vn -0.5928 0.4368 0.6766
vn -0.1510 0.4965 0.8548
vn 0.8030 0.2718 0.5304
vn 0.9803 0.0917 0.1751
vn 0.5581 -0.3976 -0.7283
vn 0.1764 -0.8489 -0.4983
vn -0.6484 -0.6365 -0.4176
vn -0.9368 -0.2625 -0.2312
vn -0.6278 0.7028 0.3346
vn -0.1666 0.8527 0.4951
vn 0.7620 0.5189 0.3873
vn 0.9532 0.2209 0.2065
vn 0.6092 -0.6883 -0.3939
vn -0.0375 0.0593 0.9975
vn -0.8446 -0.0518 0.5329
vn -0.9959 -0.0693 0.0586
vn -0.5167 0.0287 -0.8557
vn 0.4738 0.1890 -0.8601
vn 0.9670 0.2545 0.0145
vn 0.4573 0.1337 0.8792
vn 0.2013 -0.9567 0.2105
vn 0.1337 -0.6811 0.7198
vn -0.6718 -0.6180 0.4084
vn -0.6283 -0.7762 0.0527
vn -0.9730 -0.0397 -0.2273
vn -0.9249 -0.3733 -0.0716
vn -0.7142 0.6713 -0.1980
vn -0.7422 0.4996 -0.4467
vn -0.2335 0.9667 -0.1049
vn 0.3789 0.8347 -0.3996
vn 0.8114 0.5645 -0.1514
vn 0.7467 0.6652 -0.0003
vn 0.9503 0.3032 0.0708
vn 0.9569 0.2790 0.0802
vn 0.6350 -0.7421 0.2147
vn 0.5659 -0.4750 0.6739
vn 0.0650 -0.2421 -0.9681
vn 0.1252 -0.7294 -0.6726
vn -0.6573 -0.5634 -0.5005
vn -0.9500 -0.2325 -0.2084
vn -0.4935 0.2178 0.8420
vn -0.5465 0.6147 0.5689
vn -0.1880 0.6951 0.6939
vn -0.0841 0.1982 0.9765
vn 0.2704 0.6819 0.6796
vn 0.3072 0.1737 0.9357
vn 0.9925 0.0219 0.1199
vn 0.9793 0.1594 0.1245
vn 0.9787 0.1641 0.1231
vn 0.9927 0.0206 0.1190
vn 0.4935 -0.2251 -0.8401
vn 0.5226 -0.6185 -0.5868
vn 0.1988 -0.9425 -0.2687
vn -0.6205 -0.7455 -0.2435
vn -0.9251 -0.3560 -0.1319
vn -0.6423 0.7482 0.1665
vn -0.2071 0.9349 0.2881
vn 0.7399 0.6474 0.1826
vn 0.9581 0.2717 0.0906
vn 0.5978 -0.7675 -0.2313
vn 0.0654 0.2395 -0.9687
vn 0.4591 0.2308 -0.8579
vn 0.9961 0.0327 0.0819
vn 0.9948 0.0655 0.0777
vn -0.0830 -0.1466 0.9857
vn -0.4624 -0.1037 0.8806
vn 0.3130 -0.1495 0.9379
vn -0.6456 0.5497 -0.5302
vn 0.0555 0.5641 -0.8238
vn -0.8023 0.4225 0.4217
vn 0.7737 0.5006 -0.3883
vn 0.7316 0.3650 0.5758
vn -0.0583 0.3177 0.9464
vn -0.0348 0.9354 0.3519
vn 0.3609 0.9171 0.1696
vn 0.3619 0.8839 -0.2963
vn 0.0403 0.8641 -0.5017
vn -0.3703 0.9240 0.0957
vn -0.3040 0.8777 -0.3704
vn -0.5886 0.7363 -0.3338
vn -0.0387 0.7579 -0.6513
vn -0.0246 0.3716 -0.9281
vn -0.8231 0.3379 -0.4565
vn 0.5638 -0.7686 -0.3024
vn 0.0218 -0.7839 -0.6205
vn 0.0108 -0.3920 -0.9199
vn 0.8033 -0.3602 -0.4743
vn 0.5153 0.7833 -0.3477
vn 0.7761 0.4079 -0.4809
vn -0.5240 -0.8010 -0.2894
vn -0.7850 -0.4205 -0.4548
vn -0.0296 0.7591 0.6503
vn -0.5988 0.7348 0.3186
vn -0.8085 0.3411 0.4795
vn -0.0077 0.3776 0.9259
vn 0.8308 0.1707 -0.5297
vn -0.0086 0.0917 -0.9957
vn 0.0434 0.3075 -0.9505
vn 0.8183 0.3748 -0.4357
vn 0.9841 0.1774 0.0040
vn 0.7625 0.3838 0.5208
vn -0.5177 0.0417 0.8546
vn 0.0259 0.1002 0.9946
vn -0.0869 0.3198 0.9435
vn -0.8689 0.2639 0.4188
vn 0.4645 0.1246 0.8768
vn -0.9997 0.0075 -0.0244
vn -0.8023 0.2599 -0.5374
vn -0.4616 0.0410 -0.8861
vn -0.5531 0.7994 0.2345
vn -0.5129 0.7858 -0.3457
vn -0.0019 0.8046 -0.5938
vn 0.4614 0.8392 -0.2879
vn 0.4299 0.8550 0.2901
vn -0.0896 0.5694 0.8171
vn -0.0488 0.9979 -0.0420
vn -0.7734 -0.4152 0.4790
vn 0.0263 -0.3828 0.9235
vn 0.8181 -0.3554 0.4521
vn 0.7897 0.4117 0.4549
vn 0.5561 -0.7670 0.3200
vn -0.5009 -0.7955 0.3409
vn 0.0346 -0.7773 0.6282
vn 0.5372 0.7864 0.3050
usemtl tools
s 1
f 1/1/1 7/2/2 8/3/3 2/4/4
f 2/4/4 8/3/3 9/5/5 3/6/6
f 3/6/7 9/5/8 10/7/9 4/8/10
f 4/8/10 10/7/9 11/9/11 5/10/12
f 5/10/12 11/9/11 12/11/13 6/12/14
f 6/12/15 12/11/16 7/2/2 1/1/1
f 7/2/2 70/13/17 13/14/18 8/3/3
f 8/3/3 13/14/18 71/15/19 9/5/5
f 9/5/8 71/15/20 72/16/21 10/7/9
f 10/7/9 72/16/21 14/17/22 11/9/11
f 11/9/11 14/17/22 15/18/23 12/11/13
f 12/11/16 15/18/24 70/13/17 7/2/2
f 112/19/25 111/20/26 24/21/27 25/22/28
f 113/23/29 112/19/30 25/22/31 26/24/32
f 114/25/33 113/23/29 26/24/34 27/26/35
f 109/27/36 114/25/33 27/26/35 22/28/37
f 111/20/26 110/29/38 23/30/39 24/21/27
f 92/31/40 93/32/41 19/33/42 20/34/43
f 22/28/37 28/35/44 29/36/45 23/30/46
f 23/30/39 29/36/47 30/37/48 24/21/27
f 24/21/27 30/37/48 31/38/49 25/22/28
f 25/22/31 31/38/49 32/39/50 26/24/32
f 26/24/34 32/39/51 33/40/52 27/26/35
f 27/26/35 33/40/52 28/35/44 22/28/37
f 28/35/44 34/41/53 35/42/54 29/36/45
f 29/36/47 35/42/55 36/43/56 30/37/48
f 30/37/48 36/43/56 37/44/57 31/38/49
f 31/38/49 37/44/57 38/45/58 32/39/50
f 32/39/51 38/45/59 39/46/60 33/40/52
f 33/40/52 39/46/60 34/41/53 28/35/44
f 34/41/53 40/47/61 41/48/62 35/42/54
f 35/42/55 41/48/63 42/49/64 36/43/56
f 36/43/56 42/49/64 43/50/65 37/44/57
f 37/44/57 43/50/65 44/51/66 38/45/58
f 38/45/59 44/51/67 45/52/68 39/46/60
f 39/46/60 45/52/68 40/47/61 34/41/53
f 40/47/61 46/53/69 47/54/70 41/48/62
f 41/48/63 47/54/71 48/55/72 42/49/64
f 42/49/64 48/55/72 49/56/73 43/50/65
f 43/50/65 49/56/73 50/57/74 44/51/66
f 44/51/67 50/57/75 51/58/76 45/52/68
f 45/52/68 51/58/76 46/53/69 40/47/61
f 46/53/69 52/59/77 53/60/78 47/54/70
f 47/54/71 53/60/78 54/61/79 48/55/72
f 48/55/72 54/61/80 55/62/81 49/56/73
f 49/56/73 55/62/81 56/63/82 50/57/74
f 50/57/75 56/63/82 57/64/83 51/58/76
f 51/58/76 57/64/84 52/59/77 46/53/69
f 52/59/77 58/65/85 59/66/86 53/60/78
f 53/60/78 59/66/86 60/67/87 54/61/79
f 54/61/80 60/67/88 61/68/89 55/62/81
f 55/62/81 61/68/89 62/69/90 56/63/82
f 56/63/82 62/69/90 63/70/91 57/64/83
f 57/64/84 63/70/92 58/65/85 52/59/77
f 58/65/85 64/71/93 65/72/94 59/66/86
f 59/66/86 65/72/94 66/73/95 60/67/87
f 60/67/88 66/73/96 67/74/97 61/68/89
f 61/68/89 67/74/97 68/75/98 62/69/90
f 62/69/90 68/75/98 69/76/99 63/70/91
f 63/70/92 69/76/100 64/71/93 58/65/85
f 64/71/93 1/1/1 2/4/4 65/72/94
f 65/72/94 2/4/4 3/6/6 66/73/95
f 66/73/96 3/6/7 4/8/10 67/74/97
f 67/74/97 4/8/10 5/10/12 68/75/98
f 68/75/98 5/10/12 6/12/14 69/76/99
f 69/76/100 6/12/15 1/1/1 64/71/93
f 70/13/17 73/77/101 74/78/102 13/14/18
f 13/14/18 74/78/102 75/79/103 71/15/19
f 71/15/20 75/79/104 76/80/104 72/16/21
f 72/16/21 76/80/105 77/81/105 14/17/22
f 14/17/22 77/81/106 78/82/106 15/18/23
f 15/18/24 78/82/107 73/77/101 70/13/17
f 79/83/108 85/84/109 86/85/110 80/86/111
f 80/86/111 86/85/110 87/87/112 81/88/113
f 81/88/114 87/87/112 88/89/115 82/90/116
f 82/90/116 88/89/117 89/91/118 83/92/119
f 83/92/119 89/91/118 90/93/120 84/94/121
f 84/94/122 90/93/123 85/84/109 79/83/108
f 87/87/112 111/20/26 112/19/25 88/89/115
f 90/93/123 114/25/33 109/27/36 85/84/109
f 88/89/117 112/19/30 113/23/29 89/91/118
f 86/85/110 110/29/38 111/20/26 87/87/112
f 85/84/109 109/27/36 110/29/38 86/85/110
f 91/95/124 97/96/125 98/97/126 92/31/40
f 92/31/40 98/97/126 99/98/127 93/32/41
f 93/32/128 99/98/129 100/99/130 94/100/131
f 94/100/131 100/99/130 101/101/132 95/102/133
f 95/102/134 101/101/135 102/103/136 96/104/137
f 96/104/138 102/103/139 97/96/125 91/95/124
f 97/96/125 103/105/140 104/106/141 98/97/126
f 98/97/126 104/106/141 105/107/142 99/98/127
f 99/98/129 105/107/143 106/108/144 100/99/130
f 100/99/130 106/108/144 107/109/145 101/101/132
f 101/101/135 107/109/145 108/110/146 102/103/136
f 102/103/139 108/110/147 103/105/140 97/96/125
f 103/105/140 79/83/108 80/86/111 104/106/141
f 104/106/141 80/86/111 81/88/113 105/107/142
f 105/107/143 81/88/114 82/90/116 106/108/144
f 106/108/144 82/90/116 83/92/119 107/109/145
f 107/109/145 83/92/119 84/94/121 108/110/146
f 108/110/147 84/94/122 79/83/108 103/105/140
f 96/104/138 91/95/124 21/111/148 16/112/149
f 95/102/134 96/104/137 16/112/150 17/113/151
f 93/32/128 94/100/131 18/114/152 19/33/153
f 91/95/124 92/31/40 20/34/43 21/111/148
f 94/100/131 95/102/133 17/113/154 18/114/152
f 21/111/148 20/34/43 124/115/155 126/116/156
f 110/29/38 109/27/36 22/28/37 23/30/46
f 20/34/43 19/33/42 123/117/157 124/115/155
f 17/113/151 16/112/150 125/118/158 122/119/159
f 19/33/153 18/114/152 121/120/160 123/117/157
f 16/112/149 21/111/148 126/116/156 125/118/158
f 18/114/152 17/113/154 122/119/159 121/120/160
f 117/121/161 116/122/162 115/123/163 120/124/164
f 116/122/162 117/121/161 121/120/160 122/119/159
f 117/121/161 118/125/165 123/117/157 121/120/160
f 118/125/165 119/126/166 124/115/155 123/117/157
f 115/123/163 116/122/162 122/119/159 125/118/158
f 119/126/166 120/124/164 126/116/156 124/115/155
f 120/124/164 115/123/163 125/118/158 126/116/156
f 118/125/165 117/121/161 120/124/164 119/126/166
f 129/127/167 130/128/168 154/129/169 153/130/170
f 77/131/171 76/132/172 148/133/173 149/134/174
f 130/128/168 131/135/175 155/136/176 154/129/169
f 76/132/172 75/137/177 147/138/178 148/133/173
f 127/139/179 128/140/180 152/141/181 151/142/182
f 128/140/180 129/127/167 153/130/170 152/141/181
f 131/143/183 130/144/184 136/145/185 137/146/186
f 132/147/187 131/143/183 137/146/186 138/148/188
f 128/149/189 127/150/190 133/151/191 134/152/192
f 127/150/190 132/147/193 138/148/188 133/151/191
f 129/153/194 128/149/194 134/152/192 135/154/195
f 130/144/184 129/153/196 135/154/195 136/145/185
f 135/154/195 134/152/192 140/155/197 141/156/198
f 136/145/185 135/154/195 141/156/198 142/157/199
f 137/146/186 136/145/185 142/157/199 143/158/200
f 138/148/188 137/146/186 143/158/200 144/159/201
f 134/152/192 133/151/191 139/160/202 140/155/197
f 133/151/191 138/148/188 144/159/201 139/160/202
f 144/159/201 143/158/200 142/157/199 141/156/198
f 139/160/203 144/159/201 141/156/198 140/155/197
f 147/161/178 146/162/204 152/163/181 153/164/170
f 148/165/173 147/161/178 153/164/170 154/166/169
f 146/162/204 145/167/205 151/168/182 152/163/181
f 145/167/205 150/169/206 156/170/207 151/168/182
f 150/169/206 149/171/174 155/172/176 156/170/207
f 149/171/174 148/165/173 154/166/169 155/172/176
f 78/173/208 77/131/171 149/134/174 150/174/206
f 74/175/209 73/176/210 145/177/205 146/178/204
f 132/179/211 127/139/179 151/142/182 156/180/207
f 73/176/210 78/173/208 150/174/206 145/177/205
f 131/135/175 132/179/211 156/180/207 155/136/176
f 75/137/177 74/175/209 146/178/204 147/138/178
f 89/91/118 113/23/29 114/25/33 90/93/120
