# Blender v3.4.1 OBJ File: 'RPG_Tool_Bits_Export.blend'
# www.blender.org
mtllib key_A.mtl
o key_A
v -0.072431 -0.000000 0.140380
v -0.052536 -0.000000 0.087982
v 0.000000 -0.000000 0.065422
v 0.052536 0.000000 0.087982
v 0.000000 0.105229 0.182262
v -0.050125 0.095162 0.164825
v -0.072441 0.070179 0.121553
v -0.052536 0.043991 0.076195
v 0.000000 0.032711 0.056657
v 0.052536 0.043991 0.076195
v 0.072441 0.070179 0.121553
v 0.050125 0.095162 0.164825
v 0.000000 0.182262 0.105229
v -0.050125 0.164825 0.095162
v -0.072441 0.121553 0.070179
v -0.052536 0.076195 0.043991
v 0.000000 0.056657 0.032711
v 0.052536 0.076195 0.043991
v 0.072441 0.121553 0.070178
v 0.050125 0.164825 0.095162
v -0.000000 0.210459 0.000000
v -0.050125 0.190324 0.000000
v -0.072441 0.140357 0.000000
v -0.052536 0.087982 0.000000
v -0.000000 0.065422 0.000000
v 0.052536 0.087982 -0.000000
v 0.072441 0.140357 -0.000000
v 0.050125 0.190324 -0.000000
v -0.000000 0.182262 -0.105229
v -0.050125 0.164825 -0.095162
v -0.072441 0.121553 -0.070178
v -0.052536 0.076195 -0.043991
v -0.000000 0.056657 -0.032711
v 0.052536 0.076195 -0.043991
v 0.072441 0.121553 -0.070178
v 0.050125 0.164825 -0.095162
v -0.000000 0.105229 -0.182262
v -0.050125 0.095162 -0.164825
v -0.072441 0.070179 -0.121553
v -0.052536 0.043991 -0.076195
v -0.000000 0.032711 -0.056657
v 0.052536 0.043991 -0.076195
v 0.072441 0.070179 -0.121553
v 0.050125 0.095162 -0.164825
v -0.000000 0.000000 -0.210459
v -0.050125 0.000000 -0.190324
v -0.072441 0.000000 -0.140357
v -0.052536 0.000000 -0.087982
v -0.000000 0.000000 -0.065422
v 0.052536 0.000000 -0.087982
v 0.072441 0.000000 -0.140357
v 0.050125 0.000000 -0.190324
v -0.000000 -0.105229 -0.182262
v -0.050125 -0.095162 -0.164825
v -0.072441 -0.070178 -0.121553
v -0.052536 -0.043991 -0.076195
v -0.000000 -0.032711 -0.056657
v 0.052536 -0.043991 -0.076195
v 0.072441 -0.070178 -0.121553
v 0.050125 -0.095162 -0.164825
v -0.000000 -0.182262 -0.105229
v -0.050125 -0.164825 -0.095162
v -0.072441 -0.121553 -0.070178
v -0.052536 -0.076195 -0.043991
v -0.000000 -0.056657 -0.032711
v 0.052536 -0.076195 -0.043991
v 0.072441 -0.121553 -0.070178
v 0.050125 -0.164825 -0.095162
v 0.000000 -0.210459 0.000000
v -0.050125 -0.190324 0.000000
v -0.072441 -0.140357 0.000000
v -0.052536 -0.087982 0.000000
v 0.000000 -0.065422 0.000000
v 0.052536 -0.087982 -0.000000
v 0.072441 -0.140357 -0.000000
v 0.050125 -0.190324 -0.000000
v 0.000000 -0.182262 0.105229
v -0.050125 -0.164825 0.095162
v -0.072441 -0.121553 0.070179
v -0.052536 -0.076195 0.043991
v 0.000000 -0.056657 0.032711
v 0.052536 -0.076195 0.043991
v 0.072441 -0.121553 0.070178
v 0.050125 -0.164825 0.095162
v 0.000000 -0.105229 0.182262
v -0.050125 -0.095162 0.164825
v -0.072441 -0.070179 0.121553
v -0.052536 -0.043991 0.076195
v 0.000000 -0.032711 0.056657
v 0.052536 -0.043991 0.076195
v 0.072441 -0.070179 0.121553
v 0.050125 -0.095162 0.164825
v 0.000000 -0.064925 0.195540
v 0.000000 0.064925 0.195540
v -0.050125 -0.039389 0.175405
v -0.050125 0.039389 0.175405
v 0.050125 0.039389 0.175405
v 0.050125 -0.039389 0.175405
v 0.072421 0.000000 0.140403
v -0.050125 0.039389 0.431687
v -0.072421 -0.000000 0.431687
v 0.050125 -0.039389 0.631687
v 0.000000 -0.064925 0.411687
v 0.050125 -0.039389 0.431687
v -0.050125 -0.039389 0.431687
v 0.000000 0.064925 0.431687
v 0.072421 0.000000 0.431687
v 0.050125 0.039389 0.431687
v 0.050125 -0.187901 0.631687
v 0.000000 -0.207901 0.651687
v -0.050125 0.039389 0.631687
v -0.072421 -0.000000 0.621687
v -0.050125 -0.039389 0.631687
v 0.000000 0.064925 0.631687
v 0.072421 0.000000 0.621687
v 0.050125 0.039389 0.631687
v 0.000000 0.039389 0.651687
v 0.000000 -0.039389 0.651687
v 0.000000 -0.207901 0.411687
v 0.050125 -0.187901 0.431687
v -0.050125 -0.187901 0.431687
v -0.050125 -0.187901 0.631687
v -0.050125 -0.113645 0.531687
v 0.050125 -0.113645 0.531687
v -0.050125 -0.150773 0.481687
v -0.050125 -0.120773 0.591687
v 0.050125 -0.150773 0.581687
v 0.050125 -0.120773 0.471687
v -0.050125 0.039389 0.273546
v 0.050125 -0.039389 0.303546
v -0.050125 -0.039389 0.303546
v 0.000000 -0.064925 0.273614
v 0.000000 0.064925 0.313614
v 0.050125 0.039389 0.353546
v 0.072421 0.000000 0.346045
v -0.072426 -0.000000 0.346034
vt 0.718311 0.946491
vt 0.718311 0.952866
vt 0.718311 0.953822
vt 0.718311 0.946137
vt 0.655811 0.810374
vt 0.655811 0.813179
vt 0.655811 0.811248
vt 0.718311 0.937501
vt 0.718311 0.950558
vt 0.718311 0.885750
vt 0.718311 0.875001
vt 0.655811 0.859376
vt 0.655811 0.870125
vt 0.655811 0.869169
vt 0.655811 0.859376
vt 0.655811 0.870125
vt 0.655811 0.859376
vt 0.718311 0.875001
vt 0.718311 0.885750
vt 0.718311 0.950558
vt 0.718311 0.937501
vt 0.655811 0.809879
vt 0.655811 0.811324
vt 0.655811 0.809673
vt 0.718311 0.981394
vt 0.718311 0.979739
vt 0.718311 0.952866
vt 0.718311 0.964114
vt 0.718311 0.960116
vt 0.718311 0.893618
vt 0.655811 0.877993
vt 0.655811 0.876337
vt 0.655811 0.877993
vt 0.718311 0.893618
vt 0.718311 0.960116
vt 0.718311 0.964114
vt 0.718311 0.979739
vt 0.655811 0.825419
vt 0.655811 0.828468
vt 0.655811 0.827135
vt 0.718311 0.968230
vt 0.718311 0.963614
vt 0.718311 0.896498
vt 0.718311 0.877993
vt 0.718311 0.880873
vt 0.718311 0.878961
vt 0.718311 0.876337
vt 0.718311 0.880873
vt 0.718311 0.877993
vt 0.718311 0.896498
vt 0.718311 0.963614
vt 0.655811 0.813026
vt 0.655811 0.816243
vt 0.655811 0.813374
vt 0.655811 0.824265
vt 0.655811 0.827135
vt 0.655811 0.825419
vt 0.655811 0.824265
vt 0.655811 0.816243
vt 0.655811 0.813374
vt 0.655811 0.810587
vt 0.718311 0.960116
vt 0.718311 0.893618
vt 0.718311 0.877993
vt 0.718311 0.876337
vt 0.718311 0.877993
vt 0.718311 0.893618
vt 0.718311 0.960116
vt 0.718311 0.964114
vt 0.655811 0.824265
vt 0.718311 0.981394
vt 0.718311 0.953822
vt 0.718311 0.952866
vt 0.718311 0.950558
vt 0.718311 0.885750
vt 0.655811 0.877993
vt 0.655811 0.870125
vt 0.655811 0.869169
vt 0.655811 0.876337
vt 0.655811 0.870125
vt 0.655811 0.877993
vt 0.718311 0.885750
vt 0.718311 0.950558
vt 0.718311 0.952866
vt 0.718311 0.979739
vt 0.718311 0.937501
vt 0.718311 0.937501
vt 0.718311 0.937501
vt 0.718311 0.875001
vt 0.655811 0.859376
vt 0.655811 0.859376
vt 0.655811 0.859376
vt 0.718311 0.875001
vt 0.718311 0.937501
vt 0.718311 0.937501
vt 0.718311 0.921180
vt 0.718311 0.922136
vt 0.718311 0.924444
vt 0.718311 0.864253
vt 0.655811 0.848628
vt 0.655811 0.849584
vt 0.655811 0.848628
vt 0.718311 0.864253
vt 0.718311 0.924444
vt 0.718311 0.922136
vt 0.655811 0.806317
vt 0.655811 0.803751
vt 0.655811 0.804107
vt 0.655811 0.806523
vt 0.655811 0.809879
vt 0.655811 0.807463
vt 0.655811 0.808321
vt 0.718311 0.914886
vt 0.718311 0.856384
vt 0.655811 0.840759
vt 0.655811 0.842415
vt 0.655811 0.840759
vt 0.718311 0.856384
vt 0.718311 0.914886
vt 0.718311 0.910889
vt 0.655811 0.804107
vt 0.655811 0.802812
vt 0.655811 0.803223
vt 0.655811 0.806579
vt 0.655811 0.807570
vt 0.655811 0.795138
vt 0.655811 0.837879
vt 0.655811 0.839791
vt 0.655811 0.837879
vt 0.655811 0.795138
vt 0.655811 0.807570
vt 0.655811 0.808321
vt 0.655811 0.806579
vt 0.655811 0.807463
vt 0.655811 0.803223
vt 0.655811 0.803751
vt 0.655811 0.804107
vt 0.655811 0.807463
vt 0.655811 0.808321
vt 0.655811 0.914886
vt 0.655811 0.856384
vt 0.655811 0.853504
vt 0.655811 0.840759
vt 0.655811 0.842415
vt 0.655811 0.840759
vt 0.655811 0.853504
vt 0.655811 0.856384
vt 0.655811 0.914886
vt 0.655811 0.808321
vt 0.655811 0.807463
vt 0.655811 0.804107
vt 0.655811 0.806317
vt 0.655811 0.806523
vt 0.655811 0.809879
vt 0.655811 0.810374
vt 0.655811 0.797446
vt 0.655811 0.848628
vt 0.655811 0.849584
vt 0.655811 0.848628
vt 0.718311 0.856384
vt 0.718311 0.864253
vt 0.718311 0.924444
vt 0.718311 0.914886
vt 0.655811 0.806523
vt 0.718311 0.946491
vt 0.718311 0.864253
vt 0.655811 0.811248
vt 0.655811 0.813179
vt 0.718311 0.961762
vt 0.718311 0.962116
vt 0.718311 0.962116
vt 0.718311 0.961762
vt 0.655811 0.807968
vt 0.655811 0.807968
vt 0.655811 0.807892
vt 0.718311 0.962116
vt 0.718311 0.962116
vt 0.655811 0.813179
vt 0.655811 0.815109
vt 0.655811 0.815109
vt 0.718311 0.946491
vt 0.718311 0.946491
vt 0.718311 0.937501
vt 0.718311 0.937501
vt 0.718311 0.912887
vt 0.718311 0.913241
vt 0.718311 0.913241
vt 0.718311 0.912887
vt 0.718311 0.937501
vt 0.718311 0.928512
vt 0.718311 0.928512
vt 0.718311 0.937501
vt 0.718311 0.928512
vt 0.718311 0.928512
vt 0.718311 0.946491
vt 0.718311 0.937501
vt 0.718311 0.946491
vt 0.718311 0.962116
vt 0.718311 0.961762
vt 0.655811 0.821232
vt 0.655811 0.821478
vt 0.655811 0.821478
vt 0.655811 0.821232
vt 0.718311 0.928512
vt 0.718311 0.928512
vt 0.718311 0.928866
vt 0.718311 0.932262
vt 0.718311 0.937501
vt 0.718311 0.928512
vt 0.718311 0.946491
vt 0.718311 0.962116
vt 0.718311 0.945186
vt 0.718311 0.929816
vt 0.718311 0.958365
vt 0.718311 0.942740
vt 0.655811 0.810587
vt 0.655811 0.810340
vt 0.655811 0.810340
vt 0.655811 0.810587
vt 0.655811 0.810340
vt 0.655811 0.810340
vt 0.655811 0.821232
vt 0.655811 0.821232
vt 0.655811 0.821232
vt 0.655811 0.821232
vt 0.655811 0.821232
vt 0.655811 0.821232
vt 0.718311 0.928512
vt 0.718311 0.928512
vt 0.655811 0.821232
vt 0.655811 0.821232
vt 0.718311 0.928512
vt 0.718311 0.928512
vt 0.718311 0.928512
vt 0.655811 0.821232
vt 0.655811 0.821232
vt 0.655811 0.813179
vt 0.655811 0.811248
vt 0.655811 0.811248
vt 0.655811 0.807892
vt 0.655811 0.807892
vt 0.655811 0.815109
vt 0.655811 0.815109
vt 0.718311 0.946491
vt 0.655811 0.818389
vt 0.655811 0.818389
vt 0.655811 0.818465
vt 0.655811 0.818465
vt 0.718311 0.912887
vt 0.718311 0.912887
vt 0.655811 0.818465
vt 0.655811 0.818465
vt 0.655811 0.821478
vt 0.718311 0.856384
vt 0.718311 0.914886
vt 0.655811 0.856384
vt 0.655811 0.914886
vt 0.718311 0.906511
vt 0.718311 0.895264
vt 0.718311 0.905555
vt 0.655811 0.856384
vt 0.655811 0.914886
vt 0.655811 0.807892
vt 0.655811 0.805534
vt 0.655811 0.813374
vt 0.718311 0.983855
vn 0.8285 0.4486 0.3353
vn 0.6677 0.3655 0.6485
vn 0.0000 0.4930 0.8700
vn 0.4098 0.2198 0.8853
vn 0.9096 -0.1984 0.3649
vn 0.9207 -0.3054 0.2428
vn 0.8282 -0.4490 0.3354
vn -0.9348 -0.0000 -0.3551
vn -0.9348 -0.1777 -0.3076
vn -0.9349 -0.0001 -0.3550
vn -0.3946 0.0000 -0.9189
vn -0.3946 -0.4594 -0.7958
vn 0.3946 0.0000 -0.9189
vn 0.3946 -0.4594 -0.7958
vn 0.9349 0.0000 -0.3549
vn 0.9348 -0.1777 -0.3075
vn 0.6706 -0.3615 0.6478
vn 0.4098 -0.2198 0.8853
vn 0.0000 -0.4930 0.8700
vn 0.0000 0.8660 0.5000
vn -0.6639 0.6477 0.3739
vn -0.6677 0.3655 0.6485
vn -0.9131 0.3532 0.2039
vn -0.9091 0.1999 0.3656
vn -0.9348 -0.3077 -0.1776
vn -0.3946 -0.7958 -0.4594
vn 0.3946 -0.7958 -0.4594
vn 0.9348 -0.3077 -0.1776
vn 0.9091 0.1999 0.3656
vn 0.9131 0.3532 0.2039
vn 0.6639 0.6477 0.3739
vn -0.0000 1.0000 -0.0000
vn -0.6639 0.7478 0.0000
vn -0.9131 0.4078 0.0000
vn -0.9348 -0.3553 0.0000
vn -0.3946 -0.9189 0.0000
vn 0.3946 -0.9189 -0.0000
vn 0.9348 -0.3553 -0.0000
vn 0.9131 0.4078 -0.0000
vn 0.6639 0.7478 -0.0000
vn -0.0000 0.8660 -0.5000
vn -0.6639 0.6477 -0.3739
vn -0.9131 0.3532 -0.2039
vn -0.9348 -0.3077 0.1776
vn -0.3946 -0.7958 0.4594
vn 0.3946 -0.7958 0.4594
vn 0.9348 -0.3077 0.1776
vn 0.9131 0.3532 -0.2039
vn 0.6639 0.6477 -0.3739
vn -0.0000 0.5000 -0.8660
vn -0.6639 0.3739 -0.6477
vn -0.9131 0.2039 -0.3532
vn -0.9348 -0.1776 0.3077
vn -0.3946 -0.4594 0.7958
vn 0.3946 -0.4594 0.7958
vn 0.9348 -0.1776 0.3077
vn 0.9131 0.2039 -0.3532
vn 0.6639 0.3739 -0.6477
vn -0.0000 0.0000 -1.0000
vn -0.6639 0.0000 -0.7478
vn -0.9131 0.0000 -0.4078
vn -0.9348 0.0000 0.3553
vn -0.3946 -0.0000 0.9189
vn 0.3946 -0.0000 0.9189
vn 0.9348 0.0000 0.3553
vn 0.9131 0.0000 -0.4078
vn 0.6639 0.0000 -0.7478
vn -0.0000 -0.5000 -0.8660
vn -0.6639 -0.3739 -0.6477
vn -0.9131 -0.2039 -0.3532
vn -0.9348 0.1776 0.3077
vn -0.3946 0.4594 0.7958
vn 0.3946 0.4594 0.7958
vn 0.9348 0.1776 0.3077
vn 0.9131 -0.2039 -0.3532
vn 0.6639 -0.3739 -0.6477
vn -0.0000 -0.8660 -0.5000
vn -0.6639 -0.6477 -0.3739
vn -0.9131 -0.3532 -0.2039
vn -0.9348 0.3077 0.1776
vn -0.3946 0.7958 0.4594
vn 0.3946 0.7958 0.4594
vn 0.9348 0.3077 0.1776
vn 0.9131 -0.3532 -0.2039
vn 0.6639 -0.6477 -0.3739
vn 0.0000 -1.0000 0.0000
vn -0.6639 -0.7478 0.0000
vn -0.9131 -0.4078 0.0000
vn -0.9348 0.3553 0.0000
vn -0.3946 0.9189 0.0000
vn 0.3946 0.9189 -0.0000
vn 0.9348 0.3553 -0.0000
vn 0.9131 -0.4078 -0.0000
vn 0.6639 -0.7478 -0.0000
vn 0.0000 -0.8660 0.5000
vn -0.6639 -0.6477 0.3739
vn -0.9131 -0.3532 0.2039
vn -0.9348 0.3077 -0.1776
vn -0.3946 0.7958 -0.4594
vn 0.3946 0.7958 -0.4594
vn 0.9348 0.3077 -0.1776
vn 0.9131 -0.3532 0.2039
vn 0.6639 -0.6477 0.3739
vn -0.6677 -0.3655 0.6485
vn -0.9091 -0.1999 0.3656
vn -0.9348 0.1777 -0.3076
vn -0.3946 0.4594 -0.7958
vn 0.3946 0.4594 -0.7958
vn 0.9348 0.1777 -0.3075
vn -0.4098 0.2198 0.8853
vn -0.8284 0.4487 0.3352
vn -0.9247 0.2964 0.2390
vn 0.9247 0.2963 0.2390
vn -0.8284 -0.4487 0.3352
vn -0.9247 -0.2964 0.2390
vn -0.4539 0.8910 0.0000
vn -0.6914 0.7225 0.0000
vn 0.4539 -0.8910 -0.0000
vn -0.4098 -0.2198 0.8853
vn 0.4539 0.8910 -0.0000
vn 0.6914 0.7225 -0.0000
vn -0.8702 0.4927 0.0000
vn 0.8703 0.4926 -0.0000
vn -0.6914 -0.7225 0.0000
vn -0.4539 -0.8910 0.0000
vn -0.8786 -0.4775 0.0000
vn -0.8702 -0.4927 0.0000
vn -0.8702 -0.4926 0.0000
vn 0.8703 -0.4926 -0.0000
vn 0.8786 -0.4775 -0.0000
vn 0.6914 -0.7225 -0.0000
vn -0.8702 0.4926 0.0000
vn -0.8703 0.4926 0.0000
vn -0.6751 0.7377 0.0000
vn -0.3706 0.0000 -0.9288
vn -0.3764 -0.0000 0.9264
vn -0.3706 -0.0000 0.9288
vn -0.0000 -0.0000 1.0000
vn 0.9718 -0.2357 -0.0000
vn 0.6751 0.7377 -0.0000
vn -0.9718 -0.2357 0.0000
vn -0.8703 -0.4926 0.0000
vn -0.3755 0.1333 0.9172
vn -0.4092 0.0000 0.9124
vn 0.3755 0.1333 0.9172
vn 0.3764 0.0000 0.9264
vn 0.4092 0.0000 0.9124
vn -0.0000 0.6166 0.7873
vn -0.0000 0.3046 0.9525
vn 0.3706 -0.9288 -0.0000
vn -0.3706 -0.9288 0.0000
vn 0.3706 0.0000 -0.9288
vn 1.0000 0.0000 -0.0000
vn -1.0000 0.0000 0.0000
vn 0.3706 0.0000 0.9288
usemtl tools
s 1
f 97/1/1 12/2/2 5/3/3 94/4/4
f 91/5/5 99/6/6 98/7/7
f 1/8/8 7/9/9 8/10/9 2/11/10
f 2/12/11 8/13/12 9/14/12 3/15/11
f 3/15/13 9/14/14 10/16/14 4/17/13
f 4/18/15 10/19/16 11/20/16 99/21/15
f 92/22/17 98/7/7 93/23/18 85/24/19
f 5/3/3 13/25/20 14/26/21 6/27/22
f 6/27/22 14/28/21 15/29/23 7/9/24
f 7/9/9 15/29/25 16/30/25 8/10/9
f 8/13/12 16/31/26 17/32/26 9/14/12
f 9/14/14 17/32/27 18/33/27 10/16/14
f 10/19/16 18/34/28 19/35/28 11/20/16
f 11/20/29 19/35/30 20/36/31 12/2/2
f 12/2/2 20/37/31 13/25/20 5/3/3
f 13/38/20 21/39/32 22/40/33
f 14/28/21 22/41/33 23/42/34 15/29/23
f 15/29/25 23/42/35 24/43/35 16/30/25
f 16/44/26 24/45/36 25/46/36 17/47/26
f 17/47/27 25/46/37 26/48/37 18/49/27
f 18/34/28 26/50/38 27/51/38 19/35/28
f 27/52/39 28/53/40 20/54/31
f 20/55/31 28/56/40 21/39/32 13/38/20
f 21/39/32 29/57/41 30/58/42 22/40/33
f 22/59/33 30/60/42 31/61/43
f 23/42/35 31/62/44 32/63/44 24/43/35
f 24/45/36 32/64/45 33/65/45 25/46/36
f 25/46/37 33/65/46 34/66/46 26/48/37
f 26/50/38 34/67/47 35/68/47 27/51/38
f 27/51/39 35/68/48 36/69/49
f 28/56/40 36/70/49 29/57/41 21/39/32
f 29/71/41 37/72/50 38/73/51
f 38/73/51 39/74/52 31/62/43
f 31/62/44 39/74/53 40/75/53 32/63/44
f 32/76/45 40/77/54 41/78/54 33/79/45
f 33/79/46 41/78/55 42/80/55 34/81/46
f 34/67/47 42/82/56 43/83/56 35/68/47
f 35/68/48 43/83/57 44/84/58 36/69/49
f 36/85/49 44/84/58 37/72/50 29/71/41
f 37/72/50 45/86/59 46/87/60 38/73/51
f 38/73/51 46/87/60 47/88/61 39/74/52
f 39/74/53 47/88/62 48/89/62 40/75/53
f 40/77/54 48/90/63 49/91/63 41/78/54
f 41/78/55 49/91/64 50/92/64 42/80/55
f 42/82/56 50/93/65 51/94/65 43/83/56
f 43/83/57 51/94/66 52/95/67 44/84/58
f 44/84/58 52/95/67 45/86/59 37/72/50
f 45/86/59 53/96/68 54/97/69 46/87/60
f 46/87/60 54/97/69 55/98/70 47/88/61
f 47/88/62 55/98/71 56/99/71 48/89/62
f 48/90/63 56/100/72 57/101/72 49/91/63
f 49/91/64 57/101/73 58/102/73 50/92/64
f 50/93/65 58/103/74 59/104/74 51/94/65
f 51/94/66 59/104/75 60/105/76 52/95/67
f 52/95/67 60/105/76 53/96/68 45/86/59
f 53/106/68 61/107/77 62/108/78 54/109/69
f 54/110/69 62/111/78 63/112/79
f 55/98/71 63/113/80 64/114/80 56/99/71
f 56/100/72 64/115/81 65/116/81 57/101/72
f 57/101/73 65/116/82 66/117/82 58/102/73
f 58/103/74 66/118/83 67/119/83 59/104/74
f 59/104/75 67/119/84 68/120/85 60/105/76
f 68/121/85 61/107/77 53/106/68
f 61/107/77 69/122/86 70/123/87 62/108/78
f 62/111/78 70/124/87 71/125/88 63/112/79
f 63/112/80 71/125/89 72/126/89
f 64/115/81 72/127/90 73/128/90 65/116/81
f 65/116/82 73/128/91 74/129/91 66/117/82
f 74/130/92 75/131/92 67/132/83
f 67/132/84 75/131/93 76/133/94 68/134/85
f 68/121/85 76/135/94 69/122/86 61/107/77
f 69/122/86 77/136/95 78/137/96 70/123/87
f 70/124/87 78/138/96 79/139/97 71/125/88
f 79/140/98 80/141/98 72/142/89
f 72/127/90 80/143/99 81/144/99 73/128/90
f 73/128/91 81/144/100 82/145/100 74/129/91
f 74/146/92 82/147/101 83/148/101
f 75/131/93 83/149/102 84/150/103 76/133/94
f 76/135/94 84/151/103 77/136/95 69/122/86
f 77/136/95 85/152/19 86/153/104 78/137/96
f 78/138/96 86/154/104 87/155/105 79/139/97
f 79/139/98 87/155/106 88/156/106
f 80/143/99 88/157/107 89/158/107 81/144/99
f 81/144/100 89/158/108 90/159/108 82/145/100
f 82/160/101 90/161/109 91/162/109 83/163/101
f 83/149/102 91/5/5 92/22/17 84/150/103
f 84/151/103 92/164/17 85/152/19 77/136/95
f 94/4/110 5/3/3 6/27/22 96/165/111
f 1/8/112 96/165/111 6/27/22 7/9/24
f 1/8/8 2/11/10 88/166/106
f 88/157/107 2/12/11 3/15/11 89/158/107
f 89/158/108 3/15/13 4/17/13 90/159/108
f 90/161/109 4/18/15 99/21/15 91/162/109
f 99/21/113 11/20/29 12/2/2 97/1/1
f 86/154/104 95/167/114 1/168/115 87/155/105
f 133/169/116 129/170/117 100/171/117 106/172/116
f 132/173/118 93/174/118 98/175/7
f 85/24/19 93/23/119 95/167/114 86/154/104
f 133/169/120 106/172/120 108/176/121 134/177/121
f 136/178/122 129/179/117 96/180/111 1/168/112
f 134/181/121 108/182/121 107/183/123 135/184/123
f 131/185/124 132/186/125 103/187/125 105/188/126
f 136/189/127 131/190/124 105/191/126 101/192/128
f 135/184/129 107/183/129 104/193/130 130/194/131
f 100/195/117 101/192/132 112/196/133 111/197/134
f 106/172/116 100/171/117 111/198/134 114/199/116
f 105/200/135 103/201/59 119/202/59 121/203/135
f 113/204/136 122/205/137 110/206/138 118/207/138
f 104/193/130 107/183/129 115/208/129 102/209/139
f 107/183/123 108/182/121 116/210/140 115/208/123
f 101/192/128 105/191/126 113/204/141 112/196/142
f 108/176/121 106/172/120 114/199/120 116/211/140
f 113/204/136 111/212/143 112/196/144
f 116/210/145 102/213/146 115/208/147
f 116/211/145 114/199/148 117/214/149
f 111/197/143 113/204/136 118/207/138 117/215/149
f 102/209/146 116/210/145 117/215/149 118/207/138
f 114/199/148 111/198/143 117/214/149
f 119/216/86 120/217/150 109/218/150 110/219/86
f 121/220/151 119/216/86 110/219/86 122/221/151
f 103/201/59 104/222/152 120/223/152 119/202/59
f 102/224/139 109/225/153 127/226/153
f 105/200/126 121/203/154 125/227/154
f 102/209/146 118/207/138 110/206/138
f 113/204/141 123/228/154 126/229/154
f 125/227/154 126/230/154 123/231/154
f 113/204/141 105/191/126 123/228/154
f 104/193/130 124/232/153 128/233/153
f 127/234/153 128/233/153 124/232/153
f 104/193/130 102/209/139 124/232/153
f 109/225/153 120/223/153 128/235/153 127/226/153
f 121/203/154 122/236/154 126/230/154 125/227/154
f 123/231/154 105/200/126 125/227/154
f 122/205/154 113/204/141 126/229/154
f 124/232/153 102/209/139 127/234/153
f 120/223/153 104/222/130 128/235/153
f 99/6/6 135/237/129 130/238/131 98/7/7
f 1/168/115 95/167/114 131/239/124 136/178/127
f 95/240/114 93/174/125 132/173/125 131/241/124
f 97/242/1 134/243/121 135/237/123 99/6/113
f 101/192/132 100/195/117 129/244/117 136/189/122
f 94/245/120 133/246/120 134/247/121 97/248/1
f 103/187/118 132/186/118 130/249/131 104/250/130
f 94/245/116 96/251/111 129/252/117 133/246/116
f 109/225/155 102/224/146 110/253/138
f 87/155/106 1/168/8 88/156/106
f 80/254/98 79/255/98 88/166/106
f 71/125/89 79/139/98 72/126/89
f 64/256/80 63/257/80 72/142/89
f 55/98/70 54/97/69 63/113/79
f 60/258/76 68/259/85 53/260/68
f 66/261/83 74/146/92 67/262/83
f 75/131/92 74/130/92 83/149/101
f 92/22/17 91/5/5 98/7/7
f 130/263/131 132/173/118 98/175/7
f 23/42/34 22/41/33 31/62/43
f 30/60/42 38/264/51 31/61/43
f 30/58/42 29/57/41 38/264/51
f 28/53/40 27/52/39 36/265/49
f 19/35/30 27/51/39 20/36/31
f 14/26/21 13/25/20 22/266/33
