# Blender v3.4.1 OBJ File: 'RPG_Tool_Bits_Export.blend'
# www.blender.org
mtllib knife.mtl
o knife
v -0.000000 0.267455 -0.000000
v -0.000000 -0.235125 -0.000000
v -0.031339 -0.182349 -0.075658
v -0.025279 -0.217669 -0.061028
v 0.031338 -0.182349 -0.075658
v 0.025278 -0.217669 -0.061028
v 0.075657 -0.182349 -0.031338
v 0.061028 -0.217669 -0.025279
v 0.075657 -0.182349 0.031338
v 0.061028 -0.217669 0.025279
v 0.031338 -0.182349 0.075657
v 0.025278 -0.217669 0.061028
v -0.031338 -0.182349 0.075657
v -0.025279 -0.217669 0.061028
v -0.075658 -0.182349 0.031338
v -0.061028 -0.217669 0.025279
v -0.075658 -0.182349 -0.031338
v -0.061028 -0.217669 -0.025279
v -0.022658 0.168714 -0.054700
v 0.022657 0.168714 -0.054700
v 0.054700 0.168714 -0.022658
v 0.054700 0.168714 0.022658
v 0.022657 0.168714 0.054700
v -0.022658 0.168714 0.054700
v -0.054700 0.168714 0.022658
v -0.054700 0.168714 -0.022658
v 0.010649 -0.232298 -0.025709
v -0.010649 -0.232298 -0.025709
v 0.025708 -0.232298 -0.010649
v 0.025708 -0.232298 0.010649
v 0.010649 -0.232298 0.025709
v -0.010649 -0.232298 0.025709
v -0.025709 -0.232298 0.010649
v -0.025709 -0.232298 -0.010649
v -0.031339 0.118360 -0.075658
v -0.029762 0.134458 -0.071852
v -0.026541 0.201961 -0.064075
v -0.026722 0.218431 -0.064512
v 0.026721 0.218431 -0.064512
v 0.026541 0.201961 -0.064075
v 0.029762 0.134458 -0.071852
v 0.031338 0.118360 -0.075658
v 0.064511 0.218431 -0.026722
v 0.064075 0.201961 -0.026541
v 0.071852 0.134458 -0.029762
v 0.075657 0.118360 -0.031338
v 0.064511 0.218431 0.026722
v 0.064075 0.201961 0.026541
v 0.071852 0.134458 0.029762
v 0.075657 0.118360 0.031338
v 0.026721 0.218431 0.064512
v 0.026541 0.201961 0.064075
v 0.029762 0.134458 0.071852
v 0.031338 0.118360 0.075657
v -0.026722 0.218431 0.064512
v -0.026541 0.201961 0.064075
v -0.029762 0.134458 0.071852
v -0.031338 0.118360 0.075657
v -0.064512 0.218431 0.026722
v -0.064075 0.201961 0.026541
v -0.071852 0.134458 0.029762
v -0.075658 0.118360 0.031338
v -0.064512 0.218431 -0.026722
v -0.064075 0.201961 -0.026541
v -0.071852 0.134458 -0.029762
v -0.075658 0.118360 -0.031338
v 0.015883 0.267455 -0.038346
v 0.022685 0.261631 -0.054768
v -0.022686 0.261631 -0.054768
v -0.015884 0.267455 -0.038346
v 0.038346 0.267455 -0.015883
v 0.054768 0.261631 -0.022686
v 0.038346 0.267455 0.015883
v 0.054768 0.261631 0.022685
v 0.015883 0.267455 0.038346
v 0.022685 0.261631 0.054768
v -0.015884 0.267455 0.038346
v -0.022686 0.261631 0.054768
v -0.038346 0.267455 0.015883
v -0.054768 0.261631 0.022685
v -0.038346 0.267455 -0.015883
v -0.054768 0.261631 -0.022686
v -0.042157 0.267932 0.025000
v -0.042157 0.267932 -0.025000
v 0.027964 0.267932 0.025000
v 0.049993 0.267932 0.000000
v 0.027964 0.267932 -0.025000
v -0.212248 0.278641 0.000000
v 0.049993 1.058917 0.000000
v -0.212248 0.437259 0.000000
v -0.104906 0.928410 0.000000
v -0.157333 0.836224 0.000000
v -0.020589 0.640369 -0.025000
v -0.020589 0.640369 0.025000
v -0.111062 0.267932 0.025000
v 0.033903 0.975892 0.025000
v -0.112195 0.437259 0.025000
v -0.007256 0.946666 0.025000
v -0.050007 0.882547 0.025000
v -0.078093 0.807614 0.025000
v -0.102461 0.640369 0.025000
v -0.111062 0.267932 -0.025000
v 0.033903 0.975892 -0.025000
v -0.112195 0.437259 -0.025000
v -0.007256 0.946666 -0.025000
v -0.050007 0.882547 -0.025000
v -0.078093 0.807614 -0.025000
v -0.102461 0.640369 -0.025000
v 0.049993 0.980638 0.000000
v -0.008596 1.023978 0.000000
v -0.195347 0.657160 -0.000000
v -0.174260 0.640369 -0.006207
v -0.199695 0.615914 0.000000
v -0.174260 0.640369 0.006207
v -0.035378 1.002775 -0.000000
v -0.032195 0.969748 -0.014359
v -0.063574 0.972921 0.000000
v -0.032195 0.969748 0.014359
vt 0.554264 0.393775
vt 0.544737 0.378150
vt 0.541949 0.403661
vt 0.553110 0.419286
vt 0.569852 0.399214
vt 0.582367 0.383589
vt 0.577267 0.393775
vt 0.567739 0.409400
vt 0.552152 0.399214
vt 0.554264 0.409400
vt 0.539636 0.383589
vt 0.544737 0.393775
vt 0.539636 0.383589
vt 0.544737 0.393775
vt 0.567739 0.393775
vt 0.577267 0.378150
vt 0.580055 0.403661
vt 0.568894 0.419286
vt 0.582367 0.383589
vt 0.577267 0.393775
vt 0.555498 0.423136
vt 0.554539 0.423136
vt 0.546268 0.409256
vt 0.544737 0.378150
vt 0.541949 0.403661
vt 0.554264 0.393775
vt 0.553110 0.419286
vt 0.577267 0.378150
vt 0.580055 0.403661
vt 0.569852 0.399214
vt 0.567739 0.409400
vt 0.551683 0.334746
vt 0.551683 0.394427
vt 0.570320 0.394427
vt 0.570320 0.334746
vt 0.568519 0.324243
vt 0.553485 0.324243
vt 0.553485 0.308618
vt 0.568519 0.308618
vt 0.564168 0.288643
vt 0.557835 0.288643
vt 0.583499 0.319121
vt 0.579149 0.308618
vt 0.579149 0.292993
vt 0.568646 0.288643
vt 0.583499 0.319121
vt 0.579149 0.308618
vt 0.579149 0.292993
vt 0.568646 0.288643
vt 0.570320 0.334746
vt 0.568519 0.324243
vt 0.568519 0.308618
vt 0.564168 0.288643
vt 0.551683 0.334746
vt 0.553485 0.324243
vt 0.553485 0.308618
vt 0.557835 0.288643
vt 0.538505 0.319121
vt 0.542855 0.308618
vt 0.542855 0.292993
vt 0.553357 0.288643
vt 0.538505 0.319121
vt 0.542855 0.308618
vt 0.542855 0.292993
vt 0.553357 0.288643
vt 0.552152 0.399214
vt 0.554264 0.409400
vt 0.574290 0.423136
vt 0.576605 0.409256
vt 0.576605 0.409256
vt 0.583499 0.378802
vt 0.568334 0.423136
vt 0.583499 0.378802
vt 0.566506 0.423136
vt 0.567465 0.423136
vt 0.575736 0.409256
vt 0.570320 0.394427
vt 0.554539 0.423136
vt 0.566235 0.423136
vt 0.551683 0.394427
vt 0.547714 0.423136
vt 0.545398 0.409256
vt 0.553669 0.423136
vt 0.538505 0.378802
vt 0.545398 0.409256
vt 0.538505 0.378802
vt 0.567739 0.393775
vt 0.568894 0.419286
vt 0.561002 0.287803
vt 0.580184 0.408559
vt 0.568947 0.424184
vt 0.567747 0.437029
vt 0.577287 0.421404
vt 0.553056 0.424184
vt 0.554256 0.437029
vt 0.580184 0.408559
vt 0.577287 0.421404
vt 0.568947 0.424184
vt 0.567747 0.437029
vt 0.553056 0.424184
vt 0.554256 0.437029
vt 0.541819 0.408559
vt 0.544716 0.421404
vt 0.541819 0.408559
vt 0.544716 0.421404
vt 0.570320 0.410052
vt 0.551683 0.410052
vt 0.552152 0.414839
vt 0.569852 0.414839
vt 0.553056 0.439809
vt 0.568947 0.439809
vt 0.568894 0.434911
vt 0.553110 0.434911
vt 0.583499 0.394427
vt 0.582367 0.399214
vt 0.580184 0.424184
vt 0.580055 0.419286
vt 0.583499 0.394427
vt 0.582367 0.399214
vt 0.580184 0.424184
vt 0.580055 0.419286
vt 0.570320 0.410052
vt 0.569852 0.414839
vt 0.568947 0.439809
vt 0.568894 0.434911
vt 0.551683 0.410052
vt 0.552152 0.414839
vt 0.553056 0.439809
vt 0.553110 0.434911
vt 0.538505 0.394427
vt 0.539636 0.399214
vt 0.541819 0.424184
vt 0.541949 0.419286
vt 0.538505 0.394427
vt 0.539636 0.399214
vt 0.541819 0.424184
vt 0.541949 0.419286
vt 0.555153 0.438761
vt 0.566850 0.438761
vt 0.568106 0.437888
vt 0.576376 0.424009
vt 0.576896 0.423136
vt 0.576896 0.423136
vt 0.576376 0.424009
vt 0.568106 0.437888
vt 0.566850 0.438761
vt 0.555153 0.438761
vt 0.553898 0.437888
vt 0.545627 0.424009
vt 0.545107 0.423136
vt 0.545107 0.423136
vt 0.545627 0.424009
vt 0.553898 0.437888
vt 0.567465 0.423136
vt 0.555768 0.423136
vt 0.806135 0.706096
vt 0.833573 0.612862
vt 0.837248 0.614013
vt 0.807867 0.707322
vt 0.806135 0.706096
vt 0.804640 0.717570
vt 0.780748 0.718571
vt 0.791378 0.696871
vt 0.782798 0.715719
vt 0.779800 0.646893
vt 0.782798 0.637594
vt 0.791378 0.618746
vt 0.793002 0.626344
vt 0.797213 0.624915
vt 0.804181 0.603658
vt 0.800507 0.602508
vt 0.787698 0.622031
vt 0.788123 0.692840
vt 0.792324 0.688346
vt 0.788691 0.671966
vt 0.785151 0.679437
vt 0.799119 0.668446
vt 0.795374 0.682038
vt 0.794031 0.679134
vt 0.786319 0.626189
vt 0.791378 0.618746
vt 0.793988 0.623211
vt 0.804181 0.603658
vt 0.797213 0.624915
vt 0.786483 0.647048
vt 0.827652 0.568422
vt 0.833482 0.563092
vt 0.816166 0.564505
vt 0.826718 0.568104
vt 0.787267 0.697868
vt 0.787698 0.700156
vt 0.791378 0.696871
vt 0.778632 0.700140
vt 0.788691 0.671966
vt 0.792324 0.688346
vt 0.781604 0.713543
vt 0.797573 0.623630
vt 0.816166 0.580130
vt 0.827652 0.584047
vt 0.791392 0.666424
vt 0.786353 0.592621
vt 0.795293 0.573010
vt 0.785033 0.660344
vt 0.778226 0.649441
vt 0.775434 0.638461
vt 0.778248 0.617039
vt 0.797573 0.623630
vt 0.816166 0.580130
vt 0.795293 0.573010
vt 0.792325 0.666743
vt 0.826718 0.583729
vt 0.786353 0.592621
vt 0.785033 0.660344
vt 0.778226 0.649441
vt 0.775434 0.638461
vt 0.778248 0.617039
vt 0.810285 0.555828
vt 0.813959 0.556978
vt 0.813959 0.556978
vt 0.833573 0.612862
vt 0.833482 0.563092
vt 0.791290 0.726149
vt 0.796806 0.728467
vt 0.799119 0.726590
vt 0.798122 0.738273
vt 0.791208 0.730689
vt 0.797727 0.709986
vt 0.794031 0.679134
vt 0.799119 0.668446
vt 0.779800 0.678143
vt 0.791378 0.649996
vt 0.780748 0.671696
vt 0.787267 0.650993
vt 0.791378 0.649996
vt 0.786319 0.657439
vt 0.794031 0.737279
vt 0.794031 0.737279
vt 0.784771 0.746852
vt 0.799119 0.726590
vt 0.795374 0.713288
vt 0.799119 0.699696
vt 0.784771 0.719958
vt 0.799119 0.699696
vt 0.791290 0.699254
vn -0.3803 0.1109 -0.9182
vn -0.9182 0.1109 -0.3803
vn -0.9125 -0.1568 -0.3780
vn -0.3780 -0.1568 -0.9125
vn 0.3577 0.3551 0.8637
vn 0.8637 0.3551 0.3577
vn 0.9182 0.1109 0.3803
vn 0.3803 0.1109 0.9182
vn -0.3577 0.3551 0.8637
vn -0.3803 0.1109 0.9182
vn -0.8637 0.3551 0.3577
vn -0.9182 0.1109 0.3803
vn -0.8637 0.3551 -0.3577
vn 0.9125 -0.1568 0.3780
vn 0.3780 -0.1568 0.9125
vn 0.8637 0.3551 -0.3577
vn 0.9182 0.1109 -0.3803
vn 0.0000 1.0000 -0.0000
vn -0.0748 0.9807 -0.1807
vn -0.1807 0.9807 -0.0748
vn -0.9125 -0.1568 0.3780
vn -0.3780 -0.1568 0.9125
vn 0.9125 -0.1568 -0.3780
vn 0.3577 0.3551 -0.8637
vn 0.3803 0.1109 -0.9182
vn -0.3750 -0.1994 -0.9053
vn -0.3799 0.1213 -0.9171
vn 0.3799 0.1213 -0.9171
vn 0.3750 -0.1994 -0.9053
vn 0.2797 -0.6824 -0.6753
vn -0.2797 -0.6824 -0.6753
vn 0.1002 -0.9651 -0.2419
vn -0.1002 -0.9651 -0.2419
vn 0.9053 -0.1994 -0.3750
vn 0.6753 -0.6824 -0.2797
vn 0.2419 -0.9651 -0.1002
vn 0.9053 -0.1994 0.3750
vn 0.6753 -0.6824 0.2797
vn 0.2419 -0.9651 0.1002
vn 0.3750 -0.1994 0.9053
vn 0.2797 -0.6824 0.6753
vn 0.1002 -0.9651 0.2419
vn -0.3750 -0.1994 0.9053
vn -0.2797 -0.6824 0.6753
vn -0.1002 -0.9651 0.2419
vn -0.9053 -0.1994 0.3750
vn -0.6753 -0.6824 0.2797
vn -0.2419 -0.9651 0.1002
vn -0.9053 -0.1994 -0.3750
vn -0.6753 -0.6824 -0.2797
vn -0.2419 -0.9651 -0.1002
vn -0.3577 0.3551 -0.8637
vn 0.1807 0.9807 0.0748
vn 0.1807 0.9807 -0.0748
vn 0.9171 0.1213 -0.3799
vn 0.0748 0.9807 -0.1807
vn 0.9171 0.1213 0.3799
vn 0.0748 0.9807 0.1807
vn 0.3799 0.1213 0.9171
vn -0.0748 0.9807 0.1807
vn -0.3799 0.1213 0.9171
vn -0.1807 0.9807 0.0748
vn -0.9171 0.1213 0.3799
vn -0.9171 0.1213 -0.3799
vn 0.3780 -0.1568 -0.9125
vn 0.0000 -1.0000 -0.0000
vn 0.9191 0.1019 -0.3807
vn 0.3807 0.1019 -0.9191
vn 0.3718 0.2372 -0.8975
vn 0.8975 0.2372 -0.3718
vn -0.3807 0.1019 -0.9191
vn -0.3718 0.2372 -0.8975
vn 0.9191 0.1019 0.3807
vn 0.8975 0.2372 0.3718
vn 0.3807 0.1019 0.9191
vn 0.3718 0.2372 0.8975
vn -0.3807 0.1019 0.9191
vn -0.3718 0.2372 0.8975
vn -0.9191 0.1019 0.3807
vn -0.8975 0.2372 0.3718
vn -0.9191 0.1019 -0.3807
vn -0.8975 0.2372 -0.3718
vn 0.1192 0.9503 -0.2877
vn -0.1192 0.9503 -0.2877
vn 0.2877 0.9503 -0.1192
vn 0.2877 0.9503 0.1192
vn 0.1192 0.9503 0.2877
vn -0.1192 0.9503 0.2877
vn -0.2877 0.9503 0.1192
vn -0.2877 0.9503 -0.1192
vn 0.8134 -0.0021 0.5818
vn 0.7954 -0.0033 0.6061
vn 0.8211 -0.0015 0.5708
vn 0.8211 -0.0015 -0.5708
vn 0.8134 -0.0021 -0.5818
vn 0.8409 0.0000 -0.5412
vn -0.2486 0.0152 0.9685
vn -0.2574 0.0320 0.9658
vn -0.2531 0.0289 0.9670
vn -0.2636 0.0461 0.9635
vn -0.2442 0.0066 -0.9697
vn -0.2443 0.0069 -0.9697
vn -0.2412 -0.0008 -0.9705
vn -0.6229 -0.7823 0.0000
vn -0.2800 0.1775 -0.9434
vn -0.2800 0.1707 -0.9447
vn -0.2732 0.0891 -0.9578
vn -0.2734 0.0910 -0.9576
vn -0.2446 0.2477 0.9374
vn -0.1890 0.3139 0.9304
vn -0.2347 0.1862 0.9541
vn -0.2636 0.0461 -0.9635
vn -0.2574 0.0320 -0.9658
vn -0.2531 0.0289 -0.9670
vn -0.2412 -0.0008 0.9705
vn -0.2443 0.0069 0.9697
vn -0.2442 0.0066 0.9697
vn -0.2486 0.0152 -0.9685
vn -0.2734 0.0910 0.9576
vn -0.2732 0.0891 0.9578
vn -0.2800 0.1707 0.9447
vn -0.2800 0.1775 0.9434
vn -0.0000 -0.0000 1.0000
vn -0.0000 0.0000 -1.0000
vn -0.1053 -0.9944 0.0000
vn -0.0483 -0.9988 0.0000
vn 0.7954 -0.0033 -0.6061
vn 0.8409 0.0000 0.5412
vn -0.6931 0.7209 0.0000
vn -0.3014 0.1817 -0.9360
vn -0.2347 0.1862 -0.9541
vn -0.2446 0.2477 -0.9374
vn -0.1887 0.3165 0.9296
vn -0.2057 0.3059 0.9296
vn -0.2086 0.3041 0.9295
vn -0.1887 0.3165 -0.9296
vn -0.2086 0.3041 -0.9295
vn -0.2057 0.3059 -0.9296
vn -0.9954 -0.0959 0.0000
vn -0.1890 0.3139 -0.9304
vn 0.1006 0.9949 0.0000
vn -0.3014 0.1817 0.9360
usemtl tools
s 1
f 19/1/1 26/2/2 64/3/3 37/4/4
f 53/5/5 49/6/6 22/7/7 23/8/8
f 57/9/9 53/5/5 23/8/8 24/10/10
f 61/11/11 57/9/9 24/10/10 25/12/12
f 65/13/13 61/11/11 25/12/12 26/14/2
f 23/15/8 22/16/7 48/17/14 52/18/15
f 49/6/6 45/19/16 21/20/17 22/7/7
f 1/21/18 70/22/19 81/23/20
f 26/2/2 25/24/12 60/25/21 64/3/3
f 24/26/10 23/15/8 52/18/15 56/27/22
f 22/16/7 21/28/17 44/29/23 48/17/14
f 25/24/12 24/26/10 56/27/22 60/25/21
f 45/19/16 41/30/24 20/31/25 21/20/17
f 3/32/26 35/33/27 42/34/28 5/35/29
f 3/32/26 5/35/29 6/36/30 4/37/31
f 4/38/31 6/39/30 27/40/32 28/41/33
f 5/35/29 7/42/34 8/43/35 6/36/30
f 6/39/30 8/44/35 29/45/36 27/40/32
f 7/42/34 9/46/37 10/47/38 8/43/35
f 8/44/35 10/48/38 30/49/39 29/45/36
f 9/46/37 11/50/40 12/51/41 10/47/38
f 10/48/38 12/52/41 31/53/42 30/49/39
f 11/50/40 13/54/43 14/55/44 12/51/41
f 12/52/41 14/56/44 32/57/45 31/53/42
f 13/54/43 15/58/46 16/59/47 14/55/44
f 14/56/44 16/60/47 33/61/48 32/57/45
f 15/58/46 17/62/49 18/63/50 16/59/47
f 16/60/47 18/64/50 34/65/51 33/61/48
f 17/62/49 3/32/26 4/37/31 18/63/50
f 18/64/50 4/38/31 28/41/33 34/65/51
f 36/66/52 65/13/13 26/14/2 19/67/1
f 1/68/18 73/69/53 71/70/54
f 5/35/29 42/34/28 46/71/55 7/42/34
f 1/68/18 71/70/54 67/72/56
f 7/42/34 46/71/55 50/73/57 9/46/37
f 1/74/18 75/75/58 73/76/53
f 9/46/37 50/73/57 54/77/59 11/50/40
f 1/21/18 77/78/60 75/79/58
f 11/50/40 54/77/59 58/80/61 13/54/43
f 1/81/18 79/82/62 77/83/60
f 13/54/43 58/80/61 62/84/63 15/58/46
f 1/81/18 81/85/20 79/82/62
f 15/58/46 62/84/63 66/86/64 17/62/49
f 17/62/49 66/86/64 35/33/27 3/32/26
f 20/87/25 19/1/1 37/4/4 40/88/65
f 21/28/17 20/87/25 40/88/65 44/29/23
f 2/89/66 28/41/33 27/40/32
f 2/89/66 27/40/32 29/45/36
f 2/89/66 29/45/36 30/49/39
f 2/89/66 30/49/39 31/53/42
f 2/89/66 31/53/42 32/57/45
f 2/89/66 32/57/45 33/61/48
f 2/89/66 33/61/48 34/65/51
f 2/89/66 34/65/51 28/41/33
f 43/90/67 39/91/68 68/92/69 72/93/70
f 39/91/68 38/94/71 69/95/72 68/92/69
f 47/96/73 43/90/67 72/93/70 74/97/74
f 51/98/75 47/96/73 74/97/74 76/99/76
f 55/100/77 51/98/75 76/99/76 78/101/78
f 59/102/79 55/100/77 78/101/78 80/103/80
f 63/104/81 59/102/79 80/103/80 82/105/82
f 38/94/71 63/104/81 82/105/82 69/95/72
f 42/106/28 35/107/27 36/108/52 41/109/24
f 38/110/71 39/111/68 40/112/65 37/113/4
f 46/114/55 42/106/28 41/109/24 45/115/16
f 39/111/68 43/116/67 44/117/23 40/112/65
f 50/118/57 46/114/55 45/115/16 49/119/6
f 43/116/67 47/120/73 48/121/14 44/117/23
f 54/122/59 50/118/57 49/119/6 53/123/5
f 47/120/73 51/124/75 52/125/15 48/121/14
f 58/126/61 54/122/59 53/123/5 57/127/9
f 51/124/75 55/128/77 56/129/22 52/125/15
f 62/130/63 58/126/61 57/127/9 61/131/11
f 55/128/77 59/132/79 60/133/21 56/129/22
f 66/134/64 62/130/63 61/131/11 65/135/13
f 59/132/79 63/136/81 64/137/3 60/133/21
f 35/107/27 66/134/64 65/135/13 36/108/52
f 63/136/81 38/110/71 37/113/4 64/137/3
f 41/30/24 36/66/52 19/67/1 20/31/25
f 68/92/83 69/95/84 70/138/19 67/139/56
f 72/93/85 68/92/83 67/140/56 71/141/54
f 74/97/86 72/93/85 71/142/54 73/143/53
f 76/99/87 74/97/86 73/144/53 75/145/58
f 78/101/88 76/99/87 75/146/58 77/147/60
f 80/103/89 78/101/88 77/148/60 79/149/62
f 82/105/90 80/103/89 79/150/62 81/151/20
f 69/95/84 82/105/90 81/152/20 70/153/19
f 1/74/18 67/154/56 70/155/19
f 96/156/91 85/157/92 86/158/92 109/159/93
f 109/159/94 103/160/95 89/161/96
f 113/162/97 101/163/98 114/164/99
f 111/165/100 114/166/99 101/167/98
f 90/168/101 104/169/102 102/170/103 88/171/103
f 111/165/104 112/172/104 114/166/104
f 91/173/105 106/174/106 107/175/107 92/176/108
f 98/177/109 115/178/110 118/179/111
f 111/180/112 108/181/113 112/172/114
f 88/182/115 95/183/115 97/184/116 90/185/117
f 85/186/66 83/187/66 84/188/66 87/189/66
f 113/190/118 112/191/114 108/192/113
f 92/193/119 100/194/120 99/195/121 91/196/122
f 94/197/123 83/198/123 85/199/123
f 94/197/123 85/199/123 96/200/123
f 94/197/123 97/201/123 95/202/123
f 94/197/123 96/200/123 98/203/123
f 94/197/123 98/203/123 99/204/123
f 94/197/123 99/204/123 100/205/123
f 94/197/123 100/205/123 101/206/123
f 94/197/123 101/206/123 97/201/123
f 93/207/124 84/208/124 102/209/124
f 93/207/124 103/210/124 87/211/124
f 93/207/124 102/209/124 104/212/124
f 93/207/124 105/213/124 103/210/124
f 93/207/124 106/214/124 105/213/124
f 93/207/124 107/215/124 106/214/124
f 93/207/124 108/216/124 107/215/124
f 93/207/124 104/212/124 108/216/124
f 88/217/125 102/218/126 95/219/126
f 95/202/123 83/198/123 94/197/123
f 87/211/124 84/208/124 93/207/124
f 86/158/127 87/220/127 103/160/95 109/159/94
f 89/161/128 96/156/91 109/159/93
f 86/158/66 85/186/66 87/220/66
f 83/187/66 95/219/126 102/218/126 84/221/66
f 112/191/129 113/190/129 114/164/129
f 117/222/130 116/223/131 105/224/132
f 89/225/133 110/226/134 96/156/135
f 89/161/136 103/160/137 110/227/138
f 115/178/139 116/228/139 118/179/139
f 115/178/140 105/229/132 116/228/131
f 92/193/119 111/230/100 101/231/98 100/194/120
f 90/185/117 97/184/116 101/231/98 113/232/97
f 90/168/101 113/233/118 108/234/113 104/169/102
f 92/176/108 107/175/107 108/234/113 111/235/112
f 116/236/141 117/222/141 118/237/141
f 117/238/142 98/239/109 118/237/111
f 96/156/135 110/227/134 115/240/110 98/241/109
f 91/196/122 99/195/121 98/241/109 117/242/142
f 110/227/138 103/160/137 105/243/132 115/240/140
f 91/173/105 117/244/130 105/243/132 106/174/106
