# Blender v3.4.1 OBJ File: 'RPG_Tool_Bits_Export.blend'
# www.blender.org
mtllib lockpick_C.mtl
o lockpick_C
v -0.000000 -0.185125 0.000000
v -0.075658 -0.132349 0.031339
v -0.061028 -0.167669 0.025279
v -0.075658 -0.132349 -0.031338
v -0.061028 -0.167669 -0.025278
v 0.075657 -0.132349 -0.031338
v 0.061028 -0.167669 -0.025278
v 0.075657 -0.132349 0.031338
v 0.061028 -0.167669 0.025279
v -0.025709 -0.182298 -0.010649
v -0.025709 -0.182298 0.010649
v 0.025709 -0.182298 -0.010649
v 0.025709 -0.182298 0.010649
v -0.054768 0.211631 -0.022685
v -0.054768 0.211631 0.022686
v 0.054768 0.211631 -0.022685
v 0.054768 0.211631 0.022686
v -0.000000 -0.132350 0.046133
v -0.000000 -0.167669 0.037213
v -0.000000 -0.182298 0.015676
v -0.000000 0.211631 0.033396
v -0.000000 -0.132350 -0.046133
v -0.000000 -0.167669 -0.037212
v -0.000000 -0.182298 -0.015676
v -0.000000 0.211631 -0.033395
v -0.022851 0.222163 -0.014117
v 0.015401 0.180779 -0.042001
v 0.015401 0.180779 0.042001
v 0.021779 0.165390 -0.042539
v 0.021779 0.165390 0.042539
v 0.015401 0.150002 -0.043076
v 0.015401 0.150002 0.043076
v 0.000003 0.143627 -0.043299
v 0.000003 0.143627 0.043299
v -0.015396 0.150002 -0.043076
v -0.015396 0.150002 0.043076
v -0.021774 0.165390 -0.042539
v -0.021774 0.165390 0.042539
v -0.015396 0.180779 -0.042001
v -0.015396 0.180779 0.042001
v 0.000003 0.187154 -0.041779
v 0.000003 0.187154 0.041779
v 0.014974 0.179919 -0.029591
v 0.014974 0.179919 0.029591
v 0.021175 0.164957 0.030113
v 0.021175 0.164957 -0.030113
v 0.014974 0.149994 0.030636
v 0.014974 0.149994 -0.030636
v 0.000003 0.143797 0.030852
v 0.000003 0.143797 -0.030852
v -0.014969 0.149994 0.030636
v -0.014969 0.149994 -0.030636
v -0.021170 0.164957 0.030114
v -0.021170 0.164957 -0.030113
v -0.014969 0.179919 0.029591
v -0.014969 0.179919 -0.029591
v 0.000003 0.186116 0.029375
v 0.000003 0.186116 -0.029375
v 0.000003 0.165495 -0.045524
v 0.000003 0.165495 0.045524
v 0.015395 -0.099623 -0.051058
v 0.015395 -0.099623 0.051058
v 0.021773 -0.115021 -0.051058
v 0.021773 -0.115021 0.051058
v 0.015395 -0.130419 -0.051058
v 0.015395 -0.130419 0.051058
v -0.000003 -0.136797 -0.051058
v -0.000003 -0.136797 0.051058
v -0.015402 -0.130419 -0.051058
v -0.015402 -0.130419 0.051058
v -0.021780 -0.115021 -0.051058
v -0.021780 -0.115021 0.051058
v -0.015401 -0.099623 -0.051058
v -0.015401 -0.099623 0.051058
v -0.000003 -0.093244 -0.051058
v -0.000003 -0.093244 0.051058
v 0.014968 -0.100050 -0.036137
v 0.014968 -0.100050 0.036137
v 0.021169 -0.115021 0.036137
v 0.021169 -0.115021 -0.036137
v 0.014968 -0.129992 0.036137
v 0.014968 -0.129992 -0.036137
v -0.000003 -0.136193 0.036137
v -0.000003 -0.136193 -0.036137
v -0.014975 -0.129992 0.036137
v -0.014975 -0.129992 -0.036137
v -0.021176 -0.115021 0.036137
v -0.021176 -0.115021 -0.036137
v -0.014975 -0.100050 0.036137
v -0.014975 -0.100050 -0.036137
v -0.000003 -0.093848 0.036137
v -0.000003 -0.093848 -0.036137
v -0.000003 -0.115021 -0.054643
v -0.000003 -0.115021 0.054643
v 0.022851 0.222163 -0.014117
v 0.022851 0.222163 0.014117
v -0.075658 -0.003435 0.031339
v -0.066046 0.116320 0.027357
v -0.066046 0.116320 -0.027357
v -0.075658 -0.003435 -0.031338
v 0.075657 -0.003435 -0.031338
v 0.066046 0.116320 -0.027357
v 0.066046 0.116320 0.027357
v 0.075657 -0.003435 0.031338
v -0.000000 0.104051 0.040272
v -0.000000 0.008840 0.046133
v -0.000000 0.104051 -0.040272
v -0.000000 0.008840 -0.046133
v -0.022851 0.222163 0.014117
v -0.145349 0.700153 0.012424
v -0.145349 0.700153 -0.012424
v -0.021473 0.439987 0.013108
v -0.105053 0.659808 0.012454
v -0.032376 0.515941 0.012805
v -0.062969 0.596401 0.012566
v -0.105053 0.659808 -0.012454
v -0.021473 0.439987 -0.013108
v -0.062969 0.596401 -0.012566
v -0.032376 0.515941 -0.012805
v -0.083583 0.677565 0.012457
v 0.019085 0.456033 0.013076
v -0.028690 0.609944 0.012562
v 0.005740 0.531022 0.012788
v -0.083583 0.677565 -0.012457
v 0.019085 0.456033 -0.013076
v -0.028690 0.609944 -0.012562
v 0.005740 0.531022 -0.012788
v -0.053265 0.700153 -0.012457
v -0.053265 0.700153 0.012457
vt 0.585506 0.453881
vt 0.584117 0.428542
vt 0.584117 0.428544
vt 0.585506 0.453881
vt 0.584117 0.428542
vt 0.585506 0.453881
vt 0.600387 0.428542
vt 0.598997 0.453881
vt 0.582933 0.351598
vt 0.601570 0.351598
vt 0.599769 0.341095
vt 0.584735 0.341095
vt 0.584735 0.325470
vt 0.599769 0.325470
vt 0.595418 0.305495
vt 0.589085 0.305495
vt 0.601570 0.351598
vt 0.601570 0.351598
vt 0.599769 0.341095
vt 0.599769 0.341095
vt 0.599769 0.325470
vt 0.599769 0.325470
vt 0.595418 0.305495
vt 0.595418 0.305495
vt 0.582933 0.351598
vt 0.584735 0.341095
vt 0.584735 0.325470
vt 0.589085 0.305495
vt 0.582933 0.351598
vt 0.584735 0.341095
vt 0.584735 0.325470
vt 0.589085 0.305495
vt 0.598997 0.453881
vt 0.598997 0.453881
vt 0.599356 0.454740
vt 0.598100 0.455613
vt 0.586403 0.455613
vt 0.600386 0.428544
vt 0.592252 0.304655
vt 0.601570 0.387826
vt 0.601570 0.387826
vt 0.599356 0.454740
vt 0.582933 0.387826
vt 0.582933 0.387826
vt 0.601570 0.387826
vt 0.586403 0.455613
vt 0.598100 0.455613
vt 0.600387 0.428542
vt 0.585148 0.454740
vt 0.585148 0.454740
vt 0.582933 0.387826
vt 0.306053 0.885379
vt 0.318456 0.885379
vt 0.318456 0.885379
vt 0.306053 0.885379
vt 0.325011 0.905438
vt 0.326168 0.908231
vt 0.340237 0.894162
vt 0.337444 0.893005
vt 0.340237 0.874266
vt 0.337444 0.875423
vt 0.326168 0.860197
vt 0.325011 0.862990
vt 0.306272 0.860197
vt 0.307428 0.862990
vt 0.292203 0.874266
vt 0.294996 0.875423
vt 0.292203 0.894162
vt 0.294996 0.893005
vt 0.316220 0.884214
vt 0.340237 0.874266
vt 0.326168 0.860197
vt 0.306272 0.908231
vt 0.307428 0.905438
vt 0.316220 0.884214
vt 0.306272 0.908231
vt 0.307428 0.905438
vt 0.325011 0.905438
vt 0.326168 0.908231
vt 0.292203 0.894162
vt 0.294996 0.893005
vt 0.292203 0.874266
vt 0.294996 0.875423
vt 0.306272 0.860197
vt 0.307428 0.862990
vt 0.325011 0.862990
vt 0.337444 0.875423
vt 0.340237 0.894162
vt 0.337444 0.893005
vt 0.325011 0.874188
vt 0.326168 0.876981
vt 0.340237 0.862912
vt 0.337444 0.861755
vt 0.340237 0.843016
vt 0.337444 0.844173
vt 0.326168 0.828947
vt 0.325011 0.831740
vt 0.306272 0.828947
vt 0.307428 0.831740
vt 0.292203 0.843016
vt 0.294996 0.844173
vt 0.292203 0.862912
vt 0.294996 0.861755
vt 0.316220 0.852964
vt 0.340237 0.843016
vt 0.326168 0.828947
vt 0.306272 0.876981
vt 0.307428 0.874188
vt 0.316220 0.852964
vt 0.306272 0.876981
vt 0.307428 0.874188
vt 0.325011 0.874188
vt 0.326168 0.876981
vt 0.292203 0.862912
vt 0.294996 0.861755
vt 0.292203 0.843016
vt 0.294996 0.844173
vt 0.306272 0.828947
vt 0.307428 0.831740
vt 0.325011 0.831740
vt 0.337444 0.844173
vt 0.340237 0.862912
vt 0.337444 0.861755
vt 0.601570 0.419076
vt 0.582933 0.419076
vt 0.584117 0.459792
vt 0.600387 0.459792
vt 0.601570 0.419076
vt 0.600386 0.459794
vt 0.582933 0.419076
vt 0.601570 0.419076
vt 0.600387 0.459792
vt 0.584117 0.459792
vt 0.582933 0.419076
vt 0.584117 0.459794
vt 0.318456 0.861241
vt 0.318121 0.898994
vt 0.306379 0.897850
vt 0.306053 0.861241
vt 0.317921 0.945585
vt 0.317921 0.945585
vt 0.317921 0.945585
vt 0.317921 0.945585
vt 0.318121 0.923131
vt 0.318121 0.923131
vt 0.306053 0.861241
vt 0.306379 0.897850
vt 0.318121 0.898994
vt 0.318456 0.861241
vt 0.306600 0.922669
vt 0.317921 0.921448
vt 0.317921 0.921448
vt 0.317921 0.921448
vt 0.317921 0.921448
vt 0.306600 0.922669
vt 0.306379 0.921987
vt 0.306379 0.921987
vt 0.306492 0.934740
vt 0.306492 0.934740
vt 0.306577 0.944278
vt 0.306577 0.944278
vt 0.306590 0.945686
vt 0.306590 0.945686
vt 0.303142 0.911164
vt 0.314417 0.911734
vt 0.302692 0.920060
vt 0.314043 0.920082
vt 0.306590 0.921549
vt 0.318013 0.935267
vt 0.318013 0.935267
vt 0.317932 0.944326
vt 0.317932 0.944326
vt 0.314417 0.911734
vt 0.303142 0.911164
vt 0.314043 0.920082
vt 0.302692 0.920059
vt 0.306590 0.921549
vt 0.306600 0.946806
vt 0.306600 0.946806
vt 0.306600 0.954257
vt 0.306600 0.954257
vn -0.1850 0.0661 0.9805
vn -0.1881 0.0601 0.9803
vn 0.0000 0.0601 0.9982
vn 0.0000 0.0673 0.9977
vn 0.1881 0.0601 0.9803
vn 0.1850 0.0661 0.9805
vn 0.9952 0.0983 0.0000
vn 0.9931 0.1175 0.0000
vn -0.9828 -0.1848 -0.0000
vn -0.5729 -0.6432 -0.5079
vn -0.5729 -0.6432 0.5079
vn -0.1972 -0.9475 -0.2518
vn -0.1972 -0.9475 0.2518
vn -0.0000 -0.1216 -0.9926
vn 0.1908 -0.1061 -0.9759
vn 0.5729 -0.6432 -0.5079
vn -0.0000 -0.5539 -0.8326
vn 0.1972 -0.9475 -0.2518
vn -0.0000 -0.9168 -0.3993
vn 0.9828 -0.1848 0.0000
vn 0.5729 -0.6432 0.5079
vn 0.1972 -0.9475 0.2518
vn 0.0000 -0.1216 0.9926
vn -0.1908 -0.1061 0.9759
vn 0.0000 -0.5539 0.8326
vn 0.0000 -0.9168 0.3994
vn -0.0000 0.8523 -0.5230
vn -0.2658 0.9480 -0.1752
vn -0.1821 0.9199 -0.3473
vn 0.2658 0.9480 0.1752
vn 0.2658 0.9480 -0.1752
vn 0.1821 0.9199 -0.3473
vn 0.1821 0.9199 0.3473
vn 0.1850 0.0661 -0.9805
vn 0.1881 0.0601 -0.9803
vn -0.0000 0.0601 -0.9982
vn -0.0000 0.0673 -0.9977
vn -0.0000 -1.0000 0.0000
vn -0.0000 0.0299 -0.9996
vn 0.1919 0.0234 -0.9811
vn 0.1919 0.0234 0.9811
vn 0.0000 0.0299 0.9996
vn 0.1908 -0.1061 0.9759
vn -0.1919 0.0234 -0.9811
vn -0.1908 -0.1061 -0.9759
vn -0.2658 0.9480 0.1752
vn -0.1821 0.9199 0.3473
vn 0.9992 0.0396 0.0000
vn -0.1881 0.0601 -0.9803
vn -0.1850 0.0661 -0.9805
vn 0.0000 0.8523 0.5230
vn -0.9992 0.0396 -0.0000
vn 0.7063 0.7042 -0.0731
vn 0.9988 -0.0017 -0.0485
vn 0.7063 -0.7075 -0.0238
vn 0.0000 -0.9999 -0.0136
vn -0.7063 -0.7075 -0.0238
vn -0.9988 -0.0017 -0.0485
vn -0.7063 0.7042 -0.0731
vn 0.0000 0.0349 -0.9994
vn 0.0961 -0.0615 -0.9935
vn 0.0000 -0.1012 -0.9949
vn 0.0000 0.9965 -0.0833
vn 0.0000 0.0349 0.9994
vn -0.1359 0.0346 0.9901
vn -0.0961 -0.0615 0.9935
vn 0.0000 0.9965 0.0833
vn 0.7063 0.7042 0.0731
vn -0.7063 0.7042 0.0731
vn -0.9988 -0.0017 0.0485
vn -0.7063 -0.7075 0.0238
vn 0.0000 -0.9999 0.0136
vn 0.7063 -0.7075 0.0238
vn 0.9988 -0.0017 0.0485
vn -0.0000 0.1704 -0.9854
vn 0.0961 0.1306 -0.9868
vn 0.0000 -0.1012 0.9949
vn 0.0961 -0.0615 0.9935
vn 0.0961 0.1306 0.9868
vn -0.0000 0.1704 0.9854
vn -0.1359 0.0346 -0.9901
vn -0.0961 0.1306 -0.9868
vn -0.0961 0.1306 0.9868
vn -0.0961 -0.0615 -0.9935
vn 0.1359 0.0346 -0.9901
vn 0.1359 0.0346 0.9901
vn 0.7065 0.7065 -0.0404
vn 0.9992 -0.0000 -0.0404
vn 0.7065 -0.7065 -0.0404
vn 0.0000 -0.9992 -0.0404
vn -0.7065 -0.7065 -0.0404
vn -0.9992 0.0000 -0.0404
vn -0.7065 0.7065 -0.0404
vn 0.0000 0.0000 -1.0000
vn 0.1149 -0.1149 -0.9867
vn 0.0000 -0.1624 -0.9867
vn 0.0000 0.9992 -0.0404
vn 0.0000 -0.0000 1.0000
vn -0.1624 0.0000 0.9867
vn -0.1149 -0.1149 0.9867
vn 0.0000 0.9992 0.0404
vn 0.7065 0.7065 0.0404
vn -0.7065 0.7065 0.0404
vn -0.9992 0.0000 0.0404
vn -0.7065 -0.7065 0.0404
vn 0.0000 -0.9992 0.0404
vn 0.7065 -0.7065 0.0404
vn 0.9992 -0.0000 0.0404
vn 0.0000 0.1624 -0.9867
vn 0.1149 0.1149 -0.9867
vn -0.0000 -0.1624 0.9867
vn 0.1149 -0.1149 0.9867
vn 0.1149 0.1149 0.9867
vn 0.0000 0.1624 0.9867
vn -0.1624 0.0000 -0.9867
vn -0.1149 0.1149 -0.9867
vn -0.1149 0.1149 0.9867
vn -0.1149 -0.1149 -0.9867
vn 0.1624 -0.0000 -0.9867
vn 0.1624 -0.0000 0.9867
vn -0.1919 0.0234 0.9811
vn -0.9952 0.0983 -0.0000
vn -0.9931 0.1175 -0.0000
vn -0.0005 0.0045 1.0000
vn -0.0007 0.0041 1.0000
vn -0.0006 0.0042 1.0000
vn 0.5974 -0.8019 0.0000
vn 0.9999 0.0161 0.0000
vn 0.9954 0.0957 0.0000
vn -0.0005 0.0045 -1.0000
vn -0.0006 0.0042 -1.0000
vn -0.0007 0.0041 -1.0000
vn -0.0004 0.0004 -1.0000
vn -0.0004 0.0005 -1.0000
vn -0.0005 0.0007 -1.0000
vn -0.0005 0.0007 1.0000
vn -0.0004 0.0005 1.0000
vn -0.0004 0.0004 1.0000
vn -1.0000 0.0063 -0.0000
vn -0.9977 -0.0679 -0.0000
vn -0.9682 -0.2500 -0.0000
vn -0.8895 -0.4569 -0.0000
vn -0.7742 -0.6329 -0.0000
vn -0.0008 0.0032 -1.0000
vn -0.0007 0.0019 -1.0000
vn -0.0007 0.0020 -1.0000
vn -0.0005 0.0008 -1.0000
vn 0.9572 0.2893 0.0000
vn 0.8544 0.5197 0.0000
vn 0.7764 0.6302 0.0000
vn -0.0008 0.0032 1.0000
vn -0.0007 0.0020 1.0000
vn -0.0007 0.0019 1.0000
vn -0.0005 0.0008 1.0000
vn -0.7075 -0.7067 -0.0000
vn 0.0000 1.0000 0.0000
usemtl tools
s 1
f 15/1/1 98/2/2 105/3/3 21/4/4
f 103/5/5 17/6/6 21/4/4 105/3/3
f 102/7/7 16/8/8 17/6/8 103/5/7
f 2/9/9 4/10/9 5/11/10 3/12/11
f 3/13/11 5/14/10 10/15/12 11/16/13
f 22/17/14 6/18/15 7/19/16 23/20/17
f 23/21/17 7/22/16 12/23/18 24/24/19
f 6/18/20 8/25/20 9/26/21 7/19/16
f 7/22/16 9/27/21 13/28/22 12/23/18
f 18/29/23 2/9/24 3/12/11 19/30/25
f 19/31/25 3/13/11 11/16/13 20/32/26
f 25/33/27 14/34/28 26/35/29
f 17/6/30 16/8/31 95/36/32 96/37/33
f 16/8/34 102/7/35 107/38/36 25/33/37
f 1/39/38 11/16/13 10/15/12
f 24/24/19 12/23/18 1/39/38
f 1/39/38 12/23/18 13/28/22
f 20/32/26 11/16/13 1/39/38
f 108/40/39 101/41/40 6/18/15 22/17/14
f 95/42/32 25/33/27 26/35/29
f 104/43/41 106/44/42 18/29/23 8/25/43
f 100/45/44 108/40/39 22/17/14 4/10/45
f 14/34/28 15/1/46 109/46/47 26/47/29
f 9/27/21 19/31/25 20/32/26 13/28/22
f 8/25/43 18/29/23 19/30/25 9/26/21
f 6/18/20 101/41/48 104/43/48 8/25/20
f 99/48/49 14/34/50 25/33/37 107/38/36
f 5/14/10 23/21/17 24/24/19 10/15/12
f 4/10/45 22/17/14 23/20/17 5/11/10
f 13/28/22 20/32/26 1/39/38
f 10/15/12 24/24/19 1/39/38
f 15/1/46 21/4/51 109/49/47
f 17/6/30 96/50/33 21/4/51
f 16/8/31 25/33/27 95/42/32
f 96/50/33 109/49/47 21/4/51
f 2/9/9 97/51/52 100/45/52 4/10/9
f 26/52/38 95/53/38 96/54/38 109/55/38
f 44/56/53 28/57/53 30/58/54 45/59/54
f 45/59/54 30/58/54 32/60/55 47/61/55
f 47/61/55 32/60/55 34/62/56 49/63/56
f 49/63/56 34/62/56 36/64/57 51/65/57
f 51/65/57 36/64/57 38/66/58 53/67/58
f 53/67/58 38/66/58 40/68/59 55/69/59
f 59/70/60 31/71/61 33/72/62
f 55/69/59 40/68/59 42/73/63 57/74/63
f 57/74/63 42/73/63 28/57/53 44/56/53
f 60/75/64 38/66/65 36/64/66
f 41/76/67 58/77/67 43/78/68 27/79/68
f 39/80/69 56/81/69 58/77/67 41/76/67
f 37/82/70 54/83/70 56/81/69 39/80/69
f 35/84/71 52/85/71 54/83/70 37/82/70
f 33/72/72 50/86/72 52/85/71 35/84/71
f 31/71/73 48/87/73 50/86/72 33/72/72
f 29/88/74 46/89/74 48/87/73 31/71/73
f 27/79/68 43/78/68 46/89/74 29/88/74
f 59/70/60 41/76/75 27/79/76
f 60/75/64 34/62/77 32/60/78
f 60/75/64 28/57/79 42/73/80
f 59/70/60 37/82/81 39/80/82
f 60/75/64 40/68/83 38/66/65
f 59/70/60 33/72/62 35/84/84
f 59/70/60 29/88/85 31/71/61
f 60/75/64 36/64/66 34/62/77
f 59/70/60 27/79/76 29/88/85
f 60/75/64 32/60/78 30/58/86
f 59/70/60 39/80/82 41/76/75
f 60/75/64 42/73/80 40/68/83
f 59/70/60 35/84/84 37/82/81
f 60/75/64 30/58/86 28/57/79
f 78/90/87 62/91/87 64/92/88 79/93/88
f 79/93/88 64/92/88 66/94/89 81/95/89
f 81/95/89 66/94/89 68/96/90 83/97/90
f 83/97/90 68/96/90 70/98/91 85/99/91
f 85/99/91 70/98/91 72/100/92 87/101/92
f 87/101/92 72/100/92 74/102/93 89/103/93
f 93/104/94 65/105/95 67/106/96
f 89/103/93 74/102/93 76/107/97 91/108/97
f 91/108/97 76/107/97 62/91/87 78/90/87
f 94/109/98 72/100/99 70/98/100
f 75/110/101 92/111/101 77/112/102 61/113/102
f 73/114/103 90/115/103 92/111/101 75/110/101
f 71/116/104 88/117/104 90/115/103 73/114/103
f 69/118/105 86/119/105 88/117/104 71/116/104
f 67/106/106 84/120/106 86/119/105 69/118/105
f 65/105/107 82/121/107 84/120/106 67/106/106
f 63/122/108 80/123/108 82/121/107 65/105/107
f 61/113/102 77/112/102 80/123/108 63/122/108
f 93/104/94 75/110/109 61/113/110
f 94/109/98 68/96/111 66/94/112
f 94/109/98 62/91/113 76/107/114
f 93/104/94 71/116/115 73/114/116
f 94/109/98 74/102/117 72/100/99
f 93/104/94 67/106/96 69/118/118
f 93/104/94 63/122/119 65/105/95
f 94/109/98 70/98/100 68/96/111
f 93/104/94 61/113/110 63/122/119
f 94/109/98 66/94/112 64/92/120
f 93/104/94 73/114/116 75/110/109
f 94/109/98 76/107/114 74/102/117
f 93/104/94 69/118/118 71/116/115
f 94/109/98 64/92/120 62/91/113
f 106/44/42 97/51/121 2/9/24 18/29/23
f 100/124/52 97/125/52 98/126/122 99/127/122
f 108/128/39 100/124/44 99/127/49 107/129/36
f 104/130/48 101/131/48 102/132/7 103/133/7
f 106/134/42 104/130/41 103/133/5 105/135/3
f 97/125/121 106/134/42 105/135/3 98/126/2
f 101/131/40 108/128/39 107/129/36 102/132/35
f 98/2/122 15/1/123 14/34/123 99/48/122
f 96/136/124 121/137/125 112/138/126 109/139/124
f 120/140/127 124/141/127 128/142/127 129/143/127
f 95/53/128 125/144/129 121/145/129 96/54/128
f 26/146/130 117/147/131 125/148/132 95/149/130
f 111/150/133 128/151/134 124/152/135
f 120/153/136 129/154/137 110/155/138
f 109/55/139 112/156/140 117/157/140 26/52/139
f 117/157/140 112/156/140 114/158/141 119/159/141
f 119/159/141 114/158/141 115/160/142 118/161/142
f 118/161/142 115/160/142 113/162/143 116/163/143
f 125/148/132 117/147/131 119/164/144 127/165/144
f 127/165/144 119/164/144 118/166/145 126/167/146
f 126/167/146 118/166/145 116/168/147 124/152/135
f 121/145/129 125/144/129 127/169/148 123/170/148
f 123/170/148 127/169/148 126/171/149 122/172/149
f 122/172/149 126/171/149 124/141/150 120/140/150
f 112/138/126 121/137/125 123/173/151 114/174/151
f 114/174/151 123/173/151 122/175/152 115/176/153
f 115/176/153 122/175/152 120/153/136 113/177/154
f 116/163/143 113/162/143 110/178/155 111/179/155
f 110/180/156 129/143/156 128/142/156 111/181/156
f 113/177/154 120/153/136 110/155/138
f 116/168/147 111/150/133 124/152/135
