# Blender v3.4.1 OBJ File: 'RPG_Tool_Bits_Export.blend'
# www.blender.org
mtllib lockpick_A.mtl
o lockpick_A
v -0.000000 -0.185125 0.000000
v -0.075658 -0.132349 0.031339
v -0.061028 -0.167669 0.025279
v -0.075658 -0.132349 -0.031338
v -0.061028 -0.167669 -0.025278
v 0.075657 -0.132349 -0.031338
v 0.061028 -0.167669 -0.025278
v 0.075657 -0.132349 0.031338
v 0.061028 -0.167669 0.025279
v -0.025709 -0.182298 -0.010649
v -0.025709 -0.182298 0.010649
v 0.025709 -0.182298 -0.010649
v 0.025709 -0.182298 0.010649
v -0.054768 0.211631 -0.022685
v -0.054768 0.211631 0.022686
v 0.054768 0.211631 -0.022685
v 0.054768 0.211631 0.022686
v -0.000000 -0.132350 0.046133
v -0.000000 -0.167669 0.037213
v -0.000000 -0.182298 0.015676
v -0.000000 0.211631 0.033396
v -0.000000 -0.132350 -0.046133
v -0.000000 -0.167669 -0.037212
v -0.000000 -0.182298 -0.015676
v -0.000000 0.211631 -0.033395
v -0.022851 0.222163 0.014117
v -0.022851 0.222163 -0.014117
v 0.015401 0.180779 -0.042001
v 0.015401 0.180779 0.042001
v 0.021779 0.165390 -0.042539
v 0.021779 0.165390 0.042539
v 0.015401 0.150002 -0.043076
v 0.015401 0.150002 0.043076
v 0.000003 0.143627 -0.043299
v 0.000003 0.143627 0.043299
v -0.015396 0.150002 -0.043076
v -0.015396 0.150002 0.043076
v -0.021774 0.165390 -0.042539
v -0.021774 0.165390 0.042539
v -0.015396 0.180779 -0.042001
v -0.015396 0.180779 0.042001
v 0.000003 0.187154 -0.041779
v 0.000003 0.187154 0.041779
v 0.014974 0.179919 -0.029591
v 0.014974 0.179919 0.029591
v 0.021175 0.164957 0.030113
v 0.021175 0.164957 -0.030113
v 0.014974 0.149994 0.030636
v 0.014974 0.149994 -0.030636
v 0.000003 0.143797 0.030852
v 0.000003 0.143797 -0.030852
v -0.014969 0.149994 0.030636
v -0.014969 0.149994 -0.030636
v -0.021170 0.164957 0.030114
v -0.021170 0.164957 -0.030113
v -0.014969 0.179919 0.029591
v -0.014969 0.179919 -0.029591
v 0.000003 0.186116 0.029375
v 0.000003 0.186116 -0.029375
v 0.000003 0.165495 -0.045524
v 0.000003 0.165495 0.045524
v 0.015395 -0.099623 -0.051058
v 0.015395 -0.099623 0.051058
v 0.021773 -0.115021 -0.051058
v 0.021773 -0.115021 0.051058
v 0.015395 -0.130419 -0.051058
v 0.015395 -0.130419 0.051058
v -0.000003 -0.136797 -0.051058
v -0.000003 -0.136797 0.051058
v -0.015402 -0.130419 -0.051058
v -0.015402 -0.130419 0.051058
v -0.021780 -0.115021 -0.051058
v -0.021780 -0.115021 0.051058
v -0.015401 -0.099623 -0.051058
v -0.015401 -0.099623 0.051058
v -0.000003 -0.093244 -0.051058
v -0.000003 -0.093244 0.051058
v 0.014968 -0.100050 -0.036137
v 0.014968 -0.100050 0.036137
v 0.021169 -0.115021 0.036137
v 0.021169 -0.115021 -0.036137
v 0.014968 -0.129992 0.036137
v 0.014968 -0.129992 -0.036137
v -0.000003 -0.136193 0.036137
v -0.000003 -0.136193 -0.036137
v -0.014975 -0.129992 0.036137
v -0.014975 -0.129992 -0.036137
v -0.021176 -0.115021 0.036137
v -0.021176 -0.115021 -0.036137
v -0.014975 -0.100050 0.036137
v -0.014975 -0.100050 -0.036137
v -0.000003 -0.093848 0.036137
v -0.000003 -0.093848 -0.036137
v -0.000003 -0.115021 -0.054643
v -0.000003 -0.115021 0.054643
v 0.022851 0.222163 -0.014117
v 0.022851 0.222163 0.014117
v -0.020539 0.520702 0.012424
v -0.020539 0.520702 -0.012424
v 0.020539 0.520702 0.012424
v 0.020539 0.520702 -0.012424
v -0.020061 0.564798 0.012134
v -0.020061 0.564798 -0.012134
v 0.020061 0.564798 -0.012134
v 0.020061 0.564798 0.012134
v -0.047650 0.530909 0.012359
v -0.047650 0.530909 -0.012359
v -0.047052 0.554592 0.012204
v -0.047052 0.554592 -0.012204
v -0.019554 0.607517 0.011828
v -0.019554 0.607517 -0.011828
v 0.019554 0.607517 0.011828
v 0.019554 0.607517 -0.011828
v 0.018984 0.651613 -0.011483
v 0.018984 0.651613 0.011483
v -0.045304 0.617723 0.011751
v -0.045304 0.617723 -0.011751
v -0.044591 0.641406 0.011566
v -0.044591 0.641406 -0.011566
v -0.075658 -0.003435 0.031339
v -0.066046 0.116320 0.027357
v -0.066046 0.116320 -0.027357
v -0.075658 -0.003435 -0.031338
v 0.075657 -0.003435 -0.031338
v 0.066046 0.116320 -0.027357
v 0.066046 0.116320 0.027357
v 0.075657 -0.003435 0.031338
v -0.000000 0.104051 0.040272
v -0.000000 0.008840 0.046133
v -0.000000 0.104051 -0.040272
v -0.000000 0.008840 -0.046133
vt 0.585506 0.453881
vt 0.584117 0.428542
vt 0.584117 0.428544
vt 0.585506 0.453881
vt 0.584117 0.428542
vt 0.585506 0.453881
vt 0.600387 0.428542
vt 0.598997 0.453881
vt 0.582933 0.351598
vt 0.601570 0.351598
vt 0.599769 0.341095
vt 0.584735 0.341095
vt 0.584735 0.325470
vt 0.599769 0.325470
vt 0.595418 0.305495
vt 0.589085 0.305495
vt 0.601570 0.351598
vt 0.601570 0.351598
vt 0.599769 0.341095
vt 0.599769 0.341095
vt 0.599769 0.325470
vt 0.599769 0.325470
vt 0.595418 0.305495
vt 0.595418 0.305495
vt 0.582933 0.351598
vt 0.584735 0.341095
vt 0.584735 0.325470
vt 0.589085 0.305495
vt 0.582933 0.351598
vt 0.584735 0.341095
vt 0.584735 0.325470
vt 0.589085 0.305495
vt 0.598997 0.453881
vt 0.598997 0.453881
vt 0.599356 0.454740
vt 0.598100 0.455613
vt 0.586403 0.455613
vt 0.600386 0.428544
vt 0.592252 0.304655
vt 0.601570 0.387826
vt 0.601570 0.387826
vt 0.599356 0.454740
vt 0.582933 0.387826
vt 0.582933 0.387826
vt 0.601570 0.387826
vt 0.586403 0.455613
vt 0.598100 0.455613
vt 0.600387 0.428542
vt 0.585148 0.454740
vt 0.585148 0.454740
vt 0.582933 0.387826
vt 0.306053 0.885379
vt 0.318456 0.885379
vt 0.318456 0.885379
vt 0.306053 0.885379
vt 0.325011 0.905438
vt 0.326168 0.908231
vt 0.340237 0.894162
vt 0.337444 0.893005
vt 0.340237 0.874266
vt 0.337444 0.875423
vt 0.326168 0.860197
vt 0.325011 0.862990
vt 0.306272 0.860197
vt 0.307428 0.862990
vt 0.292203 0.874266
vt 0.294996 0.875423
vt 0.292203 0.894162
vt 0.294996 0.893005
vt 0.316220 0.884214
vt 0.340237 0.874266
vt 0.326168 0.860197
vt 0.306272 0.908231
vt 0.307428 0.905438
vt 0.316220 0.884214
vt 0.306272 0.908231
vt 0.307428 0.905438
vt 0.325011 0.905438
vt 0.326168 0.908231
vt 0.292203 0.894162
vt 0.294996 0.893005
vt 0.292203 0.874266
vt 0.294996 0.875423
vt 0.306272 0.860197
vt 0.307428 0.862990
vt 0.325011 0.862990
vt 0.337444 0.875423
vt 0.340237 0.894162
vt 0.337444 0.893005
vt 0.325011 0.874188
vt 0.326168 0.876981
vt 0.340237 0.862912
vt 0.337444 0.861755
vt 0.340237 0.843016
vt 0.337444 0.844173
vt 0.326168 0.828947
vt 0.325011 0.831740
vt 0.306272 0.828947
vt 0.307428 0.831740
vt 0.292203 0.843016
vt 0.294996 0.844173
vt 0.292203 0.862912
vt 0.294996 0.861755
vt 0.316220 0.852964
vt 0.340237 0.843016
vt 0.326168 0.828947
vt 0.306272 0.876981
vt 0.307428 0.874188
vt 0.316220 0.852964
vt 0.306272 0.876981
vt 0.307428 0.874188
vt 0.325011 0.874188
vt 0.326168 0.876981
vt 0.292203 0.862912
vt 0.294996 0.861755
vt 0.292203 0.843016
vt 0.294996 0.844173
vt 0.306272 0.828947
vt 0.307428 0.831740
vt 0.325011 0.831740
vt 0.337444 0.844173
vt 0.340237 0.862912
vt 0.337444 0.861755
vt 0.306600 0.946806
vt 0.306600 0.946806
vt 0.306053 0.861241
vt 0.306600 0.922669
vt 0.317910 0.922669
vt 0.318456 0.861241
vt 0.317910 0.946806
vt 0.317910 0.946806
vt 0.318456 0.861241
vt 0.317910 0.922669
vt 0.306600 0.922669
vt 0.306053 0.861241
vt 0.306731 0.932048
vt 0.317778 0.932048
vt 0.306871 0.941133
vt 0.317639 0.941133
vt 0.317778 0.956185
vt 0.317778 0.956185
vt 0.299134 0.924840
vt 0.299299 0.929877
vt 0.317778 0.932048
vt 0.306731 0.932048
vt 0.299134 0.948977
vt 0.299134 0.948977
vt 0.299299 0.954014
vt 0.299299 0.954014
vt 0.306731 0.956185
vt 0.306731 0.956185
vt 0.299299 0.929877
vt 0.299134 0.924840
vt 0.299977 0.948340
vt 0.299780 0.943303
vt 0.306871 0.941133
vt 0.299780 0.943303
vt 0.299977 0.948340
vt 0.317639 0.965270
vt 0.317639 0.965270
vt 0.317482 0.974648
vt 0.317482 0.974648
vt 0.299780 0.967441
vt 0.299780 0.967441
vt 0.299977 0.972477
vt 0.299977 0.972477
vt 0.306871 0.965270
vt 0.306871 0.965270
vt 0.317639 0.941133
vt 0.317482 0.950511
vt 0.317482 0.950511
vt 0.601570 0.419076
vt 0.582933 0.419076
vt 0.584117 0.459792
vt 0.600387 0.459792
vt 0.601570 0.419076
vt 0.600386 0.459794
vt 0.582933 0.419076
vt 0.601570 0.419076
vt 0.600387 0.459792
vt 0.584117 0.459792
vt 0.582933 0.419076
vt 0.584117 0.459794
vn -0.1850 0.0661 0.9805
vn -0.1881 0.0601 0.9803
vn 0.0000 0.0601 0.9982
vn 0.0000 0.0673 0.9977
vn 0.1881 0.0601 0.9803
vn 0.1850 0.0661 0.9805
vn 0.9952 0.0983 0.0000
vn 0.9931 0.1175 0.0000
vn -0.9828 -0.1848 -0.0000
vn -0.5729 -0.6432 -0.5079
vn -0.5729 -0.6432 0.5079
vn -0.1972 -0.9475 -0.2518
vn -0.1972 -0.9475 0.2518
vn -0.0000 -0.1216 -0.9926
vn 0.1908 -0.1061 -0.9759
vn 0.5729 -0.6432 -0.5079
vn -0.0000 -0.5539 -0.8326
vn 0.1972 -0.9475 -0.2518
vn -0.0000 -0.9168 -0.3993
vn 0.9828 -0.1848 0.0000
vn 0.5729 -0.6432 0.5079
vn 0.1972 -0.9475 0.2518
vn 0.0000 -0.1216 0.9926
vn -0.1908 -0.1061 0.9759
vn 0.0000 -0.5539 0.8326
vn 0.0000 -0.9168 0.3994
vn -0.0000 0.8523 -0.5230
vn -0.2658 0.9480 -0.1752
vn -0.1821 0.9199 -0.3473
vn 0.2658 0.9480 0.1752
vn 0.2658 0.9480 -0.1752
vn 0.1821 0.9199 -0.3473
vn 0.1821 0.9199 0.3473
vn 0.1850 0.0661 -0.9805
vn 0.1881 0.0601 -0.9803
vn -0.0000 0.0601 -0.9982
vn -0.0000 0.0673 -0.9977
vn -0.0000 -1.0000 0.0000
vn -0.0000 0.0299 -0.9996
vn 0.1919 0.0234 -0.9811
vn 0.1919 0.0234 0.9811
vn 0.0000 0.0299 0.9996
vn 0.1908 -0.1061 0.9759
vn -0.1919 0.0234 -0.9811
vn -0.1908 -0.1061 -0.9759
vn -0.2658 0.9480 0.1752
vn -0.1821 0.9199 0.3473
vn 0.9992 0.0396 0.0000
vn -0.1881 0.0601 -0.9803
vn -0.1850 0.0661 -0.9805
vn 0.0000 0.8523 0.5230
vn -0.9992 0.0396 -0.0000
vn 0.7063 0.7042 -0.0731
vn 0.9988 -0.0017 -0.0485
vn 0.7063 -0.7075 -0.0238
vn 0.0000 -0.9999 -0.0136
vn -0.7063 -0.7075 -0.0238
vn -0.9988 -0.0017 -0.0485
vn -0.7063 0.7042 -0.0731
vn 0.0000 0.0349 -0.9994
vn 0.0961 -0.0615 -0.9935
vn 0.0000 -0.1012 -0.9949
vn 0.0000 0.9965 -0.0833
vn 0.0000 0.0349 0.9994
vn -0.1359 0.0346 0.9901
vn -0.0961 -0.0615 0.9935
vn 0.0000 0.9965 0.0833
vn 0.7063 0.7042 0.0731
vn -0.7063 0.7042 0.0731
vn -0.9988 -0.0017 0.0485
vn -0.7063 -0.7075 0.0238
vn 0.0000 -0.9999 0.0136
vn 0.7063 -0.7075 0.0238
vn 0.9988 -0.0017 0.0485
vn -0.0000 0.1704 -0.9854
vn 0.0961 0.1306 -0.9868
vn 0.0000 -0.1012 0.9949
vn 0.0961 -0.0615 0.9935
vn 0.0961 0.1306 0.9868
vn -0.0000 0.1704 0.9854
vn -0.1359 0.0346 -0.9901
vn -0.0961 0.1306 -0.9868
vn -0.0961 0.1306 0.9868
vn -0.0961 -0.0615 -0.9935
vn 0.1359 0.0346 -0.9901
vn 0.1359 0.0346 0.9901
vn 0.7065 0.7065 -0.0404
vn 0.9992 -0.0000 -0.0404
vn 0.7065 -0.7065 -0.0404
vn 0.0000 -0.9992 -0.0404
vn -0.7065 -0.7065 -0.0404
vn -0.9992 0.0000 -0.0404
vn -0.7065 0.7065 -0.0404
vn 0.0000 0.0000 -1.0000
vn 0.1149 -0.1149 -0.9867
vn 0.0000 -0.1624 -0.9867
vn 0.0000 0.9992 -0.0404
vn 0.0000 -0.0000 1.0000
vn -0.1624 0.0000 0.9867
vn -0.1149 -0.1149 0.9867
vn 0.0000 0.9992 0.0404
vn 0.7065 0.7065 0.0404
vn -0.7065 0.7065 0.0404
vn -0.9992 0.0000 0.0404
vn -0.7065 -0.7065 0.0404
vn 0.0000 -0.9992 0.0404
vn 0.7065 -0.7065 0.0404
vn 0.9992 -0.0000 0.0404
vn 0.0000 0.1624 -0.9867
vn 0.1149 0.1149 -0.9867
vn -0.0000 -0.1624 0.9867
vn 0.1149 -0.1149 0.9867
vn 0.1149 0.1149 0.9867
vn 0.0000 0.1624 0.9867
vn -0.1624 0.0000 -0.9867
vn -0.1149 0.1149 -0.9867
vn -0.1149 0.1149 0.9867
vn -0.1149 -0.1149 -0.9867
vn 0.1624 -0.0000 -0.9867
vn 0.1624 -0.0000 0.9867
vn -1.0000 0.0077 -0.0000
vn -0.0000 0.0057 -1.0000
vn 0.0000 0.0062 -1.0000
vn -0.0000 0.0061 -1.0000
vn 1.0000 0.0077 0.0000
vn 1.0000 0.0093 0.0000
vn 0.0000 0.0057 1.0000
vn 0.0000 0.0061 1.0000
vn 0.0000 0.0062 1.0000
vn 0.0000 0.0068 -1.0000
vn 0.0000 0.0069 -1.0000
vn 0.0000 0.0076 -1.0000
vn 0.0000 0.0075 -1.0000
vn 0.9999 0.0114 0.0000
vn 0.0001 0.0066 -1.0000
vn 0.0000 0.0069 1.0000
vn 0.0000 0.0068 1.0000
vn -0.9997 0.0253 0.0000
vn -0.3537 0.9354 0.0000
vn 0.0001 0.0066 1.0000
vn -0.3523 -0.9359 0.0000
vn 0.0001 0.0078 1.0000
vn 0.0000 0.0076 1.0000
vn 0.0001 0.0078 -1.0000
vn 0.9999 0.0124 0.0000
vn 0.9999 0.0129 0.0000
vn -0.9995 0.0301 0.0000
vn -0.3685 -0.9296 0.0000
vn 0.0000 0.0075 1.0000
vn -0.9999 0.0119 0.0000
vn -0.1585 0.9874 0.0000
vn 0.0000 0.0078 1.0000
vn 0.0000 0.0078 -1.0000
vn -0.1919 0.0234 0.9811
vn -0.9952 0.0983 -0.0000
vn -0.9931 0.1175 -0.0000
usemtl tools
s 1
f 15/1/1 121/2/2 128/3/3 21/4/4
f 126/5/5 17/6/6 21/4/4 128/3/3
f 125/7/7 16/8/8 17/6/8 126/5/7
f 2/9/9 4/10/9 5/11/10 3/12/11
f 3/13/11 5/14/10 10/15/12 11/16/13
f 22/17/14 6/18/15 7/19/16 23/20/17
f 23/21/17 7/22/16 12/23/18 24/24/19
f 6/18/20 8/25/20 9/26/21 7/19/16
f 7/22/16 9/27/21 13/28/22 12/23/18
f 18/29/23 2/9/24 3/12/11 19/30/25
f 19/31/25 3/13/11 11/16/13 20/32/26
f 25/33/27 14/34/28 27/35/29
f 17/6/30 16/8/31 96/36/32 97/37/33
f 16/8/34 125/7/35 130/38/36 25/33/37
f 1/39/38 11/16/13 10/15/12
f 24/24/19 12/23/18 1/39/38
f 1/39/38 12/23/18 13/28/22
f 20/32/26 11/16/13 1/39/38
f 131/40/39 124/41/40 6/18/15 22/17/14
f 96/42/32 25/33/27 27/35/29
f 127/43/41 129/44/42 18/29/23 8/25/43
f 123/45/44 131/40/39 22/17/14 4/10/45
f 14/34/28 15/1/46 26/46/47 27/47/29
f 9/27/21 19/31/25 20/32/26 13/28/22
f 8/25/43 18/29/23 19/30/25 9/26/21
f 6/18/20 124/41/48 127/43/48 8/25/20
f 122/48/49 14/34/50 25/33/37 130/38/36
f 5/14/10 23/21/17 24/24/19 10/15/12
f 4/10/45 22/17/14 23/20/17 5/11/10
f 13/28/22 20/32/26 1/39/38
f 10/15/12 24/24/19 1/39/38
f 15/1/46 21/4/51 26/49/47
f 17/6/30 97/50/33 21/4/51
f 16/8/31 25/33/27 96/42/32
f 97/50/33 26/49/47 21/4/51
f 2/9/9 120/51/52 123/45/52 4/10/9
f 27/52/38 96/53/38 97/54/38 26/55/38
f 45/56/53 29/57/53 31/58/54 46/59/54
f 46/59/54 31/58/54 33/60/55 48/61/55
f 48/61/55 33/60/55 35/62/56 50/63/56
f 50/63/56 35/62/56 37/64/57 52/65/57
f 52/65/57 37/64/57 39/66/58 54/67/58
f 54/67/58 39/66/58 41/68/59 56/69/59
f 60/70/60 32/71/61 34/72/62
f 56/69/59 41/68/59 43/73/63 58/74/63
f 58/74/63 43/73/63 29/57/53 45/56/53
f 61/75/64 39/66/65 37/64/66
f 42/76/67 59/77/67 44/78/68 28/79/68
f 40/80/69 57/81/69 59/77/67 42/76/67
f 38/82/70 55/83/70 57/81/69 40/80/69
f 36/84/71 53/85/71 55/83/70 38/82/70
f 34/72/72 51/86/72 53/85/71 36/84/71
f 32/71/73 49/87/73 51/86/72 34/72/72
f 30/88/74 47/89/74 49/87/73 32/71/73
f 28/79/68 44/78/68 47/89/74 30/88/74
f 60/70/60 42/76/75 28/79/76
f 61/75/64 35/62/77 33/60/78
f 61/75/64 29/57/79 43/73/80
f 60/70/60 38/82/81 40/80/82
f 61/75/64 41/68/83 39/66/65
f 60/70/60 34/72/62 36/84/84
f 60/70/60 30/88/85 32/71/61
f 61/75/64 37/64/66 35/62/77
f 60/70/60 28/79/76 30/88/85
f 61/75/64 33/60/78 31/58/86
f 60/70/60 40/80/82 42/76/75
f 61/75/64 43/73/80 41/68/83
f 60/70/60 36/84/84 38/82/81
f 61/75/64 31/58/86 29/57/79
f 79/90/87 63/91/87 65/92/88 80/93/88
f 80/93/88 65/92/88 67/94/89 82/95/89
f 82/95/89 67/94/89 69/96/90 84/97/90
f 84/97/90 69/96/90 71/98/91 86/99/91
f 86/99/91 71/98/91 73/100/92 88/101/92
f 88/101/92 73/100/92 75/102/93 90/103/93
f 94/104/94 66/105/95 68/106/96
f 90/103/93 75/102/93 77/107/97 92/108/97
f 92/108/97 77/107/97 63/91/87 79/90/87
f 95/109/98 73/100/99 71/98/100
f 76/110/101 93/111/101 78/112/102 62/113/102
f 74/114/103 91/115/103 93/111/101 76/110/101
f 72/116/104 89/117/104 91/115/103 74/114/103
f 70/118/105 87/119/105 89/117/104 72/116/104
f 68/106/106 85/120/106 87/119/105 70/118/105
f 66/105/107 83/121/107 85/120/106 68/106/106
f 64/122/108 81/123/108 83/121/107 66/105/107
f 62/113/102 78/112/102 81/123/108 64/122/108
f 94/104/94 76/110/109 62/113/110
f 95/109/98 69/96/111 67/94/112
f 95/109/98 63/91/113 77/107/114
f 94/104/94 72/116/115 74/114/116
f 95/109/98 75/102/117 73/100/99
f 94/104/94 68/106/96 70/118/118
f 94/104/94 64/122/119 66/105/95
f 95/109/98 71/98/100 69/96/111
f 94/104/94 62/113/110 64/122/119
f 95/109/98 67/94/112 65/92/120
f 94/104/94 74/114/116 76/110/109
f 95/109/98 77/107/114 75/102/117
f 94/104/94 70/118/118 72/116/115
f 95/109/98 65/92/120 63/91/113
f 26/55/121 98/124/121 99/125/121 27/52/121
f 27/126/122 99/127/123 101/128/124 96/129/122
f 96/53/125 101/130/126 100/131/126 97/54/125
f 97/132/127 100/133/128 98/134/129 26/135/127
f 101/128/124 99/127/123 103/136/130 104/137/131
f 111/138/132 113/139/133 104/137/131 103/136/130
f 100/131/126 101/130/126 104/140/134 105/141/134
f 103/136/130 99/127/123 107/142/135 109/143/135
f 98/134/129 100/133/128 105/144/136 102/145/137
f 107/146/138 106/147/138 108/148/138 109/149/138
f 102/150/139 103/151/139 109/149/139 108/148/139
f 98/134/129 102/145/137 108/152/140 106/153/140
f 99/125/141 98/124/141 106/147/141 107/146/141
f 118/154/142 116/155/142 110/156/143
f 111/138/132 117/157/144 119/158/144
f 112/159/145 113/160/145 114/161/146 115/162/146
f 117/163/147 116/164/147 118/165/147 119/166/147
f 111/167/148 110/168/148 116/164/148 117/163/148
f 113/160/145 112/159/145 105/141/134 104/140/134
f 112/169/149 110/156/143 102/145/137 105/144/136
f 110/168/150 111/167/150 103/151/150 102/150/150
f 114/161/151 119/166/151 118/165/151 115/162/151
f 115/170/152 118/154/142 110/156/143 112/169/149
f 113/139/133 111/138/132 119/158/144 114/171/153
f 129/44/42 120/51/154 2/9/24 18/29/23
f 123/172/52 120/173/52 121/174/155 122/175/155
f 131/176/39 123/172/44 122/175/49 130/177/36
f 127/178/48 124/179/48 125/180/7 126/181/7
f 129/182/42 127/178/41 126/181/5 128/183/3
f 120/173/154 129/182/42 128/183/3 121/174/2
f 124/179/40 131/176/39 130/177/36 125/180/35
f 121/2/155 15/1/156 14/34/156 122/48/155
