# Blender v3.4.1 OBJ File: 'RPG_Tool_Bits_Export.blend'
# www.blender.org
mtllib lockpick_A_old.mtl
o lockpick_A_old
v -0.000000 -0.182304 -0.000000
v -0.055869 -0.164848 0.023142
v -0.055869 -0.164848 -0.023142
v 0.075657 -0.121347 -0.031338
v 0.055869 -0.164848 -0.023142
v 0.075657 -0.121347 0.031338
v 0.055869 -0.164848 0.023142
v -0.054700 0.169114 0.022658
v -0.054700 0.169114 -0.022658
v 0.054700 0.169114 -0.022658
v 0.054700 0.169114 0.022658
v -0.025709 -0.179478 -0.010649
v -0.025709 -0.179478 0.010649
v 0.025709 -0.179478 -0.010649
v 0.025709 -0.179478 0.010649
v -0.072362 0.128814 0.029973
v -0.064512 0.198367 0.026722
v -0.064512 0.198367 -0.026722
v -0.072362 0.128814 -0.029973
v 0.064512 0.198367 -0.026722
v 0.072362 0.128814 -0.029973
v 0.064512 0.198367 0.026722
v 0.072362 0.128814 0.029973
v -0.054768 0.223784 -0.022686
v -0.054768 0.223784 0.022686
v 0.054768 0.223784 -0.022686
v 0.054768 0.223784 0.022686
v -0.000000 0.229981 0.000000
v -0.000000 -0.164848 0.034067
v -0.000000 -0.179478 0.015676
v -0.000000 0.169114 0.033354
v -0.000000 0.128814 0.044124
v -0.000000 0.198367 0.039337
v -0.000000 0.223784 0.033395
v -0.000000 -0.121347 -0.046133
v -0.000000 -0.164848 -0.034067
v -0.000000 -0.179478 -0.015676
v -0.000000 0.169114 -0.033354
v -0.000000 0.128814 -0.044124
v -0.000000 0.198367 -0.039337
v -0.000000 0.223784 -0.033395
v 0.020856 0.229981 -0.008639
v 0.020856 0.229981 0.008639
v -0.000000 0.229981 0.012717
v -0.020856 0.229981 0.008639
v -0.000000 0.229981 -0.012717
v -0.020856 0.229981 -0.008639
v -0.022523 0.203117 0.013624
v -0.020539 0.520702 0.012424
v -0.022523 0.203117 -0.013624
v -0.020539 0.520702 -0.012424
v 0.022523 0.203117 0.013624
v 0.020539 0.520702 0.012424
v 0.022523 0.203117 -0.013624
v 0.020539 0.520702 -0.012424
v -0.020061 0.564798 -0.012134
v 0.020061 0.564798 -0.012134
v 0.020061 0.564798 0.012134
v -0.047650 0.530909 0.012359
v -0.047650 0.530909 -0.012359
v -0.019554 0.607517 0.011828
v -0.019554 0.607517 -0.011828
v 0.019554 0.607517 0.011828
v 0.019554 0.607517 -0.011828
v -0.018984 0.651613 0.011483
v -0.018984 0.651613 -0.011483
v 0.018984 0.651613 0.011483
v -0.045304 0.617723 0.011751
v -0.045304 0.617723 -0.011751
v -0.044591 0.641406 0.011566
v -0.044591 0.641406 -0.011566
v -0.061463 -0.002486 0.025827
v -0.072744 -0.069264 0.030568
v -0.000002 -0.078977 0.051825
v -0.000002 0.005721 0.043788
v -0.061463 -0.002486 -0.025827
v -0.072744 -0.069264 -0.030568
v -0.000002 0.005721 -0.043788
v -0.000002 -0.078977 -0.051825
v 0.061459 0.013927 -0.025827
v 0.072740 -0.088690 -0.030568
v 0.061459 0.013927 0.025827
v 0.072740 -0.088690 0.030568
v -0.000002 0.039720 0.058134
v -0.079200 0.029145 0.035067
v -0.079200 0.029145 -0.035067
v -0.000002 0.039720 -0.058134
v 0.079196 0.050295 -0.035067
v 0.079196 0.050295 0.035067
v -0.079200 -0.034035 0.035067
v -0.000002 -0.034035 0.058134
v -0.079200 -0.034035 -0.035067
v -0.000002 -0.034035 -0.058134
v 0.079196 -0.034035 -0.035067
v 0.079196 -0.034035 0.035067
v -0.073101 0.086249 0.027846
v -0.082172 0.073722 0.034635
v -0.073101 0.086249 -0.027846
v -0.082172 0.073722 -0.034635
v -0.000002 0.094784 -0.047210
v -0.000009 0.083339 -0.058764
v 0.073097 0.103318 -0.027846
v 0.082518 0.093015 -0.034863
v 0.073097 0.103318 0.027846
v 0.082518 0.093015 0.034863
v -0.000009 0.083339 0.058764
v -0.000002 0.094784 0.047210
v -0.080362 -0.061450 0.034226
v -0.080362 -0.061450 -0.034226
v -0.000002 -0.069475 -0.057689
v 0.080358 -0.077500 -0.034226
v 0.080358 -0.077500 0.034226
v -0.000002 -0.069475 0.057689
v -0.060844 -0.139033 0.022465
v -0.074782 -0.106646 0.031107
v -0.058790 -0.121021 0.018792
v -0.068632 -0.121030 -0.031183
v 0.004448 -0.121075 0.044517
v -0.021861 0.306590 0.013224
v -0.021861 0.306590 -0.013224
v 0.021200 0.445062 -0.012824
v 0.021200 0.445062 0.012824
v 0.021808 0.350132 -0.013191
v 0.021920 0.299526 -0.013259
v 0.012787 0.320942 -0.013224
v 0.021920 0.289623 0.013259
v 0.021808 0.340230 0.013191
v 0.012787 0.311040 0.013224
v -0.021071 0.471615 0.012745
v -0.021252 0.430048 0.012855
v -0.009935 0.455809 0.012824
v -0.021252 0.419451 -0.012855
v -0.021071 0.461017 -0.012745
v -0.009935 0.445212 -0.012824
v -0.047052 0.554592 -0.012154
v -0.020107 0.564781 0.012135
v -0.047227 0.547658 0.005124
v -0.039362 0.550610 0.012229
v -0.039214 0.557555 0.004976
v 0.002468 0.651613 -0.011483
v 0.018984 0.651613 0.005033
v 0.019198 0.635098 -0.011612
v 0.014147 0.651613 -0.006646
v 0.019047 0.646776 -0.006684
v 0.014209 0.646776 -0.011521
vt 0.821723 0.396411
vt 0.821723 0.419856
vt 0.800201 0.419856
vt 0.791955 0.396411
vt 0.851491 0.396411
vt 0.851491 0.396411
vt 0.843245 0.419856
vt 0.843245 0.419856
vt 0.821723 0.431365
vt 0.821723 0.441366
vt 0.843272 0.441366
vt 0.847105 0.431365
vt 0.843245 0.388606
vt 0.847105 0.400115
vt 0.821723 0.400115
vt 0.821723 0.388606
vt 0.791955 0.396411
vt 0.800201 0.419856
vt 0.821723 0.419856
vt 0.821723 0.396411
vt 0.793101 0.354053
vt 0.792300 0.339750
vt 0.821723 0.339527
vt 0.821722 0.350231
vt 0.797711 0.304082
vt 0.797711 0.304082
vt 0.811608 0.298325
vt 0.811608 0.298325
vt 0.821723 0.333603
vt 0.851491 0.333603
vt 0.845735 0.319707
vt 0.821723 0.319707
vt 0.821723 0.304082
vt 0.845735 0.304082
vt 0.831838 0.298325
vt 0.821723 0.298325
vt 0.851491 0.333603
vt 0.845735 0.319707
vt 0.845735 0.304082
vt 0.831838 0.298325
vt 0.794750 0.326855
vt 0.794748 0.326861
vt 0.797711 0.319707
vt 0.797711 0.319707
vt 0.821723 0.304082
vt 0.821723 0.298325
vt 0.800174 0.441366
vt 0.813517 0.443804
vt 0.821723 0.443804
vt 0.843272 0.441366
vt 0.829929 0.443804
vt 0.829929 0.443804
vt 0.821723 0.400115
vt 0.847105 0.400115
vt 0.843245 0.388606
vt 0.821723 0.388606
vt 0.821723 0.431365
vt 0.847105 0.431365
vt 0.821723 0.441366
vt 0.800201 0.388606
vt 0.796341 0.400115
vt 0.821723 0.297213
vt 0.796341 0.431365
vt 0.796341 0.431365
vt 0.800174 0.441366
vt 0.821723 0.443804
vt 0.813517 0.443804
vt 0.796341 0.400115
vt 0.800201 0.388606
vt 0.821722 0.350231
vt 0.792300 0.339750
vt 0.793101 0.354053
vt 0.821723 0.443804
vt 0.306403 0.836475
vt 0.318092 0.838539
vt 0.309519 0.838539
vt 0.306403 0.836475
vt 0.309519 0.838539
vt 0.318092 0.838539
vt 0.318092 0.869789
vt 0.317910 0.896299
vt 0.317910 0.896299
vt 0.318092 0.869789
vt 0.306235 0.843279
vt 0.306403 0.867725
vt 0.306403 0.867725
vt 0.306235 0.843279
vt 0.317910 0.865049
vt 0.306600 0.865049
vt 0.306731 0.877191
vt 0.317778 0.877191
vt 0.306871 0.888953
vt 0.317639 0.888953
vt 0.317778 0.908441
vt 0.317778 0.908441
vt 0.299134 0.867859
vt 0.299299 0.874380
vt 0.306600 0.865049
vt 0.317910 0.865049
vt 0.317778 0.877191
vt 0.306731 0.877191
vt 0.301417 0.873284
vt 0.299134 0.867859
vt 0.299134 0.899109
vt 0.299135 0.899123
vt 0.299251 0.903721
vt 0.299299 0.905630
vt 0.306718 0.938611
vt 0.301457 0.938611
vt 0.300789 0.938611
vt 0.306600 0.896299
vt 0.306600 0.896299
vt 0.317482 0.945696
vt 0.317499 0.945696
vt 0.316150 0.945696
vt 0.317482 0.932345
vt 0.317541 0.927798
vt 0.317499 0.931013
vt 0.317541 0.896548
vt 0.312934 0.901095
vt 0.316167 0.899763
vt 0.307027 0.901095
vt 0.299780 0.891763
vt 0.299977 0.898285
vt 0.306871 0.888953
vt 0.317639 0.888953
vt 0.317482 0.901095
vt 0.307027 0.901095
vt 0.299780 0.923013
vt 0.299780 0.923013
vt 0.299977 0.929535
vt 0.299977 0.929535
vt 0.307027 0.932345
vt 0.307027 0.932345
vt 0.299977 0.898285
vt 0.299780 0.891763
vt 0.306871 0.920203
vt 0.306871 0.920203
vt 0.317639 0.920203
vt 0.317639 0.920203
vt 0.306731 0.908441
vt 0.306731 0.908441
vt 0.716022 0.409711
vt 0.715222 0.418690
vt 0.715222 0.418690
vt 0.716022 0.409711
vt 0.798955 0.333603
vt 0.656624 0.418664
vt 0.685858 0.418674
vt 0.685861 0.405187
vt 0.655700 0.400662
vt 0.685858 0.418674
vt 0.685861 0.405187
vt 0.828723 0.333603
vt 0.850343 0.346409
vt 0.716022 0.371332
vt 0.711743 0.423392
vt 0.711743 0.423392
vt 0.716022 0.371332
vt 0.685861 0.419509
vt 0.685861 0.371332
vt 0.685861 0.371332
vt 0.685861 0.419509
vt 0.659977 0.415627
vt 0.655700 0.371332
vt 0.659977 0.353127
vt 0.685861 0.357009
vt 0.659977 0.415627
vt 0.655700 0.371332
vt 0.712703 0.299703
vt 0.685861 0.302714
vt 0.685861 0.291905
vt 0.711743 0.288022
vt 0.711743 0.360892
vt 0.711743 0.360892
vt 0.685861 0.302714
vt 0.712703 0.299703
vt 0.711743 0.288022
vt 0.685861 0.291905
vt 0.659018 0.305726
vt 0.659977 0.295787
vt 0.659018 0.305726
vt 0.659977 0.295787
vt 0.659977 0.353127
vt 0.655700 0.400662
vt 0.659018 0.336976
vt 0.659018 0.336976
vt 0.685861 0.357009
vt 0.712703 0.330953
vt 0.712703 0.330953
vt 0.656624 0.418664
vt 0.656624 0.434289
vt 0.685858 0.434299
vt 0.685861 0.470123
vt 0.659026 0.470123
vt 0.850343 0.346409
vt 0.656624 0.434289
vt 0.659026 0.470123
vt 0.685858 0.434299
vt 0.685861 0.470123
vt 0.821723 0.326848
vt 0.821723 0.319707
vt 0.715222 0.434315
vt 0.712696 0.470123
vt 0.715222 0.434315
vt 0.712696 0.470123
vt 0.792961 0.383416
vt 0.821722 0.383416
vt 0.850484 0.383416
vt 0.850484 0.383416
vt 0.821722 0.383416
vt 0.792961 0.383416
vt 0.685861 0.333964
vt 0.685861 0.333964
vt 0.792300 0.308500
vt 0.791955 0.302353
vt 0.792364 0.302353
vt 0.792364 0.364853
vt 0.794748 0.358111
vt 0.794750 0.358105
vt 0.821723 0.308277
vt 0.821673 0.364853
vt 0.306453 0.843717
vt 0.306453 0.843717
vt 0.318456 0.816769
vt 0.318290 0.840945
vt 0.318290 0.840945
vt 0.318456 0.816769
vt 0.318259 0.845442
vt 0.318259 0.845442
vt 0.318290 0.809695
vt 0.315776 0.812029
vt 0.306235 0.812029
vt 0.306053 0.816769
vt 0.306053 0.816769
vt 0.306453 0.874967
vt 0.306453 0.874967
vt 0.315776 0.780779
vt 0.318280 0.811149
vt 0.318259 0.814192
vt 0.318259 0.782942
vt 0.306235 0.812029
vt 0.315776 0.812029
vt 0.318290 0.809695
vt 0.318290 0.872195
vt 0.318290 0.872195
vt 0.318280 0.873649
vt 0.315776 0.843279
vt 0.306413 0.837874
vt 0.306413 0.837874
vt 0.306417 0.838539
vt 0.306403 0.898975
vt 0.306403 0.898975
vt 0.306413 0.900374
vt 0.306413 0.900374
vt 0.318259 0.814192
vt 0.306053 0.785519
vt 0.318456 0.785519
vt 0.318456 0.785519
vt 0.306053 0.785519
vt 0.299251 0.938611
vt 0.301457 0.906446
vt 0.299135 0.938611
vt 0.301417 0.938611
vt 0.299299 0.938611
vt 0.316167 0.945696
vt 0.312934 0.932345
vt 0.316150 0.932345
vt 0.317541 0.945696
vt 0.312934 0.945696
vt 0.317482 0.932345
vn -0.0005 0.1364 0.9906
vn 0.0000 0.0306 0.9995
vn -0.1918 0.0339 0.9808
vn -0.2098 0.1182 0.9706
vn 0.9769 0.2138 0.0000
vn 0.9988 0.0485 0.0000
vn -0.0000 0.0136 -0.9999
vn -0.0000 0.2276 -0.9737
vn 0.1871 0.2236 -0.9566
vn 0.1919 0.0106 -0.9814
vn 0.1918 0.0339 0.9808
vn 0.1919 0.0106 0.9814
vn 0.0000 0.0136 0.9999
vn -0.2098 0.1182 -0.9706
vn -0.1918 0.0339 -0.9808
vn -0.0000 0.0306 -0.9995
vn -0.0005 0.1364 -0.9906
vn -0.2350 -0.0896 0.9679
vn 0.0163 -0.1405 0.9899
vn -0.0388 -0.0802 0.9960
vn -0.3437 -0.6219 0.7037
vn -0.3085 -0.6623 -0.6828
vn -0.2230 -0.9339 -0.2793
vn -0.2230 -0.9339 0.2793
vn -0.0082 -0.1592 -0.9872
vn 0.2126 -0.1481 -0.9659
vn 0.5723 -0.6423 -0.5099
vn -0.0036 -0.5319 -0.8468
vn 0.2230 -0.9339 -0.2793
vn -0.0000 -0.8996 -0.4368
vn 0.9879 -0.1552 0.0000
vn 0.5717 -0.6402 0.5131
vn 0.2230 -0.9339 0.2793
vn -0.9695 -0.2430 0.0318
vn -0.0250 -0.5036 0.8636
vn 0.0000 -0.8996 0.4368
vn 0.0000 0.9579 -0.2871
vn -0.1394 0.9854 -0.0982
vn -0.0800 0.9898 -0.1176
vn -0.0000 0.9867 -0.1624
vn -0.9786 0.2059 -0.0000
vn -0.9988 0.0485 -0.0000
vn 0.1394 0.9854 0.0982
vn 0.1394 0.9854 -0.0982
vn 0.0800 0.9898 -0.1176
vn 0.0800 0.9898 0.1176
vn 0.1918 0.0339 -0.9808
vn 0.1871 0.2236 0.9566
vn 0.0000 0.2276 0.9737
vn -0.1919 0.0106 -0.9814
vn -0.0000 -1.0000 0.0000
vn -0.9998 0.0192 -0.0000
vn -0.9337 0.3580 -0.0000
vn 0.9998 0.0192 0.0000
vn 0.9337 0.3580 0.0000
vn 0.0000 0.9579 0.2871
vn 0.0000 0.9867 0.1624
vn -0.0800 0.9898 0.1176
vn -0.1394 0.9854 0.0982
vn 0.2088 0.1198 -0.9706
vn 0.2088 0.1198 0.9706
vn -0.1919 0.0106 0.9814
vn -0.1871 0.2236 0.9566
vn -0.0306 -0.0610 -0.9977
vn -0.2288 -0.1459 -0.9625
vn -0.2518 -0.0631 -0.9657
vn -0.1871 0.2236 -0.9566
vn 0.0000 1.0000 -0.0000
vn -0.0004 0.0026 1.0000
vn 0.0006 0.0037 1.0000
vn 0.0010 0.0037 1.0000
vn -0.0014 0.0031 -1.0000
vn 0.0001 0.0033 -1.0000
vn -0.0005 0.0041 -1.0000
vn 1.0000 0.0074 0.0006
vn 1.0000 0.0098 0.0000
vn -1.0000 0.0058 -0.0005
vn -1.0000 0.0052 -0.0010
vn 0.0000 0.0059 -1.0000
vn -0.0002 0.0063 -1.0000
vn -0.0002 0.0070 -1.0000
vn 0.0000 0.0069 -1.0000
vn 0.0000 0.0076 -1.0000
vn 0.0000 0.0075 -1.0000
vn 0.9999 0.0114 0.0000
vn -0.0008 0.0073 -1.0000
vn 0.0000 0.0066 1.0000
vn 0.0003 0.0063 1.0000
vn -0.0000 0.0069 1.0000
vn 0.0000 0.0068 1.0000
vn 0.0001 0.0066 1.0000
vn -0.9997 0.0253 0.0000
vn -0.4698 0.6423 0.6056
vn -0.6243 0.6211 0.4737
vn -0.6215 0.5127 0.5924
vn -0.3523 -0.9359 0.0000
vn 0.6735 0.6845 -0.2790
vn 0.6662 0.5329 -0.5218
vn 0.5201 0.6769 -0.5208
vn 0.9999 0.0129 -0.0000
vn -0.0000 0.0078 -1.0000
vn 0.0001 0.0078 -1.0000
vn 0.0000 0.0076 1.0000
vn -0.0000 0.0075 1.0000
vn 0.0000 0.0078 1.0000
vn -0.9995 0.0301 0.0000
vn -0.1887 0.9820 -0.0000
vn -0.3703 0.9289 0.0000
vn 0.0001 0.0078 1.0000
vn -0.3685 -0.9296 0.0000
vn 0.9999 0.0124 0.0000
vn -0.9999 0.0124 -0.0010
vn 0.9686 -0.2487 -0.0000
vn 0.9970 -0.0775 -0.0000
vn -0.2957 0.2671 -0.9172
vn -0.0330 0.3345 -0.9418
vn 0.0224 -0.1988 -0.9798
vn -0.2528 -0.1851 -0.9497
vn 0.2241 0.3262 -0.9184
vn 0.2948 -0.1537 -0.9431
vn 0.2241 0.3262 0.9184
vn -0.0330 0.3345 0.9418
vn 0.0224 -0.1988 0.9798
vn 0.2948 -0.1537 0.9431
vn 0.2075 -0.1482 0.9669
vn 0.2281 -0.0625 0.9716
vn 0.9836 0.1805 -0.0000
vn 0.9379 0.3469 -0.0000
vn 0.2701 0.1282 0.9543
vn 0.2512 0.2984 0.9208
vn 0.0048 0.3411 0.9400
vn -0.0078 0.1627 0.9867
vn -0.0078 0.1627 -0.9867
vn 0.0048 0.3411 -0.9400
vn 0.2512 0.2984 -0.9208
vn 0.2701 0.1282 -0.9543
vn -0.2803 0.3636 0.8884
vn -0.2857 0.1471 0.9470
vn -0.2117 -0.3807 -0.9001
vn 0.0296 -0.3894 -0.9206
vn -0.9667 0.2560 0.0000
vn -0.8717 0.4901 0.0000
vn 0.2493 -0.2246 0.9420
vn -0.0222 -0.2711 0.9623
vn -0.0327 -0.5266 0.8495
vn 0.1972 -0.4688 0.8610
vn 0.8988 -0.4384 -0.0000
vn -0.0222 -0.2711 -0.9623
vn 0.2493 -0.2246 -0.9420
vn 0.1972 -0.4688 -0.8610
vn -0.0327 -0.5266 -0.8495
vn -0.2960 -0.2188 -0.9298
vn -0.2917 -0.5562 -0.7781
vn -0.2960 -0.2188 0.9298
vn -0.2917 -0.5562 0.7781
vn -0.8722 -0.4891 0.0000
vn -0.9638 -0.2668 0.0000
vn -0.2857 0.1471 -0.9470
vn -0.2803 0.3636 -0.8884
vn -0.9991 0.0423 0.0000
vn 0.3053 -0.3709 -0.8770
vn 0.3053 -0.3709 0.8770
vn 0.0296 -0.3894 0.9206
vn 0.9679 -0.2512 -0.0000
vn -0.2528 -0.1851 0.9497
vn -0.2117 -0.3807 0.9001
vn -0.9750 0.2224 0.0000
vn -0.2957 0.2671 0.9172
vn -0.0679 0.6754 0.7343
vn -0.2748 0.6477 0.7106
vn 0.9960 0.0890 0.0000
vn 0.2323 -0.0547 -0.9711
vn -0.8100 0.5865 0.0000
vn -0.2748 0.6477 -0.7106
vn -0.0679 0.6754 -0.7343
vn 0.1233 0.6747 -0.7277
vn 0.7380 0.6748 0.0000
vn 0.1233 0.6747 0.7277
vn -0.2253 0.0144 0.9742
vn -0.0176 0.0167 0.9997
vn 0.2235 0.0185 0.9745
vn 0.9996 0.0288 0.0000
vn 0.2235 0.0185 -0.9745
vn -0.0176 0.0167 -0.9997
vn -0.2253 0.0144 -0.9742
vn -0.9998 0.0174 -0.0000
vn -0.9986 -0.0232 -0.0471
vn 0.8267 -0.5627 0.0000
vn -0.7161 -0.6980 0.0000
vn -0.4418 -0.8142 0.3767
vn -0.6107 -0.7826 0.1204
vn -0.4433 -0.8142 0.3749
vn -0.9701 0.1496 0.1910
vn -0.2402 -0.7717 0.5889
vn -0.3669 0.2258 0.9024
vn -0.2412 -0.1368 0.9608
vn 0.0002 0.0052 -1.0000
vn 0.0008 0.0059 1.0000
vn 1.0000 0.0066 0.0012
vn 1.0000 0.0061 0.0012
vn 0.0002 0.0033 1.0000
vn -0.0007 0.0022 1.0000
vn -0.0001 0.0032 1.0000
vn -1.0000 0.0064 -0.0000
vn -0.9999 0.0098 -0.0021
vn 0.9496 -0.2934 -0.1100
vn -0.0006 0.0032 -1.0000
vn -0.0015 0.0024 -1.0000
vn -0.0003 0.0029 -1.0000
vn 0.9101 0.3881 0.1451
vn -0.0035 0.0026 -1.0000
vn -0.7951 -0.5602 0.2322
vn -0.9032 0.3968 -0.1637
vn -0.0029 0.0024 1.0000
vn -0.0001 0.0038 -1.0000
vn 0.0004 0.0040 1.0000
vn -0.7297 0.4764 0.4905
vn -0.3537 0.9354 0.0000
vn -0.6991 0.2984 0.6498
vn -0.7531 0.6132 0.2385
vn 0.5218 0.5328 -0.6663
vn 0.6759 0.2940 -0.6759
vn 0.2794 0.6834 -0.6745
usemtl tools
s 1
f 32/1/1 31/2/2 8/3/3 16/4/4
f 23/5/5 21/6/5 10/7/6 11/8/6
f 40/9/7 41/10/8 26/11/9 20/12/10
f 11/13/11 22/14/12 33/15/13 31/16/2
f 19/17/14 9/18/15 38/19/16 39/20/17
f 73/21/18 115/22/18 118/23/19 74/24/20
f 2/25/21 3/26/22 12/27/23 13/28/24
f 35/29/25 4/30/26 5/31/27 36/32/28
f 36/33/28 5/34/27 14/35/29 37/36/30
f 4/30/31 6/37/31 7/38/32 5/31/27
f 5/34/27 7/39/32 15/40/33 14/35/29
f 114/41/34 117/42/34 3/43/34 2/44/34
f 29/45/35 2/25/21 13/28/24 30/46/36
f 41/10/37 24/47/38 47/48/39 46/49/40
f 16/4/41 8/3/42 9/18/42 19/17/41
f 27/50/43 26/11/44 42/51/45 43/52/46
f 40/53/7 20/54/10 10/55/47 38/56/16
f 33/57/13 22/58/12 27/50/48 34/59/49
f 9/60/15 18/61/50 40/53/7 38/56/16
f 1/62/51 13/28/24 12/27/23
f 37/36/30 14/35/29 1/62/51
f 1/62/51 14/35/29 15/40/33
f 30/46/36 13/28/24 1/62/51
f 18/63/52 17/64/52 25/65/53 24/47/53
f 22/58/54 20/12/54 26/11/55 27/50/55
f 34/59/56 44/66/57 45/67/58 25/65/59
f 39/20/17 38/19/16 10/7/47 21/6/60
f 23/5/61 11/8/11 31/2/2 32/1/1
f 24/47/38 25/65/59 45/67/58 47/48/39
f 33/15/13 17/68/62 8/69/3 31/16/2
f 27/50/43 43/52/46 44/66/57 34/59/56
f 17/64/62 33/57/13 34/59/49 25/65/63
f 7/39/32 29/45/35 30/46/36 15/40/33
f 20/54/54 22/14/54 11/13/6 10/55/6
f 26/11/44 41/10/37 46/49/40 42/51/45
f 3/26/22 36/33/28 37/36/30 12/27/23
f 79/70/64 35/29/25 117/71/65 77/72/66
f 18/63/50 24/47/67 41/10/8 40/9/7
f 15/40/33 30/46/36 1/62/51
f 12/27/23 37/36/30 1/62/51
f 28/73/68 43/52/46 42/51/45
f 28/73/68 45/67/58 44/66/57
f 28/73/68 42/51/45 46/49/40
f 28/73/68 47/48/39 45/67/58
f 28/73/68 44/66/57 43/52/46
f 28/73/68 46/49/40 47/48/39
f 17/68/52 18/61/52 9/60/42 8/69/42
f 130/74/69 122/75/70 131/76/71
f 132/77/72 134/78/73 121/79/74
f 121/80/75 55/81/76 53/82/76 122/83/75
f 119/84/77 130/85/78 132/86/78 120/87/77
f 55/88/79 51/89/80 56/90/81 57/91/82
f 62/92/83 64/93/84 57/91/82 56/90/81
f 53/82/76 55/81/76 57/94/85 58/95/85
f 56/90/81 51/89/80 60/96/86 135/97/86
f 49/98/87 53/99/88 58/100/89 136/101/90
f 49/98/87 136/101/90 138/102/91 59/103/91
f 60/104/92 59/105/92 137/106/92 135/107/92
f 136/108/93 139/109/94 138/110/95
f 51/111/96 49/112/96 59/105/96 60/104/96
f 141/113/97 144/114/98 143/115/99
f 141/116/100 142/117/100 144/118/100
f 142/119/101 140/120/101 145/121/101
f 66/122/101 62/92/83 69/123/102 71/124/102
f 61/125/103 63/126/104 67/127/105 65/128/105
f 69/129/106 68/130/106 70/131/106 71/132/106
f 65/133/107 66/134/107 71/132/108 70/131/108
f 61/125/103 65/128/105 70/135/109 68/136/109
f 62/137/110 61/138/110 68/130/110 69/129/110
f 64/139/111 63/140/111 58/95/85 57/94/85
f 63/126/104 61/125/103 136/101/90 58/100/89
f 61/138/112 62/137/112 56/141/112 136/142/112
f 88/143/113 103/144/114 105/145/114 89/146/113
f 117/147/65 35/29/25 36/32/28 3/43/22
f 99/148/115 101/149/116 87/150/117 86/151/118
f 101/149/116 103/144/119 88/143/120 87/150/117
f 105/145/121 106/152/122 84/153/123 89/146/124
f 74/24/20 118/154/19 6/37/125 83/155/126
f 94/156/127 80/157/128 82/158/128 95/159/127
f 95/159/129 82/158/130 75/160/131 91/161/132
f 93/162/133 78/163/134 80/157/135 94/156/136
f 91/161/132 75/160/131 72/164/137 90/165/138
f 76/166/139 86/151/118 87/150/117 78/167/140
f 90/165/141 72/164/142 76/168/142 92/169/141
f 112/170/143 113/171/144 74/172/145 83/173/146
f 80/174/147 88/143/113 89/146/113 82/175/147
f 110/176/148 111/177/149 81/178/150 79/179/151
f 109/180/152 110/176/148 79/179/151 77/181/153
f 113/171/144 108/182/154 73/183/155 74/172/145
f 72/184/156 85/185/157 86/151/157 76/166/156
f 92/169/158 76/168/159 78/163/134 93/162/133
f 108/186/160 90/165/141 92/169/141 109/187/160
f 78/167/140 87/150/117 88/143/120 80/174/161
f 82/175/162 89/146/124 84/153/123 75/188/163
f 111/189/164 94/156/127 95/159/127 112/190/164
f 75/188/163 84/153/123 85/185/165 72/184/166
f 85/185/157 97/191/167 99/148/167 86/151/157
f 97/192/168 106/193/122 107/194/169 96/195/170
f 83/155/171 6/37/31 4/30/31 81/196/171
f 81/196/172 4/30/26 35/29/25 79/70/64
f 99/197/167 97/192/167 96/195/173 98/198/173
f 101/199/116 99/197/115 98/198/174 100/200/175
f 6/37/125 118/201/19 29/202/35 7/38/32
f 103/203/119 101/199/116 100/200/175 102/204/176
f 105/205/177 103/203/177 102/204/177 104/206/177
f 106/193/122 105/205/121 104/206/178 107/194/169
f 84/153/123 106/152/122 97/191/168 85/185/165
f 96/207/179 107/208/180 32/1/1 16/4/4
f 107/208/180 104/209/181 23/5/61 32/1/1
f 104/209/182 102/210/182 21/6/5 23/5/5
f 102/210/183 100/211/184 39/20/17 21/6/60
f 100/211/184 98/212/185 19/17/14 39/20/17
f 98/212/186 96/207/186 16/4/41 19/17/41
f 77/72/187 117/71/187 115/22/187 73/21/187
f 81/178/188 111/177/164 112/170/164 83/173/188
f 73/183/189 108/182/189 109/180/189 77/181/189
f 91/161/132 90/165/138 108/186/154 113/213/144
f 92/169/158 93/162/133 110/214/148 109/187/152
f 93/162/133 94/156/136 111/189/149 110/214/148
f 95/159/129 91/161/132 113/213/144 112/190/143
f 115/215/190 117/216/191 116/217/192
f 116/218/193 117/219/193 114/220/193
f 118/221/194 115/215/190 116/217/192
f 118/222/195 116/218/195 114/220/195
f 118/201/19 114/41/196 2/44/21 29/202/35
f 133/223/197 51/89/80 55/88/79
f 53/99/88 129/224/198 131/76/71
f 54/225/199 124/226/199 126/227/199 52/228/199
f 123/229/200 121/80/75 122/83/75 127/230/200
f 126/231/201 128/232/202 119/233/203
f 48/234/204 119/84/77 120/87/77 50/235/204
f 129/236/205 49/112/205 51/111/205 133/237/205
f 128/238/206 125/239/206 123/240/206 127/241/206
f 120/242/207 125/243/208 124/244/209
f 126/245/210 124/246/210 125/247/210 128/248/210
f 132/77/72 121/79/74 123/240/211
f 134/78/73 133/223/197 55/88/79
f 134/249/212 131/250/212 129/224/212 133/251/212
f 132/252/213 130/253/213 131/254/213 134/255/213
f 128/232/202 127/256/214 130/74/69
f 127/256/214 122/75/70 130/74/69
f 53/99/88 49/98/87 129/224/198
f 132/77/72 123/240/211 125/243/208
f 50/257/215 120/242/207 124/244/209 54/258/215
f 52/259/216 126/231/201 119/233/203 48/260/216
f 119/233/203 128/232/202 130/74/69
f 120/242/207 132/77/72 125/243/208
f 121/79/74 134/78/73 55/88/79
f 122/75/70 53/99/88 131/76/71
f 139/109/94 137/261/217 138/110/95
f 136/142/218 56/141/218 135/107/218 139/262/218
f 59/263/219 138/264/95 137/261/217
f 135/265/220 137/261/217 139/109/94
f 145/266/221 143/115/99 144/114/98
f 62/92/83 66/122/101 140/120/101
f 65/133/107 140/267/68 66/134/107
f 141/116/68 143/268/68 140/267/68
f 142/269/222 145/266/221 144/114/98
f 140/270/223 143/115/99 145/266/221
f 63/140/111 64/139/111 142/117/100
f 141/116/68 140/267/68 65/133/107
f 67/271/68 141/116/68 65/133/107
f 67/271/100 63/140/111 141/116/100
f 141/116/100 63/140/111 142/117/100
f 64/93/84 62/92/83 142/119/101
f 142/119/101 62/92/83 140/120/101
