# Blender v3.4.1 OBJ File: 'RPG_Tool_Bits_Export.blend'
# www.blender.org
mtllib screw_A.mtl
o screw_A
v 0.000000 0.079933 -0.073708
v 0.052120 0.079933 -0.052120
v 0.073708 0.079933 0.000000
v 0.052120 0.079933 0.052120
v 0.000000 0.079933 0.073708
v -0.052120 0.079933 0.052120
v -0.073708 0.079933 0.000000
v -0.052120 0.079933 -0.052120
v 0.000000 0.124340 -0.052963
v 0.000000 0.109090 -0.079453
v 0.037453 0.124340 -0.037449
v 0.056182 0.109090 -0.056182
v 0.052967 0.124340 0.000004
v 0.079453 0.109090 0.000000
v 0.037453 0.124340 0.037457
v 0.056182 0.109090 0.056182
v 0.000000 0.115459 -0.037453
v 0.000000 0.109090 0.079453
v -0.037453 0.124340 0.037457
v -0.056182 0.109090 0.056182
v -0.052967 0.124340 0.000004
v -0.079453 0.109090 0.000000
v -0.037453 0.124340 -0.037449
v -0.056182 0.109090 -0.056182
v 0.000000 0.115459 0.000000
v -0.010818 0.124340 -0.037449
v 0.010818 0.124340 -0.037449
v 0.000000 0.115459 0.037453
v -0.010818 0.124340 0.000004
v 0.010818 0.124340 0.000004
v 0.010818 0.124340 0.037457
v -0.010818 0.124340 0.037457
v 0.000000 0.124340 0.052918
v -0.025334 0.079933 -0.025334
v 0.000000 0.079933 -0.035828
v 0.025334 0.079933 -0.025334
v 0.035828 0.079933 0.000000
v 0.025334 0.079933 0.025335
v 0.000000 0.079933 0.035828
v -0.025334 0.079933 0.025335
v -0.035828 0.079933 0.000000
v -0.021458 -0.097696 -0.021458
v 0.000000 -0.097696 -0.030347
v 0.021458 -0.097696 -0.021458
v 0.030347 -0.097696 -0.000000
v 0.021458 -0.097696 0.021458
v 0.000000 -0.097696 0.030347
v -0.021458 -0.097696 0.021458
v -0.030347 -0.097696 -0.000000
v 0.000000 -0.043637 0.030347
v 0.000000 -0.062940 0.030347
v 0.000000 -0.053289 0.037789
v 0.000000 0.000770 0.030347
v 0.000000 -0.018533 0.030347
v 0.000000 -0.008881 0.037789
v 0.000000 0.045178 0.030347
v 0.000000 0.025874 0.030347
v 0.000000 0.035526 0.037789
v -0.021458 0.021585 0.021458
v -0.021458 0.040883 0.021458
v -0.026721 0.030182 0.026721
v -0.021458 -0.022822 0.021458
v -0.021458 -0.003524 0.021458
v -0.026721 -0.014226 0.026721
v -0.021458 -0.067229 0.021458
v -0.021458 -0.047931 0.021458
v -0.026721 -0.058633 0.026721
v 0.030347 -0.037573 -0.000000
v 0.030347 -0.056866 -0.000000
v 0.037789 -0.045731 -0.000000
v 0.030347 0.006835 -0.000000
v 0.030347 -0.012459 -0.000000
v 0.037789 -0.001324 -0.000000
v 0.030347 0.051242 -0.000000
v 0.030347 0.031949 -0.000000
v 0.037789 0.043084 -0.000000
v 0.021458 0.030168 0.021458
v 0.021458 0.049467 0.021458
v 0.026721 0.040870 0.026721
v 0.021458 -0.014239 0.021458
v 0.021458 0.005059 0.021458
v 0.026721 -0.003537 0.026721
v 0.021458 -0.058646 0.021458
v 0.021458 -0.039348 0.021458
v 0.026721 -0.047944 0.026721
v 0.000000 -0.062940 -0.030347
v 0.000000 -0.043637 -0.030347
v 0.000000 -0.053289 -0.037789
v 0.000000 -0.018533 -0.030347
v 0.000000 0.000770 -0.030347
v 0.000000 -0.008881 -0.037789
v 0.000000 0.025874 -0.030347
v 0.000000 0.045178 -0.030347
v 0.000000 0.035526 -0.037789
v 0.021458 0.030168 -0.021458
v 0.021458 0.049467 -0.021458
v 0.026721 0.040870 -0.026721
v 0.021458 -0.014239 -0.021458
v 0.021458 0.005059 -0.021458
v 0.026721 -0.003537 -0.026721
v 0.021458 -0.058646 -0.021458
v 0.021458 -0.039348 -0.021458
v 0.026721 -0.047944 -0.026721
v -0.021458 -0.047931 -0.021458
v -0.021458 -0.067229 -0.021458
v -0.026721 -0.058633 -0.026721
v -0.021458 -0.003524 -0.021458
v -0.021458 -0.022822 -0.021458
v -0.026721 -0.014226 -0.026721
v -0.021458 0.040883 -0.021458
v -0.021458 0.021585 -0.021458
v -0.026721 0.030182 -0.026721
v -0.030347 0.019810 -0.000000
v -0.030347 0.039103 -0.000000
v -0.037789 0.027968 -0.000000
v -0.030347 -0.024597 -0.000000
v -0.030347 -0.005304 -0.000000
v -0.037789 -0.016439 -0.000000
v -0.030347 -0.069005 -0.000000
v -0.030347 -0.049711 -0.000000
v -0.037789 -0.060846 -0.000000
v 0.000000 -0.168747 -0.000000
vt 0.790111 0.632636
vt 0.788732 0.644325
vt 0.807809 0.644325
vt 0.807809 0.632636
vt 0.826885 0.644325
vt 0.825506 0.632636
vt 0.825793 0.650438
vt 0.820526 0.650438
vt 0.811482 0.650438
vt 0.811482 0.650438
vt 0.820526 0.650438
vt 0.811482 0.650438
vt 0.807809 0.650438
vt 0.782781 0.632636
vt 0.780830 0.644325
vt 0.790111 0.632636
vt 0.788732 0.644325
vt 0.807809 0.632636
vt 0.807809 0.644325
vt 0.825506 0.632636
vt 0.826885 0.644325
vt 0.832836 0.632636
vt 0.834787 0.644325
vt 0.807809 0.650438
vt 0.826885 0.675575
vt 0.807809 0.675575
vt 0.807809 0.681688
vt 0.820526 0.681688
vt 0.834787 0.675575
vt 0.825793 0.681688
vt 0.826885 0.675575
vt 0.820526 0.681688
vt 0.807809 0.675575
vt 0.807809 0.681688
vt 0.788732 0.675575
vt 0.795091 0.681688
vt 0.780830 0.675575
vt 0.789824 0.681688
vt 0.788732 0.675575
vt 0.795091 0.681688
vt 0.795091 0.650438
vt 0.804135 0.650438
vt 0.804135 0.650438
vt 0.795091 0.650438
vt 0.811482 0.666063
vt 0.807809 0.662503
vt 0.807809 0.666063
vt 0.804135 0.650438
vt 0.789824 0.650438
vt 0.807809 0.662503
vt 0.811482 0.666063
vt 0.807809 0.666063
vt 0.807809 0.615628
vt 0.804135 0.619188
vt 0.807809 0.619188
vt 0.807809 0.662503
vt 0.811482 0.666063
vt 0.804135 0.619188
vt 0.807809 0.615628
vt 0.804135 0.619188
vt 0.807809 0.615628
vt 0.807809 0.619188
vt 0.807809 0.632636
vt 0.816411 0.632636
vt 0.816411 0.632636
vt 0.807809 0.632636
vt 0.807809 0.632636
vt 0.799206 0.632636
vt 0.816411 0.632636
vt 0.819974 0.632636
vt 0.816411 0.632636
vt 0.807809 0.632636
vt 0.799206 0.632636
vt 0.795643 0.632636
vt 0.799206 0.632636
vt 0.799206 0.632636
vt 0.807809 0.632636
vt 0.799206 0.632636
vt 0.799206 0.632636
vt 0.807809 0.632636
vt 0.819974 0.632636
vt 0.816411 0.632636
vt 0.816411 0.632636
vt 0.819974 0.632636
vt 0.816411 0.632636
vt 0.819974 0.632636
vt 0.819974 0.632636
vt 0.816411 0.632636
vt 0.807809 0.632636
vt 0.799206 0.632636
vt 0.799206 0.632636
vt 0.807809 0.632636
vt 0.819974 0.632636
vt 0.816411 0.632636
vt 0.816411 0.632636
vt 0.819974 0.632636
vt 0.795643 0.632636
vt 0.795643 0.632636
vt 0.799206 0.632636
vt 0.807809 0.632636
vt 0.799206 0.632636
vt 0.799206 0.632636
vt 0.795643 0.632636
vt 0.795643 0.632636
vt 0.799206 0.632636
vt 0.799206 0.632636
vt 0.795643 0.632636
vt 0.807809 0.632636
vt 0.816411 0.632636
vt 0.819974 0.632636
vt 0.816411 0.632636
vt 0.816411 0.632636
vt 0.799206 0.632636
vt 0.807809 0.632636
vt 0.807809 0.632636
vt 0.799206 0.632636
vt 0.799206 0.632636
vt 0.807809 0.632636
vt 0.795643 0.632636
vt 0.795643 0.632636
vt 0.816411 0.632636
vt 0.816411 0.632636
vt 0.816411 0.632636
vt 0.799206 0.632636
vt 0.807809 0.632636
vt 0.807809 0.632636
vt 0.807809 0.632636
vt 0.795643 0.632636
vt 0.799206 0.632636
vt 0.795643 0.632636
vt 0.799206 0.632636
vt 0.795643 0.632636
vt 0.799206 0.632636
vt 0.816411 0.632636
vt 0.819974 0.632636
vt 0.816411 0.632636
vt 0.819974 0.632636
vt 0.816411 0.632636
vt 0.819974 0.632636
vt 0.816411 0.632636
vt 0.807809 0.632636
vt 0.816411 0.632636
vt 0.807809 0.632636
vt 0.816411 0.632636
vt 0.807809 0.632636
vt 0.799206 0.632636
vt 0.799206 0.632636
vt 0.799206 0.632636
vt 0.807809 0.632636
vt 0.807809 0.632636
vt 0.807809 0.632636
vt 0.807809 0.632636
vt 0.819974 0.632636
vt 0.795643 0.632636
vt 0.816411 0.632636
vn -0.6938 -0.1933 -0.6938
vn -0.0000 -0.1933 -0.9811
vn 0.6938 -0.1933 -0.6938
vn 0.0000 1.0000 0.0000
vn -0.9811 -0.1933 -0.0000
vn -0.6938 -0.1933 0.6938
vn 0.0000 -0.1933 0.9811
vn 0.6938 -0.1933 0.6938
vn 0.9811 -0.1933 0.0000
vn 0.3528 0.8666 -0.3528
vn 0.0000 0.8666 -0.4989
vn 0.4990 0.8666 -0.0000
vn 0.3527 0.8667 0.3527
vn 0.3526 0.8667 0.3528
vn -0.0000 0.8668 0.4987
vn -0.3527 0.8667 0.3527
vn -0.3526 0.8667 0.3528
vn -0.4990 0.8666 -0.0000
vn -0.3528 0.8666 -0.3528
vn -0.6251 0.7614 -0.1718
vn -0.6237 0.7598 -0.1836
vn -0.5799 0.7065 -0.4057
vn -0.6238 0.7598 0.1833
vn -0.6252 0.7614 0.1714
vn -0.5804 0.7067 0.4047
vn 0.6237 0.7598 -0.1836
vn 0.6251 0.7614 -0.1718
vn 0.5799 0.7065 -0.4057
vn -0.6345 0.7729 0.0000
vn 0.6345 0.7729 0.0000
vn 0.6252 0.7614 0.1714
vn 0.6238 0.7598 0.1833
vn 0.5804 0.7067 0.4047
vn 0.3827 0.0000 -0.9239
vn 0.7317 0.0000 -0.6817
vn 0.6834 0.0000 -0.7301
vn -0.0000 -1.0000 -0.0000
vn -0.3827 0.0000 -0.9239
vn 0.0481 0.0000 0.9988
vn -0.3827 0.0000 0.9239
vn -0.0481 0.0000 0.9988
vn 0.9239 0.0000 0.3827
vn 0.7317 0.0000 0.6817
vn 0.6834 0.0000 0.7301
vn 0.9239 -0.0000 -0.3827
vn 0.9815 -0.1915 -0.0000
vn 0.6940 -0.1915 -0.6940
vn -1.0000 0.0000 -0.0000
vn -0.9239 0.0000 -0.3827
vn -0.6940 -0.1915 -0.6940
vn 0.0000 -0.1915 -0.9815
vn -0.9148 -0.1258 -0.3837
vn 0.9833 -0.1818 0.0000
vn 0.7026 -0.1737 0.6900
vn 0.6810 -0.1730 0.7115
vn 0.6940 -0.1915 0.6940
vn -0.9148 -0.1258 0.3837
vn 0.0117 -0.1564 0.9876
vn -0.3685 -0.1360 0.9197
vn -0.0337 -0.1552 0.9873
vn -0.6940 -0.1915 0.6940
vn 0.0000 -0.1915 0.9815
vn -0.9239 0.0000 0.3827
vn -0.9815 -0.1915 -0.0000
vn 0.7026 -0.1737 -0.6900
vn 0.6810 -0.1730 -0.7115
vn -0.6834 0.0000 -0.7301
vn -0.3685 -0.1359 -0.9197
vn 0.0117 -0.1564 -0.9876
vn -0.0337 -0.1552 -0.9873
vn -0.4895 -0.6533 -0.5776
vn -0.7388 -0.6739 -0.0000
vn -0.4550 -0.6507 -0.6079
vn -0.6476 0.5682 -0.5078
vn -0.8314 0.5556 -0.0000
vn -0.6190 0.5701 -0.5403
vn 0.8314 -0.5556 0.0000
vn 0.6190 -0.5701 -0.5403
vn 0.6476 -0.5682 -0.5078
vn 0.7388 0.6739 0.0000
vn 0.4550 0.6507 -0.6079
vn 0.4895 0.6533 -0.5776
vn 0.0833 -0.6086 0.7891
vn 0.6190 -0.5701 0.5403
vn 0.6476 -0.5682 0.5078
vn 0.1454 -0.6042 0.7835
vn -0.1454 0.6042 0.7835
vn 0.4550 0.6507 0.6079
vn 0.4895 0.6533 0.5776
vn -0.0833 0.6086 0.7891
vn -0.4895 -0.6533 0.5776
vn -0.4550 -0.6507 0.6079
vn -0.6476 0.5682 0.5078
vn -0.6190 0.5701 0.5403
vn 0.0833 -0.6086 -0.7891
vn 0.1454 -0.6042 -0.7835
vn -0.1454 0.6042 -0.7835
vn -0.0833 0.6086 -0.7891
vn 0.3827 0.0000 0.9239
usemtl tools
s 1
f 8/1/1 24/2/1 10/3/2 1/4/2
f 1/4/2 10/3/2 12/5/3 2/6/3
f 13/7/4 11/8/4 27/9/4 30/10/4
f 15/11/4 31/12/4 33/13/4
f 7/14/5 22/15/5 24/2/1 8/1/1
f 6/16/6 20/17/6 22/15/5 7/14/5
f 5/18/7 18/19/7 20/17/6 6/16/6
f 4/20/8 16/21/8 18/19/7 5/18/7
f 3/22/9 14/23/9 16/21/8 4/20/8
f 2/6/3 12/5/3 14/23/9 3/22/9
f 11/8/4 9/24/4 27/9/4
f 12/25/10 10/26/11 9/27/11 11/28/10
f 14/29/12 12/25/10 11/28/10 13/30/12
f 16/31/13 14/29/12 13/30/12 15/32/14
f 18/33/15 16/31/13 15/32/14 33/34/15
f 20/35/16 18/33/15 33/34/15 19/36/17
f 22/37/18 20/35/16 19/36/17 21/38/18
f 24/39/19 22/37/18 21/38/18 23/40/19
f 10/26/11 24/39/19 23/40/19 9/27/11
f 9/24/4 23/41/4 26/42/4
f 33/13/4 32/43/4 19/44/4
f 31/45/20 28/46/21 33/47/22
f 29/48/4 21/49/4 19/44/4 32/43/4
f 13/7/4 30/10/4 31/12/4 15/11/4
f 29/48/4 26/42/4 23/41/4 21/49/4
f 17/50/23 27/51/24 9/52/25
f 28/53/26 32/54/27 33/55/28
f 17/50/23 25/56/29 30/57/29 27/51/24
f 25/56/29 28/46/21 31/45/20 30/57/29
f 29/58/30 32/54/27 28/53/26 25/59/30
f 26/60/31 29/58/30 25/59/30 17/61/32
f 26/60/31 17/61/32 9/62/33
f 89/63/34 98/64/35 102/65/36 87/66/34
f 8/1/37 1/4/37 35/67/37 34/68/37
f 1/4/37 2/6/37 36/69/37 35/67/37
f 2/6/37 3/22/37 37/70/37 36/69/37
f 3/22/37 4/20/37 38/71/37 37/70/37
f 4/20/37 5/18/37 39/72/37 38/71/37
f 5/18/37 6/16/37 40/73/37 39/72/37
f 6/16/37 7/14/37 41/74/37 40/73/37
f 7/14/37 8/1/37 34/68/37 41/74/37
f 108/75/38 89/63/38 87/66/38 104/76/38
f 57/77/39 59/78/40 63/79/40 53/80/41
f 75/81/42 77/82/43 81/83/44 71/84/42
f 101/85/35 69/86/45 45/87/46 44/88/47
f 54/89/39 62/90/40 66/91/40 50/92/41
f 72/93/42 80/94/43 84/95/44 68/96/42
f 116/97/48 108/75/49 104/76/49 120/98/48
f 42/99/50 43/100/51 122/101/37
f 41/74/52 34/68/52 110/102/52 114/103/52
f 113/104/48 111/105/49 107/106/49 117/107/48
f 86/108/34 101/85/35 44/88/47 43/100/51
f 37/70/53 38/71/54 78/109/55 74/110/53
f 69/86/42 83/111/42 46/112/56 45/87/46
f 40/73/57 41/74/57 114/103/57 60/113/57
f 39/72/58 40/73/59 60/113/59 56/114/60
f 51/115/39 65/116/40 48/117/61 47/118/62
f 59/78/63 113/104/48 117/107/48 63/79/63
f 62/90/63 116/97/48 120/98/48 66/91/63
f 65/116/63 119/119/48 49/120/64 48/117/61
f 36/69/65 37/70/53 74/110/53 96/121/66
f 95/122/35 75/81/45 71/84/45 99/123/36
f 98/64/35 72/93/45 68/96/45 102/65/36
f 38/71/54 39/72/58 56/114/60 78/109/55
f 77/82/43 57/77/39 53/80/41 81/83/44
f 80/94/43 54/89/39 50/92/41 84/95/44
f 119/119/48 105/124/67 42/99/50 49/120/64
f 34/68/68 35/67/69 93/125/70 110/102/68
f 111/105/38 92/126/38 90/127/38 107/106/38
f 35/67/69 36/69/65 96/121/66 93/125/70
f 92/126/34 95/122/35 99/123/36 90/127/34
f 105/124/67 86/108/38 43/100/51 42/99/50
f 111/105/71 113/104/72 115/128/72 112/129/73
f 112/129/74 115/128/75 114/103/75 110/102/76
f 108/75/71 116/97/72 118/130/72 109/131/73
f 109/131/74 118/130/75 117/107/75 107/106/76
f 105/124/71 119/119/72 121/132/72 106/133/73
f 106/133/74 121/132/75 120/98/75 104/76/76
f 75/81/77 95/122/78 97/134/79 76/135/77
f 76/135/80 97/134/81 96/121/82 74/110/80
f 72/93/77 98/64/78 100/136/79 73/137/77
f 73/137/80 100/136/81 99/123/82 71/84/80
f 69/86/77 101/85/78 103/138/79 70/139/77
f 70/139/80 103/138/81 102/65/82 68/96/80
f 57/77/83 77/82/84 79/140/85 58/141/86
f 58/141/87 79/140/88 78/109/89 56/114/90
f 54/89/83 80/94/84 82/142/85 55/143/86
f 55/143/87 82/142/88 81/83/89 53/80/90
f 51/115/83 83/111/84 85/144/85 52/145/86
f 52/145/87 85/144/88 84/95/89 50/92/90
f 113/104/72 59/78/91 61/146/92 115/128/72
f 115/128/75 61/146/93 60/113/94 114/103/75
f 116/97/72 62/90/91 64/147/92 118/130/72
f 118/130/75 64/147/93 63/79/94 117/107/75
f 119/119/72 65/116/91 67/148/92 121/132/72
f 121/132/75 67/148/93 66/91/94 120/98/75
f 77/82/84 75/81/77 76/135/77 79/140/85
f 79/140/88 76/135/80 74/110/80 78/109/89
f 80/94/84 72/93/77 73/137/77 82/142/85
f 82/142/88 73/137/80 71/84/80 81/83/89
f 83/111/84 69/86/77 70/139/77 85/144/85
f 85/144/88 70/139/80 68/96/80 84/95/89
f 59/78/91 57/77/83 58/141/86 61/146/92
f 61/146/93 58/141/87 56/114/90 60/113/94
f 62/90/91 54/89/83 55/143/86 64/147/92
f 64/147/93 55/143/87 53/80/90 63/79/94
f 65/116/91 51/115/83 52/145/86 67/148/92
f 67/148/93 52/145/87 50/92/90 66/91/94
f 95/122/78 92/126/95 94/149/96 97/134/79
f 97/134/81 94/149/97 93/125/98 96/121/82
f 98/64/78 89/63/95 91/150/96 100/136/79
f 100/136/81 91/150/97 90/127/98 99/123/82
f 101/85/78 86/108/95 88/151/96 103/138/79
f 103/138/81 88/151/97 87/66/98 102/65/82
f 92/126/95 111/105/71 112/129/73 94/149/96
f 94/149/97 112/129/74 110/102/76 93/125/98
f 89/63/95 108/75/71 109/131/73 91/150/96
f 91/150/97 109/131/74 107/106/76 90/127/98
f 86/108/95 105/124/71 106/133/73 88/151/96
f 88/151/97 106/133/74 104/76/76 87/66/98
f 83/111/99 51/115/39 47/118/62 46/112/56
f 43/100/51 44/88/47 122/152/37
f 47/118/62 48/117/61 122/152/37
f 45/87/46 46/112/56 122/153/37
f 49/120/64 42/99/50 122/154/37
f 44/88/47 45/87/46 122/155/37
f 48/117/61 49/120/64 122/101/37
f 46/112/56 47/118/62 122/155/37
