# Blender v3.4.1 OBJ File: 'November2025_PlantWarrior_Assets_Export.blend'
# www.blender.org
mtllib PlantWarrior_Spear.mtl
o PlantWarrior_Spear
v -0.063888 -0.513020 0.052492
v 0.012577 -1.089611 -0.021779
v 0.000005 1.296979 0.000000
v 0.021682 -1.101274 -0.012517
v 0.025003 -1.104580 0.000000
v 0.021682 -1.101274 0.012517
v 0.012577 -1.089611 0.021779
v -0.052510 -0.518340 0.063671
v -0.021623 -0.532874 0.063374
v -0.012571 -1.089611 0.021779
v -0.021676 -1.101274 0.012517
v -0.024998 -1.104580 0.000000
v -0.021676 -1.101274 -0.012517
v -0.012571 -1.089611 -0.021779
v -0.028383 -0.763413 0.022747
v -0.017967 -0.768733 0.033069
v 0.033296 0.169128 0.036623
v 0.020310 0.477062 -0.035169
v 0.018108 0.171872 -0.032352
v 0.017202 -0.258628 -0.029788
v -0.017504 -0.531695 0.001050
v 0.014095 -0.782088 -0.024407
v 0.035128 0.471743 -0.020279
v 0.031661 0.166552 -0.018652
v 0.029747 -0.263947 -0.017172
v -0.006273 -0.537015 0.012249
v 0.024365 -0.787408 -0.014065
v 0.040543 0.469795 0.000000
v 0.036613 0.164605 0.000000
v 0.034329 -0.265894 0.000000
v -0.002171 -0.538962 0.027533
v 0.028115 -0.789355 0.000000
v 0.035128 0.471743 0.020279
v 0.031661 0.166552 0.018652
v 0.029747 -0.263947 0.017172
v -0.006273 -0.537015 0.042851
v 0.024365 -0.787408 0.014065
v 0.020310 0.477062 0.035169
v 0.018108 0.171872 0.032352
v 0.017202 -0.258628 0.029788
v -0.017504 -0.531695 0.054145
v 0.014095 -0.782088 0.024407
v 0.046818 0.163808 0.022927
v 0.051757 0.161861 0.004286
v 0.010296 -0.783266 0.032902
v 0.046818 0.163808 -0.014351
v -0.020372 0.491596 0.035293
v -0.019116 0.186406 0.032477
v -0.017266 -0.244094 0.029912
v -0.048383 -0.517161 0.054398
v -0.035334 0.496916 0.020403
v -0.032813 0.191726 0.018777
v -0.029954 -0.238774 0.017296
v -0.059758 -0.511841 0.043199
v -0.024574 -0.762234 0.014190
v -0.040820 0.498863 0.000000
v -0.037836 0.193673 0.000000
v -0.034607 -0.236827 0.000000
v -0.063930 -0.509894 0.027791
v -0.028395 -0.760287 0.000000
v -0.035334 0.496916 -0.020403
v -0.032813 0.191726 -0.018777
v -0.029954 -0.238774 -0.017296
v -0.059758 -0.511841 0.012348
v -0.024574 -0.762234 -0.014190
v -0.020372 0.491596 -0.035293
v -0.019116 0.186406 -0.032477
v -0.017266 -0.244094 -0.029912
v -0.048383 -0.517161 0.001055
v -0.014160 -0.767554 -0.024532
v -0.046380 -0.236138 -0.006886
v -0.053583 0.494174 -0.030375
v -0.041718 -0.238085 -0.024181
v -0.029010 -0.243405 -0.036790
v -0.059075 0.496121 -0.009990
v -0.038608 0.488854 -0.045242
v 0.022196 0.155665 -0.004527
v 0.129464 0.190523 -0.002922
v 0.114962 0.204778 -0.045830
v 0.084309 0.197677 -0.042753
v 0.101528 0.180751 0.008196
v 0.127667 0.217096 -0.019764
v 0.089467 0.179135 -0.019462
v 0.127901 0.195769 -0.026925
v 0.071312 0.224512 -0.036904
v 0.036025 0.202638 -0.024569
v 0.053121 0.185834 0.026020
v 0.092646 0.203542 0.026220
v 0.079280 0.217569 -0.003252
v 0.021047 0.181754 0.004528
v 0.109958 0.223300 -0.011717
v 0.124918 0.209974 0.006748
v 0.109491 0.225138 -0.038898
v -0.030059 -0.264515 -0.000721
v -0.092643 -0.228715 -0.075892
v -0.119190 -0.228707 -0.040997
v -0.099310 -0.235442 -0.020708
v -0.067787 -0.235450 -0.062142
v -0.109393 -0.210088 -0.061089
v -0.081265 -0.245069 -0.039684
v -0.110397 -0.230824 -0.061851
v -0.093644 -0.210782 -0.008584
v -0.061553 -0.228146 0.007787
v -0.030253 -0.228153 -0.033353
v -0.054590 -0.210791 -0.059918
v -0.071889 -0.207209 -0.032557
v -0.028160 -0.239105 0.000719
v -0.095435 -0.203174 -0.050471
v -0.087150 -0.209122 -0.073470
v -0.115391 -0.209115 -0.036348
v -0.029873 -0.269716 -0.002008
v -0.108440 -0.242916 0.003259
v -0.100890 -0.250223 0.036659
v -0.078180 -0.254754 0.033974
v -0.087145 -0.246077 -0.005685
v -0.108315 -0.232273 0.023915
v -0.080297 -0.257772 0.012001
v -0.109026 -0.248498 0.020524
v -0.068193 -0.235981 0.041034
v -0.041426 -0.246676 0.027282
v -0.050326 -0.238058 -0.012097
v -0.079300 -0.225229 -0.008102
v -0.071611 -0.227677 0.016624
v -0.028348 -0.249793 0.002007
v -0.094731 -0.226009 0.022215
v -0.104385 -0.227121 0.004630
v -0.096354 -0.234895 0.040162
v 0.009079 -0.824602 -0.008239
v 0.087959 -0.799240 -0.008663
v 0.071799 -0.773248 -0.025391
v 0.049928 -0.780281 -0.022005
v 0.069115 -0.811143 -0.002141
v 0.085424 -0.776297 -0.006934
v 0.056230 -0.800986 -0.017090
v 0.083486 -0.786016 -0.020159
v 0.042779 -0.767327 -0.005294
v 0.018259 -0.787342 -0.002083
v 0.037310 -0.817985 0.017642
v 0.066551 -0.805563 0.019317
v 0.053213 -0.785340 0.010130
v 0.010875 -0.812879 0.008239
v 0.074228 -0.776846 0.003028
v 0.087090 -0.791913 0.005874
v 0.069899 -0.764264 -0.011922
v 0.146087 0.502844 0.084343
v 0.090449 0.816709 0.002833
v 0.172370 0.635029 0.042547
v 0.047672 0.816701 0.076909
v 0.120266 0.588148 0.069435
v 0.127246 0.628170 0.073465
v 0.072344 0.793352 0.041767
v 0.079177 0.809813 0.045713
v 0.122934 0.634911 0.127945
v 0.142504 0.633818 0.082274
v 0.159307 0.591604 0.050672
v 0.123537 0.591604 0.112627
v 0.138216 0.591151 0.079798
v 0.021549 0.803866 0.012441
v 0.147300 0.804281 0.017955
v 0.195334 0.695317 0.042119
v 0.186662 0.767885 0.032220
v 0.140338 0.690853 0.081027
v 0.100539 0.780787 0.058046
v 0.132705 0.740206 0.076617
v 0.090287 0.806001 0.118877
v 0.133263 0.695362 0.147915
v 0.121183 0.768209 0.145509
v 0.153615 0.692505 0.088692
v 0.113387 0.794856 0.065464
v 0.145593 0.754952 0.084057
v 0.024085 0.793437 0.083109
v 0.088986 0.749191 0.141225
v 0.098780 0.689605 0.142780
v 0.096611 0.580552 0.112188
v 0.090008 0.630147 0.128819
v 0.062496 0.782677 0.120271
v 0.156795 0.630332 0.013574
v 0.145484 0.580555 0.027578
v 0.134436 0.781054 -0.006457
v 0.083667 0.793348 -0.020677
v 0.166928 0.748562 0.006574
v 0.173736 0.689581 0.014614
v -0.146087 0.502844 0.084344
v -0.047678 0.816709 0.076914
v -0.123032 0.635029 0.128003
v -0.090441 0.816701 0.002830
v -0.120265 0.588148 0.069436
v -0.127246 0.628170 0.073466
v -0.072343 0.793352 0.041768
v -0.079177 0.809813 0.045713
v -0.172271 0.634911 0.042491
v -0.142504 0.633818 0.082275
v -0.123536 0.591604 0.112628
v -0.159306 0.591604 0.050673
v -0.138215 0.591151 0.079799
v -0.021549 0.803866 0.012442
v -0.089199 0.804281 0.118588
v -0.134143 0.695317 0.148105
v -0.121234 0.767885 0.145544
v -0.140340 0.690853 0.081023
v -0.100538 0.780787 0.058046
v -0.132705 0.740206 0.076618
v -0.148094 0.806001 0.018753
v -0.194729 0.695362 0.041451
v -0.186606 0.768209 0.032193
v -0.153617 0.692505 0.088689
v -0.113387 0.794856 0.065464
v -0.145592 0.754952 0.084058
v -0.084017 0.793437 -0.020697
v -0.166798 0.749191 0.006452
v -0.173042 0.689605 0.014156
v -0.145463 0.580552 0.027573
v -0.156564 0.630147 0.013540
v -0.135406 0.782677 -0.006012
v -0.090153 0.630332 0.129002
v -0.096625 0.580555 0.112204
v -0.061625 0.781054 0.119653
v -0.023926 0.793348 0.082796
v -0.089157 0.748562 0.141277
v -0.099524 0.689581 0.143153
v -0.000000 0.502844 -0.168687
v -0.042770 0.816709 -0.079748
v -0.049338 0.635029 -0.170550
v 0.042770 0.816701 -0.079740
v -0.000000 0.588148 -0.138871
v -0.000000 0.628170 -0.146931
v -0.000000 0.793352 -0.083535
v -0.000000 0.809813 -0.091426
v 0.049337 0.634911 -0.170436
v -0.000000 0.633818 -0.164549
v -0.035770 0.591604 -0.163300
v 0.035770 0.591604 -0.163300
v -0.000000 0.591151 -0.159597
v -0.000000 0.803866 -0.024883
v -0.058101 0.804281 -0.136543
v -0.061191 0.695317 -0.190224
v -0.065428 0.767885 -0.177764
v 0.000002 0.690853 -0.162050
v -0.000000 0.780787 -0.116092
v -0.000000 0.740206 -0.153235
v 0.057807 0.806001 -0.137630
v 0.061467 0.695362 -0.189366
v 0.065423 0.768209 -0.177702
v 0.000002 0.692505 -0.177381
v -0.000000 0.794856 -0.130928
v -0.000000 0.754952 -0.168116
v 0.059933 0.793437 -0.062413
v 0.077812 0.749191 -0.147677
v 0.074261 0.689605 -0.156937
v 0.048852 0.580552 -0.139761
v 0.066556 0.630147 -0.142359
v 0.072910 0.782677 -0.114259
v -0.066642 0.630332 -0.142575
v -0.048859 0.580555 -0.139781
v -0.072810 0.781054 -0.113196
v -0.059741 0.793348 -0.062119
v -0.077771 0.748562 -0.147851
v -0.074212 0.689581 -0.157767
v 0.037927 0.840358 -0.021894
v 0.021899 0.840358 -0.037921
v 0.043793 0.840358 0.000000
v 0.037927 0.840358 0.021894
v 0.021899 0.840358 0.037921
v -0.021889 0.840358 0.037921
v -0.037916 0.840358 0.021894
v -0.043783 0.840358 0.000000
v -0.037916 0.840358 -0.021894
v -0.021889 0.840358 -0.037921
v -0.000006 1.478532 -0.000000
v -0.064874 0.840913 0.125133
v -0.051847 1.254433 0.067140
v 0.064865 0.840919 0.125117
v -0.000004 0.865828 0.130824
v 0.051835 1.254506 0.066987
v -0.000004 1.249762 0.062108
v -0.034935 1.320649 0.037213
v 0.034927 1.320648 0.037213
v -0.000004 1.317262 0.034410
v -0.000004 0.801626 0.055349
v -0.082503 0.925867 0.168827
v -0.069853 1.173190 0.122272
v -0.084866 1.034629 0.171570
v 0.082189 0.924128 0.171382
v 0.070234 1.172148 0.121688
v 0.084900 1.034002 0.171804
v -0.000001 1.163580 0.110808
v -0.000004 0.935766 0.155249
v -0.000004 1.046008 0.152714
v 0.042583 1.313113 0.024582
v 0.072763 1.231081 0.041904
v -0.072680 1.231081 0.042067
v -0.042588 1.313113 0.024592
v -0.075941 0.840914 -0.118746
v -0.032231 1.254434 -0.078467
v -0.140796 0.840920 -0.006380
v -0.113304 0.865829 -0.065412
v -0.083938 1.254507 0.011400
v -0.053794 1.249764 -0.031054
v -0.014768 1.320650 -0.048858
v -0.049700 1.320650 0.011645
v -0.029807 1.317264 -0.017205
v -0.047941 0.801627 -0.027675
v -0.104965 0.925868 -0.155860
v -0.070973 1.173191 -0.121627
v -0.106160 1.034630 -0.159278
v -0.189524 0.924130 -0.014510
v -0.140510 1.172149 -0.000017
v -0.191245 1.034003 -0.012373
v -0.095971 1.163581 -0.055402
v -0.134456 0.935768 -0.077625
v -0.132261 1.046010 -0.076357
v -0.000101 1.231082 -0.083971
v -0.000013 1.313114 -0.049174
v 0.140797 0.840914 -0.006388
v 0.084059 1.254434 0.011327
v 0.075913 0.840920 -0.118737
v 0.113290 0.865829 -0.065412
v 0.032086 1.254507 -0.078387
v 0.053780 1.249764 -0.031054
v 0.049686 1.320650 0.011645
v 0.014755 1.320650 -0.048858
v 0.029793 1.317264 -0.017205
v 0.047927 0.801627 -0.027675
v 0.187451 0.925868 -0.012967
v 0.140808 1.173191 -0.000645
v 0.191009 1.034630 -0.012292
v 0.107317 0.924130 -0.156872
v 0.070259 1.172149 -0.121671
v 0.106328 1.034003 -0.159431
v 0.095955 1.163581 -0.055407
v 0.134443 0.935768 -0.077624
v 0.132247 1.046010 -0.076357
v 0.105922 1.146077 0.060802
v 0.132396 1.033601 0.076577
v 0.131823 0.938803 0.077219
v 0.104695 0.861400 0.060559
v 0.023961 0.801626 0.013837
v -0.105626 1.146077 0.061335
v -0.132524 1.033601 0.076375
v -0.132793 0.938803 0.075557
v -0.104801 0.861400 0.060393
v -0.023972 0.801626 0.013837
v -0.000314 1.146078 -0.122137
v 0.000110 1.033602 -0.152952
v 0.000953 0.938804 -0.152776
v 0.000089 0.861401 -0.120952
v -0.000007 0.801627 -0.027675
v 0.000013 0.568999 0.149073
v 0.050439 0.840074 0.072259
v 0.064254 0.683162 0.150683
v -0.050438 0.840066 0.072252
v 0.000020 0.642673 0.123322
v 0.000023 0.677239 0.130284
v 0.000018 0.819901 0.075530
v 0.000017 0.834118 0.082346
v -0.064194 0.683061 0.150584
v 0.000023 0.682116 0.145500
v 0.044766 0.645658 0.144420
v -0.044721 0.645658 0.144421
v 0.000021 0.645266 0.141223
v 0.000014 0.828981 0.024874
v 0.071682 0.829339 0.121312
v 0.081506 0.735231 0.167674
v 0.084395 0.797905 0.156913
v 0.000022 0.731375 0.143341
v 0.000020 0.809048 0.103649
v 0.000024 0.774000 0.135728
v -0.071165 0.830825 0.122250
v -0.081825 0.735270 0.166933
v -0.084336 0.798185 0.156859
v 0.000022 0.732803 0.156582
v 0.000020 0.821199 0.116462
v 0.000023 0.786736 0.148580
v -0.071747 0.819974 0.057288
v -0.101341 0.781760 0.130928
v -0.098862 0.730298 0.138925
v -0.060552 0.636112 0.124091
v -0.086601 0.678946 0.126334
v -0.091481 0.810681 0.102066
v 0.086762 0.679105 0.126522
v 0.060593 0.636115 0.124109
v 0.091458 0.809279 0.101148
v 0.071481 0.819897 0.057034
v 0.101368 0.781217 0.131078
v 0.098845 0.730277 0.139642
v 0.126162 0.568999 -0.069459
v 0.034425 0.840074 -0.074723
v 0.095435 0.683162 -0.125898
v 0.084858 0.840066 0.012643
v 0.103857 0.642673 -0.056589
v 0.109884 0.677239 -0.060073
v 0.062469 0.819901 -0.032692
v 0.068371 0.834118 -0.036099
v 0.159574 0.683061 -0.014609
v 0.123061 0.682116 -0.067681
v 0.099756 0.645658 -0.105889
v 0.144499 0.645658 -0.028392
v 0.119359 0.645266 -0.065540
v 0.018602 0.828981 -0.007360
v 0.066285 0.829339 -0.117645
v 0.101524 0.735231 -0.149335
v 0.090760 0.797905 -0.146455
v 0.121193 0.731375 -0.066600
v 0.086819 0.809048 -0.046753
v 0.114599 0.774000 -0.062795
v 0.138521 0.830825 0.005594
v 0.182548 0.735270 -0.007515
v 0.175079 0.798185 -0.000303
v 0.132660 0.732803 -0.073221
v 0.097916 0.821199 -0.053159
v 0.125729 0.786736 -0.069221
v 0.082553 0.819974 0.038580
v 0.161124 0.781760 0.027389
v 0.166810 0.730298 0.021243
v 0.134809 0.636112 -0.004517
v 0.149776 0.678946 0.016920
v 0.131199 0.810681 0.033281
v 0.063257 0.679105 -0.133310
v 0.074251 0.636115 -0.109440
v 0.038934 0.809279 -0.124690
v 0.010719 0.819897 -0.085333
v 0.059900 0.781217 -0.148237
v 0.068577 0.730277 -0.150335
v -0.126167 0.568999 -0.069441
v -0.084858 0.840074 0.012637
v -0.159681 0.683162 -0.014611
v -0.034413 0.840066 -0.074722
v -0.103869 0.642673 -0.056559
v -0.109900 0.677239 -0.060037
v -0.062480 0.819901 -0.032665
v -0.068382 0.834118 -0.036073
v -0.095372 0.683061 -0.125801
v -0.123077 0.682116 -0.067645
v -0.144514 0.645658 -0.028357
v -0.099771 0.645658 -0.105855
v -0.119372 0.645266 -0.065509
v -0.018608 0.828981 -0.007341
v -0.137959 0.829339 0.006507
v -0.183023 0.735231 -0.008166
v -0.175147 0.797905 -0.000284
v -0.121207 0.731375 -0.066567
v -0.086832 0.809048 -0.046722
v -0.114615 0.774000 -0.062759
v -0.067349 0.830825 -0.117671
v -0.100715 0.735270 -0.149245
v -0.090735 0.798185 -0.146382
v -0.132674 0.732803 -0.073188
v -0.097929 0.821199 -0.053129
v -0.125745 0.786736 -0.069185
v -0.010799 0.819974 -0.085694
v -0.059776 0.781760 -0.148143
v -0.067941 0.730298 -0.149995
v -0.074249 0.636112 -0.109401
v -0.063168 0.678946 -0.133081
v -0.039711 0.810681 -0.125173
v -0.150011 0.679105 0.016962
v -0.134837 0.636115 -0.004495
v -0.130385 0.809279 0.033716
v -0.082193 0.819897 0.038472
v -0.161260 0.781217 0.027333
v -0.167416 0.730277 0.020866
vt 0.059301 0.679268
vt 0.059301 0.707440
vt 0.060532 0.707440
vt 0.060532 0.679268
vt 0.060982 0.707440
vt 0.060982 0.679268
vt 0.060532 0.707440
vt 0.060532 0.679268
vt 0.059301 0.707440
vt 0.059301 0.679268
vt 0.060532 0.651095
vt 0.060982 0.651095
vt 0.060982 0.651095
vt 0.060532 0.651095
vt 0.055938 0.679268
vt 0.055938 0.651095
vt 0.059301 0.651095
vt 0.055938 0.707440
vt 0.054707 0.707440
vt 0.054707 0.679268
vt 0.054256 0.707440
vt 0.054256 0.679268
vt 0.054707 0.707440
vt 0.054707 0.679268
vt 0.055938 0.707440
vt 0.055938 0.679268
vt 0.055938 0.594749
vt 0.054707 0.594749
vt 0.054707 0.594749
vt 0.055938 0.594749
vt 0.054707 0.538403
vt 0.060532 0.538403
vt 0.059301 0.538403
vt 0.055938 0.538403
vt 0.055938 0.566576
vt 0.055938 0.594749
vt 0.059301 0.594749
vt 0.059301 0.566576
vt 0.054707 0.566576
vt 0.054707 0.566576
vt 0.055938 0.622922
vt 0.055938 0.651095
vt 0.059301 0.651095
vt 0.059301 0.622922
vt 0.059301 0.622922
vt 0.059301 0.651095
vt 0.054707 0.538403
vt 0.054707 0.566576
vt 0.055938 0.538403
vt 0.054707 0.594749
vt 0.054707 0.622922
vt 0.054707 0.651095
vt 0.054256 0.538403
vt 0.054256 0.566576
vt 0.054256 0.594749
vt 0.054256 0.622922
vt 0.054256 0.622922
vt 0.054256 0.651095
vt 0.054256 0.679268
vt 0.054707 0.622922
vt 0.054707 0.651095
vt 0.055938 0.622922
vt 0.059301 0.538403
vt 0.060982 0.622922
vt 0.060532 0.622922
vt 0.060532 0.622922
vt 0.060532 0.651095
vt 0.059301 0.594749
vt 0.060532 0.651095
vt 0.059301 0.566576
vt 0.059301 0.594749
vt 0.059301 0.566576
vt 0.055938 0.566576
vt 0.060532 0.566576
vt 0.060532 0.594749
vt 0.060982 0.538403
vt 0.060982 0.566576
vt 0.060982 0.594749
vt 0.060532 0.538403
vt 0.060532 0.566576
vt 0.060532 0.594749
vt 0.054707 0.622922
vt 0.054707 0.679268
vt 0.055938 0.622922
vt 0.055938 0.679268
vt 0.818786 0.597821
vt 0.791407 0.611720
vt 0.783538 0.574219
vt 0.822722 0.596172
vt 0.836311 0.625618
vt 0.833181 0.624338
vt 0.791505 0.533743
vt 0.783538 0.574219
vt 0.818786 0.597821
vt 0.818130 0.557458
vt 0.793698 0.564275
vt 0.795845 0.639297
vt 0.791407 0.641291
vt 0.783538 0.603789
vt 0.817982 0.644544
vt 0.812203 0.639889
vt 0.833181 0.624338
vt 0.812203 0.639889
vt 0.794659 0.663567
vt 0.790221 0.665561
vt 0.811017 0.693730
vt 0.809405 0.692519
vt 0.791407 0.611720
vt 0.782351 0.628060
vt 0.792512 0.588546
vt 0.816796 0.698385
vt 0.817982 0.674114
vt 0.812203 0.669459
vt 0.810591 0.668248
vt 0.790318 0.587584
vt 0.791505 0.563313
vt 0.816476 0.525524
vt 0.818786 0.597821
vt 0.791407 0.611720
vt 0.783538 0.574219
vt 0.822722 0.596172
vt 0.836311 0.625618
vt 0.833181 0.624338
vt 0.791505 0.533743
vt 0.783538 0.574219
vt 0.818786 0.597821
vt 0.818130 0.557458
vt 0.793698 0.564275
vt 0.795845 0.639297
vt 0.791407 0.641291
vt 0.783538 0.603789
vt 0.817982 0.644544
vt 0.812203 0.639889
vt 0.833181 0.624338
vt 0.812203 0.639889
vt 0.794659 0.663567
vt 0.790221 0.665561
vt 0.811017 0.693730
vt 0.809405 0.692519
vt 0.791407 0.611720
vt 0.782351 0.628060
vt 0.792512 0.588546
vt 0.816796 0.698385
vt 0.817982 0.674114
vt 0.812203 0.669459
vt 0.810591 0.668248
vt 0.790318 0.587584
vt 0.791505 0.563313
vt 0.816476 0.525524
vt 0.818786 0.597821
vt 0.791407 0.611720
vt 0.783538 0.574219
vt 0.822722 0.596172
vt 0.836311 0.625618
vt 0.833181 0.624338
vt 0.791505 0.533743
vt 0.783538 0.574219
vt 0.818786 0.597821
vt 0.818130 0.557458
vt 0.793698 0.564275
vt 0.795845 0.639297
vt 0.791407 0.641291
vt 0.783538 0.603789
vt 0.817982 0.644544
vt 0.812203 0.639889
vt 0.833181 0.624338
vt 0.812203 0.639889
vt 0.794659 0.663567
vt 0.790221 0.665561
vt 0.811017 0.693730
vt 0.809405 0.692519
vt 0.791407 0.611720
vt 0.782351 0.628060
vt 0.792512 0.588546
vt 0.816796 0.698385
vt 0.817982 0.674114
vt 0.812203 0.669459
vt 0.810591 0.668248
vt 0.790318 0.587584
vt 0.791505 0.563313
vt 0.816476 0.525524
vt 0.818786 0.597821
vt 0.791407 0.611720
vt 0.783538 0.574219
vt 0.822722 0.596172
vt 0.836311 0.625618
vt 0.833181 0.624338
vt 0.791505 0.533743
vt 0.783538 0.574219
vt 0.818786 0.597821
vt 0.818130 0.557458
vt 0.793698 0.564275
vt 0.795845 0.639297
vt 0.791407 0.641291
vt 0.783538 0.603789
vt 0.817982 0.644544
vt 0.812203 0.639889
vt 0.833181 0.624338
vt 0.812203 0.639889
vt 0.794659 0.663567
vt 0.790221 0.665561
vt 0.811017 0.693730
vt 0.809405 0.692519
vt 0.791407 0.611720
vt 0.782351 0.628060
vt 0.792512 0.588546
vt 0.816796 0.698385
vt 0.817982 0.674114
vt 0.812203 0.669459
vt 0.810591 0.668248
vt 0.790318 0.587584
vt 0.791505 0.563313
vt 0.816476 0.525524
vt 0.795350 0.585724
vt 0.812509 0.587679
vt 0.812509 0.568619
vt 0.812509 0.670006
vt 0.846541 0.671521
vt 0.840950 0.685973
vt 0.812509 0.682650
vt 0.833840 0.636830
vt 0.822836 0.645819
vt 0.826278 0.663137
vt 0.840950 0.654723
vt 0.838033 0.623311
vt 0.846541 0.640271
vt 0.812509 0.557851
vt 0.812509 0.572374
vt 0.781431 0.635943
vt 0.789631 0.616322
vt 0.812509 0.525179
vt 0.829667 0.570099
vt 0.812509 0.506119
vt 0.812509 0.656366
vt 0.802182 0.661444
vt 0.812509 0.663309
vt 0.812509 0.593866
vt 0.812509 0.600809
vt 0.812509 0.599869
vt 0.835387 0.616322
vt 0.812509 0.620351
vt 0.791178 0.652455
vt 0.812509 0.645650
vt 0.843430 0.636160
vt 0.812509 0.634874
vt 0.826278 0.694387
vt 0.812509 0.694216
vt 0.812509 0.632059
vt 0.798740 0.694387
vt 0.812509 0.631716
vt 0.835700 0.587996
vt 0.843430 0.604910
vt 0.835387 0.585072
vt 0.784068 0.685973
vt 0.812509 0.620150
vt 0.812509 0.694559
vt 0.812509 0.537369
vt 0.778627 0.671820
vt 0.812509 0.607506
vt 0.789200 0.603459
vt 0.781431 0.604693
vt 0.777512 0.624165
vt 0.786261 0.622790
vt 0.778627 0.640570
vt 0.787098 0.639160
vt 0.812509 0.653742
vt 0.847504 0.655391
vt 0.812509 0.537255
vt 0.812509 0.556165
vt 0.838755 0.607147
vt 0.777512 0.655415
vt 0.812509 0.591242
vt 0.812509 0.618665
vt 0.812509 0.634932
vt 0.812509 0.583150
vt 0.812509 0.572432
vt 0.812509 0.599755
vt 0.847504 0.624141
vt 0.784068 0.654723
vt 0.798740 0.663137
vt 0.789631 0.585072
vt 0.795350 0.585724
vt 0.812509 0.587679
vt 0.812509 0.568619
vt 0.812509 0.670006
vt 0.846541 0.671521
vt 0.840950 0.685973
vt 0.812509 0.682650
vt 0.833840 0.636830
vt 0.822836 0.645819
vt 0.826278 0.663137
vt 0.840950 0.654723
vt 0.838033 0.623311
vt 0.846541 0.640271
vt 0.812509 0.557851
vt 0.812509 0.572374
vt 0.781431 0.635943
vt 0.789631 0.616322
vt 0.812509 0.525179
vt 0.829667 0.570099
vt 0.812509 0.506119
vt 0.812509 0.656366
vt 0.802182 0.661444
vt 0.812509 0.663309
vt 0.812509 0.593866
vt 0.812509 0.600809
vt 0.812509 0.599869
vt 0.835387 0.616322
vt 0.812509 0.620351
vt 0.791178 0.652455
vt 0.812509 0.645650
vt 0.843430 0.636160
vt 0.812509 0.634874
vt 0.826278 0.694387
vt 0.812509 0.694216
vt 0.812509 0.632059
vt 0.798740 0.694387
vt 0.812509 0.631716
vt 0.835700 0.587996
vt 0.843430 0.604910
vt 0.835387 0.585072
vt 0.784068 0.685973
vt 0.812509 0.620150
vt 0.812509 0.694559
vt 0.812509 0.537369
vt 0.778627 0.671820
vt 0.812509 0.607506
vt 0.789200 0.603459
vt 0.781431 0.604693
vt 0.777512 0.624165
vt 0.786261 0.622790
vt 0.778627 0.640570
vt 0.787098 0.639160
vt 0.812509 0.653742
vt 0.847504 0.655391
vt 0.812509 0.537255
vt 0.812509 0.556165
vt 0.838755 0.607147
vt 0.777512 0.655415
vt 0.812509 0.591242
vt 0.812509 0.618665
vt 0.812509 0.634932
vt 0.812509 0.583150
vt 0.812509 0.572432
vt 0.812509 0.599755
vt 0.847504 0.624141
vt 0.784068 0.654723
vt 0.798740 0.663137
vt 0.789631 0.585072
vt 0.795350 0.585724
vt 0.812509 0.587679
vt 0.812509 0.568619
vt 0.812509 0.670006
vt 0.846541 0.671521
vt 0.840950 0.685973
vt 0.812509 0.682650
vt 0.833840 0.636830
vt 0.822836 0.645819
vt 0.826278 0.663137
vt 0.840950 0.654723
vt 0.838033 0.623311
vt 0.846541 0.640271
vt 0.812509 0.557851
vt 0.812509 0.572374
vt 0.781431 0.635943
vt 0.789631 0.616322
vt 0.812509 0.525179
vt 0.829667 0.570099
vt 0.812509 0.506119
vt 0.812509 0.656366
vt 0.802182 0.661444
vt 0.812509 0.663309
vt 0.812509 0.593866
vt 0.812509 0.600809
vt 0.812509 0.599869
vt 0.835387 0.616322
vt 0.812509 0.620351
vt 0.791178 0.652455
vt 0.812509 0.645650
vt 0.843430 0.636160
vt 0.812509 0.634874
vt 0.826278 0.694387
vt 0.812509 0.694216
vt 0.812509 0.632059
vt 0.798740 0.694387
vt 0.812509 0.631716
vt 0.835700 0.587996
vt 0.843430 0.604910
vt 0.835387 0.585072
vt 0.784068 0.685973
vt 0.812509 0.620150
vt 0.812509 0.694559
vt 0.812509 0.537369
vt 0.778627 0.671820
vt 0.812509 0.607506
vt 0.789200 0.603459
vt 0.781431 0.604693
vt 0.777512 0.624165
vt 0.786261 0.622790
vt 0.778627 0.640570
vt 0.787098 0.639160
vt 0.812509 0.653742
vt 0.847504 0.655391
vt 0.812509 0.537255
vt 0.812509 0.556165
vt 0.838755 0.607147
vt 0.777512 0.655415
vt 0.812509 0.591242
vt 0.812509 0.618665
vt 0.812509 0.634932
vt 0.812509 0.583150
vt 0.812509 0.572432
vt 0.812509 0.599755
vt 0.847504 0.624141
vt 0.784068 0.654723
vt 0.798740 0.663137
vt 0.789631 0.585072
vt 0.059645 0.707440
vt 0.059959 0.707440
vt 0.058891 0.707440
vt 0.056347 0.707440
vt 0.055593 0.707440
vt 0.055280 0.707440
vt 0.187509 0.920006
vt 0.221541 0.921521
vt 0.215950 0.935973
vt 0.187509 0.932650
vt 0.208840 0.886830
vt 0.197836 0.895819
vt 0.201278 0.913137
vt 0.215950 0.904723
vt 0.208840 0.886830
vt 0.187565 0.881236
vt 0.153627 0.890570
vt 0.159068 0.904723
vt 0.187509 0.807851
vt 0.187509 0.822374
vt 0.156431 0.885943
vt 0.164631 0.866322
vt 0.187509 0.849869
vt 0.210387 0.866322
vt 0.187509 0.870351
vt 0.218430 0.886160
vt 0.187509 0.884874
vt 0.201278 0.944387
vt 0.187509 0.944216
vt 0.187509 0.882059
vt 0.173740 0.944387
vt 0.187509 0.881716
vt 0.221541 0.890271
vt 0.187565 0.881236
vt 0.159068 0.935973
vt 0.187509 0.870150
vt 0.187509 0.944559
vt 0.187509 0.787369
vt 0.153627 0.921820
vt 0.187509 0.857506
vt 0.164631 0.835072
vt 0.187509 0.827911
vt 0.187509 0.787369
vt 0.187509 0.818619
vt 0.152512 0.874165
vt 0.187508 0.864969
vt 0.187450 0.845727
vt 0.156431 0.854693
vt 0.187509 0.903742
vt 0.222504 0.905391
vt 0.152512 0.905415
vt 0.187509 0.841242
vt 0.222504 0.874141
vt 0.187508 0.864969
vt 0.210387 0.835072
vt 0.187509 0.827911
vt 0.187450 0.845727
vt 0.218430 0.854910
vt 0.173740 0.913137
vt 0.177182 0.911444
vt 0.166178 0.902455
vt 0.187509 0.756119
vt 0.187509 0.787369
vt 0.153627 0.890570
vt 0.159068 0.904723
vt 0.166178 0.902455
vt 0.187509 0.850809
vt 0.187509 0.913309
vt 0.187509 0.920006
vt 0.221541 0.921521
vt 0.215950 0.935973
vt 0.187509 0.932650
vt 0.197836 0.895819
vt 0.201278 0.913137
vt 0.215950 0.904723
vt 0.187509 0.807851
vt 0.187509 0.822374
vt 0.156431 0.885943
vt 0.164631 0.866322
vt 0.187509 0.849869
vt 0.210387 0.866322
vt 0.187509 0.870351
vt 0.218430 0.886160
vt 0.187509 0.884874
vt 0.201278 0.944387
vt 0.187509 0.944216
vt 0.173740 0.944387
vt 0.187509 0.881716
vt 0.208840 0.886830
vt 0.187565 0.881236
vt 0.153627 0.890570
vt 0.159068 0.904723
vt 0.159068 0.935973
vt 0.187509 0.870150
vt 0.187509 0.787369
vt 0.153627 0.921820
vt 0.187509 0.857506
vt 0.164631 0.835072
vt 0.187509 0.827911
vt 0.187509 0.787369
vt 0.187509 0.818619
vt 0.152512 0.874165
vt 0.187508 0.864969
vt 0.187450 0.845727
vt 0.156431 0.854693
vt 0.187509 0.903742
vt 0.222504 0.905391
vt 0.152512 0.905415
vt 0.187509 0.841242
vt 0.221541 0.890271
vt 0.222504 0.874141
vt 0.218430 0.854910
vt 0.210387 0.835072
vt 0.173740 0.913137
vt 0.177182 0.911444
vt 0.166178 0.902455
vt 0.187509 0.756119
vt 0.222504 0.874141
vt 0.218430 0.854910
vt 0.187509 0.920006
vt 0.221541 0.921521
vt 0.215950 0.935973
vt 0.187509 0.932650
vt 0.197836 0.895819
vt 0.201278 0.913137
vt 0.215950 0.904723
vt 0.164631 0.835072
vt 0.156431 0.854693
vt 0.187509 0.807851
vt 0.187509 0.822374
vt 0.156431 0.885943
vt 0.164631 0.866322
vt 0.187509 0.849869
vt 0.210387 0.866322
vt 0.187509 0.870351
vt 0.218430 0.886160
vt 0.187509 0.884874
vt 0.201278 0.944387
vt 0.187509 0.944216
vt 0.173740 0.944387
vt 0.187509 0.881716
vt 0.221541 0.890271
vt 0.159068 0.935973
vt 0.187509 0.870150
vt 0.187509 0.787369
vt 0.153627 0.921820
vt 0.187509 0.857506
vt 0.187509 0.818619
vt 0.152512 0.874165
vt 0.187509 0.903742
vt 0.222504 0.905391
vt 0.152512 0.905415
vt 0.187509 0.841242
vt 0.210387 0.835072
vt 0.173740 0.913137
vt 0.177182 0.911444
vt 0.187509 0.756119
vt 0.187509 0.797786
vt 0.187509 0.797786
vt 0.187509 0.797786
vt 0.187509 0.797786
vt 0.187509 0.797786
vt 0.187509 0.797786
vt 0.795350 0.585724
vt 0.812509 0.587679
vt 0.812509 0.568619
vt 0.812509 0.670006
vt 0.846541 0.671521
vt 0.840950 0.685973
vt 0.812509 0.682650
vt 0.833840 0.636830
vt 0.822836 0.645819
vt 0.826278 0.663137
vt 0.840950 0.654723
vt 0.838033 0.623311
vt 0.846541 0.640271
vt 0.812509 0.557851
vt 0.812509 0.572374
vt 0.781431 0.635943
vt 0.789631 0.616322
vt 0.812509 0.525179
vt 0.829667 0.570099
vt 0.812509 0.506119
vt 0.812509 0.656366
vt 0.802182 0.661444
vt 0.812509 0.663309
vt 0.812509 0.593866
vt 0.812509 0.600809
vt 0.812509 0.599869
vt 0.835387 0.616322
vt 0.812509 0.620351
vt 0.791178 0.652455
vt 0.812509 0.645650
vt 0.843430 0.636160
vt 0.812509 0.634874
vt 0.826278 0.694387
vt 0.812509 0.694216
vt 0.812509 0.632059
vt 0.798740 0.694387
vt 0.812509 0.631716
vt 0.835700 0.587996
vt 0.843430 0.604910
vt 0.835387 0.585072
vt 0.784068 0.685973
vt 0.812509 0.620150
vt 0.812509 0.694559
vt 0.812509 0.537369
vt 0.778627 0.671820
vt 0.812509 0.607506
vt 0.789200 0.603459
vt 0.781431 0.604693
vt 0.777512 0.624165
vt 0.786261 0.622790
vt 0.778627 0.640570
vt 0.787098 0.639160
vt 0.812509 0.653742
vt 0.847504 0.655391
vt 0.812509 0.537255
vt 0.812509 0.556165
vt 0.838755 0.607147
vt 0.777512 0.655415
vt 0.812509 0.591242
vt 0.812509 0.618665
vt 0.812509 0.634932
vt 0.812509 0.583150
vt 0.812509 0.572432
vt 0.812509 0.599755
vt 0.847504 0.624141
vt 0.784068 0.654723
vt 0.798740 0.663137
vt 0.789631 0.585072
vt 0.795350 0.585724
vt 0.812509 0.587679
vt 0.812509 0.568619
vt 0.812509 0.670006
vt 0.846541 0.671521
vt 0.840950 0.685973
vt 0.812509 0.682650
vt 0.833840 0.636830
vt 0.822836 0.645819
vt 0.826278 0.663137
vt 0.840950 0.654723
vt 0.838033 0.623311
vt 0.846541 0.640271
vt 0.812509 0.557851
vt 0.812509 0.572374
vt 0.781431 0.635943
vt 0.789631 0.616322
vt 0.812509 0.525179
vt 0.829667 0.570099
vt 0.812509 0.506119
vt 0.812509 0.656366
vt 0.802182 0.661444
vt 0.812509 0.663309
vt 0.812509 0.593866
vt 0.812509 0.600809
vt 0.812509 0.599869
vt 0.835387 0.616322
vt 0.812509 0.620351
vt 0.791178 0.652455
vt 0.812509 0.645650
vt 0.843430 0.636160
vt 0.812509 0.634874
vt 0.826278 0.694387
vt 0.812509 0.694216
vt 0.812509 0.632059
vt 0.798740 0.694387
vt 0.812509 0.631716
vt 0.835700 0.587996
vt 0.843430 0.604910
vt 0.835387 0.585072
vt 0.784068 0.685973
vt 0.812509 0.620150
vt 0.812509 0.694559
vt 0.812509 0.537369
vt 0.778627 0.671820
vt 0.812509 0.607506
vt 0.789200 0.603459
vt 0.781431 0.604693
vt 0.777512 0.624165
vt 0.786261 0.622790
vt 0.778627 0.640570
vt 0.787098 0.639160
vt 0.812509 0.653742
vt 0.847504 0.655391
vt 0.812509 0.537255
vt 0.812509 0.556165
vt 0.838755 0.607147
vt 0.777512 0.655415
vt 0.812509 0.591242
vt 0.812509 0.618665
vt 0.812509 0.634932
vt 0.812509 0.583150
vt 0.812509 0.572432
vt 0.812509 0.599755
vt 0.847504 0.624141
vt 0.784068 0.654723
vt 0.798740 0.663137
vt 0.789631 0.585072
vt 0.795350 0.585724
vt 0.812509 0.587679
vt 0.812509 0.568619
vt 0.812509 0.670006
vt 0.846541 0.671521
vt 0.840950 0.685973
vt 0.812509 0.682650
vt 0.833840 0.636830
vt 0.822836 0.645819
vt 0.826278 0.663137
vt 0.840950 0.654723
vt 0.838033 0.623311
vt 0.846541 0.640271
vt 0.812509 0.557851
vt 0.812509 0.572374
vt 0.781431 0.635943
vt 0.789631 0.616322
vt 0.812509 0.525179
vt 0.829667 0.570099
vt 0.812509 0.506119
vt 0.812509 0.656366
vt 0.802182 0.661444
vt 0.812509 0.663309
vt 0.812509 0.593866
vt 0.812509 0.600809
vt 0.812509 0.599869
vt 0.835387 0.616322
vt 0.812509 0.620351
vt 0.791178 0.652455
vt 0.812509 0.645650
vt 0.843430 0.636160
vt 0.812509 0.634874
vt 0.826278 0.694387
vt 0.812509 0.694216
vt 0.812509 0.632059
vt 0.798740 0.694387
vt 0.812509 0.631716
vt 0.835700 0.587996
vt 0.843430 0.604910
vt 0.835387 0.585072
vt 0.784068 0.685973
vt 0.812509 0.620150
vt 0.812509 0.694559
vt 0.812509 0.537369
vt 0.778627 0.671820
vt 0.812509 0.607506
vt 0.789200 0.603459
vt 0.781431 0.604693
vt 0.777512 0.624165
vt 0.786261 0.622790
vt 0.778627 0.640570
vt 0.787098 0.639160
vt 0.812509 0.653742
vt 0.847504 0.655391
vt 0.812509 0.537255
vt 0.812509 0.556165
vt 0.838755 0.607147
vt 0.777512 0.655415
vt 0.812509 0.591242
vt 0.812509 0.618665
vt 0.812509 0.634932
vt 0.812509 0.583150
vt 0.812509 0.572432
vt 0.812509 0.599755
vt 0.847504 0.624141
vt 0.784068 0.654723
vt 0.798740 0.663137
vt 0.789631 0.585072
vn 0.3830 -0.0100 -0.9237
vn 0.3839 0.0425 -0.9224
vn 0.8652 0.0430 -0.4995
vn 0.8662 -0.0107 -0.4996
vn 0.9991 0.0430 0.0000
vn 0.9999 -0.0109 0.0000
vn 0.8652 0.0430 0.4995
vn 0.8662 -0.0107 0.4996
vn 0.3839 0.0425 0.9224
vn 0.3830 -0.0100 0.9237
vn 0.1614 0.9851 0.0601
vn 0.1747 0.9845 0.0126
vn 0.1802 0.9836 -0.0073
vn 0.0000 -0.0082 1.0000
vn 0.0002 -0.0080 1.0000
vn -0.0840 -0.0066 0.9964
vn -0.7076 -0.0090 0.7066
vn -0.3837 0.0426 0.9225
vn -0.8652 0.0431 0.4996
vn -0.8662 -0.0092 0.4997
vn -0.9991 0.0431 -0.0000
vn -0.9966 -0.0090 0.0818
vn -0.8652 0.0431 -0.4996
vn -0.8519 -0.0087 -0.5237
vn -0.3837 0.0426 -0.9225
vn -0.7070 -0.0084 -0.7072
vn 0.3185 0.9122 0.2578
vn 0.2262 0.9487 0.2211
vn 0.3213 0.9109 0.2590
vn -0.0000 -0.8843 0.4669
vn -0.0029 -0.3923 0.9198
vn -0.3050 -0.2721 0.9127
vn -0.3476 0.0319 -0.9371
vn -0.0025 -0.0349 -0.9994
vn 0.3696 -0.0032 -0.9292
vn 0.4134 0.0680 -0.9080
vn -0.9669 0.0097 0.2549
vn -0.9951 -0.0672 -0.0732
vn -0.9107 -0.0421 -0.4108
vn -0.9069 -0.0795 -0.4139
vn 0.1543 -0.0837 -0.9845
vn 0.0105 -0.0080 -0.9999
vn 0.0006 -0.0072 -1.0000
vn 0.3681 -0.0756 -0.9267
vn 0.4041 0.0069 0.9147
vn -0.2716 -0.0052 0.9624
vn -0.9109 -0.0098 -0.4125
vn -0.8608 -0.0366 -0.5076
vn -0.3071 -0.2551 -0.9168
vn -0.8804 -0.0435 -0.4722
vn -0.7120 -0.0337 -0.7014
vn -0.8499 -0.0075 -0.5269
vn -0.8687 -0.0451 -0.4932
vn -0.7122 -0.0354 -0.7011
vn -0.7076 -0.0072 -0.7066
vn -1.0000 -0.0099 -0.0000
vn -0.9967 -0.0805 -0.0107
vn -0.9995 -0.0185 0.0258
vn -0.9491 0.0671 0.3076
vn -0.4938 0.1404 0.8582
vn -0.9996 -0.0269 0.0025
vn -0.4795 -0.0047 0.8775
vn -0.9683 -0.0095 0.2496
vn -0.8580 0.0631 0.5097
vn -0.8664 -0.0087 0.4992
vn -0.2592 0.1153 0.9589
vn -0.3512 0.0590 0.9344
vn -0.7078 -0.0082 0.7064
vn 0.3071 -0.2551 -0.9168
vn 0.9959 -0.0902 -0.0106
vn 0.8485 -0.0989 -0.5199
vn 0.9648 -0.0367 -0.2605
vn 0.9992 -0.0408 0.0018
vn 0.8672 -0.0535 0.4951
vn 0.8481 -0.0410 0.5282
vn 0.6668 0.0328 0.7445
vn 0.2075 0.9717 -0.1126
vn 0.2029 0.9747 -0.0940
vn 0.8182 0.0145 0.5747
vn 0.9078 0.0653 0.4143
vn 0.9112 0.0281 0.4110
vn -0.7019 -0.0361 0.7114
vn -0.3989 -0.1027 0.9112
vn -0.7238 -0.1253 0.6786
vn 0.7104 -0.0095 0.7038
vn -0.5365 -0.1749 0.8256
vn -0.7341 -0.1815 0.6543
vn 0.9109 -0.0098 0.4125
vn 0.8743 0.0232 0.4848
vn 0.8531 -0.0106 0.5216
vn 0.2186 0.9629 -0.1579
vn 0.8823 -0.0125 0.4706
vn 0.7076 -0.0117 0.7065
vn 1.0000 -0.0099 0.0000
vn 0.9987 0.0500 -0.0067
vn 0.9998 0.0033 0.0179
vn 0.7261 -0.0091 -0.6875
vn 0.2723 -0.0045 -0.9622
vn 0.9999 -0.0128 0.0000
vn 0.9109 -0.0098 -0.4125
vn 0.8707 0.0660 -0.4873
vn 0.8715 0.0060 -0.4903
vn 0.7081 -0.0092 -0.7060
vn 0.4093 0.8642 0.2926
vn 0.7023 -0.0377 0.7109
vn 0.1555 -0.0078 -0.9878
vn -0.0223 -0.0656 0.9976
vn -0.0552 -0.1281 0.9902
vn 0.0000 -0.8843 -0.4669
vn -0.0000 -1.0000 0.0000
vn -0.9642 0.0284 -0.2636
vn -0.8723 -0.0077 -0.4889
vn -0.9649 -0.0760 -0.2515
vn -0.8839 -0.0783 -0.4611
vn 0.4926 -0.1533 -0.8566
vn 0.1458 0.9777 -0.1514
vn 0.1842 0.9582 -0.2187
vn 0.1457 0.9777 -0.1512
vn 0.1065 0.9909 -0.0829
vn -0.7139 -0.0461 -0.6987
vn -0.0287 0.9760 -0.2159
vn 0.0275 0.9497 -0.3119
vn -0.0286 0.9760 -0.2160
vn 0.4796 -0.0061 -0.8774
vn -0.0845 0.9895 -0.1172
vn -0.7177 -0.0757 -0.6922
vn 0.4013 -0.8019 0.4427
vn 0.3538 -0.4707 0.8083
vn 0.1708 -0.7225 0.6700
vn 0.2439 -0.8927 -0.3790
vn 0.2620 -0.8859 -0.3829
vn 0.3283 -0.9322 -0.1521
vn 0.0150 -0.9474 -0.3198
vn -0.3632 -0.1975 -0.9105
vn -0.0649 -0.3436 -0.9369
vn -0.4186 0.8101 0.4106
vn -0.2286 0.8982 0.3756
vn -0.2626 0.9341 0.2417
vn -0.4464 0.8354 0.3206
vn 0.9462 0.2027 -0.2524
vn 0.9461 0.2027 -0.2525
vn 0.9942 0.0971 0.0471
vn 0.8005 0.2874 -0.5260
vn -0.1758 0.8488 0.4987
vn 0.1733 0.8915 0.4186
vn 0.1523 0.9522 0.2648
vn -0.2446 0.1174 -0.9625
vn -0.0967 0.2248 -0.9696
vn -0.3869 0.7770 0.4966
vn 0.1801 -0.7865 -0.5908
vn 0.3929 0.9042 0.1676
vn 0.4978 -0.3593 0.7894
vn 0.0734 0.9897 0.1229
vn -0.5036 -0.3030 0.8091
vn -0.9118 0.0982 -0.3988
vn 0.2971 -0.6119 -0.7330
vn 0.5400 -0.1889 -0.8202
vn 0.5910 -0.4790 -0.6491
vn -0.2420 -0.9527 -0.1839
vn -0.2569 -0.9465 -0.1953
vn -0.1023 -0.9182 -0.3826
vn -0.0522 -0.9979 -0.0395
vn -0.4681 -0.4788 0.7428
vn -0.6272 -0.6118 0.4820
vn 0.3851 0.8752 0.2928
vn 0.2293 0.9576 0.1743
vn 0.1351 0.9501 0.2813
vn 0.3243 0.8710 0.3689
vn -0.7853 0.1621 -0.5975
vn -0.5528 0.1537 -0.8190
vn -0.9368 0.1537 -0.3143
vn 0.3073 0.9500 0.0549
vn 0.0349 0.9832 -0.1792
vn -0.0879 0.9939 -0.0671
vn -0.6464 -0.1888 0.7392
vn -0.7603 -0.0816 0.6444
vn 0.4422 0.8710 0.2140
vn -0.3962 -0.9181 0.0037
vn -0.2918 0.9303 -0.2222
vn 0.4182 -0.0817 -0.9047
vn -0.1632 0.9832 0.0812
vn 0.9941 -0.0695 -0.0834
vn 0.1847 -0.0694 0.9803
vn -0.3570 -0.4508 -0.8182
vn -0.2734 0.0161 -0.9618
vn -0.1052 -0.2800 -0.9542
vn -0.2811 -0.9488 -0.1440
vn -0.2995 -0.9439 -0.1388
vn -0.3429 -0.8651 -0.3662
vn -0.0475 -0.9780 -0.2032
vn 0.2718 -0.6451 0.7141
vn -0.0278 -0.7695 0.6381
vn 0.4580 0.8844 0.0900
vn 0.2655 0.9526 0.1484
vn 0.2863 0.9149 0.2846
vn 0.4768 0.8599 0.1825
vn -0.9661 0.0965 0.2395
vn -0.9846 0.1577 -0.0753
vn -0.8479 0.0253 0.5296
vn 0.2250 0.9743 0.0132
vn -0.1302 0.9887 0.0743
vn -0.1243 0.9631 0.2388
vn 0.1491 -0.3931 0.9073
vn 0.0013 -0.2964 0.9551
vn 0.4348 0.9005 -0.0033
vn -0.2382 -0.9664 0.0969
vn -0.3734 0.8850 0.2780
vn -0.4183 0.1101 -0.9016
vn -0.0597 0.9204 0.3864
vn 0.5802 0.1180 -0.8059
vn 0.8683 -0.1610 0.4691
vn 0.4297 -0.8819 -0.1938
vn 0.4799 -0.8259 0.2960
vn 0.2563 -0.9634 0.0789
vn 0.1020 -0.4928 -0.8642
vn 0.1194 -0.4838 -0.8670
vn 0.2282 -0.6502 -0.7247
vn -0.1131 -0.5865 -0.8020
vn -0.5539 0.3399 -0.7600
vn -0.2776 0.2557 -0.9261
vn -0.2716 0.3958 0.8773
vn -0.0873 0.5002 0.8615
vn -0.1456 0.6044 0.7832
vn -0.3155 0.4665 0.8264
vn 0.8858 0.3728 -0.2764
vn 0.9870 0.1173 -0.1101
vn 0.6932 0.5898 -0.4143
vn -0.0138 0.3925 0.9197
vn 0.3135 0.4964 0.8095
vn 0.2655 0.6331 0.7271
vn -0.4279 0.6341 -0.6440
vn -0.2779 0.7355 -0.6180
vn -0.2252 0.3214 0.9198
vn 0.0034 -0.2884 -0.9575
vn 0.4775 0.6658 0.5733
vn 0.6239 -0.7148 0.3158
vn 0.1619 0.7402 0.6526
vn -0.3463 -0.7462 0.5686
vn -0.9656 0.2499 -0.0725
vn -0.2344 -0.9694 -0.0724
vn -0.2333 -0.9698 -0.0716
vn -0.1841 -0.9823 -0.0333
vn 0.9367 -0.0500 0.3466
vn 0.9387 -0.0190 0.3443
vn 0.9078 -0.1930 0.3724
vn 0.9084 -0.1800 0.3774
vn 0.0414 -0.2964 0.9542
vn 0.0950 -0.2979 0.9499
vn 0.0943 -0.3013 0.9489
vn 0.0294 -0.2911 0.9562
vn -0.0754 -0.1466 0.9863
vn -0.0894 -0.1152 0.9893
vn 0.0396 0.9780 0.2049
vn 0.3502 0.8429 0.4084
vn 0.3713 0.8248 0.4264
vn 0.0340 0.9787 0.2026
vn -0.1762 -0.9727 -0.1511
vn -0.1776 -0.9724 -0.1513
vn -0.1222 -0.9825 -0.1406
vn -0.8772 -0.0831 -0.4730
vn -0.8783 -0.0602 -0.4742
vn -0.8339 -0.3298 -0.4426
vn -0.8491 -0.0611 -0.5247
vn -0.8474 -0.0840 -0.5242
vn -0.8000 -0.3298 -0.5012
vn 0.0150 0.9795 -0.2011
vn 0.1894 0.9780 -0.0871
vn 0.1944 0.9773 -0.0837
vn -0.8712 0.1953 -0.4503
vn -0.8715 0.1842 -0.4545
vn 0.5653 0.8198 0.0919
vn 0.5376 0.8393 0.0813
vn 0.9142 -0.0359 0.4036
vn 0.9145 -0.0090 0.4045
vn 0.8050 0.1018 0.5845
vn 0.8062 -0.0365 0.5905
vn 0.8072 -0.0094 0.5902
vn -0.5933 0.6961 0.4044
vn -0.3940 0.5075 0.7662
vn -0.3734 0.4760 0.7962
vn -0.5774 0.6877 0.4400
vn 0.7725 -0.1966 0.6038
vn 0.7778 -0.1830 0.6013
vn 0.9087 0.1018 0.4049
vn -0.1667 0.9794 0.1137
vn 0.7623 -0.0178 0.6470
vn 0.7633 -0.0497 0.6442
vn 0.4677 0.5023 -0.7273
vn 0.5019 0.4720 -0.7248
vn 0.7092 0.1982 -0.6766
vn 0.7184 0.1798 -0.6720
vn 0.8139 -0.1155 -0.5695
vn 0.8183 -0.1473 -0.5556
vn 0.8722 0.4162 0.2570
vn 0.8600 0.4465 0.2471
vn -0.4440 -0.8557 -0.2658
vn -0.4594 -0.8453 -0.2727
vn -0.7707 -0.4225 -0.4769
vn -0.7557 -0.4648 -0.4613
vn 0.6423 0.4577 0.6148
vn 0.6559 0.4285 0.6214
vn -0.7951 -0.4338 -0.4238
vn -0.7755 -0.4738 -0.4174
vn -0.8936 0.0290 -0.4479
vn -0.8935 0.0363 -0.4476
vn -0.8274 0.1812 -0.5316
vn -0.8235 0.1919 -0.5338
vn -0.8310 0.0304 -0.5555
vn -0.8307 0.0375 -0.5554
vn -0.4727 -0.8459 -0.2470
vn -0.4601 -0.8555 -0.2375
vn -0.2183 0.1752 0.9600
vn -0.2275 0.1966 0.9537
vn 0.8438 -0.2936 -0.4492
vn 0.8693 -0.3019 -0.3913
vn 0.8706 -0.2983 -0.3913
vn 0.8480 -0.2987 -0.4378
vn 0.0996 0.6828 -0.7238
vn 0.0616 0.6916 -0.7197
vn -0.2258 0.7228 -0.6531
vn -0.6785 0.7228 0.1310
vn 0.0990 -0.2792 0.9551
vn 0.8769 -0.2791 -0.3914
vn 0.1799 -0.9694 -0.1668
vn 0.1786 -0.9698 -0.1663
vn 0.1209 -0.9823 -0.1428
vn -0.7685 -0.0500 0.6379
vn -0.7675 -0.0190 0.6408
vn -0.7764 -0.1930 0.6000
vn -0.7810 -0.1800 0.5980
vn -0.8470 -0.2964 -0.4413
vn -0.8701 -0.2979 -0.3926
vn -0.8689 -0.3013 -0.3928
vn -0.8428 -0.2911 -0.4527
vn -0.8165 -0.1466 -0.5585
vn -0.8121 -0.1152 -0.5721
vn -0.1973 0.9780 -0.0681
vn -0.5288 0.8429 0.0991
vn -0.5550 0.8248 0.1084
vn -0.1924 0.9787 -0.0718
vn 0.2189 -0.9727 -0.0770
vn 0.2199 -0.9724 -0.0781
vn 0.1829 -0.9825 -0.0355
vn 0.8482 -0.0831 -0.5232
vn 0.8499 -0.0602 -0.5235
vn 0.8002 -0.3298 -0.5009
vn 0.8789 -0.0611 -0.4730
vn 0.8777 -0.0840 -0.4718
vn 0.8341 -0.3298 -0.4422
vn 0.1666 0.9795 0.1135
vn -0.0193 0.9780 0.2076
vn -0.0247 0.9773 0.2102
vn 0.8256 0.1953 -0.5294
vn 0.8293 0.1842 -0.5275
vn -0.3622 0.8198 0.4436
vn -0.3392 0.8393 0.4249
vn -0.8067 -0.0359 0.5899
vn -0.8075 -0.0090 0.5898
vn -0.9087 0.1018 0.4049
vn -0.9145 -0.0365 0.4030
vn -0.9147 -0.0094 0.4040
vn -0.0536 0.6961 -0.7160
vn -0.4666 0.5075 -0.7244
vn -0.5028 0.4760 -0.7215
vn -0.0923 0.6877 -0.7201
vn -0.9092 -0.1966 0.3671
vn -0.9096 -0.1830 0.3730
vn -0.8050 0.1018 0.5845
vn -0.0151 0.9794 -0.2012
vn -0.9415 -0.0178 0.3367
vn -0.9395 -0.0497 0.3389
vn 0.3961 0.5023 0.7687
vn 0.3768 0.4720 0.7970
vn 0.2313 0.1982 0.9525
vn 0.2228 0.1798 0.9582
vn 0.0862 -0.1155 0.9896
vn 0.0720 -0.1473 0.9865
vn -0.6587 0.4162 0.6269
vn -0.6440 0.4465 0.6212
vn 0.4522 -0.8557 -0.2516
vn 0.4659 -0.8453 -0.2615
vn 0.7984 -0.4225 -0.4290
vn 0.7774 -0.4648 -0.4238
vn -0.8535 0.4577 0.2489
vn -0.8661 0.4285 0.2573
vn 0.7646 -0.4338 -0.4766
vn 0.7492 -0.4738 -0.4629
vn 0.8347 0.0290 -0.5500
vn 0.8344 0.0363 -0.5499
vn 0.8741 0.1812 -0.4508
vn 0.8741 0.1919 -0.4463
vn 0.8965 0.0304 -0.4419
vn 0.8964 0.0375 -0.4417
vn 0.4502 -0.8459 -0.2859
vn 0.4357 -0.8555 -0.2796
vn -0.7223 0.1752 -0.6690
vn -0.7122 0.1966 -0.6739
vn -0.0329 -0.2936 0.9554
vn -0.0958 -0.3019 0.9485
vn -0.0964 -0.2983 0.9496
vn -0.0449 -0.2987 0.9533
vn 0.5770 0.6828 0.4482
vn 0.5925 0.6916 0.4132
vn 0.6785 0.7228 0.1310
vn 0.2258 0.7228 -0.6531
vn -0.8767 -0.2792 -0.3918
vn -0.0995 -0.2791 0.9551
vn 0.0545 -0.9694 0.2392
vn 0.0547 -0.9698 0.2378
vn 0.0632 -0.9823 0.1761
vn -0.1682 -0.0500 -0.9845
vn -0.1712 -0.0190 -0.9851
vn -0.1314 -0.1930 -0.9724
vn -0.1273 -0.1800 -0.9754
vn 0.8056 -0.2964 -0.5129
vn 0.7751 -0.2979 -0.5572
vn 0.7746 -0.3013 -0.5561
vn 0.8134 -0.2911 -0.5036
vn 0.8919 -0.1466 -0.4279
vn 0.9015 -0.1152 -0.4172
vn 0.1576 0.9780 -0.1368
vn 0.1786 0.8429 -0.5075
vn 0.1836 0.8248 -0.5348
vn 0.1584 0.9787 -0.1307
vn -0.0427 -0.9727 0.2281
vn -0.0423 -0.9724 0.2295
vn -0.0607 -0.9825 0.1761
vn 0.0290 -0.0831 0.9961
vn 0.0285 -0.0602 0.9978
vn 0.0337 -0.3298 0.9435
vn -0.0298 -0.0611 0.9977
vn -0.0303 -0.0840 0.9960
vn -0.0341 -0.3298 0.9434
vn -0.1816 0.9795 0.0875
vn -0.1701 0.9780 -0.1205
vn -0.1697 0.9773 -0.1265
vn 0.0457 0.1953 0.9797
vn 0.0422 0.1842 0.9820
vn -0.2031 0.8198 -0.5355
vn -0.1984 0.8393 -0.5062
vn -0.1076 -0.0359 -0.9935
vn -0.1070 -0.0090 -0.9942
vn 0.1037 0.1018 -0.9894
vn 0.1083 -0.0365 -0.9935
vn 0.1075 -0.0094 -0.9942
vn 0.6469 0.6961 0.3116
vn 0.8606 0.5075 -0.0419
vn 0.8763 0.4760 -0.0747
vn 0.6698 0.6877 0.2801
vn 0.1367 -0.1966 -0.9709
vn 0.1318 -0.1830 -0.9742
vn -0.1037 0.1018 -0.9894
vn 0.1818 0.9794 0.0875
vn 0.1792 -0.0178 -0.9837
vn 0.1763 -0.0497 -0.9831
vn -0.8637 0.5023 -0.0414
vn -0.8786 0.4720 -0.0722
vn -0.9405 0.1982 -0.2759
vn -0.9412 0.1798 -0.2862
vn -0.9001 -0.1155 -0.4201
vn -0.8903 -0.1473 -0.4308
vn -0.2136 0.4162 -0.8839
vn -0.2160 0.4465 -0.8683
vn -0.0082 -0.8557 0.5174
vn -0.0065 -0.8453 0.5342
vn -0.0277 -0.4225 0.9059
vn -0.0217 -0.4648 0.8852
vn 0.2113 0.4577 -0.8636
vn 0.2102 0.4285 -0.8787
vn 0.0305 -0.4338 0.9005
vn 0.0263 -0.4738 0.8803
vn 0.0590 0.0290 0.9978
vn 0.0591 0.0363 0.9976
vn -0.0467 0.1812 0.9823
vn -0.0505 0.1919 0.9801
vn -0.0656 0.0304 0.9974
vn -0.0657 0.0375 0.9971
vn 0.0225 -0.8459 0.5329
vn 0.0243 -0.8555 0.5172
vn 0.9405 0.1752 -0.2910
vn 0.9397 0.1966 -0.2798
vn -0.8109 -0.2936 -0.5062
vn -0.7735 -0.3019 -0.5572
vn -0.7742 -0.2983 -0.5583
vn -0.8031 -0.2987 -0.5155
vn -0.6766 0.6828 0.2756
vn -0.6541 0.6916 0.3065
vn -0.4527 0.7228 0.5221
vn 0.4527 0.7228 0.5221
vn 0.7776 -0.2792 -0.5633
vn -0.7774 -0.2791 -0.5638
vn -0.0000 1.0000 0.0000
vn -0.1693 0.4132 0.8948
vn -0.1695 0.4097 0.8963
vn -0.1436 0.4492 0.8818
vn -0.1416 0.4441 0.8847
vn 0.7918 0.4032 0.4589
vn 0.8113 0.3495 0.4687
vn 0.8763 0.3238 0.3566
vn 0.8573 0.3915 0.3344
vn -0.7933 0.4032 0.4562
vn -0.8221 0.3164 0.4733
vn -0.8664 0.3325 0.3726
vn -0.8581 0.3915 0.3323
vn 0.1799 -0.5402 0.8221
vn 0.1697 -0.1849 0.9680
vn 0.1688 -0.1921 0.9667
vn 0.1857 -0.5629 0.8054
vn -0.2292 -0.7414 0.6307
vn -0.1981 -0.5688 0.7983
vn -0.1938 -0.5470 0.8144
vn -0.1882 -0.1950 0.9626
vn -0.1893 -0.1839 0.9645
vn -0.1089 0.3033 0.9466
vn -0.1084 0.2987 0.9482
vn 0.0982 0.2077 0.9733
vn 0.1096 0.3036 0.9465
vn 0.1091 0.2990 0.9480
vn 0.8653 0.3322 0.3754
vn 0.8209 0.3164 0.4754
vn 0.1495 0.4512 0.8798
vn 0.1471 0.4458 0.8830
vn -0.0982 0.2077 0.9733
vn 0.2294 -0.7414 0.6307
vn 0.1773 0.4096 0.8949
vn 0.1773 0.4120 0.8938
vn -0.7115 -0.6420 0.2858
vn -0.6720 -0.6289 0.3911
vn -0.2180 -0.9678 0.1258
vn 0.0001 -0.9940 0.1092
vn -0.8885 0.1085 0.4459
vn -0.8592 0.1204 0.4973
vn -0.8484 -0.1885 0.4946
vn -0.8778 -0.1954 0.4373
vn -0.1892 0.1876 0.9639
vn -0.1932 0.1482 0.9699
vn 0.1876 0.1411 0.9721
vn 0.1862 0.1798 0.9659
vn 0.8895 0.1088 0.4439
vn 0.8602 0.1204 0.4955
vn 0.7135 -0.6418 0.2811
vn 0.6747 -0.6289 0.3864
vn 0.8526 -0.1885 0.4875
vn 0.8809 -0.1973 0.4302
vn -0.8765 0.3238 0.3563
vn -0.8115 0.3495 0.4682
vn 0.2180 -0.9678 0.1258
vn 0.7559 0.3325 0.5640
vn 0.7168 0.3915 0.5770
vn 0.8302 0.2849 0.4792
vn -0.8301 0.2849 0.4793
vn -0.6902 0.4132 -0.5940
vn -0.6915 0.4097 -0.5949
vn -0.6919 0.4492 -0.5653
vn -0.6954 0.4441 -0.5650
vn -0.7470 0.3238 0.5806
vn -0.7182 0.3915 0.5752
vn -0.8019 -0.5402 -0.2552
vn -0.9232 -0.1849 -0.3370
vn -0.9216 -0.1921 -0.3372
vn -0.7904 -0.5629 -0.2419
vn -0.4316 -0.7414 -0.5138
vn -0.5923 -0.5688 -0.5707
vn -0.6084 -0.5470 -0.5750
vn -0.7395 -0.1950 -0.6443
vn -0.7406 -0.1839 -0.6462
vn -0.7654 0.3033 -0.5676
vn -0.7669 0.2987 -0.5679
vn -0.8920 0.2077 -0.4016
vn -0.8745 0.3036 -0.3783
vn -0.8755 0.2990 -0.3795
vn 0.0016 0.4032 -0.9151
vn 0.0012 0.3164 -0.9486
vn 0.1105 0.3325 -0.9366
vn 0.1413 0.3915 -0.9093
vn -0.8367 0.4512 -0.3104
vn -0.8382 0.4458 -0.3141
vn -0.7938 0.2077 -0.5717
vn -0.6609 -0.7414 -0.1166
vn -0.8636 0.4096 -0.2939
vn -0.8627 0.4120 -0.2934
vn 0.1082 -0.6420 -0.7591
vn -0.0027 -0.6289 -0.7775
vn 0.0000 -0.9678 -0.2517
vn -0.0946 -0.9940 -0.0546
vn 0.0581 0.1085 -0.9924
vn -0.0010 0.1204 -0.9927
vn -0.0041 -0.1885 -0.9821
vn 0.0602 -0.1954 -0.9789
vn -0.7401 0.1876 -0.6458
vn -0.7433 0.1482 -0.6523
vn -0.9356 0.1411 -0.3236
vn -0.9296 0.1798 -0.3217
vn -0.7577 0.3322 0.5617
vn -0.8291 0.1088 0.5484
vn -0.8130 -0.1973 0.5478
vn -0.6002 -0.6418 0.4773
vn 0.1298 0.3238 -0.9372
vn 0.0003 0.3495 -0.9369
vn -0.0603 0.1088 -0.9922
vn -0.0679 -0.1973 -0.9780
vn 0.0000 0.2849 -0.9585
vn 0.8596 0.4132 -0.3007
vn 0.8610 0.4097 -0.3014
vn 0.8355 0.4492 -0.3165
vn 0.8370 0.4441 -0.3197
vn -0.1293 0.3238 -0.9372
vn -0.1390 0.3915 -0.9096
vn 0.6033 -0.6420 0.4732
vn 0.8176 -0.1954 0.5416
vn 0.6220 -0.5402 -0.5669
vn 0.7534 -0.1849 -0.6310
vn 0.7528 -0.1921 -0.6295
vn 0.6047 -0.5629 -0.5635
vn 0.6608 -0.7414 -0.1168
vn 0.7904 -0.5688 -0.2276
vn 0.8022 -0.5470 -0.2394
vn 0.9277 -0.1950 -0.3183
vn 0.9300 -0.1839 -0.3183
vn 0.8743 0.3033 -0.3790
vn 0.8753 0.2987 -0.3802
vn 0.7938 0.2077 -0.5717
vn 0.7649 0.3036 -0.5681
vn 0.7665 0.2990 -0.5685
vn -0.1076 0.3322 -0.9370
vn 0.6872 0.4512 -0.5694
vn 0.6911 0.4458 -0.5689
vn 0.8920 0.2077 -0.4016
vn 0.4314 -0.7414 -0.5140
vn 0.6863 0.4096 -0.6010
vn 0.6854 0.4120 -0.6004
vn 0.0946 -0.9940 -0.0547
vn 0.8304 0.1085 0.5465
vn 0.9293 0.1876 -0.3181
vn 0.9366 0.1482 -0.3176
vn 0.7480 0.1411 -0.6485
vn 0.7434 0.1798 -0.6442
vn -0.1133 -0.6418 -0.7585
vn 0.7468 0.3238 0.5809
vn -0.0375 -0.9680 -0.2481
vn -0.0391 -0.9714 -0.2342
vn -0.0457 -0.9833 -0.1763
vn 0.1116 -0.0484 0.9926
vn 0.1138 -0.0138 0.9934
vn 0.0885 -0.1979 0.9762
vn 0.0851 -0.1797 0.9800
vn -0.6670 -0.3967 0.6307
vn -0.6373 -0.3864 0.6668
vn -0.6385 -0.3836 0.6672
vn -0.6660 -0.3973 0.6314
vn -0.7962 -0.1816 0.5771
vn -0.8064 -0.1520 0.5715
vn -0.1154 0.9847 0.1306
vn -0.1251 0.8476 0.5157
vn -0.1305 0.8166 0.5622
vn 0.2475 0.9615 -0.1195
vn 0.0310 -0.9738 -0.2252
vn 0.0279 -0.9711 -0.2372
vn 0.0438 -0.9834 -0.1763
vn -0.0200 -0.0895 -0.9958
vn -0.0189 -0.0239 -0.9995
vn -0.0235 -0.3299 -0.9437
vn 0.0199 -0.0249 -0.9995
vn 0.0209 -0.0903 -0.9957
vn 0.0237 -0.3299 -0.9437
vn -0.0315 0.9652 -0.2594
vn -0.2408 0.9619 -0.1291
vn 0.1238 0.9849 0.1210
vn -0.0315 0.2028 -0.9787
vn -0.0280 0.1853 -0.9823
vn 0.1443 0.8122 0.5653
vn 0.1394 0.8453 0.5158
vn 0.0735 -0.0457 0.9962
vn 0.0732 -0.0083 0.9973
vn -0.0718 0.1021 0.9922
vn -0.0740 -0.0463 0.9962
vn -0.0736 -0.0087 0.9972
vn -0.5307 0.7903 -0.3061
vn -0.7407 0.6698 0.0525
vn -0.7444 0.6650 0.0599
vn -0.0922 -0.2017 0.9751
vn -0.0881 -0.1827 0.9792
vn 0.0718 0.1021 0.9922
vn 0.0322 0.9650 -0.2602
vn -0.1192 -0.0125 0.9928
vn -0.1170 -0.0481 0.9920
vn 0.7442 0.6662 0.0487
vn 0.7483 0.6609 0.0569
vn 0.8674 0.3310 0.3717
vn 0.8706 0.2925 0.3957
vn 0.8040 -0.1523 0.5748
vn 0.7939 -0.1817 0.5803
vn 0.1456 0.4241 0.8938
vn 0.1458 0.4280 0.8919
vn 0.0060 -0.8569 -0.5155
vn 0.0030 -0.8288 -0.5596
vn 0.0173 -0.4304 -0.9025
vn 0.0161 -0.4437 -0.8960
vn -0.1430 0.4398 0.8866
vn -0.1429 0.4362 0.8885
vn -0.0195 -0.4415 -0.8970
vn -0.0187 -0.4531 -0.8912
vn -0.0386 0.0212 -0.9990
vn -0.0388 0.0372 -0.9986
vn 0.0309 0.1824 -0.9827
vn 0.0349 0.1993 -0.9793
vn 0.0429 0.0227 -0.9988
vn 0.0431 0.0384 -0.9983
vn -0.0137 -0.8306 -0.5567
vn -0.0171 -0.8570 -0.5150
vn -0.8698 0.2859 0.4021
vn -0.8661 0.3286 0.3768
vn 0.6629 -0.3995 0.6332
vn 0.6375 -0.3842 0.6679
vn 0.6362 -0.3869 0.6675
vn 0.6636 -0.3991 0.6327
vn 0.5389 0.7867 -0.3012
vn -0.6566 -0.3424 0.6721
vn 0.6564 -0.3424 0.6723
vn -0.1961 -0.9680 0.1566
vn -0.1832 -0.9714 0.1510
vn -0.1298 -0.9833 0.1277
vn 0.8038 -0.0484 -0.5929
vn 0.8034 -0.0138 -0.5953
vn 0.8012 -0.1979 -0.5647
vn 0.8062 -0.1797 -0.5637
vn 0.8797 -0.3967 0.2623
vn 0.8961 -0.3864 0.2185
vn 0.8970 -0.3836 0.2194
vn 0.8798 -0.3973 0.2611
vn 0.8979 -0.1816 0.4010
vn 0.8981 -0.1520 0.4126
vn 0.1708 0.9847 0.0347
vn 0.5092 0.8476 -0.1495
vn 0.5521 0.8166 -0.1681
vn -0.2273 0.9615 -0.1545
vn -0.2106 -0.9738 0.0857
vn -0.2194 -0.9711 0.0944
vn -0.1746 -0.9834 0.0502
vn -0.8524 -0.0895 0.5152
vn -0.8562 -0.0239 0.5161
vn -0.8056 -0.3299 0.4922
vn -0.8755 -0.0249 0.4825
vn -0.8727 -0.0903 0.4798
vn -0.8292 -0.3299 0.4513
vn -0.2089 0.9652 0.1570
vn 0.0086 0.9619 0.2731
vn 0.0429 0.9849 -0.1677
vn -0.8319 0.2028 0.5166
vn -0.8367 0.1853 0.5154
vn 0.4174 0.8122 -0.4076
vn 0.3770 0.8453 -0.3786
vn 0.8260 -0.0457 -0.5618
vn 0.8270 -0.0083 -0.5621
vn 0.8951 0.1021 -0.4339
vn 0.8997 -0.0463 -0.4340
vn 0.9004 -0.0087 -0.4349
vn 0.0003 0.7903 0.6127
vn 0.4158 0.6698 0.6152
vn 0.4241 0.6650 0.6147
vn 0.8906 -0.2017 -0.4077
vn 0.8921 -0.1827 -0.4133
vn 0.8233 0.1021 -0.5583
vn -0.2414 0.9650 0.1022
vn 0.9194 -0.0125 -0.3932
vn 0.9176 -0.0481 -0.3947
vn -0.3299 0.6662 -0.6688
vn -0.3249 0.6609 -0.6765
vn -0.1118 0.3310 -0.9370
vn -0.0926 0.2925 -0.9518
vn 0.0957 -0.1523 -0.9837
vn 0.1056 -0.1817 -0.9777
vn 0.7013 0.4241 -0.5730
vn 0.6995 0.4280 -0.5722
vn -0.4494 -0.8569 0.2526
vn -0.4861 -0.8288 0.2772
vn -0.7902 -0.4304 0.4362
vn -0.7840 -0.4437 0.4341
vn 0.8393 0.4398 -0.3195
vn 0.8409 0.4362 -0.3205
vn -0.7671 -0.4415 0.4654
vn -0.7625 -0.4531 0.4618
vn -0.8459 0.0212 0.5329
vn -0.8454 0.0372 0.5328
vn -0.8665 0.1824 0.4646
vn -0.8655 0.1993 0.4595
vn -0.8865 0.0227 0.4622
vn -0.8861 0.0384 0.4618
vn -0.4753 -0.8306 0.2902
vn -0.4374 -0.8570 0.2723
vn 0.7831 0.2859 0.5523
vn 0.7593 0.3286 0.5616
vn 0.2170 -0.3995 -0.8907
vn 0.2596 -0.3842 -0.8860
vn 0.2600 -0.3869 -0.8847
vn 0.2161 -0.3991 -0.8911
vn -0.5303 0.7867 -0.3161
vn 0.9103 -0.3424 0.2326
vn 0.2540 -0.3424 -0.9046
vn 0.2336 -0.9680 0.0916
vn 0.2224 -0.9714 0.0832
vn 0.1755 -0.9833 0.0486
vn -0.9154 -0.0484 -0.3997
vn -0.9172 -0.0138 -0.3981
vn -0.8897 -0.1979 -0.4115
vn -0.8913 -0.1797 -0.4163
vn -0.2127 -0.3967 -0.8930
vn -0.2588 -0.3864 -0.8853
vn -0.2585 -0.3836 -0.8866
vn -0.2138 -0.3973 -0.8925
vn -0.1017 -0.1816 -0.9781
vn -0.0917 -0.1520 -0.9841
vn -0.0554 0.9847 -0.1652
vn -0.3841 0.8476 -0.3662
vn -0.4216 0.8166 -0.3941
vn -0.0202 0.9615 0.2741
vn 0.1796 -0.9738 0.1395
vn 0.1915 -0.9711 0.1427
vn 0.1308 -0.9834 0.1261
vn 0.8724 -0.0895 0.4805
vn 0.8751 -0.0239 0.4834
vn 0.8290 -0.3299 0.4516
vn 0.8556 -0.0249 0.5170
vn 0.8519 -0.0903 0.5159
vn 0.8054 -0.3299 0.4924
vn 0.2404 0.9652 0.1024
vn 0.2322 0.9619 -0.1440
vn -0.1667 0.9849 0.0467
vn 0.8633 0.2028 0.4621
vn 0.8647 0.1853 0.4669
vn -0.5617 0.8122 -0.1576
vn -0.5164 0.8453 -0.1371
vn -0.8995 -0.0457 -0.4344
vn -0.9003 -0.0083 -0.4352
vn -0.8234 0.1021 -0.5583
vn -0.8257 -0.0463 -0.5622
vn -0.8268 -0.0087 -0.5624
vn 0.5305 0.7903 -0.3066
vn 0.3249 0.6698 -0.6677
vn 0.3203 0.6650 -0.6746
vn -0.7984 -0.2017 -0.5674
vn -0.8040 -0.1827 -0.5659
vn -0.8952 0.1021 -0.4339
vn 0.2092 0.9650 0.1580
vn -0.8002 -0.0125 -0.5996
vn -0.8006 -0.0481 -0.5973
vn -0.4143 0.6662 0.6201
vn -0.4235 0.6609 0.6196
vn -0.7555 0.3310 0.5653
vn -0.7780 0.2925 0.5561
vn -0.8998 -0.1523 0.4089
vn -0.8995 -0.1817 0.3974
vn -0.8469 0.4241 -0.3209
vn -0.8453 0.4280 -0.3197
vn 0.4434 -0.8569 0.2630
vn 0.4831 -0.8288 0.2824
vn 0.7729 -0.4304 0.4662
vn 0.7679 -0.4437 0.4619
vn -0.6964 0.4398 -0.5671
vn -0.6980 0.4362 -0.5679
vn 0.7866 -0.4415 0.4316
vn 0.7812 -0.4531 0.4294
vn 0.8845 0.0212 0.4661
vn 0.8842 0.0372 0.4657
vn 0.8356 0.1824 0.5182
vn 0.8307 0.1993 0.5198
vn 0.8435 0.0227 0.5366
vn 0.8430 0.0384 0.5365
vn 0.4890 -0.8306 0.2665
vn 0.4545 -0.8570 0.2426
vn 0.0867 0.2859 -0.9543
vn 0.1067 0.3286 -0.9384
vn -0.8798 -0.3995 0.2574
vn -0.8971 -0.3842 0.2181
vn -0.8962 -0.3869 0.2172
vn -0.8798 -0.3991 0.2584
vn -0.0086 0.7867 0.6173
vn -0.2537 -0.3424 -0.9047
vn -0.9104 -0.3424 0.2323
usemtl plantcreatures
s 1
f 18/1/1 260/2/2 259/3/3 23/4/4
f 23/4/4 259/3/3 261/5/5 28/6/6
f 28/6/6 261/5/5 262/7/7 33/8/8
f 33/8/8 262/7/7 263/9/9 38/10/10
f 24/11/11 29/12/12 44/13/13 46/14/11
f 38/10/10 47/15/14 48/16/15 39/17/16
f 47/15/17 264/18/18 265/19/19 51/20/20
f 51/20/20 265/19/19 266/21/21 56/22/22
f 56/22/22 266/21/21 267/23/23 61/24/24
f 61/24/24 267/23/23 268/25/25 66/26/26
f 50/27/27 54/28/28 1/29/28 8/30/29
f 11/31/30 6/32/30 7/33/31 10/34/32
f 70/35/33 69/36/34 21/37/35 22/38/36
f 54/28/37 55/39/38 15/40/39 1/29/40
f 68/41/41 67/42/42 19/43/43 20/44/44
f 39/17/16 40/45/45 17/46/46
f 38/10/10 263/9/9 264/18/18 47/15/14
f 13/47/47 65/48/48 70/35/33 14/49/49
f 65/48/48 64/50/50 69/36/51 70/35/33
f 63/51/52 62/52/53 67/42/54 68/41/55
f 12/53/56 60/54/57 65/48/48 13/47/47
f 60/54/57 59/55/58 64/50/50 65/48/48
f 59/55/58 58/56/59 71/57/60
f 58/56/59 57/58/61 62/52/53 63/51/52
f 57/58/62 56/22/62 75/59/62
f 11/31/63 55/39/38 60/54/57 12/53/56
f 55/39/38 54/28/37 59/55/58 60/54/57
f 54/28/37 53/60/64 58/56/59 59/55/58
f 53/60/64 52/61/65 57/58/61 58/56/59
f 52/61/65 51/20/20 56/22/22 57/58/61
f 55/39/38 11/31/63 15/40/39
f 50/27/66 49/62/67 53/60/64 54/28/37
f 49/62/67 48/16/68 52/61/65 53/60/64
f 48/16/68 47/15/17 51/20/20 52/61/65
f 22/38/36 2/63/69 14/49/49 70/35/33
f 30/64/70 25/65/71 46/14/72 44/13/73
f 35/66/74 30/64/70 44/13/73 43/67/75
f 40/45/45 49/62/67 50/27/66 41/68/76
f 29/12/12 34/69/77 43/67/78 44/13/13
f 42/70/79 41/68/76 9/71/80 45/72/81
f 11/31/82 10/34/32 16/73/83 15/40/84
f 7/33/85 42/70/79 45/72/81
f 16/73/83 8/30/86 1/29/87 15/40/84
f 40/45/45 39/17/16 48/16/15 49/62/67
f 6/32/88 37/74/89 42/70/79 7/33/85
f 37/74/89 36/75/90 41/68/76 42/70/79
f 36/75/90 35/66/74 40/45/45 41/68/76
f 34/69/77 39/17/91 17/46/91 43/67/78
f 34/69/92 33/8/8 38/10/10 39/17/93
f 5/76/94 32/77/95 37/74/89 6/32/88
f 32/77/95 31/78/96 36/75/90 37/74/89
f 31/78/96 30/64/70 35/66/74 36/75/90
f 25/65/71 24/11/97 46/14/98
f 29/12/99 28/6/6 33/8/8 34/69/92
f 4/79/100 27/80/101 32/77/95 5/76/94
f 27/80/101 26/81/102 31/78/96 32/77/95
f 26/81/102 25/65/71 30/64/70 31/78/96
f 24/11/97 23/4/4 28/6/6 29/12/99
f 2/63/69 22/38/36 27/80/101 4/79/100
f 22/38/36 21/37/35 26/81/102 27/80/101
f 21/37/35 20/44/44 25/65/71 26/81/102
f 20/44/44 19/43/103 24/11/97 25/65/71
f 19/43/103 18/1/1 23/4/4 24/11/97
f 41/68/104 50/27/27 8/30/29 9/71/104
f 20/44/44 21/37/35 69/36/34 68/41/41
f 40/45/45 35/66/74 43/67/75 17/46/105
f 18/1/1 19/43/43 67/42/42 66/26/106
f 45/72/107 9/71/108 8/30/86 16/73/83
f 260/2/2 18/1/1 66/26/106 268/25/25
f 10/34/32 7/33/31 45/72/107 16/73/83
f 4/79/109 5/76/110 12/53/110 13/47/109
f 12/53/110 5/76/110 6/32/30 11/31/30
f 2/63/69 4/79/109 13/47/109 14/49/49
f 64/50/50 59/55/58 71/57/111 73/82/112
f 62/52/53 57/58/61 75/59/113 72/83/114
f 68/41/41 69/36/34 74/84/115
f 63/51/116 68/41/117 74/84/117 73/82/118
f 58/56/119 63/51/116 73/82/118 71/57/119
f 69/36/51 64/50/50 73/82/112 74/84/120
f 61/24/121 66/26/122 76/85/122 72/83/123
f 66/26/106 67/42/42 76/85/124
f 56/22/125 61/24/121 72/83/123 75/59/125
f 67/42/54 62/52/53 72/83/114 76/85/126
f 81/86/127 88/87/128 87/88/129
f 83/89/130 84/90/131 78/91/132 81/86/127
f 77/92/133 86/93/134 80/94/135
f 77/95/133 80/94/135 83/89/130
f 90/96/136 89/97/137 85/98/138 86/99/139
f 77/95/133 83/89/130 81/86/127
f 84/90/140 82/100/141 92/101/142 78/91/142
f 79/102/143 93/103/143 82/100/141 84/90/140
f 89/104/137 88/105/144 92/106/145 91/107/146
f 86/93/134 85/108/147 80/94/135
f 85/108/147 93/103/148 79/102/148 80/94/135
f 87/109/149 88/105/144 89/104/137 90/110/136
f 80/94/135 79/102/150 84/90/131 83/89/130
f 82/111/151 91/107/146 92/106/145
f 92/101/152 88/87/128 81/86/127 78/91/152
f 82/112/151 93/113/153 91/114/146
f 90/110/154 77/115/154 87/109/154
f 86/99/155 77/116/155 90/96/155
f 85/98/138 89/97/137 91/114/146 93/113/153
f 77/117/133 81/86/127 87/88/129
f 98/118/156 105/119/157 104/120/158
f 100/121/159 101/122/160 95/123/161 98/118/156
f 94/124/162 103/125/163 97/126/164
f 94/127/162 97/126/164 100/121/159
f 107/128/165 106/129/166 102/130/167 103/131/168
f 94/127/162 100/121/159 98/118/156
f 101/122/169 99/132/169 109/133/170 95/123/170
f 96/134/171 110/135/171 99/132/169 101/122/169
f 106/136/166 105/137/172 109/138/173 108/139/174
f 103/125/163 102/140/175 97/126/164
f 102/140/175 110/135/176 96/134/176 97/126/164
f 104/141/177 105/137/172 106/136/166 107/142/165
f 97/126/164 96/134/178 101/122/160 100/121/159
f 99/143/179 108/139/174 109/138/173
f 109/133/180 105/119/157 98/118/156 95/123/180
f 99/144/179 110/145/181 108/146/174
f 107/142/182 94/147/182 104/141/182
f 103/131/183 94/148/183 107/128/183
f 102/130/167 106/129/166 108/146/174 110/145/181
f 94/149/162 98/118/156 104/120/158
f 115/150/184 122/151/185 121/152/186
f 117/153/187 118/154/188 112/155/189 115/150/184
f 111/156/190 120/157/191 114/158/192
f 111/159/190 114/158/192 117/153/187
f 124/160/193 123/161/194 119/162/195 120/163/196
f 111/159/190 117/153/187 115/150/184
f 118/154/197 116/164/197 126/165/198 112/155/198
f 113/166/199 127/167/199 116/164/197 118/154/197
f 123/168/194 122/169/200 126/170/201 125/171/202
f 120/157/191 119/172/203 114/158/192
f 119/172/203 127/167/204 113/166/204 114/158/192
f 121/173/205 122/169/200 123/168/194 124/174/193
f 114/158/192 113/166/206 118/154/188 117/153/187
f 116/175/207 125/171/202 126/170/201
f 126/165/208 122/151/185 115/150/184 112/155/208
f 116/176/207 127/177/209 125/178/202
f 124/174/210 111/179/210 121/173/210
f 120/163/211 111/180/211 124/160/211
f 119/162/195 123/161/194 125/178/202 127/177/209
f 111/181/190 115/150/184 121/152/186
f 132/182/212 139/183/213 138/184/214
f 134/185/215 135/186/216 129/187/217 132/182/212
f 128/188/218 137/189/219 131/190/220
f 128/191/218 131/190/220 134/185/215
f 141/192/221 140/193/222 136/194/223 137/195/224
f 128/191/218 134/185/215 132/182/212
f 135/186/225 133/196/225 143/197/226 129/187/226
f 130/198/227 144/199/227 133/196/225 135/186/225
f 140/200/222 139/201/228 143/202/229 142/203/230
f 137/189/219 136/204/231 131/190/220
f 136/204/231 144/199/232 130/198/232 131/190/220
f 138/205/233 139/201/228 140/200/222 141/206/221
f 131/190/220 130/198/234 135/186/216 134/185/215
f 133/207/235 142/203/230 143/202/229
f 143/197/236 139/183/213 132/182/212 129/187/236
f 133/208/235 144/209/237 142/210/230
f 141/206/238 128/211/238 138/205/238
f 137/195/239 128/212/239 141/192/239
f 136/194/223 140/193/222 142/210/230 144/209/237
f 128/213/218 132/182/212 138/184/214
f 180/214/240 151/215/241 158/216/242
f 168/217/243 166/218/244 153/219/245 154/220/246
f 175/221/247 174/222/248 156/223/249 153/224/250
f 173/225/251 175/221/247 153/224/250 166/226/252
f 152/227/253 169/228/254 159/229/255 146/230/256
f 151/231/257 171/232/258 158/233/259
f 149/234/260 178/235/261 145/236/262
f 174/222/263 149/237/264 145/238/265
f 158/239/266 148/240/267 152/241/268
f 177/242/269 178/235/261 149/234/260 150/243/270
f 165/244/271 169/245/272 152/241/268 148/240/267
f 154/220/246 153/219/245 156/246/273 157/247/274
f 145/248/275 155/249/276 157/250/277
f 171/232/278 176/251/279 165/252/280 148/253/281
f 147/254/282 154/255/283 157/250/277 155/249/276
f 156/246/273 145/256/284 157/247/274
f 146/230/256 158/257/285 152/227/253
f 160/258/286 168/259/287 154/255/283 147/254/282
f 179/260/288 159/261/289 161/262/290 181/263/291
f 181/263/291 161/262/290 160/264/292 182/265/293
f 166/218/244 168/217/243 170/266/294 167/267/295
f 167/267/295 170/266/294 169/245/272 165/244/271
f 163/268/296 176/251/297 171/232/258 151/231/257
f 176/251/297 163/268/296 164/269/298 172/270/299
f 168/259/287 160/258/286 161/271/300 170/272/301
f 170/272/301 161/271/300 159/229/255 169/228/254
f 164/273/302 181/263/303 182/265/304 162/274/305
f 150/275/306 175/221/307 173/225/308 162/276/309
f 149/237/264 174/222/263 175/221/307 150/275/306
f 180/214/240 179/260/310 163/277/311 151/215/241
f 163/277/311 179/260/310 181/263/303 164/273/302
f 182/265/304 177/242/269 150/243/270 162/274/305
f 165/252/280 176/251/279 172/270/312 167/278/313
f 167/278/313 172/270/312 173/225/251 166/226/252
f 147/279/314 155/280/315 178/235/316 177/242/317
f 160/264/292 147/279/314 177/242/317 182/265/293
f 146/281/318 159/261/289 179/260/288 180/214/319
f 146/281/318 180/214/319 158/216/320
f 148/253/281 158/233/321 171/232/278
f 156/223/249 174/222/248 145/238/322
f 155/280/315 145/236/323 178/235/316
f 172/270/299 164/269/298 162/276/309 173/225/308
f 218/282/324 189/283/325 196/284/326
f 206/285/327 204/286/328 191/287/329 192/288/330
f 213/289/331 212/290/332 194/291/333 191/292/334
f 211/293/335 213/289/331 191/292/334 204/294/336
f 190/295/337 207/296/338 197/297/339 184/298/340
f 189/299/341 209/300/342 196/301/343
f 187/302/344 216/303/345 183/304/346
f 212/290/347 187/305/348 183/306/349
f 196/307/350 186/308/351 190/309/352
f 215/310/353 216/303/345 187/302/344 188/311/354
f 203/312/355 207/313/356 190/309/352 186/308/351
f 192/288/330 191/287/329 194/314/357 195/315/358
f 183/316/359 193/317/360 195/318/361
f 209/300/362 214/319/363 203/320/364 186/321/365
f 185/322/366 192/323/367 195/318/361 193/317/360
f 194/314/357 183/324/368 195/315/358
f 184/298/340 196/325/369 190/295/337
f 198/326/370 206/327/371 192/323/367 185/322/366
f 217/328/372 197/329/373 199/330/374 219/331/375
f 219/331/375 199/330/374 198/332/376 220/333/377
f 204/286/328 206/285/327 208/334/378 205/335/379
f 205/335/379 208/334/378 207/313/356 203/312/355
f 201/336/380 214/319/381 209/300/342 189/299/341
f 214/319/381 201/336/380 202/337/382 210/338/383
f 206/327/371 198/326/370 199/339/384 208/340/385
f 208/340/385 199/339/384 197/297/339 207/296/338
f 202/341/386 219/331/387 220/333/388 200/342/389
f 188/343/390 213/289/391 211/293/392 200/344/393
f 187/305/348 212/290/347 213/289/391 188/343/390
f 218/282/324 217/328/394 201/345/395 189/283/325
f 201/345/395 217/328/394 219/331/387 202/341/386
f 220/333/388 215/310/353 188/311/354 200/342/389
f 203/320/364 214/319/363 210/338/396 205/346/397
f 205/346/397 210/338/396 211/293/335 204/294/336
f 185/347/398 193/348/399 216/303/400 215/310/401
f 198/332/376 185/347/398 215/310/401 220/333/377
f 184/349/402 197/329/373 217/328/372 218/282/403
f 184/349/402 218/282/403 196/284/404
f 186/321/365 196/301/405 209/300/362
f 194/291/333 212/290/332 183/306/406
f 193/348/399 183/304/407 216/303/400
f 210/338/383 202/337/382 200/344/393 211/293/392
f 256/350/408 227/351/409 234/352/410
f 244/353/411 242/354/412 229/355/413 230/356/414
f 251/357/415 250/358/416 232/359/417 229/360/418
f 249/361/419 251/357/415 229/360/418 242/362/420
f 228/363/421 245/364/422 235/365/423 222/366/424
f 227/367/425 247/368/426 234/369/427
f 225/370/428 254/371/429 221/372/430
f 250/358/431 225/373/432 221/374/433
f 234/375/434 224/376/435 228/377/436
f 253/378/437 254/371/429 225/370/428 226/379/438
f 241/380/439 245/381/440 228/377/436 224/376/435
f 230/356/414 229/355/413 232/382/441 233/383/442
f 221/384/443 231/385/444 233/386/445
f 247/368/446 252/387/447 241/388/448 224/389/449
f 223/390/450 230/391/451 233/386/445 231/385/444
f 232/382/441 221/392/452 233/383/442
f 222/366/424 234/393/453 228/363/421
f 236/394/454 244/395/455 230/391/451 223/390/450
f 255/396/456 235/397/457 237/398/458 257/399/459
f 257/399/459 237/398/458 236/400/460 258/401/461
f 242/354/412 244/353/411 246/402/462 243/403/463
f 243/403/463 246/402/462 245/381/440 241/380/439
f 239/404/464 252/387/465 247/368/426 227/367/425
f 252/387/465 239/404/464 240/405/466 248/406/467
f 244/395/455 236/394/454 237/407/468 246/408/469
f 246/408/469 237/407/468 235/365/423 245/364/422
f 240/409/470 257/399/471 258/401/472 238/410/473
f 226/411/474 251/357/475 249/361/476 238/412/477
f 225/373/432 250/358/431 251/357/475 226/411/474
f 256/350/408 255/396/478 239/413/479 227/351/409
f 239/413/479 255/396/478 257/399/471 240/409/470
f 258/401/472 253/378/437 226/379/438 238/410/473
f 241/388/448 252/387/447 248/406/480 243/414/481
f 243/414/481 248/406/480 249/361/419 242/362/420
f 223/415/482 231/416/483 254/371/484 253/378/485
f 236/400/460 223/415/482 253/378/485 258/401/461
f 222/417/486 235/397/457 255/396/456 256/350/487
f 222/417/486 256/350/487 234/352/488
f 224/389/449 234/369/489 247/368/446
f 232/359/417 250/358/416 221/374/490
f 231/416/483 221/372/491 254/371/484
f 248/406/467 240/405/466 238/412/477 249/361/476
f 3/418/492 259/3/3 260/2/2
f 3/419/492 261/5/5 259/3/3
f 3/418/492 262/7/7 261/5/5
f 3/420/492 263/9/9 262/7/7
f 3/421/492 264/18/18 263/9/9
f 3/422/492 265/19/19 264/18/18
f 3/423/492 266/21/21 265/19/19
f 3/422/492 267/23/23 266/21/21
f 3/421/492 268/25/25 267/23/23
f 3/420/492 260/2/2 268/25/25
f 286/424/493 284/425/494 274/426/495 275/427/496
f 290/428/497 289/429/498 277/430/499 274/431/500
f 291/432/501 338/433/502 281/434/503 271/435/504
f 273/436/505 287/437/506 280/438/507 270/439/508
f 279/440/509 272/441/510 273/442/511
f 283/443/512 287/444/513 273/442/511 272/441/510
f 275/427/496 274/426/495 277/445/514 278/446/515
f 269/447/516 276/448/517 278/449/518
f 284/450/519 333/451/520 290/428/497 274/431/500
f 271/452/521 275/453/522 278/449/518 276/448/517
f 277/445/514 269/454/523 278/446/515
f 270/439/508 279/455/524 273/436/505
f 281/456/525 286/457/526 275/453/522 271/452/521
f 270/458/527 341/459/528 342/460/529 279/461/530
f 282/462/531 339/463/532 340/464/533 280/465/534
f 284/425/494 286/424/493 288/466/535 285/467/536
f 285/467/536 288/466/535 287/444/513 283/443/512
f 286/457/526 281/456/525 282/468/537 288/469/538
f 288/469/538 282/468/537 280/438/507 287/437/506
f 285/470/539 334/471/540 333/451/520 284/450/519
f 272/472/541 336/473/542 335/474/543 283/475/544
f 271/435/504 276/476/545 292/477/546 291/478/501
f 280/465/534 340/464/533 341/459/528 270/458/527
f 281/434/503 338/433/502 339/463/532 282/462/531
f 279/479/530 337/480/547 336/473/542 272/472/541
f 333/451/520 325/481/548 315/482/549 290/483/497
f 277/430/499 289/429/498 269/484/550
f 276/476/545 269/485/551 292/477/546
f 309/486/552 307/487/553 297/488/554 298/489/555
f 291/432/501 292/490/546 300/491/556 297/492/557
f 296/493/558 310/494/559 303/495/560 293/496/561
f 302/497/562 295/498/563 296/499/564
f 306/500/565 310/501/566 296/499/564 295/498/563
f 298/489/555 297/488/554 300/502/567 301/503/568
f 269/447/569 299/504/570 301/505/571
f 312/506/572 343/507/573 304/508/574 294/509/575
f 294/510/576 298/511/577 301/505/571 299/504/570
f 300/502/567 269/454/578 301/503/568
f 293/496/561 302/512/579 296/493/558
f 304/513/580 309/514/581 298/511/577 294/510/576
f 293/515/582 346/516/583 347/517/584 302/518/585
f 305/519/586 344/520/587 345/521/588 303/522/589
f 307/487/553 309/486/552 311/523/590 308/524/591
f 308/524/591 311/523/590 310/501/566 306/500/565
f 309/514/581 304/513/580 305/525/592 311/526/593
f 311/526/593 305/525/592 303/495/560 310/494/559
f 338/433/502 307/527/594 308/528/595 339/463/532
f 341/459/528 340/464/533 306/529/596 295/530/597
f 294/509/575 299/531/598 313/532/599 312/533/572
f 303/522/589 345/521/588 346/516/583 293/515/582
f 304/508/574 343/507/573 344/520/587 305/519/586
f 341/459/528 295/530/597 302/534/585 342/460/529
f 344/520/587 329/535/600 327/536/601 345/521/588
f 300/491/556 292/490/546 269/484/551
f 299/531/598 269/485/602 313/532/599
f 330/537/603 328/538/604 318/539/605 319/540/606
f 312/506/572 313/541/599 321/542/607 318/543/608
f 336/473/542 314/544/609 324/545/610 335/474/543
f 317/546/611 331/547/612 324/548/613 314/549/614
f 323/550/615 316/551/616 317/552/617
f 327/553/618 331/554/619 317/552/617 316/551/616
f 319/540/606 318/539/605 321/555/620 322/556/621
f 269/447/622 320/557/623 322/558/624
f 328/559/625 343/507/573 312/506/572 318/543/608
f 315/560/626 319/561/627 322/558/624 320/557/623
f 321/555/620 269/454/628 322/556/621
f 314/549/614 323/562/629 317/546/611
f 325/563/630 330/564/631 319/561/627 315/560/626
f 337/480/547 323/565/632 314/544/609 336/473/542
f 334/471/540 335/474/543 324/545/610 326/566/633
f 328/538/604 330/537/603 332/567/634 329/568/635
f 329/568/635 332/567/634 331/554/619 327/553/618
f 330/564/631 325/563/630 326/569/636 332/570/637
f 332/570/637 326/569/636 324/548/613 331/547/612
f 343/507/573 328/559/625 329/535/600 344/520/587
f 346/516/583 345/521/588 327/536/601 316/571/638
f 315/482/549 320/572/639 289/573/498 290/483/497
f 339/463/532 308/528/595 306/529/596 340/464/533
f 333/451/520 334/471/540 326/566/633 325/481/548
f 346/516/583 316/571/638 323/574/632 347/517/584
f 307/527/594 338/433/502 291/432/501 297/492/557
f 321/542/607 313/541/599 269/484/602
f 320/572/639 269/485/550 289/573/498
f 337/575/547 279/576/530 342/577/529
f 347/578/584 342/577/529 302/579/585
f 337/575/547 342/577/529 347/578/584
f 323/580/632 337/575/547 347/578/584
f 283/475/544 335/474/543 334/471/540 285/470/539
f 383/581/640 354/582/641 361/583/642
f 371/584/643 369/585/644 356/586/645 357/587/646
f 378/588/647 377/589/648 359/590/649 356/591/650
f 376/592/651 378/588/647 356/591/650 369/593/652
f 355/594/653 372/595/654 362/596/655 349/597/656
f 354/598/657 374/599/658 361/600/659
f 352/601/660 381/602/661 348/603/662
f 377/589/663 352/604/664 348/605/665
f 361/606/666 351/607/667 355/608/668
f 380/609/669 381/602/661 352/601/660 353/610/670
f 368/611/671 372/612/672 355/608/668 351/607/667
f 357/587/646 356/586/645 359/613/673 360/614/674
f 348/615/675 358/616/676 360/617/677
f 374/599/678 379/618/679 368/619/680 351/620/667
f 350/621/681 357/622/682 360/617/677 358/616/676
f 359/613/673 348/623/683 360/614/674
f 349/597/656 361/624/684 355/594/653
f 363/625/685 371/626/686 357/622/682 350/621/681
f 382/627/687 362/628/688 364/629/689 384/630/690
f 384/630/690 364/629/689 363/631/691 385/632/692
f 369/585/644 371/584/643 373/633/693 370/634/694
f 370/634/694 373/633/693 372/612/672 368/611/671
f 366/635/695 379/618/696 374/599/658 354/598/657
f 379/618/696 366/635/695 367/636/697 375/637/698
f 371/626/686 363/625/685 364/638/699 373/639/700
f 373/639/700 364/638/699 362/596/655 372/595/654
f 367/640/701 384/630/702 385/632/703 365/641/704
f 353/642/705 378/588/706 376/592/707 365/643/708
f 352/604/664 377/589/663 378/588/706 353/642/705
f 383/581/640 382/627/709 366/644/710 354/582/641
f 366/644/710 382/627/709 384/630/702 367/640/701
f 385/632/703 380/609/669 353/610/670 365/641/704
f 368/619/680 379/618/679 375/637/711 370/645/712
f 370/645/712 375/637/711 376/592/651 369/593/652
f 350/646/713 358/647/714 381/602/715 380/609/716
f 363/631/691 350/646/713 380/609/716 385/632/692
f 349/648/656 362/628/688 382/627/687 383/581/717
f 349/648/656 383/581/717 361/583/684
f 351/620/667 361/600/666 374/599/678
f 359/590/649 377/589/648 348/605/718
f 358/647/714 348/603/719 381/602/715
f 375/637/698 367/636/697 365/643/708 376/592/707
f 421/649/720 392/650/721 399/651/722
f 409/652/723 407/653/724 394/654/725 395/655/726
f 416/656/727 415/657/728 397/658/729 394/659/730
f 414/660/731 416/656/727 394/659/730 407/661/732
f 393/662/733 410/663/734 400/664/735 387/665/736
f 392/666/737 412/667/738 399/668/739
f 390/669/740 419/670/741 386/671/742
f 415/657/743 390/672/744 386/673/745
f 399/674/746 389/675/747 393/676/748
f 418/677/749 419/670/741 390/669/740 391/678/750
f 406/679/751 410/680/752 393/676/748 389/675/747
f 395/655/726 394/654/725 397/681/753 398/682/754
f 386/683/755 396/684/756 398/685/757
f 412/667/758 417/686/759 406/687/760 389/688/747
f 388/689/761 395/690/762 398/685/757 396/684/756
f 397/681/753 386/691/763 398/682/754
f 387/665/736 399/692/764 393/662/733
f 401/693/765 409/694/766 395/690/762 388/689/761
f 420/695/767 400/696/768 402/697/769 422/698/770
f 422/698/770 402/697/769 401/699/771 423/700/772
f 407/653/724 409/652/723 411/701/773 408/702/774
f 408/702/774 411/701/773 410/680/752 406/679/751
f 404/703/775 417/686/776 412/667/738 392/666/737
f 417/686/776 404/703/775 405/704/777 413/705/778
f 409/694/766 401/693/765 402/706/779 411/707/780
f 411/707/780 402/706/779 400/664/735 410/663/734
f 405/708/781 422/698/782 423/700/783 403/709/784
f 391/710/785 416/656/786 414/660/787 403/711/788
f 390/672/744 415/657/743 416/656/786 391/710/785
f 421/649/720 420/695/789 404/712/790 392/650/721
f 404/712/790 420/695/789 422/698/782 405/708/781
f 423/700/783 418/677/749 391/678/750 403/709/784
f 406/687/760 417/686/759 413/705/791 408/713/792
f 408/713/792 413/705/791 414/660/731 407/661/732
f 388/714/793 396/715/794 419/670/795 418/677/796
f 401/699/771 388/714/793 418/677/796 423/700/772
f 387/716/736 400/696/768 420/695/767 421/649/797
f 387/716/736 421/649/797 399/651/764
f 389/688/747 399/668/746 412/667/758
f 397/658/729 415/657/728 386/673/798
f 396/715/794 386/671/799 419/670/795
f 413/705/778 405/704/777 403/711/788 414/660/787
f 459/717/800 430/718/801 437/719/802
f 447/720/803 445/721/804 432/722/805 433/723/806
f 454/724/807 453/725/808 435/726/809 432/727/810
f 452/728/811 454/724/807 432/727/810 445/729/812
f 431/730/813 448/731/814 438/732/815 425/733/816
f 430/734/817 450/735/818 437/736/819
f 428/737/820 457/738/821 424/739/822
f 453/725/823 428/740/824 424/741/825
f 437/742/826 427/743/827 431/744/828
f 456/745/829 457/738/821 428/737/820 429/746/830
f 444/747/831 448/748/832 431/744/828 427/743/827
f 433/723/806 432/722/805 435/749/833 436/750/834
f 424/751/835 434/752/836 436/753/837
f 450/735/838 455/754/839 444/755/840 427/756/827
f 426/757/841 433/758/842 436/753/837 434/752/836
f 435/749/833 424/759/843 436/750/834
f 425/733/816 437/760/844 431/730/813
f 439/761/845 447/762/846 433/758/842 426/757/841
f 458/763/847 438/764/848 440/765/849 460/766/850
f 460/766/850 440/765/849 439/767/851 461/768/852
f 445/721/804 447/720/803 449/769/853 446/770/854
f 446/770/854 449/769/853 448/748/832 444/747/831
f 442/771/855 455/754/856 450/735/818 430/734/817
f 455/754/856 442/771/855 443/772/857 451/773/858
f 447/762/846 439/761/845 440/774/859 449/775/860
f 449/775/860 440/774/859 438/732/815 448/731/814
f 443/776/861 460/766/862 461/768/863 441/777/864
f 429/778/865 454/724/866 452/728/867 441/779/868
f 428/740/824 453/725/823 454/724/866 429/778/865
f 459/717/800 458/763/869 442/780/870 430/718/801
f 442/780/870 458/763/869 460/766/862 443/776/861
f 461/768/863 456/745/829 429/746/830 441/777/864
f 444/755/840 455/754/839 451/773/871 446/781/872
f 446/781/872 451/773/871 452/728/811 445/729/812
f 426/782/873 434/783/874 457/738/875 456/745/876
f 439/767/851 426/782/873 456/745/876 461/768/852
f 425/784/816 438/764/848 458/763/847 459/717/877
f 425/784/816 459/717/877 437/719/844
f 427/756/827 437/736/826 450/735/838
f 435/726/809 453/725/808 424/741/878
f 434/783/874 424/739/879 457/738/875
f 451/773/858 443/772/857 441/779/868 452/728/867
