# Blender v3.4.1 OBJ File: 'November2025_PlantWarrior_Assets_Export.blend'
# www.blender.org
mtllib PlantWarrior_Bow_withString.mtl
o PlantWarrior_Bow_withString
v -0.405009 0.000001 -1.041048
v 0.022994 0.063812 -0.108223
v -0.103939 0.078302 -0.692843
v 0.023584 -0.063799 -0.107637
v -0.290814 0.000006 -0.787237
v -0.168405 0.000015 -0.663144
v 0.000145 -0.000046 -0.162281
v 0.042161 0.000015 -0.120901
v -0.104633 -0.078341 -0.692607
v -0.099342 -0.000014 -0.694745
v -0.234944 0.053565 -0.814043
v -0.235045 -0.053558 -0.814045
v -0.227086 0.000001 -0.814903
v -0.003435 0.049800 -0.057359
v 0.112606 0.089509 -0.193979
v 0.069729 0.093917 -0.554320
v 0.173104 0.099051 -0.357482
v 0.007170 -0.000009 -0.528872
v 0.051915 -0.000031 -0.239374
v 0.086086 -0.000016 -0.375604
v 0.115646 -0.089304 -0.191766
v 0.068644 -0.094145 -0.553059
v 0.173892 -0.099060 -0.356159
v 0.072361 -0.000057 -0.554859
v 0.116701 0.000059 -0.205615
v 0.170720 0.000002 -0.366470
v -0.012107 -0.076641 -0.133352
v 0.102257 -0.110671 -0.357084
v 0.010550 -0.106256 -0.527985
v -0.283152 -0.064203 -0.797338
v -0.160642 -0.092546 -0.666385
v 0.060258 -0.102791 -0.213244
v -0.159802 0.092593 -0.666623
v -0.282992 0.064227 -0.797352
v 0.057333 0.102724 -0.215426
v -0.013120 0.076476 -0.133907
v 0.101441 0.110611 -0.358680
v 0.011653 0.106170 -0.529223
v 0.002542 -0.081865 -0.114902
v -0.131263 0.098264 -0.679893
v -0.236913 0.000013 -0.719953
v -0.337382 0.000002 -0.879169
v -0.172869 -0.067741 -0.749264
v -0.225027 0.029523 -0.813296
v -0.225076 -0.029521 -0.813300
v -0.097577 -0.042917 -0.695759
v -0.165640 -0.000001 -0.750862
v -0.172555 0.067748 -0.749279
v -0.257681 0.068646 -0.804572
v -0.301202 -0.033452 -0.896908
v -0.301184 0.033455 -0.896912
v 0.039114 -0.035133 -0.114572
v -0.097202 0.042878 -0.695894
v 0.038823 0.035172 -0.114918
v -0.294311 0.000001 -0.897792
v 0.072417 -0.000021 -0.301045
v 0.084951 0.110534 -0.200065
v 0.160047 0.096058 -0.267418
v 0.064301 -0.000014 -0.453242
v 0.140484 0.098157 -0.458023
v 0.139957 -0.098319 -0.456757
v 0.075159 -0.052325 -0.555794
v 0.140088 -0.000038 -0.462838
v 0.177034 -0.055218 -0.362516
v 0.162618 -0.095916 -0.265593
v 0.157539 0.000041 -0.277971
v 0.120380 -0.049319 -0.198835
v 0.140443 -0.120596 -0.353051
v 0.039409 -0.115231 -0.540295
v 0.075778 0.052157 -0.556499
v 0.176603 0.055221 -0.363226
v 0.118682 0.049493 -0.200151
v 0.066996 0.079436 -0.140474
v 0.030356 -0.000042 -0.195474
v -0.019609 0.087075 -0.631792
v -0.078809 0.000004 -0.600288
v 0.080444 0.000043 -0.153790
v -0.015957 -0.000041 -0.632597
v 0.068643 -0.079309 -0.138829
v -0.020703 -0.087229 -0.631023
v -0.257832 -0.068629 -0.804565
v -0.132148 -0.098260 -0.679620
v 0.088378 -0.110455 -0.197570
v 0.090999 -0.108326 -0.278165
v 0.073969 -0.109779 -0.443501
v 0.026525 -0.093484 -0.165626
v -0.075946 -0.100642 -0.602728
v -0.227791 -0.081068 -0.727226
v 0.001638 0.081775 -0.115552
v 0.139501 0.120556 -0.354742
v 0.040669 0.115051 -0.541753
v -0.227356 0.081119 -0.727258
v -0.074783 0.100623 -0.603472
v 0.024531 0.093357 -0.167168
v 0.074445 0.109689 -0.444918
v 0.088499 0.108281 -0.280153
v -0.331259 -0.039413 -0.886720
v -0.331221 0.039421 -0.886733
v -0.013978 -0.048150 -0.633975
v -0.199910 -0.085680 -0.738646
v -0.048453 -0.108026 -0.616947
v 0.078405 0.043640 -0.147437
v 0.079310 -0.043518 -0.146451
v -0.164449 -0.036992 -0.751414
v -0.278423 0.021227 -0.877305
v 0.045630 -0.099495 -0.146545
v -0.164287 0.036990 -0.751420
v -0.278433 -0.021226 -0.877305
v -0.013380 0.048031 -0.634420
v 0.127008 0.117495 -0.269739
v 0.108600 0.119512 -0.449766
v 0.144789 -0.054820 -0.461419
v 0.164573 -0.053285 -0.272364
v 0.145107 0.054705 -0.462099
v 0.163114 0.053406 -0.273406
v 0.129956 -0.117439 -0.267558
v 0.108033 -0.119656 -0.448201
v -0.199479 0.085713 -0.738673
v -0.047140 0.107927 -0.617819
v 0.043559 0.099495 -0.148353
v -0.303421 -0.049143 -0.871367
v -0.303377 0.049150 -0.871378
v 0.012435 0.027447 -0.063937
v 0.012723 -0.027427 -0.063591
v -0.023845 -0.063901 -0.064140
v -0.039392 0.059685 -0.083178
v -0.038382 -0.059824 -0.082618
v 0.015808 0.000007 -0.069880
v -0.025953 -0.000041 -0.111379
v -0.002849 -0.049800 -0.056772
v -0.024746 0.063821 -0.064794
v -0.018834 0.046012 -0.000000
v -0.002917 0.025358 -0.000000
v -0.002632 -0.025343 -0.000000
v -0.039195 -0.059044 -0.000000
v -0.054571 0.055145 -0.000000
v -0.053567 -0.055277 -0.000000
v 0.000504 0.000004 -0.000000
v -0.040803 -0.000040 -0.000000
v -0.018253 -0.046016 -0.000000
v -0.040091 0.058967 -0.000000
v -0.405009 0.000001 1.041048
v 0.022994 0.063812 0.108223
v -0.103939 0.078302 0.692843
v 0.023584 -0.063799 0.107637
v -0.290814 0.000006 0.787237
v -0.168405 0.000015 0.663144
v 0.000145 -0.000046 0.162281
v 0.042161 0.000015 0.120901
v -0.104633 -0.078341 0.692607
v -0.099342 -0.000014 0.694745
v -0.234944 0.053565 0.814043
v -0.235045 -0.053558 0.814045
v -0.227085 0.000001 0.814903
v -0.003435 0.049800 0.057359
v 0.112606 0.089509 0.193979
v 0.069729 0.093917 0.554320
v 0.173104 0.099051 0.357482
v 0.007170 -0.000009 0.528872
v 0.051915 -0.000031 0.239374
v 0.086086 -0.000016 0.375604
v 0.115646 -0.089304 0.191766
v 0.068644 -0.094145 0.553059
v 0.173892 -0.099060 0.356159
v 0.072361 -0.000057 0.554859
v 0.116701 0.000059 0.205615
v 0.170720 0.000002 0.366470
v -0.012107 -0.076641 0.133351
v 0.102257 -0.110671 0.357084
v 0.010550 -0.106256 0.527985
v -0.283152 -0.064203 0.797338
v -0.160642 -0.092546 0.666385
v 0.060258 -0.102791 0.213244
v -0.159802 0.092593 0.666623
v -0.282992 0.064227 0.797352
v 0.057333 0.102724 0.215426
v -0.013120 0.076476 0.133907
v 0.101441 0.110611 0.358680
v 0.011653 0.106170 0.529223
v 0.002542 -0.081865 0.114902
v -0.131263 0.098264 0.679893
v -0.236913 0.000013 0.719953
v -0.337381 0.000002 0.879169
v -0.172869 -0.067741 0.749264
v -0.225027 0.029523 0.813296
v -0.225076 -0.029521 0.813300
v -0.097577 -0.042917 0.695759
v -0.165640 -0.000001 0.750862
v -0.172555 0.067748 0.749279
v -0.257681 0.068646 0.804572
v -0.301202 -0.033452 0.896908
v -0.301184 0.033455 0.896912
v 0.039114 -0.035133 0.114572
v -0.097202 0.042878 0.695894
v 0.038823 0.035172 0.114918
v -0.294311 0.000001 0.897792
v 0.072417 -0.000021 0.301045
v 0.084951 0.110534 0.200065
v 0.160047 0.096058 0.267418
v 0.064301 -0.000014 0.453242
v 0.140484 0.098157 0.458023
v 0.139958 -0.098319 0.456757
v 0.075159 -0.052325 0.555794
v 0.140088 -0.000038 0.462838
v 0.177034 -0.055218 0.362516
v 0.162618 -0.095916 0.265593
v 0.157539 0.000041 0.277971
v 0.120380 -0.049319 0.198835
v 0.140443 -0.120596 0.353051
v 0.039409 -0.115231 0.540295
v 0.075778 0.052157 0.556499
v 0.176603 0.055221 0.363226
v 0.118682 0.049493 0.200151
v 0.066996 0.079436 0.140474
v 0.030356 -0.000042 0.195474
v -0.019609 0.087075 0.631792
v -0.078809 0.000004 0.600288
v 0.080444 0.000043 0.153790
v -0.015957 -0.000041 0.632597
v 0.068643 -0.079309 0.138829
v -0.020703 -0.087229 0.631023
v -0.257831 -0.068629 0.804565
v -0.132148 -0.098260 0.679620
v 0.088378 -0.110455 0.197570
v 0.090999 -0.108326 0.278165
v 0.073969 -0.109779 0.443501
v 0.026525 -0.093484 0.165626
v -0.075946 -0.100642 0.602728
v -0.227791 -0.081068 0.727226
v 0.001638 0.081775 0.115552
v 0.139501 0.120556 0.354742
v 0.040669 0.115051 0.541753
v -0.227356 0.081119 0.727258
v -0.074783 0.100623 0.603472
v 0.024531 0.093357 0.167168
v 0.074445 0.109689 0.444918
v 0.088499 0.108281 0.280153
v -0.331259 -0.039413 0.886720
v -0.331221 0.039421 0.886733
v -0.013978 -0.048150 0.633975
v -0.199910 -0.085680 0.738646
v -0.048453 -0.108026 0.616947
v 0.078405 0.043640 0.147437
v 0.079310 -0.043518 0.146451
v -0.164449 -0.036992 0.751414
v -0.278423 0.021227 0.877305
v 0.045630 -0.099495 0.146545
v -0.164287 0.036990 0.751420
v -0.278433 -0.021226 0.877305
v -0.013380 0.048031 0.634420
v 0.127008 0.117495 0.269739
v 0.108600 0.119512 0.449766
v 0.144789 -0.054820 0.461419
v 0.164573 -0.053285 0.272364
v 0.145107 0.054705 0.462099
v 0.163114 0.053406 0.273406
v 0.129956 -0.117439 0.267558
v 0.108033 -0.119656 0.448201
v -0.199479 0.085713 0.738673
v -0.047140 0.107927 0.617819
v 0.043559 0.099495 0.148353
v -0.303420 -0.049143 0.871367
v -0.303377 0.049150 0.871378
v 0.012435 0.027447 0.063937
v 0.012723 -0.027427 0.063590
v -0.023845 -0.063901 0.064140
v -0.039392 0.059685 0.083178
v -0.038382 -0.059824 0.082618
v 0.015808 0.000007 0.069880
v -0.025953 -0.000041 0.111379
v -0.002849 -0.049800 0.056772
v -0.024746 0.063821 0.064794
v -0.322410 -0.010656 -0.879889
v -0.322409 -0.010656 0.879892
v -0.314875 -0.007535 -0.879889
v -0.314875 -0.007535 0.879892
v -0.311754 0.000000 -0.879889
v -0.311754 0.000000 0.879892
v -0.314875 0.007535 -0.879889
v -0.314875 0.007535 0.879898
v -0.322410 0.010656 -0.879889
v -0.322409 0.010656 0.879898
v -0.329944 0.007535 -0.879889
v -0.329944 0.007535 0.879898
v -0.333065 0.000000 -0.879889
v -0.333065 0.000000 0.879892
v -0.329944 -0.007535 -0.879889
v -0.329944 -0.007535 0.879892
v -0.322410 -0.010656 -0.744521
v -0.322410 -0.010656 -0.609154
v -0.322410 -0.010656 -0.473786
v -0.322409 -0.010656 -0.338418
v -0.322409 -0.010656 -0.203050
v -0.322409 -0.010656 -0.067683
v -0.322409 -0.010656 0.067685
v -0.322409 -0.010656 0.203053
v -0.322409 -0.010656 0.338421
v -0.322409 -0.010656 0.473789
v -0.322409 -0.010656 0.609156
v -0.322409 -0.010656 0.744524
v -0.314875 -0.007535 0.744524
v -0.314875 -0.007535 0.609156
v -0.314875 -0.007535 0.473789
v -0.314875 -0.007535 0.338421
v -0.314875 -0.007535 0.203053
v -0.314875 -0.007535 0.067685
v -0.314875 -0.007535 -0.067682
v -0.314875 -0.007535 -0.203050
v -0.314875 -0.007535 -0.338418
v -0.314875 -0.007535 -0.473786
v -0.314875 -0.007535 -0.609154
v -0.314875 -0.007535 -0.744521
v -0.311754 0.000000 0.744524
v -0.311754 0.000000 0.609157
v -0.311754 0.000000 0.473789
v -0.311754 0.000000 0.338421
v -0.311754 0.000000 0.203053
v -0.311754 0.000000 0.067685
v -0.311754 0.000000 -0.067682
v -0.311754 0.000000 -0.203050
v -0.311754 0.000000 -0.338418
v -0.311754 0.000000 -0.473786
v -0.311754 0.000000 -0.609154
v -0.311754 0.000000 -0.744521
v -0.314875 0.007535 0.744530
v -0.314875 0.007535 0.609161
v -0.314875 0.007535 0.473793
v -0.314875 0.007535 0.338425
v -0.314875 0.007535 0.203057
v -0.314875 0.007535 0.067689
v -0.314875 0.007535 -0.067680
v -0.314875 0.007535 -0.203048
v -0.314875 0.007535 -0.338416
v -0.314875 0.007535 -0.473784
v -0.314875 0.007535 -0.609153
v -0.314875 0.007535 -0.744521
v -0.322409 0.010656 0.744530
v -0.322409 0.010656 0.609162
v -0.322409 0.010656 0.473793
v -0.322409 0.010656 0.338425
v -0.322409 0.010656 0.203057
v -0.322409 0.010656 0.067689
v -0.322409 0.010656 -0.067680
v -0.322409 0.010656 -0.203048
v -0.322409 0.010656 -0.338416
v -0.322410 0.010656 -0.473784
v -0.322410 0.010656 -0.609152
v -0.322410 0.010656 -0.744521
v -0.329944 0.007535 0.744530
v -0.329944 0.007535 0.609161
v -0.329944 0.007535 0.473793
v -0.329944 0.007535 0.338425
v -0.329944 0.007535 0.203057
v -0.329944 0.007535 0.067689
v -0.329944 0.007535 -0.067680
v -0.329944 0.007535 -0.203048
v -0.329944 0.007535 -0.338416
v -0.329944 0.007535 -0.473784
v -0.329944 0.007535 -0.609152
v -0.329944 0.007535 -0.744521
v -0.333065 0.000000 0.744524
v -0.333065 0.000000 0.609157
v -0.333065 0.000000 0.473789
v -0.333065 0.000000 0.338421
v -0.333065 0.000000 0.203053
v -0.333065 0.000000 0.067685
v -0.333065 0.000000 -0.067682
v -0.333065 0.000000 -0.203050
v -0.333065 0.000000 -0.338418
v -0.333065 0.000000 -0.473786
v -0.333065 0.000000 -0.609154
v -0.333065 0.000000 -0.744521
v -0.329944 -0.007535 0.744524
v -0.329944 -0.007535 0.609157
v -0.329944 -0.007535 0.473789
v -0.329944 -0.007535 0.338421
v -0.329944 -0.007535 0.203053
v -0.329944 -0.007535 0.067685
v -0.329944 -0.007535 -0.067682
v -0.329944 -0.007535 -0.203050
v -0.329944 -0.007535 -0.338418
v -0.329944 -0.007535 -0.473786
v -0.329944 -0.007535 -0.609154
v -0.329944 -0.007535 -0.744521
vt 0.701642 0.560244
vt 0.706165 0.572015
vt 0.706165 0.572015
vt 0.701642 0.560244
vt 0.687509 0.670006
vt 0.704204 0.670395
vt 0.703032 0.677451
vt 0.687509 0.676328
vt 0.721541 0.671521
vt 0.718746 0.678747
vt 0.715950 0.685973
vt 0.701099 0.683818
vt 0.687509 0.682650
vt 0.705461 0.630194
vt 0.701505 0.634532
vt 0.705698 0.648536
vt 0.710916 0.644245
vt 0.697107 0.633323
vt 0.700017 0.646616
vt 0.701278 0.663137
vt 0.708614 0.658930
vt 0.715950 0.654723
vt 0.709683 0.617163
vt 0.708143 0.624116
vt 0.714316 0.637930
vt 0.716330 0.630741
vt 0.718746 0.647497
vt 0.721541 0.640271
vt 0.687509 0.557851
vt 0.687509 0.565112
vt 0.674099 0.595428
vt 0.676666 0.584394
vt 0.687509 0.572374
vt 0.672267 0.604450
vt 0.656431 0.635943
vt 0.660531 0.626133
vt 0.664631 0.616322
vt 0.687509 0.593866
vt 0.687509 0.597337
vt 0.692980 0.623049
vt 0.687509 0.663309
vt 0.687509 0.659837
vt 0.682038 0.661641
vt 0.687509 0.656366
vt 0.687509 0.651008
vt 0.673515 0.656057
vt 0.677910 0.659654
vt 0.687509 0.600809
vt 0.668833 0.586382
vt 0.673358 0.586551
vt 0.673358 0.586551
vt 0.668833 0.586382
vt 0.687509 0.525179
vt 0.687509 0.525179
vt 0.707682 0.582671
vt 0.705247 0.573164
vt 0.687509 0.531217
vt 0.687509 0.537255
vt 0.687509 0.645650
vt 0.669574 0.651061
vt 0.718430 0.636160
vt 0.702694 0.635777
vt 0.700881 0.627020
vt 0.714409 0.626241
vt 0.687509 0.634874
vt 0.687509 0.627612
vt 0.687509 0.620351
vt 0.698341 0.618842
vt 0.710387 0.616322
vt 0.698037 0.689121
vt 0.687509 0.688433
vt 0.708614 0.690180
vt 0.701278 0.694387
vt 0.694711 0.692940
vt 0.687509 0.694216
vt 0.687509 0.632059
vt 0.680624 0.663223
vt 0.682862 0.652082
vt 0.687509 0.631888
vt 0.673740 0.694387
vt 0.680307 0.658508
vt 0.687509 0.631716
vt 0.710593 0.585850
vt 0.713726 0.595824
vt 0.718430 0.604910
vt 0.714409 0.594991
vt 0.710387 0.585072
vt 0.659068 0.685973
vt 0.673929 0.652588
vt 0.676982 0.657584
vt 0.666404 0.690180
vt 0.687509 0.620150
vt 0.687509 0.625933
vt 0.694394 0.694473
vt 0.692156 0.694183
vt 0.687509 0.694559
vt 0.687509 0.694388
vt 0.664631 0.585072
vt 0.668833 0.586382
vt 0.664631 0.585072
vt 0.710387 0.585072
vt 0.653627 0.671820
vt 0.670868 0.639255
vt 0.672022 0.646274
vt 0.656348 0.678896
vt 0.687509 0.607506
vt 0.687509 0.613828
vt 0.667266 0.603410
vt 0.661197 0.604159
vt 0.659081 0.613688
vt 0.665613 0.612674
vt 0.656431 0.604693
vt 0.654471 0.614429
vt 0.652512 0.624165
vt 0.657906 0.622961
vt 0.664737 0.621844
vt 0.657869 0.631513
vt 0.664679 0.630380
vt 0.653069 0.632367
vt 0.653627 0.640570
vt 0.658778 0.639388
vt 0.665402 0.638132
vt 0.704699 0.662588
vt 0.722023 0.663456
vt 0.687509 0.661874
vt 0.687509 0.653742
vt 0.704657 0.654170
vt 0.722504 0.655391
vt 0.703925 0.645028
vt 0.720467 0.645776
vt 0.687509 0.644308
vt 0.687509 0.546710
vt 0.709356 0.591898
vt 0.687509 0.556165
vt 0.710279 0.600991
vt 0.687509 0.626799
vt 0.687509 0.618665
vt 0.670354 0.631415
vt 0.687509 0.599374
vt 0.653069 0.663617
vt 0.652512 0.655415
vt 0.670360 0.622935
vt 0.687509 0.591242
vt 0.671055 0.613733
vt 0.687509 0.581808
vt 0.654471 0.645679
vt 0.687509 0.634932
vt 0.687509 0.577791
vt 0.687509 0.583150
vt 0.687509 0.572432
vt 0.687509 0.588508
vt 0.687509 0.599755
vt 0.687509 0.593717
vt 0.669721 0.594616
vt 0.687509 0.609210
vt 0.687509 0.587679
vt 0.687509 0.640291
vt 0.666923 0.645045
vt 0.687509 0.564299
vt 0.710384 0.609447
vt 0.715873 0.605300
vt 0.720467 0.614526
vt 0.717109 0.614473
vt 0.722504 0.624141
vt 0.717209 0.622918
vt 0.722023 0.632206
vt 0.659068 0.654723
vt 0.666404 0.658930
vt 0.669322 0.657637
vt 0.664121 0.652747
vt 0.673740 0.663137
vt 0.675001 0.661012
vt 0.656348 0.647647
vt 0.660764 0.646519
vt 0.664631 0.585072
vt 0.660531 0.594883
vt 0.664359 0.594856
vt 0.664631 0.616322
vt 0.676666 0.584394
vt 0.706165 0.572015
vt 0.701642 0.560244
vt 0.698341 0.618842
vt 0.710387 0.616322
vt 0.695664 0.635397
vt 0.694394 0.631973
vt 0.679354 0.662334
vt 0.687509 0.557851
vt 0.687509 0.620351
vt 0.687509 0.587679
vt 0.687509 0.587679
vt 0.673358 0.586551
vt 0.676666 0.584394
vt 0.687509 0.557851
vt 0.664631 0.616322
vt 0.687509 0.525179
vt 0.698341 0.618842
vt 0.710387 0.616322
vt 0.710387 0.585072
vt 0.687509 0.620351
vt 0.701642 0.560244
vt 0.701642 0.560244
vt 0.706165 0.572015
vt 0.706165 0.572015
vt 0.687509 0.670006
vt 0.687509 0.676328
vt 0.703032 0.677451
vt 0.704204 0.670395
vt 0.718746 0.678747
vt 0.721541 0.671521
vt 0.701099 0.683818
vt 0.715950 0.685973
vt 0.687509 0.682650
vt 0.705461 0.630194
vt 0.710916 0.644245
vt 0.705698 0.648536
vt 0.701505 0.634532
vt 0.700017 0.646616
vt 0.697107 0.633323
vt 0.708614 0.658930
vt 0.701278 0.663137
vt 0.715950 0.654723
vt 0.709683 0.617163
vt 0.716330 0.630741
vt 0.714316 0.637930
vt 0.708143 0.624116
vt 0.718746 0.647497
vt 0.721541 0.640271
vt 0.687509 0.557851
vt 0.676666 0.584394
vt 0.674099 0.595428
vt 0.687509 0.565112
vt 0.672267 0.604450
vt 0.687509 0.572374
vt 0.660531 0.626133
vt 0.656431 0.635943
vt 0.664631 0.616322
vt 0.687509 0.593866
vt 0.692980 0.623049
vt 0.687509 0.597337
vt 0.687509 0.663309
vt 0.682038 0.661641
vt 0.687509 0.659837
vt 0.687509 0.656366
vt 0.677910 0.659654
vt 0.673515 0.656057
vt 0.687509 0.651008
vt 0.687509 0.600809
vt 0.668833 0.586382
vt 0.668833 0.586382
vt 0.673358 0.586551
vt 0.673358 0.586551
vt 0.687509 0.525179
vt 0.687509 0.525179
vt 0.707682 0.582671
vt 0.687509 0.537255
vt 0.687509 0.531217
vt 0.705247 0.573164
vt 0.669574 0.651061
vt 0.687509 0.645650
vt 0.718430 0.636160
vt 0.714409 0.626241
vt 0.700881 0.627020
vt 0.702694 0.635777
vt 0.687509 0.627612
vt 0.687509 0.634874
vt 0.698341 0.618842
vt 0.687509 0.620351
vt 0.710387 0.616322
vt 0.687509 0.688433
vt 0.698037 0.689121
vt 0.708614 0.690180
vt 0.694711 0.692940
vt 0.701278 0.694387
vt 0.687509 0.694216
vt 0.687509 0.632059
vt 0.687509 0.631888
vt 0.682862 0.652082
vt 0.680624 0.663223
vt 0.673740 0.694387
vt 0.680307 0.658508
vt 0.687509 0.631716
vt 0.710593 0.585850
vt 0.713726 0.595824
vt 0.714409 0.594991
vt 0.718430 0.604910
vt 0.710387 0.585072
vt 0.659068 0.685973
vt 0.666404 0.690180
vt 0.676982 0.657584
vt 0.673929 0.652588
vt 0.687509 0.625933
vt 0.687509 0.620150
vt 0.692156 0.694183
vt 0.694394 0.694473
vt 0.687509 0.694559
vt 0.687509 0.694388
vt 0.664631 0.585072
vt 0.710387 0.585072
vt 0.653627 0.671820
vt 0.656348 0.678896
vt 0.672022 0.646274
vt 0.670868 0.639255
vt 0.687509 0.613828
vt 0.687509 0.607506
vt 0.667266 0.603410
vt 0.665613 0.612674
vt 0.659081 0.613688
vt 0.661197 0.604159
vt 0.654471 0.614429
vt 0.656431 0.604693
vt 0.657906 0.622961
vt 0.652512 0.624165
vt 0.664737 0.621844
vt 0.664679 0.630380
vt 0.657869 0.631513
vt 0.653069 0.632367
vt 0.658778 0.639388
vt 0.653627 0.640570
vt 0.665402 0.638132
vt 0.722023 0.663456
vt 0.704699 0.662588
vt 0.687509 0.661874
vt 0.704657 0.654170
vt 0.687509 0.653742
vt 0.722504 0.655391
vt 0.720467 0.645776
vt 0.703925 0.645028
vt 0.687509 0.644308
vt 0.709356 0.591898
vt 0.687509 0.546710
vt 0.710279 0.600991
vt 0.687509 0.556165
vt 0.687509 0.618665
vt 0.687509 0.626799
vt 0.687509 0.599374
vt 0.670354 0.631415
vt 0.653069 0.663617
vt 0.670360 0.622935
vt 0.652512 0.655415
vt 0.687509 0.591242
vt 0.687509 0.581808
vt 0.671055 0.613733
vt 0.654471 0.645679
vt 0.687509 0.634932
vt 0.687509 0.583150
vt 0.687509 0.577791
vt 0.687509 0.572432
vt 0.687509 0.588508
vt 0.687509 0.599755
vt 0.669721 0.594616
vt 0.687509 0.593717
vt 0.687509 0.609210
vt 0.687509 0.587679
vt 0.666923 0.645045
vt 0.687509 0.640291
vt 0.710384 0.609447
vt 0.687509 0.564299
vt 0.720467 0.614526
vt 0.715873 0.605300
vt 0.717109 0.614473
vt 0.722504 0.624141
vt 0.722023 0.632206
vt 0.717209 0.622918
vt 0.659068 0.654723
vt 0.664121 0.652747
vt 0.669322 0.657637
vt 0.666404 0.658930
vt 0.675001 0.661012
vt 0.673740 0.663137
vt 0.660764 0.646519
vt 0.656348 0.647647
vt 0.664631 0.585072
vt 0.664359 0.594856
vt 0.660531 0.594883
vt 0.676666 0.584394
vt 0.664631 0.616322
vt 0.710387 0.616322
vt 0.698341 0.618842
vt 0.694394 0.631973
vt 0.695664 0.635397
vt 0.679354 0.662334
vt 0.687509 0.557851
vt 0.687509 0.620351
vt 0.687509 0.587679
vt 0.150994 0.641420
vt 0.150994 0.642837
vt 0.145364 0.642837
vt 0.145364 0.641420
vt 0.150994 0.643425
vt 0.145364 0.643425
vt 0.150994 0.642837
vt 0.145364 0.642837
vt 0.150994 0.641420
vt 0.145364 0.641420
vt 0.150994 0.640003
vt 0.145364 0.640003
vt 0.150994 0.639416
vt 0.145364 0.639416
vt 0.150994 0.640003
vt 0.145364 0.640003
vt 0.218554 0.640003
vt 0.218554 0.641420
vt 0.212924 0.641420
vt 0.212924 0.640003
vt 0.207294 0.641420
vt 0.207294 0.640003
vt 0.201664 0.641420
vt 0.201664 0.640003
vt 0.196034 0.641420
vt 0.196034 0.640003
vt 0.190404 0.641420
vt 0.190404 0.640003
vt 0.184774 0.641420
vt 0.184774 0.640003
vt 0.179144 0.641420
vt 0.179144 0.640003
vt 0.173514 0.641420
vt 0.173514 0.640003
vt 0.167884 0.641420
vt 0.167884 0.640003
vt 0.162254 0.641420
vt 0.162254 0.640003
vt 0.156624 0.641420
vt 0.156624 0.640003
vt 0.218554 0.639416
vt 0.212924 0.639416
vt 0.207294 0.639416
vt 0.201664 0.639416
vt 0.196034 0.639416
vt 0.190404 0.639416
vt 0.184774 0.639416
vt 0.179144 0.639416
vt 0.173514 0.639416
vt 0.167884 0.639416
vt 0.162254 0.639416
vt 0.156624 0.639416
vt 0.218554 0.640003
vt 0.212924 0.640003
vt 0.207294 0.640003
vt 0.201664 0.640003
vt 0.196034 0.640003
vt 0.190404 0.640003
vt 0.184774 0.640003
vt 0.179144 0.640003
vt 0.173514 0.640003
vt 0.167884 0.640003
vt 0.162254 0.640003
vt 0.156624 0.640003
vt 0.218554 0.641420
vt 0.212924 0.641420
vt 0.207294 0.641420
vt 0.201664 0.641420
vt 0.196034 0.641420
vt 0.190404 0.641420
vt 0.184774 0.641420
vt 0.179144 0.641420
vt 0.173514 0.641420
vt 0.167884 0.641420
vt 0.162254 0.641420
vt 0.156624 0.641420
vt 0.218554 0.642837
vt 0.212924 0.642837
vt 0.207294 0.642837
vt 0.201664 0.642837
vt 0.196034 0.642837
vt 0.190404 0.642837
vt 0.184774 0.642837
vt 0.179144 0.642837
vt 0.173514 0.642837
vt 0.167884 0.642837
vt 0.162254 0.642837
vt 0.156624 0.642837
vt 0.218554 0.643425
vt 0.212924 0.643425
vt 0.207294 0.643425
vt 0.201664 0.643425
vt 0.196034 0.643425
vt 0.190404 0.643425
vt 0.184774 0.643425
vt 0.179144 0.643425
vt 0.173514 0.643425
vt 0.167884 0.643425
vt 0.162254 0.643425
vt 0.156624 0.643425
vt 0.218554 0.642837
vt 0.212924 0.642837
vt 0.207294 0.642837
vt 0.201664 0.642837
vt 0.196034 0.642837
vt 0.190404 0.642837
vt 0.184774 0.642837
vt 0.179144 0.642837
vt 0.173514 0.642837
vt 0.167884 0.642837
vt 0.162254 0.642837
vt 0.156624 0.642837
vn -0.3829 -0.9213 0.0677
vn -0.3872 -0.9192 0.0721
vn -0.3190 -0.9470 0.0390
vn -0.3672 -0.9276 0.0689
vn 0.7352 0.0514 -0.6759
vn 0.7352 -0.0537 -0.6757
vn 0.6240 -0.0595 -0.7791
vn 0.6283 0.0472 -0.7765
vn 0.6166 -0.5167 -0.5940
vn 0.5116 -0.5126 -0.6895
vn 0.4818 -0.5249 -0.7016
vn 0.6098 -0.0739 -0.7891
vn 0.6204 0.0422 -0.7832
vn -0.1791 -0.9831 0.0378
vn -0.1888 -0.9807 -0.0499
vn 0.0640 -0.9584 -0.2782
vn 0.0676 -0.9666 -0.2471
vn -0.2202 -0.9690 -0.1119
vn 0.0564 -0.9515 -0.3026
vn 0.5441 -0.5777 -0.6085
vn 0.5099 -0.5505 -0.6610
vn -0.2234 -0.9630 0.1510
vn -0.1897 -0.9743 0.1214
vn -0.1969 -0.9709 0.1363
vn -0.2326 -0.9613 0.1479
vn 0.3314 -0.7892 -0.5170
vn 0.3948 -0.8094 -0.4347
vn 0.7669 0.0097 0.6417
vn 0.7385 -0.0749 0.6701
vn 0.7174 0.0016 0.6967
vn 0.7453 0.0848 0.6613
vn 0.8351 -0.0939 0.5420
vn 0.8259 -0.0259 0.5632
vn 0.7011 0.4408 0.5605
vn 0.5671 0.4148 0.7116
vn 0.5563 0.5176 0.6501
vn -0.8332 -0.1769 0.5239
vn -0.8909 -0.2010 0.4073
vn -0.8907 -0.2009 0.4077
vn -0.8307 -0.1762 0.5282
vn -0.9015 0.2132 0.3766
vn -0.8906 0.2024 0.4074
vn -0.8904 0.2022 0.4078
vn -0.8325 0.1795 0.5241
vn -0.7221 0.1412 0.6772
vn -0.7144 0.1381 0.6860
vn -0.8299 0.1788 0.5285
vn -0.9017 -0.2122 0.3767
vn -0.3904 0.9177 0.0732
vn -0.3865 0.9197 0.0689
vn -0.3674 0.9275 0.0684
vn -0.3201 0.9466 0.0387
vn -0.7904 -0.0104 -0.6124
vn -0.8109 -0.1005 -0.5765
vn -0.9551 0.0920 -0.2818
vn -0.9346 -0.0085 -0.3555
vn -0.8831 -0.1806 -0.4331
vn -0.7814 -0.1687 -0.6008
vn -0.7951 -0.1676 -0.5828
vn -0.8879 -0.1837 -0.4218
vn -0.6222 0.0914 0.7775
vn -0.6178 0.0883 0.7814
vn 0.8073 -0.0074 0.5901
vn 0.8238 0.0625 0.5634
vn 0.7100 0.0304 0.7035
vn 0.5629 -0.3921 0.7276
vn 0.8312 0.1313 0.5402
vn 0.7326 0.1062 0.6723
vn 0.7427 -0.0643 0.6665
vn 0.5564 -0.5048 0.6600
vn 0.6664 -0.0979 -0.7391
vn 0.6822 0.0312 -0.7305
vn 0.7251 -0.1284 -0.6766
vn 0.7478 0.0091 -0.6638
vn 0.7680 0.1740 -0.6163
vn 0.5180 0.6432 -0.5639
vn 0.7544 0.1528 -0.6384
vn 0.7710 0.1370 -0.6219
vn 0.5443 0.5763 -0.6096
vn 0.7250 0.1265 -0.6771
vn 0.7477 -0.0106 -0.6640
vn -0.3154 -0.9488 0.0163
vn -0.3126 -0.9498 0.0145
vn -0.2508 -0.9678 -0.0221
vn -0.2485 -0.9684 -0.0234
vn 0.3617 -0.6686 0.6497
vn 0.4728 -0.7454 0.4699
vn 0.4817 -0.7547 0.4455
vn 0.3678 -0.7100 0.6006
vn 0.4811 0.5193 -0.7063
vn 0.6082 0.0654 -0.7911
vn 0.6656 0.0937 -0.7404
vn 0.5096 0.5476 -0.6636
vn 0.6191 -0.0507 -0.7836
vn 0.6816 -0.0351 -0.7309
vn 0.5178 -0.6436 -0.5636
vn 0.7543 -0.1538 -0.6382
vn 0.7680 -0.1745 -0.6163
vn 0.7710 -0.1375 -0.6218
vn 0.6558 0.6732 0.3418
vn 0.4655 0.8185 0.3367
vn 0.5114 0.8593 -0.0000
vn 0.6662 0.7457 -0.0000
vn 0.6625 -0.6655 0.3438
vn 0.4724 -0.8134 0.3395
vn 0.6208 0.5081 -0.5970
vn 0.7362 0.0386 -0.6757
vn 0.6229 0.0458 -0.7809
vn 0.5126 0.5043 -0.6949
vn 0.7349 -0.0672 -0.6749
vn 0.6269 -0.0611 -0.7767
vn -0.2578 0.9659 -0.0241
vn -0.2554 0.9665 -0.0256
vn -0.2388 0.9709 -0.0206
vn -0.2385 0.9709 -0.0222
vn 0.4680 0.7545 0.4602
vn 0.5248 0.8204 0.2269
vn 0.5189 0.8134 0.2630
vn 0.5340 0.8448 -0.0339
vn 0.5339 0.8448 -0.0356
vn -0.2509 0.9676 0.0287
vn -0.2533 0.9667 0.0375
vn -0.2562 0.9616 0.0986
vn -0.2527 0.9610 0.1123
vn 0.4884 0.8326 -0.2612
vn 0.4803 0.8305 -0.2820
vn 0.3975 0.8066 -0.4374
vn -0.2295 0.9625 0.1447
vn -0.2202 0.9642 0.1480
vn 0.8883 -0.0378 -0.4578
vn 0.8806 -0.1421 -0.4520
vn 0.8853 0.0672 -0.4601
vn 0.9895 0.1080 -0.0962
vn 0.9955 0.0105 -0.0938
vn 0.9938 -0.0808 -0.0761
vn 0.9441 0.0646 0.3234
vn 0.9370 -0.0079 0.3492
vn 0.9376 0.1433 0.3168
vn -0.9494 -0.1919 -0.2488
vn -0.9446 -0.1932 -0.2654
vn -0.9875 -0.1266 0.0935
vn -0.9893 -0.1384 0.0454
vn -0.9907 0.1309 0.0383
vn -0.8984 0.0579 0.4353
vn -0.8865 0.0544 0.4595
vn -0.9891 0.1221 0.0825
vn 0.8905 0.0291 -0.4541
vn 0.8862 -0.0766 -0.4570
vn 0.8841 0.1339 -0.4477
vn 0.9939 0.0886 -0.0650
vn 0.9964 -0.0034 -0.0850
vn 0.9909 -0.1006 -0.0895
vn 0.9425 -0.0379 0.3319
vn 0.9392 -0.1151 0.3235
vn 0.9326 0.0347 0.3591
vn -0.7308 0.0359 0.6817
vn -0.7261 0.0361 0.6866
vn -0.6201 -0.0802 0.7804
vn -0.6193 -0.0400 0.7841
vn -0.6178 -0.0408 0.7853
vn -0.6242 -0.0834 0.7768
vn -0.7307 -0.0220 0.6823
vn -0.7260 -0.0222 0.6874
vn -0.7160 -0.1335 0.6852
vn -0.7234 -0.1366 0.6768
vn -0.8928 0.1533 -0.4235
vn -0.8039 0.1390 -0.5783
vn -0.7901 0.1409 -0.5965
vn -0.8885 0.1501 -0.4336
vn -0.9467 0.1706 -0.2732
vn -0.9509 0.1704 -0.2585
vn -0.8146 0.0804 -0.5744
vn -0.6160 0.0530 0.7860
vn -0.6176 0.0523 0.7847
vn -0.8844 -0.0453 0.4645
vn -0.8972 -0.0499 0.4388
vn 0.5268 -0.8098 0.2581
vn 0.5321 -0.8172 0.2216
vn -0.2349 -0.9719 -0.0166
vn -0.2353 -0.9718 -0.0153
vn -0.2527 -0.9666 0.0435
vn -0.2498 -0.9677 0.0338
vn 0.5355 -0.8434 -0.0443
vn 0.5358 -0.8433 -0.0415
vn 0.4773 -0.8315 -0.2844
vn 0.4856 -0.8333 -0.2641
vn -0.2544 -0.9600 0.1167
vn -0.2575 -0.9608 0.1027
vn 0.0645 0.9581 -0.2792
vn 0.0687 0.9660 -0.2493
vn 0.0567 0.9513 -0.3030
vn -0.2200 0.9691 -0.1118
vn -0.1882 0.9809 -0.0499
vn -0.1774 0.9834 0.0376
vn 0.3321 0.7857 -0.5218
vn -0.1937 0.9718 0.1347
vn -0.1866 0.9751 0.1203
vn 0.3655 0.6828 0.6326
vn 0.3665 0.7184 0.5912
vn -0.3209 0.9470 0.0164
vn -0.3228 0.9463 0.0176
vn 0.8931 0.2548 0.3707
vn -0.2657 -0.9640 0.0000
vn 0.8963 -0.2426 0.3712
vn 0.0482 -0.9485 -0.3132
vn 0.0223 -0.9569 -0.2894
vn 0.0786 -0.9440 -0.3205
vn 0.0483 0.9484 -0.3135
vn 0.0788 0.9439 -0.3206
vn 0.0226 0.9569 -0.2896
vn 0.9317 0.0065 0.3632
vn -0.9530 -0.1089 -0.2826
vn -1.0000 -0.0091 0.0000
vn -0.9810 -0.1940 0.0000
vn 0.9345 0.3560 -0.0000
vn 1.0000 0.0062 -0.0000
vn -0.9843 0.1765 0.0000
vn 0.9387 -0.3448 -0.0000
vn 0.6736 -0.7391 -0.0000
vn -0.2671 0.9637 0.0000
vn 0.5190 -0.8548 -0.0000
vn -0.3829 -0.9213 -0.0677
vn -0.3672 -0.9276 -0.0689
vn -0.3190 -0.9470 -0.0390
vn -0.3872 -0.9192 -0.0721
vn 0.7352 0.0514 0.6759
vn 0.6283 0.0472 0.7765
vn 0.6240 -0.0595 0.7791
vn 0.7352 -0.0537 0.6757
vn 0.5116 -0.5126 0.6895
vn 0.6166 -0.5167 0.5940
vn 0.6098 -0.0739 0.7891
vn 0.4818 -0.5249 0.7016
vn 0.6204 0.0422 0.7832
vn -0.1791 -0.9831 -0.0378
vn 0.0676 -0.9666 0.2471
vn 0.0640 -0.9584 0.2782
vn -0.1888 -0.9807 0.0499
vn 0.0564 -0.9515 0.3026
vn -0.2202 -0.9690 0.1119
vn 0.5099 -0.5505 0.6610
vn 0.5441 -0.5777 0.6085
vn -0.2234 -0.9630 -0.1510
vn -0.2326 -0.9613 -0.1479
vn -0.1969 -0.9709 -0.1363
vn -0.1897 -0.9743 -0.1214
vn 0.3314 -0.7892 0.5170
vn 0.3948 -0.8094 0.4347
vn 0.7669 0.0097 -0.6417
vn 0.7453 0.0848 -0.6613
vn 0.7174 0.0016 -0.6967
vn 0.7385 -0.0749 -0.6701
vn 0.8259 -0.0259 -0.5632
vn 0.8351 -0.0939 -0.5420
vn 0.5671 0.4148 -0.7116
vn 0.7011 0.4408 -0.5605
vn 0.5563 0.5176 -0.6501
vn -0.8332 -0.1769 -0.5239
vn -0.8307 -0.1762 -0.5282
vn -0.8907 -0.2009 -0.4077
vn -0.8909 -0.2010 -0.4073
vn -0.9015 0.2132 -0.3766
vn -0.8904 0.2022 -0.4078
vn -0.8906 0.2024 -0.4074
vn -0.8325 0.1795 -0.5241
vn -0.8299 0.1788 -0.5285
vn -0.7144 0.1381 -0.6860
vn -0.7221 0.1412 -0.6772
vn -0.9017 -0.2122 -0.3767
vn -0.3904 0.9177 -0.0732
vn -0.3201 0.9466 -0.0387
vn -0.3674 0.9275 -0.0684
vn -0.3865 0.9197 -0.0689
vn -0.7904 -0.0104 0.6124
vn -0.9346 -0.0085 0.3555
vn -0.9551 0.0920 0.2818
vn -0.8109 -0.1005 0.5765
vn -0.8831 -0.1806 0.4331
vn -0.8879 -0.1837 0.4218
vn -0.7951 -0.1676 0.5828
vn -0.7814 -0.1687 0.6008
vn -0.6178 0.0883 -0.7814
vn -0.6222 0.0914 -0.7775
vn 0.8073 -0.0074 -0.5901
vn 0.5629 -0.3921 -0.7276
vn 0.7100 0.0304 -0.7035
vn 0.8238 0.0625 -0.5634
vn 0.7326 0.1062 -0.6723
vn 0.8312 0.1313 -0.5402
vn 0.7427 -0.0643 -0.6665
vn 0.5564 -0.5048 -0.6600
vn 0.6822 0.0312 0.7305
vn 0.6664 -0.0979 0.7391
vn 0.7251 -0.1284 0.6766
vn 0.7478 0.0091 0.6638
vn 0.7680 0.1740 0.6163
vn 0.7710 0.1370 0.6219
vn 0.7544 0.1528 0.6384
vn 0.5180 0.6432 0.5639
vn 0.5443 0.5763 0.6096
vn 0.7250 0.1265 0.6771
vn 0.7477 -0.0106 0.6640
vn -0.3126 -0.9498 -0.0145
vn -0.3154 -0.9488 -0.0163
vn -0.2485 -0.9684 0.0234
vn -0.2508 -0.9678 0.0221
vn 0.3617 -0.6686 -0.6497
vn 0.4817 -0.7547 -0.4455
vn 0.4728 -0.7454 -0.4699
vn 0.3678 -0.7100 -0.6006
vn 0.4811 0.5193 0.7063
vn 0.5096 0.5476 0.6636
vn 0.6656 0.0937 0.7404
vn 0.6082 0.0654 0.7911
vn 0.6816 -0.0351 0.7309
vn 0.6191 -0.0507 0.7836
vn 0.7543 -0.1538 0.6382
vn 0.5178 -0.6436 0.5636
vn 0.7680 -0.1745 0.6163
vn 0.7710 -0.1375 0.6218
vn 0.6558 0.6732 -0.3418
vn 0.4655 0.8185 -0.3367
vn 0.4724 -0.8134 -0.3395
vn 0.6625 -0.6655 -0.3438
vn 0.6208 0.5081 0.5970
vn 0.5126 0.5043 0.6949
vn 0.6229 0.0458 0.7809
vn 0.7362 0.0386 0.6757
vn 0.6269 -0.0611 0.7767
vn 0.7349 -0.0672 0.6749
vn -0.2578 0.9659 0.0241
vn -0.2385 0.9709 0.0222
vn -0.2388 0.9709 0.0206
vn -0.2554 0.9665 0.0256
vn 0.4680 0.7545 -0.4602
vn 0.5189 0.8134 -0.2630
vn 0.5248 0.8204 -0.2269
vn 0.5339 0.8448 0.0356
vn 0.5340 0.8448 0.0339
vn -0.2533 0.9667 -0.0375
vn -0.2509 0.9676 -0.0287
vn -0.2527 0.9610 -0.1123
vn -0.2562 0.9616 -0.0986
vn 0.4803 0.8305 0.2820
vn 0.4884 0.8326 0.2612
vn 0.3975 0.8066 0.4374
vn -0.2202 0.9642 -0.1480
vn -0.2295 0.9625 -0.1447
vn 0.8806 -0.1421 0.4520
vn 0.8883 -0.0378 0.4578
vn 0.8853 0.0672 0.4601
vn 0.9955 0.0105 0.0938
vn 0.9895 0.1080 0.0962
vn 0.9938 -0.0808 0.0761
vn 0.9370 -0.0079 -0.3492
vn 0.9441 0.0646 -0.3234
vn 0.9376 0.1433 -0.3168
vn -0.9446 -0.1932 0.2654
vn -0.9494 -0.1919 0.2488
vn -0.9893 -0.1384 -0.0454
vn -0.9875 -0.1266 -0.0935
vn -0.9907 0.1309 -0.0383
vn -0.9891 0.1221 -0.0825
vn -0.8865 0.0544 -0.4595
vn -0.8984 0.0579 -0.4353
vn 0.8862 -0.0766 0.4570
vn 0.8905 0.0291 0.4541
vn 0.8841 0.1339 0.4477
vn 0.9964 -0.0034 0.0850
vn 0.9939 0.0886 0.0650
vn 0.9909 -0.1006 0.0895
vn 0.9392 -0.1151 -0.3235
vn 0.9425 -0.0379 -0.3319
vn 0.9326 0.0347 -0.3591
vn -0.7261 0.0361 -0.6866
vn -0.7308 0.0359 -0.6817
vn -0.6201 -0.0802 -0.7804
vn -0.6242 -0.0834 -0.7768
vn -0.6178 -0.0408 -0.7852
vn -0.6193 -0.0400 -0.7841
vn -0.7260 -0.0222 -0.6874
vn -0.7307 -0.0220 -0.6823
vn -0.7234 -0.1366 -0.6768
vn -0.7160 -0.1335 -0.6852
vn -0.8928 0.1533 0.4235
vn -0.8885 0.1501 0.4336
vn -0.7901 0.1409 0.5965
vn -0.8039 0.1390 0.5783
vn -0.9509 0.1704 0.2585
vn -0.9467 0.1706 0.2732
vn -0.8146 0.0804 0.5744
vn -0.6176 0.0523 -0.7847
vn -0.6160 0.0530 -0.7860
vn -0.8972 -0.0499 -0.4388
vn -0.8844 -0.0453 -0.4645
vn 0.5321 -0.8172 -0.2216
vn 0.5268 -0.8098 -0.2581
vn -0.2353 -0.9718 0.0153
vn -0.2349 -0.9719 0.0166
vn -0.2498 -0.9677 -0.0338
vn -0.2527 -0.9666 -0.0435
vn 0.5358 -0.8433 0.0415
vn 0.5355 -0.8434 0.0443
vn 0.4856 -0.8333 0.2641
vn 0.4773 -0.8315 0.2844
vn -0.2575 -0.9608 -0.1027
vn -0.2544 -0.9600 -0.1167
vn 0.0687 0.9660 0.2493
vn 0.0645 0.9581 0.2792
vn 0.0567 0.9513 0.3030
vn -0.1882 0.9809 0.0499
vn -0.2200 0.9691 0.1118
vn -0.1774 0.9834 -0.0376
vn 0.3321 0.7857 0.5218
vn -0.1937 0.9718 -0.1347
vn -0.1866 0.9751 -0.1203
vn 0.3665 0.7184 -0.5912
vn 0.3655 0.6828 -0.6326
vn -0.3209 0.9470 -0.0164
vn -0.3228 0.9463 -0.0176
vn 0.8931 0.2548 -0.3707
vn 0.8963 -0.2426 -0.3712
vn 0.0482 -0.9485 0.3132
vn 0.0223 -0.9569 0.2894
vn 0.0786 -0.9440 0.3205
vn 0.0483 0.9484 0.3135
vn 0.0788 0.9439 0.3206
vn 0.0226 0.9569 0.2896
vn 0.9317 0.0065 -0.3632
vn -0.9530 -0.1089 0.2826
vn 0.3827 -0.9239 -0.0000
vn 0.9239 -0.3827 -0.0000
vn 1.0000 -0.0000 0.0000
vn 1.0000 0.0001 0.0000
vn 0.9239 0.3827 0.0000
vn 0.3827 0.9239 0.0000
vn -0.0000 1.0000 0.0000
vn -0.3827 0.9239 0.0000
vn -0.9239 0.3827 0.0000
vn -1.0000 0.0000 -0.0000
vn -1.0000 0.0001 -0.0000
vn -0.9239 -0.3827 -0.0000
vn -0.3827 -0.9239 -0.0000
vn -0.0000 -1.0000 -0.0000
vn 0.7071 0.7071 0.0000
usemtl plantcreatures
s 1
f 27/1/1 39/2/2 125/3/3 127/4/4
f 24/5/5 62/6/6 99/7/7 78/8/8
f 62/6/6 22/9/9 80/10/10 99/7/7
f 99/7/7 80/10/10 9/11/11 46/12/12
f 78/8/8 99/7/7 46/12/12 10/13/13
f 31/14/14 88/15/15 100/16/16 82/17/17
f 88/15/15 30/18/18 81/19/19 100/16/16
f 100/16/16 81/19/19 12/20/20 43/21/21
f 82/17/17 100/16/16 43/21/21 9/22/11
f 29/23/22 87/24/23 101/25/24 69/26/25
f 87/24/23 31/14/14 82/17/17 101/25/24
f 101/25/26 82/17/17 9/22/11 80/27/10
f 69/26/27 101/25/26 80/27/10 22/28/9
f 8/29/28 77/30/29 102/31/30 54/32/31
f 77/30/29 25/33/32 72/34/33 102/31/30
f 102/31/30 72/34/33 15/35/34 73/36/35
f 54/32/31 102/31/30 73/36/35 2/37/36
f 5/38/37 42/39/38 97/40/39 30/18/40
f 1/41/41 42/42/42 98/43/43
f 5/44/44 41/45/45 92/46/46 34/47/47
f 1/48/48 97/40/39 42/39/38
f 89/49/49 36/50/50 126/51/51 131/52/52
f 7/53/53 27/1/54 127/4/55 129/54/56
f 32/55/57 86/56/58 74/57/59 19/58/60
f 92/46/46 41/45/45 6/59/61 33/60/62
f 21/61/63 67/62/64 103/63/65 79/64/66
f 67/62/64 25/65/67 77/66/68 103/63/65
f 103/63/65 77/66/68 8/67/28 52/68/69
f 79/64/66 103/63/65 52/68/69 4/69/70
f 10/13/13 46/12/12 104/70/71 47/71/72
f 46/12/12 9/11/11 43/72/21 104/70/71
f 104/70/71 43/72/21 12/73/20 45/74/73
f 47/71/72 104/70/71 45/74/73 13/75/74
f 1/76/75 51/77/76 105/78/77 55/79/78
f 11/80/79 44/81/80 105/78/77 51/77/76
f 13/82/81 55/79/78 105/78/77 44/81/80
f 27/1/1 86/56/82 106/83/83 39/2/2
f 86/56/82 32/55/84 83/84/85 106/83/83
f 106/83/86 83/84/87 21/85/88 79/86/66
f 39/2/89 106/83/86 79/86/66 4/87/70
f 3/88/90 53/89/91 107/90/92 48/91/93
f 53/89/91 10/92/94 47/93/95 107/90/92
f 107/90/92 47/93/95 13/82/81 44/81/80
f 48/91/93 107/90/92 44/81/80 11/80/79
f 12/73/20 50/94/96 108/95/97 45/74/73
f 1/96/98 55/97/99 108/95/97 50/94/96
f 13/75/74 45/74/73 108/95/97 55/97/99
f 14/98/100 131/52/101 141/99/102 132/100/103
f 39/2/89 4/87/70 130/101/104 125/3/105
f 16/102/106 70/103/107 109/104/108 75/105/109
f 70/103/107 24/106/110 78/107/111 109/104/108
f 109/104/108 78/107/111 10/92/94 53/89/91
f 75/105/109 109/104/108 53/89/91 3/88/90
f 35/108/112 57/109/113 110/110/114 96/111/115
f 57/109/116 15/112/34 58/113/117 110/110/118
f 110/110/118 58/113/117 17/114/119 90/115/120
f 96/111/115 110/110/114 90/115/121 37/116/122
f 37/116/122 90/115/121 111/117/123 95/118/124
f 90/115/120 17/114/119 60/119/125 111/117/126
f 111/117/126 60/119/125 16/120/106 91/121/127
f 95/118/124 111/117/123 91/121/128 38/122/129
f 22/9/9 62/6/6 112/123/130 61/124/131
f 62/6/6 24/5/5 63/125/132 112/123/130
f 112/123/130 63/125/132 26/126/133 64/127/134
f 61/124/131 112/123/130 64/127/134 23/128/135
f 23/128/135 64/127/134 113/129/136 65/130/137
f 64/127/134 26/126/133 66/131/138 113/129/136
f 113/129/136 66/131/138 25/65/67 67/62/64
f 65/130/137 113/129/136 67/62/64 21/61/63
f 74/57/59 86/56/58 27/1/54 7/53/53
f 32/55/57 19/58/60 56/132/139 84/133/140
f 84/133/140 56/132/139 20/134/141 28/135/142
f 37/116/143 95/118/144 59/136/145 20/137/146
f 24/106/110 70/103/107 114/138/147 63/139/148
f 70/103/107 16/102/106 60/140/149 114/138/147
f 114/138/147 60/140/149 17/141/150 71/142/151
f 63/139/148 114/138/147 71/142/151 26/143/152
f 26/143/152 71/142/151 115/144/153 66/145/154
f 71/142/151 17/141/150 58/146/155 115/144/153
f 115/144/153 58/146/155 15/35/34 72/34/33
f 66/145/154 115/144/153 72/34/33 25/33/32
f 59/136/145 95/118/144 38/122/156 18/147/157
f 31/14/158 87/24/159 76/148/160 6/149/161
f 76/148/160 87/24/159 29/23/162 18/150/163
f 30/18/40 88/15/164 41/151/165 5/38/37
f 41/151/165 88/15/164 31/14/158 6/149/161
f 19/152/166 74/153/167 94/154/168 35/108/169
f 19/152/166 35/108/169 96/111/170 56/155/171
f 94/154/168 74/153/167 7/156/53 36/50/172
f 56/155/171 96/111/170 37/116/143 20/137/146
f 6/59/61 76/157/173 93/158/174 33/60/62
f 20/134/141 59/159/175 85/160/176 28/135/142
f 93/158/174 76/157/173 18/147/157 38/122/156
f 21/85/88 83/84/87 116/161/177 65/162/178
f 83/84/85 32/55/84 84/133/179 116/161/180
f 116/161/180 84/133/179 28/135/181 68/163/182
f 65/162/178 116/161/177 68/163/183 23/164/184
f 23/164/184 68/163/183 117/165/185 61/166/186
f 68/163/182 28/135/181 85/160/187 117/165/188
f 117/165/188 85/160/187 29/23/22 69/26/25
f 61/166/186 117/165/185 69/26/27 22/28/9
f 3/167/90 48/168/93 118/169/189 40/170/190
f 48/168/93 11/171/79 49/172/191 118/169/189
f 118/169/189 49/172/191 34/47/192 92/46/193
f 40/170/190 118/169/189 92/46/193 33/60/194
f 16/120/106 75/173/109 119/174/195 91/121/127
f 75/173/109 3/167/90 40/170/190 119/174/195
f 119/174/196 40/170/190 33/60/194 93/158/197
f 91/121/128 119/174/196 93/158/197 38/122/129
f 2/175/36 73/176/35 120/177/198 89/49/199
f 73/176/35 15/112/34 57/109/116 120/177/198
f 120/177/200 57/109/113 35/108/112 94/154/201
f 89/49/49 120/177/200 94/154/201 36/50/50
f 54/32/31 2/37/36 14/178/100 123/179/202
f 2/175/36 89/49/199 131/52/101 14/98/100
f 127/4/4 125/3/3 135/180/203 137/181/203
f 4/69/70 52/68/69 124/182/204 130/183/104
f 12/20/20 81/19/19 121/184/205 50/185/96
f 30/18/18 97/40/206 121/184/205 81/19/19
f 1/48/207 50/185/96 121/184/205 97/40/206
f 11/171/79 51/77/76 122/186/208 49/172/191
f 1/41/209 98/43/210 122/186/208 51/77/76
f 34/47/192 49/172/191 122/186/208 98/43/210
f 85/160/176 59/159/175 18/150/163 29/23/162
f 8/29/28 54/32/31 123/179/202 128/187/211
f 34/47/47 98/43/43 42/42/42 5/44/44
f 52/68/69 8/67/28 128/188/211 124/182/204
f 36/50/172 7/156/53 129/189/56 126/51/212
f 126/51/212 129/189/56 139/190/213 136/191/214
f 128/187/211 123/179/202 133/192/215 138/193/216
f 123/179/202 14/178/100 132/194/103 133/192/215
f 129/54/56 127/4/55 137/181/217 139/195/213
f 130/183/104 124/182/204 134/196/218 140/197/219
f 131/52/52 126/51/51 136/191/220 141/99/220
f 125/3/105 130/101/104 140/198/219 135/180/221
f 124/182/204 128/188/211 138/199/216 134/196/218
f 168/200/222 268/201/223 266/202/224 180/203/225
f 165/204/226 219/205/227 240/206/228 203/207/229
f 203/207/229 240/206/228 221/208/230 163/209/231
f 240/206/228 187/210/232 150/211/233 221/208/230
f 219/205/227 151/212/234 187/210/232 240/206/228
f 172/213/235 223/214/236 241/215/237 229/216/238
f 229/216/238 241/215/237 222/217/239 171/218/240
f 241/215/237 184/219/241 153/220/242 222/217/239
f 223/214/236 150/221/233 184/219/241 241/215/237
f 170/222/243 210/223/244 242/224/245 228/225/246
f 228/225/246 242/224/245 223/214/236 172/213/235
f 242/224/247 221/226/230 150/221/233 223/214/236
f 210/223/248 163/227/231 221/226/230 242/224/247
f 149/228/249 195/229/250 243/230/251 218/231/252
f 218/231/252 243/230/251 213/232/253 166/233/254
f 243/230/251 214/234/255 156/235/256 213/232/253
f 195/229/250 143/236/257 214/234/255 243/230/251
f 146/237/258 171/218/259 238/238/260 183/239/261
f 142/240/262 239/241/263 183/242/264
f 146/243/265 175/244/266 233/245/267 182/246/268
f 142/247/269 183/239/261 238/238/260
f 230/248/270 272/249/271 267/250/272 177/251/273
f 148/252/274 270/253/275 268/201/276 168/200/277
f 173/254/278 160/255/279 215/256/280 227/257/281
f 233/245/267 174/258/282 147/259/283 182/246/268
f 162/260/284 220/261/285 244/262/286 208/263/287
f 208/263/287 244/262/286 218/264/288 166/265/289
f 244/262/286 193/266/290 149/267/249 218/264/288
f 220/261/285 145/268/291 193/266/290 244/262/286
f 151/212/234 188/269/292 245/270/293 187/210/232
f 187/210/232 245/270/293 184/271/241 150/211/233
f 245/270/293 186/272/294 153/273/242 184/271/241
f 188/269/292 154/274/295 186/272/294 245/270/293
f 142/275/296 196/276/297 246/277/298 192/278/299
f 152/279/300 192/278/299 246/277/298 185/280/301
f 154/281/302 185/280/301 246/277/298 196/276/297
f 168/200/222 180/203/225 247/282/303 227/257/304
f 227/257/304 247/282/303 224/283/305 173/254/306
f 247/282/307 220/284/285 162/285/308 224/283/309
f 180/203/310 145/286/291 220/284/285 247/282/307
f 144/287/311 189/288/312 248/289/313 194/290/314
f 194/290/314 248/289/313 188/291/315 151/292/316
f 248/289/313 185/280/301 154/281/302 188/291/315
f 189/288/312 152/279/300 185/280/301 248/289/313
f 153/273/242 186/272/294 249/293/317 191/294/318
f 142/295/319 191/294/318 249/293/317 196/296/320
f 154/274/295 196/296/320 249/293/317 186/272/294
f 155/297/321 132/100/103 141/99/102 272/249/322
f 180/203/310 266/202/323 271/298/324 145/286/291
f 157/299/325 216/300/326 250/301/327 211/302/328
f 211/302/328 250/301/327 219/303/329 165/304/330
f 250/301/327 194/290/314 151/292/316 219/303/329
f 216/300/326 144/287/311 194/290/314 250/301/327
f 176/305/331 237/306/332 251/307/333 198/308/334
f 198/308/335 251/307/336 199/309/337 156/310/256
f 251/307/336 231/311/338 158/312/339 199/309/337
f 237/306/332 178/313/340 231/311/341 251/307/333
f 178/313/340 236/314/342 252/315/343 231/311/341
f 231/311/338 252/315/344 201/316/345 158/312/339
f 252/315/344 232/317/346 157/318/325 201/316/345
f 236/314/342 179/319/347 232/317/348 252/315/343
f 163/209/231 202/320/349 253/321/350 203/207/229
f 203/207/229 253/321/350 204/322/351 165/204/226
f 253/321/350 205/323/352 167/324/353 204/322/351
f 202/320/349 164/325/354 205/323/352 253/321/350
f 164/325/354 206/326/355 254/327/356 205/323/352
f 205/323/352 254/327/356 207/328/357 167/324/353
f 254/327/356 208/263/287 166/265/289 207/328/357
f 206/326/355 162/260/284 208/263/287 254/327/356
f 215/256/280 148/252/274 168/200/277 227/257/281
f 173/254/278 225/329/358 197/330/359 160/255/279
f 225/329/358 169/331/360 161/332/361 197/330/359
f 178/313/362 161/333/363 200/334/364 236/314/365
f 165/304/330 204/335/366 255/336/367 211/302/328
f 211/302/328 255/336/367 201/337/368 157/299/325
f 255/336/367 212/338/369 158/339/370 201/337/368
f 204/335/366 167/340/371 212/338/369 255/336/367
f 167/340/371 207/341/372 256/342/373 212/338/369
f 212/338/369 256/342/373 199/343/374 158/339/370
f 256/342/373 213/232/253 156/235/256 199/343/374
f 207/341/372 166/233/254 213/232/253 256/342/373
f 200/334/364 159/344/375 179/319/376 236/314/365
f 172/213/377 147/345/378 217/346/379 228/225/380
f 217/346/379 159/347/381 170/222/382 228/225/380
f 171/218/259 146/237/258 182/348/383 229/216/384
f 182/348/383 147/345/378 172/213/377 229/216/384
f 160/349/385 176/305/386 235/350/387 215/351/388
f 160/349/385 197/352/389 237/306/390 176/305/386
f 235/350/387 177/251/391 148/353/274 215/351/388
f 197/352/389 161/333/363 178/313/362 237/306/390
f 147/259/283 174/258/282 234/354/392 217/355/393
f 161/332/361 169/331/360 226/356/394 200/357/395
f 234/354/392 179/319/376 159/344/375 217/355/393
f 162/285/308 206/358/396 257/359/397 224/283/309
f 224/283/305 257/359/398 225/329/399 173/254/306
f 257/359/398 209/360/400 169/331/401 225/329/399
f 206/358/396 164/361/402 209/360/403 257/359/397
f 164/361/402 202/362/404 258/363/405 209/360/403
f 209/360/400 258/363/406 226/356/407 169/331/401
f 258/363/406 210/223/244 170/222/243 226/356/407
f 202/362/404 163/227/231 210/223/248 258/363/405
f 144/364/311 181/365/408 259/366/409 189/367/312
f 189/367/312 259/366/409 190/368/410 152/369/300
f 259/366/409 233/245/411 175/244/412 190/368/410
f 181/365/408 174/258/413 233/245/411 259/366/409
f 157/318/325 232/317/346 260/370/414 216/371/326
f 216/371/326 260/370/414 181/365/408 144/364/311
f 260/370/415 234/354/416 174/258/413 181/365/408
f 232/317/348 179/319/347 234/354/416 260/370/415
f 143/372/257 230/248/417 261/373/418 214/374/255
f 214/374/255 261/373/418 198/308/335 156/310/256
f 261/373/419 235/350/420 176/305/331 198/308/334
f 230/248/270 177/251/273 235/350/420 261/373/419
f 195/229/250 264/375/421 155/376/321 143/236/257
f 143/372/257 155/297/321 272/249/322 230/248/417
f 268/201/223 137/181/203 135/180/203 266/202/224
f 145/268/291 271/377/324 265/378/422 193/266/290
f 153/220/242 191/379/318 262/380/423 222/217/239
f 171/218/240 222/217/239 262/380/423 238/238/424
f 142/247/425 238/238/424 262/380/423 191/379/318
f 152/369/300 190/368/410 263/381/426 192/278/299
f 142/240/427 192/278/299 263/381/426 239/241/428
f 175/244/412 239/241/428 263/381/426 190/368/410
f 226/356/394 170/222/382 159/347/381 200/357/395
f 149/228/249 269/382/429 264/375/421 195/229/250
f 175/244/266 146/243/265 183/242/264 239/241/263
f 193/266/290 265/378/422 269/383/429 149/267/249
f 177/251/391 267/250/430 270/384/275 148/353/274
f 267/250/430 136/191/214 139/190/213 270/384/275
f 269/382/429 138/193/216 133/192/215 264/375/421
f 264/375/421 133/192/215 132/194/103 155/376/321
f 270/253/275 139/195/213 137/181/217 268/201/276
f 271/377/324 140/197/219 134/196/218 265/378/422
f 272/249/271 141/99/220 136/191/220 267/250/272
f 266/202/323 135/180/221 140/198/219 271/298/324
f 265/378/422 134/196/218 138/199/216 269/383/429
f 300/385/431 301/386/431 276/387/431 274/388/431
f 301/386/432 313/389/433 278/390/434 276/387/432
f 313/389/433 325/391/435 280/392/435 278/390/434
f 325/391/436 337/393/437 282/394/437 280/392/436
f 337/393/437 349/395/438 284/396/438 282/394/437
f 349/395/439 361/397/440 286/398/441 284/396/439
f 361/397/440 373/399/442 288/400/442 286/398/441
f 373/399/443 300/385/443 274/388/443 288/400/443
f 287/401/443 273/402/444 289/403/444 384/404/443
f 384/404/443 289/403/444 290/405/444 383/406/443
f 383/406/443 290/405/444 291/407/444 382/408/443
f 382/408/443 291/407/444 292/409/444 381/410/443
f 381/410/443 292/409/444 293/411/444 380/412/443
f 380/412/443 293/411/444 294/413/444 379/414/443
f 379/414/443 294/413/444 295/415/444 378/416/443
f 378/416/443 295/415/444 296/417/444 377/418/443
f 377/418/443 296/417/444 297/419/443 376/420/443
f 376/420/443 297/419/443 298/421/443 375/422/443
f 375/422/443 298/421/443 299/423/443 374/424/443
f 374/424/443 299/423/443 300/385/443 373/399/443
f 285/425/440 287/401/442 384/404/442 372/426/440
f 372/426/440 384/404/442 383/406/442 371/427/440
f 371/427/440 383/406/442 382/408/442 370/428/440
f 370/428/440 382/408/442 381/410/442 369/429/440
f 369/429/440 381/410/442 380/412/442 368/430/440
f 368/430/440 380/412/442 379/414/442 367/431/440
f 367/431/440 379/414/442 378/416/442 366/432/440
f 366/432/440 378/416/442 377/418/442 365/433/440
f 365/433/440 377/418/442 376/420/442 364/434/440
f 364/434/440 376/420/442 375/422/442 363/435/440
f 363/435/440 375/422/442 374/424/442 362/436/440
f 362/436/440 374/424/442 373/399/442 361/397/440
f 283/437/439 285/425/440 372/426/440 360/438/439
f 360/438/439 372/426/440 371/427/440 359/439/439
f 359/439/439 371/427/440 370/428/440 358/440/439
f 358/440/439 370/428/440 369/429/440 357/441/439
f 357/441/439 369/429/440 368/430/440 356/442/439
f 356/442/439 368/430/440 367/431/440 355/443/439
f 355/443/439 367/431/440 366/432/440 354/444/439
f 354/444/439 366/432/440 365/433/440 353/445/439
f 353/445/439 365/433/440 364/434/440 352/446/439
f 352/446/439 364/434/440 363/435/440 351/447/439
f 351/447/439 363/435/440 362/436/440 350/448/439
f 350/448/439 362/436/440 361/397/440 349/395/439
f 281/449/438 283/437/438 360/438/438 348/450/438
f 348/450/438 360/438/438 359/439/438 347/451/438
f 347/451/438 359/439/438 358/440/438 346/452/438
f 346/452/438 358/440/438 357/441/438 345/453/437
f 345/453/437 357/441/438 356/442/438 344/454/437
f 344/454/437 356/442/438 355/443/438 343/455/437
f 343/455/437 355/443/438 354/444/438 342/456/437
f 342/456/437 354/444/438 353/445/438 341/457/437
f 341/457/437 353/445/438 352/446/438 340/458/437
f 340/458/437 352/446/438 351/447/438 339/459/437
f 339/459/437 351/447/438 350/448/438 338/460/437
f 338/460/437 350/448/438 349/395/438 337/393/437
f 279/461/436 281/449/436 348/450/436 336/462/445
f 336/462/445 348/450/436 347/451/436 335/463/445
f 335/463/445 347/451/436 346/452/436 334/464/436
f 334/464/436 346/452/436 345/453/437 333/465/436
f 333/465/436 345/453/437 344/454/437 332/466/436
f 332/466/436 344/454/437 343/455/437 331/467/436
f 331/467/436 343/455/437 342/456/437 330/468/436
f 330/468/436 342/456/437 341/457/437 329/469/436
f 329/469/436 341/457/437 340/458/437 328/470/436
f 328/470/436 340/458/437 339/459/437 327/471/436
f 327/471/436 339/459/437 338/460/437 326/472/436
f 326/472/436 338/460/437 337/393/437 325/391/436
f 277/473/433 279/461/435 336/462/445 324/474/433
f 324/474/433 336/462/445 335/463/445 323/475/433
f 323/475/433 335/463/445 334/464/435 322/476/433
f 322/476/433 334/464/435 333/465/435 321/477/433
f 321/477/433 333/465/435 332/466/435 320/478/433
f 320/478/433 332/466/435 331/467/435 319/479/433
f 319/479/433 331/467/435 330/468/435 318/480/433
f 318/480/433 330/468/435 329/469/435 317/481/433
f 317/481/433 329/469/435 328/470/435 316/482/433
f 316/482/433 328/470/435 327/471/435 315/483/433
f 315/483/433 327/471/435 326/472/435 314/484/433
f 314/484/433 326/472/435 325/391/435 313/389/433
f 275/485/432 277/473/433 324/474/433 312/486/432
f 312/486/432 324/474/433 323/475/433 311/487/432
f 311/487/432 323/475/433 322/476/433 310/488/432
f 310/488/432 322/476/433 321/477/433 309/489/432
f 309/489/432 321/477/433 320/478/433 308/490/432
f 308/490/432 320/478/433 319/479/433 307/491/432
f 307/491/432 319/479/433 318/480/433 306/492/432
f 306/492/432 318/480/433 317/481/433 305/493/432
f 305/493/432 317/481/433 316/482/433 304/494/432
f 304/494/432 316/482/433 315/483/433 303/495/432
f 303/495/432 315/483/433 314/484/433 302/496/432
f 302/496/432 314/484/433 313/389/433 301/386/432
f 273/402/444 275/485/431 312/486/431 289/403/444
f 289/403/444 312/486/431 311/487/431 290/405/444
f 290/405/444 311/487/431 310/488/431 291/407/444
f 291/407/444 310/488/431 309/489/431 292/409/444
f 292/409/444 309/489/431 308/490/431 293/411/444
f 293/411/444 308/490/431 307/491/431 294/413/444
f 294/413/444 307/491/431 306/492/431 295/415/444
f 295/415/444 306/492/431 305/493/431 296/417/444
f 296/417/444 305/493/431 304/494/431 297/419/431
f 297/419/431 304/494/431 303/495/431 298/421/431
f 298/421/431 303/495/431 302/496/431 299/423/431
f 299/423/431 302/496/431 301/386/431 300/385/431
