# Blender v3.4.1 OBJ File: 'November2025_PlantWarrior_Assets_Export.blend'
# www.blender.org
mtllib PlantWarrior_Arrow.mtl
o PlantWarrior_Arrow
v 0.000000 0.034992 -0.386268
v 0.024743 0.024743 -0.386268
v 0.034992 0.000000 -0.386268
v 0.024743 -0.024743 -0.386268
v 0.000000 -0.034992 -0.386268
v -0.024743 -0.024743 -0.386268
v -0.034992 0.000000 -0.386268
v -0.024743 0.024743 -0.386268
v 0.000000 0.048143 0.277333
v 0.034042 0.034042 0.277333
v 0.048143 -0.000000 0.277333
v 0.034042 -0.034043 0.277333
v 0.000000 -0.048143 0.277333
v -0.034042 -0.034043 0.277333
v -0.048143 -0.000000 0.277333
v -0.034042 0.034042 0.277333
v 0.000000 0.021880 0.222464
v 0.000000 0.031609 0.253329
v 0.022351 0.022351 0.253329
v 0.015471 0.015471 0.222464
v 0.031609 -0.000000 0.253329
v 0.021880 -0.000000 0.222464
v 0.022351 -0.022351 0.253329
v 0.015471 -0.015471 0.222464
v 0.000000 -0.031609 0.253329
v 0.000000 -0.021880 0.222464
v -0.022351 -0.022351 0.253329
v -0.015471 -0.015471 0.222464
v -0.031609 -0.000000 0.253329
v -0.021880 -0.000000 0.222464
v -0.022351 0.022351 0.253329
v -0.015471 0.015471 0.222464
v 0.000000 -0.090509 -0.731635
v 0.022949 -0.042789 -0.380071
v 0.026472 -0.091509 -0.619205
v -0.022948 -0.042784 -0.380062
v 0.000000 -0.074511 -0.659248
v 0.000000 -0.078836 -0.624337
v 0.000000 -0.044821 -0.394745
v 0.000000 -0.049055 -0.385877
v -0.026472 -0.091448 -0.619309
v 0.000000 -0.088289 -0.619793
v 0.019193 -0.087619 -0.656315
v -0.019192 -0.087619 -0.656315
v 0.000000 -0.085632 -0.656701
v 0.000000 -0.013351 -0.367693
v 0.031174 -0.073262 -0.419096
v 0.032832 -0.102065 -0.557011
v 0.035105 -0.095379 -0.473147
v -0.000001 -0.086948 -0.550537
v 0.000000 -0.062289 -0.421978
v 0.000000 -0.082218 -0.483341
v -0.031016 -0.073845 -0.418304
v -0.032980 -0.101605 -0.556724
v -0.035103 -0.095346 -0.472805
v -0.000001 -0.095174 -0.553699
v 0.000000 -0.070250 -0.418001
v 0.000000 -0.090203 -0.475133
v -0.032157 -0.033488 -0.394472
v -0.041750 -0.079236 -0.479321
v -0.039845 -0.084205 -0.555403
v -0.026212 -0.074989 -0.665694
v -0.035711 -0.076383 -0.622848
v -0.039120 -0.061306 -0.429811
v 0.035757 -0.076499 -0.622680
v 0.026215 -0.075000 -0.665691
v 0.039066 -0.060735 -0.430571
v 0.032054 -0.033330 -0.394399
v 0.041728 -0.079330 -0.480087
v 0.039819 -0.084650 -0.555688
v -0.000001 0.105082 -0.614201
v -0.000001 0.071557 -0.512234
v -0.029585 0.082538 -0.512422
v 0.029583 0.082538 -0.512427
v -0.000001 0.080858 -0.508219
v -0.023324 0.002293 -0.370231
v -0.042547 0.065575 -0.452977
v -0.040403 0.032502 -0.391227
v 0.000000 0.056337 -0.453033
v -0.000011 0.003463 -0.388119
v -0.000001 0.033711 -0.403676
v 0.023185 0.002047 -0.368919
v 0.042737 0.065223 -0.453276
v 0.040399 0.032351 -0.391030
v 0.000000 0.061665 -0.445722
v -0.000011 0.003771 -0.372483
v -0.000001 0.033773 -0.387426
v 0.048049 0.028052 -0.420845
v 0.051632 0.054830 -0.476682
v 0.040403 0.073693 -0.531507
v 0.029245 0.002014 -0.396446
v -0.040410 0.073702 -0.531497
v -0.029226 0.002231 -0.397956
v -0.048025 0.028365 -0.421228
v -0.051600 0.055163 -0.476295
v -0.091003 -0.052543 -0.614201
v -0.061970 -0.035780 -0.512233
v -0.056688 -0.066891 -0.512422
v -0.086272 -0.015650 -0.512428
v -0.070025 -0.040431 -0.508218
v 0.009676 -0.021346 -0.370230
v -0.035516 -0.069634 -0.452977
v -0.007946 -0.051241 -0.391227
v -0.048789 -0.028168 -0.453032
v -0.002994 -0.001741 -0.388119
v -0.029195 -0.016857 -0.403676
v -0.013365 0.019055 -0.368919
v -0.077853 0.004399 -0.453275
v -0.048217 0.018811 -0.391029
v -0.053404 -0.030833 -0.445722
v -0.003261 -0.001895 -0.372483
v -0.029248 -0.016888 -0.387426
v -0.048319 0.027586 -0.420845
v -0.073301 0.017300 -0.476682
v -0.084022 -0.001857 -0.531507
v -0.016367 0.024319 -0.396446
v -0.043623 -0.071848 -0.531497
v 0.012680 -0.026426 -0.397956
v -0.000552 -0.055774 -0.421228
v -0.021973 -0.072269 -0.476295
v 0.091005 -0.052540 -0.614201
v 0.061971 -0.035778 -0.512234
v 0.086273 -0.015648 -0.512421
v 0.056689 -0.066889 -0.512427
v 0.070026 -0.040429 -0.508219
v 0.013648 0.019052 -0.370230
v 0.078063 0.004059 -0.452977
v 0.048349 0.018739 -0.391227
v 0.048789 -0.028169 -0.453033
v 0.003005 -0.001723 -0.388119
v 0.029195 -0.016855 -0.403676
v -0.009819 -0.021102 -0.368919
v 0.035116 -0.069623 -0.453275
v 0.007818 -0.051163 -0.391030
v 0.053404 -0.030834 -0.445721
v 0.003271 -0.001877 -0.372483
v 0.029249 -0.016886 -0.387426
v 0.000269 -0.055639 -0.420845
v 0.021668 -0.072130 -0.476682
v 0.043619 -0.071837 -0.531508
v -0.012878 -0.026334 -0.396446
v 0.084033 -0.001855 -0.531497
v 0.016546 0.024194 -0.397956
v 0.048577 0.027408 -0.421228
v 0.073573 0.017105 -0.476294
v -0.078383 0.045254 -0.731635
v -0.048530 0.001520 -0.380072
v -0.092485 0.022829 -0.619206
v -0.025578 0.041266 -0.380063
v -0.064529 0.037255 -0.659249
v -0.068274 0.039418 -0.624338
v -0.038816 0.022410 -0.394746
v -0.042483 0.024527 -0.385878
v -0.065960 0.068649 -0.619310
v -0.076461 0.044144 -0.619793
v -0.085476 0.027188 -0.656316
v -0.066284 0.060430 -0.656316
v -0.074160 0.042816 -0.656701
v -0.011562 0.006675 -0.367693
v -0.079034 0.009633 -0.419097
v -0.104807 0.022599 -0.557011
v -0.100154 0.017287 -0.473146
v -0.075299 0.043475 -0.550538
v -0.053944 0.031144 -0.421979
v -0.071203 0.041109 -0.483343
v -0.048444 0.063783 -0.418305
v -0.071502 0.079364 -0.556726
v -0.065021 0.078073 -0.472807
v -0.082423 0.047588 -0.553700
v -0.060838 0.035124 -0.418003
v -0.078118 0.045101 -0.475134
v -0.012923 0.044592 -0.394473
v -0.047746 0.075774 -0.479322
v -0.053001 0.076609 -0.555404
v -0.051837 0.060194 -0.665694
v -0.048294 0.069118 -0.622849
v -0.033533 0.064531 -0.429812
v -0.084129 0.007283 -0.622681
v -0.078060 0.014796 -0.665692
v -0.072132 -0.003465 -0.430571
v -0.044892 -0.011095 -0.394399
v -0.089566 0.003527 -0.480088
v -0.093218 0.007841 -0.555688
v 0.078383 0.045254 -0.731635
v 0.025582 0.041268 -0.380072
v 0.066013 0.068680 -0.619206
v 0.048526 0.001518 -0.380062
v 0.064529 0.037255 -0.659249
v 0.068274 0.039418 -0.624338
v 0.038816 0.022410 -0.394746
v 0.042483 0.024527 -0.385878
v 0.092432 0.022798 -0.619310
v 0.076460 0.044144 -0.619793
v 0.066284 0.060430 -0.656316
v 0.085476 0.027188 -0.656316
v 0.074160 0.042816 -0.656701
v 0.011562 0.006675 -0.367693
v 0.047860 0.063629 -0.419097
v 0.071975 0.079466 -0.557012
v 0.065048 0.078091 -0.473147
v 0.075300 0.043473 -0.550538
v 0.053944 0.031144 -0.421979
v 0.071203 0.041109 -0.483342
v 0.079460 0.010061 -0.418306
v 0.104482 0.022240 -0.556725
v 0.100124 0.017273 -0.472806
v 0.082424 0.047586 -0.553699
v 0.060838 0.035125 -0.418002
v 0.078118 0.045101 -0.475133
v 0.045080 -0.011105 -0.394472
v 0.089496 0.003461 -0.479321
v 0.092846 0.007595 -0.555404
v 0.078048 0.014794 -0.665694
v 0.084005 0.007265 -0.622849
v 0.072652 -0.003226 -0.429812
v 0.048372 0.069216 -0.622681
v 0.051844 0.060203 -0.665692
v 0.033065 0.064200 -0.430571
v 0.012838 0.044424 -0.394399
v 0.047837 0.075802 -0.480088
v 0.053400 0.076809 -0.555689
v -0.000003 0.000002 0.540301
v -0.035778 -0.069009 0.272580
v -0.028593 -0.037026 0.446207
v 0.035773 -0.069000 0.272582
v -0.000002 -0.072148 0.283041
v 0.028587 -0.036941 0.446237
v -0.000002 -0.034250 0.444246
v -0.019267 -0.020521 0.474009
v 0.019263 -0.020521 0.474009
v -0.000002 -0.018975 0.472587
v -0.000002 -0.030523 0.256084
v -0.045500 -0.093106 0.308250
v -0.038524 -0.067431 0.412095
v -0.046804 -0.094619 0.353916
v 0.045328 -0.094515 0.307520
v 0.038734 -0.067109 0.411657
v 0.046822 -0.094748 0.353653
v -0.000000 -0.061109 0.408060
v -0.000002 -0.085618 0.312406
v -0.000002 -0.084220 0.358694
v 0.023485 -0.013555 0.470845
v 0.040129 -0.023108 0.436402
v -0.040083 -0.023198 0.436402
v -0.023487 -0.013560 0.470845
v -0.041881 0.065490 0.272580
v -0.017775 0.043277 0.446207
v -0.077649 0.003521 0.272583
v -0.062487 0.036077 0.283042
v -0.046292 -0.006285 0.446238
v -0.029667 0.017128 0.444246
v -0.008145 0.026947 0.474010
v -0.027409 -0.006420 0.474010
v -0.016438 0.009491 0.472588
v -0.026439 0.015265 0.256085
v -0.057888 0.085959 0.308251
v -0.039142 0.067079 0.412095
v -0.058547 0.087844 0.353917
v -0.104522 0.008004 0.307520
v -0.077491 0.000011 0.411658
v -0.105472 0.006826 0.353654
v -0.052928 0.030556 0.408060
v -0.074152 0.042812 0.312407
v -0.072942 0.042113 0.358695
v -0.000055 0.046312 0.436402
v -0.000007 0.027121 0.470845
v 0.077650 0.003525 0.272580
v 0.046359 -0.006245 0.446207
v 0.041866 0.065485 0.272583
v 0.062480 0.036077 0.283042
v 0.017696 0.043232 0.446238
v 0.029660 0.017128 0.444246
v 0.027402 -0.006420 0.474010
v 0.008137 0.026947 0.474010
v 0.016431 0.009490 0.472588
v 0.026432 0.015264 0.256085
v 0.103379 0.007153 0.308251
v 0.077656 0.000358 0.412095
v 0.105342 0.006781 0.353917
v 0.059186 0.086517 0.307520
v 0.038748 0.067104 0.411658
v 0.058640 0.087928 0.353654
v 0.052919 0.030559 0.408060
v 0.074145 0.042812 0.312407
v 0.072935 0.042113 0.358695
v 0.058416 -0.033531 0.400711
v 0.073017 -0.042230 0.353485
v 0.072701 -0.042584 0.313682
v 0.057739 -0.033396 0.281182
v 0.013215 -0.007629 0.256084
v -0.058252 -0.033824 0.400711
v -0.073087 -0.042119 0.353485
v -0.073235 -0.041668 0.313682
v -0.057797 -0.033305 0.281182
v -0.013221 -0.007629 0.256084
v -0.000173 0.067361 0.400711
v 0.000061 0.084355 0.353485
v 0.000526 0.084258 0.313682
v 0.000049 0.066707 0.281182
v -0.000004 0.015265 0.256085
vt 0.813541 0.683774
vt 0.811600 0.556348
vt 0.808361 0.556348
vt 0.808361 0.683774
vt 0.801744 0.549887
vt 0.803683 0.549887
vt 0.801235 0.544863
vt 0.798283 0.544863
vt 0.803683 0.549887
vt 0.801235 0.544863
vt 0.808361 0.549887
vt 0.808361 0.544863
vt 0.813040 0.549887
vt 0.815487 0.544863
vt 0.814978 0.549887
vt 0.818439 0.544863
vt 0.801036 0.683774
vt 0.803781 0.556348
vt 0.805123 0.556348
vt 0.803181 0.683774
vt 0.813040 0.549887
vt 0.815487 0.544863
vt 0.808361 0.549887
vt 0.808361 0.544863
vt 0.803181 0.683774
vt 0.808361 0.683774
vt 0.813541 0.683774
vt 0.815686 0.683774
vt 0.811600 0.556348
vt 0.812941 0.556348
vt 0.805123 0.556348
vt 0.808361 0.556348
vt 0.795350 0.585724
vt 0.812509 0.587679
vt 0.812509 0.568619
vt 0.812509 0.670006
vt 0.846541 0.671521
vt 0.840950 0.685973
vt 0.812509 0.682650
vt 0.833840 0.636830
vt 0.822836 0.645819
vt 0.826278 0.663137
vt 0.840950 0.654723
vt 0.838033 0.623311
vt 0.846541 0.640271
vt 0.812509 0.557851
vt 0.812509 0.572374
vt 0.781431 0.635943
vt 0.789631 0.616322
vt 0.812509 0.525179
vt 0.829667 0.570099
vt 0.812509 0.506119
vt 0.812509 0.656366
vt 0.802182 0.661444
vt 0.812509 0.663309
vt 0.812509 0.593866
vt 0.812509 0.600809
vt 0.812509 0.599869
vt 0.835387 0.616322
vt 0.812509 0.620351
vt 0.791178 0.652455
vt 0.812509 0.645650
vt 0.843430 0.636160
vt 0.812509 0.634874
vt 0.826278 0.694387
vt 0.812509 0.694216
vt 0.812509 0.632059
vt 0.798740 0.694387
vt 0.812509 0.631716
vt 0.835700 0.587996
vt 0.843430 0.604910
vt 0.835387 0.585072
vt 0.784068 0.685973
vt 0.812509 0.620150
vt 0.812509 0.694559
vt 0.812509 0.537369
vt 0.778627 0.671820
vt 0.812509 0.607506
vt 0.789200 0.603459
vt 0.781431 0.604693
vt 0.777512 0.624165
vt 0.786261 0.622790
vt 0.778627 0.640570
vt 0.787098 0.639160
vt 0.812509 0.653742
vt 0.847504 0.655391
vt 0.812509 0.537255
vt 0.812509 0.556165
vt 0.838755 0.607147
vt 0.777512 0.655415
vt 0.812509 0.591242
vt 0.812509 0.618665
vt 0.812509 0.634932
vt 0.812509 0.583150
vt 0.812509 0.572432
vt 0.812509 0.599755
vt 0.847504 0.624141
vt 0.784068 0.654723
vt 0.798740 0.663137
vt 0.789631 0.585072
vt 0.778627 0.671820
vt 0.812509 0.607506
vt 0.812509 0.631716
vt 0.798740 0.694387
vt 0.787098 0.639160
vt 0.802182 0.661444
vt 0.812509 0.656366
vt 0.812509 0.634932
vt 0.812509 0.663309
vt 0.822836 0.645819
vt 0.812509 0.593866
vt 0.812509 0.600809
vt 0.812509 0.632059
vt 0.838033 0.623311
vt 0.812509 0.572432
vt 0.826278 0.694387
vt 0.812509 0.694559
vt 0.812509 0.694216
vt 0.789200 0.603459
vt 0.781431 0.604693
vt 0.777512 0.624165
vt 0.786261 0.622790
vt 0.778627 0.640570
vt 0.846541 0.671521
vt 0.812509 0.670006
vt 0.812509 0.653742
vt 0.847504 0.655391
vt 0.812509 0.634874
vt 0.843430 0.636160
vt 0.835700 0.587996
vt 0.812509 0.537255
vt 0.812509 0.556165
vt 0.838755 0.607147
vt 0.777512 0.655415
vt 0.812509 0.591242
vt 0.781431 0.635943
vt 0.812509 0.572374
vt 0.812509 0.618665
vt 0.826278 0.663137
vt 0.846541 0.640271
vt 0.812509 0.599755
vt 0.843430 0.604910
vt 0.847504 0.624141
vt 0.798740 0.663137
vt 0.778627 0.671820
vt 0.812509 0.607506
vt 0.812509 0.631716
vt 0.798740 0.694387
vt 0.787098 0.639160
vt 0.802182 0.661444
vt 0.812509 0.656366
vt 0.812509 0.634932
vt 0.812509 0.663309
vt 0.822836 0.645819
vt 0.812509 0.593866
vt 0.812509 0.600809
vt 0.812509 0.632059
vt 0.838033 0.623311
vt 0.812509 0.572432
vt 0.826278 0.694387
vt 0.812509 0.694559
vt 0.812509 0.694216
vt 0.789200 0.603459
vt 0.781431 0.604693
vt 0.777512 0.624165
vt 0.786261 0.622790
vt 0.778627 0.640570
vt 0.846541 0.671521
vt 0.812509 0.670006
vt 0.812509 0.653742
vt 0.847504 0.655391
vt 0.812509 0.634874
vt 0.843430 0.636160
vt 0.835700 0.587996
vt 0.812509 0.537255
vt 0.812509 0.556165
vt 0.838755 0.607147
vt 0.777512 0.655415
vt 0.812509 0.591242
vt 0.781431 0.635943
vt 0.812509 0.572374
vt 0.812509 0.618665
vt 0.826278 0.663137
vt 0.846541 0.640271
vt 0.812509 0.599755
vt 0.843430 0.604910
vt 0.847504 0.624141
vt 0.798740 0.663137
vt 0.778627 0.671820
vt 0.812509 0.607506
vt 0.812509 0.631716
vt 0.798740 0.694387
vt 0.787098 0.639160
vt 0.802182 0.661444
vt 0.812509 0.656366
vt 0.812509 0.634932
vt 0.812509 0.663309
vt 0.822836 0.645819
vt 0.812509 0.593866
vt 0.812509 0.600809
vt 0.812509 0.632059
vt 0.838033 0.623311
vt 0.812509 0.572432
vt 0.826278 0.694387
vt 0.812509 0.694559
vt 0.812509 0.694216
vt 0.789200 0.603459
vt 0.781431 0.604693
vt 0.777512 0.624165
vt 0.786261 0.622790
vt 0.778627 0.640570
vt 0.846541 0.671521
vt 0.812509 0.670006
vt 0.812509 0.653742
vt 0.847504 0.655391
vt 0.812509 0.634874
vt 0.843430 0.636160
vt 0.835700 0.587996
vt 0.812509 0.537255
vt 0.812509 0.556165
vt 0.838755 0.607147
vt 0.777512 0.655415
vt 0.812509 0.591242
vt 0.781431 0.635943
vt 0.812509 0.572374
vt 0.812509 0.618665
vt 0.826278 0.663137
vt 0.846541 0.640271
vt 0.812509 0.599755
vt 0.843430 0.604910
vt 0.847504 0.624141
vt 0.798740 0.663137
vt 0.795350 0.585724
vt 0.812509 0.587679
vt 0.812509 0.568619
vt 0.812509 0.670006
vt 0.846541 0.671521
vt 0.840950 0.685973
vt 0.812509 0.682650
vt 0.833840 0.636830
vt 0.822836 0.645819
vt 0.826278 0.663137
vt 0.840950 0.654723
vt 0.838033 0.623311
vt 0.846541 0.640271
vt 0.812509 0.557851
vt 0.812509 0.572374
vt 0.781431 0.635943
vt 0.789631 0.616322
vt 0.812509 0.525179
vt 0.829667 0.570099
vt 0.812509 0.506119
vt 0.812509 0.656366
vt 0.802182 0.661444
vt 0.812509 0.663309
vt 0.812509 0.593866
vt 0.812509 0.600809
vt 0.812509 0.599869
vt 0.835387 0.616322
vt 0.812509 0.620351
vt 0.791178 0.652455
vt 0.812509 0.645650
vt 0.843430 0.636160
vt 0.812509 0.634874
vt 0.826278 0.694387
vt 0.812509 0.694216
vt 0.812509 0.632059
vt 0.798740 0.694387
vt 0.812509 0.631716
vt 0.835700 0.587996
vt 0.843430 0.604910
vt 0.835387 0.585072
vt 0.784068 0.685973
vt 0.812509 0.620150
vt 0.812509 0.694559
vt 0.812509 0.537369
vt 0.778627 0.671820
vt 0.812509 0.607506
vt 0.789200 0.603459
vt 0.781431 0.604693
vt 0.777512 0.624165
vt 0.786261 0.622790
vt 0.778627 0.640570
vt 0.787098 0.639160
vt 0.812509 0.653742
vt 0.847504 0.655391
vt 0.812509 0.537255
vt 0.812509 0.556165
vt 0.838755 0.607147
vt 0.777512 0.655415
vt 0.812509 0.591242
vt 0.812509 0.618665
vt 0.812509 0.634932
vt 0.812509 0.583150
vt 0.812509 0.572432
vt 0.812509 0.599755
vt 0.847504 0.624141
vt 0.784068 0.654723
vt 0.798740 0.663137
vt 0.789631 0.585072
vt 0.795350 0.585724
vt 0.812509 0.587679
vt 0.812509 0.568619
vt 0.812509 0.670006
vt 0.846541 0.671521
vt 0.840950 0.685973
vt 0.812509 0.682650
vt 0.833840 0.636830
vt 0.822836 0.645819
vt 0.826278 0.663137
vt 0.840950 0.654723
vt 0.838033 0.623311
vt 0.846541 0.640271
vt 0.812509 0.557851
vt 0.812509 0.572374
vt 0.781431 0.635943
vt 0.789631 0.616322
vt 0.812509 0.525179
vt 0.829667 0.570099
vt 0.812509 0.506119
vt 0.812509 0.656366
vt 0.802182 0.661444
vt 0.812509 0.663309
vt 0.812509 0.593866
vt 0.812509 0.600809
vt 0.812509 0.599869
vt 0.835387 0.616322
vt 0.812509 0.620351
vt 0.791178 0.652455
vt 0.812509 0.645650
vt 0.843430 0.636160
vt 0.812509 0.634874
vt 0.826278 0.694387
vt 0.812509 0.694216
vt 0.812509 0.632059
vt 0.798740 0.694387
vt 0.812509 0.631716
vt 0.835700 0.587996
vt 0.843430 0.604910
vt 0.835387 0.585072
vt 0.784068 0.685973
vt 0.812509 0.620150
vt 0.812509 0.694559
vt 0.812509 0.537369
vt 0.778627 0.671820
vt 0.812509 0.607506
vt 0.789200 0.603459
vt 0.781431 0.604693
vt 0.777512 0.624165
vt 0.786261 0.622790
vt 0.778627 0.640570
vt 0.787098 0.639160
vt 0.812509 0.653742
vt 0.847504 0.655391
vt 0.812509 0.537255
vt 0.812509 0.556165
vt 0.838755 0.607147
vt 0.777512 0.655415
vt 0.812509 0.591242
vt 0.812509 0.618665
vt 0.812509 0.634932
vt 0.812509 0.583150
vt 0.812509 0.572432
vt 0.812509 0.599755
vt 0.847504 0.624141
vt 0.784068 0.654723
vt 0.798740 0.663137
vt 0.789631 0.585072
vt 0.187509 0.920006
vt 0.221541 0.921521
vt 0.215950 0.935973
vt 0.187509 0.932650
vt 0.208840 0.886830
vt 0.197836 0.895819
vt 0.201278 0.913137
vt 0.215950 0.904723
vt 0.208840 0.886830
vt 0.187565 0.881236
vt 0.153627 0.890570
vt 0.159068 0.904723
vt 0.187509 0.807851
vt 0.187509 0.822374
vt 0.156431 0.885943
vt 0.164631 0.866322
vt 0.187509 0.849869
vt 0.210387 0.866322
vt 0.187509 0.870351
vt 0.218430 0.886160
vt 0.187509 0.884874
vt 0.201278 0.944387
vt 0.187509 0.944216
vt 0.187509 0.882059
vt 0.173740 0.944387
vt 0.187509 0.881716
vt 0.221541 0.890271
vt 0.187565 0.881236
vt 0.159068 0.935973
vt 0.187509 0.870150
vt 0.187509 0.944559
vt 0.187509 0.787369
vt 0.153627 0.921820
vt 0.187509 0.857506
vt 0.164631 0.835072
vt 0.187509 0.827911
vt 0.187509 0.787369
vt 0.187509 0.818619
vt 0.152512 0.874165
vt 0.187508 0.864969
vt 0.187450 0.845727
vt 0.156431 0.854693
vt 0.187509 0.903742
vt 0.222504 0.905391
vt 0.152512 0.905415
vt 0.187509 0.841242
vt 0.222504 0.874141
vt 0.187508 0.864969
vt 0.210387 0.835072
vt 0.187509 0.827911
vt 0.187450 0.845727
vt 0.218430 0.854910
vt 0.173740 0.913137
vt 0.177182 0.911444
vt 0.166178 0.902455
vt 0.187509 0.756119
vt 0.187509 0.787369
vt 0.153627 0.890570
vt 0.159068 0.904723
vt 0.166178 0.902455
vt 0.187509 0.850809
vt 0.187509 0.913309
vt 0.187509 0.920006
vt 0.221541 0.921521
vt 0.215950 0.935973
vt 0.187509 0.932650
vt 0.197836 0.895819
vt 0.201278 0.913137
vt 0.215950 0.904723
vt 0.187509 0.807851
vt 0.187509 0.822374
vt 0.156431 0.885943
vt 0.164631 0.866322
vt 0.187509 0.849869
vt 0.210387 0.866322
vt 0.187509 0.870351
vt 0.218430 0.886160
vt 0.187509 0.884874
vt 0.201278 0.944387
vt 0.187509 0.944216
vt 0.173740 0.944387
vt 0.187509 0.881716
vt 0.208840 0.886830
vt 0.187565 0.881236
vt 0.153627 0.890570
vt 0.159068 0.904723
vt 0.159068 0.935973
vt 0.187509 0.870150
vt 0.187509 0.787369
vt 0.153627 0.921820
vt 0.187509 0.857506
vt 0.164631 0.835072
vt 0.187509 0.827911
vt 0.187509 0.787369
vt 0.187509 0.818619
vt 0.152512 0.874165
vt 0.187508 0.864969
vt 0.187450 0.845727
vt 0.156431 0.854693
vt 0.187509 0.903742
vt 0.222504 0.905391
vt 0.152512 0.905415
vt 0.187509 0.841242
vt 0.221541 0.890271
vt 0.222504 0.874141
vt 0.218430 0.854910
vt 0.210387 0.835072
vt 0.173740 0.913137
vt 0.177182 0.911444
vt 0.166178 0.902455
vt 0.187509 0.756119
vt 0.222504 0.874141
vt 0.218430 0.854910
vt 0.187509 0.920006
vt 0.221541 0.921521
vt 0.215950 0.935973
vt 0.187509 0.932650
vt 0.197836 0.895819
vt 0.201278 0.913137
vt 0.215950 0.904723
vt 0.164631 0.835072
vt 0.156431 0.854693
vt 0.187509 0.807851
vt 0.187509 0.822374
vt 0.156431 0.885943
vt 0.164631 0.866322
vt 0.187509 0.849869
vt 0.210387 0.866322
vt 0.187509 0.870351
vt 0.218430 0.886160
vt 0.187509 0.884874
vt 0.201278 0.944387
vt 0.187509 0.944216
vt 0.173740 0.944387
vt 0.187509 0.881716
vt 0.221541 0.890271
vt 0.159068 0.935973
vt 0.187509 0.870150
vt 0.187509 0.787369
vt 0.153627 0.921820
vt 0.187509 0.857506
vt 0.187509 0.818619
vt 0.152512 0.874165
vt 0.187509 0.903742
vt 0.222504 0.905391
vt 0.152512 0.905415
vt 0.187509 0.841242
vt 0.210387 0.835072
vt 0.173740 0.913137
vt 0.177182 0.911444
vt 0.187509 0.756119
vt 0.187509 0.797786
vt 0.187509 0.797786
vt 0.187509 0.797786
vt 0.187509 0.797786
vt 0.187509 0.797786
vt 0.187509 0.797786
vn -0.7069 0.7069 0.0215
vn -0.6994 0.6994 -0.1473
vn 0.0000 0.9891 -0.1473
vn 0.0000 0.9998 0.0215
vn 0.8911 -0.0000 -0.4538
vn 0.6301 0.6301 -0.4538
vn 0.5823 0.5823 -0.5673
vn 0.8235 -0.0000 -0.5673
vn 0.6301 -0.6301 -0.4538
vn 0.5823 -0.5823 -0.5673
vn 0.0000 -0.8911 -0.4538
vn 0.0000 -0.8235 -0.5673
vn -0.6301 -0.6301 -0.4538
vn -0.5823 -0.5823 -0.5673
vn -0.8911 0.0000 -0.4538
vn -0.8235 0.0000 -0.5673
vn 0.9998 0.0000 0.0215
vn 0.9891 0.0000 -0.1473
vn 0.6994 -0.6994 -0.1473
vn 0.7069 -0.7069 0.0215
vn -0.6301 0.6301 -0.4538
vn -0.5823 0.5823 -0.5673
vn 0.0000 0.8911 -0.4538
vn 0.0000 0.8235 -0.5673
vn -0.0000 0.0000 -1.0000
vn -0.0000 0.0000 1.0000
vn -0.7069 -0.7069 0.0215
vn -0.6994 -0.6994 -0.1473
vn -0.9891 0.0000 -0.1473
vn -0.9998 0.0000 0.0215
vn 0.7069 0.7069 0.0215
vn 0.6994 0.6994 -0.1473
vn 0.0000 -0.9891 -0.1473
vn 0.0000 -0.9998 0.0215
vn -0.2163 0.7291 -0.6494
vn -0.2164 0.7268 -0.6519
vn -0.2200 0.6359 -0.7398
vn 0.1657 -0.9860 -0.0206
vn 0.1655 -0.9858 -0.0269
vn 0.1399 -0.9850 -0.1015
vn 0.1363 -0.9858 -0.0984
vn -0.8391 -0.5152 -0.1745
vn -0.7977 -0.5724 -0.1900
vn -0.7984 -0.5692 -0.1964
vn -0.8504 -0.4996 -0.1651
vn -0.9096 -0.4106 -0.0633
vn -0.9080 -0.4133 -0.0684
vn -0.0421 -0.6884 0.7241
vn -0.0589 -0.8762 0.4783
vn -0.0693 -0.8867 0.4571
vn -0.0514 -0.6558 0.7532
vn 0.2076 0.7246 -0.6572
vn 0.2072 0.7272 -0.6544
vn 0.2179 0.6362 -0.7401
vn -0.0287 0.9985 -0.0474
vn -0.0294 0.9975 -0.0645
vn -0.0348 0.9758 -0.2157
vn 0.0306 0.9974 -0.0650
vn 0.0301 0.9984 -0.0480
vn 0.0352 0.9758 -0.2157
vn 0.1013 -0.4515 0.8865
vn 0.0613 -0.6516 0.7561
vn 0.0537 -0.6840 0.7275
vn -0.0415 0.9942 0.0991
vn -0.0392 0.9946 0.0963
vn 0.0849 -0.8851 0.4577
vn 0.0759 -0.8751 0.4780
vn 0.1079 -0.9940 -0.0168
vn 0.1073 -0.9942 -0.0049
vn -0.1040 -0.9925 0.0646
vn -0.1085 -0.9939 -0.0172
vn -0.1079 -0.9941 -0.0051
vn -0.8678 -0.0720 0.4917
vn -0.9101 -0.3103 0.2746
vn -0.9057 -0.2943 0.3050
vn -0.8254 0.0672 0.5605
vn -0.1456 -0.9839 -0.1034
vn -0.1413 -0.9849 -0.1001
vn 0.1040 -0.9925 0.0646
vn -0.1010 -0.4515 0.8865
vn -0.1735 -0.9844 -0.0276
vn -0.1735 -0.9846 -0.0200
vn 0.9128 -0.3054 0.2712
vn 0.9085 -0.2907 0.3003
vn 0.9268 -0.3590 0.1102
vn 0.9276 -0.3628 0.0887
vn 0.9065 -0.4166 -0.0690
vn 0.9081 -0.4138 -0.0638
vn 0.1518 -0.9670 0.2044
vn 0.1513 -0.9663 0.2083
vn 0.1390 0.8676 -0.4774
vn 0.1199 0.8898 -0.4403
vn 0.0669 0.9799 -0.1880
vn 0.0663 0.9765 -0.2048
vn -0.1478 -0.9659 0.2125
vn -0.1483 -0.9663 0.2102
vn -0.0696 0.9787 -0.1934
vn -0.0700 0.9758 -0.2074
vn -0.0602 0.9978 0.0288
vn -0.0608 0.9980 0.0159
vn 0.0440 0.9945 0.0947
vn 0.0466 0.9942 0.0973
vn 0.0669 0.9974 0.0284
vn 0.0674 0.9976 0.0167
vn -0.1322 0.8891 -0.4382
vn -0.1524 0.8667 -0.4750
vn -0.9268 -0.3650 0.0884
vn -0.9256 -0.3627 0.1082
vn 0.8483 -0.5025 -0.1667
vn 0.7974 -0.5705 -0.1969
vn 0.7969 -0.5733 -0.1902
vn 0.8372 -0.5178 -0.1759
vn 0.8272 0.0668 0.5579
vn 0.8705 -0.0718 0.4869
vn 0.7122 0.2856 0.6412
vn -0.7127 0.2866 0.6403
vn -0.7965 -0.5770 -0.1808
vn 0.7962 -0.5774 -0.1807
vn 0.0004 0.9307 0.3658
vn -0.0054 0.9243 0.3817
vn 0.0264 0.9658 0.2581
vn -0.3793 0.9120 0.1561
vn 0.1611 -0.9294 -0.3320
vn 0.1058 -0.9504 -0.2926
vn 0.1089 -0.9522 -0.2853
vn 0.1882 -0.9108 -0.3676
vn 0.0980 -0.9454 -0.3108
vn -0.1087 -0.9497 -0.2938
vn -0.1128 -0.9513 -0.2869
vn -0.0983 -0.9454 -0.3108
vn -0.2681 0.9541 0.1334
vn -0.1663 -0.9284 -0.3322
vn -0.1932 -0.9100 -0.3667
vn 0.3819 0.9107 0.1573
vn 0.2683 0.9541 0.1333
vn -0.0229 0.9655 0.2595
vn -0.8931 -0.3824 0.2370
vn -0.9438 -0.2269 0.2402
vn -0.9657 0.1302 0.2248
vn -0.8926 0.4201 0.1634
vn -0.8134 0.5739 0.0951
vn 0.0056 0.9307 0.3658
vn 0.0114 0.9243 0.3814
vn 0.0330 0.7287 0.6840
vn 0.0342 0.7704 0.6366
vn 0.0261 0.5179 0.8550
vn -0.3145 -0.4773 -0.8205
vn -0.2910 -0.6837 -0.6693
vn -0.2721 -0.7699 -0.5773
vn -0.0378 0.7658 0.6419
vn -0.0391 0.7210 0.6918
vn -0.0427 0.5031 0.8632
vn 0.2999 -0.6727 -0.6764
vn 0.2754 -0.7658 -0.5811
vn 0.8156 0.5709 0.0946
vn 0.6690 0.7432 0.0111
vn 0.8941 0.4174 0.1622
vn 0.3315 -0.4577 -0.8250
vn 0.8958 -0.3726 0.2423
vn 0.9653 0.1342 0.2241
vn 0.9446 -0.2201 0.2436
vn -0.6673 0.7447 0.0109
vn -0.8062 -0.4650 0.3658
vn -0.7978 -0.4668 0.3817
vn -0.8496 -0.4600 0.2581
vn -0.6002 -0.7845 0.1561
vn 0.7243 0.6043 -0.3320
vn 0.7701 0.5668 -0.2926
vn 0.7702 0.5705 -0.2853
vn 0.6947 0.6183 -0.3676
vn 0.7697 0.5576 -0.3108
vn 0.8768 0.3807 -0.2938
vn 0.8803 0.3779 -0.2869
vn 0.8679 0.3876 -0.3108
vn -0.6923 -0.7092 0.1334
vn 0.8872 0.3202 -0.3322
vn 0.8847 0.2877 -0.3667
vn -0.9797 -0.1246 0.1573
vn -0.9604 -0.2446 0.1333
vn -0.8247 -0.5025 0.2595
vn 0.7777 -0.5822 0.2370
vn 0.6684 -0.7039 0.2402
vn 0.3700 -0.9014 0.2248
vn 0.0825 -0.9831 0.1634
vn -0.0903 -0.9914 0.0951
vn -0.8088 -0.4605 0.3658
vn -0.8062 -0.4523 0.3814
vn -0.6476 -0.3358 0.6840
vn -0.6843 -0.3556 0.6366
vn -0.4616 -0.2363 0.8551
vn 0.5706 -0.0337 -0.8205
vn 0.7376 0.0898 -0.6693
vn 0.8028 0.1493 -0.5773
vn -0.6444 -0.4156 0.6419
vn -0.6049 -0.3944 0.6918
vn -0.4144 -0.2885 0.8632
vn 0.4326 0.5961 -0.6764
vn 0.5255 0.6214 -0.5811
vn -0.9022 0.4209 0.0946
vn -0.9781 0.2078 0.0111
vn -0.8086 0.5656 0.1622
vn 0.2306 0.5159 -0.8250
vn -0.1252 0.9621 0.2423
vn -0.5988 0.7689 0.2241
vn -0.2817 0.9281 0.2436
vn -0.3113 -0.9502 0.0109
vn 0.8058 -0.4657 0.3658
vn 0.8032 -0.4575 0.3817
vn 0.8232 -0.5057 0.2581
vn 0.9795 -0.1275 0.1561
vn -0.8855 0.3251 -0.3320
vn -0.8759 0.3835 -0.2926
vn -0.8791 0.3818 -0.2853
vn -0.8828 0.2924 -0.3676
vn -0.8677 0.3878 -0.3108
vn -0.7681 0.5689 -0.2938
vn -0.7674 0.5733 -0.2869
vn -0.7696 0.5578 -0.3108
vn 0.9603 -0.2449 0.1334
vn -0.7209 0.6083 -0.3322
vn -0.6915 0.6223 -0.3667
vn 0.5977 -0.7861 0.1573
vn 0.6921 -0.7094 0.1333
vn 0.8476 -0.4629 0.2595
vn 0.1153 0.9646 0.2370
vn 0.2754 0.9308 0.2402
vn 0.5956 0.7712 0.2248
vn 0.8101 0.5630 0.1634
vn 0.9037 0.4175 0.0951
vn 0.8032 -0.4702 0.3658
vn 0.7948 -0.4720 0.3814
vn 0.6146 -0.3929 0.6840
vn 0.6501 -0.4149 0.6366
vn 0.4354 -0.2816 0.8550
vn -0.2561 0.5110 -0.8205
vn -0.4466 0.5938 -0.6693
vn -0.5307 0.6206 -0.5773
vn 0.6821 -0.3502 0.6419
vn 0.6440 -0.3266 0.6918
vn 0.4570 -0.2146 0.8632
vn -0.7326 0.0766 -0.6764
vn -0.8009 0.1444 -0.5811
vn 0.0866 -0.9917 0.0946
vn 0.3091 -0.9510 0.0111
vn -0.0855 -0.9830 0.1622
vn -0.5621 -0.0583 -0.8250
vn -0.7706 -0.5895 0.2423
vn -0.3664 -0.9030 0.2241
vn -0.6629 -0.7080 0.2436
vn 0.9786 0.2055 0.0109
vn 0.7395 -0.1773 -0.6494
vn 0.7376 -0.1760 -0.6519
vn 0.6607 -0.1275 -0.7398
vn -0.9367 0.3495 -0.0206
vn -0.9365 0.3496 -0.0269
vn -0.9229 0.3713 -0.1015
vn -0.9218 0.3749 -0.0984
vn -0.0266 0.9843 -0.1745
vn -0.0969 0.9770 -0.1900
vn -0.0937 0.9760 -0.1964
vn -0.0075 0.9862 -0.1651
vn 0.0993 0.9930 -0.0633
vn 0.0960 0.9930 -0.0684
vn -0.5751 0.3807 0.7241
vn -0.7294 0.4892 0.4783
vn -0.7333 0.5034 0.4571
vn -0.5422 0.3724 0.7532
vn 0.5237 -0.5421 -0.6572
vn 0.5262 -0.5430 -0.6544
vn 0.4420 -0.5068 -0.7401
vn 0.8791 -0.4743 -0.0474
vn 0.8785 -0.4733 -0.0645
vn 0.8625 -0.4578 -0.2157
vn 0.8485 -0.5252 -0.0650
vn 0.8496 -0.5252 -0.0480
vn 0.8275 -0.5184 -0.2157
vn -0.4416 0.1381 0.8865
vn -0.5950 0.2727 0.7561
vn -0.6192 0.2955 0.7275
vn 0.8818 -0.4611 0.0991
vn 0.8809 -0.4633 0.0963
vn -0.8089 0.3690 0.4577
vn -0.7958 0.3718 0.4780
vn -0.9148 0.4036 -0.0168
vn -0.9147 0.4041 -0.0049
vn -0.8075 0.5863 0.0646
vn -0.8065 0.5909 -0.0172
vn -0.8070 0.5905 -0.0051
vn 0.3715 0.7875 0.4917
vn 0.1863 0.9433 0.2746
vn 0.1980 0.9316 0.3050
vn 0.4709 0.6812 0.5605
vn -0.7793 0.6180 -0.1034
vn -0.7823 0.6148 -0.1001
vn -0.9115 0.4062 0.0646
vn -0.3405 0.3132 0.8865
vn -0.7658 0.6425 -0.0275
vn -0.7659 0.6426 -0.0200
vn -0.7209 -0.6378 0.2712
vn -0.7060 -0.6414 0.3003
vn -0.7743 -0.6231 0.1102
vn -0.7780 -0.6219 0.0887
vn -0.8140 -0.5767 -0.0690
vn -0.8124 -0.5795 -0.0638
vn -0.9134 0.3521 0.2044
vn -0.9125 0.3521 0.2083
vn 0.6819 -0.5542 -0.4774
vn 0.7106 -0.5488 -0.4403
vn 0.8151 -0.5479 -0.1880
vn 0.8125 -0.5457 -0.2048
vn -0.7626 0.6110 0.2125
vn -0.7628 0.6116 0.2102
vn 0.8823 -0.4291 -0.1934
vn 0.8800 -0.4272 -0.2074
vn 0.8942 -0.4468 0.0288
vn 0.8947 -0.4463 0.0159
vn 0.8393 -0.5354 0.0947
vn 0.8377 -0.5375 0.0973
vn 0.8303 -0.5566 0.0283
vn 0.8302 -0.5572 0.0167
vn 0.8361 -0.3301 -0.4382
vn 0.8267 -0.3014 -0.4750
vn 0.1472 0.9851 0.0884
vn 0.1487 0.9829 0.1082
vn -0.8594 -0.4834 -0.1667
vn -0.8927 -0.4053 -0.1969
vn -0.8950 -0.4035 -0.1902
vn -0.8670 -0.4662 -0.1759
vn -0.3557 -0.7498 0.5579
vn -0.4974 -0.7180 0.4869
vn -0.1088 -0.7596 0.6412
vn 0.6045 0.4739 0.6403
vn -0.1014 0.9783 -0.1808
vn -0.8982 -0.4008 -0.1807
vn -0.5233 -0.5518 -0.6494
vn -0.5212 -0.5508 -0.6519
vn -0.4407 -0.5085 -0.7398
vn 0.7710 0.6364 -0.0206
vn 0.7710 0.6363 -0.0269
vn 0.7831 0.6136 -0.1015
vn 0.7856 0.6109 -0.0984
vn 0.8657 -0.4691 -0.1745
vn 0.8945 -0.4046 -0.1900
vn 0.8921 -0.4069 -0.1964
vn 0.8579 -0.4866 -0.1651
vn 0.8104 -0.5825 -0.0633
vn 0.8120 -0.5797 -0.0684
vn 0.6172 0.3077 0.7241
vn 0.7883 0.3871 0.4783
vn 0.8026 0.3834 0.4571
vn 0.5936 0.2834 0.7532
vn -0.7313 -0.1825 -0.6572
vn -0.7334 -0.1842 -0.6544
vn -0.6599 -0.1294 -0.7401
vn -0.8503 -0.5241 -0.0474
vn -0.8491 -0.5242 -0.0645
vn -0.8277 -0.5181 -0.2157
vn -0.8791 -0.4722 -0.0650
vn -0.8797 -0.4732 -0.0480
vn -0.8627 -0.4574 -0.2157
vn 0.3404 0.3135 0.8865
vn 0.5337 0.3789 0.7560
vn 0.5656 0.3885 0.7275
vn -0.8402 -0.5331 0.0991
vn -0.8417 -0.5313 0.0963
vn 0.7240 0.5161 0.4577
vn 0.7199 0.5033 0.4780
vn 0.8069 0.5904 -0.0168
vn 0.8073 0.5901 -0.0049
vn 0.9115 0.4062 0.0646
vn 0.9150 0.4030 -0.0172
vn 0.9149 0.4036 -0.0051
vn 0.4963 -0.7155 0.4917
vn 0.7238 -0.6330 0.2746
vn 0.7078 -0.6372 0.3050
vn 0.3545 -0.7484 0.5605
vn 0.9249 0.3659 -0.1034
vn 0.9236 0.3701 -0.1001
vn 0.8075 0.5863 0.0646
vn 0.4415 0.1383 0.8865
vn 0.9393 0.3420 -0.0276
vn 0.9395 0.3420 -0.0200
vn -0.1919 0.9432 0.2712
vn -0.2025 0.9321 0.3003
vn -0.1525 0.9821 0.1102
vn -0.1496 0.9848 0.0887
vn -0.0924 0.9933 -0.0690
vn -0.0957 0.9934 -0.0638
vn 0.7616 0.6150 0.2044
vn 0.7612 0.6142 0.2083
vn -0.8209 -0.3134 -0.4774
vn -0.8306 -0.3411 -0.4403
vn -0.8821 -0.4320 -0.1880
vn -0.8789 -0.4308 -0.2048
vn 0.9104 0.3550 0.2125
vn 0.9110 0.3548 0.2102
vn -0.8127 -0.5496 -0.1934
vn -0.8100 -0.5485 -0.2074
vn -0.8340 -0.5510 0.0288
vn -0.8339 -0.5517 0.0159
vn -0.8833 -0.4591 0.0947
vn -0.8843 -0.4567 0.0973
vn -0.8972 -0.4407 0.0283
vn -0.8976 -0.4404 0.0167
vn -0.7039 -0.5590 -0.4382
vn -0.6744 -0.5653 -0.4750
vn 0.7795 -0.6201 0.0884
vn 0.7769 -0.6203 0.1082
vn 0.0110 0.9859 -0.1667
vn 0.0954 0.9758 -0.1969
vn 0.0981 0.9768 -0.1902
vn 0.0298 0.9840 -0.1759
vn -0.4715 0.6830 0.5579
vn -0.3731 0.7898 0.4869
vn -0.6035 0.4740 0.6412
vn 0.1082 -0.7605 0.6403
vn 0.8979 -0.4013 -0.1808
vn 0.1019 0.9782 -0.1807
vn -0.1597 -0.8438 0.5124
vn -0.1606 -0.8505 0.5008
vn -0.1348 -0.8220 0.5533
vn -0.1317 -0.8293 0.5431
vn 0.7495 -0.4343 0.4997
vn 0.7795 -0.4503 0.4355
vn 0.8431 -0.3424 0.4146
vn 0.8126 -0.3165 0.4894
vn -0.7508 -0.4319 0.4997
vn -0.7925 -0.4561 0.4048
vn -0.8363 -0.3650 0.4091
vn -0.8135 -0.3144 0.4893
vn 0.1632 -0.7483 -0.6429
vn 0.1678 -0.9564 -0.2391
vn 0.1686 -0.9580 -0.2319
vn -0.3168 -0.5566 -0.7680
vn 0.0001 -0.1999 -0.9798
vn 0.3145 -0.5492 -0.7743
vn -0.1755 -0.7394 -0.6500
vn -0.1876 -0.9542 -0.2330
vn -0.1871 -0.9530 -0.2383
vn -0.1057 -0.9149 0.3896
vn -0.1048 -0.9205 0.3765
vn 0.0967 -0.9584 0.2686
vn 0.1064 -0.9147 0.3900
vn 0.1054 -0.9203 0.3768
vn 0.8353 -0.3674 0.4090
vn 0.7912 -0.4583 0.4048
vn 0.1403 -0.8197 0.5553
vn 0.1366 -0.8274 0.5448
vn -0.0967 -0.9584 0.2686
vn 0.1679 -0.8496 0.5000
vn 0.1672 -0.8430 0.5113
vn -0.6028 -0.3507 -0.7167
vn -0.1731 -0.0999 -0.9798
vn -0.8853 -0.4449 0.1352
vn -0.8550 -0.4948 0.1557
vn -0.8379 -0.4885 -0.2435
vn -0.8692 -0.4344 -0.2360
vn -0.1875 -0.9533 0.2367
vn -0.1919 -0.9626 0.1911
vn 0.1863 -0.9655 0.1817
vn 0.1844 -0.9563 0.2269
vn 0.8864 -0.4428 0.1353
vn 0.8560 -0.4930 0.1557
vn 0.6051 -0.3466 -0.7167
vn 0.8420 -0.4813 -0.2435
vn 0.8723 -0.4277 -0.2371
vn -0.8433 -0.3420 0.4145
vn -0.7797 -0.4499 0.4355
vn 0.1731 -0.0999 -0.9798
vn 0.7343 -0.5418 0.4091
vn 0.6790 -0.5473 0.4893
vn 0.8067 -0.4657 0.3637
vn -0.8067 -0.4658 0.3637
vn -0.6509 0.5602 0.5124
vn -0.6563 0.5643 0.5008
vn -0.6445 0.5277 0.5533
vn -0.6523 0.5287 0.5431
vn -0.7181 -0.5590 0.4146
vn -0.6804 -0.5455 0.4894
vn -0.7297 0.2329 -0.6429
vn -0.9121 0.3329 -0.2391
vn -0.9140 0.3330 -0.2319
vn -0.3236 0.5527 -0.7680
vn -0.1731 0.0999 -0.9798
vn -0.6329 0.0022 -0.7743
vn -0.5526 0.5217 -0.6500
vn -0.7326 0.6396 -0.2330
vn -0.7318 0.6385 -0.2383
vn -0.7395 0.5490 0.3896
vn -0.7448 0.5510 0.3765
vn -0.8783 0.3954 0.2686
vn -0.8453 0.3652 0.3900
vn -0.8497 0.3688 0.3768
vn 0.0014 0.8662 0.4997
vn 0.0013 0.9144 0.4048
vn 0.1021 0.9068 0.4091
vn 0.1345 0.8617 0.4893
vn -0.7801 0.2883 0.5553
vn -0.7848 0.2953 0.5448
vn -0.7816 0.5630 0.2686
vn -0.8197 0.2794 0.5000
vn -0.8136 0.2767 0.5113
vn -0.0023 0.6974 -0.7167
vn 0.0000 0.1999 -0.9798
vn 0.0574 0.9892 0.1352
vn -0.0010 0.9878 0.1557
vn -0.0041 0.9699 -0.2435
vn 0.0584 0.9700 -0.2360
vn -0.7319 0.6390 0.2367
vn -0.7377 0.6475 0.1911
vn -0.9293 0.3214 0.1817
vn -0.9204 0.3185 0.2269
vn -0.7358 -0.5397 0.4090
vn -0.8267 -0.5462 0.1353
vn -0.8065 -0.5416 -0.2371
vn 0.1255 0.9013 0.4145
vn 0.0003 0.9002 0.4355
vn -0.0597 0.9890 0.1353
vn -0.0658 0.9693 -0.2371
vn 0.0000 0.9315 0.3637
vn 0.8106 0.2836 0.5124
vn 0.8169 0.2862 0.5008
vn 0.7793 0.2943 0.5533
vn 0.7840 0.3006 0.5431
vn -0.1250 0.9014 0.4146
vn -0.1321 0.8620 0.4894
vn 0.6405 0.0039 -0.7680
vn 0.8108 -0.5356 -0.2360
vn 0.5665 0.5155 -0.6429
vn 0.7444 0.6235 -0.2391
vn 0.7454 0.6250 -0.2319
vn 0.1731 0.1000 -0.9798
vn 0.3183 0.5470 -0.7743
vn 0.7281 0.2177 -0.6500
vn 0.9202 0.3146 -0.2330
vn 0.9189 0.3145 -0.2383
vn 0.8452 0.3659 0.3896
vn 0.8495 0.3695 0.3765
vn 0.7816 0.5630 0.2686
vn 0.7389 0.5495 0.3900
vn 0.7443 0.5514 0.3768
vn -0.0995 0.9071 0.4090
vn 0.6397 0.5314 0.5553
vn 0.6482 0.5320 0.5448
vn 0.8783 0.3954 0.2686
vn 0.6518 0.5702 0.5000
vn 0.6464 0.5663 0.5113
vn 0.8279 -0.5443 0.1352
vn 0.9194 0.3143 0.2367
vn 0.9296 0.3151 0.1911
vn 0.7430 0.6441 0.1817
vn 0.7360 0.6378 0.2269
vn 0.7179 -0.5593 0.4145
usemtl plantcreatures
s 1
f 8/1/1 32/2/2 17/3/3 1/4/4
f 21/5/5 19/6/6 10/7/7 11/8/8
f 23/9/9 21/5/5 11/8/8 12/10/10
f 25/11/11 23/9/9 12/10/10 13/12/12
f 27/13/13 25/11/11 13/12/12 14/14/14
f 29/15/15 27/13/13 14/14/14 15/16/16
f 3/17/17 22/18/18 24/19/19 4/20/20
f 31/21/21 29/15/15 15/16/16 16/22/22
f 18/23/23 31/21/21 16/22/22 9/24/24
f 1/4/25 2/25/25 3/17/25 4/20/25 5/26/25 6/27/25 7/28/25 8/1/25
f 10/7/26 9/24/26 16/22/26 15/16/26 14/14/26 13/12/26 12/10/26 11/8/26
f 6/27/27 28/29/28 30/30/29 7/28/30
f 2/25/31 20/31/32 22/18/18 3/17/17
f 1/4/4 17/3/3 20/31/32 2/25/31
f 4/20/20 24/19/19 26/32/33 5/26/34
f 7/28/30 30/30/29 32/2/2 8/1/1
f 5/26/34 26/32/33 28/29/28 6/27/27
f 20/31/32 17/3/3 18/23/23 19/6/6
f 22/18/18 20/31/32 19/6/6 21/5/5
f 24/19/19 22/18/18 21/5/5 23/9/9
f 26/32/33 24/19/19 23/9/9 25/11/11
f 28/29/28 26/32/33 25/11/11 27/13/13
f 30/30/29 28/29/28 27/13/13 29/15/15
f 32/2/2 30/30/29 29/15/15 31/21/21
f 17/3/3 32/2/2 31/21/21 18/23/23
f 19/6/6 18/23/23 9/24/24 10/7/7
f 68/33/35 39/34/36 46/35/37
f 56/36/38 54/37/39 41/38/40 42/39/41
f 63/40/42 62/41/43 44/42/44 41/43/45
f 61/44/46 63/40/42 41/43/45 54/45/47
f 40/46/48 57/47/49 47/48/50 34/49/51
f 39/50/52 59/51/53 46/52/54
f 37/53/55 66/54/56 33/55/57
f 62/41/58 37/56/59 33/57/60
f 46/58/61 36/59/62 40/60/63
f 65/61/64 66/54/56 37/53/55 38/62/65
f 53/63/66 57/64/67 40/60/63 36/59/62
f 42/39/41 41/38/40 44/65/68 45/66/69
f 33/67/70 43/68/71 45/69/72
f 59/51/73 64/70/74 53/71/75 36/72/76
f 35/73/77 42/74/78 45/69/72 43/68/71
f 44/65/68 33/75/79 45/66/69
f 34/49/51 46/76/80 40/46/48
f 48/77/81 56/78/82 42/74/78 35/73/77
f 67/79/83 47/80/84 49/81/85 69/82/86
f 69/82/86 49/81/85 48/83/87 70/84/88
f 54/37/39 56/36/38 58/85/89 55/86/90
f 55/86/90 58/85/89 57/64/67 53/63/66
f 51/87/91 64/70/92 59/51/53 39/50/52
f 64/70/92 51/87/91 52/88/93 60/89/94
f 56/78/82 48/77/81 49/90/95 58/91/96
f 58/91/96 49/90/95 47/48/50 57/47/49
f 52/92/97 69/82/98 70/84/99 50/93/100
f 38/94/101 63/40/102 61/44/103 50/95/104
f 37/56/59 62/41/58 63/40/102 38/94/101
f 68/33/35 67/79/105 51/96/106 39/34/36
f 51/96/106 67/79/105 69/82/98 52/92/97
f 70/84/99 65/61/64 38/62/65 50/93/100
f 53/71/75 64/70/74 60/89/107 55/97/108
f 55/97/108 60/89/107 61/44/46 54/45/47
f 35/98/109 43/99/110 66/54/111 65/61/112
f 48/83/87 35/98/109 65/61/112 70/84/88
f 34/100/113 47/80/84 67/79/83 68/33/114
f 34/100/113 68/33/114 46/35/115
f 36/72/76 46/52/116 59/51/73
f 44/42/44 62/41/43 33/57/117
f 43/99/110 33/55/118 66/54/111
f 60/89/94 52/88/93 50/95/104 61/44/103
f 77/101/119 85/102/120 75/103/121 73/104/122
f 95/105/123 92/106/124 72/107/125 79/108/126
f 72/107/125 92/106/124 71/109/127
f 90/110/128 72/111/129 71/112/130
f 71/113/131 73/104/122 75/103/121
f 72/111/129 90/110/128 89/114/132 79/115/133
f 74/116/134 71/117/135 75/118/136
f 93/119/137 76/120/137 78/121/138 94/122/139
f 94/122/139 78/121/138 77/123/140 95/105/141
f 83/124/142 85/125/143 87/126/144 84/127/145
f 84/127/145 87/126/144 86/128/146 82/129/146
f 91/130/147 80/131/147 81/132/148 88/133/149
f 85/102/120 77/101/119 78/134/150 87/135/151
f 87/135/151 78/134/150 76/136/152 86/137/152
f 81/138/153 94/122/154 95/105/123 79/108/126
f 89/114/155 90/110/156 74/139/134 83/140/157
f 80/141/158 93/119/158 94/122/154 81/138/153
f 82/142/159 91/130/159 88/133/160 84/143/161
f 84/143/161 88/133/160 89/114/155 83/140/157
f 74/116/134 75/118/136 85/125/143 83/124/142
f 74/139/134 90/110/156 71/112/135
f 73/144/122 71/109/131 92/106/162
f 88/133/149 81/132/148 79/115/133 89/114/132
f 77/123/140 73/144/122 92/106/162 95/105/141
f 102/145/163 110/146/164 100/147/165 98/148/166
f 120/149/167 117/150/168 97/151/169 104/152/170
f 97/151/169 117/150/168 96/153/171
f 115/154/172 97/155/173 96/156/174
f 96/157/175 98/148/166 100/147/165
f 97/155/173 115/154/172 114/158/176 104/159/177
f 99/160/178 96/161/179 100/162/180
f 118/163/181 101/164/181 103/165/182 119/166/183
f 119/166/183 103/165/182 102/167/184 120/149/185
f 108/168/186 110/169/187 112/170/188 109/171/189
f 109/171/189 112/170/188 111/172/190 107/173/190
f 116/174/191 105/175/191 106/176/192 113/177/193
f 110/146/164 102/145/163 103/178/194 112/179/195
f 112/179/195 103/178/194 101/180/196 111/181/196
f 106/182/197 119/166/198 120/149/167 104/152/170
f 114/158/199 115/154/200 99/183/178 108/184/201
f 105/185/202 118/163/202 119/166/198 106/182/197
f 107/186/203 116/174/203 113/177/204 109/187/205
f 109/187/205 113/177/204 114/158/199 108/184/201
f 99/160/178 100/162/180 110/169/187 108/168/186
f 99/183/178 115/154/200 96/156/179
f 98/188/166 96/153/175 117/150/206
f 113/177/193 106/176/192 104/159/177 114/158/176
f 102/167/184 98/188/166 117/150/206 120/149/185
f 127/189/207 135/190/208 125/191/209 123/192/210
f 145/193/211 142/194/212 122/195/213 129/196/214
f 122/195/213 142/194/212 121/197/215
f 140/198/216 122/199/217 121/200/218
f 121/201/219 123/192/210 125/191/209
f 122/199/217 140/198/216 139/202/220 129/203/221
f 124/204/222 121/205/223 125/206/224
f 143/207/225 126/208/225 128/209/226 144/210/227
f 144/210/227 128/209/226 127/211/228 145/193/229
f 133/212/230 135/213/231 137/214/232 134/215/233
f 134/215/233 137/214/232 136/216/234 132/217/234
f 141/218/235 130/219/235 131/220/236 138/221/237
f 135/190/208 127/189/207 128/222/238 137/223/239
f 137/223/239 128/222/238 126/224/240 136/225/240
f 131/226/241 144/210/242 145/193/211 129/196/214
f 139/202/243 140/198/244 124/227/222 133/228/245
f 130/229/246 143/207/246 144/210/242 131/226/241
f 132/230/247 141/218/247 138/221/248 134/231/249
f 134/231/249 138/221/248 139/202/243 133/228/245
f 124/204/222 125/206/224 135/213/231 133/212/230
f 124/227/222 140/198/244 121/200/223
f 123/232/210 121/197/219 142/194/250
f 138/221/237 131/220/236 129/203/221 139/202/220
f 127/211/228 123/232/210 142/194/250 145/193/229
f 181/233/251 152/234/252 159/235/253
f 169/236/254 167/237/255 154/238/256 155/239/257
f 176/240/258 175/241/259 157/242/260 154/243/261
f 174/244/262 176/240/258 154/243/261 167/245/263
f 153/246/264 170/247/265 160/248/266 147/249/267
f 152/250/268 172/251/269 159/252/270
f 150/253/271 179/254/272 146/255/273
f 175/241/274 150/256/275 146/257/276
f 159/258/277 149/259/278 153/260/279
f 178/261/280 179/254/272 150/253/271 151/262/281
f 166/263/282 170/264/283 153/260/279 149/259/278
f 155/239/257 154/238/256 157/265/284 158/266/285
f 146/267/286 156/268/287 158/269/288
f 172/251/289 177/270/290 166/271/291 149/272/292
f 148/273/293 155/274/294 158/269/288 156/268/287
f 157/265/284 146/275/295 158/266/285
f 147/249/267 159/276/296 153/246/264
f 161/277/297 169/278/298 155/274/294 148/273/293
f 180/279/299 160/280/300 162/281/301 182/282/302
f 182/282/302 162/281/301 161/283/303 183/284/304
f 167/237/255 169/236/254 171/285/305 168/286/306
f 168/286/306 171/285/305 170/264/283 166/263/282
f 164/287/307 177/270/308 172/251/269 152/250/268
f 177/270/308 164/287/307 165/288/309 173/289/310
f 169/278/298 161/277/297 162/290/311 171/291/312
f 171/291/312 162/290/311 160/248/266 170/247/265
f 165/292/313 182/282/314 183/284/315 163/293/316
f 151/294/317 176/240/318 174/244/319 163/295/320
f 150/256/275 175/241/274 176/240/318 151/294/317
f 181/233/251 180/279/321 164/296/322 152/234/252
f 164/296/322 180/279/321 182/282/314 165/292/313
f 183/284/315 178/261/280 151/262/281 163/293/316
f 166/271/291 177/270/290 173/289/323 168/297/324
f 168/297/324 173/289/323 174/244/262 167/245/263
f 148/298/325 156/299/326 179/254/327 178/261/328
f 161/283/303 148/298/325 178/261/328 183/284/304
f 147/300/329 160/280/300 180/279/299 181/233/330
f 147/300/329 181/233/330 159/235/331
f 149/272/292 159/252/332 172/251/289
f 157/242/260 175/241/259 146/257/333
f 156/299/326 146/255/334 179/254/327
f 173/289/310 165/288/309 163/295/320 174/244/319
f 219/301/335 190/302/336 197/303/337
f 207/304/338 205/305/339 192/306/340 193/307/341
f 214/308/342 213/309/343 195/310/344 192/311/345
f 212/312/346 214/308/342 192/311/345 205/313/347
f 191/314/348 208/315/349 198/316/350 185/317/351
f 190/318/352 210/319/353 197/320/354
f 188/321/355 217/322/356 184/323/357
f 213/309/358 188/324/359 184/325/360
f 197/326/361 187/327/362 191/328/363
f 216/329/364 217/322/356 188/321/355 189/330/365
f 204/331/366 208/332/367 191/328/363 187/327/362
f 193/307/341 192/306/340 195/333/368 196/334/369
f 184/335/370 194/336/371 196/337/372
f 210/319/373 215/338/374 204/339/375 187/340/376
f 186/341/377 193/342/378 196/337/372 194/336/371
f 195/333/368 184/343/379 196/334/369
f 185/317/351 197/344/380 191/314/348
f 199/345/381 207/346/382 193/342/378 186/341/377
f 218/347/383 198/348/384 200/349/385 220/350/386
f 220/350/386 200/349/385 199/351/387 221/352/388
f 205/305/339 207/304/338 209/353/389 206/354/390
f 206/354/390 209/353/389 208/332/367 204/331/366
f 202/355/391 215/338/392 210/319/353 190/318/352
f 215/338/392 202/355/391 203/356/393 211/357/394
f 207/346/382 199/345/381 200/358/395 209/359/396
f 209/359/396 200/358/395 198/316/350 208/315/349
f 203/360/397 220/350/398 221/352/399 201/361/400
f 189/362/401 214/308/402 212/312/403 201/363/404
f 188/324/359 213/309/358 214/308/402 189/362/401
f 219/301/335 218/347/405 202/364/406 190/302/336
f 202/364/406 218/347/405 220/350/398 203/360/397
f 221/352/399 216/329/364 189/330/365 201/361/400
f 204/339/375 215/338/374 211/357/407 206/365/408
f 206/365/408 211/357/407 212/312/346 205/313/347
f 186/366/409 194/367/410 217/322/411 216/329/412
f 199/351/387 186/366/409 216/329/412 221/352/388
f 185/368/413 198/348/384 218/347/383 219/301/414
f 185/368/413 219/301/414 197/303/415
f 187/340/376 197/320/416 210/319/373
f 195/310/344 213/309/343 184/325/417
f 194/367/410 184/323/418 217/322/411
f 211/357/394 203/356/393 201/363/404 212/312/403
f 239/369/419 237/370/420 227/371/421 228/372/422
f 243/373/423 242/374/424 230/375/425 227/376/426
f 244/377/427 291/378/428 234/379/429 224/380/430
f 226/381/431 240/382/432 233/383/433 223/384/434
f 232/385/435 225/386/436 226/387/437
f 236/388/438 240/389/439 226/387/437 225/386/436
f 228/372/422 227/371/421 230/390/440 231/391/441
f 222/392/442 229/393/443 231/394/444
f 237/395/445 286/396/446 243/373/423 227/376/426
f 224/397/447 228/398/448 231/394/444 229/393/443
f 230/390/440 222/399/449 231/391/441
f 223/384/434 232/400/435 226/381/431
f 234/401/450 239/402/451 228/398/448 224/397/447
f 223/403/434 294/404/452 295/405/453 232/406/435
f 235/407/454 292/408/455 293/409/456 233/410/457
f 237/370/420 239/369/419 241/411/458 238/412/459
f 238/412/459 241/411/458 240/389/439 236/388/438
f 239/402/451 234/401/450 235/413/460 241/414/461
f 241/414/461 235/413/460 233/383/433 240/382/432
f 238/415/462 287/416/463 286/396/446 237/395/445
f 225/417/436 289/418/464 288/419/465 236/420/466
f 224/380/430 229/421/467 245/422/468 244/423/427
f 233/410/457 293/409/456 294/404/452 223/403/434
f 234/379/429 291/378/428 292/408/455 235/407/454
f 232/424/435 290/425/469 289/418/464 225/417/436
f 286/396/446 278/426/470 268/427/471 243/428/423
f 230/375/425 242/374/424 222/429/472
f 229/421/467 222/430/473 245/422/468
f 262/431/474 260/432/475 250/433/476 251/434/477
f 244/377/427 245/435/468 253/436/478 250/437/479
f 249/438/480 263/439/481 256/440/482 246/441/483
f 255/442/484 248/443/485 249/444/486
f 259/445/487 263/446/488 249/444/486 248/443/485
f 251/434/477 250/433/476 253/447/489 254/448/490
f 222/392/491 252/449/492 254/450/493
f 265/451/494 296/452/495 257/453/496 247/454/497
f 247/455/498 251/456/499 254/450/493 252/449/492
f 253/447/489 222/399/500 254/448/490
f 246/441/483 255/457/484 249/438/480
f 257/458/501 262/459/502 251/456/499 247/455/498
f 246/460/483 299/461/503 300/462/504 255/463/484
f 258/464/505 297/465/506 298/466/507 256/467/508
f 260/432/475 262/431/474 264/468/509 261/469/510
f 261/469/510 264/468/509 263/446/488 259/445/487
f 262/459/502 257/458/501 258/470/511 264/471/512
f 264/471/512 258/470/511 256/440/482 263/439/481
f 291/378/428 260/472/513 261/473/514 292/408/455
f 294/404/452 293/409/456 259/474/515 248/475/485
f 247/454/497 252/476/516 266/477/517 265/478/494
f 256/467/508 298/466/507 299/461/503 246/460/483
f 257/453/496 296/452/495 297/465/506 258/464/505
f 294/404/452 248/475/485 255/479/484 295/405/453
f 297/465/506 282/480/518 280/481/519 298/466/507
f 253/436/478 245/435/468 222/429/473
f 252/476/516 222/430/520 266/477/517
f 283/482/521 281/483/522 271/484/523 272/485/524
f 265/451/494 266/486/517 274/487/525 271/488/526
f 289/418/464 267/489/527 277/490/528 288/419/465
f 270/491/529 284/492/530 277/493/531 267/494/527
f 276/495/532 269/496/533 270/497/534
f 280/498/535 284/499/536 270/497/534 269/496/533
f 272/485/524 271/484/523 274/500/537 275/501/538
f 222/392/539 273/502/540 275/503/541
f 281/504/542 296/452/495 265/451/494 271/488/526
f 268/505/543 272/506/544 275/503/541 273/502/540
f 274/500/537 222/399/545 275/501/538
f 267/494/527 276/507/532 270/491/529
f 278/508/546 283/509/547 272/506/544 268/505/543
f 290/425/469 276/510/532 267/489/527 289/418/464
f 287/416/463 288/419/465 277/490/528 279/511/548
f 281/483/522 283/482/521 285/512/549 282/513/550
f 282/513/550 285/512/549 284/499/536 280/498/535
f 283/509/547 278/508/546 279/514/551 285/515/552
f 285/515/552 279/514/551 277/493/531 284/492/530
f 296/452/495 281/504/542 282/480/518 297/465/506
f 299/461/503 298/466/507 280/481/519 269/516/533
f 268/427/471 273/517/553 242/518/424 243/428/423
f 292/408/455 261/473/514 259/474/515 293/409/456
f 286/396/446 287/416/463 279/511/548 278/426/470
f 299/461/503 269/516/533 276/519/532 300/462/504
f 260/472/513 291/378/428 244/377/427 250/437/479
f 274/487/525 266/486/517 222/429/520
f 273/517/553 222/430/472 242/518/424
f 290/520/469 232/521/435 295/522/453
f 300/523/504 295/522/453 255/524/484
f 290/520/469 295/522/453 300/523/504
f 276/525/532 290/520/469 300/523/504
f 236/420/466 288/419/465 287/416/463 238/415/462
