# Blender v3.4.1 OBJ File: 'December2025_ToySoldier_Assets_Export.blend'
# www.blender.org
mtllib Present_Base.mtl
o Present_Base
v -0.828000 0.000000 0.828000
v -0.828000 0.115000 0.828000
v -0.828000 0.000000 -0.828000
v -0.828000 0.115000 -0.828000
v 0.828000 0.000000 0.828000
v 0.828000 0.115000 0.828000
v 0.828000 0.000000 -0.828000
v 0.828000 0.115000 -0.828000
v 0.187057 0.000000 -0.828000
v -0.187057 0.000000 -0.828000
v -0.187057 0.115000 -0.828000
v 0.187057 0.115000 -0.828000
v -0.187057 0.000000 0.828000
v 0.187057 0.000000 0.828000
v 0.187057 0.115000 0.828000
v -0.187057 0.115000 0.828000
v -0.828000 0.000000 -0.187066
v -0.828000 0.000000 0.187067
v -0.828000 0.115000 0.187067
v -0.828000 0.115000 -0.187066
v 0.828000 0.000000 0.187067
v 0.828000 0.000000 -0.187066
v 0.828000 0.115000 -0.187066
v 0.828000 0.115000 0.187067
v 0.187057 0.115000 -0.187066
v 0.187057 0.115000 0.187067
v -0.187057 0.115000 -0.187066
v -0.187057 0.115000 0.187067
v -0.187057 0.000000 -0.187066
v -0.187057 0.000000 0.187067
v 0.187057 0.000000 -0.187066
v 0.187057 0.000000 0.187067
vt 0.713857 0.664973
vt 0.691919 0.664973
vt 0.691919 0.664973
vt 0.713857 0.664973
vt 0.659012 0.594142
vt 0.659012 0.602473
vt 0.659012 0.602473
vt 0.659012 0.594142
vt 0.659012 0.609767
vt 0.659012 0.618098
vt 0.680950 0.618098
vt 0.680950 0.609767
vt 0.713857 0.609767
vt 0.713857 0.618098
vt 0.691919 0.618098
vt 0.691919 0.609767
vt 0.659012 0.664973
vt 0.659012 0.664973
vt 0.680950 0.664973
vt 0.680950 0.664973
vt 0.691919 0.664973
vt 0.691919 0.664973
vt 0.713857 0.664973
vt 0.713857 0.664973
vt 0.555950 0.328517
vt 0.566919 0.328517
vt 0.566919 0.328517
vt 0.555950 0.328517
vt 0.055950 0.578517
vt 0.055950 0.578517
vt 0.034012 0.578517
vt 0.034012 0.578517
vt 0.680950 0.609767
vt 0.680950 0.618098
vt 0.659012 0.618098
vt 0.659012 0.609767
vt 0.691919 0.609767
vt 0.691919 0.618098
vt 0.713857 0.618098
vt 0.713857 0.609767
vt 0.555950 0.328517
vt 0.566919 0.328517
vt 0.566919 0.328517
vt 0.555950 0.328517
vt 0.534012 0.328517
vt 0.534012 0.328517
vt 0.066919 0.578517
vt 0.088857 0.578517
vt 0.088857 0.578517
vt 0.066919 0.578517
vt 0.680950 0.664973
vt 0.680950 0.664973
vt 0.659012 0.664973
vt 0.659012 0.664973
vt 0.034012 0.578517
vt 0.055950 0.578517
vt 0.055950 0.578517
vt 0.034012 0.578517
vt 0.588857 0.328517
vt 0.588857 0.328517
vt 0.088857 0.578517
vt 0.088857 0.578517
vt 0.066919 0.578517
vt 0.066919 0.578517
vt 0.713857 0.594142
vt 0.713857 0.602473
vt 0.713857 0.602473
vt 0.713857 0.594142
vt 0.713857 0.594142
vt 0.713857 0.602473
vt 0.659012 0.594142
vt 0.659012 0.602473
vt 0.659012 0.602473
vt 0.659012 0.594142
vt 0.713857 0.594142
vt 0.713857 0.602473
vn 0.0000 1.0000 0.0000
vn -1.0000 0.0000 0.0000
vn 0.0000 0.0000 -1.0000
vn 0.0000 0.0000 1.0000
vn 0.0000 -1.0000 0.0000
vn 1.0000 0.0000 0.0000
usemtl toy_soldier
s off
f 24/1/1 26/2/1 15/3/1 6/4/1
f 1/5/2 2/6/2 19/7/2 18/8/2
f 3/9/3 4/10/3 11/11/3 10/12/3
f 5/13/4 6/14/4 15/15/4 14/16/4
f 4/17/1 20/18/1 27/19/1 11/20/1
f 12/21/1 11/20/1 27/19/1 25/22/1
f 12/21/1 25/22/1 23/23/1 8/24/1
f 10/25/5 9/26/5 31/27/5 29/28/5
f 10/29/5 29/30/5 17/31/5 3/32/5
f 13/33/4 16/34/4 2/35/4 1/36/4
f 14/16/4 15/15/4 16/34/4 13/33/4
f 9/37/3 12/38/3 8/39/3 7/40/3
f 10/12/3 11/11/3 12/38/3 9/37/3
f 30/41/5 32/42/5 14/43/5 13/44/5
f 29/28/5 31/27/5 32/42/5 30/41/5
f 17/45/5 29/28/5 30/41/5 18/46/5
f 32/47/5 21/48/5 5/49/5 14/50/5
f 26/2/1 28/51/1 16/52/1 15/3/1
f 25/22/1 27/19/1 28/51/1 26/2/1
f 23/23/1 25/22/1 26/2/1 24/1/1
f 28/51/1 19/53/1 2/54/1 16/52/1
f 20/18/1 19/53/1 28/51/1 27/19/1
f 18/55/5 30/56/5 13/57/5 1/58/5
f 22/59/5 21/60/5 32/42/5 31/27/5
f 7/61/5 22/62/5 31/63/5 9/64/5
f 21/65/6 24/66/6 6/67/6 5/68/6
f 22/69/6 23/70/6 24/66/6 21/65/6
f 17/71/2 20/72/2 4/73/2 3/74/2
f 18/8/2 19/7/2 20/72/2 17/71/2
f 7/75/6 8/76/6 23/70/6 22/69/6
