# Blender v3.4.1 OBJ File: 'December2025_ToySoldier_Assets_Export.blend'
# www.blender.org
mtllib Present_Base_Present_Top.mtl
o Present_Top
v -0.197665 3.059000 -0.963183
v 0.197657 3.059000 -0.963183
v 0.197657 3.105000 -0.913728
v -0.197665 3.105000 -0.913728
v -0.913732 3.059000 0.963183
v -0.913732 3.105000 0.913728
v -0.963187 3.059000 0.913728
v -0.913732 3.105000 -0.913728
v -0.913732 3.059000 -0.963183
v -0.963187 3.059000 -0.913728
v 0.913724 3.105000 0.913728
v 0.913724 3.059000 0.963183
v 0.963179 3.059000 0.913728
v 0.913724 3.105000 -0.913728
v 0.963179 3.059000 -0.913728
v 0.913724 3.059000 -0.963183
v 0.197657 3.105000 0.913728
v -0.197665 3.105000 0.913728
v -0.197665 3.059000 0.963183
v 0.197657 3.059000 0.963183
v -0.913732 3.105000 0.197661
v -0.913732 3.105000 -0.197661
v -0.963187 3.059000 -0.197661
v -0.963187 3.059000 0.197661
v 0.913724 3.105000 -0.197661
v 0.913724 3.105000 0.197661
v 0.963179 3.059000 0.197661
v 0.963179 3.059000 -0.197661
v 0.197657 3.105000 -0.197661
v 0.197657 3.105000 0.197661
v -0.197665 3.105000 -0.197661
v -0.197665 3.105000 0.197661
v -0.167333 3.133025 -0.926208
v 0.167325 3.133025 -0.926208
v 0.167325 3.070608 -0.993313
v -0.167333 3.070608 -0.993313
v 0.167325 3.133025 0.926209
v -0.167333 3.133025 0.926209
v -0.167333 3.070608 0.993313
v 0.167325 3.070608 0.993313
v 0.167325 3.135334 0.167329
v -0.167333 3.135334 0.167329
v -0.926212 3.133025 0.167329
v -0.926212 3.133025 -0.167329
v -0.993317 3.070608 -0.167329
v -0.993317 3.070608 0.167329
v 0.926205 3.133025 -0.167329
v 0.926205 3.133025 0.167329
v 0.993309 3.070608 0.167329
v 0.993309 3.070608 -0.167329
v 0.167325 3.135334 -0.167329
v -0.167333 3.135334 -0.167329
v 0.197657 2.769732 -0.963183
v 0.913724 2.769732 -0.963183
v 0.167325 2.769732 -0.993313
v 0.158853 2.739259 -0.948025
v -0.913732 2.769732 -0.963183
v -0.197665 2.769732 -0.963183
v -0.158853 2.739259 -0.948025
v -0.167333 2.769732 -0.993313
v -0.913732 2.769732 0.963183
v -0.963187 2.769732 0.913728
v -0.197665 2.769732 0.963183
v -0.963187 2.769732 0.197661
v -0.963187 2.769732 -0.197661
v -0.963187 2.769732 -0.913728
v 0.963179 2.769732 0.197661
v 0.963179 2.769732 0.913728
v 0.913724 2.769732 0.963183
v 0.197657 2.769732 0.963183
v 0.963179 2.769732 -0.913728
v 0.963179 2.769732 -0.197661
v 0.158853 2.739259 0.948025
v 0.167325 2.769732 0.993313
v -0.167333 2.769732 0.993313
v -0.158853 2.739259 0.948025
v -0.948025 2.739259 0.158853
v -0.993317 2.769732 0.167329
v -0.993317 2.769732 -0.167329
v -0.948025 2.739259 -0.158853
v 0.993309 2.769732 -0.167329
v 0.948025 2.739259 -0.158853
v 0.948025 2.739259 0.158853
v 0.993309 2.769732 0.167329
v 0.146533 3.090831 0.128456
v 0.048304 3.089823 0.201179
v 0.098292 3.090327 0.179430
v 0.099244 3.267911 0.054064
v 0.032713 3.303454 0.041816
v 0.032713 3.268783 0.116325
v 0.066570 3.292863 0.045155
v 0.063461 3.288616 0.082501
v 0.032713 3.293480 0.089181
v 0.066570 3.268348 0.097841
v -0.048313 3.089823 0.201179
v -0.146533 3.090831 0.128456
v -0.098296 3.090327 0.179430
v -0.032725 3.303454 0.041816
v -0.099249 3.267911 0.054064
v -0.032725 3.268783 0.116325
v -0.066578 3.292863 0.045155
v -0.063469 3.288616 0.082501
v -0.066578 3.268348 0.097841
v -0.032725 3.293480 0.089181
v 0.048304 3.089823 -0.201168
v 0.146533 3.090831 -0.128445
v 0.098292 3.090327 -0.179419
v 0.032713 3.303454 -0.041805
v 0.099244 3.267911 -0.054053
v 0.032713 3.268783 -0.116314
v 0.066570 3.292863 -0.045144
v 0.063461 3.288616 -0.082489
v 0.066570 3.268348 -0.097830
v 0.032713 3.293480 -0.089169
v -0.146533 3.090831 -0.128445
v -0.048313 3.089823 -0.201168
v -0.098296 3.090327 -0.179419
v -0.032725 3.303454 -0.041805
v -0.032725 3.268783 -0.116314
v -0.099249 3.267911 -0.054053
v -0.032725 3.293480 -0.089169
v -0.063469 3.288616 -0.082489
v -0.066578 3.268348 -0.097830
v -0.066578 3.292863 -0.045144
v 0.176676 3.351152 0.114633
v 0.525201 3.340241 0.114843
v 0.176682 3.351167 -0.113861
v 0.525187 3.340265 -0.114665
v 0.224301 3.293592 0.066127
v 0.224274 3.293628 -0.066041
v 0.144537 3.390620 0.054738
v 0.144553 3.390607 -0.054631
v 0.559725 3.358267 -0.053155
v 0.559730 3.358267 0.053165
v 0.476882 3.311884 0.064313
v 0.476884 3.311901 -0.064318
v 0.101347 3.161752 0.114148
v 0.095411 3.207666 0.114509
v 0.120919 3.274537 0.114756
v 0.204954 3.155181 0.115427
v 0.557483 3.275233 0.114550
v 0.552015 3.213694 0.114549
v 0.510663 3.177230 0.114799
v 0.262155 3.407421 0.114648
v 0.362533 3.425460 0.114666
v 0.457020 3.399445 0.114728
v 0.101348 3.161816 -0.113871
v 0.095408 3.207747 -0.114055
v 0.120924 3.274587 -0.114098
v 0.204979 3.155177 -0.115080
v 0.557481 3.275228 -0.114428
v 0.551991 3.213677 -0.114313
v 0.510637 3.177217 -0.114406
v 0.262144 3.407418 -0.113893
v 0.362499 3.425463 -0.114051
v 0.456984 3.399469 -0.114338
v 0.160099 3.203059 0.067741
v 0.160061 3.203063 -0.067733
v 0.162287 3.208303 0.066010
v 0.162258 3.208348 -0.065981
v 0.181330 3.244946 0.065349
v 0.181306 3.244977 -0.065282
v 0.476087 3.438520 0.053858
v 0.476077 3.438515 -0.053807
v 0.363428 3.476932 0.054807
v 0.363422 3.476915 -0.054724
v 0.245133 3.459025 0.055098
v 0.245139 3.459004 -0.054994
v 0.193178 3.106222 0.054402
v 0.193181 3.106230 -0.054359
v 0.287864 3.332358 0.066625
v 0.287841 3.332397 -0.066540
v 0.360782 3.350565 0.066458
v 0.360767 3.350602 -0.066393
v 0.428050 3.342786 0.065393
v 0.428042 3.342813 -0.065360
v 0.223074 3.214634 0.064473
v 0.223084 3.214618 -0.064444
v 0.545294 3.136358 0.055157
v 0.545284 3.136364 -0.055099
v 0.593948 3.187302 0.055023
v 0.593938 3.187303 -0.054997
v 0.599732 3.270207 0.053851
v 0.599728 3.270204 -0.053852
v 0.078246 3.293563 0.054262
v 0.078263 3.293562 -0.054170
v 0.049373 3.203460 0.054450
v 0.049385 3.203478 -0.054393
v 0.061251 3.134209 0.055108
v 0.061256 3.134226 -0.055088
v 0.496851 3.276008 0.065139
v 0.496863 3.276007 -0.065146
v 0.491014 3.248587 0.066931
v 0.491017 3.248562 -0.066915
v 0.465326 3.234276 0.066090
v 0.465320 3.234247 -0.066055
v -0.176667 3.351149 -0.114633
v -0.525192 3.340238 -0.114843
v -0.176673 3.351164 0.113861
v -0.525178 3.340262 0.114665
v -0.224292 3.293589 -0.066127
v -0.224265 3.293625 0.066041
v -0.144528 3.390618 -0.054738
v -0.144544 3.390604 0.054631
v -0.559716 3.358265 0.053155
v -0.559721 3.358264 -0.053166
v -0.476873 3.311882 -0.064313
v -0.476875 3.311898 0.064318
v -0.101338 3.161749 -0.114148
v -0.095402 3.207664 -0.114509
v -0.120909 3.274534 -0.114756
v -0.204945 3.155179 -0.115427
v -0.557474 3.275230 -0.114550
v -0.552005 3.213691 -0.114549
v -0.510654 3.177227 -0.114799
v -0.262146 3.407418 -0.114648
v -0.362524 3.425457 -0.114667
v -0.457011 3.399442 -0.114729
v -0.101339 3.161813 0.113871
v -0.095399 3.207745 0.114055
v -0.120915 3.274584 0.114098
v -0.204970 3.155174 0.115080
v -0.557472 3.275226 0.114427
v -0.551982 3.213674 0.114313
v -0.510628 3.177213 0.114406
v -0.262135 3.407415 0.113893
v -0.362490 3.425461 0.114051
v -0.456975 3.399467 0.114338
v -0.160090 3.203057 -0.067741
v -0.160052 3.203060 0.067733
v -0.162278 3.208301 -0.066010
v -0.162249 3.208345 0.065981
v -0.181321 3.244943 -0.065349
v -0.181297 3.244974 0.065282
v -0.476078 3.438517 -0.053858
v -0.476068 3.438512 0.053807
v -0.363419 3.476929 -0.054808
v -0.363413 3.476912 0.054724
v -0.245124 3.459023 -0.055098
v -0.245130 3.459002 0.054994
v -0.193169 3.106219 -0.054402
v -0.193172 3.106228 0.054359
v -0.287855 3.332355 -0.066625
v -0.287832 3.332394 0.066540
v -0.360773 3.350562 -0.066458
v -0.360758 3.350599 0.066393
v -0.428041 3.342782 -0.065393
v -0.428033 3.342811 0.065360
v -0.223065 3.214631 -0.064473
v -0.223075 3.214615 0.064444
v -0.545285 3.136355 -0.055158
v -0.545275 3.136361 0.055099
v -0.593939 3.187299 -0.055023
v -0.593929 3.187300 0.054996
v -0.599723 3.270204 -0.053852
v -0.599719 3.270201 0.053851
v -0.078237 3.293560 -0.054262
v -0.078254 3.293559 0.054170
v -0.049364 3.203456 -0.054450
v -0.049376 3.203475 0.054393
v -0.061242 3.134206 -0.055108
v -0.061246 3.134223 0.055088
v -0.496842 3.276005 -0.065139
v -0.496854 3.276004 0.065146
v -0.491005 3.248584 -0.066931
v -0.491008 3.248559 0.066915
v -0.465316 3.234273 -0.066090
v -0.465311 3.234245 0.066054
v -0.172369 2.739259 -0.847717
v -0.805331 2.739259 -0.847717
v 0.805331 2.739259 -0.847717
v 0.172369 2.739259 -0.847717
v 0.172369 2.739259 0.847717
v 0.805331 2.739259 0.847717
v 0.847717 2.739259 -0.172369
v 0.847717 2.739259 -0.805331
v -0.805331 2.739259 0.847717
v -0.172369 2.739259 0.847717
v -0.847717 2.739259 0.172369
v -0.847717 2.739259 0.805331
v 0.847717 2.739259 0.805331
v 0.847717 2.739259 0.172369
v -0.847717 2.739259 -0.805331
v -0.847717 2.739259 -0.172369
v -0.172369 3.084259 -0.847717
v -0.805331 3.084259 -0.847717
v 0.805331 3.084259 -0.847717
v 0.172369 3.084259 -0.847717
v 0.172369 3.084259 0.847717
v 0.805331 3.084259 0.847717
v 0.847717 3.084259 -0.172369
v 0.847717 3.084259 -0.805331
v -0.805331 3.084259 0.847717
v -0.172369 3.084259 0.847717
v -0.847717 3.084259 0.172369
v -0.847717 3.084259 0.805331
v 0.847717 3.084259 0.805331
v 0.847717 3.084259 0.172369
v -0.847717 3.084259 -0.805331
v -0.847717 3.084259 -0.172369
v 0.187067 3.084259 0.187067
v -0.187067 3.084259 0.187067
v 0.187067 3.084259 -0.187067
v -0.187067 3.084259 -0.187067
v 0.680382 3.084259 -0.565382
v 0.680382 3.084259 0.565382
v -0.680382 3.084259 -0.565382
v -0.680382 3.084259 0.565382
vt 0.100771 0.670278
vt 0.100771 0.657519
vt 0.103704 0.657519
vt 0.103704 0.670278
vt 0.058047 0.657586
vt 0.033311 0.657586
vt 0.033311 0.657586
vt 0.058047 0.657586
vt 0.033311 0.670278
vt 0.033311 0.673211
vt 0.030378 0.670278
vt 0.033311 0.673211
vt 0.033311 0.670278
vt 0.030378 0.670278
vt 0.100771 0.673211
vt 0.103704 0.670278
vt 0.103704 0.657519
vt 0.100771 0.657519
vt 0.100771 0.670278
vt 0.100771 0.673211
vt 0.532503 0.389307
vt 0.532503 0.370354
vt 0.533161 0.370954
vt 0.533161 0.390406
vt 0.033311 0.673211
vt 0.030378 0.670278
vt 0.058047 0.641894
vt 0.058047 0.654653
vt 0.033311 0.654653
vt 0.033311 0.641894
vt 0.076035 0.673211
vt 0.076035 0.670278
vt 0.100771 0.673211
vt 0.103704 0.670278
vt 0.058047 0.673211
vt 0.058047 0.670278
vt 0.532503 0.389307
vt 0.532503 0.393663
vt 0.533161 0.396318
vt 0.533161 0.390406
vt 0.076035 0.673211
vt 0.076035 0.670278
vt 0.523461 0.393663
vt 0.532503 0.393663
vt 0.533161 0.396536
vt 0.523191 0.396318
vt 0.058047 0.673211
vt 0.058047 0.670278
vt 0.532503 0.393663
vt 0.523461 0.393663
vt 0.523191 0.396318
vt 0.533161 0.396536
vt 0.100771 0.657586
vt 0.076035 0.657586
vt 0.076035 0.657586
vt 0.100771 0.657586
vt 0.532503 0.393663
vt 0.533161 0.396318
vt 0.539079 0.393663
vt 0.548120 0.393663
vt 0.548391 0.396318
vt 0.538421 0.396536
vt 0.100771 0.657586
vt 0.076035 0.657586
vt 0.076035 0.657586
vt 0.100771 0.657586
vt 0.539079 0.389307
vt 0.539079 0.393663
vt 0.538421 0.396318
vt 0.538421 0.390406
vt 0.548120 0.393663
vt 0.539079 0.393663
vt 0.538421 0.396536
vt 0.548391 0.396318
vt 0.100771 0.673211
vt 0.103704 0.670278
vt 0.522389 0.389307
vt 0.522389 0.370354
vt 0.521736 0.370954
vt 0.521736 0.390406
vt 0.033311 0.673211
vt 0.030378 0.670278
vt 0.549193 0.389307
vt 0.549193 0.370354
vt 0.549846 0.370954
vt 0.549846 0.390406
vt 0.058047 0.657586
vt 0.033311 0.657586
vt 0.033311 0.657586
vt 0.058047 0.657586
vt 0.585296 0.443193
vt 0.580036 0.443193
vt 0.580036 0.437281
vt 0.585296 0.437281
vt 0.580036 0.443193
vt 0.585296 0.443193
vt 0.585296 0.437281
vt 0.580036 0.437281
vt 0.585296 0.443411
vt 0.580036 0.443411
vt 0.580036 0.443411
vt 0.585296 0.443411
vt 0.595266 0.443193
vt 0.595266 0.443193
vt 0.596721 0.437281
vt 0.596721 0.437281
vt 0.570066 0.443193
vt 0.570066 0.443193
vt 0.568611 0.437281
vt 0.568611 0.437281
vt 0.539079 0.393663
vt 0.539079 0.389307
vt 0.538421 0.390406
vt 0.538421 0.396318
vt 0.549193 0.389307
vt 0.549846 0.390406
vt 0.522389 0.389307
vt 0.521736 0.390406
vt 0.549193 0.370354
vt 0.549846 0.370954
vt 0.585296 0.417829
vt 0.580036 0.417829
vt 0.596721 0.417829
vt 0.596721 0.417829
vt 0.568611 0.417829
vt 0.568611 0.417829
vt 0.033311 0.657519
vt 0.030378 0.657519
vt 0.522389 0.370354
vt 0.521736 0.370954
vt 0.539079 0.370354
vt 0.538421 0.370954
vt 0.100771 0.641894
vt 0.100771 0.654653
vt 0.076035 0.654653
vt 0.076035 0.641894
vt 0.103704 0.641894
vt 0.103704 0.654653
vt 0.103704 0.654653
vt 0.103704 0.641894
vt 0.532503 0.370354
vt 0.533161 0.370954
vt 0.030378 0.641894
vt 0.030378 0.654653
vt 0.030378 0.654653
vt 0.030378 0.641894
vt 0.580036 0.417829
vt 0.585296 0.417829
vt 0.103704 0.641894
vt 0.103704 0.654653
vt 0.103704 0.654653
vt 0.103704 0.641894
vt 0.030378 0.641894
vt 0.030378 0.654653
vt 0.030378 0.654653
vt 0.030378 0.641894
vt 0.033311 0.657519
vt 0.030378 0.657519
vt 0.076035 0.641894
vt 0.076035 0.654653
vt 0.100771 0.654653
vt 0.100771 0.641894
vt 0.033311 0.641894
vt 0.033311 0.654653
vt 0.058047 0.654653
vt 0.058047 0.641894
vt 0.058047 0.639940
vt 0.033311 0.639941
vt 0.549846 0.368066
vt 0.549193 0.367452
vt 0.549193 0.367452
vt 0.549846 0.368066
vt 0.580036 0.414941
vt 0.585296 0.414941
vt 0.100771 0.639940
vt 0.076035 0.639941
vt 0.596721 0.414941
vt 0.596721 0.414941
vt 0.568611 0.414941
vt 0.568611 0.414941
vt 0.585296 0.414941
vt 0.580036 0.414941
vt 0.522389 0.367452
vt 0.521736 0.368066
vt 0.532503 0.367452
vt 0.533161 0.368066
vt 0.521736 0.368066
vt 0.522389 0.367452
vt 0.538421 0.368066
vt 0.539079 0.367452
vt 0.076035 0.639940
vt 0.100771 0.639941
vt 0.103704 0.639940
vt 0.103704 0.639941
vt 0.533161 0.368066
vt 0.532503 0.367452
vt 0.033311 0.639940
vt 0.058047 0.639941
vt 0.030378 0.639940
vt 0.030378 0.639941
vt 0.103704 0.655565
vt 0.100771 0.655565
vt 0.103704 0.639940
vt 0.103704 0.639941
vt 0.030378 0.639940
vt 0.030378 0.639941
vt 0.030378 0.655565
vt 0.033311 0.655565
vt 0.539079 0.367452
vt 0.538421 0.368066
vt 0.538421 0.370954
vt 0.539079 0.370354
vt 0.033311 0.655565
vt 0.030378 0.655565
vt 0.100771 0.655565
vt 0.103704 0.655565
vt 0.573616 0.435770
vt 0.566103 0.469054
vt 0.551879 0.469054
vt 0.544364 0.435770
vt 0.581898 0.435573
vt 0.574295 0.469252
vt 0.574295 0.469252
vt 0.581898 0.435573
vt 0.564491 0.477089
vt 0.553489 0.477089
vt 0.553489 0.477089
vt 0.564491 0.477089
vt 0.536083 0.435573
vt 0.543686 0.469252
vt 0.543686 0.469252
vt 0.536083 0.435573
vt 0.544364 0.435770
vt 0.551879 0.469054
vt 0.566103 0.469054
vt 0.573616 0.435770
vt 0.553050 0.474694
vt 0.548136 0.473734
vt 0.546119 0.469153
vt 0.547258 0.474834
vt 0.553050 0.474694
vt 0.548136 0.473734
vt 0.547258 0.474834
vt 0.546119 0.469153
vt 0.564930 0.474694
vt 0.569845 0.473734
vt 0.570723 0.474834
vt 0.571863 0.469153
vt 0.570723 0.474834
vt 0.569845 0.473734
vt 0.564930 0.474694
vt 0.571863 0.469153
vt 0.538560 0.435672
vt 0.538560 0.435672
vt 0.579421 0.435672
vt 0.579421 0.435672
vt 0.527079 0.451875
vt 0.534558 0.447814
vt 0.539304 0.452878
vt 0.532466 0.459913
vt 0.524429 0.436880
vt 0.528007 0.438623
vt 0.542309 0.432719
vt 0.541437 0.428653
vt 0.544527 0.438488
vt 0.542309 0.432719
vt 0.577985 0.453357
vt 0.571595 0.454248
vt 0.525764 0.444575
vt 0.532663 0.443274
vt 0.522863 0.454268
vt 0.521528 0.444913
vt 0.524429 0.436880
vt 0.528007 0.438623
vt 0.542309 0.432719
vt 0.528007 0.438623
vt 0.534277 0.439716
vt 0.544527 0.438488
vt 0.579295 0.471581
vt 0.574311 0.476711
vt 0.570989 0.470729
vt 0.574951 0.467445
vt 0.574785 0.461147
vt 0.580466 0.463192
vt 0.541437 0.428653
vt 0.581832 0.452133
vt 0.541923 0.467726
vt 0.546690 0.458862
vt 0.555435 0.464765
vt 0.553617 0.473993
vt 0.584251 0.463756
vt 0.582429 0.474047
vt 0.576134 0.480777
vt 0.565472 0.482278
vt 0.565214 0.477379
vt 0.563961 0.469233
vt 0.577985 0.453357
vt 0.544527 0.438488
vt 0.571595 0.454248
vt 0.534277 0.439716
vt 0.525764 0.444575
vt 0.532663 0.443274
vt 0.552374 0.479149
vt 0.539329 0.472594
vt 0.528828 0.463880
vt 0.528828 0.463880
vt 0.532466 0.459913
vt 0.527079 0.451875
vt 0.522863 0.454268
vt 0.534558 0.447814
vt 0.534277 0.439716
vt 0.539304 0.452878
vt 0.574951 0.467445
vt 0.579295 0.471581
vt 0.580466 0.463192
vt 0.574785 0.461147
vt 0.521528 0.444913
vt 0.546690 0.458862
vt 0.541923 0.467726
vt 0.553617 0.473993
vt 0.555435 0.464765
vt 0.581832 0.452133
vt 0.570989 0.470729
vt 0.574311 0.476711
vt 0.576134 0.480777
vt 0.565214 0.477379
vt 0.565472 0.482278
vt 0.582429 0.474047
vt 0.584251 0.463756
vt 0.563961 0.469233
vt 0.552374 0.479149
vt 0.539329 0.472594
vt 0.527079 0.451875
vt 0.534558 0.447814
vt 0.539304 0.452878
vt 0.532466 0.459913
vt 0.524429 0.436880
vt 0.541437 0.428653
vt 0.544527 0.438488
vt 0.542309 0.432719
vt 0.577985 0.453357
vt 0.571595 0.454248
vt 0.525764 0.444575
vt 0.532663 0.443274
vt 0.522863 0.454268
vt 0.521528 0.444913
vt 0.524429 0.436880
vt 0.528007 0.438623
vt 0.579295 0.471581
vt 0.574311 0.476711
vt 0.570989 0.470729
vt 0.574951 0.467445
vt 0.574785 0.461147
vt 0.580466 0.463192
vt 0.541437 0.428653
vt 0.581832 0.452133
vt 0.541923 0.467726
vt 0.546690 0.458862
vt 0.555435 0.464765
vt 0.553617 0.473993
vt 0.584251 0.463756
vt 0.582429 0.474047
vt 0.576134 0.480777
vt 0.565472 0.482278
vt 0.565214 0.477379
vt 0.563961 0.469233
vt 0.577985 0.453357
vt 0.571595 0.454248
vt 0.525764 0.444575
vt 0.532663 0.443274
vt 0.552374 0.479149
vt 0.539329 0.472594
vt 0.528828 0.463880
vt 0.528828 0.463880
vt 0.532466 0.459913
vt 0.527079 0.451875
vt 0.522863 0.454268
vt 0.534558 0.447814
vt 0.534277 0.439716
vt 0.539304 0.452878
vt 0.574951 0.467445
vt 0.579295 0.471581
vt 0.580466 0.463192
vt 0.574785 0.461147
vt 0.521528 0.444913
vt 0.546690 0.458862
vt 0.541923 0.467726
vt 0.553617 0.473993
vt 0.555435 0.464765
vt 0.581832 0.452133
vt 0.570989 0.470729
vt 0.574311 0.476711
vt 0.576134 0.480777
vt 0.565214 0.477379
vt 0.565472 0.482278
vt 0.582429 0.474047
vt 0.584251 0.463756
vt 0.563961 0.469233
vt 0.552374 0.479149
vt 0.539329 0.472594
vt 0.728704 0.639941
vt 0.728704 0.639940
vt 0.728704 0.639940
vt 0.728704 0.639941
vt 0.655378 0.655565
vt 0.658311 0.655565
vt 0.658311 0.655565
vt 0.655378 0.655565
vt 0.728704 0.639941
vt 0.728704 0.639940
vt 0.728704 0.639940
vt 0.728704 0.639941
vt 0.683047 0.639941
vt 0.658311 0.639940
vt 0.658311 0.639940
vt 0.683047 0.639941
vt 0.674193 0.617452
vt 0.674193 0.617452
vt 0.674193 0.617452
vt 0.674193 0.617452
vt 0.725771 0.639941
vt 0.701035 0.639940
vt 0.701035 0.639940
vt 0.725771 0.639941
vt 0.657503 0.617452
vt 0.664079 0.617452
vt 0.664079 0.617452
vt 0.657503 0.617452
vt 0.658311 0.655565
vt 0.655378 0.655565
vt 0.655378 0.655565
vt 0.658311 0.655565
vt 0.647389 0.617452
vt 0.647389 0.617452
vt 0.647389 0.617452
vt 0.647389 0.617452
vt 0.664079 0.617452
vt 0.657503 0.617452
vt 0.657503 0.617452
vt 0.664079 0.617452
vt 0.725771 0.655565
vt 0.728704 0.655565
vt 0.728704 0.655565
vt 0.725771 0.655565
vt 0.701035 0.639941
vt 0.725771 0.639940
vt 0.725771 0.639940
vt 0.701035 0.639941
vt 0.655378 0.639941
vt 0.655378 0.639940
vt 0.655378 0.639940
vt 0.655378 0.639941
vt 0.728704 0.655565
vt 0.725771 0.655565
vt 0.725771 0.655565
vt 0.728704 0.655565
vt 0.655378 0.639941
vt 0.655378 0.639940
vt 0.655378 0.639940
vt 0.655378 0.639941
vt 0.658311 0.639941
vt 0.683047 0.639940
vt 0.683047 0.639940
vt 0.658311 0.639941
vt 0.657503 0.613071
vt 0.685897 0.613071
vt 0.701035 0.613071
vt 0.657503 0.613071
vt 0.657503 0.613071
vt 0.664079 0.613071
vt 0.679217 0.613071
vt 0.657503 0.613071
vt 0.728704 0.613071
vt 0.674193 0.613071
vt 0.647389 0.613071
vt 0.655378 0.613071
vt 0.656464 0.613071
vt 0.658311 0.613071
vt 0.670928 0.613071
vt 0.725771 0.613071
vt 0.722683 0.613071
vt 0.725771 0.613071
vt 0.723479 0.613071
vt 0.728704 0.613071
vt 0.657488 0.613071
vt 0.658311 0.613071
vt 0.656792 0.613071
vt 0.655378 0.613071
vt 0.723348 0.613071
vt 0.679523 0.613071
vt 0.728704 0.613071
vt 0.648915 0.613071
vt 0.655378 0.613071
vt 0.656403 0.613071
vt 0.701378 0.613071
vt 0.657341 0.613071
vt 0.682553 0.613071
vt 0.657348 0.613071
vt 0.724035 0.613071
vt 0.656782 0.613071
vt 0.686937 0.613071
vt 0.655603 0.613071
vn 0.4579 0.4804 0.7480
vn 0.7071 0.0000 0.7071
vn 0.9239 0.0000 0.3827
vn 0.8705 0.3562 0.3395
vn 0.0000 1.0000 0.0000
vn -0.3659 0.9306 0.0000
vn -0.3288 0.8853 0.3288
vn 0.0000 0.9307 0.3659
vn -0.3395 0.3562 0.8705
vn -0.7480 0.4804 0.4579
vn -0.3288 0.8853 -0.3288
vn -0.3395 0.3562 -0.8705
vn -0.7480 0.4804 -0.4579
vn 0.3288 0.8853 0.3288
vn 0.8705 0.3562 -0.3395
vn 0.9239 0.0000 -0.3827
vn 0.7071 0.0000 -0.7071
vn 0.4579 0.4804 -0.7480
vn 0.3288 0.8853 -0.3288
vn -0.7283 0.2805 0.6252
vn -0.7047 0.0000 0.7095
vn -0.7286 0.2696 0.6296
vn -0.6811 0.7322 0.0000
vn 0.0000 0.0000 1.0000
vn -0.3827 0.0000 0.9239
vn 0.0000 0.9307 -0.3659
vn 0.0000 0.7322 -0.6811
vn 0.3659 0.9306 0.0000
vn 0.6811 0.7322 0.0000
vn 0.0000 0.7322 0.6811
vn -0.7283 0.2805 -0.6252
vn -0.7176 0.6495 -0.2514
vn -0.7175 0.6456 -0.2614
vn -0.7286 0.2696 -0.6296
vn -0.2514 0.6495 0.7176
vn -0.0011 0.7208 0.6931
vn -0.2614 0.6456 0.7175
vn -0.0011 0.7208 -0.6931
vn -0.2514 0.6495 -0.7176
vn -0.2614 0.6456 -0.7175
vn -0.7176 0.6495 0.2514
vn -0.7175 0.6456 0.2614
vn 0.0011 0.7208 0.6931
vn 0.2514 0.6495 0.7176
vn 0.3454 0.8664 0.3607
vn 0.0011 0.9925 0.1223
vn 0.7283 0.2805 0.6252
vn 0.7176 0.6495 0.2514
vn 0.7175 0.6456 0.2614
vn 0.7286 0.2696 0.6296
vn 0.2514 0.6495 -0.7176
vn 0.0011 0.7208 -0.6931
vn 0.2614 0.6456 -0.7175
vn -0.6252 0.2805 -0.7283
vn -0.7095 0.0000 -0.7047
vn -0.6296 0.2696 -0.7286
vn 0.6252 0.2805 0.7283
vn 0.7095 0.0000 0.7047
vn 0.9245 0.0000 0.3811
vn 0.8547 0.3699 0.3642
vn -0.6931 0.7208 0.0011
vn 0.6931 0.7208 0.0011
vn 0.0000 0.9301 0.3673
vn 0.0000 0.9301 -0.3673
vn -0.0010 1.0000 0.0010
vn -0.0010 1.0000 -0.0010
vn 0.0010 1.0000 -0.0010
vn 0.3673 0.9301 0.0000
vn -0.3673 0.9301 0.0000
vn 0.7176 0.6495 -0.2514
vn 0.7283 0.2805 -0.6252
vn 0.7286 0.2696 -0.6296
vn 0.7175 0.6456 -0.2614
vn 0.6252 0.2805 -0.7283
vn 0.6296 0.2696 -0.7286
vn 0.6931 0.7208 -0.0011
vn -0.6931 0.7208 -0.0011
vn -0.6252 0.2805 0.7283
vn -0.6296 0.2696 0.7286
vn 0.7095 0.0000 -0.7047
vn 1.0000 0.0000 0.0000
vn -1.0000 0.0000 0.0000
vn -0.3827 0.0000 -0.9239
vn -0.7071 0.0000 -0.7071
vn -0.7095 0.0000 0.7047
vn 0.7047 0.0000 0.7095
vn -0.7047 0.0000 -0.7095
vn 0.0000 0.0000 -1.0000
vn -0.7071 0.0000 0.7071
vn -0.0870 -0.9804 -0.1770
vn 0.0000 -0.9669 -0.2552
vn -0.0550 -0.9770 -0.2062
vn 0.1883 -0.8068 -0.5600
vn 0.1883 -0.8068 0.5600
vn 0.3601 -0.8647 0.3502
vn 0.4221 -0.8693 0.2573
vn 0.0000 -0.8297 0.5583
vn 0.0870 -0.9804 -0.1770
vn 0.0550 -0.9770 -0.2062
vn 0.5583 -0.8296 0.0000
vn -0.5582 -0.8297 0.0000
vn 0.0000 -0.8297 -0.5583
vn -0.1882 -0.8068 -0.5600
vn -0.5600 -0.8068 0.1882
vn -0.1882 -0.8068 0.5600
vn 0.5600 -0.8068 0.1883
vn 0.0870 -0.9804 0.1770
vn 0.0000 -0.9669 0.2552
vn 0.0550 -0.9770 0.2062
vn 0.1770 -0.9804 -0.0870
vn 0.2552 -0.9669 0.0000
vn 0.2062 -0.9770 -0.0550
vn -0.5600 -0.8068 -0.1882
vn -0.0870 -0.9804 0.1770
vn -0.0550 -0.9770 0.2062
vn -0.1770 -0.9804 0.0870
vn -0.2552 -0.9669 0.0000
vn -0.2062 -0.9770 0.0550
vn 0.1770 -0.9804 0.0870
vn 0.2062 -0.9770 0.0550
vn -0.1770 -0.9804 -0.0870
vn -0.2062 -0.9770 -0.0550
vn 0.5600 -0.8068 -0.1883
vn 0.7047 0.0000 -0.7095
vn 0.8530 0.3702 -0.3679
vn 0.8090 0.5441 -0.2226
vn 0.8090 0.5441 0.2226
vn 0.8530 0.3702 0.3679
vn -0.1972 0.4386 -0.8768
vn -0.1766 0.5733 -0.8000
vn 0.1766 0.5733 -0.8000
vn 0.1972 0.4386 -0.8768
vn -0.1359 0.9865 -0.0919
vn -0.1359 0.9865 0.0919
vn 0.1359 0.9865 0.0919
vn 0.1359 0.9865 -0.0919
vn 0.1972 0.4386 0.8768
vn 0.1766 0.5733 0.8000
vn -0.1766 0.5733 0.8000
vn -0.1972 0.4386 0.8768
vn -0.8530 0.3702 0.3679
vn -0.8090 0.5441 0.2226
vn -0.8090 0.5441 -0.2226
vn -0.8530 0.3702 -0.3679
vn 0.4624 0.8789 0.1172
vn 0.4460 0.8035 0.3943
vn 0.5248 0.5585 0.6424
vn 0.1451 0.8736 0.4646
vn -0.4624 0.8789 0.1172
vn -0.4460 0.8035 0.3943
vn -0.1451 0.8736 0.4646
vn -0.5248 0.5585 0.6424
vn 0.4624 0.8789 -0.1172
vn 0.4460 0.8035 -0.3943
vn 0.1451 0.8736 -0.4646
vn 0.5248 0.5585 -0.6424
vn -0.1451 0.8736 -0.4646
vn -0.4460 0.8035 -0.3943
vn -0.4624 0.8789 -0.1172
vn -0.5248 0.5585 -0.6424
vn 0.5394 0.4307 0.7236
vn -0.5394 0.4307 0.7236
vn -0.5394 0.4307 -0.7236
vn 0.5394 0.4307 -0.7236
vn 0.5072 -0.2978 0.8088
vn 0.5021 -0.3036 0.8098
vn 0.3711 -0.4087 0.8338
vn 0.3672 -0.4110 0.8344
vn -0.1793 -0.9515 -0.2500
vn -0.1205 -0.8114 -0.5720
vn -0.0200 -0.8050 -0.5929
vn -0.0518 -0.9521 -0.3013
vn -0.0357 0.6652 0.7458
vn -0.0286 0.6760 0.7364
vn -0.2294 0.5404 0.8096
vn -0.1756 0.5742 0.7997
vn 0.5805 -0.0762 0.8107
vn 0.5745 -0.1319 0.8078
vn -0.7049 0.3621 0.6099
vn -0.8509 0.4222 0.3125
vn -0.9492 0.0686 0.3071
vn -0.7887 0.0876 0.6085
vn -0.9445 -0.1548 0.2897
vn -0.7889 -0.1205 0.6026
vn 0.0280 0.6737 0.7385
vn 0.0116 0.6975 0.7165
vn 0.0352 0.6628 0.7479
vn -0.6148 -0.0868 0.7839
vn -0.5109 -0.4129 0.7540
vn -0.4944 -0.4304 0.7551
vn -0.6144 -0.1259 0.7788
vn -0.4838 0.2879 0.8265
vn -0.4850 0.2862 0.8264
vn -0.0518 -0.9525 0.3001
vn 0.4138 -0.8502 0.3254
vn 0.2811 -0.7089 0.6468
vn -0.0200 -0.8064 0.5910
vn 0.1969 -0.4928 0.8476
vn 0.2026 -0.4906 0.8475
vn 0.0022 -0.5520 0.8339
vn -0.0008 -0.5527 0.8334
vn 0.8610 -0.3939 0.3218
vn 0.7039 -0.3065 0.6408
vn 0.9446 0.1629 0.2849
vn 0.8073 0.1784 0.5626
vn 0.7839 0.5591 0.2700
vn 0.6741 0.5062 0.5379
vn 0.4883 0.8214 0.2949
vn 0.4139 0.6996 0.5825
vn -0.2513 -0.5564 0.7920
vn -0.2574 -0.5553 0.7908
vn -0.2294 0.5375 -0.8115
vn -0.0280 0.6737 -0.7385
vn -0.0352 0.6628 -0.7479
vn -0.1754 0.5716 -0.8016
vn 0.5843 0.0675 -0.8087
vn 0.5772 -0.0730 -0.8133
vn 0.5712 -0.1289 -0.8106
vn 0.0765 0.9417 0.3277
vn 0.0614 0.7632 0.6432
vn -0.3426 0.8758 0.3401
vn -0.2791 0.6936 0.6641
vn -0.6630 0.6720 0.3299
vn -0.5417 0.5425 0.6420
vn -0.6623 0.6715 -0.3322
vn -0.5394 0.5404 -0.6458
vn -0.7025 0.3615 -0.6131
vn -0.8502 0.4222 -0.3144
vn 0.5039 -0.2945 -0.8120
vn 0.4988 -0.3003 -0.8131
vn -0.1315 0.9913 -0.0001
vn -0.1806 0.9836 -0.0000
vn 0.3640 -0.4070 -0.8378
vn 0.3678 -0.4048 -0.8372
vn -0.6134 -0.1259 -0.7797
vn -0.6137 -0.0871 -0.7847
vn -0.4845 0.2837 -0.8275
vn -0.4831 0.2857 -0.8276
vn -0.1793 -0.9518 0.2490
vn -0.9487 0.0690 -0.3085
vn -0.7868 0.0882 -0.6109
vn -0.7876 -0.1191 -0.6046
vn -0.9443 -0.1542 -0.2908
vn 0.2003 -0.4861 -0.8506
vn 0.1946 -0.4884 -0.8507
vn -0.0020 -0.5486 -0.8361
vn 0.0011 -0.5478 -0.8366
vn 0.2803 -0.7077 -0.6485
vn 0.4135 -0.8500 -0.3264
vn -0.4939 -0.4287 -0.7565
vn -0.5104 -0.4112 -0.7553
vn 0.7836 0.5591 -0.2707
vn 0.6733 0.5060 -0.5391
vn 0.4127 0.6985 -0.5846
vn 0.4878 0.8212 -0.2961
vn 0.9444 0.1627 -0.2856
vn 0.8066 0.1782 -0.5636
vn 0.8606 -0.3940 -0.3227
vn 0.7026 -0.3064 -0.6422
vn -0.2576 -0.5522 -0.7929
vn -0.2513 -0.5533 -0.7942
vn 0.0762 0.9411 -0.3295
vn -0.3424 0.8749 -0.3424
vn -0.2781 0.6904 -0.6678
vn 0.0608 0.7607 -0.6463
vn 0.9077 -0.4197 -0.0003
vn 0.8246 -0.5657 -0.0003
vn -0.0125 0.6997 0.7143
vn 0.6416 -0.7670 -0.0003
vn 0.3857 -0.9226 -0.0003
vn 0.0657 -0.9978 -0.0003
vn -0.1206 -0.8128 0.5700
vn -0.3309 -0.9437 -0.0002
vn -0.7268 -0.6868 -0.0001
vn -0.2927 0.9562 -0.0002
vn -0.9903 -0.1387 -0.0001
vn -0.9903 -0.1388 -0.0001
vn -0.9781 0.2083 -0.0001
vn -0.4867 0.8736 -0.0002
vn 0.9232 -0.3844 -0.0003
vn 0.5877 0.0647 0.8065
vn -0.5072 -0.2978 -0.8088
vn -0.5021 -0.3036 -0.8098
vn -0.3711 -0.4087 -0.8338
vn -0.3672 -0.4110 -0.8344
vn 0.1793 -0.9515 0.2500
vn 0.1205 -0.8114 0.5720
vn 0.0200 -0.8050 0.5929
vn 0.0518 -0.9521 0.3013
vn 0.0357 0.6652 -0.7458
vn 0.0286 0.6760 -0.7364
vn 0.2294 0.5404 -0.8096
vn 0.1756 0.5742 -0.7997
vn -0.5805 -0.0762 -0.8107
vn -0.5745 -0.1319 -0.8078
vn 0.7049 0.3621 -0.6098
vn 0.8509 0.4222 -0.3125
vn 0.9492 0.0686 -0.3071
vn 0.7887 0.0876 -0.6085
vn 0.9445 -0.1548 -0.2897
vn 0.7889 -0.1205 -0.6026
vn 0.6148 -0.0868 -0.7839
vn 0.5109 -0.4129 -0.7540
vn 0.4944 -0.4304 -0.7551
vn 0.6144 -0.1259 -0.7788
vn 0.4838 0.2879 -0.8265
vn 0.4850 0.2862 -0.8264
vn 0.0518 -0.9525 -0.3001
vn -0.4138 -0.8502 -0.3254
vn -0.2811 -0.7089 -0.6468
vn 0.0200 -0.8064 -0.5910
vn -0.1969 -0.4928 -0.8476
vn -0.2026 -0.4906 -0.8475
vn -0.0022 -0.5520 -0.8339
vn 0.0008 -0.5527 -0.8334
vn -0.8610 -0.3939 -0.3218
vn -0.7039 -0.3065 -0.6408
vn -0.9446 0.1629 -0.2849
vn -0.8073 0.1784 -0.5626
vn -0.7839 0.5591 -0.2700
vn -0.6741 0.5062 -0.5379
vn -0.4883 0.8214 -0.2949
vn -0.4139 0.6996 -0.5825
vn 0.2513 -0.5564 -0.7920
vn 0.2574 -0.5553 -0.7908
vn 0.2294 0.5375 0.8115
vn 0.1754 0.5716 0.8016
vn -0.5843 0.0675 0.8087
vn -0.5772 -0.0730 0.8133
vn -0.5712 -0.1289 0.8106
vn -0.0765 0.9417 -0.3277
vn -0.0614 0.7632 -0.6432
vn 0.3426 0.8758 -0.3401
vn 0.2791 0.6936 -0.6641
vn 0.6630 0.6720 -0.3299
vn 0.5417 0.5425 -0.6420
vn 0.6623 0.6715 0.3323
vn 0.5394 0.5404 0.6458
vn 0.7025 0.3615 0.6131
vn 0.8502 0.4222 0.3144
vn -0.5039 -0.2945 0.8120
vn -0.4988 -0.3003 0.8131
vn 0.1315 0.9913 0.0001
vn 0.1806 0.9836 0.0000
vn -0.3640 -0.4070 0.8378
vn -0.3678 -0.4048 0.8372
vn 0.6134 -0.1259 0.7797
vn 0.6137 -0.0871 0.7847
vn 0.4845 0.2837 0.8275
vn 0.4831 0.2857 0.8276
vn 0.1793 -0.9518 -0.2490
vn 0.9487 0.0690 0.3085
vn 0.7868 0.0882 0.6109
vn 0.7876 -0.1191 0.6046
vn 0.9443 -0.1542 0.2908
vn -0.2003 -0.4861 0.8506
vn -0.1946 -0.4884 0.8507
vn 0.0020 -0.5486 0.8361
vn -0.0011 -0.5478 0.8366
vn -0.2803 -0.7077 0.6485
vn -0.4135 -0.8500 0.3264
vn 0.4939 -0.4287 0.7565
vn 0.5104 -0.4112 0.7553
vn -0.7836 0.5591 0.2707
vn -0.6733 0.5060 0.5391
vn -0.4127 0.6985 0.5846
vn -0.4878 0.8212 0.2961
vn -0.9444 0.1627 0.2856
vn -0.8066 0.1782 0.5636
vn -0.8606 -0.3940 0.3227
vn -0.7026 -0.3064 0.6422
vn 0.2576 -0.5522 0.7929
vn 0.2513 -0.5533 0.7942
vn -0.0762 0.9411 0.3295
vn 0.3424 0.8749 0.3424
vn 0.2781 0.6904 0.6678
vn -0.0608 0.7607 0.6463
vn -0.9077 -0.4197 0.0003
vn -0.8246 -0.5657 0.0003
vn 0.0125 0.6997 -0.7143
vn -0.6416 -0.7670 0.0003
vn -0.3857 -0.9226 0.0003
vn -0.0657 -0.9978 0.0003
vn 0.1206 -0.8127 -0.5700
vn 0.3309 -0.9437 0.0002
vn 0.7268 -0.6868 0.0001
vn 0.2927 0.9562 0.0002
vn 0.9903 -0.1387 0.0001
vn 0.9903 -0.1388 0.0001
vn 0.9781 0.2083 0.0001
vn 0.4867 0.8736 0.0002
vn -0.9232 -0.3844 0.0003
vn -0.5877 0.0647 -0.8065
vn -0.0116 0.6975 -0.7165
vn 0.0000 -1.0000 0.0000
vn -0.9239 0.0000 0.3827
vn 0.3827 0.0000 -0.9239
usemtl toy_soldier
s 1
f 12/1/1 69/2/2 68/3/3 13/4/4
f 32/5/5 21/6/6 6/7/7 18/8/8
f 5/9/9 6/10/7 7/11/10
f 8/12/11 9/13/12 10/14/13
f 11/15/14 12/1/1 13/4/4
f 15/16/15 71/17/16 54/18/17 16/19/18
f 14/20/19 15/16/15 16/19/18
f 19/21/20 63/22/21 75/23/21 39/24/22
f 22/25/6 8/12/11 10/14/13 23/26/23
f 63/27/24 19/28/24 5/29/9 61/30/25
f 3/31/26 14/20/19 16/19/18 2/32/27
f 26/33/28 11/15/14 13/4/4 27/34/29
f 18/35/8 6/10/7 5/9/9 19/36/30
f 1/37/31 4/38/32 33/39/33 36/40/34
f 11/15/14 17/41/8 20/42/30 12/1/1
f 21/43/35 32/44/36 42/45/36 43/46/37
f 8/12/11 4/47/26 1/48/27 9/13/12
f 31/49/38 22/50/39 44/51/40 52/52/38
f 26/53/28 30/54/5 17/55/8 11/56/14
f 18/57/41 19/21/20 39/24/22 38/58/42
f 30/59/43 26/60/44 48/61/45 41/62/46
f 14/63/19 3/64/26 29/65/5 25/66/28
f 20/67/47 17/68/48 37/69/49 40/70/50
f 25/71/51 29/72/52 51/73/52 47/74/53
f 14/20/19 25/75/28 28/76/29 15/16/15
f 23/77/54 65/78/55 79/79/55 45/80/56
f 6/10/7 21/81/6 24/82/23 7/11/10
f 27/83/57 67/84/58 84/85/59 49/86/60
f 4/87/26 8/88/11 22/89/6 31/90/5
f 32/44/61 18/57/41 38/58/42 42/45/61
f 22/50/39 23/77/54 45/80/56 44/51/40
f 17/68/48 30/59/62 41/62/62 37/69/49
f 37/91/63 38/92/63 39/93/30 40/94/30
f 33/95/64 34/96/64 35/97/27 36/98/27
f 41/99/46 42/100/65 38/92/63 37/91/63
f 34/96/64 33/95/64 52/101/66 51/102/67
f 51/102/67 52/101/66 42/100/65 41/99/46
f 47/103/68 51/102/67 41/99/46 48/104/45
f 47/103/68 48/104/45 49/105/60 50/106/29
f 43/107/69 44/108/69 45/109/23 46/110/23
f 52/101/66 44/108/69 43/107/69 42/100/65
f 3/111/70 2/112/71 35/113/72 34/114/73
f 28/115/74 25/71/51 47/74/53 50/116/75
f 26/60/44 27/83/57 49/86/60 48/61/45
f 29/72/76 3/111/70 34/114/73 51/73/76
f 4/38/32 31/49/77 52/52/77 33/39/33
f 24/117/78 21/43/35 43/46/37 46/118/79
f 72/119/80 28/115/74 50/116/75 81/120/80
f 74/121/24 40/94/24 39/93/24 75/122/24
f 81/123/81 50/106/81 49/105/60 84/124/59
f 78/125/82 46/110/82 45/109/82 79/126/82
f 9/13/12 57/127/83 66/128/84 10/14/13
f 64/129/85 24/117/78 46/118/79 78/130/85
f 70/131/86 20/67/47 40/70/50 74/132/86
f 69/133/24 12/134/24 20/135/24 70/136/24
f 71/137/16 15/138/15 28/139/81 72/140/81
f 58/141/87 1/37/31 36/40/34 60/142/87
f 62/143/82 7/144/82 24/145/82 64/146/82
f 60/147/88 36/98/88 35/97/88 55/148/88
f 67/149/81 27/150/81 13/151/4 68/152/3
f 65/153/82 23/154/82 10/155/82 66/156/82
f 61/157/25 5/9/9 7/11/10 62/158/89
f 53/159/88 2/160/88 16/161/88 54/162/88
f 57/163/83 9/164/12 1/165/88 58/166/88
f 57/163/90 58/166/91 269/167/91 270/168/92
f 72/119/93 81/120/93 82/169/93 275/170/93
f 282/171/94 83/172/95 84/85/96 67/84/94
f 74/121/97 75/122/97 76/173/97 73/174/97
f 53/159/91 54/162/98 271/175/99 272/176/91
f 81/123/100 84/124/96 83/177/95 82/178/100
f 78/125/101 79/126/101 80/179/101 77/180/101
f 60/147/102 55/148/102 56/181/102 59/182/102
f 284/183/103 80/184/103 79/79/103 65/78/103
f 278/185/104 76/186/104 75/23/104 63/22/104
f 64/129/105 78/130/105 77/187/105 279/188/105
f 70/131/106 74/132/106 73/189/106 273/190/106
f 69/133/107 70/136/108 273/191/108 274/192/109
f 71/137/110 72/140/111 275/193/111 276/194/112
f 58/141/113 60/142/113 59/195/113 269/196/113
f 63/27/108 61/30/114 277/197/115 278/198/108
f 62/143/116 64/146/117 279/199/117 280/200/118
f 276/201/112 271/202/99 54/18/98 71/17/110
f 67/149/111 68/152/119 281/203/120 282/204/111
f 65/153/117 66/156/121 283/205/122 284/206/117
f 61/157/114 62/158/116 280/207/118 277/208/115
f 272/209/123 56/210/123 55/211/123 53/212/123
f 270/213/92 283/214/122 66/128/121 57/127/90
f 274/215/109 281/216/120 68/3/119 69/2/107
f 2/112/71 53/212/124 55/211/124 35/113/72
f 106/217/125 109/218/126 88/219/127 85/220/128
f 116/221/129 119/222/130 110/223/131 105/224/132
f 118/225/133 98/226/134 89/227/135 108/228/136
f 86/229/137 90/230/138 100/231/139 95/232/140
f 96/233/141 99/234/142 120/235/143 115/236/144
f 88/219/127 91/237/145 92/238/146 94/239/147
f 89/227/135 93/240/148 92/238/146 91/237/145
f 90/230/138 94/239/147 92/238/146 93/240/148
f 98/226/134 101/241/149 102/242/150 104/243/151
f 99/234/142 103/244/152 102/242/150 101/241/149
f 100/231/139 104/243/151 102/242/150 103/244/152
f 108/228/136 111/245/153 112/246/154 114/247/155
f 109/218/126 113/248/156 112/246/154 111/245/153
f 110/223/131 114/247/155 112/246/154 113/248/156
f 118/225/133 121/249/157 122/250/158 124/251/159
f 119/222/130 123/252/160 122/250/158 121/249/157
f 120/235/143 124/251/159 122/250/158 123/252/160
f 85/220/128 88/219/127 94/239/147 87/253/161
f 87/253/161 94/239/147 90/230/138 86/229/137
f 89/227/135 98/226/134 104/243/151 93/240/148
f 93/240/148 104/243/151 100/231/139 90/230/138
f 99/234/142 96/233/141 97/254/162 103/244/152
f 103/244/152 97/254/162 95/232/140 100/231/139
f 98/226/134 118/225/133 124/251/159 101/241/149
f 101/241/149 124/251/159 120/235/143 99/234/142
f 119/222/130 116/221/129 117/255/163 123/252/160
f 123/252/160 117/255/163 115/236/144 120/235/143
f 118/225/133 108/228/136 114/247/155 121/249/157
f 121/249/157 114/247/155 110/223/131 119/222/130
f 109/218/126 106/217/125 107/256/164 113/248/156
f 113/248/156 107/256/164 105/224/132 110/223/131
f 108/228/136 89/227/135 91/237/145 111/245/153
f 111/245/153 91/237/145 88/219/127 109/218/126
f 139/257/165 161/258/166 129/259/167 125/260/168
f 190/261/169 147/262/170 150/263/171 170/264/172
f 177/265/173 140/266/174 143/267/175 195/268/176
f 138/269/177 159/270/178 161/258/166 139/257/165
f 139/257/179 185/271/180 187/272/181 138/269/182
f 138/269/182 187/272/181 189/273/183 137/274/184
f 222/275/185 219/276/186 230/277/186 250/278/187
f 141/279/188 126/280/189 135/281/190 191/282/191
f 141/279/188 191/282/191 193/283/192 142/284/193
f 169/285/194 179/286/195 143/267/196 140/266/197
f 142/284/193 193/283/192 195/268/176 143/267/175
f 144/287/198 125/260/168 129/259/167 171/288/199
f 144/287/198 171/288/199 173/289/200 145/290/201
f 143/267/196 179/286/195 181/291/202 142/284/203
f 142/284/203 181/291/202 183/292/204 141/279/205
f 141/279/205 183/292/204 134/293/206 126/280/207
f 126/280/207 134/293/206 163/294/208 146/295/209
f 145/290/201 173/289/200 175/296/210 146/295/211
f 126/280/189 146/295/211 175/296/210 135/281/190
f 153/297/212 150/263/213 178/298/214 196/299/215
f 158/300/216 147/262/216 148/301/217 160/302/218
f 146/295/209 163/294/208 165/303/219 145/290/220
f 145/290/220 165/303/219 167/304/221 144/287/222
f 144/287/222 167/304/221 131/305/223 125/260/224
f 132/306/225 127/307/226 149/308/227 186/309/228
f 160/302/218 148/301/217 149/308/229 162/310/230
f 177/265/231 178/298/231 158/300/232 157/311/232
f 149/308/229 127/307/233 130/312/234 162/310/230
f 192/313/235 151/314/236 152/315/237 194/316/238
f 189/273/239 190/261/169 170/264/172 169/285/194
f 188/317/240 148/301/241 147/262/242 190/261/243
f 186/309/228 149/308/227 148/301/241 188/317/240
f 172/318/244 154/319/245 155/320/246 174/321/247
f 170/264/172 150/263/171 153/297/248 180/322/249
f 194/316/238 152/315/237 153/297/212 196/299/215
f 136/323/250 128/324/251 151/314/236 192/313/235
f 133/325/252 128/324/253 156/326/254 164/327/255
f 184/328/256 151/314/257 128/324/253 133/325/252
f 182/329/258 152/315/259 151/314/257 184/328/256
f 180/322/249 153/297/248 152/315/259 182/329/258
f 174/321/247 155/320/246 156/326/260 176/330/261
f 130/312/234 127/307/233 154/319/245 172/318/244
f 156/326/260 128/324/251 136/323/250 176/330/261
f 163/294/208 164/327/255 166/331/262 165/303/219
f 168/332/263 154/319/264 127/307/226 132/306/225
f 166/331/262 155/320/265 154/319/264 168/332/263
f 164/327/255 156/326/254 155/320/265 166/331/262
f 159/270/266 160/302/266 162/310/267 161/258/267
f 137/274/268 140/266/174 177/265/173 157/311/268
f 161/258/267 162/310/267 130/312/269 129/259/269
f 171/288/270 172/318/270 174/321/271 173/289/271
f 165/303/219 166/331/262 168/332/263 167/304/221
f 133/325/252 164/327/255 163/294/208 134/293/206
f 167/304/221 168/332/263 132/306/225 131/305/223
f 170/264/172 180/322/249 179/286/195 169/285/194
f 169/285/194 140/266/197 137/274/272 189/273/239
f 179/286/195 180/322/249 182/329/258 181/291/202
f 173/289/271 174/321/271 176/330/273 175/296/273
f 129/259/269 130/312/269 172/318/270 171/288/270
f 175/296/273 176/330/273 136/323/274 135/281/274
f 195/268/275 196/299/275 178/298/231 177/265/231
f 191/282/276 192/313/277 194/316/278 193/283/278
f 181/291/202 182/329/258 184/328/256 183/292/204
f 183/292/204 184/328/256 133/325/252 134/293/206
f 185/271/180 186/309/228 188/317/240 187/272/181
f 187/272/181 188/317/240 190/261/243 189/273/183
f 131/305/223 132/306/225 186/309/228 185/271/180
f 193/283/279 194/316/279 196/299/275 195/268/275
f 135/281/274 136/323/274 192/313/277 191/282/276
f 125/260/224 131/305/223 185/271/180 139/257/179
f 157/311/280 158/300/280 160/302/266 159/270/266
f 138/269/177 137/274/281 157/311/281 159/270/178
f 211/333/282 233/334/283 201/335/284 197/336/285
f 262/337/286 219/276/287 222/275/288 242/338/289
f 249/339/290 212/340/291 215/341/292 267/342/293
f 210/343/294 231/344/295 233/334/283 211/333/282
f 211/333/296 257/345/297 259/346/298 210/343/299
f 210/343/299 259/346/298 261/347/300 209/348/301
f 213/349/302 198/350/303 207/351/304 263/352/305
f 213/349/302 263/352/305 265/353/306 214/354/307
f 241/355/308 251/356/309 215/341/310 212/340/311
f 214/354/307 265/353/306 267/342/293 215/341/292
f 216/357/312 197/336/285 201/335/284 243/358/313
f 216/357/312 243/358/313 245/359/314 217/360/315
f 215/341/310 251/356/309 253/361/316 214/354/317
f 214/354/317 253/361/316 255/362/318 213/349/319
f 213/349/319 255/362/318 206/363/320 198/350/321
f 198/350/321 206/363/320 235/364/322 218/365/323
f 217/360/315 245/359/314 247/366/324 218/365/325
f 198/350/303 218/365/325 247/366/324 207/351/304
f 225/367/326 222/275/185 250/278/187 268/368/327
f 230/277/328 219/276/328 220/369/329 232/370/330
f 218/365/323 235/364/322 237/371/331 217/360/332
f 217/360/332 237/371/331 239/372/333 216/357/334
f 216/357/334 239/372/333 203/373/335 197/336/336
f 204/374/337 199/375/338 221/376/339 258/377/340
f 232/370/330 220/369/329 221/376/341 234/378/342
f 249/339/343 250/278/343 230/277/344 229/379/344
f 221/376/341 199/375/345 202/380/346 234/378/342
f 264/381/347 223/382/348 224/383/349 266/384/350
f 261/347/351 262/337/286 242/338/289 241/355/308
f 260/385/352 220/369/353 219/276/354 262/337/355
f 258/377/340 221/376/339 220/369/353 260/385/352
f 244/386/356 226/387/357 227/388/358 246/389/359
f 242/338/289 222/275/288 225/367/360 252/390/361
f 266/384/350 224/383/349 225/367/326 268/368/327
f 208/391/362 200/392/363 223/382/348 264/381/347
f 205/393/364 200/392/365 228/394/366 236/395/367
f 256/396/368 223/382/369 200/392/365 205/393/364
f 254/397/370 224/383/371 223/382/369 256/396/368
f 252/390/361 225/367/360 224/383/371 254/397/370
f 246/389/359 227/388/358 228/394/372 248/398/373
f 202/380/346 199/375/345 226/387/357 244/386/356
f 228/394/372 200/392/363 208/391/362 248/398/373
f 235/364/322 236/395/367 238/399/374 237/371/331
f 240/400/375 226/387/376 199/375/338 204/374/337
f 238/399/374 227/388/377 226/387/376 240/400/375
f 236/395/367 228/394/366 227/388/377 238/399/374
f 231/344/378 232/370/378 234/378/379 233/334/379
f 209/348/380 212/340/291 249/339/290 229/379/380
f 233/334/379 234/378/379 202/380/381 201/335/381
f 243/358/382 244/386/382 246/389/383 245/359/383
f 237/371/331 238/399/374 240/400/375 239/372/333
f 205/393/364 236/395/367 235/364/322 206/363/320
f 239/372/333 240/400/375 204/374/337 203/373/335
f 242/338/289 252/390/361 251/356/309 241/355/308
f 241/355/308 212/340/311 209/348/384 261/347/351
f 251/356/309 252/390/361 254/397/370 253/361/316
f 245/359/383 246/389/383 248/398/385 247/366/385
f 201/335/381 202/380/381 244/386/382 243/358/382
f 247/366/385 248/398/385 208/391/386 207/351/386
f 267/342/387 268/368/387 250/278/343 249/339/343
f 263/352/388 264/381/389 266/384/390 265/353/390
f 253/361/316 254/397/370 256/396/368 255/362/318
f 255/362/318 256/396/368 205/393/364 206/363/320
f 257/345/297 258/377/340 260/385/352 259/346/298
f 259/346/298 260/385/352 262/337/355 261/347/300
f 203/373/335 204/374/337 258/377/340 257/345/297
f 265/353/391 266/384/391 268/368/387 267/342/387
f 207/351/386 208/391/386 264/381/389 263/352/388
f 197/336/336 203/373/335 257/345/297 211/333/296
f 229/379/392 230/277/392 232/370/378 231/344/378
f 210/343/294 209/348/393 229/379/393 231/344/295
f 150/263/213 147/262/394 158/300/394 178/298/214
f 73/189/395 76/186/395 278/185/395 273/190/395
f 77/187/395 80/184/395 284/183/395 279/188/395
f 56/210/395 272/209/395 269/196/395 59/195/395
f 82/178/395 83/177/395 282/171/395 275/170/395
f 276/401/396 275/402/82 291/403/82 292/404/396
f 283/405/3 270/406/2 286/407/2 299/408/3
f 282/409/82 281/410/82 297/411/82 298/412/82
f 278/413/88 277/414/397 293/415/397 294/416/88
f 275/417/82 282/418/82 298/419/82 291/420/82
f 274/421/83 273/422/88 289/423/88 290/424/83
f 269/425/24 272/426/24 288/427/24 285/428/24
f 277/429/397 280/430/17 296/431/17 293/432/397
f 279/433/81 284/434/81 300/435/81 295/436/81
f 273/437/88 278/438/88 294/439/88 289/440/88
f 271/441/89 276/442/396 292/443/396 287/444/89
f 272/445/24 271/446/24 287/447/24 288/448/24
f 284/449/81 283/450/3 299/451/3 300/452/81
f 281/453/84 274/454/83 290/455/83 297/456/84
f 280/457/81 279/458/81 295/459/81 296/460/81
f 270/461/24 269/462/24 285/463/24 286/464/24
f 302/465/395 301/466/395 289/467/395 294/468/395
f 285/469/395 288/470/395 303/471/395 304/472/395
f 304/472/395 303/471/395 301/466/395 302/465/395
f 303/471/395 291/473/395 298/474/395 301/466/395
f 300/475/395 304/472/395 302/465/395 295/476/395
f 307/477/395 286/478/395 285/469/395
f 305/479/395 288/470/395 287/480/395
f 306/481/395 290/482/395 289/467/395
f 305/483/395 292/484/395 291/473/395
f 308/485/395 294/468/395 293/486/395
f 308/487/395 296/488/395 295/476/395
f 305/489/395 287/480/395 292/484/395
f 306/490/395 298/474/395 297/491/395
f 307/492/395 300/475/395 299/493/395
f 308/487/395 293/486/395 296/488/395
f 307/494/395 299/493/395 286/478/395
f 306/481/395 297/491/395 290/482/395
f 306/495/395 289/467/395 301/466/395
f 308/496/395 302/465/395 294/468/395
f 305/497/395 303/471/395 288/470/395
f 307/498/395 285/469/395 304/472/395
f 305/499/395 291/473/395 303/471/395
f 307/500/395 304/472/395 300/475/395
f 306/501/395 301/466/395 298/474/395
f 308/502/395 295/476/395 302/465/395
