# Blender v3.4.1 OBJ File: 'December2025_ToySoldier_Assets_Export.blend'
# www.blender.org
mtllib Present_UnwrappedBase.mtl
o Present_UnwrappedBase
v -1.243264 -0.000000 1.243264
v -1.243264 -0.000000 -1.243264
v 1.243264 -0.000000 1.243264
v 1.243264 -0.000000 -1.243264
v 2.244868 -0.000000 -1.200120
v 2.006113 -0.000000 -1.156065
v 1.695961 -0.000000 -1.314517
v 1.695961 -0.000000 1.314517
v 2.013320 -0.000000 1.046471
v 2.244867 -0.000000 1.200120
v -1.200123 -0.000000 -2.244873
v -1.156065 -0.000000 -2.006113
v -1.314519 -0.000000 -1.695964
v 1.314519 -0.000000 -1.695964
v 1.046471 -0.000000 -2.013319
v 1.200123 -0.000000 -2.244873
v -2.244867 -0.000000 1.200120
v -2.006113 -0.000000 1.156065
v -1.695961 -0.000000 1.314517
v -1.695961 -0.000000 -1.314517
v -2.013320 -0.000000 -1.046471
v -2.244868 -0.000000 -1.200120
v 1.200123 -0.000000 2.244873
v 1.156065 -0.000000 2.006113
v 1.314519 -0.000000 1.695964
v -1.314519 -0.000000 1.695964
v -1.046471 -0.000000 2.013319
v -1.200123 -0.000000 2.244873
v -1.211414 -0.000000 0.000000
v 1.211414 -0.000000 0.000000
v 2.463449 -0.000000 -0.814363
v 2.403697 -0.000000 -0.497316
v 2.369071 -0.000000 -0.163384
v 2.423187 -0.000000 0.160211
v 2.344384 -0.000000 0.506894
v 2.463449 -0.000000 0.814363
v -2.463449 -0.000000 0.814363
v -2.403697 -0.000000 0.497316
v -2.369071 -0.000000 0.163384
v -2.423187 -0.000000 -0.160211
v -2.344384 -0.000000 -0.506894
v -2.463449 -0.000000 -0.814363
v 1.660122 -0.000000 0.000000
v 1.956139 -0.000000 0.000000
v 2.269325 -0.000000 0.693254
v 2.202015 -0.000000 -0.000000
v 2.269325 -0.000000 -0.693254
v -1.660122 -0.000000 0.000000
v -1.956139 -0.000000 0.000000
v -2.269325 -0.000000 -0.693254
v -2.202015 -0.000000 0.000000
v -2.269325 -0.000000 0.693254
v 0.000000 -0.000000 -1.211416
v -0.000000 -0.000000 1.211416
v -0.814368 -0.000000 -2.463463
v -0.497319 -0.000000 -2.403708
v -0.163385 -0.000000 -2.369084
v 0.160212 -0.000000 -2.423203
v 0.506896 -0.000000 -2.344393
v 0.814368 -0.000000 -2.463463
v 0.814368 -0.000000 2.463463
v 0.497319 -0.000000 2.403708
v 0.163385 -0.000000 2.369084
v -0.160212 -0.000000 2.423203
v -0.506896 -0.000000 2.344392
v -0.814368 -0.000000 2.463463
v -0.000000 -0.000000 -1.660128
v -0.000000 -0.000000 -1.956143
v 0.693256 -0.000000 -2.269331
v -0.000000 -0.000000 -2.202024
v -0.693256 -0.000000 -2.269331
v 0.000000 -0.000000 1.660128
v 0.000000 -0.000000 1.956143
v -0.693256 -0.000000 2.269331
v 0.000000 -0.000000 2.202024
v 0.693256 -0.000000 2.269331
v -0.000000 -0.000000 -0.000000
v -1.243738 0.036580 1.243738
v -1.243738 0.036580 -1.243738
v 1.243738 0.036580 1.243738
v 1.243738 0.036580 -1.243738
v 2.245580 0.032156 -1.200501
v 2.006790 0.034013 -1.156455
v 1.696561 0.035223 -1.314982
v 1.696561 0.035223 1.314982
v 2.014003 0.034136 1.046826
v 2.245580 0.032156 1.200501
v -1.200504 0.032156 -2.245585
v -1.156456 0.034013 -2.006791
v -1.314984 0.035223 -1.696564
v 1.314984 0.035223 -1.696564
v 1.046826 0.034136 -2.014002
v 1.200504 0.032156 -2.245585
v -2.245580 0.032156 1.200501
v -2.006790 0.034013 1.156455
v -1.696561 0.035223 1.314982
v -1.696561 0.035223 -1.314982
v -2.014003 0.034136 -1.046826
v -2.245580 0.032156 -1.200501
v 1.200504 0.032156 2.245585
v 1.156456 0.034013 2.006791
v 1.314984 0.035223 1.696564
v -1.314984 0.035223 1.696564
v -1.046826 0.034136 2.014002
v -1.200504 0.032156 2.245585
v -1.211849 0.035566 0.000000
v 1.211849 0.035566 0.000000
v 2.464192 0.030548 -0.814609
v 2.404434 0.031092 -0.497469
v 2.369788 0.030644 -0.163434
v 2.423906 0.030048 0.160258
v 2.345118 0.031691 0.507053
v 2.464192 0.030548 0.814609
v -2.464192 0.030548 0.814609
v -2.404434 0.031092 0.497469
v -2.369788 0.030644 0.163434
v -2.423906 0.030048 -0.160258
v -2.345118 0.031691 -0.507053
v -2.464192 0.030548 -0.814609
v 1.660692 0.034478 0.000000
v 1.956781 0.033166 0.000000
v 2.270053 0.032507 0.693477
v 2.202701 0.031542 -0.000000
v 2.270053 0.032507 -0.693477
v -1.660692 0.034478 0.000000
v -1.956781 0.033166 0.000000
v -2.270053 0.032507 -0.693477
v -2.202701 0.031542 0.000000
v -2.270053 0.032507 0.693477
v 0.000000 0.035566 -1.211851
v -0.000000 0.035566 1.211851
v -0.814614 0.030548 -2.464206
v -0.497471 0.031092 -2.404446
v -0.163434 0.030644 -2.369801
v 0.160259 0.030049 -2.423922
v 0.507054 0.031691 -2.345126
v 0.814614 0.030548 -2.464206
v 0.814614 0.030548 2.464206
v 0.497471 0.031092 2.404446
v 0.163434 0.030644 2.369801
v -0.160259 0.030049 2.423922
v -0.507054 0.031691 2.345125
v -0.814614 0.030548 2.464206
v -0.000000 0.034478 -1.660698
v -0.000000 0.033166 -1.956784
v 0.693479 0.032507 -2.270060
v -0.000000 0.031542 -2.202709
v -0.693479 0.032507 -2.270060
v 0.000000 0.034478 1.660698
v 0.000000 0.033166 1.956784
v -0.693479 0.032507 2.270060
v 0.000000 0.031542 2.202709
v 0.693479 0.032507 2.270060
v -0.000000 0.034632 -0.000000
v -0.891528 0.000000 0.891528
v -0.892071 0.061949 0.892071
v -0.891528 0.000000 -0.891528
v -0.892071 0.061949 -0.892071
v 0.891528 0.000000 0.891528
v 0.892071 0.061949 0.892071
v 0.891528 0.000000 -0.891528
v 0.892071 0.061949 -0.892071
v 0.776626 0.000000 2.286734
v 0.776992 0.053958 2.287809
v -0.776992 0.053958 2.287809
v -0.776626 0.000000 2.286734
v 0.776626 0.000000 -2.286734
v 0.776992 0.053958 -2.287809
v -0.776626 0.000000 -2.286734
v -0.776992 0.053958 -2.287809
v -2.286730 0.000000 -0.776625
v -2.287805 0.053958 -0.776990
v -2.287805 0.053958 0.776990
v -2.286730 0.000000 0.776625
v 2.286730 0.000000 0.776625
v 2.287805 0.053958 0.776990
v 2.286730 0.000000 -0.776625
v 2.287805 0.053958 -0.776990
v -0.867069 0.123933 0.867069
v 0.867069 0.123933 0.867069
v 0.867069 0.123933 -0.867069
v -0.867069 0.123933 -0.867069
v 0.866951 0.123916 0.917435
v -0.866951 0.123916 0.917435
v -0.757877 0.108325 2.274433
v 0.757877 0.108325 2.274433
v -0.917435 0.123916 0.866951
v -0.917435 0.123916 -0.866951
v -2.274424 0.108325 -0.757874
v -2.274424 0.108325 0.757874
v -0.866951 0.123916 -0.917435
v 0.866951 0.123916 -0.917435
v 0.757877 0.108325 -2.274433
v -0.757877 0.108325 -2.274433
v 0.917435 0.123916 -0.866951
v 0.917435 0.123916 0.866951
v 2.274424 0.108325 0.757874
v 2.274424 0.108325 -0.757874
vt 0.081022 0.664973
vt 0.081022 0.664973
vt 0.088857 0.664973
vt 0.088857 0.664973
vt 0.081022 0.664973
vt 0.081022 0.664973
vt 0.088857 0.664973
vt 0.041847 0.664973
vt 0.041847 0.664973
vt 0.034012 0.664973
vt 0.088857 0.664973
vt 0.088857 0.664973
vt 0.088857 0.664973
vt 0.034012 0.664973
vt 0.034012 0.664973
vt 0.034012 0.664973
vt 0.088857 0.664973
vt 0.088857 0.664973
vt 0.088857 0.664973
vt 0.088857 0.664973
vt 0.088857 0.664973
vt 0.081022 0.664973
vt 0.088857 0.664973
vt 0.081022 0.664973
vt 0.088857 0.664973
vt 0.034012 0.664973
vt 0.034012 0.664973
vt 0.034012 0.664973
vt 0.034012 0.664973
vt 0.034012 0.664973
vt 0.034012 0.664973
vt 0.041847 0.664973
vt 0.041847 0.664973
vt 0.034012 0.664973
vt 0.034012 0.664973
vt 0.041847 0.664973
vt 0.034012 0.664973
vt 0.034012 0.664973
vt 0.034012 0.664973
vt 0.034012 0.664973
vt 0.034012 0.664973
vt 0.088857 0.664973
vt 0.088857 0.664973
vt 0.088857 0.664973
vt 0.088857 0.664973
vt 0.034012 0.664973
vt 0.034012 0.664973
vt 0.034012 0.664973
vt 0.034012 0.664973
vt 0.034012 0.664973
vt 0.034012 0.664973
vt 0.088857 0.664973
vt 0.088857 0.664973
vt 0.088857 0.664973
vt 0.088857 0.664973
vt 0.088857 0.664973
vt 0.088857 0.664973
vt 0.081022 0.664973
vt 0.088857 0.664973
vt 0.081022 0.664973
vt 0.088857 0.664973
vt 0.041847 0.664973
vt 0.081022 0.664973
vt 0.065352 0.664973
vt 0.073187 0.664973
vt 0.065352 0.664973
vt 0.049682 0.664973
vt 0.057517 0.664973
vt 0.049682 0.664973
vt 0.088857 0.664973
vt 0.081022 0.664973
vt 0.057517 0.664973
vt 0.049682 0.664973
vt 0.073187 0.664973
vt 0.034012 0.664973
vt 0.041847 0.664973
vt 0.041847 0.664973
vt 0.057517 0.664973
vt 0.049682 0.664973
vt 0.057517 0.664973
vt 0.073187 0.664973
vt 0.065352 0.664973
vt 0.073187 0.664973
vt 0.034012 0.664973
vt 0.041847 0.664973
vt 0.041847 0.664973
vt 0.065352 0.664973
vt 0.073187 0.664973
vt 0.049682 0.664973
vt 0.081022 0.664973
vt 0.065352 0.664973
vt 0.034012 0.664973
vt 0.041847 0.664973
vt 0.057517 0.664973
vt 0.456022 0.289973
vt 0.463857 0.289973
vt 0.463857 0.289973
vt 0.456022 0.289973
vt 0.456022 0.289973
vt 0.463857 0.289973
vt 0.456022 0.289973
vt 0.416847 0.289973
vt 0.409012 0.289973
vt 0.416847 0.289973
vt 0.463857 0.289973
vt 0.463857 0.289973
vt 0.463857 0.289973
vt 0.409012 0.289973
vt 0.409012 0.289973
vt 0.409012 0.289973
vt 0.463857 0.289973
vt 0.463857 0.289973
vt 0.463857 0.289973
vt 0.463857 0.289973
vt 0.463857 0.289973
vt 0.463857 0.289973
vt 0.456022 0.289973
vt 0.463857 0.289973
vt 0.456022 0.289973
vt 0.409012 0.289973
vt 0.409012 0.289973
vt 0.409012 0.289973
vt 0.409012 0.289973
vt 0.409012 0.289973
vt 0.409012 0.289973
vt 0.416847 0.289973
vt 0.409012 0.289973
vt 0.409012 0.289973
vt 0.416847 0.289973
vt 0.409012 0.289973
vt 0.416847 0.289973
vt 0.409012 0.289973
vt 0.409012 0.289973
vt 0.409012 0.289973
vt 0.409012 0.289973
vt 0.463857 0.289973
vt 0.463857 0.289973
vt 0.463857 0.289973
vt 0.463857 0.289973
vt 0.409012 0.289973
vt 0.409012 0.289973
vt 0.409012 0.289973
vt 0.409012 0.289973
vt 0.409012 0.289973
vt 0.409012 0.289973
vt 0.463857 0.289973
vt 0.463857 0.289973
vt 0.463857 0.289973
vt 0.463857 0.289973
vt 0.463857 0.289973
vt 0.463857 0.289973
vt 0.456022 0.289973
vt 0.463857 0.289973
vt 0.463857 0.289973
vt 0.456022 0.289973
vt 0.416847 0.289973
vt 0.456022 0.289973
vt 0.440352 0.289973
vt 0.440352 0.289973
vt 0.448187 0.289973
vt 0.424682 0.289973
vt 0.424682 0.289973
vt 0.432517 0.289973
vt 0.463857 0.289973
vt 0.456022 0.289973
vt 0.432517 0.289973
vt 0.424682 0.289973
vt 0.448187 0.289973
vt 0.409012 0.289973
vt 0.416847 0.289973
vt 0.416847 0.289973
vt 0.432517 0.289973
vt 0.432517 0.289973
vt 0.424682 0.289973
vt 0.448187 0.289973
vt 0.448187 0.289973
vt 0.440352 0.289973
vt 0.409012 0.289973
vt 0.416847 0.289973
vt 0.416847 0.289973
vt 0.440352 0.289973
vt 0.448187 0.289973
vt 0.424682 0.289973
vt 0.456022 0.289973
vt 0.440352 0.289973
vt 0.409012 0.289973
vt 0.416847 0.289973
vt 0.432517 0.289973
vt 0.409012 0.289973
vt 0.409012 0.289973
vt 0.463857 0.289973
vt 0.463857 0.289973
vt 0.424682 0.289973
vt 0.432517 0.289973
vt 0.409012 0.289973
vt 0.463857 0.289973
vt 0.416847 0.289973
vt 0.409012 0.289973
vt 0.409012 0.289973
vt 0.409012 0.289973
vt 0.409012 0.289973
vt 0.463857 0.289973
vt 0.463857 0.289973
vt 0.463857 0.289973
vt 0.463857 0.289973
vt 0.409012 0.289973
vt 0.409012 0.289973
vt 0.409012 0.289973
vt 0.409012 0.289973
vt 0.409012 0.289973
vt 0.409012 0.289973
vt 0.409012 0.289973
vt 0.463857 0.289973
vt 0.463857 0.289973
vt 0.463857 0.289973
vt 0.409012 0.289973
vt 0.409012 0.289973
vt 0.409012 0.289973
vt 0.409012 0.289973
vt 0.456022 0.289973
vt 0.416847 0.289973
vt 0.463857 0.289973
vt 0.463857 0.289973
vt 0.463857 0.289973
vt 0.424682 0.289973
vt 0.463857 0.289973
vt 0.432517 0.289973
vt 0.463857 0.289973
vt 0.463857 0.289973
vt 0.440352 0.289973
vt 0.463857 0.289973
vt 0.463857 0.289973
vt 0.448187 0.289973
vt 0.463857 0.289973
vt 0.456022 0.289973
vt 0.409012 0.289973
vt 0.463857 0.289973
vt 0.448187 0.289973
vt 0.409012 0.289973
vt 0.440352 0.289973
vt 0.659787 0.664973
vt 0.713081 0.664973
vt 0.713081 0.664973
vt 0.659787 0.664973
vt 0.659012 0.618098
vt 0.659012 0.609767
vt 0.659012 0.609767
vt 0.659012 0.618098
vt 0.659012 0.618098
vt 0.659012 0.609767
vt 0.713857 0.618098
vt 0.713857 0.609767
vt 0.713857 0.609767
vt 0.713857 0.618098
vt 0.659012 0.618098
vt 0.659012 0.609767
vt 0.659012 0.609767
vt 0.659012 0.618098
vt 0.713081 0.664973
vt 0.659787 0.664973
vt 0.659787 0.664973
vt 0.713081 0.664973
vt 0.659012 0.664973
vt 0.659012 0.664973
vt 0.659012 0.664973
vt 0.659011 0.664973
vt 0.713857 0.609767
vt 0.713857 0.618098
vt 0.713857 0.618098
vt 0.713857 0.609767
vt 0.659787 0.664973
vt 0.713081 0.664973
vt 0.713081 0.664973
vt 0.659787 0.664973
vt 0.713857 0.609767
vt 0.713857 0.618098
vt 0.659012 0.618098
vt 0.659012 0.609767
vt 0.713857 0.618098
vt 0.713857 0.609767
vt 0.713857 0.594142
vt 0.713857 0.602473
vt 0.713857 0.602473
vt 0.713857 0.594142
vt 0.713857 0.664973
vt 0.713857 0.664973
vt 0.713857 0.664973
vt 0.713857 0.664973
vt 0.659012 0.602473
vt 0.659012 0.602473
vt 0.659012 0.594142
vt 0.659012 0.594142
vt 0.659012 0.664973
vt 0.713857 0.664973
vt 0.713857 0.664973
vt 0.659012 0.664973
vt 0.659012 0.664973
vt 0.713857 0.664973
vt 0.659012 0.664973
vt 0.659012 0.664973
vt 0.713857 0.664973
vt 0.659012 0.664973
vt 0.713857 0.664973
vt 0.713857 0.664973
vn -0.0000 -1.0000 0.0000
vn -0.0008 1.0000 0.0008
vn 0.0011 1.0000 -0.0094
vn -0.0011 1.0000 0.0094
vn 0.0094 1.0000 0.0011
vn -0.0094 1.0000 -0.0011
vn 0.0028 1.0000 -0.0008
vn 0.0035 1.0000 -0.0009
vn 0.0078 1.0000 0.0011
vn -0.0008 1.0000 -0.0028
vn -0.0009 1.0000 -0.0035
vn 0.0011 1.0000 -0.0078
vn -0.0028 1.0000 0.0008
vn -0.0035 1.0000 0.0009
vn -0.0078 1.0000 -0.0011
vn 0.0008 1.0000 0.0028
vn 0.0009 1.0000 0.0035
vn -0.0011 1.0000 0.0078
vn -0.0041 1.0000 -0.0009
vn -0.0066 1.0000 -0.0020
vn -0.0066 1.0000 0.0020
vn -0.0040 1.0000 -0.0008
vn -0.0028 1.0000 -0.0008
vn 0.0041 1.0000 0.0009
vn 0.0066 1.0000 0.0020
vn 0.0066 1.0000 -0.0020
vn 0.0040 1.0000 0.0008
vn 0.0028 1.0000 0.0008
vn -0.0094 1.0000 0.0011
vn -0.0102 0.9999 -0.0002
vn -0.0074 1.0000 -0.0021
vn -0.0062 1.0000 -0.0008
vn -0.0060 1.0000 0.0020
vn -0.0102 0.9999 0.0003
vn 0.0094 1.0000 -0.0011
vn 0.0102 0.9999 0.0002
vn 0.0074 1.0000 0.0021
vn 0.0062 1.0000 0.0008
vn 0.0060 1.0000 -0.0020
vn 0.0102 0.9999 -0.0003
vn -0.0008 1.0000 -0.0008
vn -0.0047 1.0000 0.0012
vn -0.0076 1.0000 0.0011
vn 0.0012 1.0000 0.0047
vn 0.0011 1.0000 0.0076
vn 0.0008 1.0000 -0.0008
vn -0.0087 1.0000 0.0027
vn -0.0009 1.0000 0.0041
vn -0.0020 1.0000 0.0066
vn 0.0020 1.0000 0.0066
vn -0.0008 1.0000 0.0040
vn 0.0027 1.0000 0.0087
vn -0.0021 1.0000 0.0074
vn -0.0008 1.0000 0.0028
vn 0.0087 1.0000 -0.0027
vn 0.0009 1.0000 -0.0041
vn 0.0020 1.0000 -0.0066
vn -0.0020 1.0000 -0.0066
vn 0.0008 1.0000 -0.0040
vn 0.0047 1.0000 -0.0012
vn 0.0076 1.0000 -0.0011
vn 0.0008 1.0000 -0.0028
vn -0.0027 1.0000 -0.0087
vn 0.0021 1.0000 -0.0074
vn 0.0011 1.0000 0.0094
vn -0.0002 0.9999 0.0102
vn -0.0008 1.0000 0.0062
vn 0.0020 1.0000 0.0060
vn 0.0003 0.9999 0.0102
vn -0.0011 1.0000 -0.0094
vn 0.0002 0.9999 -0.0102
vn 0.0008 1.0000 -0.0062
vn -0.0020 1.0000 -0.0060
vn -0.0003 0.9999 -0.0102
vn 0.0008 1.0000 0.0008
vn -0.0011 1.0000 -0.0076
vn -0.0012 1.0000 -0.0047
vn -0.9860 -0.0233 0.1649
vn 0.6451 -0.0210 0.7638
vn -0.2216 -0.0237 0.9748
vn -0.9749 -0.0237 -0.2216
vn -0.5529 0.0024 0.8332
vn 0.3611 -0.0198 0.9323
vn -0.9323 -0.0198 0.3610
vn -0.9834 -0.0076 0.1815
vn -0.8903 -0.0194 -0.4549
vn 0.9878 -0.0106 0.1555
vn 0.7638 -0.0210 -0.6451
vn 0.8332 0.0024 0.5529
vn 0.1815 -0.0077 0.9834
vn -0.4549 -0.0194 0.8903
vn 0.1555 -0.0106 -0.9878
vn -0.6451 -0.0210 -0.7638
vn 0.5529 0.0024 -0.8332
vn 0.9834 -0.0076 -0.1815
vn 0.8903 -0.0194 0.4549
vn -0.9878 -0.0106 -0.1555
vn -0.7638 -0.0210 0.6451
vn -0.9878 -0.0106 0.1555
vn -0.8332 0.0024 -0.5529
vn 0.4929 -0.0251 -0.8698
vn -0.4929 -0.0251 -0.8698
vn 0.8698 -0.0251 -0.4928
vn 0.9878 -0.0106 -0.1555
vn 0.1852 -0.0224 -0.9825
vn 0.9825 -0.0224 0.1852
vn -0.4929 -0.0251 0.8698
vn 0.1031 -0.0231 -0.9944
vn 0.9944 -0.0231 0.1031
vn -0.1555 -0.0106 -0.9878
vn -0.1649 -0.0233 -0.9860
vn 0.9860 -0.0233 -0.1649
vn 0.8698 -0.0251 0.4928
vn 0.2216 -0.0237 -0.9748
vn 0.9749 -0.0237 0.2216
vn 0.1555 -0.0106 0.9878
vn -0.3611 -0.0198 -0.9323
vn 0.9323 -0.0198 -0.3610
vn -0.8698 -0.0251 -0.4928
vn 0.4929 -0.0251 0.8698
vn -0.8698 -0.0251 0.4928
vn -0.1815 -0.0077 -0.9834
vn -0.1852 -0.0224 0.9825
vn -0.9825 -0.0224 -0.1852
vn 0.4549 -0.0194 -0.8903
vn -0.1031 -0.0231 0.9944
vn -0.9944 -0.0231 -0.1031
vn -0.1555 -0.0106 0.9878
vn 0.1649 -0.0233 0.9860
vn 0.0000 1.0000 0.0000
vn -0.0821 0.1463 -0.9858
vn -0.0821 -0.0090 -0.9966
vn -0.0820 0.1600 -0.9837
vn -0.9966 -0.0090 -0.0821
vn -0.9858 0.1463 -0.0821
vn -0.9837 0.1600 -0.0820
vn 0.9858 0.1463 -0.0821
vn 0.9966 -0.0090 -0.0821
vn 0.9837 0.1600 -0.0820
vn -0.9858 0.1463 0.0821
vn -0.9966 -0.0090 0.0821
vn -0.9837 0.1600 0.0820
vn 0.0000 0.9999 0.0115
vn -0.0115 0.9999 0.0000
vn 0.9966 -0.0090 0.0821
vn 0.9858 0.1463 0.0821
vn 0.9837 0.1600 0.0820
vn 0.0000 0.9999 -0.0115
vn 0.0821 0.1463 0.9858
vn 0.0821 -0.0090 0.9966
vn 0.0820 0.1600 0.9837
vn 0.0000 0.0954 0.9954
vn 0.0000 -0.0199 0.9998
vn -0.0821 -0.0090 0.9966
vn -0.0821 0.1463 0.9858
vn -0.0820 0.1600 0.9837
vn 0.0000 0.0954 -0.9954
vn 0.0000 -0.0199 -0.9998
vn 0.0821 -0.0090 -0.9966
vn 0.0821 0.1463 -0.9858
vn 0.0820 0.1600 -0.9837
vn 0.9998 -0.0199 0.0000
vn 0.9954 0.0955 0.0000
vn 0.0115 0.9999 0.0000
vn -0.9954 0.0955 0.0000
vn -0.9998 -0.0199 0.0000
vn 0.0000 0.3741 0.9274
vn 0.9274 0.3741 0.0000
vn 0.0000 0.3741 -0.9274
vn -0.9274 0.3741 0.0000
vn 0.0000 0.3788 -0.9255
vn -0.9345 0.3472 0.0791
vn 0.0000 0.2389 0.9710
vn 0.9345 0.3472 0.0791
vn 0.9255 0.3788 0.0000
vn -0.0791 0.3472 -0.9345
vn -0.9710 0.2390 0.0000
vn -0.0791 0.3472 0.9345
vn 0.0000 0.3788 0.9255
vn 0.9345 0.3472 -0.0791
vn 0.0000 0.2389 -0.9710
vn -0.9345 0.3472 -0.0791
vn -0.9255 0.3788 0.0000
vn 0.0791 0.3472 0.9345
vn 0.9710 0.2390 0.0000
vn 0.0791 0.3472 -0.9345
usemtl toy_soldier
s off
f 77/1/1 53/2/1 4/3/1 30/4/1
f 69/5/1 60/6/1 16/7/1
f 74/8/1 66/9/1 28/10/1
f 45/11/1 36/12/1 10/13/1
f 50/14/1 42/15/1 22/16/1
f 30/4/1 43/17/1 8/18/1 3/19/1
f 43/17/1 44/20/1 9/21/1 8/18/1
f 9/21/1 45/11/1 10/13/1
f 53/2/1 67/22/1 14/23/1 4/3/1
f 67/22/1 68/24/1 15/25/1 14/23/1
f 15/25/1 69/5/1 16/7/1
f 29/26/1 48/27/1 20/28/1 2/29/1
f 48/27/1 49/30/1 21/31/1 20/28/1
f 21/31/1 50/14/1 22/16/1
f 54/32/1 72/33/1 26/34/1 1/35/1
f 72/33/1 73/36/1 27/37/1 26/34/1
f 27/37/1 74/8/1 28/10/1
f 18/38/1 52/39/1 49/30/1
f 49/30/1 52/39/1 51/40/1
f 49/30/1 51/40/1 50/14/1
f 19/41/1 18/38/1 49/30/1 48/27/1
f 1/35/1 19/41/1 48/27/1 29/26/1
f 6/42/1 47/43/1 44/20/1
f 44/20/1 47/43/1 46/44/1
f 44/20/1 46/44/1 45/11/1
f 7/45/1 6/42/1 44/20/1 43/17/1
f 4/3/1 7/45/1 43/17/1 30/4/1
f 17/46/1 37/47/1 52/39/1
f 52/39/1 37/47/1 38/48/1
f 51/40/1 38/48/1 39/49/1
f 51/40/1 39/49/1 40/50/1
f 51/40/1 41/51/1 50/14/1
f 50/14/1 41/51/1 42/15/1
f 5/52/1 31/53/1 47/43/1
f 47/43/1 31/53/1 32/54/1
f 46/44/1 32/54/1 33/55/1
f 46/44/1 33/55/1 34/56/1
f 46/44/1 35/57/1 45/11/1
f 45/11/1 35/57/1 36/12/1
f 54/58/1 77/1/1 30/4/1 3/19/1
f 49/30/1 50/14/1 21/31/1
f 17/46/1 52/39/1 18/38/1
f 73/36/1 74/8/1 27/37/1
f 23/59/1 76/60/1 24/61/1
f 1/35/1 29/26/1 77/62/1 54/32/1
f 40/50/1 41/51/1 51/40/1
f 52/39/1 38/48/1 51/40/1
f 24/61/1 76/60/1 73/63/1
f 73/64/1 76/65/1 75/66/1
f 73/67/1 75/68/1 74/69/1
f 25/70/1 24/61/1 73/63/1 72/71/1
f 64/72/1 65/73/1 75/68/1
f 76/65/1 62/74/1 75/66/1
f 3/19/1 25/70/1 72/71/1 54/58/1
f 47/43/1 32/54/1 46/44/1
f 34/56/1 35/57/1 46/44/1
f 12/75/1 71/76/1 68/77/1
f 68/78/1 71/79/1 70/80/1
f 68/81/1 70/82/1 69/83/1
f 13/84/1 12/75/1 68/77/1 67/85/1
f 44/20/1 45/11/1 9/21/1
f 5/52/1 47/43/1 6/42/1
f 2/29/1 13/84/1 67/85/1 53/86/1
f 58/87/1 59/88/1 70/82/1
f 71/79/1 56/89/1 70/80/1
f 23/59/1 61/90/1 76/60/1
f 76/65/1 61/90/1 62/74/1
f 75/66/1 62/74/1 63/91/1
f 75/68/1 63/91/1 64/72/1
f 75/68/1 65/73/1 74/69/1
f 74/8/1 65/73/1 66/9/1
f 11/92/1 55/93/1 71/76/1
f 71/79/1 55/93/1 56/89/1
f 70/80/1 56/89/1 57/94/1
f 70/82/1 57/94/1 58/87/1
f 70/82/1 59/88/1 69/83/1
f 69/5/1 59/88/1 60/6/1
f 29/26/1 2/29/1 53/86/1 77/62/1
f 11/92/1 71/76/1 12/75/1
f 68/24/1 69/5/1 15/25/1
f 154/95/2 107/96/2 81/97/2 130/98/2
f 146/99/3 93/100/3 137/101/3
f 151/102/4 105/103/4 143/104/4
f 122/105/5 87/106/5 113/107/5
f 127/108/6 99/109/6 119/110/6
f 107/96/7 80/111/7 85/112/7 120/113/7
f 120/113/8 85/112/8 86/114/8 121/115/8
f 86/114/9 87/106/9 122/105/9
f 130/98/10 81/97/10 91/116/10 144/117/10
f 144/117/11 91/116/11 92/118/11 145/119/11
f 92/118/12 93/100/12 146/99/12
f 106/120/13 79/121/13 97/122/13 125/123/13
f 125/123/14 97/122/14 98/124/14 126/125/14
f 98/124/15 99/109/15 127/108/15
f 131/126/16 78/127/16 103/128/16 149/129/16
f 149/129/17 103/128/17 104/130/17 150/131/17
f 104/130/18 105/103/18 151/102/18
f 95/132/19 126/125/19 129/133/19
f 126/125/20 128/134/20 129/133/20
f 126/125/21 127/108/21 128/134/21
f 96/135/22 125/123/22 126/125/22 95/132/22
f 78/127/23 106/120/23 125/123/23 96/135/23
f 83/136/24 121/115/24 124/137/24
f 121/115/25 123/138/25 124/137/25
f 121/115/26 122/105/26 123/138/26
f 84/139/27 120/113/27 121/115/27 83/136/27
f 81/97/28 107/96/28 120/113/28 84/139/28
f 94/140/29 129/133/29 114/141/29
f 129/133/30 115/142/30 114/141/30
f 128/134/31 116/143/31 115/142/31
f 128/134/32 117/144/32 116/143/32
f 128/134/33 127/108/33 118/145/33
f 127/108/34 119/110/34 118/145/34
f 82/146/35 124/137/35 108/147/35
f 124/137/36 109/148/36 108/147/36
f 123/138/37 110/149/37 109/148/37
f 123/138/38 111/150/38 110/149/38
f 123/138/39 122/105/39 112/151/39
f 122/105/40 113/107/40 112/151/40
f 131/152/41 80/111/41 107/96/41 154/95/41
f 126/125/42 98/124/42 127/108/42
f 94/140/43 95/132/43 129/133/43
f 150/131/44 104/130/44 151/102/44
f 100/153/45 101/154/45 153/155/45
f 78/127/46 131/126/46 154/156/46 106/120/46
f 117/144/47 128/134/47 118/145/47
f 129/133/31 128/134/31 115/142/31
f 101/154/48 150/157/48 153/155/48
f 150/158/49 152/159/49 153/160/49
f 150/161/50 151/162/50 152/163/50
f 102/164/51 149/165/51 150/157/51 101/154/51
f 141/166/52 152/163/52 142/167/52
f 153/160/53 152/159/53 139/168/53
f 80/111/54 131/152/54 149/165/54 102/164/54
f 124/137/37 123/138/37 109/148/37
f 111/150/55 123/138/55 112/151/55
f 89/169/56 145/170/56 148/171/56
f 145/172/57 147/173/57 148/174/57
f 145/175/58 146/176/58 147/177/58
f 90/178/59 144/179/59 145/170/59 89/169/59
f 121/115/60 86/114/60 122/105/60
f 82/146/61 83/136/61 124/137/61
f 79/121/62 130/180/62 144/179/62 90/178/62
f 135/181/63 147/177/63 136/182/63
f 148/174/64 147/173/64 133/183/64
f 100/153/65 153/155/65 138/184/65
f 153/160/66 139/168/66 138/184/66
f 152/159/53 140/185/53 139/168/53
f 152/163/67 141/166/67 140/185/67
f 152/163/68 151/162/68 142/167/68
f 151/102/69 143/104/69 142/167/69
f 88/186/70 148/171/70 132/187/70
f 148/174/71 133/183/71 132/187/71
f 147/173/64 134/188/64 133/183/64
f 147/177/72 135/181/72 134/188/72
f 147/177/73 146/176/73 136/182/73
f 146/99/74 137/101/74 136/182/74
f 106/120/75 154/156/75 130/180/75 79/121/75
f 88/186/76 89/169/76 148/171/76
f 145/119/77 92/118/77 146/99/77
f 40/189/78 39/190/78 116/143/78 117/144/78
f 8/191/79 9/192/79 86/114/79 85/112/79
f 65/193/80 64/194/80 141/166/80 142/167/80
f 41/195/81 40/189/81 117/144/81 118/145/81
f 9/192/82 10/196/82 87/106/82 86/114/82
f 66/197/83 65/193/83 142/167/83 143/104/83
f 42/198/84 41/195/84 118/145/84 119/110/84
f 11/199/85 12/200/85 89/169/85 88/186/85
f 12/200/86 13/201/86 90/178/86 89/169/86
f 4/202/87 14/203/87 91/116/87 81/97/87
f 14/203/88 15/204/88 92/118/88 91/116/88
f 15/204/89 16/205/89 93/100/89 92/118/89
f 17/206/90 18/207/90 95/132/90 94/140/90
f 18/207/91 19/208/91 96/135/91 95/132/91
f 2/209/92 20/210/92 97/122/92 79/121/92
f 20/210/93 21/211/93 98/124/93 97/122/93
f 21/211/94 22/212/94 99/109/94 98/124/94
f 23/213/95 24/214/95 101/154/95 100/153/95
f 24/214/96 25/215/96 102/164/96 101/154/96
f 1/216/97 26/217/97 103/128/97 78/127/97
f 26/217/98 27/218/98 104/130/98 103/128/98
f 13/201/99 2/209/99 79/121/99 90/178/99
f 27/218/100 28/219/100 105/103/100 104/130/100
f 16/205/101 60/220/101 137/101/101 93/100/101
f 55/221/102 11/199/102 88/186/102 132/187/102
f 31/222/103 5/223/103 82/146/103 108/147/103
f 25/215/104 3/224/104 80/111/104 102/164/104
f 56/225/105 55/221/105 132/187/105 133/183/105
f 32/226/106 31/222/106 108/147/106 109/148/106
f 28/219/107 66/197/107 143/104/107 105/103/107
f 57/227/108 56/225/108 133/183/108 134/188/108
f 33/228/109 32/226/109 109/148/109 110/149/109
f 7/229/110 4/202/110 81/97/110 84/139/110
f 58/230/111 57/227/111 134/188/111 135/181/111
f 34/231/112 33/228/112 110/149/112 111/150/112
f 10/196/113 36/232/113 113/107/113 87/106/113
f 59/233/114 58/230/114 135/181/114 136/182/114
f 35/234/115 34/231/115 111/150/115 112/151/115
f 19/208/116 1/216/116 78/127/116 96/135/116
f 60/220/117 59/233/117 136/182/117 137/101/117
f 36/232/118 35/234/118 112/151/118 113/107/118
f 22/212/119 42/198/119 119/110/119 99/109/119
f 61/235/120 23/213/120 100/153/120 138/184/120
f 37/236/121 17/206/121 94/140/121 114/141/121
f 5/223/122 6/237/122 83/136/122 82/146/122
f 62/238/123 61/235/123 138/184/123 139/168/123
f 38/239/124 37/236/124 114/141/124 115/142/124
f 6/237/125 7/229/125 84/139/125 83/136/125
f 63/240/126 62/238/126 139/168/126 140/185/126
f 39/190/127 38/239/127 115/142/127 116/143/127
f 3/224/128 8/191/128 85/112/128 80/111/128
f 64/194/129 63/240/129 140/185/129 141/166/129
s 1
f 179/241/130 180/242/130 181/243/130 182/244/130
f 158/245/131 157/246/132 171/247/132 172/248/133
f 157/246/134 158/245/135 170/249/136 169/250/134
f 162/251/137 161/252/138 167/253/138 168/254/139
f 156/255/140 155/256/141 166/257/141 165/258/142
f 183/259/143 184/260/143 185/261/143 186/262/143
f 187/263/144 188/264/144 189/265/144 190/266/144
f 159/267/145 160/268/146 164/269/147 163/270/145
f 191/271/148 192/272/148 193/273/148 194/274/148
f 160/268/149 159/267/150 175/275/150 176/276/151
f 164/269/152 165/258/152 166/257/153 163/270/153
f 155/256/154 156/255/155 173/277/156 174/278/154
f 170/249/157 168/254/157 167/253/158 169/250/158
f 161/252/159 162/251/160 178/279/161 177/280/159
f 177/281/162 178/282/163 176/283/163 175/284/162
f 195/285/164 196/286/164 197/287/164 198/288/164
f 173/289/165 172/290/165 171/291/166 174/292/166
f 156/293/167 160/294/167 180/242/167 179/241/167
f 160/294/168 162/295/168 181/243/168 180/242/168
f 162/295/169 158/296/169 182/244/169 181/243/169
f 158/296/170 156/293/170 179/241/170 182/244/170
f 160/294/171 156/293/171 184/260/171 183/259/171
f 156/293/140 165/297/142 185/261/172 184/260/172
f 165/297/152 164/298/152 186/262/173 185/261/173
f 164/298/147 160/294/146 183/259/174 186/262/174
f 156/293/175 158/296/175 188/264/175 187/263/175
f 158/296/131 172/299/133 189/265/176 188/264/176
f 172/299/165 173/300/165 190/266/177 189/265/177
f 173/300/156 156/293/155 187/263/178 190/266/178
f 158/296/179 162/295/179 192/272/179 191/271/179
f 162/295/137 168/301/139 193/273/180 192/272/180
f 168/301/157 170/302/157 194/274/181 193/273/181
f 170/302/136 158/296/135 191/271/182 194/274/182
f 162/295/183 160/294/183 196/286/183 195/285/183
f 160/294/149 176/303/151 197/287/184 196/286/184
f 176/303/163 178/304/163 198/288/185 197/287/185
f 178/304/161 162/295/160 195/285/186 198/288/186
