# Blender v3.4.1 OBJ File: 'December2025_ToySoldier_Assets_Export.blend'
# www.blender.org
mtllib Present_Base_Present_Front.mtl
o Present_Front
v -0.874000 0.000000 0.874000
v 0.874000 0.000000 0.874000
v -0.187067 0.000000 0.874000
v 0.187067 0.000000 0.874000
v -0.874000 0.073036 0.920000
v -0.920000 0.073036 0.874000
v 0.920000 0.073036 0.874000
v 0.874000 0.073036 0.920000
v 0.187067 0.073036 0.920000
v -0.187067 0.073036 0.920000
v 0.158853 0.073036 0.948025
v -0.158853 0.073036 0.948025
v -0.874000 2.739259 0.920000
v -0.920000 2.739259 0.874000
v -0.187057 2.739259 0.920000
v 0.920000 2.739259 0.874000
v 0.874000 2.739259 0.920000
v 0.187057 2.739259 0.920000
v 0.158853 2.739259 0.948025
v -0.158853 2.739259 0.948025
v -0.874000 0.000000 0.828000
v 0.874000 0.000000 0.828000
v -0.187067 0.000000 0.828000
v 0.187067 0.000000 0.828000
v -0.920000 0.073036 0.828000
v 0.920000 0.073036 0.828000
v -0.920000 2.739259 0.828000
v 0.920000 2.739259 0.828000
v 0.187057 2.739259 0.874000
v -0.187057 2.739259 0.828000
v 0.187057 2.739259 0.828000
v -0.187057 2.739259 0.874000
v -0.187057 0.073036 0.828000
v 0.187057 0.073036 0.828000
vt 0.058047 0.588917
vt 0.058047 0.639941
vt 0.033311 0.639940
vt 0.033311 0.588917
vt 0.033311 0.604542
vt 0.033311 0.655565
vt 0.030378 0.655565
vt 0.030378 0.604542
vt 0.058047 0.604542
vt 0.033311 0.599885
vt 0.058047 0.599885
vt 0.539079 0.291661
vt 0.539079 0.367452
vt 0.538421 0.368066
vt 0.538421 0.290590
vt 0.539079 0.284744
vt 0.585296 0.337465
vt 0.580036 0.337465
vt 0.579378 0.331619
vt 0.585954 0.331619
vt 0.103704 0.604542
vt 0.100771 0.604542
vt 0.100771 0.599885
vt 0.533161 0.290590
vt 0.532503 0.291661
vt 0.532503 0.284744
vt 0.100771 0.655565
vt 0.103704 0.655565
vt 0.585296 0.414941
vt 0.580036 0.414941
vt 0.532503 0.367452
vt 0.533161 0.368066
vt 0.100771 0.588917
vt 0.100771 0.639941
vt 0.076035 0.639940
vt 0.076035 0.588917
vt 0.076035 0.604542
vt 0.076035 0.599885
vt 0.070329 0.648702
vt 0.074401 0.655565
vt 0.559681 0.405565
vt 0.574401 0.405565
vt 0.574306 0.405565
vt 0.559776 0.405565
vt 0.076035 0.599885
vt 0.100771 0.599885
vt 0.030378 0.604542
vt 0.033311 0.599885
vt 0.030378 0.655565
vt 0.103704 0.604542
vt 0.579378 0.331619
vt 0.585954 0.331619
vt 0.058047 0.599885
vt 0.103704 0.655565
vt 0.074306 0.655565
vt 0.563753 0.398702
vt 0.570329 0.398702
vt 0.059681 0.655565
vt 0.059776 0.655565
vt 0.063753 0.648702
vt 0.069564 0.556086
vt 0.086139 0.556086
vt 0.087248 0.557848
vt 0.069564 0.557848
vt 0.667854 0.651598
vt 0.685538 0.651598
vt 0.685538 0.715929
vt 0.667854 0.715929
vt 0.694564 0.651598
vt 0.694564 0.715929
vt 0.712248 0.651598
vt 0.712248 0.715929
vt 0.060538 0.556086
vt 0.060538 0.557848
vt 0.043963 0.556086
vt 0.042854 0.557848
vn 0.0000 -0.2773 0.9608
vn 0.0000 0.0000 1.0000
vn -0.3827 0.0000 0.9239
vn -0.3541 -0.2490 0.9015
vn -0.9239 0.0000 0.3827
vn -0.9015 -0.2490 0.3541
vn -0.5605 -0.6097 0.5605
vn 0.0000 -0.5329 0.8462
vn 0.6857 -0.2313 0.6902
vn 0.7048 0.0000 0.7094
vn 0.6974 -0.1447 0.7020
vn 0.6434 -0.4080 0.6477
vn 0.0000 -0.7118 0.7023
vn 0.0000 -0.9756 0.2198
vn 0.9015 -0.2490 0.3541
vn 0.3541 -0.2490 0.9015
vn 0.5605 -0.6097 0.5605
vn -0.6974 -0.1447 0.7020
vn -0.6857 -0.2313 0.6902
vn -0.6434 -0.4080 0.6477
vn 0.3827 0.0000 0.9239
vn 0.9239 0.0000 0.3827
vn -0.7048 0.0000 0.7094
vn 0.0000 1.0000 -0.0000
vn 0.0000 -1.0000 0.0000
vn -0.9608 -0.2773 0.0000
vn -0.8462 -0.5329 0.0000
vn -1.0000 0.0000 0.0000
vn 0.8462 -0.5329 0.0000
vn 0.9608 -0.2773 0.0000
vn 1.0000 0.0000 0.0000
vn -0.0000 0.0000 -1.0000
usemtl toy_soldier
s 1
f 10/1/1 15/2/2 13/3/3 5/4/4
f 5/5/4 13/6/3 14/7/5 6/8/6
f 10/9/1 5/5/4 1/10/7 3/11/8
f 9/12/9 18/13/10 19/14/10 11/15/11
f 5/5/4 6/8/6 1/10/7
f 9/12/9 11/15/11 4/16/12
f 11/17/13 12/18/13 3/19/14 4/20/14
f 7/21/15 8/22/16 2/23/17
f 12/24/18 10/25/19 3/26/20
f 17/27/21 8/22/16 7/21/15 16/28/22
f 11/17/2 19/29/2 20/30/2 12/18/2
f 15/31/23 10/25/19 12/24/18 20/32/23
f 8/33/16 17/34/21 18/35/2 9/36/1
f 8/22/16 9/37/1 4/38/8 2/23/17
f 19/14/24 18/13/24 15/31/24 20/32/24
f 18/39/24 17/27/24 16/28/24 29/40/24
f 32/41/24 29/42/24 31/43/24 30/44/24
f 2/23/25 4/38/14 24/45/25 22/46/25
f 1/10/7 6/8/6 25/47/26 21/48/27
f 6/8/6 14/7/5 27/49/28 25/47/26
f 7/21/15 2/23/17 22/46/29 26/50/30
f 4/20/14 3/19/14 23/51/25 24/52/25
f 3/11/14 1/10/25 21/48/25 23/53/25
f 16/28/22 7/21/15 26/50/30 28/54/31
f 29/40/24 16/28/24 28/54/24 31/55/24
f 15/56/24 18/57/24 29/42/24 32/41/24
f 14/7/24 32/58/24 30/59/24 27/49/24
f 13/3/24 15/60/24 32/58/24 14/7/24
f 23/61/32 21/62/32 25/63/32 33/64/32
f 26/65/32 34/66/32 31/67/32 28/68/32
f 31/67/32 34/66/32 33/69/32 30/70/32
f 25/71/32 27/72/32 30/70/32 33/69/32
f 24/73/32 23/61/32 33/64/32 34/74/32
f 22/75/32 24/73/32 34/74/32 26/76/32
