# Blender v3.4.1 OBJ File: 'December2025_ToySoldier_Assets_Export.blend'
# www.blender.org
mtllib Present_Base_Present_Left.mtl
o Present_Left
v 0.873999 0.000000 0.828000
v 0.874000 0.000000 -0.828000
v 0.874000 0.000000 0.187067
v 0.874000 0.000000 -0.187066
v 0.919999 0.073036 0.828000
v 0.873999 0.073036 0.828000
v 0.874000 0.073036 -0.828000
v 0.920000 0.073036 -0.828000
v 0.920000 0.073036 -0.187066
v 0.920000 0.073036 0.187067
v 0.948025 0.073036 -0.158853
v 0.948025 0.073036 0.158854
v 0.919999 2.739259 0.828000
v 0.873999 2.739259 0.828000
v 0.920000 2.739259 0.187058
v 0.874000 2.739259 -0.828000
v 0.920000 2.739259 -0.828000
v 0.920000 2.739259 -0.187057
v 0.948025 2.739259 -0.158853
v 0.948025 2.739259 0.158854
v 0.827999 0.000000 0.828000
v 0.828000 0.000000 -0.828000
v 0.828000 0.000000 0.187067
v 0.828000 0.000000 -0.187066
v 0.827999 0.073036 0.828000
v 0.828000 0.073036 -0.828000
v 0.827999 2.739259 0.828000
v 0.828000 2.739259 -0.828000
v 0.874000 2.739259 -0.187057
v 0.828000 2.739259 0.187058
v 0.828000 2.739259 -0.187057
v 0.874000 2.739259 0.187058
v 0.828000 0.073036 0.187058
v 0.828000 0.073036 -0.187057
vt 0.058047 0.588917
vt 0.058047 0.639941
vt 0.033311 0.639940
vt 0.033311 0.588917
vt 0.033311 0.604542
vt 0.033311 0.655565
vt 0.030378 0.655565
vt 0.030378 0.604542
vt 0.058047 0.604542
vt 0.033311 0.599885
vt 0.058047 0.599885
vt 0.539079 0.291661
vt 0.539079 0.367452
vt 0.538421 0.368066
vt 0.538421 0.290590
vt 0.539079 0.284744
vt 0.585296 0.337465
vt 0.580036 0.337465
vt 0.579378 0.331619
vt 0.585954 0.331619
vt 0.103704 0.604542
vt 0.100771 0.604542
vt 0.100771 0.599885
vt 0.533161 0.290590
vt 0.532503 0.291661
vt 0.532503 0.284744
vt 0.100771 0.655565
vt 0.103704 0.655565
vt 0.585296 0.414941
vt 0.580036 0.414941
vt 0.532503 0.367452
vt 0.533161 0.368066
vt 0.100771 0.588917
vt 0.100771 0.639941
vt 0.076035 0.639940
vt 0.076035 0.588917
vt 0.076035 0.604542
vt 0.076035 0.599885
vt 0.070329 0.648702
vt 0.074401 0.655565
vt 0.559681 0.405565
vt 0.574401 0.405565
vt 0.574306 0.405565
vt 0.559776 0.405565
vt 0.076035 0.599885
vt 0.100771 0.599885
vt 0.030378 0.604542
vt 0.033311 0.599885
vt 0.030378 0.655565
vt 0.103704 0.604542
vt 0.579378 0.331619
vt 0.585954 0.331619
vt 0.058047 0.599885
vt 0.103704 0.655565
vt 0.074306 0.655565
vt 0.563753 0.398702
vt 0.570329 0.398702
vt 0.059681 0.655565
vt 0.059776 0.655565
vt 0.063753 0.648702
vt 0.069564 0.556086
vt 0.086139 0.556086
vt 0.087248 0.557848
vt 0.069564 0.557848
vt 0.667854 0.620348
vt 0.685538 0.620348
vt 0.685538 0.684679
vt 0.667854 0.684679
vt 0.694564 0.620348
vt 0.694564 0.684679
vt 0.712248 0.620348
vt 0.712248 0.684679
vt 0.060538 0.556086
vt 0.060538 0.557848
vt 0.043963 0.556086
vt 0.042854 0.557848
vn 0.9608 -0.2773 0.0000
vn 1.0000 0.0000 0.0000
vn 0.0000 0.0000 1.0000
vn 0.8462 -0.5329 0.0000
vn 0.6902 -0.2313 -0.6857
vn 0.7094 0.0000 -0.7048
vn 0.7020 -0.1447 -0.6974
vn 0.6477 -0.4080 -0.6434
vn 0.7023 -0.7118 0.0000
vn 0.2198 -0.9756 0.0000
vn 0.0000 0.0000 -1.0000
vn 0.7020 -0.1447 0.6974
vn 0.6902 -0.2313 0.6857
vn 0.6477 -0.4080 0.6434
vn 0.7094 0.0000 0.7048
vn 0.0000 1.0000 0.0000
vn 0.0000 -1.0000 0.0000
vn -1.0000 -0.0000 -0.0000
usemtl toy_soldier
s 1
f 10/1/1 15/2/2 13/3/2 5/4/1
f 5/5/3 13/6/3 14/7/3 6/8/3
f 10/9/1 5/5/1 1/10/4 3/11/4
f 9/12/5 18/13/6 19/14/6 11/15/7
f 5/5/3 6/8/3 1/10/3
f 9/12/5 11/15/7 4/16/8
f 11/17/9 12/18/9 3/19/10 4/20/10
f 7/21/11 8/22/11 2/23/11
f 12/24/12 10/25/13 3/26/14
f 17/27/11 8/22/11 7/21/11 16/28/11
f 11/17/2 19/29/2 20/30/2 12/18/2
f 15/31/15 10/25/13 12/24/12 20/32/15
f 8/33/1 17/34/2 18/35/2 9/36/1
f 8/22/1 9/37/1 4/38/4 2/23/4
f 19/14/16 18/13/16 15/31/16 20/32/16
f 18/39/16 17/27/16 16/28/16 29/40/16
f 32/41/16 29/42/16 31/43/16 30/44/16
f 2/23/17 4/38/10 24/45/17 22/46/17
f 1/10/3 6/8/3 25/47/3 21/48/3
f 6/8/3 14/7/3 27/49/3 25/47/3
f 7/21/11 2/23/11 22/46/11 26/50/11
f 4/20/10 3/19/10 23/51/17 24/52/17
f 3/11/10 1/10/17 21/48/17 23/53/17
f 16/28/11 7/21/11 26/50/11 28/54/11
f 29/40/16 16/28/16 28/54/16 31/55/16
f 15/56/16 18/57/16 29/42/16 32/41/16
f 14/7/16 32/58/16 30/59/16 27/49/16
f 13/3/16 15/60/16 32/58/16 14/7/16
f 23/61/18 21/62/18 25/63/18 33/64/18
f 26/65/18 34/66/18 31/67/18 28/68/18
f 31/67/18 34/66/18 33/69/18 30/70/18
f 25/71/18 27/72/18 30/70/18 33/69/18
f 24/73/18 23/61/18 33/64/18 34/74/18
f 22/75/18 24/73/18 34/74/18 26/76/18
