# Blender v3.4.1 OBJ File: 'June2026_Farmers_Assets_Export.blend'
# www.blender.org
mtllib carrot.mtl
o carrot
v -0.000000 -0.336388 -0.000000
v -0.000000 0.202254 0.000000
v 0.009746 -0.311627 -0.036371
v 0.000000 -0.060567 -0.143063
v 0.000000 -0.181600 -0.108055
v 0.071532 -0.060567 -0.123896
v 0.054027 -0.181600 -0.093578
v 0.036371 -0.311627 -0.009746
v 0.123896 -0.060567 -0.071531
v 0.093578 -0.181600 -0.054027
v 0.143063 -0.060567 0.000000
v 0.108055 -0.181600 0.000000
v 0.026625 -0.311627 0.026625
v 0.123896 -0.060567 0.071531
v 0.093578 -0.181600 0.054027
v -0.009746 -0.311627 0.036371
v -0.036371 -0.311627 0.009746
v -0.123895 -0.060567 0.071531
v -0.093578 -0.181600 0.054027
v -0.143062 -0.060567 -0.000000
v -0.108055 -0.181600 -0.000000
v -0.026625 -0.311627 -0.026625
v -0.123895 -0.060567 -0.071531
v -0.093578 -0.181600 -0.054027
v -0.071531 -0.060567 -0.123896
v -0.054027 -0.181600 -0.093578
v 0.000000 0.065676 -0.161000
v -0.000000 0.149368 -0.144590
v 0.080500 0.065676 -0.139430
v 0.072295 0.149368 -0.125218
v 0.139430 0.065676 -0.080500
v 0.125218 0.149368 -0.072295
v 0.161000 0.065676 0.000000
v 0.144590 0.149368 0.000000
v 0.139430 0.065676 0.080500
v 0.125218 0.149368 0.072295
v 0.072295 0.149368 0.125218
v -0.000000 0.149368 0.144590
v -0.072295 0.149368 0.125218
v -0.139430 0.065676 0.080500
v -0.125218 0.149368 0.072295
v -0.161000 0.065676 -0.000000
v -0.144590 0.149368 -0.000000
v -0.139430 0.065676 -0.080500
v -0.125218 0.149368 -0.072295
v -0.080500 0.065676 -0.139430
v -0.072295 0.149368 -0.125218
v -0.034304 0.368060 0.095346
v -0.034304 0.387449 0.031746
v 0.032197 0.368060 0.095346
v 0.032197 0.387449 0.031746
v -0.050537 0.290455 0.088563
v -0.050537 0.319310 -0.006085
v 0.048430 0.319310 -0.006085
v 0.048430 0.290455 0.088563
v -0.046150 0.339997 0.099142
v -0.040798 0.382274 0.064929
v -0.030173 0.195962 -0.022552
v -0.001054 0.393862 0.026919
v 0.028070 0.195962 -0.022552
v 0.038691 0.382274 0.064929
v 0.028070 0.178981 0.033149
v -0.001054 0.370686 0.102940
v -0.030173 0.178981 0.033149
v -0.046150 0.366293 0.012884
v 0.044043 0.366293 0.012884
v 0.044043 0.339997 0.099142
v -0.001053 0.285045 0.106310
v 0.066986 0.304882 0.041239
v -0.001053 0.324720 -0.023832
v -0.069093 0.304882 0.041239
v -0.062937 0.353591 0.056149
v -0.001054 0.371633 -0.003034
v 0.060830 0.353591 0.056149
v -0.001054 0.335548 0.115332
v -0.001054 0.391758 0.067833
v -0.001052 0.175797 0.043593
v 0.038990 0.187471 0.005298
v -0.001052 0.199146 -0.032996
v -0.041094 0.187471 0.005298
v -0.125470 0.341212 -0.023800
v -0.125470 0.325197 -0.080461
v -0.072425 0.365773 -0.030770
v -0.072425 0.349757 -0.087431
v -0.109050 0.280650 0.008328
v -0.109050 0.256816 -0.075993
v -0.030110 0.293366 -0.086367
v -0.030110 0.317200 -0.002045
v -0.125001 0.319942 -0.006861
v -0.132471 0.334433 -0.052479
v -0.045490 0.175022 -0.034039
v -0.100769 0.339540 -0.090508
v 0.000967 0.196532 -0.040143
v -0.069067 0.363790 -0.060811
v 0.000967 0.210558 0.009481
v -0.100769 0.358683 -0.022782
v -0.045490 0.189048 0.015586
v -0.125001 0.298221 -0.083707
v -0.053059 0.331531 -0.093161
v -0.053059 0.353252 -0.016314
v -0.069580 0.303393 0.018952
v -0.015309 0.312136 -0.046151
v -0.069580 0.270622 -0.096990
v -0.123851 0.261880 -0.031887
v -0.138571 0.303240 -0.043626
v -0.089210 0.311191 -0.102838
v -0.039849 0.348949 -0.056599
v -0.089210 0.340998 0.002614
v -0.104592 0.356723 -0.058805
v -0.022261 0.202433 0.021838
v 0.009678 0.207578 -0.016476
v -0.022261 0.183147 -0.046396
v -0.054201 0.178002 -0.008082
v 0.150856 0.297975 -0.006243
v 0.152207 0.288451 -0.064338
v 0.105656 0.334967 -0.013384
v 0.107008 0.325443 -0.071479
v 0.118245 0.239993 0.017114
v 0.120256 0.225819 -0.069342
v 0.052991 0.280870 -0.079970
v 0.050980 0.295044 0.006487
v 0.144039 0.275766 0.007888
v 0.158631 0.292781 -0.035054
v 0.036215 0.157444 -0.041764
v 0.132426 0.309197 -0.074043
v -0.003371 0.189842 -0.048019
v 0.104605 0.336998 -0.043590
v -0.004555 0.198183 0.002862
v 0.130810 0.320582 -0.004601
v 0.035031 0.165785 0.009116
v 0.145872 0.262848 -0.070905
v 0.084570 0.313019 -0.080590
v 0.082737 0.325937 -0.001797
v 0.084235 0.270176 0.028011
v 0.039374 0.298279 -0.038734
v 0.087001 0.250687 -0.090867
v 0.131863 0.222584 -0.024122
v 0.156630 0.260283 -0.029751
v 0.115827 0.285843 -0.090457
v 0.072509 0.329129 -0.043041
v 0.113312 0.303569 0.017665
v 0.137256 0.321564 -0.040290
v 0.015016 0.183548 0.015529
v -0.011385 0.200087 -0.023751
v 0.016644 0.172079 -0.054432
v 0.043045 0.155540 -0.015151
v -0.016578 0.191937 -0.061871
v -0.061871 0.191937 -0.016578
v -0.045293 0.191937 0.045293
v 0.016578 0.191937 0.061871
v 0.061871 0.191937 0.016578
v 0.045293 0.191937 -0.045293
v 0.073574 -0.031824 0.127433
v 0.067491 -0.088510 0.116896
v 0.070946 -0.060333 0.096614
v 0.058069 -0.153657 0.100578
v 0.048633 -0.207196 0.080398
v 0.053631 -0.180913 0.065500
v 0.000000 -0.031824 0.147147
v 0.000000 -0.088510 0.134980
v 0.000000 -0.060333 0.115624
v 0.000000 -0.153657 0.116137
v -0.001919 -0.207204 0.093939
v -0.000562 -0.180915 0.080020
v -0.067490 -0.088510 0.116896
v -0.073573 -0.031824 0.127433
v -0.070945 -0.060333 0.096614
v -0.045305 -0.207212 0.082310
v -0.058068 -0.153657 0.100578
v -0.052656 -0.180917 0.066060
v 0.077705 0.094182 0.134589
v 0.078458 0.036932 0.135893
v 0.079083 0.065606 0.110709
v -0.000000 0.094182 0.155410
v 0.000000 0.036932 0.156916
v 0.000000 0.065606 0.131899
v -0.078458 0.036932 0.135893
v -0.077705 0.094182 0.134589
v -0.079083 0.065606 0.110709
vt 0.936118 0.370867
vt 0.936118 0.407265
vt 0.956228 0.407265
vt 0.953988 0.370867
vt 0.954179 0.462646
vt 0.967400 0.462646
vt 0.951574 0.474919
vt 0.940259 0.474919
vt 0.936118 0.462646
vt 0.918057 0.462646
vt 0.924803 0.474919
vt 0.904836 0.462646
vt 0.899997 0.462646
vt 0.920661 0.474919
vt 0.904836 0.462646
vt 0.918057 0.462646
vt 0.931976 0.474919
vt 0.936118 0.462646
vt 0.924800 0.328585
vt 0.912740 0.335970
vt 0.927031 0.298480
vt 0.933683 0.298480
vt 0.972239 0.462646
vt 0.967400 0.462646
vt 0.947433 0.474919
vt 0.970950 0.407265
vt 0.967070 0.370867
vt 0.949615 0.335970
vt 0.936118 0.335970
vt 0.938552 0.298480
vt 0.959495 0.335970
vt 0.945204 0.298480
vt 0.971858 0.370867
vt 0.963112 0.335970
vt 0.967070 0.370867
vt 0.959495 0.335970
vt 0.942769 0.298480
vt 0.952978 0.362810
vt 0.936118 0.362810
vt 0.936118 0.344027
vt 0.950625 0.344027
vt 0.948267 0.328590
vt 0.935638 0.328588
vt 0.954498 0.379154
vt 0.955718 0.398978
vt 0.936118 0.398978
vt 0.936118 0.379154
vt 0.919257 0.362810
vt 0.921611 0.344027
vt 0.916517 0.398978
vt 0.917738 0.379154
vt 0.905166 0.370867
vt 0.901285 0.407265
vt 0.936118 0.415484
vt 0.955530 0.415484
vt 0.954179 0.447021
vt 0.936118 0.447021
vt 0.900378 0.370867
vt 0.909124 0.335970
vt 0.905166 0.370867
vt 0.912740 0.335970
vt 0.929466 0.298480
vt 0.918248 0.370867
vt 0.922621 0.335970
vt 0.936118 0.291341
vt 0.901285 0.407265
vt 0.916007 0.407265
vt 0.976339 0.407265
vt 0.970950 0.407265
vt 0.895897 0.407265
vt 0.936118 0.447021
vt 0.954179 0.447021
vt 0.954179 0.462646
vt 0.967400 0.447021
vt 0.972239 0.447021
vt 0.967400 0.447021
vt 0.916705 0.415484
vt 0.918057 0.447021
vt 0.904836 0.447021
vt 0.899997 0.447021
vt 0.904836 0.447021
vt 0.918057 0.447021
vt 0.811738 0.682170
vt 0.812207 0.707605
vt 0.810415 0.711929
vt 0.809758 0.686759
vt 0.812207 0.717282
vt 0.813470 0.726209
vt 0.812778 0.730730
vt 0.810415 0.721606
vt 0.813470 0.732376
vt 0.812207 0.725646
vt 0.812207 0.715970
vt 0.811738 0.691348
vt 0.817019 0.717669
vt 0.817019 0.693069
vt 0.817019 0.734416
vt 0.817019 0.727345
vt 0.820567 0.732376
vt 0.821831 0.725646
vt 0.821831 0.715970
vt 0.822299 0.691348
vt 0.823622 0.711929
vt 0.824279 0.686759
vt 0.821259 0.730730
vt 0.823622 0.721606
vt 0.820567 0.726209
vt 0.821831 0.717282
vt 0.821831 0.707605
vt 0.822299 0.682170
vt 0.817019 0.706190
vt 0.817019 0.680449
vt 0.817019 0.727044
vt 0.817019 0.715866
vt 0.817019 0.714394
vt 0.820126 0.627357
vt 0.817019 0.626344
vt 0.813911 0.627357
vt 0.820126 0.632759
vt 0.821291 0.630058
vt 0.813911 0.632759
vt 0.817019 0.633771
vt 0.812746 0.630058
vt 0.805495 0.659045
vt 0.803793 0.681221
vt 0.802345 0.675908
vt 0.803915 0.653075
vt 0.803793 0.690897
vt 0.803743 0.697663
vt 0.802996 0.695507
vt 0.802345 0.685584
vt 0.803743 0.692569
vt 0.803793 0.683988
vt 0.803793 0.674311
vt 0.805495 0.651464
vt 0.807612 0.678437
vt 0.809706 0.655856
vt 0.806378 0.697132
vt 0.807612 0.688114
vt 0.809403 0.700381
vt 0.811469 0.694584
vt 0.811469 0.684907
vt 0.813918 0.663091
vt 0.812879 0.690448
vt 0.815497 0.669061
vt 0.809761 0.704845
vt 0.812879 0.700124
vt 0.809403 0.705476
vt 0.811469 0.701493
vt 0.811469 0.691817
vt 0.813918 0.670672
vt 0.807612 0.687918
vt 0.809706 0.666280
vt 0.806378 0.703220
vt 0.807612 0.697595
vt 0.805971 0.683244
vt 0.817234 0.617397
vt 0.814756 0.614812
vt 0.812277 0.610554
vt 0.817234 0.612935
vt 0.818164 0.616449
vt 0.812277 0.606092
vt 0.814756 0.608677
vt 0.811348 0.607040
vt 0.829748 0.617693
vt 0.831201 0.612155
vt 0.833844 0.633823
vt 0.832501 0.638749
vt 0.832501 0.648425
vt 0.833844 0.643500
vt 0.834058 0.653838
vt 0.833228 0.655490
vt 0.832696 0.644316
vt 0.833372 0.652460
vt 0.829963 0.613184
vt 0.832696 0.634640
vt 0.826414 0.621095
vt 0.829490 0.641954
vt 0.829490 0.651631
vt 0.831261 0.659060
vt 0.826155 0.660276
vt 0.828549 0.664227
vt 0.822785 0.630696
vt 0.826155 0.650599
vt 0.821332 0.636234
vt 0.824868 0.655724
vt 0.824868 0.665400
vt 0.828293 0.667903
vt 0.825959 0.664384
vt 0.828405 0.667257
vt 0.822571 0.635205
vt 0.825959 0.654708
vt 0.826119 0.627294
vt 0.829222 0.647593
vt 0.829222 0.657270
vt 0.831089 0.662681
vt 0.831777 0.643641
vt 0.816645 0.585041
vt 0.818733 0.580385
vt 0.820869 0.574735
vt 0.816771 0.582387
vt 0.815916 0.585646
vt 0.820995 0.572081
vt 0.818907 0.576737
vt 0.821724 0.571476
vt 0.936118 0.477894
vt 0.954498 0.347904
vt 0.953841 0.339684
vt 0.967070 0.339617
vt 0.953841 0.402184
vt 0.952978 0.394060
vt 0.967070 0.402117
vt 0.950625 0.312777
vt 0.949516 0.304918
vt 0.959495 0.304720
vt 0.949516 0.367418
vt 0.948267 0.359840
vt 0.959495 0.367220
vt 0.919257 0.394060
vt 0.918394 0.402184
vt 0.905166 0.402117
vt 0.918394 0.339684
vt 0.917738 0.347904
vt 0.905166 0.339617
vt 0.924800 0.359835
vt 0.922963 0.367417
vt 0.912740 0.367220
vt 0.922963 0.304917
vt 0.921611 0.312777
vt 0.912740 0.304720
vt 0.955530 0.384234
vt 0.955874 0.375995
vt 0.970950 0.376015
vt 0.955874 0.438495
vt 0.955718 0.430228
vt 0.970950 0.438515
vt 0.916517 0.430228
vt 0.916361 0.438495
vt 0.901285 0.438515
vt 0.916361 0.375995
vt 0.916705 0.384234
vt 0.901285 0.376015
vt 0.936118 0.347904
vt 0.936118 0.339684
vt 0.936118 0.402184
vt 0.936118 0.394060
vt 0.935638 0.359838
vt 0.935977 0.367418
vt 0.935977 0.304918
vt 0.936118 0.312777
vt 0.936118 0.430228
vt 0.936118 0.438495
vt 0.936118 0.375995
vt 0.936118 0.384234
vn 0.0000 -0.2074 -0.9782
vn -0.0000 0.0255 -0.9997
vn 0.4998 0.0255 -0.8657
vn 0.4891 -0.2074 -0.8472
vn 0.4159 0.5692 0.7093
vn 0.7093 0.5692 0.4159
vn 0.3212 0.9431 0.0861
vn 0.0861 0.9431 0.3212
vn -0.0056 0.5692 0.8222
vn -0.4063 0.5692 0.7148
vn -0.2351 0.9431 0.2351
vn -0.7148 0.5692 0.4063
vn -0.8222 0.5692 0.0056
vn -0.3212 0.9431 -0.0861
vn -0.7093 0.5692 -0.4159
vn -0.4159 0.5692 -0.7093
vn -0.0861 0.9431 -0.3212
vn 0.0056 0.5692 -0.8222
vn -0.4725 -0.4847 0.7360
vn -0.7656 -0.4426 0.4670
vn -0.7215 -0.6649 0.1933
vn -0.1933 -0.6649 0.7215
vn 0.8222 0.5692 -0.0056
vn 0.7148 0.5692 -0.4063
vn 0.2351 0.9431 -0.2351
vn 0.8657 0.0255 -0.4998
vn 0.8472 -0.2074 -0.4891
vn 0.4666 -0.3766 -0.8003
vn -0.0040 -0.3766 -0.9264
vn 0.1933 -0.6649 -0.7215
vn 0.8003 -0.3766 -0.4666
vn 0.7215 -0.6649 -0.1933
vn 0.9782 -0.2074 0.0000
vn 0.9264 -0.3766 0.0040
vn 0.8344 -0.2596 0.4862
vn 0.7689 -0.4459 0.4581
vn 0.5282 -0.6649 0.5282
vn 0.4397 0.0943 0.8932
vn 0.0000 0.1494 0.9888
vn 0.0005 -0.5439 0.8391
vn 0.3906 -0.5064 0.7687
vn 0.4631 -0.4809 0.7445
vn 0.0085 -0.4833 0.8754
vn 0.4166 -0.4087 0.8121
vn 0.4383 0.2198 0.8715
vn -0.0000 0.2671 0.9637
vn 0.0000 -0.4473 0.8944
vn -0.4397 0.0943 0.8932
vn -0.3912 -0.5050 0.7694
vn -0.4383 0.2198 0.8715
vn -0.4166 -0.4087 0.8121
vn -0.8344 -0.2596 0.4862
vn -0.8478 0.0259 0.5296
vn -0.0000 -0.2297 0.9733
vn 0.4401 -0.1806 0.8796
vn -0.9782 -0.2074 -0.0000
vn -0.9264 -0.3766 -0.0040
vn -0.8472 -0.2074 -0.4891
vn -0.8043 -0.3766 -0.4597
vn -0.5282 -0.6649 -0.5282
vn -0.4891 -0.2074 -0.8472
vn -0.4597 -0.3766 -0.8043
vn -0.0000 -1.0000 0.0000
vn -0.8657 0.0255 -0.4998
vn -0.4998 0.0255 -0.8657
vn 0.9997 0.0255 0.0000
vn 0.8478 0.0259 0.5296
vn -0.9997 0.0255 -0.0000
vn 0.4063 0.5692 -0.7148
vn -0.4401 -0.1806 0.8796
vn -0.7061 -0.2557 0.6603
vn -0.6643 0.1337 0.7354
vn -0.9417 0.3219 0.0982
vn -0.9987 -0.0482 -0.0147
vn -0.4718 0.5747 0.6687
vn -0.5741 0.7832 0.2389
vn -0.4716 0.8503 -0.2337
vn -0.6641 0.5222 -0.5350
vn -0.7062 0.1576 -0.6903
vn 0.0000 0.5973 -0.8021
vn -0.0000 0.2441 -0.9698
vn -0.0000 0.9507 -0.3100
vn 0.4716 0.8503 -0.2337
vn 0.6641 0.5222 -0.5350
vn 0.7062 0.1576 -0.6903
vn 0.9417 0.3219 0.0982
vn 0.9987 -0.0482 -0.0147
vn 0.5741 0.7832 0.2389
vn 0.4718 0.5747 0.6687
vn 0.6643 0.1337 0.7354
vn 0.7061 -0.2557 0.6603
vn 0.0000 0.0464 0.9989
vn -0.0000 -0.3404 0.9403
vn -0.0000 0.6154 0.7882
vn -0.0000 0.9565 0.2917
vn 0.6884 -0.4198 0.5915
vn 0.0000 -0.4979 0.8673
vn -0.6884 -0.4198 0.5915
vn 0.6884 -0.0168 -0.7252
vn 0.9750 -0.2126 -0.0651
vn -0.6883 -0.0168 -0.7252
vn 0.0000 0.0728 -0.9973
vn -0.9750 -0.2126 -0.0651
vn -0.6138 -0.1473 0.7756
vn -0.7471 0.2005 0.6337
vn -0.9943 -0.1025 0.0290
vn -0.8774 -0.4616 0.1306
vn -0.7483 0.5771 0.3271
vn -0.8727 0.4697 -0.1329
vn -0.7485 0.3198 -0.5810
vn -0.7471 -0.1621 -0.6446
vn -0.6135 -0.5326 -0.5830
vn -0.1460 0.0347 -0.9887
vn 0.0219 -0.3162 -0.9484
vn -0.3553 0.5533 -0.7534
vn 0.1018 0.7143 -0.6924
vn 0.4495 0.3939 -0.8018
vn 0.6583 0.0584 -0.7505
vn 0.7018 0.6855 -0.1939
vn 0.9212 0.3744 -0.1059
vn 0.1618 0.9496 -0.2685
vn 0.1018 0.9712 0.2153
vn 0.4492 0.7560 0.4761
vn 0.6581 0.4438 0.6083
vn -0.1460 0.5486 0.8233
vn 0.0218 0.2289 0.9732
vn -0.3551 0.8662 0.3515
vn -0.4338 0.8670 -0.2451
vn 0.7191 0.2784 0.6367
vn 0.0967 0.0737 0.9926
vn -0.5207 -0.2979 0.8000
vn 0.7194 -0.0974 -0.6877
vn 0.9746 0.2157 -0.0608
vn -0.5206 -0.6736 -0.5246
vn 0.0967 -0.4586 -0.8834
vn -0.7813 -0.6005 0.1700
vn 0.4928 -0.3695 0.7878
vn 0.7337 -0.6675 0.1266
vn 0.9380 -0.3379 0.0772
vn 0.7140 -0.0503 0.6983
vn 0.9652 0.2607 -0.0203
vn 0.8284 0.3455 0.4410
vn 0.7444 -0.2660 -0.6124
vn 0.8501 0.1924 -0.4902
vn 0.5250 -0.5985 -0.6051
vn -0.0093 -0.2004 -0.9797
vn 0.2370 0.1029 -0.9660
vn 0.5373 0.5294 -0.6565
vn -0.2751 0.5713 -0.7733
vn 0.1253 0.7868 -0.6043
vn -0.5585 0.2915 -0.7766
vn -0.7983 0.5911 -0.1155
vn -0.5069 0.8486 -0.1510
vn 0.0833 0.9837 -0.1594
vn -0.3054 0.7865 0.5367
vn 0.1036 0.9396 0.3262
vn -0.5907 0.5206 0.6164
vn -0.0551 0.1238 0.9908
vn 0.1937 0.4086 0.8919
vn 0.5107 0.7156 0.4765
vn 0.6400 0.7605 -0.1098
vn -0.6901 0.3725 0.6205
vn -0.1649 -0.0104 0.9863
vn 0.3661 -0.4955 0.7877
vn -0.6588 0.1491 -0.7374
vn -0.8902 0.4459 -0.0937
vn 0.3976 -0.7188 -0.5704
vn -0.1201 -0.3270 -0.9374
vn 0.6055 -0.7830 0.1426
vn 0.0000 1.0000 -0.0000
vn 0.2449 -0.7221 0.6471
vn 0.3076 0.5308 0.7898
vn 0.3694 0.5126 0.7751
vn 0.1578 -0.7893 0.5934
vn 0.2454 0.4423 0.8627
vn 0.2384 0.4442 0.8637
vn 0.2549 0.4397 0.8612
vn -0.3076 0.5308 0.7898
vn -0.3694 0.5126 0.7751
vn -0.2449 -0.7221 0.6471
vn -0.2370 0.4620 0.8546
vn -0.2471 0.4585 0.8536
vn -0.2582 0.4546 0.8524
vn -0.1610 -0.7867 0.5960
vn 0.2967 -0.6039 0.7398
vn 0.2884 0.6283 0.7225
vn -0.2884 0.6283 0.7225
vn -0.2967 -0.6039 0.7398
vn 0.0000 -0.7417 0.6708
vn 0.0000 0.5662 0.8243
vn -0.0061 0.4682 0.8836
vn 0.0074 0.4676 0.8839
vn -0.0015 -0.7982 0.6024
vn -0.0000 0.6574 0.7535
vn 0.0000 -0.6354 0.7722
usemtl farmer
s 1
f 4/1/1 27/2/2 29/3/3 6/4/4
f 37/5/5 36/6/6 151/7/7 150/8/8
f 38/9/9 37/5/5 150/8/8
f 39/10/10 38/9/9 150/8/8 149/11/11
f 41/12/12 39/10/10 149/11/11
f 43/13/13 41/12/12 149/11/11 148/14/14
f 45/15/15 43/13/13 148/14/14
f 47/16/16 45/15/15 148/14/14 147/17/17
f 28/18/18 47/16/16 147/17/17
f 168/19/19 19/20/20 17/21/21 16/22/22
f 36/6/6 34/23/23 151/7/7
f 34/23/23 32/24/24 152/25/25 151/7/7
f 6/4/4 29/3/3 31/26/26 9/27/27
f 4/1/1 6/4/4 7/28/28 5/29/29
f 5/29/29 7/28/28 3/30/30
f 6/4/4 9/27/27 10/31/31 7/28/28
f 7/28/28 10/31/31 8/32/32 3/30/30
f 9/27/27 11/33/33 12/34/34 10/31/31
f 10/31/31 12/34/34 8/32/32
f 11/33/33 14/35/35 15/36/36 12/34/34
f 12/34/34 15/36/36 13/37/37 8/32/32
f 154/38/38 160/39/39 162/40/40 156/41/41
f 157/42/42 163/43/43 16/22/22 13/37/37
f 153/44/44 172/45/45 175/46/46 159/47/47
f 160/39/39 165/48/48 169/49/49 162/40/40
f 159/47/47 175/46/46 177/50/50 166/51/51
f 165/48/48 18/52/52 19/20/20 169/49/49
f 18/52/52 166/51/51 177/50/50 40/53/53
f 174/54/54 171/55/55 37/56/5 38/57/9
f 18/52/52 20/58/56 21/59/57 19/20/20
f 19/20/20 21/59/57 17/21/21
f 20/58/56 23/60/58 24/61/59 21/59/57
f 21/59/57 24/61/59 22/62/60 17/21/21
f 23/60/58 25/63/61 26/64/62 24/61/59
f 24/61/59 26/64/62 22/62/60
f 25/63/61 4/1/1 5/29/29 26/64/62
f 26/64/62 5/29/29 3/30/30 22/62/60
f 8/32/32 13/37/37 1/65/63
f 3/30/30 8/32/32 1/65/63
f 22/62/60 3/30/30 1/65/63
f 17/21/21 22/62/60 1/65/63
f 16/22/22 17/21/21 1/65/63
f 13/37/37 16/22/22 1/65/63
f 23/60/58 44/66/64 46/67/65 25/63/61
f 9/27/27 31/26/26 33/68/66 11/33/33
f 25/63/61 46/67/65 27/2/2 4/1/1
f 11/33/33 33/68/66 35/69/67 14/35/35
f 14/35/35 154/38/38 156/41/41 15/36/36
f 15/36/36 157/42/42 13/37/37
f 163/43/43 168/19/19 16/22/22
f 20/58/56 42/70/68 44/66/64 23/60/58
f 18/52/52 40/53/53 42/70/68 20/58/56
f 29/3/3 27/2/2 28/71/18 30/72/69
f 32/24/24 30/73/69 152/25/25
f 31/26/26 29/3/3 30/72/69 32/74/24
f 33/68/66 31/26/26 32/74/24 34/75/23
f 35/69/67 33/68/66 34/75/23 36/76/6
f 178/77/70 174/54/54 38/57/9 39/78/10
f 171/55/55 35/69/67 36/76/6 37/56/5
f 40/53/53 178/77/70 39/78/10 41/79/12
f 42/70/68 40/53/53 41/79/12 43/80/13
f 44/66/64 42/70/68 43/80/13 45/81/15
f 46/67/65 44/66/64 45/81/15 47/82/16
f 27/2/2 46/67/65 47/82/16 28/71/18
f 52/83/71 56/84/72 72/85/73 71/86/74
f 56/87/72 48/88/75 57/89/76 72/90/73
f 72/90/73 57/89/76 49/91/77 65/92/78
f 71/86/74 72/85/73 65/93/78 53/94/79
f 53/94/79 65/93/78 73/95/80 70/96/81
f 65/92/78 49/91/77 59/97/82 73/98/80
f 73/98/80 59/97/82 51/99/83 66/100/84
f 70/96/81 73/95/80 66/101/84 54/102/85
f 54/102/85 66/101/84 74/103/86 69/104/87
f 66/100/84 51/99/83 61/105/88 74/106/86
f 74/106/86 61/105/88 50/107/89 67/108/90
f 69/104/87 74/103/86 67/109/90 55/110/91
f 55/110/91 67/109/90 75/111/92 68/112/93
f 67/108/90 50/107/89 63/113/94 75/114/92
f 75/114/92 63/113/94 48/88/75 56/87/72
f 68/112/93 75/111/92 56/84/72 52/83/71
f 51/99/83 59/97/82 76/115/95 61/105/88
f 59/97/82 49/91/77 57/89/76 76/115/95
f 76/115/95 57/89/76 48/88/75 63/113/94
f 61/105/88 76/115/95 63/113/94 50/107/89
f 62/116/96 55/110/91 68/112/93 77/117/97
f 77/117/97 68/112/93 52/83/71 64/118/98
f 60/119/99 54/102/85 69/104/87 78/120/100
f 78/120/100 69/104/87 55/110/91 62/116/96
f 58/121/101 53/94/79 70/96/81 79/122/102
f 79/122/102 70/96/81 54/102/85 60/119/99
f 64/118/98 52/83/71 71/86/74 80/123/103
f 80/123/103 71/86/74 53/94/79 58/121/101
f 85/124/104 89/125/105 105/126/106 104/127/107
f 89/128/105 81/129/108 90/130/109 105/131/106
f 105/131/106 90/130/109 82/132/110 98/133/111
f 104/127/107 105/126/106 98/134/111 86/135/112
f 86/135/112 98/134/111 106/136/113 103/137/114
f 98/133/111 82/132/110 92/138/115 106/139/113
f 106/139/113 92/138/115 84/140/116 99/141/117
f 103/137/114 106/136/113 99/142/117 87/143/118
f 87/143/118 99/142/117 107/144/119 102/145/120
f 99/141/117 84/140/116 94/146/121 107/147/119
f 107/147/119 94/146/121 83/148/122 100/149/123
f 102/145/120 107/144/119 100/150/123 88/151/124
f 88/151/124 100/150/123 108/152/125 101/153/126
f 100/149/123 83/148/122 96/154/127 108/155/125
f 108/155/125 96/154/127 81/129/108 89/128/105
f 101/153/126 108/152/125 89/125/105 85/124/104
f 84/140/116 92/138/115 109/156/128 94/146/121
f 92/138/115 82/132/110 90/130/109 109/156/128
f 109/156/128 90/130/109 81/129/108 96/154/127
f 94/146/121 109/156/128 96/154/127 83/148/122
f 95/157/129 88/151/124 101/153/126 110/158/130
f 110/158/130 101/153/126 85/124/104 97/159/131
f 93/160/132 87/143/118 102/145/120 111/161/133
f 111/161/133 102/145/120 88/151/124 95/157/129
f 91/162/134 86/135/112 103/137/114 112/163/135
f 112/163/135 103/137/114 87/143/118 93/160/132
f 97/159/131 85/124/104 104/127/107 113/164/136
f 113/164/136 104/127/107 86/135/112 91/162/134
f 118/165/137 137/166/138 138/167/139 122/168/140
f 122/169/140 138/170/139 123/171/141 114/172/142
f 138/170/139 131/173/143 115/174/144 123/171/141
f 137/166/138 119/175/145 131/176/143 138/167/139
f 119/175/145 136/177/146 139/178/147 131/176/143
f 131/173/143 139/179/147 125/180/148 115/174/144
f 139/179/147 132/181/149 117/182/150 125/180/148
f 136/177/146 120/183/151 132/184/149 139/178/147
f 120/183/151 135/185/152 140/186/153 132/184/149
f 132/181/149 140/187/153 127/188/154 117/182/150
f 140/187/153 133/189/155 116/190/156 127/188/154
f 135/185/152 121/191/157 133/192/155 140/186/153
f 121/191/157 134/193/158 141/194/159 133/192/155
f 133/189/155 141/195/159 129/196/160 116/190/156
f 141/195/159 122/169/140 114/172/142 129/196/160
f 134/193/158 118/165/137 122/168/140 141/194/159
f 117/182/150 127/188/154 142/197/161 125/180/148
f 125/180/148 142/197/161 123/171/141 115/174/144
f 142/197/161 129/196/160 114/172/142 123/171/141
f 127/188/154 116/190/156 129/196/160 142/197/161
f 128/198/162 143/199/163 134/193/158 121/191/157
f 143/199/163 130/200/164 118/165/137 134/193/158
f 126/201/165 144/202/166 135/185/152 120/183/151
f 144/202/166 128/198/162 121/191/157 135/185/152
f 124/203/167 145/204/168 136/177/146 119/175/145
f 145/204/168 126/201/165 120/183/151 136/177/146
f 130/200/164 146/205/169 137/166/138 118/165/137
f 146/205/169 124/203/167 119/175/145 137/166/138
f 28/18/18 147/17/17 152/25/25 30/73/69
f 2/206/170 147/17/17 148/14/14
f 2/206/170 148/14/14 149/11/11
f 2/206/170 149/11/11 150/8/8
f 2/206/170 150/8/8 151/7/7
f 2/206/170 151/7/7 152/25/25
f 2/206/170 152/25/25 147/17/17
f 153/207/44 155/208/171 14/209/35
f 155/210/172 154/211/38 14/212/173
f 156/213/41 158/214/174 15/215/36
f 158/216/175 157/217/176 15/218/177
f 165/219/48 167/220/178 18/221/179
f 167/222/180 166/223/51 18/224/52
f 168/225/181 170/226/182 19/227/183
f 170/228/184 169/229/49 19/230/20
f 171/231/55 173/232/185 35/233/67
f 173/234/186 172/235/45 35/236/67
f 177/237/50 179/238/187 40/239/53
f 179/240/188 178/241/70 40/242/53
f 153/207/44 159/243/47 161/244/189 155/208/171
f 155/210/172 161/245/190 160/246/39 154/211/38
f 163/247/191 157/217/176 158/216/175 164/248/192
f 164/249/193 158/214/174 156/213/41 162/250/40
f 159/243/47 166/223/51 167/222/180 161/244/189
f 161/245/190 167/220/178 165/219/48 160/246/39
f 168/225/181 163/247/191 164/248/192 170/226/182
f 170/228/184 164/249/193 162/250/40 169/229/49
f 175/251/46 172/235/45 173/234/186 176/252/194
f 176/253/195 173/232/185 171/231/55 174/254/54
f 177/237/50 175/251/46 176/252/194 179/238/187
f 179/240/188 176/253/195 174/254/54 178/241/70
f 14/35/35 35/69/67 172/45/45 153/44/44
