# Blender v3.4.1 OBJ File: 'June2026_Farmers_Assets_Export.blend'
# www.blender.org
mtllib dirt_plot.mtl
o dirt_plot
v 0.135309 0.069550 0.405239
v -0.344090 0.069550 0.243764
v -0.320780 0.069550 -0.227497
v 0.117178 0.069550 -0.363257
v 0.388572 0.069550 0.004786
v -0.001174 0.093661 0.002492
v 0.427168 -0.011500 0.147697
v 0.397116 -0.011500 -0.124668
v 0.005726 -0.011500 0.459800
v 0.283709 -0.011500 0.392228
v -0.467317 -0.011500 0.152956
v -0.248116 -0.011500 0.375525
v -0.252011 -0.011500 -0.340731
v -0.437799 -0.011500 -0.133183
v 0.242817 -0.011500 -0.338525
v 0.000799 -0.011500 -0.422522
v 0.317836 0.083491 0.236547
v -0.118526 0.083491 0.362972
v -0.401285 0.083491 0.004809
v -0.111091 0.083491 -0.340948
v 0.285112 0.083491 -0.207130
v 0.073708 0.126700 0.226077
v 0.224737 0.126699 0.004115
v -0.194528 0.126700 0.140246
v 0.067238 0.126700 -0.208875
v 0.415595 -0.011500 -0.221243
v 0.340454 0.048786 -0.239729
v 0.362495 -0.011500 -0.317980
v -0.170625 -0.011500 0.484824
v -0.258337 0.138957 -0.180688
v -0.306189 0.147991 -0.036735
v -0.135300 0.154736 -0.088891
v -0.127924 0.148177 -0.248070
v -0.397240 -0.011500 0.307717
v -0.145368 -0.011500 -0.433227
vt 0.827786 0.946105
vt 0.846370 0.950193
vt 0.822130 0.883526
vt 0.781570 0.946105
vt 0.804053 0.950194
vt 0.796683 0.883526
vt 0.826361 0.946105
vt 0.804485 0.950193
vt 0.821652 0.883526
vt 0.851578 0.946105
vt 0.842429 0.950193
vt 0.836532 0.883526
vt 0.815139 0.795159
vt 0.776027 0.950193
vt 0.779578 0.939253
vt 0.785387 0.946105
vt 0.787266 0.936532
vt 0.803327 0.938861
vt 0.852637 0.868367
vt 0.838783 0.868367
vt 0.842429 0.950193
vt 0.815139 0.868367
vt 0.803315 0.868367
vt 0.791490 0.868367
vt 0.773103 0.868367
vt 0.768243 0.868367
vt 0.789149 0.868367
vt 0.815139 0.868367
vt 0.815139 0.868367
vt 0.843593 0.868367
vt 0.856757 0.868367
vt 0.778696 0.868367
vt 0.852637 0.868367
vt 0.838783 0.868367
vt 0.797669 0.883526
vt 0.804053 0.903319
vn 0.1796 0.7140 0.6767
vn 0.5121 0.8005 0.3114
vn 0.0346 0.9920 0.1213
vn -0.4260 0.8291 0.3621
vn -0.1614 0.8709 0.4642
vn -0.0921 0.9844 0.1502
vn 0.2387 0.6780 -0.6952
vn -0.1424 0.7685 -0.6238
vn 0.1141 0.9820 -0.1508
vn 0.7140 0.6966 -0.0705
vn 0.3802 0.8795 -0.2862
vn 0.1412 0.9899 -0.0146
vn 0.0663 0.9963 0.0547
vn -0.6730 0.7396 -0.0055
vn -0.3686 0.9293 0.0215
vn -0.6099 0.5878 -0.5316
vn -0.3506 0.8857 -0.3042
vn -0.0656 0.9247 -0.3750
vn 0.7595 0.6363 -0.1353
vn 0.3548 0.6341 -0.6871
vn 0.4478 0.8480 -0.2836
vn 0.0570 0.5811 -0.8118
vn -0.2222 0.7194 -0.6581
vn -0.4921 0.5835 -0.6460
vn -0.7627 0.5679 -0.3094
vn -0.7114 0.6836 0.1632
vn -0.4244 0.6976 0.5772
vn 0.0189 0.6360 0.7715
vn -0.2301 0.8128 0.5352
vn 0.4979 0.6025 0.6238
vn 0.8043 0.5598 0.1994
vn -0.4888 0.7150 0.4999
vn 0.6342 0.7704 -0.0652
vn 0.3257 0.7911 -0.5177
vn 0.1008 0.9921 0.0746
usemtl farmer
s 1
f 1/1/1 17/2/2 22/3/3
f 2/4/4 18/5/5 24/6/6
f 4/7/7 20/8/8 25/9/9
f 5/10/10 21/11/11 23/12/12
f 23/12/12 25/9/9 6/13/13
f 23/12/12 21/11/11 25/9/9
f 21/11/11 4/7/7 25/9/9
f 19/14/14 24/6/6 31/15/15
f 3/16/16 19/14/14 31/15/15 30/17/17
f 20/8/8 3/16/16 30/17/17 33/18/18
f 25/9/9 20/8/8 33/18/18
f 19/14/14 2/4/4 24/6/6
f 24/6/6 22/3/3 6/13/13
f 24/6/6 18/5/5 22/3/3
f 18/5/5 1/1/1 22/3/3
f 22/3/3 23/12/12 6/13/13
f 22/3/3 17/2/2 23/12/12
f 17/2/2 5/10/10 23/12/12
f 8/19/19 21/11/11 5/10/10
f 15/20/20 21/11/11 27/21/21
f 15/20/20 4/7/7 21/11/11
f 16/22/22 20/8/8 4/7/7
f 35/23/23 13/24/24 20/8/8
f 13/24/24 3/16/16 20/8/8
f 14/25/25 19/14/14 3/16/16
f 14/25/25 11/26/26 19/14/14
f 11/26/26 2/4/4 19/14/14
f 12/27/27 18/5/5 2/4/4
f 9/28/28 18/5/5 29/29/29
f 9/28/28 1/1/1 18/5/5
f 10/30/30 17/2/2 1/1/1
f 10/30/30 7/31/31 17/2/2
f 7/31/31 5/10/10 17/2/2
f 15/20/20 16/22/22 4/7/7
f 13/24/24 14/25/25 3/16/16
f 34/32/32 12/27/27 2/4/4
f 9/28/28 10/30/30 1/1/1
f 7/31/31 8/19/19 5/10/10
f 26/33/33 28/34/34 27/21/21
f 28/34/34 15/20/20 27/21/21
f 8/19/19 26/33/33 27/21/21
f 21/11/11 8/19/19 27/21/21
f 25/9/9 32/35/35 6/13/13
f 30/17/17 31/15/15 32/35/35
f 18/5/5 12/27/27 29/36/29
f 25/9/9 33/18/18 32/35/35
f 33/18/18 30/17/17 32/35/35
f 32/35/35 24/6/6 6/13/13
f 32/35/35 31/15/15 24/6/6
f 11/26/26 34/32/32 2/4/4
f 16/22/22 35/23/23 20/8/8
