# Blender v3.4.1 OBJ File: 'June2026_Farmers_Assets_Export.blend'
# www.blender.org
mtllib lettuce.mtl
o lettuce
v -0.000001 -0.230459 0.000001
v -0.205005 -0.103063 -0.021545
v -0.042859 -0.103063 -0.201627
v 0.178515 -0.103062 -0.103066
v 0.153185 -0.103063 0.137931
v -0.083844 -0.103063 0.188312
v -0.153117 0.103047 -0.138026
v 0.084712 0.103176 -0.190266
v 0.205037 0.103029 0.021429
v 0.042858 0.103093 0.201618
v -0.178577 0.102935 0.103101
v 0.013881 0.236343 -0.005448
v -0.024853 -0.193403 -0.116919
v -0.118878 -0.193403 -0.012493
v -0.143731 -0.119528 -0.129413
v -0.167497 -0.119528 0.096704
v -0.048620 -0.193403 0.109198
v 0.103517 -0.193403 -0.059765
v 0.078665 -0.119528 -0.176685
v 0.088828 -0.193403 0.079983
v 0.192346 -0.119528 0.020217
v 0.040210 -0.119528 0.189181
v -0.222397 0.000005 0.047273
v -0.152138 0.000005 0.168965
v -0.113599 0.000176 -0.196950
v -0.207709 0.000005 -0.092476
v 0.152244 0.000030 -0.168865
v 0.023620 0.000030 -0.226133
v 0.207706 0.000005 0.092478
v 0.222374 0.000176 -0.047366
v -0.023767 0.000005 0.226119
v 0.113681 0.000005 0.196904
v -0.192447 0.119369 -0.020267
v -0.035620 0.128509 -0.184589
v 0.160989 0.128555 -0.097020
v 0.143752 0.119463 0.129459
v -0.078653 0.119399 0.176786
v -0.085508 0.200160 -0.073610
v -0.105529 0.194306 0.060984
v 0.038909 0.208771 -0.087135
v 0.118500 0.193680 0.015128
v 0.023423 0.199560 0.111012
v 0.088252 0.161325 -0.050952
v 0.097269 0.087494 -0.056158
v 0.097229 -0.037395 -0.056135
v 0.083704 -0.198384 -0.048327
v 0.163473 0.165905 0.008728
v 0.216385 0.092550 0.056571
v 0.220659 -0.034803 0.078977
v 0.171731 -0.151701 0.053121
v 0.074178 0.165905 -0.145935
v 0.059201 0.092550 -0.215681
v 0.041933 -0.034803 -0.230585
v 0.039861 -0.151701 -0.175285
v 0.074981 -0.140706 -0.043291
v 0.107486 0.224496 -0.062057
v 0.209637 0.168150 -0.121034
v 0.239221 0.076028 -0.138115
v 0.240401 -0.041844 -0.138796
v 0.273648 0.080321 -0.008152
v 0.278782 -0.036074 0.005119
v 0.219712 -0.157913 -0.004323
v 0.232760 0.166735 -0.018880
v 0.132731 0.166735 -0.192136
v 0.143884 0.080321 -0.232910
v 0.134957 -0.036074 -0.243992
v 0.113600 -0.157913 -0.188114
v 0.188020 -0.166436 -0.108553
v 0.166786 0.222294 -0.096294
v -0.088252 0.161325 -0.050952
v -0.097269 0.087494 -0.056158
v -0.097229 -0.037395 -0.056135
v -0.083705 -0.198384 -0.048327
v -0.074178 0.165905 -0.145935
v -0.059201 0.092550 -0.215681
v -0.041934 -0.034803 -0.230585
v -0.039862 -0.151701 -0.175285
v -0.163473 0.165905 0.008728
v -0.216386 0.092550 0.056571
v -0.220660 -0.034803 0.078978
v -0.171732 -0.151701 0.053121
v -0.074982 -0.140706 -0.043291
v -0.107486 0.224496 -0.062057
v -0.209637 0.168150 -0.121034
v -0.239221 0.076028 -0.138114
v -0.240402 -0.041844 -0.138796
v -0.143884 0.080321 -0.232910
v -0.134958 -0.036074 -0.243992
v -0.113600 -0.157913 -0.188114
v -0.132731 0.166735 -0.192136
v -0.232760 0.166735 -0.018880
v -0.273648 0.080321 -0.008152
v -0.278782 -0.036074 0.005119
v -0.219712 -0.157913 -0.004323
v -0.188020 -0.166436 -0.108553
v -0.166786 0.222294 -0.096294
v -0.000000 0.161325 0.101905
v -0.000000 0.087494 0.112316
v -0.000000 -0.037395 0.112270
v -0.000000 -0.198384 0.096654
v -0.089295 0.165905 0.137208
v -0.157185 0.092550 0.159110
v -0.178726 -0.034803 0.151608
v -0.131871 -0.151701 0.122163
v 0.089295 0.165905 0.137208
v 0.157184 0.092550 0.159110
v 0.178726 -0.034803 0.151608
v 0.131870 -0.151701 0.122163
v -0.000000 -0.140706 0.086581
v -0.000000 0.224496 0.124114
v 0.000000 0.168150 0.242068
v 0.000000 0.076028 0.276229
v 0.000000 -0.041844 0.277592
v -0.129764 0.080321 0.241062
v -0.143824 -0.036074 0.238872
v -0.106112 -0.157913 0.192437
v -0.100029 0.166735 0.211017
v 0.100029 0.166735 0.211016
v 0.129764 0.080321 0.241062
v 0.143824 -0.036074 0.238872
v 0.106112 -0.157913 0.192437
v 0.000000 -0.166436 0.217106
v 0.000000 0.222294 0.192587
v -0.026004 0.247030 0.014857
v 0.061964 0.192486 -0.139174
v -0.000000 0.182482 -0.208579
v -0.000000 0.080449 -0.180259
v -0.000000 -0.040631 -0.159664
v -0.000000 -0.224830 -0.084525
v 0.092667 0.190227 -0.214638
v 0.154637 0.087063 -0.176887
v 0.174545 -0.035022 -0.172782
v 0.115667 -0.156762 -0.120985
v -0.092667 0.190227 -0.214638
v -0.154637 0.087063 -0.176887
v -0.174545 -0.035022 -0.172782
v -0.115667 -0.156762 -0.120985
v -0.000000 -0.150915 -0.092735
v -0.000000 0.244253 -0.245370
v 0.048209 0.136424 -0.316072
v 0.072955 0.053827 -0.308291
v 0.084212 -0.076518 -0.303599
v 0.050190 -0.183902 -0.207572
v 0.103018 0.154371 -0.297805
v 0.170839 0.075437 -0.271843
v 0.193323 -0.040814 -0.275681
v 0.133878 -0.160771 -0.223193
v -0.103019 0.154371 -0.297805
v -0.170840 0.075437 -0.271843
v -0.193323 -0.040814 -0.275681
v -0.133878 -0.160771 -0.223193
v -0.048209 0.136424 -0.316072
v -0.072956 0.053827 -0.308291
v -0.084212 -0.076518 -0.303599
v -0.050190 -0.183902 -0.207572
v -0.000000 0.193411 -0.322395
v -0.117472 0.183071 -0.260503
v -0.195432 0.089375 -0.221196
v -0.000000 0.241681 -0.295719
v 0.223882 -0.035411 -0.220180
v 0.195432 0.089375 -0.221196
v -0.223883 -0.035411 -0.220180
v 0.157254 -0.167511 -0.171781
v -0.157255 -0.167511 -0.171781
v 0.117471 0.183071 -0.260504
v 0.180634 0.182482 0.104289
v 0.156109 0.080449 0.090130
v 0.138272 -0.040631 0.079832
v 0.073201 -0.224830 0.042263
v 0.139548 0.190227 0.187571
v 0.075869 0.087063 0.222364
v 0.062360 -0.035022 0.237552
v 0.046942 -0.156762 0.160664
v 0.232215 0.190227 0.027067
v 0.230507 0.087063 -0.045477
v 0.236906 -0.035022 -0.064770
v 0.162609 -0.156762 -0.039678
v 0.080310 -0.150915 0.046367
v 0.212496 0.244253 0.122685
v 0.249621 0.136424 0.199786
v 0.230509 0.053827 0.217327
v 0.220818 -0.076518 0.224730
v 0.154667 -0.183902 0.147252
v 0.206397 0.154371 0.238120
v 0.150002 0.075437 0.283873
v 0.142085 -0.040814 0.305264
v 0.126351 -0.160771 0.227539
v 0.309415 0.154371 0.059686
v 0.320842 0.075437 -0.012030
v 0.335408 -0.040814 -0.029582
v 0.260229 -0.160771 -0.004346
v 0.297830 0.136424 0.116286
v 0.303465 0.053827 0.090964
v 0.305030 -0.076518 0.078870
v 0.204857 -0.183902 0.060320
v 0.279202 0.193411 0.161198
v 0.284338 0.183071 0.028518
v 0.289277 0.089375 -0.058651
v 0.256099 0.241681 0.147859
v 0.078739 -0.035411 0.303979
v 0.093845 0.089375 0.279847
v 0.302622 -0.035411 -0.083799
v 0.070139 -0.167511 0.222077
v 0.227393 -0.167511 -0.050296
v 0.166866 0.183071 0.231985
v -0.180634 0.182482 0.104289
v -0.156109 0.080449 0.090130
v -0.138272 -0.040631 0.079832
v -0.073201 -0.224830 0.042263
v -0.232215 0.190227 0.027067
v -0.230507 0.087063 -0.045477
v -0.236906 -0.035022 -0.064770
v -0.162609 -0.156762 -0.039678
v -0.139548 0.190227 0.187571
v -0.075869 0.087063 0.222364
v -0.062360 -0.035022 0.237552
v -0.046942 -0.156762 0.160664
v -0.080310 -0.150915 0.046367
v -0.212496 0.244253 0.122685
v -0.297830 0.136424 0.116286
v -0.303465 0.053827 0.090964
v -0.305030 -0.076518 0.078870
v -0.204857 -0.183902 0.060321
v -0.309415 0.154371 0.059686
v -0.320842 0.075437 -0.012030
v -0.335408 -0.040814 -0.029582
v -0.260229 -0.160771 -0.004346
v -0.206397 0.154371 0.238120
v -0.150002 0.075437 0.283873
v -0.142085 -0.040814 0.305264
v -0.126351 -0.160771 0.227539
v -0.249621 0.136424 0.199786
v -0.230509 0.053827 0.217327
v -0.220818 -0.076518 0.224730
v -0.154667 -0.183902 0.147252
v -0.279202 0.193411 0.161198
v -0.166866 0.183071 0.231985
v -0.093845 0.089375 0.279847
v -0.256099 0.241681 0.147860
v -0.302622 -0.035411 -0.083799
v -0.289277 0.089375 -0.058651
v -0.078739 -0.035411 0.303979
v -0.227394 -0.167511 -0.050296
v -0.070139 -0.167511 0.222077
v -0.284338 0.183071 0.028518
vt 0.802855 0.555352
vt 0.789678 0.555352
vt 0.800101 0.555352
vt 0.780437 0.610502
vt 0.784289 0.606967
vt 0.814330 0.555352
vt 0.812702 0.555352
vt 0.797466 0.555352
vt 0.778204 0.630637
vt 0.798169 0.610502
vt 0.786924 0.606967
vt 0.790254 0.630637
vt 0.822377 0.610502
vt 0.811575 0.606967
vt 0.819719 0.630637
vt 0.819607 0.610502
vt 0.824176 0.606967
vt 0.825879 0.630637
vt 0.793687 0.610502
vt 0.807312 0.606967
vt 0.800221 0.630637
vt 0.779832 0.630637
vt 0.805490 0.630637
vt 0.827507 0.630637
vt 0.815456 0.630637
vt 0.785992 0.630637
vt 0.786104 0.650773
vt 0.781534 0.654308
vt 0.793009 0.668936
vt 0.798398 0.626483
vt 0.806924 0.642759
vt 0.808802 0.645545
vt 0.825273 0.650773
vt 0.821421 0.626483
vt 0.816032 0.668936
vt 0.807542 0.650773
vt 0.818787 0.654308
vt 0.805610 0.668936
vt 0.783334 0.650772
vt 0.794136 0.654308
vt 0.791381 0.668936
vt 0.821235 0.641111
vt 0.818480 0.647835
vt 0.817784 0.652890
vt 0.794136 0.626483
vt 0.802855 0.675660
vt 0.818787 0.626483
vt 0.806924 0.670584
vt 0.821421 0.654308
vt 0.798398 0.654308
vt 0.781534 0.626483
vt 0.812024 0.650773
vt 0.785992 0.602812
vt 0.823878 0.593922
vt 0.814979 0.604913
vt 0.813604 0.593025
vt 0.825246 0.541481
vt 0.829016 0.560691
vt 0.816338 0.558137
vt 0.812815 0.540867
vt 0.814977 0.578582
vt 0.812807 0.593922
vt 0.828265 0.579768
vt 0.808014 0.541481
vt 0.806874 0.560691
vt 0.808171 0.555352
vt 0.809090 0.579768
vt 0.824404 0.561583
vt 0.828735 0.564828
vt 0.829538 0.583193
vt 0.828770 0.601689
vt 0.832551 0.602431
vt 0.833476 0.584168
vt 0.828529 0.616286
vt 0.825167 0.615872
vt 0.820061 0.626744
vt 0.813390 0.616286
vt 0.802855 0.615872
vt 0.802855 0.601689
vt 0.817246 0.602431
vt 0.815802 0.564828
vt 0.816859 0.584168
vt 0.818160 0.602431
vt 0.817994 0.616286
vt 0.780544 0.615872
vt 0.787717 0.616286
vt 0.787550 0.602431
vt 0.776941 0.601689
vt 0.796621 0.603020
vt 0.787717 0.639538
vt 0.809090 0.603020
vt 0.812807 0.640426
vt 0.817994 0.639538
vt 0.814979 0.651417
vt 0.820061 0.649996
vt 0.828265 0.603020
vt 0.829016 0.583943
vt 0.806874 0.583943
vt 0.825246 0.564733
vt 0.808014 0.564733
vt 0.823878 0.640426
vt 0.828529 0.639538
vt 0.792903 0.593922
vt 0.790732 0.604913
vt 0.792106 0.593025
vt 0.797697 0.541481
vt 0.798837 0.560691
vt 0.789373 0.558137
vt 0.792896 0.540867
vt 0.790734 0.578582
vt 0.781832 0.593922
vt 0.796621 0.579768
vt 0.780465 0.541481
vt 0.776695 0.560691
vt 0.797540 0.555352
vt 0.777445 0.579768
vt 0.781307 0.561583
vt 0.789909 0.564828
vt 0.776173 0.583193
vt 0.788852 0.584168
vt 0.785650 0.626744
vt 0.792903 0.640426
vt 0.776976 0.564828
vt 0.772235 0.584168
vt 0.773159 0.602431
vt 0.777182 0.616286
vt 0.792320 0.616286
vt 0.788464 0.602431
vt 0.783680 0.603020
vt 0.792320 0.639538
vt 0.777445 0.603020
vt 0.781832 0.640426
vt 0.777182 0.639538
vt 0.790732 0.651417
vt 0.785650 0.649996
vt 0.798837 0.583943
vt 0.776695 0.583943
vt 0.797697 0.564733
vt 0.780465 0.564733
vt 0.791784 0.593922
vt 0.802855 0.604913
vt 0.802855 0.593025
vt 0.785623 0.541481
vt 0.780713 0.560691
vt 0.802855 0.558137
vt 0.802855 0.540867
vt 0.802855 0.578582
vt 0.813927 0.593922
vt 0.783680 0.579768
vt 0.820088 0.541481
vt 0.824998 0.560691
vt 0.802855 0.555352
vt 0.822031 0.579768
vt 0.802855 0.561583
vt 0.789923 0.564828
vt 0.802855 0.583193
vt 0.786238 0.584168
vt 0.802855 0.626744
vt 0.815788 0.564828
vt 0.819473 0.584168
vt 0.822031 0.603020
vt 0.813927 0.640426
vt 0.813390 0.639538
vt 0.802855 0.651417
vt 0.802855 0.649996
vt 0.780713 0.583943
vt 0.824998 0.583943
vt 0.785623 0.564733
vt 0.820088 0.564733
vt 0.791784 0.640426
vt 0.802159 0.694627
vt 0.802159 0.680715
vt 0.808634 0.641111
vt 0.808802 0.673370
vt 0.814050 0.624392
vt 0.802855 0.637143
vt 0.802855 0.623517
vt 0.822246 0.562934
vt 0.825245 0.583770
vt 0.802855 0.579742
vt 0.802855 0.560483
vt 0.783465 0.607527
vt 0.802855 0.606704
vt 0.791660 0.624392
vt 0.822246 0.607527
vt 0.783465 0.562934
vt 0.780465 0.583770
vt 0.802855 0.555352
vt 0.809319 0.640808
vt 0.796392 0.640808
vt 0.802855 0.654746
vt 0.794052 0.582050
vt 0.794420 0.599557
vt 0.811291 0.599557
vt 0.811659 0.582050
vt 0.793565 0.625726
vt 0.812146 0.625726
vt 0.825245 0.609582
vt 0.822246 0.586129
vt 0.814050 0.643829
vt 0.822246 0.631309
vt 0.780465 0.609582
vt 0.783465 0.631309
vt 0.783465 0.586129
vt 0.791660 0.643829
vt 0.782268 0.634394
vt 0.790767 0.677139
vt 0.791660 0.671654
vt 0.802855 0.689046
vt 0.802855 0.682571
vt 0.823443 0.634394
vt 0.826586 0.610642
vt 0.779124 0.610642
vt 0.823301 0.587071
vt 0.782409 0.587071
vt 0.814944 0.677139
vt 0.814050 0.671654
vt 0.814050 0.680042
vt 0.822246 0.635352
vt 0.822246 0.590759
vt 0.802855 0.692793
vt 0.783465 0.590759
vt 0.780465 0.611595
vt 0.825245 0.611595
vt 0.783465 0.635352
vt 0.791660 0.680042
vt 0.814050 0.624392
vt 0.802855 0.637143
vt 0.802855 0.623517
vt 0.822246 0.562934
vt 0.825245 0.583770
vt 0.802855 0.579742
vt 0.802855 0.560483
vt 0.783465 0.607527
vt 0.802855 0.606704
vt 0.791660 0.624392
vt 0.822246 0.607527
vt 0.783465 0.562934
vt 0.780465 0.583770
vt 0.802855 0.555352
vt 0.809319 0.640808
vt 0.796392 0.640808
vt 0.802855 0.654746
vt 0.794052 0.582050
vt 0.794420 0.599557
vt 0.811291 0.599557
vt 0.811659 0.582050
vt 0.793565 0.625726
vt 0.812146 0.625726
vt 0.825245 0.609582
vt 0.822246 0.586129
vt 0.814050 0.643829
vt 0.822246 0.631309
vt 0.780465 0.609582
vt 0.783465 0.631309
vt 0.783465 0.586129
vt 0.791660 0.643829
vt 0.782268 0.634394
vt 0.790767 0.677139
vt 0.791660 0.671654
vt 0.802855 0.689046
vt 0.802855 0.682571
vt 0.823443 0.634394
vt 0.826586 0.610642
vt 0.779124 0.610642
vt 0.823301 0.587071
vt 0.782409 0.587071
vt 0.814944 0.677139
vt 0.814050 0.671654
vt 0.814050 0.680042
vt 0.822246 0.635352
vt 0.822246 0.590759
vt 0.802855 0.692793
vt 0.783465 0.590759
vt 0.780465 0.611595
vt 0.825245 0.611595
vt 0.783465 0.635352
vt 0.791660 0.680042
vt 0.814050 0.624392
vt 0.802855 0.637143
vt 0.802855 0.623517
vt 0.822246 0.562934
vt 0.825245 0.583770
vt 0.802855 0.579742
vt 0.802855 0.560483
vt 0.783465 0.607527
vt 0.802855 0.606704
vt 0.791660 0.624392
vt 0.822246 0.607527
vt 0.783465 0.562934
vt 0.780465 0.583770
vt 0.802855 0.555352
vt 0.809319 0.640808
vt 0.796392 0.640808
vt 0.802855 0.654746
vt 0.794052 0.582050
vt 0.794420 0.599557
vt 0.811291 0.599557
vt 0.811659 0.582050
vt 0.793565 0.625726
vt 0.812146 0.625726
vt 0.825245 0.609582
vt 0.822246 0.586129
vt 0.814050 0.643829
vt 0.822246 0.631309
vt 0.780465 0.609582
vt 0.783465 0.631309
vt 0.783465 0.586129
vt 0.791660 0.643829
vt 0.782268 0.634394
vt 0.790767 0.677139
vt 0.791660 0.671654
vt 0.802855 0.689046
vt 0.802855 0.682571
vt 0.823443 0.634394
vt 0.826586 0.610642
vt 0.779124 0.610642
vt 0.823301 0.587071
vt 0.782409 0.587071
vt 0.814944 0.677139
vt 0.814050 0.671654
vt 0.814050 0.680042
vt 0.822246 0.635352
vt 0.822246 0.590759
vt 0.802855 0.692793
vt 0.783465 0.590759
vt 0.780465 0.611595
vt 0.825245 0.611595
vt 0.783465 0.635352
vt 0.791660 0.680042
vn 0.0000 -1.0000 -0.0000
vn -0.5228 -0.8507 -0.0550
vn -0.1093 -0.8507 -0.5142
vn -0.8895 -0.4472 -0.0935
vn -0.7367 -0.5257 0.4253
vn 0.4553 -0.8507 -0.2629
vn 0.3907 -0.8507 0.3518
vn -0.2138 -0.8507 0.4803
vn -0.9781 -0.0002 0.2079
vn -0.1860 -0.4472 -0.8749
vn -0.6322 -0.5256 -0.5693
vn -0.4966 0.0068 -0.8680
vn 0.7746 -0.4472 -0.4471
vn 0.3460 -0.5256 -0.7772
vn 0.6741 0.0004 -0.7387
vn 0.6647 -0.4472 0.5985
vn 0.8461 -0.5256 0.0889
vn 0.9136 -0.0000 0.4066
vn -0.3638 -0.4472 0.8171
vn 0.1769 -0.5257 0.8321
vn -0.1045 -0.0001 0.9945
vn -0.9135 -0.0001 -0.4069
vn 0.0979 0.0004 -0.9952
vn 0.9773 0.0068 -0.2118
vn 0.5000 -0.0000 0.8660
vn -0.6691 -0.0001 0.7431
vn -0.6623 0.4457 -0.6023
vn -0.8502 0.5185 -0.0913
vn -0.4380 0.8250 -0.3571
vn -0.3537 0.8365 -0.4185
vn 0.8912 0.4448 0.0891
vn 0.7520 0.5050 -0.4236
vn 0.5488 0.8327 0.0739
vn 0.1860 0.4477 0.8746
vn 0.6334 0.5221 0.5712
vn 0.1089 0.8243 0.5555
vn -0.7775 0.4404 0.4489
vn -0.3452 0.5199 0.7814
vn -0.5153 0.8027 0.3002
vn 0.3683 0.8948 0.2524
vn 0.2283 0.9688 -0.0970
vn 0.1674 0.9149 -0.3674
vn -0.1881 0.5029 -0.8436
vn 0.3788 0.3642 -0.8508
vn -0.6600 0.0293 0.7507
vn -0.8170 0.3317 0.4717
vn -0.8627 0.0872 0.4981
vn -0.7144 0.1258 0.6883
vn -0.7135 0.1118 0.6917
vn -0.8592 0.1251 0.4961
vn -0.8659 0.0200 0.4999
vn -0.8659 -0.0174 0.4999
vn -0.9801 0.0293 0.1962
vn -0.7059 0.0265 0.7078
vn -0.9533 0.1258 0.2745
vn -0.9558 0.1118 0.2720
vn -0.8531 -0.1720 0.4925
vn -0.9659 0.0265 0.2574
vn 0.1509 -0.9847 -0.0871
vn 0.2220 -0.9666 -0.1282
vn 0.2385 -0.9601 0.1459
vn 0.8463 -0.2121 -0.4886
vn 0.8504 0.1889 -0.4910
vn 0.9528 0.1751 -0.2482
vn 0.9485 -0.1972 -0.2478
vn 0.7817 -0.4304 -0.4513
vn 0.8806 -0.4172 -0.2246
vn 0.8680 0.4493 -0.2116
vn 0.7395 0.5204 -0.4270
vn 0.6393 0.6746 -0.3691
vn 0.2507 0.4493 0.8575
vn 0.0000 0.5204 0.8539
vn 0.0000 0.1889 0.9820
vn 0.2615 0.1751 0.9492
vn 0.6348 -0.4172 -0.6503
vn 0.6888 -0.1972 -0.6976
vn -0.0071 -0.9601 -0.2795
vn 0.6913 0.1751 -0.7010
vn 0.6172 0.4493 -0.6459
vn -0.7395 0.5204 -0.4270
vn -0.6172 0.4493 -0.6459
vn -0.6913 0.1751 -0.7010
vn -0.8504 0.1889 -0.4910
vn 0.2285 0.3448 -0.9104
vn 0.1462 0.2482 -0.9576
vn 0.3221 0.6977 -0.6399
vn -0.2285 0.3448 -0.9104
vn -0.3680 0.7814 -0.5039
vn -0.3221 0.6977 -0.6399
vn -0.2868 0.8537 -0.4347
vn 0.6742 0.3448 0.6531
vn 0.7598 -0.1610 0.6300
vn 0.7645 -0.1233 0.6327
vn 0.7562 0.2482 0.6055
vn -0.1657 -0.1610 -0.9729
vn -0.1462 0.2482 -0.9576
vn -0.1656 -0.1233 -0.9784
vn 0.7002 -0.4038 0.5888
vn -0.1320 -0.9442 -0.3016
vn -0.1598 -0.4038 -0.9008
vn 0.2331 0.8537 0.4657
vn 0.2524 0.7814 0.5707
vn 0.3931 0.6977 0.5989
vn 0.1952 -0.9442 0.2651
vn 0.9801 0.0293 0.1962
vn 0.8170 0.3317 0.4717
vn 0.8627 0.0872 0.4981
vn 0.9533 0.1258 0.2745
vn 0.9558 0.1118 0.2720
vn 0.8592 0.1251 0.4961
vn 0.8659 0.0200 0.4999
vn 0.8659 -0.0174 0.4999
vn 0.6600 0.0293 0.7507
vn 0.9659 0.0265 0.2574
vn 0.7144 0.1258 0.6883
vn 0.7135 0.1118 0.6917
vn 0.8531 -0.1720 0.4925
vn 0.7059 0.0265 0.7078
vn -0.1509 -0.9847 -0.0871
vn -0.2220 -0.9666 -0.1282
vn 0.0071 -0.9601 -0.2795
vn -0.8463 -0.2121 -0.4886
vn -0.6888 -0.1972 -0.6976
vn -0.7817 -0.4304 -0.4513
vn -0.6348 -0.4172 -0.6503
vn -0.6393 0.6746 -0.3691
vn 0.3680 0.7814 -0.5039
vn -0.8806 -0.4172 -0.2246
vn -0.9485 -0.1972 -0.2478
vn -0.2385 -0.9601 0.1459
vn -0.9528 0.1751 -0.2482
vn -0.8680 0.4493 -0.2116
vn -0.2507 0.4493 0.8575
vn -0.2615 0.1751 0.9492
vn -0.9027 0.3448 0.2573
vn -0.9024 0.2482 0.3522
vn -0.7152 0.6977 0.0410
vn -0.6742 0.3448 0.6531
vn -0.2524 0.7814 0.5707
vn -0.3931 0.6977 0.5989
vn -0.2331 0.8537 0.4657
vn 0.1657 -0.1610 -0.9729
vn 0.1656 -0.1233 -0.9784
vn -0.7598 -0.1610 0.6300
vn -0.7562 0.2482 0.6054
vn -0.7645 -0.1233 0.6327
vn 0.1598 -0.4038 -0.9008
vn -0.1952 -0.9442 0.2651
vn -0.7002 -0.4038 0.5888
vn 0.2868 0.8537 -0.4347
vn 0.1320 -0.9442 -0.3016
vn -0.3201 0.0293 -0.9469
vn -0.0000 0.3317 -0.9434
vn 0.0000 0.0872 -0.9962
vn -0.2389 0.1258 -0.9629
vn -0.2423 0.1118 -0.9637
vn -0.0000 0.1251 -0.9921
vn -0.0000 0.0200 -0.9998
vn -0.0000 -0.0174 -0.9998
vn 0.3201 0.0293 -0.9469
vn -0.2600 0.0265 -0.9652
vn 0.2389 0.1258 -0.9629
vn 0.2423 0.1118 -0.9637
vn -0.0000 -0.1720 -0.9851
vn 0.2600 0.0265 -0.9652
vn 0.0000 -0.9847 0.1743
vn 0.0000 -0.9666 0.2564
vn -0.2456 -0.9601 0.1336
vn 0.0000 -0.2121 0.9772
vn -0.2597 -0.1972 0.9453
vn 0.0000 -0.4304 0.9026
vn -0.2458 -0.4172 0.8749
vn 0.0000 0.6746 0.7382
vn 0.2458 -0.4172 0.8749
vn 0.2597 -0.1972 0.9453
vn 0.2456 -0.9601 0.1336
vn 0.9027 0.3448 0.2573
vn 0.6204 0.7814 -0.0668
vn 0.7152 0.6977 0.0410
vn 0.5199 0.8537 -0.0310
vn -0.9254 -0.1610 0.3430
vn -0.9302 -0.1233 0.3458
vn 0.9254 -0.1610 0.3430
vn 0.9024 0.2482 0.3522
vn 0.9302 -0.1233 0.3458
vn -0.8600 -0.4038 0.3120
vn 0.3272 -0.9442 0.0365
vn 0.8600 -0.4038 0.3120
vn -0.5199 0.8537 -0.0310
vn -0.6204 0.7814 -0.0668
vn -0.3272 -0.9442 0.0365
vn -0.4279 0.8675 0.2538
vn -0.0012 0.8840 -0.4675
vn 0.3448 0.5307 -0.7742
vn 0.5480 0.8363 -0.0189
vn -0.0020 0.3601 0.9329
vn 0.0000 0.5117 0.8592
vn 0.0000 0.4040 0.9148
vn 0.1542 0.3601 0.9201
vn 0.4961 0.1158 0.8605
vn 0.0000 0.2753 0.9614
vn 0.0000 0.2723 0.9622
vn -0.4098 0.3352 0.8484
vn 0.0000 0.2025 0.9793
vn 0.0020 0.3601 0.9329
vn 0.4098 0.3352 0.8483
vn -0.1542 0.3601 0.9201
vn -0.4961 0.1158 0.8605
vn 0.0000 0.1104 0.9939
vn 0.1739 -0.0040 -0.9847
vn -0.1740 -0.0040 -0.9847
vn -0.0000 0.3480 -0.9375
vn -0.0896 -0.8609 -0.5008
vn -0.1562 -0.3502 -0.9236
vn 0.1562 -0.3502 -0.9236
vn 0.0896 -0.8609 -0.5008
vn -0.0000 -0.9649 -0.2626
vn -0.1690 -0.0200 -0.9854
vn 0.1690 -0.0200 -0.9854
vn 0.6542 -0.1913 -0.7318
vn 0.3963 -0.7515 -0.5275
vn 0.4932 0.2978 -0.8173
vn 0.6383 0.2032 -0.7425
vn -0.6542 -0.1913 -0.7317
vn -0.6383 0.2032 -0.7425
vn -0.3963 -0.7515 -0.5275
vn -0.4932 0.2978 -0.8173
vn -0.8090 0.2965 -0.5075
vn -0.6044 0.4793 -0.6364
vn -0.4320 0.5272 -0.7318
vn 0.8090 0.2965 -0.5075
vn 0.8650 -0.1883 -0.4650
vn -0.8650 -0.1883 -0.4650
vn 0.4896 -0.8123 -0.3169
vn -0.4896 -0.8123 -0.3169
vn 0.4320 0.5272 -0.7318
vn 0.6044 0.4793 -0.6364
vn 0.5651 0.7947 0.2215
vn 0.7029 0.3843 0.5985
vn 0.5847 0.7665 0.2657
vn 0.6276 -0.4521 0.6338
vn 0.5421 -0.6139 0.5738
vn 0.7030 -0.2197 0.6764
vn 0.4648 0.8849 0.0304
vn -0.6276 -0.4521 0.6339
vn -0.7179 0.0508 0.6943
vn -0.7030 -0.2197 0.6764
vn -0.5421 -0.6139 0.5738
vn 0.7179 0.0508 0.6943
vn -0.7029 0.3843 0.5985
vn -0.5651 0.7947 0.2215
vn -0.4648 0.8849 0.0304
vn -0.5847 0.7665 0.2657
vn -0.8070 0.3601 -0.4682
vn -0.7440 0.5117 -0.4296
vn -0.7922 0.4040 -0.4574
vn -0.8739 0.3601 -0.3265
vn -0.9933 0.1158 -0.0006
vn -0.8326 0.2753 -0.4807
vn -0.8333 0.2723 -0.4811
vn -0.5298 0.3352 -0.7791
vn -0.8481 0.2025 -0.4896
vn -0.8089 0.3601 -0.4648
vn -0.9396 0.3352 -0.0693
vn -0.7197 0.3601 -0.5936
vn -0.4971 0.1158 -0.8599
vn -0.8607 0.1104 -0.4969
vn 0.7658 -0.0040 0.6430
vn 0.9398 -0.0040 0.3417
vn 0.8119 0.3480 0.4687
vn 0.4784 -0.8609 0.1728
vn 0.8779 -0.3502 0.3265
vn 0.7218 -0.3502 0.5970
vn 0.3889 -0.8609 0.3279
vn 0.2274 -0.9649 0.1313
vn 0.9379 -0.0200 0.3463
vn 0.7689 -0.0200 0.6391
vn 0.3066 -0.1913 0.9324
vn 0.2587 -0.7515 0.6069
vn 0.4612 0.2978 0.8358
vn 0.3239 0.2032 0.9240
vn 0.9608 -0.1913 -0.2007
vn 0.9622 0.2032 -0.1815
vn 0.6549 -0.7515 -0.0794
vn 0.9545 0.2978 -0.0185
vn 0.8440 0.2965 -0.4469
vn 0.8533 0.4793 -0.2052
vn 0.8497 0.5272 -0.0082
vn 0.0350 0.2965 0.9544
vn -0.0298 -0.1883 0.9817
vn 0.8352 -0.1883 -0.5166
vn 0.0297 -0.8123 0.5825
vn 0.5193 -0.8123 -0.2656
vn 0.4178 0.5272 0.7400
vn 0.2489 0.4793 0.8416
vn -0.4744 0.7947 0.3786
vn -0.8698 0.3843 0.3095
vn -0.5225 0.7665 0.3735
vn -0.8627 -0.4521 0.2266
vn -0.7680 -0.6139 0.1826
vn -0.9373 -0.2197 0.2706
vn -0.2587 0.8849 0.3873
vn -0.2351 -0.4521 -0.8604
vn -0.2423 0.0508 -0.9689
vn -0.2343 -0.2197 -0.9470
vn -0.2258 -0.6139 -0.7564
vn -0.9602 0.0508 0.2746
vn -0.1668 0.3843 -0.9080
vn 0.0907 0.7947 -0.6001
vn 0.2061 0.8849 -0.4177
vn 0.0622 0.7665 -0.6392
vn 0.8089 0.3601 -0.4648
vn 0.7440 0.5117 -0.4296
vn 0.7922 0.4040 -0.4574
vn 0.7197 0.3601 -0.5936
vn 0.4971 0.1158 -0.8599
vn 0.8326 0.2753 -0.4807
vn 0.8333 0.2723 -0.4811
vn 0.9396 0.3352 -0.0693
vn 0.8481 0.2025 -0.4896
vn 0.8070 0.3601 -0.4682
vn 0.5298 0.3352 -0.7791
vn 0.8739 0.3601 -0.3265
vn 0.9933 0.1158 -0.0006
vn 0.8607 0.1104 -0.4969
vn -0.9398 -0.0040 0.3417
vn -0.7658 -0.0040 0.6430
vn -0.8119 0.3480 0.4687
vn -0.3889 -0.8609 0.3279
vn -0.7218 -0.3502 0.5970
vn -0.8779 -0.3502 0.3265
vn -0.4784 -0.8609 0.1728
vn -0.2274 -0.9649 0.1313
vn -0.7689 -0.0200 0.6391
vn -0.9379 -0.0200 0.3463
vn -0.9608 -0.1913 -0.2007
vn -0.6549 -0.7515 -0.0794
vn -0.9545 0.2978 -0.0185
vn -0.9622 0.2032 -0.1815
vn -0.3066 -0.1913 0.9324
vn -0.3239 0.2032 0.9240
vn -0.2587 -0.7515 0.6069
vn -0.4612 0.2978 0.8358
vn -0.0350 0.2965 0.9544
vn -0.2489 0.4793 0.8416
vn -0.4178 0.5272 0.7400
vn -0.8440 0.2965 -0.4469
vn -0.8352 -0.1883 -0.5166
vn 0.0298 -0.1883 0.9817
vn -0.5193 -0.8123 -0.2656
vn -0.0297 -0.8123 0.5825
vn -0.8497 0.5272 -0.0082
vn -0.8533 0.4793 -0.2052
vn -0.0907 0.7947 -0.6001
vn 0.1668 0.3843 -0.9080
vn -0.0622 0.7665 -0.6392
vn 0.2351 -0.4521 -0.8604
vn 0.2258 -0.6139 -0.7564
vn 0.2343 -0.2197 -0.9470
vn -0.2061 0.8849 -0.4177
vn 0.8627 -0.4521 0.2266
vn 0.9602 0.0508 0.2746
vn 0.9373 -0.2197 0.2706
vn 0.7680 -0.6139 0.1826
vn 0.2423 0.0508 -0.9689
vn 0.8698 0.3843 0.3095
vn 0.4744 0.7947 0.3786
vn 0.2587 0.8849 0.3873
vn 0.5225 0.7665 0.3735
usemtl farmer
s 1
f 1/1/1 14/2/2 13/3/3
f 2/4/4 14/2/2 16/5/5
f 1/1/1 13/3/3 18/6/6
f 1/1/1 18/6/6 20/7/7
f 1/1/1 20/7/7 17/8/8
f 2/4/4 16/5/5 23/9/9
f 3/10/10 15/11/11 25/12/12
f 4/13/13 19/14/14 27/15/15
f 5/16/16 21/17/17 29/18/18
f 6/19/19 22/20/20 31/21/21
f 2/4/4 23/9/9 26/22/22
f 3/10/10 25/12/12 28/23/23
f 4/13/13 27/15/15 30/24/24
f 5/16/16 29/18/18 32/25/25
f 6/19/19 31/21/21 24/26/26
f 7/27/27 33/28/28 38/29/29
f 34/30/30 40/31/30 125/32/30
f 9/33/31 35/34/32 41/35/33
f 10/36/34 36/37/35 42/38/36
f 11/39/37 37/40/38 39/41/39
f 42/42/40 12/43/40 124/44/40
f 39/41/39 37/40/38 42/38/36
f 37/45/38 10/36/34 42/38/36
f 42/38/36 41/35/33 12/46/41
f 42/38/36 36/47/35 41/35/33
f 36/37/35 9/33/31 41/35/33
f 41/35/33 40/48/42 12/46/41
f 41/35/33 35/49/32 40/48/42
f 40/48/42 38/29/29 12/46/41
f 40/31/42 34/30/43 38/29/29
f 34/50/43 7/27/27 38/29/29
f 38/29/29 33/51/28 39/41/39
f 33/28/28 11/39/37 39/41/39
f 24/26/26 37/40/38 11/39/37
f 24/26/26 31/21/21 37/40/38
f 31/21/21 10/36/34 37/40/38
f 32/25/25 36/37/35 10/36/34
f 32/25/25 29/18/18 36/37/35
f 29/18/18 9/33/31 36/37/35
f 30/24/24 35/49/32 9/33/31
f 30/24/24 27/15/15 35/49/32
f 27/15/15 8/52/44 35/49/32
f 28/23/23 34/50/43 8/52/44
f 28/23/23 25/12/12 34/50/43
f 25/12/12 7/27/27 34/50/43
f 26/22/22 33/28/28 7/27/27
f 26/22/22 23/9/9 33/28/28
f 23/9/9 11/39/37 33/28/28
f 31/21/21 32/25/25 10/36/34
f 31/21/21 22/20/20 32/25/25
f 22/20/20 5/16/16 32/25/25
f 29/18/18 30/24/24 9/33/31
f 29/18/18 21/17/17 30/24/24
f 21/17/17 4/13/13 30/24/24
f 27/15/15 28/23/23 8/52/44
f 27/15/15 19/14/14 28/23/23
f 19/14/14 3/10/10 28/23/23
f 25/12/12 26/22/22 7/27/27
f 25/12/12 15/11/11 26/22/22
f 15/11/11 2/4/4 26/22/22
f 23/9/9 24/53/26 11/39/37
f 23/9/9 16/5/5 24/26/26
f 16/5/5 6/19/19 24/26/26
f 17/8/8 22/20/20 6/19/19
f 17/8/8 20/7/7 22/20/20
f 20/7/7 5/16/16 22/20/20
f 20/7/7 21/17/17 5/16/16
f 20/7/7 18/6/6 21/17/17
f 18/6/6 4/13/13 21/17/17
f 18/6/6 19/14/14 4/13/13
f 18/6/6 13/3/3 19/14/14
f 13/3/3 3/10/10 19/14/14
f 16/5/5 17/8/8 6/19/19
f 16/5/5 14/2/2 17/8/8
f 14/2/2 1/1/1 17/8/8
f 13/3/3 15/11/11 3/10/10
f 13/3/3 14/2/2 15/11/11
f 14/2/2 2/4/4 15/11/11
f 47/54/45 56/55/46 43/56/47
f 50/57/48 49/58/49 45/59/50 55/60/51
f 44/61/52 43/56/47 51/62/53
f 45/59/50 49/58/49 48/63/54 44/61/52
f 54/64/55 55/60/51 45/59/50 53/65/56
f 46/66/57 55/60/51 54/64/55
f 53/65/56 45/59/50 44/61/52 52/67/58
f 46/66/57 50/57/48 55/60/51
f 43/56/47 56/55/46 51/62/53
f 46/66/59 68/68/60 62/69/61
f 59/70/62 58/71/63 60/72/64 61/73/65
f 68/68/66 59/70/62 61/73/65 62/69/67
f 63/74/68 57/75/69 69/76/70
f 118/77/71 111/78/72 112/79/73 119/80/74
f 67/81/75 66/82/76 59/70/62 68/68/66
f 46/66/59 67/81/77 68/68/60
f 66/82/76 65/83/78 58/71/63 59/70/62
f 57/75/69 64/84/79 69/76/70
f 84/85/80 90/86/81 87/87/82 85/88/83
f 75/89/84 87/87/85 90/90/86
f 52/91/87 51/92/88 64/93/89
f 51/92/88 56/94/90 69/95/90 64/93/89
f 48/96/91 49/97/92 61/73/93 60/72/94
f 53/98/95 52/91/87 65/83/96 66/82/97
f 49/97/92 50/99/98 62/69/98 61/73/93
f 46/66/59 54/100/99 67/81/77
f 54/100/100 53/98/95 66/82/97 67/81/100
f 56/94/101 47/101/102 63/102/103 69/95/101
f 50/99/104 46/66/59 62/69/61
f 44/61/52 48/63/54 47/54/45
f 74/103/105 83/104/106 70/105/107
f 77/106/108 76/107/109 72/108/110 82/109/111
f 71/110/112 70/105/107 78/111/113
f 72/108/110 76/107/109 75/112/114 71/110/112
f 81/113/115 82/109/111 72/108/110 80/114/116
f 73/115/117 82/109/111 81/113/115
f 80/114/116 72/108/110 71/110/112 79/116/118
f 73/115/117 77/106/108 82/109/111
f 70/105/107 83/104/106 78/111/113
f 73/115/119 95/117/120 89/118/121
f 86/119/122 85/88/83 87/87/82 88/120/123
f 95/117/124 86/119/122 88/120/123 89/118/125
f 90/86/81 84/85/80 96/121/126
f 65/83/96 52/91/87 64/93/89
f 74/122/127 75/89/84 90/90/86
f 47/101/102 48/96/91 63/102/103
f 94/123/128 93/124/129 86/119/122 95/117/124
f 73/115/119 94/123/130 95/117/120
f 93/124/129 92/125/131 85/88/83 86/119/122
f 84/85/80 91/126/132 96/121/126
f 111/78/72 117/127/133 114/128/134 112/79/73
f 102/129/135 114/128/136 117/130/137
f 79/131/138 78/132/139 91/133/140
f 78/132/139 83/134/141 96/135/141 91/133/140
f 75/89/84 76/136/142 88/120/143 87/87/85
f 80/137/144 79/131/138 92/125/145 93/124/146
f 76/136/142 77/138/147 89/118/147 88/120/143
f 73/115/119 81/139/148 94/123/130
f 81/139/149 80/137/144 93/124/146 94/123/149
f 83/134/150 74/122/127 90/90/86 96/135/150
f 77/138/151 73/115/119 89/118/121
f 71/110/112 75/112/114 74/103/105
f 101/140/152 110/141/153 97/142/154
f 104/143/155 103/144/156 99/145/157 109/146/158
f 98/147/159 97/142/154 105/148/160
f 99/145/157 103/144/156 102/149/161 98/147/159
f 108/150/162 109/146/158 99/145/157 107/151/163
f 100/152/164 109/146/158 108/150/162
f 107/151/163 99/145/157 98/147/159 106/153/165
f 100/152/164 104/143/155 109/146/158
f 97/142/154 110/141/153 105/148/160
f 100/152/166 122/154/167 116/155/168
f 113/156/169 112/79/73 114/128/134 115/157/170
f 122/154/171 113/156/169 115/157/170 116/155/172
f 117/127/133 111/78/72 123/158/173
f 91/126/132 84/85/80 85/88/83 92/125/131
f 121/159/174 120/160/175 113/156/169 122/154/171
f 100/152/166 121/159/176 122/154/167
f 120/160/175 119/80/74 112/79/73 113/156/169
f 111/78/72 118/77/71 123/158/173
f 64/84/79 57/75/69 58/71/63 65/83/78
f 106/161/177 105/162/178 118/163/179
f 105/162/178 110/164/180 123/165/180 118/163/179
f 102/129/135 103/166/181 115/157/182 114/128/136
f 107/167/183 106/161/177 119/80/184 120/160/185
f 103/166/181 104/168/186 116/155/186 115/157/182
f 100/152/166 108/169/187 121/159/176
f 108/169/188 107/167/183 120/160/185 121/159/188
f 110/164/189 101/170/190 117/130/137 123/165/189
f 104/168/191 100/152/166 116/155/168
f 98/147/159 102/149/161 101/140/152
f 39/41/39 42/38/36 124/171/192
f 38/29/29 39/41/39 124/172/192
f 12/43/193 38/173/193 124/44/193
f 8/52/44 34/50/43 125/174/194
f 35/49/32 8/52/44 125/174/194
f 40/31/195 35/34/195 125/32/195
f 48/96/91 60/72/94 63/102/103
f 106/153/165 98/147/159 105/148/160
f 97/142/154 98/147/159 101/140/152
f 79/116/118 71/110/112 78/111/113
f 70/105/107 71/110/112 74/103/105
f 52/67/58 44/61/52 51/62/53
f 43/56/47 44/61/52 47/54/45
f 119/80/184 106/161/177 118/163/179
f 101/170/190 102/129/135 117/130/137
f 92/125/145 79/131/138 91/133/140
f 57/75/69 63/74/68 60/72/64 58/71/63
f 130/175/196 139/176/197 126/177/198
f 133/178/199 132/179/200 128/180/201 138/181/202
f 135/182/203 127/183/204 126/177/198 134/184/205
f 128/180/201 132/179/200 131/185/206 127/183/204
f 137/186/207 138/181/202 128/180/201 136/187/208
f 129/188/209 138/181/202 137/186/207
f 136/187/208 128/180/201 127/183/204 135/182/203
f 129/188/209 133/178/199 138/181/202
f 126/177/198 139/176/197 134/184/205
f 140/189/210 152/190/211 156/191/212
f 155/192/213 154/193/214 142/194/215 143/195/216
f 129/188/217 155/192/213 143/195/216
f 154/193/214 153/196/218 141/197/219 142/194/215
f 146/198/220 147/199/221 142/194/215
f 141/197/219 140/189/210 144/200/222 145/201/223
f 129/188/217 143/195/216 147/199/221
f 142/194/215 141/197/219 145/201/223 146/198/220
f 150/202/224 149/203/225 153/196/218 154/193/214
f 151/204/226 150/202/224 154/193/214
f 149/203/225 148/205/227 152/190/211 153/196/218
f 129/188/217 151/204/226 155/192/213
f 144/200/222 140/189/210 156/191/212
f 152/190/211 148/205/227 156/191/212
f 158/206/228 157/207/229 148/208/227 149/203/225
f 157/207/229 159/209/230 156/210/212 148/208/227
f 161/211/231 160/212/232 146/198/220 145/201/223
f 162/213/233 158/206/228 149/203/225 150/202/224
f 160/212/232 163/214/234 147/199/221 146/198/220
f 129/188/217 164/215/235 151/204/226
f 164/215/235 162/213/233 150/202/224 151/204/226
f 159/209/236 165/216/237 144/217/222 156/210/212
f 163/214/234 129/188/217 147/199/221
f 165/216/237 161/211/231 145/201/223 144/217/222
f 130/218/238 131/219/206 161/211/239 165/216/240
f 133/220/241 129/188/242 163/214/243
f 139/221/244 130/218/238 165/216/240 159/209/244
f 137/222/245 136/223/208 162/213/246 164/215/247
f 129/188/248 137/222/245 164/215/247
f 132/224/200 133/220/241 163/214/243 160/212/249
f 136/223/208 135/225/203 158/206/250 162/213/246
f 131/219/206 132/224/200 160/212/249 161/211/239
f 134/226/251 139/221/252 159/209/252 157/207/253
f 135/225/203 134/226/251 157/207/253 158/206/250
f 127/183/204 131/185/206 130/175/196 126/177/198
f 155/192/213 151/204/226 154/193/214
f 147/199/221 143/195/216 142/194/215
f 153/196/218 152/190/211 140/189/210 141/197/219
f 170/227/254 179/228/255 166/229/256
f 173/230/257 172/231/258 168/232/259 178/233/260
f 175/234/261 167/235/262 166/229/256 174/236/263
f 168/232/259 172/231/258 171/237/264 167/235/262
f 177/238/265 178/233/260 168/232/259 176/239/266
f 169/240/267 178/233/260 177/238/265
f 176/239/266 168/232/259 167/235/262 175/234/261
f 169/240/267 173/230/257 178/233/260
f 166/229/256 179/228/255 174/236/263
f 180/241/268 192/242/269 196/243/270
f 195/244/271 194/245/272 182/246/273 183/247/274
f 169/240/275 195/244/271 183/247/274
f 194/245/272 193/248/276 181/249/277 182/246/273
f 186/250/278 187/251/279 182/246/273
f 181/249/277 180/241/268 184/252/280 185/253/281
f 169/240/275 183/247/274 187/251/279
f 182/246/273 181/249/277 185/253/281 186/250/278
f 190/254/282 189/255/283 193/248/276 194/245/272
f 191/256/284 190/254/282 194/245/272
f 189/255/283 188/257/285 192/242/269 193/248/276
f 169/240/275 191/256/284 195/244/271
f 184/252/280 180/241/268 196/243/270
f 192/242/269 188/257/285 196/243/270
f 198/258/286 197/259/287 188/260/285 189/255/283
f 197/259/287 199/261/288 196/262/270 188/260/285
f 201/263/289 200/264/290 186/250/278 185/253/281
f 202/265/291 198/258/286 189/255/283 190/254/282
f 200/264/290 203/266/292 187/251/279 186/250/278
f 169/240/275 204/267/293 191/256/284
f 204/267/293 202/265/291 190/254/282 191/256/284
f 199/261/294 205/268/295 184/269/280 196/262/270
f 203/266/292 169/240/275 187/251/279
f 205/268/295 201/263/289 185/253/281 184/269/280
f 170/270/296 171/271/264 201/263/297 205/268/298
f 173/272/299 169/240/300 203/266/301
f 179/273/302 170/270/296 205/268/298 199/261/302
f 177/274/303 176/275/266 202/265/304 204/267/305
f 169/240/306 177/274/303 204/267/305
f 172/276/258 173/272/299 203/266/301 200/264/307
f 176/275/266 175/277/261 198/258/308 202/265/304
f 171/271/264 172/276/258 200/264/307 201/263/297
f 174/278/309 179/273/310 199/261/310 197/259/311
f 175/277/261 174/278/309 197/259/311 198/258/308
f 167/235/262 171/237/264 170/227/254 166/229/256
f 195/244/271 191/256/284 194/245/272
f 187/251/279 183/247/274 182/246/273
f 193/248/276 192/242/269 180/241/268 181/249/277
f 210/279/312 219/280/313 206/281/314
f 213/282/315 212/283/316 208/284/317 218/285/318
f 215/286/319 207/287/320 206/281/314 214/288/321
f 208/284/317 212/283/316 211/289/322 207/287/320
f 217/290/323 218/285/318 208/284/317 216/291/324
f 209/292/325 218/285/318 217/290/323
f 216/291/324 208/284/317 207/287/320 215/286/319
f 209/292/325 213/282/315 218/285/318
f 206/281/314 219/280/313 214/288/321
f 220/293/326 232/294/327 236/295/328
f 235/296/329 234/297/330 222/298/331 223/299/332
f 209/292/333 235/296/329 223/299/332
f 234/297/330 233/300/334 221/301/335 222/298/331
f 226/302/336 227/303/337 222/298/331
f 221/301/335 220/293/326 224/304/338 225/305/339
f 209/292/333 223/299/332 227/303/337
f 222/298/331 221/301/335 225/305/339 226/302/336
f 230/306/340 229/307/341 233/300/334 234/297/330
f 231/308/342 230/306/340 234/297/330
f 229/307/341 228/309/343 232/294/327 233/300/334
f 209/292/333 231/308/342 235/296/329
f 224/304/338 220/293/326 236/295/328
f 232/294/327 228/309/343 236/295/328
f 238/310/344 237/311/345 228/312/343 229/307/341
f 237/311/345 239/313/346 236/314/328 228/312/343
f 241/315/347 240/316/348 226/302/336 225/305/339
f 242/317/349 238/310/344 229/307/341 230/306/340
f 240/316/348 243/318/350 227/303/337 226/302/336
f 209/292/333 244/319/351 231/308/342
f 244/319/351 242/317/349 230/306/340 231/308/342
f 239/313/352 245/320/353 224/321/338 236/314/328
f 243/318/350 209/292/333 227/303/337
f 245/320/353 241/315/347 225/305/339 224/321/338
f 210/322/354 211/323/322 241/315/355 245/320/356
f 213/324/357 209/292/358 243/318/359
f 219/325/360 210/322/354 245/320/356 239/313/360
f 217/326/361 216/327/324 242/317/362 244/319/363
f 209/292/364 217/326/361 244/319/363
f 212/328/316 213/324/357 243/318/359 240/316/365
f 216/327/324 215/329/319 238/310/366 242/317/362
f 211/323/322 212/328/316 240/316/365 241/315/355
f 214/330/367 219/325/368 239/313/368 237/311/369
f 215/329/319 214/330/367 237/311/369 238/310/366
f 207/287/320 211/289/322 210/279/312 206/281/314
f 235/296/329 231/308/342 234/297/330
f 227/303/337 223/299/332 222/298/331
f 233/300/334 232/294/327 220/293/326 221/301/335
