# Blender v3.4.1 OBJ File: 'June2026_Farmers_Assets_Export.blend'
# www.blender.org
mtllib pitchfork.mtl
o pitchfork
v 0.036551 0.430630 0.040245
v 0.059141 0.430630 0.015372
v 0.059141 0.430630 -0.015372
v 0.036551 0.430630 -0.040245
v 0.000000 0.430630 -0.049746
v -0.036551 0.430630 -0.040245
v -0.059141 0.430630 -0.015372
v -0.059141 0.430630 0.015372
v -0.036551 0.430630 0.040245
v 0.000000 0.430630 0.049746
v -0.000000 -0.484272 0.055451
v 0.040743 -0.484272 0.044860
v 0.065924 -0.484272 0.017135
v 0.065924 -0.484272 -0.017136
v 0.040743 -0.484272 -0.044862
v -0.000000 -0.484272 -0.055452
v -0.040744 -0.484272 -0.044862
v -0.065924 -0.484272 -0.017136
v -0.065924 -0.484272 0.017135
v -0.040744 -0.484272 0.044860
v 0.033978 -0.582401 0.055450
v 0.067749 -0.516442 0.017188
v 0.067749 -0.516442 -0.017189
v 0.033978 -0.582401 -0.055452
v -0.033986 -0.582404 -0.055452
v -0.067754 -0.516443 -0.017189
v -0.067754 -0.516443 0.017188
v -0.033986 -0.582404 0.055450
v 0.057251 -0.541658 0.044860
v 0.057251 -0.541658 -0.044862
v -0.057259 -0.541660 -0.044862
v -0.057259 -0.541660 0.044860
v -0.115678 -0.582406 0.055450
v -0.115678 -0.623149 0.044860
v -0.115678 -0.648330 0.017134
v -0.115678 -0.648330 -0.017136
v -0.115678 -0.623149 -0.044862
v -0.115678 -0.582406 -0.055452
v -0.115678 -0.541663 -0.044862
v -0.115678 -0.516482 -0.017136
v -0.115678 -0.516482 0.017134
v -0.115678 -0.541663 0.044860
v -0.224331 -0.582405 0.047437
v -0.209958 -0.582405 0.065459
v -0.224331 -0.619362 0.037831
v -0.209958 -0.630502 0.052957
v -0.224331 -0.640992 0.014015
v -0.209958 -0.660228 0.020227
v -0.224331 -0.640992 -0.014017
v -0.209958 -0.660228 -0.020229
v -0.224331 -0.619362 -0.037833
v -0.209958 -0.630502 -0.052959
v -0.224331 -0.582405 -0.047439
v -0.209958 -0.582405 -0.065461
v -0.224331 -0.545448 -0.037833
v -0.209958 -0.534308 -0.052959
v -0.224331 -0.523818 -0.014017
v -0.209958 -0.504582 -0.020229
v -0.224331 -0.523818 0.014015
v -0.209958 -0.504582 0.020227
v -0.224331 -0.545448 0.037831
v -0.209958 -0.534308 0.052957
v -0.219889 -0.582405 -0.000001
v 0.115670 -0.582399 0.055450
v 0.115670 -0.541656 0.044860
v 0.115670 -0.516475 0.017134
v 0.115670 -0.516475 -0.017136
v 0.115670 -0.541655 -0.044862
v 0.115670 -0.582399 -0.055452
v 0.115670 -0.623142 -0.044862
v 0.115670 -0.648323 -0.017136
v 0.115670 -0.648323 0.017134
v 0.115670 -0.623142 0.044860
v 0.224322 -0.582400 0.047437
v 0.209950 -0.582400 0.065459
v 0.224322 -0.545443 0.037831
v 0.209951 -0.534303 0.052957
v 0.224322 -0.523813 0.014015
v 0.209951 -0.504577 0.020227
v 0.224322 -0.523813 -0.014017
v 0.209951 -0.504577 -0.020229
v 0.224322 -0.545443 -0.037833
v 0.209951 -0.534303 -0.052959
v 0.224322 -0.582400 -0.047439
v 0.209950 -0.582400 -0.065461
v 0.224322 -0.619357 -0.037833
v 0.209950 -0.630497 -0.052959
v 0.224322 -0.640987 -0.014017
v 0.209950 -0.660223 -0.020229
v 0.224322 -0.640987 0.014015
v 0.209950 -0.660223 0.020227
v 0.224322 -0.619357 0.037831
v 0.209950 -0.630497 0.052957
v 0.219881 -0.582400 -0.000001
v -0.000004 -0.623146 0.044860
v -0.000004 -0.623146 -0.044862
v -0.000004 -0.648327 -0.017136
v -0.000004 -0.648327 0.017134
v -0.000003 -0.582563 0.056705
v -0.000003 -0.582563 -0.056707
v 0.042419 0.655300 0.046706
v 0.068635 0.655300 0.017840
v 0.068635 0.655300 -0.017840
v 0.042419 0.655300 -0.046706
v -0.000000 0.655300 -0.057732
v -0.042419 0.655300 -0.046706
v -0.068636 0.655300 -0.017840
v -0.068636 0.655300 0.017840
v -0.042419 0.655300 0.046706
v -0.000000 0.655300 0.057732
v 0.000000 0.451608 0.066707
v -0.049014 0.451608 0.053967
v -0.079306 0.451608 0.020614
v -0.079306 0.451608 -0.020614
v -0.049014 0.451608 -0.053967
v 0.000000 0.451608 -0.066707
v 0.049014 0.451608 -0.053967
v 0.079306 0.451608 -0.020614
v 0.079306 0.451608 0.020614
v 0.049014 0.451608 0.053967
v -0.029860 0.708747 -0.019539
v -0.042721 0.695886 -0.050586
v -0.029906 0.708698 0.019728
v -0.087499 0.663545 0.064159
v -0.042721 0.695886 0.050586
v -0.265468 0.581848 -0.019501
v -0.141813 0.708747 -0.019539
v -0.087294 0.663093 -0.064222
v -0.128953 0.695886 -0.050586
v -0.141813 0.708747 0.019539
v -0.128953 0.695886 0.050586
v -0.244849 0.667266 -0.062573
v -0.197789 0.708747 -0.019539
v -0.210649 0.695886 -0.050586
v -0.197832 0.708715 0.019710
v -0.210649 0.695886 0.050586
v -0.265546 0.625995 -0.063445
v -0.311013 0.629098 -0.018321
v -0.267390 0.594678 -0.050547
v -0.293420 0.596665 -0.039773
v -0.297833 0.625642 -0.050273
v -0.297437 0.630223 0.052105
v -0.264564 0.636777 0.066618
v -0.265835 0.581854 0.019539
v -0.294931 0.598176 0.039774
v -0.265835 0.594714 0.050586
v -0.065506 1.343264 0.091015
v -0.086472 1.397120 0.115564
v -0.076987 1.354532 0.071853
v -0.079111 1.343322 0.112674
v -0.102592 1.353610 0.104033
v -0.101024 1.346991 0.072107
v -0.235907 1.356619 0.088090
v -0.253766 1.396734 0.116235
v -0.262382 1.354077 0.071306
v -0.246286 1.345283 0.112622
v -0.270710 1.351428 0.104959
v -0.053181 1.217746 -0.011140
v -0.049281 1.036209 -0.054022
v -0.042445 1.221230 0.029885
v -0.038227 1.037007 -0.009617
v -0.085377 1.194411 0.074035
v -0.084787 1.011055 0.046053
v -0.048935 1.023836 0.033799
v -0.053550 1.199184 0.063885
v -0.118123 1.199184 0.063885
v -0.122529 1.025772 0.033985
v -0.129412 1.220606 0.029030
v -0.133474 1.035093 -0.009922
v -0.084496 1.209411 -0.026860
v -0.084166 1.019588 -0.068632
v -0.122085 1.032364 -0.054833
v -0.118492 1.217746 -0.011140
v -0.221110 1.217746 -0.011140
v -0.217210 1.036209 -0.054022
v -0.210374 1.221230 0.029885
v -0.206156 1.037007 -0.009617
v -0.253447 1.191305 0.073544
v -0.254717 1.020238 0.046529
v -0.239452 0.666162 0.064240
v -0.216863 1.023836 0.033799
v -0.221479 1.199184 0.063885
v -0.285816 1.203569 0.065109
v -0.290391 1.031817 0.034178
v -0.297536 1.220394 0.031206
v -0.304265 1.043109 -0.011961
v -0.310983 0.630867 0.021197
v -0.253258 1.217095 -0.024206
v -0.255122 1.038235 -0.067672
v -0.290438 1.043649 -0.053705
v -0.286207 1.222089 -0.009340
v 0.122529 1.025772 0.033985
v 0.118123 1.199184 0.063885
v 0.053550 1.199184 0.063885
v 0.048935 1.023836 0.033799
v 0.087499 0.663545 0.064159
v 0.084787 1.011055 0.046053
v 0.085377 1.194411 0.074035
v 0.038227 1.037007 -0.009617
v 0.042445 1.221230 0.029885
v 0.049281 1.036209 -0.054022
v 0.053181 1.217746 -0.011140
v -0.000000 0.625980 -0.063485
v -0.000000 0.581851 0.019521
v -0.000000 0.594696 0.050567
v -0.000000 0.631960 0.065254
v 0.270710 1.351428 0.104959
v 0.246286 1.345283 0.112622
v 0.262382 1.354077 0.071306
v 0.253766 1.396734 0.116235
v 0.235907 1.356619 0.088090
v 0.101024 1.346991 0.072107
v 0.102592 1.353610 0.104033
v 0.079111 1.343322 0.112674
v 0.076987 1.354532 0.071853
v 0.086472 1.397120 0.115564
v 0.065506 1.343264 0.091015
v 0.265835 0.594714 0.050586
v 0.294931 0.598176 0.039774
v 0.265835 0.581854 0.019539
v 0.264564 0.636777 0.066618
v 0.118492 1.217746 -0.011140
v 0.122085 1.032364 -0.054833
v 0.087294 0.663093 -0.064222
v 0.084166 1.019588 -0.068632
v 0.084496 1.209411 -0.026860
v 0.133474 1.035093 -0.009922
v 0.129412 1.220606 0.029030
v 0.297437 0.630223 0.052105
v 0.297833 0.625642 -0.050273
v 0.293420 0.596665 -0.039773
v 0.267390 0.594678 -0.050547
v 0.311013 0.629098 -0.018321
v 0.265546 0.625995 -0.063445
v 0.210649 0.695886 0.050586
v 0.197832 0.708715 0.019710
v 0.210649 0.695886 -0.050586
v 0.197789 0.708747 -0.019539
v 0.244849 0.667266 -0.062573
v 0.128953 0.695886 0.050586
v 0.141813 0.708747 0.019539
v 0.128953 0.695886 -0.050586
v 0.141813 0.708747 -0.019539
v 0.265468 0.581848 -0.019501
v 0.042721 0.695886 0.050586
v 0.029906 0.708698 0.019728
v 0.042721 0.695886 -0.050586
v 0.029860 0.708747 -0.019539
v 0.221110 1.217746 -0.011140
v 0.217210 1.036209 -0.054022
v 0.210374 1.221230 0.029885
v 0.206156 1.037007 -0.009617
v 0.253447 1.191305 0.073544
v 0.254717 1.020238 0.046529
v 0.239452 0.666162 0.064240
v 0.216863 1.023836 0.033799
v 0.221479 1.199184 0.063885
v 0.285816 1.203569 0.065109
v 0.290391 1.031817 0.034178
v 0.297536 1.220394 0.031206
v 0.304265 1.043109 -0.011961
v 0.310983 0.630867 0.021197
v 0.253258 1.217095 -0.024206
v 0.255122 1.038235 -0.067672
v 0.290438 1.043649 -0.053705
v 0.286207 1.222089 -0.009340
v -0.000000 0.581851 -0.019520
v -0.000000 0.594696 -0.050567
v -0.000000 0.663175 -0.064186
v -0.000000 0.695886 -0.050586
v -0.000000 0.708747 -0.019539
v -0.000000 0.664326 0.064262
v -0.000000 0.695886 0.050586
v -0.000000 0.708722 0.019634
vt 0.682564 0.621886
vt 0.666450 0.621886
vt 0.682563 0.606094
vt 0.704646 0.606094
vt 0.708631 0.621886
vt 0.708631 0.621886
vt 0.704646 0.606094
vt 0.703653 0.621886
vt 0.668911 0.606094
vt 0.661470 0.621886
vt 0.660476 0.606094
vt 0.656490 0.621886
vt 0.656490 0.621886
vt 0.660476 0.606094
vt 0.661470 0.621886
vt 0.703653 0.621886
vt 0.682563 0.606094
vt 0.696211 0.606094
vt 0.687111 0.621886
vt 0.668911 0.606094
vt 0.666450 0.637679
vt 0.682563 0.637679
vt 0.682563 0.606094
vt 0.704646 0.606094
vt 0.708631 0.637679
vt 0.708631 0.637679
vt 0.704646 0.606094
vt 0.698676 0.637679
vt 0.696211 0.606094
vt 0.682563 0.637679
vt 0.682563 0.606094
vt 0.666450 0.637679
vt 0.668911 0.606094
vt 0.656490 0.637679
vt 0.660476 0.606094
vt 0.656490 0.637679
vt 0.660476 0.606094
vt 0.698676 0.637679
vt 0.696211 0.606094
vt 0.698676 0.668929
vt 0.682563 0.668929
vt 0.682563 0.672596
vt 0.696696 0.672596
vt 0.708631 0.668929
vt 0.704969 0.672596
vt 0.708631 0.668929
vt 0.704969 0.672596
vt 0.698676 0.668929
vt 0.696696 0.672596
vt 0.682563 0.668929
vt 0.682563 0.672596
vt 0.666450 0.668929
vt 0.668426 0.672596
vt 0.656490 0.668929
vt 0.660157 0.672596
vt 0.656490 0.668929
vt 0.660157 0.672596
vt 0.666450 0.668929
vt 0.668426 0.672596
vt 0.698322 0.705298
vt 0.684189 0.705298
vt 0.696369 0.705298
vt 0.670052 0.705298
vt 0.684189 0.705298
vt 0.661784 0.705298
vt 0.672006 0.705298
vt 0.661784 0.705298
vt 0.665400 0.705298
vt 0.670052 0.705298
vt 0.684189 0.705298
vt 0.698322 0.705298
vt 0.706595 0.705298
vt 0.706595 0.705298
vt 0.702978 0.705298
vt 0.704646 0.606094
vt 0.689922 0.621886
vt 0.704646 0.606094
vt 0.689922 0.621886
vt 0.696211 0.606094
vt 0.687111 0.621886
vt 0.682563 0.606094
vt 0.682563 0.621886
vt 0.668911 0.606094
vt 0.678011 0.606094
vt 0.689922 0.606094
vt 0.687111 0.606094
vt 0.689922 0.606094
vt 0.687111 0.606094
vt 0.682563 0.621886
vt 0.668911 0.606094
vt 0.666450 0.637679
vt 0.682563 0.637679
vt 0.708631 0.637679
vt 0.708631 0.637679
vt 0.698676 0.637679
vt 0.682563 0.637679
vt 0.666450 0.637679
vt 0.656490 0.637679
vt 0.660476 0.606094
vt 0.656490 0.637679
vt 0.660476 0.606094
vt 0.698676 0.637679
vt 0.698676 0.668929
vt 0.682563 0.668929
vt 0.682563 0.672596
vt 0.696696 0.672596
vt 0.708631 0.668929
vt 0.704969 0.672596
vt 0.708631 0.668929
vt 0.704969 0.672596
vt 0.698676 0.668929
vt 0.696696 0.672596
vt 0.682563 0.668929
vt 0.682563 0.672596
vt 0.666450 0.668929
vt 0.668426 0.672596
vt 0.656490 0.668929
vt 0.660157 0.672596
vt 0.656490 0.668929
vt 0.660157 0.672596
vt 0.666450 0.668929
vt 0.668426 0.672596
vt 0.698322 0.705298
vt 0.684189 0.705298
vt 0.696369 0.705298
vt 0.670052 0.705298
vt 0.684189 0.705298
vt 0.661784 0.705298
vt 0.672006 0.705298
vt 0.661784 0.705298
vt 0.665400 0.705298
vt 0.670052 0.705298
vt 0.684189 0.705298
vt 0.698322 0.705298
vt 0.706595 0.705298
vt 0.706595 0.705298
vt 0.702978 0.705298
vt 0.682563 0.621886
vt 0.678011 0.606094
vt 0.682563 0.621886
vt 0.675199 0.606094
vt 0.675199 0.606094
vt 0.682563 0.621886
vt 0.678011 0.621886
vt 0.675199 0.621886
vt 0.675199 0.621886
vt 0.678011 0.621886
vt 0.696211 0.606094
vt 0.682563 0.606094
vt 0.698676 0.621886
vt 0.668911 0.606094
vt 0.666450 0.621886
vt 0.696211 0.606094
vt 0.698676 0.621886
vt 0.670543 0.588039
vt 0.662223 0.588039
vt 0.662223 0.588039
vt 0.670543 0.588039
vt 0.684005 0.588039
vt 0.697466 0.588039
vt 0.705786 0.588039
vt 0.705786 0.588039
vt 0.697466 0.588039
vt 0.684005 0.588039
vt 0.679206 0.303804
vt 0.679206 0.303804
vt 0.680361 0.327835
vt 0.680361 0.327835
vt 0.688562 0.301329
vt 0.684250 0.301329
vt 0.682780 0.303804
vt 0.688562 0.303804
vt 0.682780 0.303804
vt 0.688562 0.303804
vt 0.688562 0.327835
vt 0.683494 0.327835
vt 0.681585 0.301329
vt 0.681585 0.301329
vt 0.684250 0.301329
vt 0.688562 0.301329
vt 0.695540 0.301329
vt 0.692875 0.301329
vt 0.694345 0.303804
vt 0.697919 0.303804
vt 0.678240 0.328808
vt 0.688562 0.328900
vt 0.688562 0.332623
vt 0.683522 0.332623
vt 0.683522 0.316998
vt 0.685040 0.318515
vt 0.688562 0.318515
vt 0.688562 0.316998
vt 0.657244 0.319169
vt 0.653946 0.320917
vt 0.657017 0.320683
vt 0.651874 0.324952
vt 0.653768 0.321096
vt 0.653472 0.324876
vt 0.680834 0.408999
vt 0.678361 0.415352
vt 0.679229 0.409005
vt 0.679480 0.410328
vt 0.676459 0.410219
vt 0.676644 0.409438
vt 0.660731 0.410574
vt 0.658624 0.415307
vt 0.659506 0.409237
vt 0.657608 0.410274
vt 0.656625 0.409962
vt 0.682288 0.394190
vt 0.678594 0.393207
vt 0.674627 0.376376
vt 0.676459 0.394594
vt 0.673295 0.378903
vt 0.660731 0.394949
vt 0.663743 0.378976
vt 0.662477 0.378565
vt 0.660313 0.329116
vt 0.663711 0.332623
vt 0.662978 0.371314
vt 0.654843 0.392518
vt 0.653460 0.394503
vt 0.657234 0.324378
vt 0.653425 0.324336
vt 0.658464 0.373012
vt 0.657350 0.325650
vt 0.698565 0.369806
vt 0.698885 0.328808
vt 0.703776 0.332623
vt 0.703018 0.371542
vt 0.711897 0.318515
vt 0.711902 0.318512
vt 0.712884 0.357243
vt 0.678633 0.370812
vt 0.678264 0.328754
vt 0.673349 0.332623
vt 0.674159 0.372320
vt 0.682789 0.355689
vt 0.683522 0.316998
vt 0.685034 0.318510
vt 0.684053 0.357243
vt 0.654303 0.372255
vt 0.658512 0.370889
vt 0.662937 0.372773
vt 0.659676 0.329247
vt 0.662978 0.355689
vt 0.663711 0.316998
vt 0.665223 0.318512
vt 0.664241 0.357243
vt 0.683494 0.327835
vt 0.688562 0.327835
vt 0.693631 0.327835
vt 0.697919 0.303804
vt 0.696764 0.327835
vt 0.696764 0.327835
vt 0.692875 0.301329
vt 0.695540 0.301329
vt 0.694345 0.303804
vt 0.693631 0.327835
vt 0.671832 0.318515
vt 0.671832 0.318515
vt 0.665228 0.318515
vt 0.688562 0.324376
vt 0.688562 0.320685
vt 0.657200 0.320687
vt 0.657200 0.319170
vt 0.688562 0.319170
vt 0.688562 0.320685
vt 0.651870 0.324744
vt 0.688562 0.316998
vt 0.688562 0.318513
vt 0.688562 0.328764
vt 0.683522 0.332623
vt 0.688562 0.332623
vt 0.688562 0.319170
vt 0.663711 0.332623
vt 0.673349 0.316998
vt 0.663711 0.316998
vt 0.673349 0.332623
vt 0.673349 0.316998
vt 0.688562 0.325081
vt 0.683555 0.378976
vt 0.682288 0.378565
vt 0.679480 0.394703
vt 0.680834 0.393374
vt 0.678560 0.369806
vt 0.674107 0.371542
vt 0.674627 0.392001
vt 0.678490 0.391437
vt 0.698492 0.370812
vt 0.698861 0.328754
vt 0.693603 0.332623
vt 0.694377 0.372773
vt 0.672816 0.357017
vt 0.674159 0.356695
vt 0.662477 0.394190
vt 0.658684 0.394114
vt 0.658662 0.391071
vt 0.676644 0.393813
vt 0.674583 0.378565
vt 0.674583 0.394190
vt 0.674107 0.355917
vt 0.679229 0.393380
vt 0.682245 0.376375
vt 0.682789 0.371314
vt 0.682245 0.392000
vt 0.682748 0.357148
vt 0.682748 0.372773
vt 0.654797 0.394703
vt 0.652666 0.373587
vt 0.654298 0.373651
vt 0.659506 0.393612
vt 0.662433 0.376375
vt 0.662433 0.392000
vt 0.662937 0.357148
vt 0.719925 0.319170
vt 0.723357 0.321096
vt 0.719925 0.320687
vt 0.704309 0.357017
vt 0.702966 0.356695
vt 0.702542 0.378565
vt 0.703830 0.378903
vt 0.720108 0.320683
vt 0.719881 0.319169
vt 0.722822 0.372255
vt 0.723653 0.324876
vt 0.725251 0.324952
vt 0.718613 0.370889
vt 0.719775 0.325650
vt 0.702498 0.376376
vt 0.703018 0.355917
vt 0.692091 0.318510
vt 0.693603 0.316998
vt 0.694336 0.355689
vt 0.693072 0.357243
vt 0.716812 0.329116
vt 0.714147 0.371314
vt 0.713414 0.332623
vt 0.705293 0.318515
vt 0.703776 0.316998
vt 0.719891 0.324378
vt 0.702498 0.392001
vt 0.698635 0.391437
vt 0.719517 0.410274
vt 0.722328 0.394703
vt 0.718441 0.394114
vt 0.724459 0.373587
vt 0.725255 0.324744
vt 0.723700 0.324336
vt 0.722827 0.373651
vt 0.696291 0.408999
vt 0.697896 0.409005
vt 0.698764 0.415352
vt 0.718661 0.373012
vt 0.717449 0.329247
vt 0.714188 0.372773
vt 0.713414 0.316998
vt 0.714648 0.394190
vt 0.716394 0.410574
vt 0.700666 0.410219
vt 0.700481 0.409438
vt 0.700481 0.393813
vt 0.700666 0.394594
vt 0.723179 0.320917
vt 0.693570 0.378976
vt 0.696291 0.393374
vt 0.697645 0.394703
vt 0.694837 0.378565
vt 0.692085 0.318515
vt 0.705293 0.318515
vt 0.703776 0.316998
vt 0.713414 0.316998
vt 0.702542 0.394190
vt 0.698531 0.393207
vt 0.697645 0.410328
vt 0.694336 0.371314
vt 0.693603 0.332623
vt 0.720500 0.409962
vt 0.717619 0.409237
vt 0.718463 0.391071
vt 0.722282 0.392518
vt 0.702966 0.372320
vt 0.703776 0.332623
vt 0.713414 0.332623
vt 0.694837 0.394190
vt 0.723665 0.394503
vt 0.694880 0.376375
vt 0.697896 0.393380
vt 0.694377 0.357148
vt 0.693603 0.316998
vt 0.694880 0.392000
vt 0.716394 0.394949
vt 0.714648 0.378565
vt 0.713382 0.378976
vt 0.714147 0.355689
vt 0.718501 0.415307
vt 0.714692 0.392000
vt 0.714692 0.376375
vt 0.717619 0.393612
vt 0.714188 0.357148
vn 0.0000 -0.1352 -0.9908
vn -0.0510 -0.0744 -0.9959
vn 0.0000 0.0399 -0.9992
vn 0.9393 0.0634 0.3371
vn 0.9696 0.0554 0.2382
vn 0.9696 0.0554 -0.2382
vn 0.9393 0.0634 -0.3371
vn 0.2412 0.2978 -0.9237
vn -0.4985 0.0767 -0.8635
vn -0.2412 0.2978 -0.9236
vn -0.9393 0.0634 -0.3371
vn -0.9696 0.0555 -0.2382
vn -0.9696 0.0555 0.2382
vn -0.9393 0.0634 0.3371
vn -0.2412 0.2978 0.9236
vn 0.2412 0.2978 0.9237
vn -0.0533 0.0000 0.9986
vn -0.0570 0.5146 0.8555
vn 0.0570 0.5146 0.8555
vn 0.1132 0.5175 0.8482
vn 0.1056 0.0000 0.9944
vn 0.0533 -0.0000 0.9986
vn 0.0653 -0.9302 0.3613
vn 0.1285 -0.9262 0.3544
vn 0.1285 -0.9262 -0.3544
vn 0.0653 -0.9302 -0.3613
vn 0.1132 -0.5175 -0.8482
vn 0.0572 -0.5148 -0.8554
vn 0.1056 0.0000 -0.9944
vn 0.0533 -0.0000 -0.9986
vn 0.1132 0.5175 -0.8482
vn 0.0570 0.5146 -0.8555
vn 0.1285 0.9262 -0.3544
vn 0.0649 0.9301 -0.3614
vn 0.1285 0.9262 0.3544
vn 0.0649 0.9301 0.3614
vn 0.1132 -0.5175 0.8482
vn 0.0572 -0.5148 0.8554
vn -0.7933 -0.3207 0.5176
vn -0.7818 0.0000 0.6235
vn -0.9403 -0.1696 0.2951
vn -0.8147 -0.5427 0.2045
vn -0.9405 -0.3146 0.1281
vn -0.8147 -0.5427 -0.2045
vn -0.9405 -0.3146 -0.1281
vn -0.7933 -0.3207 -0.5176
vn -0.9403 -0.1696 -0.2951
vn -0.7818 -0.0000 -0.6235
vn -0.7933 0.3207 -0.5176
vn -0.9403 0.1696 -0.2951
vn -0.8147 0.5427 -0.2045
vn -0.9405 0.3146 -0.1281
vn -0.8147 0.5427 0.2045
vn -0.9405 0.3146 0.1281
vn -0.7933 0.3207 0.5176
vn -0.9403 0.1696 0.2951
vn -0.9956 0.0000 -0.0932
vn -1.0000 0.0000 0.0000
vn -0.9956 0.0000 0.0932
vn -0.0650 0.9301 0.3614
vn 0.0007 0.9210 0.3896
vn -0.0650 0.9301 -0.3614
vn 0.0007 0.9210 -0.3896
vn -0.0570 0.5146 -0.8555
vn -0.0533 0.0000 -0.9986
vn 0.0510 -0.0744 -0.9959
vn -0.0572 -0.5148 -0.8554
vn 0.0000 -0.5229 -0.8524
vn 0.0000 -0.9328 -0.3604
vn 0.0000 -0.9328 0.3604
vn 0.0000 -0.5229 0.8524
vn -0.0510 -0.0744 0.9959
vn -0.0572 -0.5148 0.8554
vn -0.1132 -0.5175 0.8482
vn -0.1056 -0.0000 0.9944
vn -0.1285 0.9262 0.3544
vn -0.1285 0.9262 -0.3544
vn -0.1132 0.5175 -0.8482
vn -0.1056 -0.0000 -0.9944
vn -0.1132 -0.5175 -0.8482
vn -0.1285 -0.9262 -0.3544
vn -0.0653 -0.9302 -0.3613
vn -0.1285 -0.9262 0.3544
vn -0.0653 -0.9302 0.3613
vn -0.1132 0.5175 0.8482
vn 0.7933 0.3207 0.5175
vn 0.7818 -0.0000 0.6235
vn 0.9403 0.1696 0.2951
vn 0.8147 0.5426 0.2045
vn 0.9405 0.3146 0.1281
vn 0.8147 0.5426 -0.2045
vn 0.9405 0.3146 -0.1281
vn 0.7933 0.3207 -0.5176
vn 0.9403 0.1696 -0.2951
vn 0.7818 -0.0000 -0.6235
vn 0.7933 -0.3207 -0.5176
vn 0.9403 -0.1696 -0.2951
vn 0.8147 -0.5426 -0.2045
vn 0.9405 -0.3146 -0.1281
vn 0.8147 -0.5426 0.2045
vn 0.9405 -0.3146 0.1281
vn 0.7933 -0.3207 0.5176
vn 0.9403 -0.1696 0.2951
vn 0.9956 0.0000 -0.0932
vn 1.0000 -0.0000 0.0000
vn 0.9956 0.0000 0.0932
vn 0.0510 -0.0744 0.9959
vn 0.0000 -0.1352 0.9908
vn -0.0008 0.9210 -0.3896
vn -0.0008 0.9210 0.3896
vn 0.4985 0.0767 0.8635
vn 0.0000 0.0399 0.9992
vn -0.4985 0.0767 0.8635
vn 0.4985 0.0767 -0.8635
vn -0.5172 0.0067 0.8558
vn -0.9327 0.0076 0.3605
vn -0.9327 0.0076 -0.3605
vn -0.5172 0.0067 -0.8558
vn 0.0000 0.0062 -1.0000
vn 0.5172 0.0067 -0.8558
vn 0.9327 0.0076 -0.3605
vn 0.9327 0.0076 0.3605
vn 0.5172 0.0067 0.8558
vn -0.0000 0.0062 1.0000
vn -0.9320 0.0537 -0.3586
vn -0.9320 0.0537 0.3586
vn -0.9309 0.0537 0.3612
vn -0.9309 0.0537 -0.3612
vn 0.0000 -0.6287 -0.7776
vn -0.3736 -0.6529 -0.6589
vn -0.4030 -0.6565 -0.6376
vn -0.5183 0.0472 0.8539
vn 0.0000 0.0440 0.9990
vn -0.5154 0.0472 0.8556
vn -0.6586 -0.7013 -0.2730
vn -0.6586 -0.7013 0.2730
vn -0.6672 -0.7029 0.2464
vn -0.6672 -0.7029 -0.2464
vn -0.3736 -0.6529 0.6589
vn 0.0000 -0.6287 0.7776
vn -0.4030 -0.6565 0.6376
vn 0.6586 -0.7012 -0.2730
vn 0.3736 -0.6529 -0.6589
vn 0.4030 -0.6565 -0.6376
vn 0.6672 -0.7029 -0.2464
vn 0.0036 0.1270 0.9919
vn 0.0000 0.2171 0.9761
vn -0.0000 0.7112 0.7030
vn 0.1121 0.4125 0.9041
vn 0.1401 0.3894 -0.9104
vn -0.0002 0.9766 -0.2149
vn 0.0000 0.9809 -0.1946
vn 0.0000 0.7076 -0.7066
vn -0.2037 -0.9669 -0.1540
vn -0.6303 -0.6442 -0.4332
vn -0.1643 -0.6819 -0.7127
vn -0.9685 -0.1780 0.1743
vn -0.6406 -0.6265 0.4439
vn -0.6782 -0.1423 0.7209
vn 0.8933 0.0289 0.4486
vn 0.8437 0.0870 0.5297
vn 0.8760 0.0507 0.4797
vn 0.8838 0.3796 -0.2735
vn 0.8819 0.3851 -0.2718
vn 0.8581 0.4482 -0.2505
vn -0.3251 -0.1788 0.9286
vn -0.3825 -0.1017 0.9183
vn -0.3726 -0.1528 0.9153
vn -0.9410 0.3206 -0.1081
vn -0.9196 0.3732 -0.1225
vn -0.9361 0.3011 -0.1819
vn -0.1883 0.6218 -0.7602
vn -0.2165 0.6001 -0.7701
vn -0.2191 0.6747 -0.7049
vn 0.9343 0.0795 0.3476
vn 0.8987 0.1007 0.4268
vn 0.9188 0.0616 0.3899
vn 0.3174 0.5919 -0.7409
vn 0.3675 0.6382 -0.6764
vn 0.3611 0.6050 -0.7097
vn -0.2857 -0.1806 0.9411
vn -0.3232 -0.1130 0.9396
vn -0.3274 -0.1666 0.9301
vn -0.9293 0.3304 -0.1650
vn -0.9023 0.3855 -0.1930
vn -0.9173 0.3346 -0.2160
vn 0.2975 0.4104 -0.8620
vn 0.0134 0.3589 -0.9333
vn -0.9589 -0.0109 0.2836
vn -0.9936 0.1123 0.0115
vn 0.9930 0.1176 0.0127
vn 0.9552 0.1478 -0.2564
vn 0.0644 0.1112 0.9917
vn 0.1708 0.4114 0.8953
vn 0.3226 -0.0488 0.9453
vn -0.9506 -0.0146 0.3100
vn -0.9925 0.1220 0.0073
vn -0.1833 -0.1832 -0.9658
vn -0.7007 -0.1643 -0.6943
vn -0.0085 0.1126 -0.9936
vn -0.1885 -0.1371 0.9725
vn -0.0036 -0.0287 0.9996
vn -0.0036 0.1270 0.9919
vn 0.1132 0.4152 0.9027
vn 0.3139 -0.0681 0.9470
vn -0.9847 0.0251 -0.1727
vn -0.9822 0.0361 0.1843
vn -0.9994 0.0310 -0.0178
vn 0.0088 0.0791 -0.9968
vn 0.0019 0.0726 -0.9974
vn -0.1375 0.3884 -0.9112
vn -0.3238 0.1259 -0.9377
vn 0.9565 0.0129 0.2916
vn 0.9480 0.0432 0.3153
vn 0.9822 0.0361 0.1843
vn 0.9994 0.0310 -0.0178
vn -0.7361 -0.0302 0.6762
vn -0.0029 -0.0366 0.9993
vn 0.3469 0.1068 -0.9318
vn 0.0745 0.0499 -0.9960
vn -0.5183 0.0472 -0.8539
vn -0.5154 0.0472 -0.8556
vn 0.5183 0.0472 -0.8539
vn -0.0000 0.0440 -0.9990
vn 0.5154 0.0472 -0.8556
vn 0.9320 0.0537 0.3586
vn 0.9320 0.0537 -0.3586
vn 0.9309 0.0537 -0.3612
vn 0.9309 0.0537 0.3612
vn 0.3736 -0.6529 0.6589
vn 0.6586 -0.7012 0.2730
vn 0.6672 -0.7029 0.2464
vn 0.4030 -0.6565 0.6376
vn 0.5183 0.0472 0.8539
vn 0.5154 0.0472 0.8556
vn 0.0000 0.9763 0.2163
vn 0.0000 0.9765 0.2155
vn -0.0001 0.9766 -0.2152
vn -0.0001 0.9766 -0.2151
vn 0.0000 -0.2037 -0.9790
vn 0.0000 -0.3812 -0.9245
vn -0.1584 -0.6779 0.7179
vn -0.2099 -0.9647 0.1591
vn 0.0000 -0.9808 0.1950
vn 0.0000 -0.9240 0.3825
vn -0.9704 -0.1934 -0.1447
vn -0.0000 0.9807 0.1955
vn -0.0001 0.9763 0.2166
vn 0.0000 0.1866 -0.9824
vn -0.0000 -0.9808 -0.1948
vn -0.0000 -0.9241 -0.3821
vn 0.1412 0.3880 -0.9108
vn -0.1132 0.4152 0.9027
vn 0.0000 -0.1688 0.9857
vn 0.0000 -0.3611 0.9325
vn 0.9920 0.1258 0.0111
vn 0.9495 0.1659 -0.2663
vn 0.0036 -0.0287 0.9996
vn -0.3139 -0.0681 0.9470
vn -0.3475 -0.1793 0.9204
vn -0.0099 -0.1981 0.9801
vn -0.0088 0.0791 -0.9968
vn -0.0019 0.0726 -0.9974
vn -0.1401 0.3894 -0.9104
vn -0.3417 0.1324 -0.9305
vn -0.9843 0.0252 -0.1746
vn -0.9993 0.0320 -0.0191
vn -0.9570 0.0479 -0.2861
vn -0.9509 0.0243 -0.3086
vn 0.3577 0.4100 -0.8390
vn 0.0236 0.3916 -0.9198
vn -0.3334 -0.1886 0.9238
vn -0.0066 -0.1967 0.9804
vn -0.9597 0.1483 -0.2385
vn -0.2601 0.4228 -0.8681
vn -0.9824 0.0363 0.1831
vn -0.9484 0.0434 0.3140
vn -0.9569 0.0109 0.2903
vn 0.9469 -0.0158 0.3211
vn 0.3195 -0.0655 0.9453
vn 0.3370 -0.1970 0.9207
vn 0.9847 0.0251 -0.1726
vn 0.9517 0.0242 -0.3060
vn 0.9586 0.0488 -0.2806
vn 0.3417 0.1324 -0.9305
vn -0.9464 0.1839 -0.2656
vn -0.9987 0.0347 -0.0365
vn -0.9462 0.0561 -0.3187
vn -0.3598 0.1266 -0.9244
vn -0.3132 0.4085 -0.8573
vn 0.9534 -0.0032 0.3015
vn 0.3305 -0.2010 0.9222
vn 0.9847 0.0251 -0.1727
vn 0.2099 -0.9647 0.1591
vn 0.6406 -0.6265 0.4439
vn 0.1584 -0.6779 0.7179
vn 0.9993 0.0320 -0.0191
vn 0.9570 0.0479 -0.2861
vn 0.9597 0.1483 -0.2385
vn 0.9936 0.1123 0.0115
vn 0.1643 -0.6819 -0.7127
vn 0.2037 -0.9669 -0.1540
vn 0.7361 -0.0302 0.6762
vn 0.6782 -0.1423 0.7209
vn 0.9685 -0.1780 0.1743
vn 0.0029 -0.0366 0.9993
vn 0.1885 -0.1371 0.9725
vn 0.9589 -0.0109 0.2836
vn 0.9569 0.0109 0.2903
vn -0.9480 0.0432 0.3153
vn -0.9565 0.0129 0.2916
vn -0.0644 0.1112 0.9917
vn -0.3226 -0.0488 0.9453
vn -0.1708 0.4114 0.8953
vn 0.9843 0.0252 -0.1746
vn 0.9509 0.0243 -0.3086
vn 0.1833 -0.1832 -0.9658
vn 0.3475 -0.1793 0.9204
vn 0.0099 -0.1981 0.9801
vn -0.3174 0.5919 -0.7409
vn 0.3132 0.4085 -0.8573
vn -0.0236 0.3916 -0.9198
vn 0.9987 0.0347 -0.0365
vn 0.9704 -0.1934 -0.1447
vn 0.7007 -0.1643 -0.6943
vn 0.9462 0.0561 -0.3187
vn -0.8933 0.0289 0.4486
vn -0.8760 0.0507 0.4797
vn -0.8437 0.0870 0.5297
vn 0.0085 0.1126 -0.9936
vn -0.0745 0.0499 -0.9960
vn -0.3469 0.1068 -0.9318
vn 0.0001 0.9766 -0.2152
vn 0.0001 0.9766 -0.2151
vn -0.1412 0.3880 -0.9108
vn 0.1375 0.3884 -0.9112
vn -0.3577 0.4100 -0.8390
vn -0.3611 0.6050 -0.7097
vn 0.9410 0.3206 -0.1081
vn 0.9361 0.3011 -0.1819
vn 0.9196 0.3732 -0.1225
vn 0.6303 -0.6442 -0.4332
vn -0.9920 0.1258 0.0111
vn -0.8838 0.3796 -0.2735
vn -0.8819 0.3851 -0.2718
vn -0.9495 0.1659 -0.2663
vn 0.0001 0.9763 0.2166
vn 0.0002 0.9766 -0.2149
vn 0.9824 0.0363 0.1831
vn 0.9484 0.0434 0.3140
vn -0.1121 0.4125 0.9041
vn 0.2601 0.4228 -0.8681
vn -0.0134 0.3589 -0.9333
vn 0.1883 0.6218 -0.7602
vn 0.2165 0.6001 -0.7701
vn -0.3195 -0.0655 0.9453
vn 0.3274 -0.1666 0.9301
vn 0.2857 -0.1806 0.9411
vn 0.0066 -0.1967 0.9804
vn 0.3334 -0.1886 0.9238
vn 0.3238 0.1259 -0.9377
vn -0.2975 0.4104 -0.8620
vn 0.9506 -0.0146 0.3100
vn 0.9925 0.1220 0.0073
vn 0.9293 0.3304 -0.1650
vn -0.9847 0.0251 -0.1726
vn 0.9464 0.1839 -0.2656
vn 0.9173 0.3346 -0.2160
vn -0.9469 -0.0158 0.3211
vn -0.9586 0.0488 -0.2806
vn -0.9517 0.0242 -0.3060
vn -0.3370 -0.1970 0.9207
vn 0.3598 0.1266 -0.9244
vn 0.3251 -0.1788 0.9286
vn -0.9343 0.0795 0.3476
vn -0.9552 0.1478 -0.2564
vn -0.9930 0.1176 0.0127
vn 0.3726 -0.1528 0.9153
vn 0.3825 -0.1017 0.9183
vn -0.9188 0.0616 0.3899
vn -0.8987 0.1007 0.4268
vn 0.2191 0.6747 -0.7049
vn -0.3675 0.6382 -0.6764
vn 0.3232 -0.1130 0.9396
vn 0.9023 0.3855 -0.1930
vn -0.8581 0.4482 -0.2505
vn -0.3305 -0.2010 0.9222
vn -0.9534 -0.0032 0.3015
usemtl farmer
s 1
f 100/1/1 25/2/2 16/3/3
f 13/4/4 22/5/5 23/6/6 14/7/7
f 14/7/7 23/6/6 30/8/8
f 17/9/9 25/2/2 31/10/10
f 18/11/11 26/12/12 27/13/13 19/14/14
f 19/14/14 27/13/13 32/15/15
f 13/4/4 29/16/16 22/5/5
f 64/17/17 65/18/18 29/19/16
f 42/20/19 62/21/20 44/22/21 33/23/22
f 35/24/23 48/25/24 50/26/25 36/27/26
f 36/27/26 50/26/25 52/28/27 37/29/28
f 37/29/28 52/28/27 54/30/29 38/31/30
f 38/31/30 54/30/29 56/32/31 39/33/32
f 39/33/32 56/32/31 58/34/33 40/35/34
f 40/35/34 58/34/33 60/36/35 41/37/36
f 41/37/36 60/36/35 62/21/20 42/20/19
f 33/23/22 44/22/21 46/38/37 34/39/38
f 34/39/38 46/38/37 48/25/24 35/24/23
f 46/40/39 44/41/40 43/42/40 45/43/41
f 48/44/42 46/40/39 45/43/41 47/45/43
f 50/46/44 48/44/42 47/45/43 49/47/45
f 52/48/46 50/46/44 49/47/45 51/49/47
f 54/50/48 52/48/46 51/49/47 53/51/48
f 56/52/49 54/50/48 53/51/48 55/53/50
f 58/54/51 56/52/49 55/53/50 57/55/52
f 60/56/53 58/54/51 57/55/52 59/57/54
f 62/58/55 60/56/53 59/57/54 61/59/56
f 44/41/40 62/58/55 61/59/56 43/42/40
f 45/60/41 43/61/57 63/62/58
f 43/61/57 61/63/56 63/64/58
f 61/63/56 59/65/54 63/66/58
f 59/65/54 57/67/52 63/68/58
f 57/67/52 55/69/50 63/68/58
f 55/69/50 53/70/59 63/66/58
f 53/70/59 51/71/47 63/64/58
f 51/71/47 49/72/45 63/62/58
f 49/72/45 47/73/43 63/74/58
f 47/73/43 45/60/41 63/74/58
f 29/19/16 65/18/18 66/75/60 22/76/61
f 22/76/61 66/75/60 67/77/62 23/78/63
f 23/78/63 67/77/62 68/79/64 30/80/8
f 30/80/8 68/79/64 69/81/65
f 24/82/66 69/81/65 70/83/67 96/84/68
f 97/85/69 36/27/26 37/29/28 96/86/68
f 98/87/70 35/24/23 36/27/26 97/85/69
f 95/88/71 34/39/38 35/24/23 98/87/70
f 28/89/72 33/23/22 34/39/38 95/88/71
f 73/90/73 93/91/74 75/92/75 64/17/17
f 66/75/60 79/93/76 81/94/77 67/77/62
f 67/77/62 81/94/77 83/95/78 68/79/64
f 68/79/64 83/95/78 85/96/79 69/81/65
f 69/81/65 85/96/79 87/97/80 70/83/67
f 70/83/67 87/97/80 89/98/81 71/99/82
f 71/99/82 89/98/81 91/100/83 72/101/84
f 72/101/84 91/100/83 93/91/74 73/90/73
f 64/17/17 75/92/75 77/102/85 65/18/18
f 65/18/18 77/102/85 79/93/76 66/75/60
f 77/103/86 75/104/87 74/105/87 76/106/88
f 79/107/89 77/103/86 76/106/88 78/108/90
f 81/109/91 79/107/89 78/108/90 80/110/92
f 83/111/93 81/109/91 80/110/92 82/112/94
f 85/113/95 83/111/93 82/112/94 84/114/95
f 87/115/96 85/113/95 84/114/95 86/116/97
f 89/117/98 87/115/96 86/116/97 88/118/99
f 91/119/100 89/117/98 88/118/99 90/120/101
f 93/121/102 91/119/100 90/120/101 92/122/103
f 75/104/87 93/121/102 92/122/103 74/105/87
f 76/123/88 74/124/104 94/125/105
f 74/124/104 92/126/103 94/127/105
f 92/126/103 90/128/101 94/129/105
f 90/128/101 88/130/99 94/131/105
f 88/130/99 86/132/97 94/131/105
f 86/132/97 84/133/106 94/129/105
f 84/133/106 82/134/94 94/127/105
f 82/134/94 80/135/92 94/125/105
f 80/135/92 78/136/90 94/137/105
f 78/136/90 76/123/88 94/137/105
f 64/17/17 21/138/107 95/139/71 73/90/73
f 99/140/108 28/89/72 95/139/71
f 73/90/73 95/139/71 98/141/70 72/101/84
f 72/101/84 98/141/70 97/142/69 71/99/82
f 71/99/82 97/142/69 96/84/68 70/83/67
f 38/31/30 25/143/2 96/86/68 37/29/28
f 100/1/1 24/82/66 96/86/68
f 31/144/10 25/143/2 38/31/30
f 40/35/34 26/145/109 31/144/10 39/33/32
f 41/37/36 27/146/110 26/145/109 40/35/34
f 42/20/19 32/147/15 27/146/110 41/37/36
f 33/23/22 28/89/72 32/147/15
f 12/148/111 11/149/112 21/150/107
f 20/151/113 28/152/72 11/149/112
f 17/9/9 16/3/3 25/2/2
f 15/153/114 24/154/66 16/3/3
f 11/149/112 28/152/72 99/140/108
f 12/148/111 21/150/107 29/16/16
f 13/4/4 12/148/111 29/16/16
f 15/153/114 14/7/7 30/8/8
f 24/154/66 15/153/114 30/8/8
f 18/11/11 17/9/9 31/10/10
f 26/12/12 18/11/11 31/10/10
f 20/151/113 19/14/14 32/15/15
f 28/152/72 20/151/113 32/15/15
f 21/138/107 99/140/108 95/139/71
f 21/150/107 11/149/112 99/140/108
f 25/143/2 100/1/1 96/86/68
f 24/154/66 100/1/1 16/3/3
f 21/138/107 64/17/17 29/19/16
f 42/20/19 33/23/22 32/147/15
f 24/82/66 30/80/8 69/81/65
f 39/33/32 31/144/10 38/31/30
f 20/151/113 9/155/115 8/156/116 19/14/14
f 19/14/14 8/156/116 7/157/117 18/11/11
f 18/11/11 7/157/117 6/158/118 17/9/9
f 17/9/9 6/158/118 5/159/119 16/3/3
f 16/3/3 5/159/119 4/160/120 15/153/114
f 15/153/114 4/160/120 3/161/121 14/7/7
f 14/7/7 3/161/121 2/162/122 13/4/4
f 13/4/4 2/162/122 1/163/123 12/148/111
f 12/148/111 1/163/123 10/164/124 11/149/112
f 11/149/112 10/164/124 9/155/115 20/151/113
f 114/165/125 113/166/126 108/167/127 107/168/128
f 5/169/129 6/170/130 115/171/131 116/172/129
f 112/173/132 111/174/133 110/175/133 109/176/134
f 7/177/135 8/178/136 113/166/137 114/165/138
f 9/179/139 10/180/140 111/174/140 112/173/141
f 3/181/142 4/182/143 117/183/144 118/184/145
f 124/185/146 272/186/147 273/187/148 125/188/149
f 122/189/150 121/190/151 271/191/152 270/192/153
f 126/193/154 140/194/155 139/195/156
f 187/196/157 145/197/158 142/198/159
f 147/199/160 148/200/161 150/201/162
f 147/199/163 149/202/164 148/200/165
f 150/201/166 148/200/167 151/203/168
f 151/203/169 148/200/170 152/204/171
f 149/202/172 152/204/173 148/200/174
f 153/205/175 154/206/176 156/207/177
f 155/208/178 154/206/179 153/205/180
f 156/207/181 154/206/182 157/209/183
f 157/209/184 154/206/185 155/208/186
f 149/202/172 158/210/187 170/211/188
f 166/212/189 151/213/169 168/214/190
f 153/215/175 176/216/191 174/217/192
f 180/218/193 136/219/194 181/220/195
f 183/221/196 157/209/184 185/222/197
f 137/223/198 141/224/199 189/225/200
f 124/185/146 180/218/193 143/226/201
f 197/227/202 196/228/203 240/229/204 192/230/205
f 238/231/206 236/232/207 252/233/208
f 171/234/209 128/235/210 129/236/211 172/237/212
f 164/238/213 125/239/214 123/240/215 161/241/216
f 184/242/217 187/196/157 142/198/159
f 179/243/218 184/242/217 143/226/201
f 189/225/200 175/244/219 132/245/220
f 181/246/213 136/247/214 135/248/215 177/249/216
f 115/171/221 114/165/125 107/168/128 106/250/222
f 117/183/223 116/172/224 105/251/224 104/252/225
f 119/253/226 118/184/227 103/254/228 102/255/229
f 118/184/227 117/183/223 104/252/225 103/254/228
f 6/170/130 7/177/135 114/165/138 115/171/131
f 116/172/224 115/171/221 106/250/222 105/251/224
f 1/256/230 2/257/231 119/253/232 120/258/233
f 8/178/136 9/179/139 112/173/141 113/166/137
f 120/258/234 119/253/226 102/255/229 101/259/235
f 10/180/140 1/256/230 120/258/233 111/174/140
f 2/257/231 3/181/142 118/184/145 119/253/232
f 111/174/133 120/258/234 101/259/235 110/175/133
f 113/166/126 112/173/132 109/176/134 108/167/127
f 4/182/143 5/169/129 116/172/129 117/183/144
f 135/248/236 130/260/237 127/261/238 133/262/239
f 139/195/156 137/223/198 203/263/240 268/264/241
f 146/265/242 144/266/243 204/267/244 205/268/245
f 140/194/155 141/224/199 137/223/198 139/195/156
f 145/197/158 146/265/242 143/226/201 142/198/159
f 138/269/246 141/224/199 140/194/155
f 273/270/148 274/271/247 123/240/248 125/239/149
f 144/266/243 146/265/242 145/197/158
f 269/272/249 128/235/210 122/273/150 270/274/153
f 267/275/250 126/193/154 139/195/156 268/264/251
f 129/236/211 128/235/210 132/245/220 134/276/252
f 127/261/238 129/277/211 134/278/252 133/262/239
f 136/219/194 180/218/193 124/185/146 131/279/253
f 135/248/236 136/247/194 131/280/253 130/260/237
f 140/194/155 126/193/154 144/266/243 145/197/158
f 138/269/246 140/194/155 145/197/158 187/196/157
f 206/281/254 143/226/201 146/265/242 205/268/255
f 160/282/256 158/283/257 149/284/164 147/285/163
f 131/279/253 124/185/146 163/286/258 167/287/259
f 166/288/260 162/289/261 150/201/166 151/203/168
f 225/290/262 224/291/263 247/292/264 201/293/265
f 127/261/266 169/294/267 172/295/268 129/277/269
f 174/296/270 188/297/271 155/208/178 153/205/180
f 157/209/183 183/221/272 178/298/273 156/207/181
f 126/193/154 267/275/250 204/267/244 144/266/243
f 274/271/247 271/191/152 121/190/151 123/240/248
f 128/235/210 269/272/249 203/263/240
f 168/214/190 151/213/169 152/299/171 173/300/274
f 169/294/267 168/214/190 173/300/274 172/295/268
f 173/301/275 152/204/173 149/202/172 170/211/188
f 172/237/212 173/301/275 170/211/188 171/234/209
f 130/260/276 131/280/277 167/302/278 169/294/267
f 169/294/267 167/302/278 166/212/189 168/214/190
f 167/287/259 163/286/258 162/289/261 166/288/260
f 147/285/160 150/303/162 165/304/279 160/282/256
f 161/241/216 160/282/256 165/304/279 164/238/213
f 164/305/280 165/306/281 162/289/261 163/286/258
f 150/201/166 162/289/261 165/306/281
f 121/190/282 122/189/283 159/307/284 161/241/216
f 161/241/216 159/307/284 158/283/257 160/282/256
f 159/308/285 171/234/209 170/211/188 158/210/187
f 169/294/267 127/261/266 130/260/276
f 185/222/197 157/209/184 155/208/186 191/309/286
f 186/310/287 185/222/197 191/309/286 190/311/288
f 186/310/287 190/311/288 141/224/199 138/269/246
f 190/311/289 191/309/290 188/297/271 189/225/200
f 155/208/178 188/297/271 191/309/290
f 185/222/197 186/310/287 184/242/217 183/221/196
f 189/225/200 141/224/199 190/311/289
f 184/242/217 186/310/287 187/196/157
f 183/221/272 184/242/217 179/243/218 178/298/273
f 143/226/201 184/242/217 142/198/159
f 153/215/175 156/312/177 182/313/291 176/216/191
f 177/249/216 176/216/191 182/313/291 181/246/213
f 181/220/195 182/314/292 178/298/273 179/243/218
f 156/207/181 178/298/273 182/314/292
f 133/262/293 134/278/283 175/315/284 177/249/216
f 179/243/218 180/218/193 181/220/195
f 177/249/216 175/315/284 174/217/192 176/216/191
f 175/244/219 189/225/200 188/297/271 174/296/270
f 132/245/220 175/244/219 134/276/252
f 137/223/198 189/225/200 132/245/220
f 143/226/201 180/218/193 179/243/218
f 138/269/246 187/196/157 186/310/287
f 220/316/294 219/317/295 218/318/296
f 227/319/297 223/320/298 222/321/299 228/322/300
f 267/275/250 268/264/251 232/323/301 244/324/302
f 218/318/296 205/268/245 204/267/244 220/316/294
f 259/325/303 229/326/304 262/327/305
f 254/328/306 221/329/307 259/325/303
f 227/319/297 228/322/300 193/330/308 192/331/309
f 246/332/207 245/333/310 195/334/311 199/335/208
f 255/336/312 256/337/313 235/338/314
f 122/273/150 128/235/210 171/234/209 159/308/285
f 243/339/315 242/340/316 223/320/298 227/319/297
f 232/323/301 268/264/241 203/263/240 234/341/317
f 192/230/205 193/342/318 198/343/319 197/227/202
f 209/344/320 266/345/321 263/346/322
f 261/347/323 233/348/324 230/349/325 265/350/326
f 217/351/327 214/352/328 216/353/329
f 264/354/330 239/355/331 250/356/332
f 243/339/333 238/231/334 237/357/335 242/340/336
f 249/358/337 211/359/338 209/344/320 263/346/322
f 213/360/339 212/361/340 216/353/341
f 228/322/300 222/321/299 212/362/340 213/363/339
f 233/348/324 231/364/342 230/349/325
f 231/364/342 232/323/301 234/341/317 230/349/325
f 121/190/282 161/241/216 123/240/215
f 200/365/343 217/366/344 215/367/345 202/368/346
f 274/271/247 246/332/347 248/369/348 271/191/152
f 241/370/349 227/319/297 192/331/309 240/371/350
f 206/281/254 205/268/255 218/318/296 221/329/307
f 236/232/236 241/370/237 240/371/204 235/372/314
f 219/317/295 229/326/304 221/329/307 218/318/296
f 273/270/148 245/333/351 246/332/347 274/271/247
f 222/373/352 226/374/353 215/375/354 212/361/355
f 197/227/202 195/376/356 245/377/351 196/228/203
f 207/378/357 208/379/358 253/380/359 258/381/360
f 244/324/302 220/316/294 204/267/244 267/275/250
f 223/382/361 225/290/262 226/374/353 222/373/352
f 224/291/263 239/355/331 234/341/317
f 242/383/336 237/384/335 239/355/331 224/291/263
f 231/364/342 219/317/295 220/316/294 244/324/302
f 269/272/249 270/274/153 247/292/264 224/291/263
f 201/293/265 202/385/362 226/374/353 225/290/262
f 163/286/258 124/185/146 125/188/149 164/305/280
f 227/319/297 241/370/349 243/339/315
f 258/381/363 260/386/364 207/378/365
f 248/369/366 246/332/207 199/335/208
f 260/386/364 266/345/367 209/344/368 207/378/365
f 217/366/327 200/365/343 194/387/369 214/388/328
f 199/335/208 195/334/311 194/387/369 200/365/343
f 248/369/366 199/335/208 201/389/370 247/390/371
f 195/376/356 197/227/202 198/343/319 194/391/372
f 199/335/208 200/365/343 202/368/346 201/389/370
f 261/347/323 265/350/326 266/345/367 260/386/364
f 259/325/303 262/327/305 261/347/323
f 260/386/364 258/381/363 259/325/303 261/347/323
f 264/354/330 265/350/373 230/349/325
f 258/381/360 253/380/359 254/328/306 259/325/303
f 265/350/373 264/354/330 263/346/322 266/345/321
f 214/352/374 194/391/372 198/343/319
f 244/324/302 232/323/301 231/364/342
f 193/330/308 228/322/300 213/363/339
f 211/392/375 249/393/376 251/394/377
f 236/232/207 235/372/310 256/395/311 252/233/208
f 196/228/203 245/377/351 273/187/148 272/186/147
f 236/232/236 238/231/334 243/339/333 241/370/237
f 214/352/374 213/360/378 216/353/379
f 262/327/305 229/326/304 219/317/295
f 196/228/203 272/186/147 206/281/254
f 247/390/264 270/192/153 271/191/152 248/369/348
f 211/359/375 208/379/380 210/396/381
f 215/375/354 216/353/382 212/361/355
f 193/342/318 213/360/378 214/352/374 198/343/319
f 234/341/317 264/354/330 230/349/325
f 233/348/324 262/327/305 219/317/295 231/364/342
f 209/344/320 211/359/338 210/396/383
f 235/338/314 240/229/204 196/228/203 255/336/312
f 208/379/358 207/378/357 210/396/384
f 215/375/354 226/374/353 202/385/362
f 207/378/365 209/344/368 210/396/385
f 217/351/344 216/353/386 215/375/345
f 208/379/358 257/397/387 253/380/359
f 256/337/313 254/328/306 253/380/359 257/397/387
f 211/392/375 251/394/377 257/398/388 208/399/380
f 252/233/208 256/395/311 257/398/388 251/394/377
f 221/329/307 229/326/304 259/325/303
f 238/231/206 252/233/208 250/400/370 237/357/371
f 254/328/306 256/337/313 255/336/312
f 252/233/208 251/394/377 249/393/376 250/400/370
f 250/356/332 249/358/337 263/346/322 264/354/330
f 239/355/331 237/384/335 250/356/332
f 234/341/317 239/355/331 264/354/330
f 221/329/307 254/328/306 255/336/312
f 233/348/324 261/347/323 262/327/305
f 196/228/203 206/281/254 221/329/307
f 255/336/312 196/228/203 221/329/307
f 272/186/147 124/185/146 206/281/254
f 206/281/254 124/185/146 143/226/201
f 132/245/220 128/235/210 137/223/198
f 137/223/198 128/235/210 203/263/240
f 269/272/249 224/291/263 203/263/240
f 203/263/240 224/291/263 234/341/317
f 225/290/262 223/382/361 242/383/336 224/291/263
f 133/262/293 177/249/216 135/248/215
