# Blender v3.4.1 OBJ File: 'June2026_Farmers_Assets_Export.blend'
# www.blender.org
mtllib wheelbarrow_empty.mtl
o wheelbarrow_empty
v -0.262138 0.532055 -0.065973
v -0.249699 0.743820 -0.209863
v -0.443176 0.706757 -0.015660
v -0.259285 0.558578 -0.131441
v -0.255919 0.608137 -0.181776
v -0.331418 0.544874 -0.059633
v -0.326957 0.577289 -0.122630
v -0.323288 0.613906 -0.171160
v -0.363610 0.626467 -0.150343
v -0.323739 0.740999 -0.195080
v -0.386508 0.732965 -0.152982
v -0.252553 0.673185 -0.209314
v -0.323151 0.671536 -0.187652
v -0.379586 0.667737 -0.158638
v -0.429395 0.639422 -0.032404
v -0.390151 0.582577 -0.047845
v -0.428448 0.720941 -0.089978
v -0.408203 0.655294 -0.102550
v -0.381233 0.602870 -0.113332
v -0.291685 1.022368 -0.267531
v -0.518728 0.978840 -0.039454
v -0.378570 1.019055 -0.250169
v -0.452228 1.009619 -0.200728
v -0.501445 0.995498 -0.126735
v 0.262138 0.532055 -0.065973
v 0.443176 0.706757 -0.015660
v 0.249699 0.743820 -0.209863
v 0.331418 0.544874 -0.059633
v 0.390151 0.582577 -0.047845
v 0.259285 0.558578 -0.131441
v 0.326957 0.577289 -0.122630
v 0.381233 0.602870 -0.113332
v 0.363610 0.626467 -0.150343
v 0.428448 0.720941 -0.089978
v 0.386508 0.732965 -0.152982
v 0.429395 0.639422 -0.032404
v 0.408203 0.655294 -0.102550
v 0.379586 0.667737 -0.158638
v 0.252553 0.673185 -0.209314
v 0.255919 0.608137 -0.181776
v 0.323739 0.740999 -0.195080
v 0.323151 0.671536 -0.187652
v 0.323288 0.613906 -0.171160
v 0.518728 0.978840 -0.039454
v 0.291685 1.022368 -0.267531
v 0.501445 0.995498 -0.126735
v 0.452228 1.009619 -0.200728
v 0.378570 1.019055 -0.250169
v -0.262138 0.422250 0.509378
v -0.443176 0.584913 0.622772
v -0.249250 0.508058 0.822982
v -0.331418 0.432307 0.530188
v -0.390151 0.466752 0.559046
v -0.259182 0.418377 0.587765
v -0.326884 0.435045 0.603785
v -0.381188 0.456745 0.620934
v -0.363515 0.457348 0.665695
v -0.428414 0.545230 0.687742
v -0.386376 0.516689 0.748605
v -0.429395 0.520340 0.591557
v -0.408161 0.496721 0.651981
v -0.379481 0.478446 0.703184
v -0.252206 0.464816 0.757486
v -0.255694 0.433325 0.674889
v -0.323462 0.503636 0.796095
v -0.322941 0.469567 0.732306
v -0.323144 0.442016 0.671288
v -0.518728 0.791566 0.941816
v -0.291138 0.738695 1.218848
v -0.501403 0.771333 1.047832
v -0.452068 0.754181 1.137707
v -0.378233 0.742720 1.197760
v 0.262138 0.422250 0.509378
v 0.249250 0.508058 0.822982
v 0.443176 0.584913 0.622772
v 0.259182 0.418377 0.587765
v 0.255694 0.433325 0.674889
v 0.331418 0.432307 0.530188
v 0.326884 0.435045 0.603785
v 0.323144 0.442016 0.671288
v 0.363515 0.457348 0.665695
v 0.323462 0.503636 0.796095
v 0.386376 0.516689 0.748605
v 0.252206 0.464816 0.757486
v 0.322941 0.469567 0.732306
v 0.379481 0.478446 0.703184
v 0.429395 0.520340 0.591557
v 0.390151 0.466752 0.559046
v 0.428414 0.545230 0.687742
v 0.408161 0.496721 0.651981
v 0.381188 0.456745 0.620934
v 0.291138 0.738695 1.218848
v 0.518728 0.791566 0.941816
v 0.378233 0.742720 1.197760
v 0.452068 0.754181 1.137707
v 0.501403 0.771333 1.047832
v 0.182509 0.583784 0.043949
v -0.182509 0.583784 0.043949
v -0.440206 0.961545 0.051166
v -0.213163 1.005074 -0.176912
v -0.422924 0.978203 -0.036116
v -0.373707 0.992324 -0.110109
v -0.300049 1.001760 -0.159550
v 0.213164 1.005074 -0.176912
v 0.440206 0.961545 0.051166
v 0.300049 1.001760 -0.159550
v 0.373707 0.992324 -0.110109
v 0.422924 0.978203 -0.036116
v 0.182293 0.507552 0.443382
v 0.440206 0.808310 0.854082
v 0.212617 0.755437 1.131122
v 0.422882 0.788077 0.960100
v 0.373547 0.770924 1.049978
v 0.299711 0.759462 1.110033
v -0.182293 0.507552 0.443382
v -0.212617 0.755437 1.131122
v -0.440206 0.808310 0.854082
v -0.299711 0.759462 1.110033
v -0.373547 0.770924 1.049978
v -0.422882 0.788077 0.960100
v 0.479467 0.990058 0.009647
v 0.462184 1.006716 -0.077634
v 0.412968 1.020837 -0.151628
v 0.339310 1.030273 -0.201068
v 0.252424 1.033586 -0.218430
v -0.479467 0.990058 0.009647
v -0.462184 1.006716 -0.077634
v -0.412968 1.020837 -0.151628
v -0.339310 1.030273 -0.201068
v -0.252424 1.033586 -0.218430
v -0.251877 0.766932 1.178776
v -0.338972 0.770956 1.157688
v -0.412808 0.782417 1.097634
v -0.462143 0.799570 1.007757
v -0.479467 0.819804 0.901740
v 0.251877 0.766932 1.178776
v 0.338972 0.770956 1.157688
v 0.412807 0.782417 1.097634
v 0.462143 0.799570 1.007757
v 0.479467 0.819804 0.901740
v -0.000003 0.438999 0.721762
v -0.000003 0.474979 0.809203
v -0.000003 0.474758 0.903756
v -0.000003 0.438369 0.991028
v -0.000003 0.371354 1.057731
v -0.000003 0.283913 1.093711
v -0.000003 0.189359 1.093490
v -0.000003 0.102088 1.057101
v -0.000003 0.035385 0.990085
v -0.000003 -0.000595 0.902644
v -0.000003 -0.000374 0.808091
v -0.000003 0.036014 0.720819
v -0.000003 0.103030 0.654116
v -0.000003 0.372296 0.654746
v -0.000003 0.190471 0.618136
v -0.000003 0.285025 0.618358
v -0.043398 0.283195 0.627446
v 0.043392 0.283195 0.627446
v -0.043398 0.192258 0.627233
v 0.043392 0.192258 0.627233
v -0.043398 0.108163 0.661836
v 0.043392 0.108163 0.661836
v -0.043398 0.043710 0.725988
v 0.043392 0.043710 0.725988
v -0.043398 0.008714 0.809920
v 0.043392 0.008714 0.809920
v -0.043398 0.008501 0.900857
v 0.043392 0.008501 0.900857
v -0.043398 0.043105 0.984953
v 0.043392 0.043105 0.984953
v -0.043398 0.107256 1.049405
v 0.043392 0.107256 1.049405
v -0.043398 0.191189 1.084401
v 0.084029 0.237192 0.855923
v 0.043392 0.191189 1.084401
v -0.084035 0.237192 0.855924
v -0.043398 0.282125 1.084614
v 0.043392 0.282125 1.084614
v -0.043398 0.366221 1.050011
v 0.043392 0.366221 1.050011
v -0.043398 0.430673 0.985859
v 0.043392 0.430673 0.985859
v -0.043398 0.465670 0.901927
v 0.043392 0.465670 0.901926
v -0.043398 0.465883 0.810990
v 0.043392 0.465882 0.810990
v -0.043398 0.431279 0.726894
v 0.043392 0.431279 0.726894
v -0.043398 0.367128 0.662442
v 0.043392 0.367128 0.662442
v 0.321458 0.237192 0.855921
v -0.321465 0.237192 0.855921
v -0.238550 0.315572 0.000512
v -0.268196 0.355387 -0.188594
v -0.248601 0.538993 -0.153009
v -0.218954 0.499178 0.036097
v -0.380791 0.363645 -0.169203
v -0.351145 0.323830 0.019903
v -0.331549 0.507437 0.055488
v -0.361196 0.547252 -0.133618
v -0.469465 0.857127 -0.983095
v -0.467446 0.806890 -0.949974
v -0.447850 0.990497 -0.914389
v -0.458742 0.957599 -0.963623
v -0.354851 0.798631 -0.969365
v -0.356870 0.848868 -1.002486
v -0.346147 0.949340 -0.983013
v -0.335256 0.982238 -0.933780
v -0.205158 0.127774 0.951101
v -0.194266 0.160671 1.000334
v -0.183544 0.261144 1.019807
v -0.185563 0.311380 0.986686
v -0.081672 0.152413 0.980944
v -0.092563 0.119515 0.931710
v -0.072968 0.303122 0.967295
v -0.070949 0.252885 1.000416
v -0.268267 0.037128 -0.053453
v -0.279158 0.004231 -0.102687
v -0.295894 0.026706 -0.209438
v -0.297913 0.076943 -0.242559
v -0.410508 0.085201 -0.223168
v -0.408489 0.034965 -0.190047
v -0.391753 0.012489 -0.083296
v -0.380861 0.045387 -0.034063
v -0.277114 0.580822 -0.336389
v -0.309807 0.740731 -0.594331
v -0.288994 0.685910 -0.450129
v -0.422402 0.748989 -0.574940
v -0.389709 0.589081 -0.316999
v -0.401589 0.694169 -0.430738
v -0.366786 0.723137 -0.240987
v -0.396187 0.902351 -0.488038
v -0.377319 0.836086 -0.350253
v -0.283592 0.894093 -0.507429
v -0.254191 0.714878 -0.260377
v -0.264724 0.827827 -0.369643
v -0.247199 0.516980 0.044273
v -0.299974 0.520851 0.053362
v -0.275563 0.553948 -0.139148
v -0.329327 0.557892 -0.129889
v -0.300513 0.354646 -0.198741
v -0.354144 0.358580 -0.189505
v -0.266380 0.305013 0.013724
v -0.322299 0.309115 0.023354
v -0.440381 0.791388 -0.963011
v -0.386619 0.787444 -0.972270
v -0.442812 0.852040 -1.003398
v -0.389196 0.848107 -1.012632
v -0.364145 0.999848 -0.931779
v -0.417755 1.003780 -0.922546
v -0.377217 0.960358 -0.990877
v -0.430831 0.964290 -0.981644
v -0.176285 0.110174 0.949101
v -0.122642 0.106239 0.939863
v -0.109572 0.145724 0.998958
v -0.163208 0.149658 1.008195
v -0.100021 0.318271 0.980960
v -0.153647 0.322204 0.990195
v -0.151226 0.261904 1.029950
v -0.097595 0.257970 1.020715
v -0.327808 0.015883 -0.212947
v -0.381438 0.019817 -0.203711
v -0.383863 0.080116 -0.243466
v -0.330230 0.076182 -0.252702
v -0.296172 0.030438 -0.035436
v -0.349798 0.034372 -0.026201
v -0.362872 -0.005115 -0.085296
v -0.309244 -0.009049 -0.094532
v -0.309801 0.572738 -0.343143
v -0.362628 0.576613 -0.334045
v -0.321196 0.674574 -0.453079
v -0.374155 0.678459 -0.443959
v -0.394260 0.731316 -0.583603
v -0.341430 0.727442 -0.592701
v -0.311511 0.911363 -0.497438
v -0.364386 0.915241 -0.488332
v -0.292039 0.842910 -0.355491
v -0.345005 0.846795 -0.346369
v -0.334082 0.730662 -0.233788
v -0.281218 0.726784 -0.242892
v -0.361363 0.597967 -0.030370
v -0.376091 0.583784 0.043949
v -0.319423 0.609991 -0.093374
v -0.256654 0.618026 -0.135472
v -0.182614 0.620847 -0.150255
v 0.376091 0.583784 0.043949
v 0.361363 0.597967 -0.030370
v 0.319423 0.609991 -0.093374
v 0.256655 0.618026 -0.135472
v 0.182614 0.620847 -0.150255
v 0.182165 0.462465 0.679627
v 0.256377 0.465897 0.661644
v 0.319291 0.475671 0.610432
v 0.361329 0.490298 0.533789
v 0.376091 0.507552 0.443382
v -0.376091 0.507552 0.443382
v -0.361329 0.490298 0.533789
v -0.319291 0.475671 0.610432
v -0.256377 0.465897 0.661644
v -0.182165 0.462465 0.679627
v -0.084035 0.200247 0.667889
v -0.084035 0.275017 0.668064
v 0.084029 0.275017 0.668064
v 0.084029 0.200247 0.667889
v -0.084035 0.131101 0.696340
v 0.084029 0.131101 0.696340
v -0.084035 0.078107 0.749087
v 0.084029 0.078107 0.749087
v -0.084035 0.049332 0.818099
v 0.084029 0.049332 0.818099
v -0.084035 0.049157 0.892869
v 0.084029 0.049157 0.892869
v -0.084035 0.077609 0.962014
v 0.084029 0.077609 0.962014
v -0.084035 0.130356 1.015008
v 0.084029 0.130356 1.015008
v -0.084035 0.199367 1.043783
v 0.084029 0.199367 1.043783
v -0.084035 0.274137 1.043958
v 0.084029 0.274137 1.043958
v -0.084035 0.343283 1.015507
v 0.084029 0.343283 1.015506
v -0.084035 0.396277 0.962760
v 0.084029 0.396277 0.962760
v -0.084035 0.425052 0.893748
v 0.084029 0.425052 0.893748
v -0.084035 0.425227 0.818978
v 0.084029 0.425227 0.818978
v -0.084035 0.396775 0.749833
v 0.084029 0.396775 0.749833
v -0.084035 0.344028 0.696839
v 0.084029 0.344028 0.696838
v 0.301266 0.294965 0.867553
v 0.301266 0.269818 0.904998
v -0.301273 0.269818 0.904998
v -0.301273 0.294965 0.867553
v 0.301266 0.225560 0.913693
v -0.301273 0.225560 0.913693
v 0.301266 0.188115 0.888547
v -0.301273 0.188115 0.888547
v 0.301266 0.179419 0.844289
v -0.301273 0.179419 0.844289
v 0.301266 0.204566 0.806844
v -0.301273 0.204566 0.806844
v 0.301266 0.248824 0.798148
v -0.301273 0.248824 0.798148
v 0.301266 0.286269 0.823295
v -0.301273 0.286269 0.823295
v 0.264724 0.827827 -0.369643
v 0.254191 0.714878 -0.260377
v 0.283592 0.894093 -0.507429
v 0.377319 0.836086 -0.350253
v 0.396187 0.902351 -0.488038
v 0.366786 0.723137 -0.240987
v 0.401589 0.694169 -0.430738
v 0.389709 0.589081 -0.316999
v 0.422402 0.748989 -0.574940
v 0.288994 0.685910 -0.450129
v 0.309807 0.740731 -0.594331
v 0.277114 0.580822 -0.336389
v 0.380861 0.045387 -0.034063
v 0.391753 0.012489 -0.083296
v 0.408489 0.034965 -0.190047
v 0.410508 0.085201 -0.223168
v 0.297913 0.076943 -0.242559
v 0.295894 0.026706 -0.209438
v 0.279158 0.004231 -0.102687
v 0.268267 0.037128 -0.053453
v 0.070949 0.252885 1.000416
v 0.072968 0.303122 0.967295
v 0.092563 0.119515 0.931710
v 0.081672 0.152413 0.980944
v 0.185563 0.311380 0.986686
v 0.183544 0.261144 1.019807
v 0.194266 0.160671 1.000334
v 0.205158 0.127774 0.951101
v 0.335256 0.982238 -0.933780
v 0.346147 0.949340 -0.983013
v 0.356870 0.848868 -1.002486
v 0.354851 0.798631 -0.969365
v 0.458742 0.957599 -0.963623
v 0.447850 0.990497 -0.914389
v 0.467446 0.806890 -0.949974
v 0.469465 0.857127 -0.983095
v 0.361196 0.547252 -0.133618
v 0.331549 0.507437 0.055488
v 0.351145 0.323830 0.019903
v 0.380791 0.363645 -0.169203
v 0.218954 0.499178 0.036097
v 0.248601 0.538993 -0.153009
v 0.268196 0.355387 -0.188594
v 0.238550 0.315572 0.000512
v 0.247199 0.516980 0.044273
v 0.299974 0.520851 0.053362
v 0.275563 0.553948 -0.139148
v 0.329327 0.557892 -0.129889
v 0.300513 0.354646 -0.198741
v 0.354144 0.358580 -0.189505
v 0.266380 0.305013 0.013724
v 0.322299 0.309115 0.023354
v 0.440381 0.791388 -0.963011
v 0.386619 0.787444 -0.972270
v 0.442812 0.852040 -1.003398
v 0.389196 0.848107 -1.012632
v 0.364145 0.999848 -0.931779
v 0.417755 1.003780 -0.922546
v 0.377217 0.960358 -0.990877
v 0.430831 0.964290 -0.981644
v 0.176285 0.110174 0.949101
v 0.122642 0.106239 0.939863
v 0.109572 0.145724 0.998958
v 0.163208 0.149658 1.008195
v 0.100021 0.318271 0.980960
v 0.153647 0.322204 0.990195
v 0.151226 0.261904 1.029950
v 0.097595 0.257970 1.020715
v 0.327808 0.015883 -0.212947
v 0.381438 0.019817 -0.203711
v 0.383863 0.080116 -0.243466
v 0.330230 0.076182 -0.252702
v 0.296172 0.030438 -0.035436
v 0.349798 0.034372 -0.026201
v 0.362872 -0.005115 -0.085296
v 0.309244 -0.009049 -0.094532
v 0.309801 0.572738 -0.343143
v 0.362628 0.576613 -0.334045
v 0.321196 0.674574 -0.453079
v 0.374155 0.678459 -0.443959
v 0.394260 0.731316 -0.583603
v 0.341430 0.727442 -0.592701
v 0.311511 0.911363 -0.497438
v 0.364386 0.915241 -0.488332
v 0.292039 0.842910 -0.355491
v 0.345005 0.846795 -0.346369
v 0.334082 0.730662 -0.233788
v 0.281218 0.726784 -0.242892
vt 0.782767 0.354641
vt 0.782767 0.388274
vt 0.782767 0.412621
vt 0.782767 0.373183
vt 0.849814 0.414080
vt 0.847177 0.410373
vt 0.847177 0.390451
vt 0.849814 0.391945
vt 0.834527 0.385071
vt 0.831890 0.383577
vt 0.803328 0.383577
vt 0.800691 0.385071
vt 0.800654 0.419739
vt 0.803291 0.416032
vt 0.831927 0.416032
vt 0.834564 0.419739
vt 0.797978 0.378822
vt 0.798017 0.418280
vt 0.837201 0.418280
vt 0.837240 0.378822
vt 0.847177 0.307594
vt 0.847177 0.295994
vt 0.847177 0.343576
vt 0.847177 0.363498
vt 0.788041 0.295994
vt 0.788041 0.307594
vt 0.788041 0.363498
vt 0.788041 0.343576
vt 0.831931 0.289133
vt 0.803288 0.289133
vt 0.803328 0.336702
vt 0.831890 0.336702
vt 0.803252 0.313234
vt 0.831966 0.313234
vt 0.831927 0.369157
vt 0.803291 0.369157
vt 0.785404 0.391945
vt 0.788041 0.390451
vt 0.788041 0.410373
vt 0.785404 0.414080
vt 0.852451 0.373183
vt 0.852451 0.412621
vt 0.852451 0.388274
vt 0.852451 0.354641
vt 0.837205 0.342946
vt 0.837164 0.381400
vt 0.798054 0.381400
vt 0.798013 0.342946
vt 0.797000 0.346598
vt 0.791553 0.348549
vt 0.791904 0.353481
vt 0.797224 0.350634
vt 0.792193 0.359053
vt 0.797489 0.358175
vt 0.786936 0.354286
vt 0.787637 0.357374
vt 0.789023 0.360965
vt 0.797754 0.368074
vt 0.792203 0.367823
vt 0.792157 0.378393
vt 0.787767 0.367245
vt 0.787222 0.377171
vt 0.783925 0.375341
vt 0.785517 0.365351
vt 0.783851 0.362936
vt 0.838218 0.346598
vt 0.837994 0.350634
vt 0.843314 0.353481
vt 0.843665 0.348549
vt 0.847581 0.357374
vt 0.848282 0.354286
vt 0.837729 0.358175
vt 0.843025 0.359053
vt 0.846196 0.360965
vt 0.851367 0.362936
vt 0.849701 0.365351
vt 0.851293 0.375341
vt 0.847452 0.367245
vt 0.847996 0.377171
vt 0.843061 0.378393
vt 0.843015 0.367823
vt 0.837464 0.368074
vt 0.797000 0.329889
vt 0.797233 0.329299
vt 0.791910 0.331836
vt 0.791553 0.331419
vt 0.787641 0.335138
vt 0.786936 0.336661
vt 0.797507 0.331574
vt 0.792204 0.332896
vt 0.789030 0.335230
vt 0.783851 0.344815
vt 0.785520 0.341221
vt 0.783928 0.348603
vt 0.787775 0.338440
vt 0.787233 0.344260
vt 0.792179 0.342273
vt 0.792220 0.337089
vt 0.797781 0.336366
vt 0.838218 0.329889
vt 0.843665 0.331419
vt 0.843308 0.331836
vt 0.837986 0.329299
vt 0.843014 0.332896
vt 0.837711 0.331574
vt 0.848282 0.336661
vt 0.847577 0.335138
vt 0.846188 0.335230
vt 0.837437 0.336366
vt 0.842998 0.337089
vt 0.843039 0.342273
vt 0.847443 0.338440
vt 0.847985 0.344260
vt 0.851290 0.348603
vt 0.849698 0.341221
vt 0.851367 0.344815
vt 0.792181 0.417849
vt 0.787234 0.416623
vt 0.783928 0.414787
vt 0.843037 0.417849
vt 0.847984 0.416623
vt 0.851290 0.414787
vt 0.851287 0.385644
vt 0.847973 0.383414
vt 0.843014 0.381924
vt 0.792204 0.381924
vt 0.787245 0.383414
vt 0.783931 0.385644
vt 0.789199 0.309753
vt 0.789202 0.365663
vt 0.792497 0.311583
vt 0.792508 0.367499
vt 0.797431 0.312805
vt 0.797455 0.368726
vt 0.846016 0.365663
vt 0.846019 0.309753
vt 0.842710 0.367499
vt 0.842722 0.311583
vt 0.837763 0.368726
vt 0.837787 0.312805
vt 0.837740 0.337225
vt 0.837765 0.289656
vt 0.842699 0.338715
vt 0.842711 0.291143
vt 0.846013 0.340945
vt 0.846016 0.293369
vt 0.789205 0.340945
vt 0.789202 0.293369
vt 0.792519 0.338715
vt 0.792507 0.291143
vt 0.797478 0.337225
vt 0.797453 0.289656
vt 0.848653 0.416245
vt 0.846016 0.412538
vt 0.845347 0.418081
vt 0.842710 0.414374
vt 0.840400 0.419308
vt 0.837763 0.415601
vt 0.785404 0.429705
vt 0.786565 0.431870
vt 0.783928 0.430412
vt 0.782767 0.428246
vt 0.789871 0.433706
vt 0.787234 0.432248
vt 0.794818 0.434933
vt 0.792181 0.433474
vt 0.800654 0.435364
vt 0.798017 0.433905
vt 0.800691 0.400696
vt 0.794841 0.401220
vt 0.792204 0.397549
vt 0.798054 0.397025
vt 0.789882 0.402710
vt 0.787245 0.399039
vt 0.786568 0.404940
vt 0.783931 0.401269
vt 0.785404 0.407570
vt 0.782767 0.403899
vt 0.840377 0.385595
vt 0.837740 0.384100
vt 0.845336 0.387085
vt 0.842699 0.385590
vt 0.848650 0.389315
vt 0.846013 0.387820
vt 0.851287 0.401269
vt 0.852451 0.403899
vt 0.849814 0.407570
vt 0.848650 0.404940
vt 0.847973 0.399039
vt 0.845336 0.402710
vt 0.843014 0.397549
vt 0.840377 0.401220
vt 0.837164 0.397025
vt 0.834527 0.400696
vt 0.789205 0.387820
vt 0.786568 0.389315
vt 0.792519 0.385590
vt 0.789882 0.387085
vt 0.797478 0.384100
vt 0.794841 0.385595
vt 0.797455 0.415601
vt 0.794818 0.419308
vt 0.792508 0.414374
vt 0.789871 0.418081
vt 0.789202 0.412538
vt 0.786565 0.416245
vt 0.843037 0.433474
vt 0.837201 0.433905
vt 0.834564 0.435364
vt 0.840400 0.434933
vt 0.847984 0.432248
vt 0.845347 0.433706
vt 0.851290 0.430412
vt 0.848653 0.431870
vt 0.852451 0.428246
vt 0.849814 0.429705
vt 0.567781 0.663048
vt 0.578833 0.661731
vt 0.578833 0.640356
vt 0.567781 0.640822
vt 0.567781 0.594473
vt 0.578833 0.595780
vt 0.578833 0.579366
vt 0.567781 0.577406
vt 0.578833 0.570453
vt 0.567781 0.568138
vt 0.578833 0.570399
vt 0.567781 0.568082
vt 0.578833 0.579211
vt 0.567781 0.577245
vt 0.578833 0.595549
vt 0.567781 0.594233
vt 0.578833 0.616924
vt 0.567781 0.616458
vt 0.578833 0.640084
vt 0.567781 0.640539
vt 0.578833 0.661501
vt 0.567781 0.662808
vt 0.578833 0.677915
vt 0.567781 0.679875
vt 0.578833 0.686827
vt 0.567781 0.689142
vt 0.578833 0.686882
vt 0.567781 0.689198
vt 0.578833 0.678069
vt 0.567781 0.680035
vt 0.567781 0.616742
vt 0.578833 0.617197
vt 0.556729 0.640356
vt 0.556729 0.617197
vt 0.546380 0.572356
vt 0.546380 0.591398
vt 0.589182 0.591398
vt 0.589182 0.572356
vt 0.556729 0.595780
vt 0.546380 0.554747
vt 0.589182 0.554747
vt 0.556729 0.579366
vt 0.546380 0.541251
vt 0.589182 0.541250
vt 0.556729 0.570453
vt 0.546380 0.533922
vt 0.589182 0.533922
vt 0.556729 0.570399
vt 0.546380 0.533878
vt 0.589182 0.533878
vt 0.556729 0.579211
vt 0.546380 0.541124
vt 0.589182 0.541124
vt 0.556729 0.595549
vt 0.546380 0.554557
vt 0.589182 0.554557
vt 0.556729 0.616924
vt 0.546380 0.572132
vt 0.589182 0.572132
vt 0.556729 0.640084
vt 0.546380 0.591174
vt 0.589182 0.591174
vt 0.556729 0.661501
vt 0.546380 0.608784
vt 0.589182 0.608784
vt 0.556729 0.677915
vt 0.546380 0.622280
vt 0.589182 0.622280
vt 0.556729 0.686827
vt 0.546380 0.629608
vt 0.589182 0.629608
vt 0.556729 0.686882
vt 0.546380 0.629653
vt 0.589182 0.629653
vt 0.556729 0.678069
vt 0.546380 0.622407
vt 0.589182 0.622407
vt 0.556729 0.661731
vt 0.546380 0.608974
vt 0.589182 0.608974
vt 0.454542 0.871969
vt 0.401407 0.871969
vt 0.401407 0.869752
vt 0.454542 0.869752
vt 0.401407 0.865849
vt 0.454542 0.865849
vt 0.401407 0.862547
vt 0.454542 0.862547
vt 0.401407 0.861780
vt 0.454542 0.861780
vt 0.401407 0.863997
vt 0.454542 0.863997
vt 0.401407 0.867900
vt 0.454542 0.867900
vt 0.401407 0.871202
vt 0.454542 0.871202
vt 0.640624 0.643385
vt 0.642043 0.654866
vt 0.640079 0.652809
vt 0.639303 0.646527
vt 0.677473 0.626332
vt 0.677160 0.627020
vt 0.675196 0.624963
vt 0.675116 0.623863
vt 0.716458 0.600922
vt 0.718422 0.602979
vt 0.719199 0.609261
vt 0.717878 0.612402
vt 0.672415 0.657884
vt 0.668132 0.668882
vt 0.668829 0.669627
vt 0.672968 0.658820
vt 0.717648 0.633712
vt 0.718425 0.639995
vt 0.719235 0.640313
vt 0.718367 0.633294
vt 0.639850 0.642869
vt 0.638529 0.646010
vt 0.639306 0.652293
vt 0.641270 0.654350
vt 0.715685 0.600405
vt 0.717104 0.611886
vt 0.718425 0.608745
vt 0.717648 0.602462
vt 0.673337 0.659066
vt 0.669193 0.669869
vt 0.668905 0.669399
vt 0.673188 0.658401
vt 0.639303 0.677777
vt 0.640079 0.684059
vt 0.639360 0.684477
vt 0.638493 0.677459
vt 0.665100 0.660500
vt 0.670995 0.646404
vt 0.670591 0.646358
vt 0.664830 0.659994
vt 0.679958 0.655395
vt 0.680285 0.656508
vt 0.679312 0.613181
vt 0.680732 0.624661
vt 0.673188 0.627151
vt 0.671769 0.615670
vt 0.640104 0.673666
vt 0.655238 0.669910
vt 0.655584 0.671015
vt 0.640624 0.674635
vt 0.670995 0.615154
vt 0.672415 0.626634
vt 0.679958 0.624145
vt 0.678539 0.612664
vt 0.678539 0.643914
vt 0.715685 0.631655
vt 0.716010 0.630825
vt 0.679066 0.643254
vt 0.677160 0.595770
vt 0.669616 0.598260
vt 0.670937 0.595119
vt 0.675196 0.593713
vt 0.668843 0.597743
vt 0.676386 0.595254
vt 0.674422 0.593197
vt 0.670164 0.594602
vt 0.639850 0.674119
vt 0.654810 0.670499
vt 0.654876 0.669668
vt 0.639734 0.673420
vt 0.659039 0.681410
vt 0.641718 0.686947
vt 0.642043 0.686116
vt 0.659051 0.680604
vt 0.716458 0.632172
vt 0.716378 0.631071
vt 0.718736 0.633540
vt 0.718422 0.634229
vt 0.717104 0.643136
vt 0.717649 0.644083
vt 0.670164 0.625852
vt 0.674422 0.624447
vt 0.674748 0.623617
vt 0.670024 0.625175
vt 0.676386 0.626504
vt 0.677105 0.626086
vt 0.654810 0.639249
vt 0.658277 0.648838
vt 0.655584 0.639765
vt 0.659051 0.649354
vt 0.668905 0.638149
vt 0.665873 0.629766
vt 0.638124 0.677213
vt 0.638529 0.677260
vt 0.668843 0.628993
vt 0.668438 0.628946
vt 0.661336 0.636337
vt 0.664547 0.645211
vt 0.663773 0.644695
vt 0.660563 0.635821
vt 0.668132 0.637632
vt 0.665100 0.629250
vt 0.660445 0.666362
vt 0.660563 0.667071
vt 0.664547 0.676461
vt 0.664702 0.677131
vt 0.658277 0.680088
vt 0.658676 0.681168
vt 0.664338 0.676888
vt 0.663773 0.675945
vt 0.660809 0.666605
vt 0.661336 0.667587
vt 0.679450 0.643511
vt 0.679312 0.644431
vt 0.638992 0.684231
vt 0.639306 0.683543
vt 0.665193 0.660237
vt 0.665873 0.661016
vt 0.670392 0.625421
vt 0.670937 0.626369
vt 0.669616 0.629510
vt 0.668807 0.629192
vt 0.719603 0.640559
vt 0.719199 0.640511
vt 0.641350 0.686701
vt 0.641270 0.685600
vt 0.680647 0.656750
vt 0.680732 0.655911
vt 0.670959 0.646604
vt 0.671769 0.646920
vt 0.718018 0.644329
vt 0.717878 0.643652
vt 0.664702 0.645881
vt 0.669193 0.638619
vt 0.668829 0.638377
vt 0.664338 0.645638
vt 0.659039 0.650160
vt 0.658676 0.649918
vt 0.660809 0.635355
vt 0.655238 0.638660
vt 0.654876 0.638418
vt 0.660445 0.635112
vt 0.665193 0.628987
vt 0.664830 0.628744
vt 0.670959 0.615354
vt 0.670591 0.615108
vt 0.640104 0.642416
vt 0.639734 0.642170
vt 0.641718 0.655697
vt 0.641350 0.655451
vt 0.677473 0.595082
vt 0.675116 0.592613
vt 0.674748 0.592367
vt 0.677105 0.594836
vt 0.670392 0.594171
vt 0.668807 0.597942
vt 0.668438 0.597696
vt 0.670024 0.593925
vt 0.718018 0.613079
vt 0.719603 0.609309
vt 0.719235 0.609063
vt 0.717649 0.612833
vt 0.716010 0.599575
vt 0.718367 0.602044
vt 0.718736 0.602290
vt 0.716378 0.599821
vt 0.638992 0.652981
vt 0.639360 0.653227
vt 0.638493 0.646209
vt 0.638124 0.645963
vt 0.679450 0.612261
vt 0.679066 0.612004
vt 0.680647 0.625500
vt 0.680285 0.625258
vt 0.673337 0.627816
vt 0.672968 0.627570
vt 0.831958 0.354469
vt 0.831941 0.342869
vt 0.847177 0.342869
vt 0.847177 0.354469
vt 0.788041 0.354469
vt 0.788041 0.342869
vt 0.803277 0.342869
vt 0.803260 0.354469
vt 0.803288 0.336008
vt 0.831931 0.336008
vt 0.803252 0.360109
vt 0.831966 0.360109
vt 0.789199 0.356628
vt 0.792497 0.358458
vt 0.797431 0.359680
vt 0.846019 0.356628
vt 0.842722 0.358458
vt 0.837787 0.359680
vt 0.837765 0.336531
vt 0.842711 0.338018
vt 0.846016 0.340244
vt 0.789202 0.340244
vt 0.792507 0.338018
vt 0.797453 0.336531
vt 0.546380 0.581765
vt 0.589182 0.581765
vt 0.456323 0.866875
vt 0.399626 0.866875
vt 0.658277 0.680088
vt 0.663773 0.675945
vt 0.664338 0.676888
vt 0.658676 0.681168
vt 0.659039 0.681410
vt 0.664702 0.677131
vt 0.664547 0.676461
vt 0.659051 0.680604
vt 0.665100 0.660500
vt 0.660563 0.667071
vt 0.660445 0.666362
vt 0.664830 0.659994
vt 0.660563 0.635821
vt 0.665100 0.629250
vt 0.668132 0.637632
vt 0.663773 0.644695
vt 0.654810 0.639249
vt 0.658277 0.648838
vt 0.664547 0.645211
vt 0.668905 0.638149
vt 0.665873 0.629766
vt 0.661336 0.636337
vt 0.659051 0.649354
vt 0.655584 0.639765
vt 0.670591 0.646358
vt 0.668438 0.628946
vt 0.668843 0.628993
vt 0.670995 0.646404
vt 0.639850 0.674119
vt 0.638529 0.677260
vt 0.638124 0.677213
vt 0.639734 0.673420
vt 0.716010 0.630825
vt 0.718367 0.633294
vt 0.717648 0.633712
vt 0.715685 0.631655
vt 0.678539 0.612664
vt 0.715685 0.600405
vt 0.717104 0.611886
vt 0.679958 0.624145
vt 0.679312 0.613181
vt 0.680732 0.624661
vt 0.717878 0.612402
vt 0.716458 0.600922
vt 0.671769 0.615670
vt 0.673188 0.627151
vt 0.640624 0.643385
vt 0.642043 0.654866
vt 0.670995 0.615154
vt 0.668843 0.597743
vt 0.676386 0.595254
vt 0.641270 0.654350
vt 0.639850 0.642869
vt 0.676386 0.626504
vt 0.674422 0.624447
vt 0.674748 0.623617
vt 0.677105 0.626086
vt 0.670164 0.625852
vt 0.670024 0.625175
vt 0.717104 0.643136
vt 0.718425 0.639995
vt 0.719235 0.640313
vt 0.717649 0.644083
vt 0.716458 0.632172
vt 0.718422 0.634229
vt 0.718736 0.633540
vt 0.716378 0.631071
vt 0.642043 0.686116
vt 0.641718 0.686947
vt 0.654876 0.669668
vt 0.654810 0.670499
vt 0.677160 0.595770
vt 0.669616 0.598260
vt 0.670164 0.594602
vt 0.674422 0.593197
vt 0.675196 0.593713
vt 0.670937 0.595119
vt 0.678539 0.643914
vt 0.679066 0.643254
vt 0.672415 0.626634
vt 0.640104 0.673666
vt 0.640624 0.674635
vt 0.655584 0.671015
vt 0.655238 0.669910
vt 0.679958 0.655395
vt 0.680285 0.656508
vt 0.672968 0.658820
vt 0.672415 0.657884
vt 0.639303 0.677777
vt 0.638493 0.677459
vt 0.639360 0.684477
vt 0.640079 0.684059
vt 0.673337 0.659066
vt 0.673188 0.658401
vt 0.668905 0.669399
vt 0.669193 0.669869
vt 0.717648 0.602462
vt 0.718425 0.608745
vt 0.639306 0.652293
vt 0.638529 0.646010
vt 0.668829 0.669627
vt 0.668132 0.668882
vt 0.719199 0.609261
vt 0.718422 0.602979
vt 0.677473 0.626332
vt 0.675116 0.623863
vt 0.675196 0.624963
vt 0.677160 0.627020
vt 0.639303 0.646527
vt 0.640079 0.652809
vt 0.660809 0.666605
vt 0.661336 0.667587
vt 0.679450 0.643511
vt 0.679312 0.644431
vt 0.639306 0.683543
vt 0.638992 0.684231
vt 0.665193 0.660237
vt 0.665873 0.661016
vt 0.670392 0.625421
vt 0.670937 0.626369
vt 0.668807 0.629192
vt 0.669616 0.629510
vt 0.719199 0.640511
vt 0.719603 0.640559
vt 0.641350 0.686701
vt 0.641270 0.685600
vt 0.680647 0.656750
vt 0.680732 0.655911
vt 0.671769 0.646920
vt 0.670959 0.646604
vt 0.718018 0.644329
vt 0.717878 0.643652
vt 0.664702 0.645881
vt 0.664338 0.645638
vt 0.668829 0.638377
vt 0.669193 0.638619
vt 0.659039 0.650160
vt 0.658676 0.649918
vt 0.660809 0.635355
vt 0.660445 0.635112
vt 0.654876 0.638418
vt 0.655238 0.638660
vt 0.665193 0.628987
vt 0.664830 0.628744
vt 0.670959 0.615354
vt 0.670591 0.615108
vt 0.639734 0.642170
vt 0.640104 0.642416
vt 0.641718 0.655697
vt 0.641350 0.655451
vt 0.677473 0.595082
vt 0.677105 0.594836
vt 0.674748 0.592367
vt 0.675116 0.592613
vt 0.670392 0.594171
vt 0.670024 0.593925
vt 0.668438 0.597696
vt 0.668807 0.597942
vt 0.718018 0.613079
vt 0.717649 0.612833
vt 0.719235 0.609063
vt 0.719603 0.609309
vt 0.716010 0.599575
vt 0.716378 0.599821
vt 0.718736 0.602290
vt 0.718367 0.602044
vt 0.639360 0.653227
vt 0.638992 0.652981
vt 0.638124 0.645963
vt 0.638493 0.646209
vt 0.679450 0.612261
vt 0.679066 0.612004
vt 0.680647 0.625500
vt 0.680285 0.625258
vt 0.673337 0.627816
vt 0.672968 0.627570
vn -0.9564 -0.2919 0.0028
vn -0.9354 -0.3533 0.0169
vn -0.9475 -0.2771 -0.1596
vn -0.9622 -0.2330 -0.1409
vn -0.4047 0.8861 0.2259
vn -0.4380 0.8788 0.1893
vn -0.4416 0.8845 0.1505
vn -0.4143 0.9017 0.1239
vn -0.0134 0.9735 0.2284
vn -0.0544 0.9271 -0.3709
vn 0.0544 0.9271 -0.3709
vn 0.0134 0.9735 0.2284
vn 0.0116 0.9880 0.1537
vn 0.0234 0.8343 0.5508
vn -0.0234 0.8343 0.5508
vn -0.0116 0.9880 0.1537
vn -0.1017 -0.1240 -0.9871
vn -0.0981 -0.2159 -0.9715
vn 0.0981 -0.2159 -0.9715
vn 0.1017 -0.1240 -0.9871
vn -0.9794 0.1640 0.1180
vn -0.9775 0.2108 -0.0018
vn -0.9569 0.2844 -0.0589
vn -0.9772 0.1633 0.1361
vn 0.9775 0.2108 -0.0018
vn 0.9794 0.1640 0.1180
vn 0.9772 0.1633 0.1361
vn 0.9569 0.2844 -0.0589
vn -0.0851 0.8384 -0.5383
vn 0.0851 0.8384 -0.5383
vn 0.0933 0.0763 0.9927
vn -0.0933 0.0763 0.9927
vn -0.0998 0.0768 0.9920
vn 0.0998 0.0768 0.9920
vn 0.4143 0.9017 0.1239
vn 0.4416 0.8845 0.1505
vn 0.4380 0.8788 0.1893
vn 0.4047 0.8861 0.2259
vn 0.9622 -0.2330 -0.1409
vn 0.9475 -0.2771 -0.1596
vn 0.9354 -0.3533 0.0169
vn 0.9564 -0.2919 0.0028
vn 0.0770 -0.8543 0.5141
vn 0.0719 -0.8644 0.4976
vn -0.0719 -0.8644 0.4976
vn -0.0770 -0.8543 0.5141
vn -0.1133 -0.9485 -0.2959
vn -0.3809 -0.8791 -0.2865
vn -0.3628 -0.7781 -0.5128
vn -0.1188 -0.8299 -0.5451
vn -0.3434 -0.5220 -0.7808
vn -0.1148 -0.5538 -0.8247
vn -0.7076 -0.6645 -0.2402
vn -0.6741 -0.5836 -0.4527
vn -0.5855 -0.4521 -0.6729
vn -0.1173 -0.1947 -0.9738
vn -0.3635 -0.1759 -0.9149
vn -0.3622 -0.1520 -0.9196
vn -0.6755 -0.1896 -0.7126
vn -0.6826 -0.1805 -0.7082
vn -0.8933 -0.2187 -0.3926
vn -0.8709 -0.2704 -0.4103
vn -0.9209 -0.3452 -0.1811
vn 0.1133 -0.9485 -0.2959
vn 0.1188 -0.8299 -0.5451
vn 0.3628 -0.7781 -0.5128
vn 0.3809 -0.8791 -0.2865
vn 0.6741 -0.5836 -0.4527
vn 0.7076 -0.6645 -0.2402
vn 0.1148 -0.5538 -0.8247
vn 0.3434 -0.5220 -0.7808
vn 0.5855 -0.4521 -0.6729
vn 0.9209 -0.3452 -0.1811
vn 0.8709 -0.2704 -0.4103
vn 0.8933 -0.2187 -0.3926
vn 0.6755 -0.1896 -0.7126
vn 0.6826 -0.1805 -0.7082
vn 0.3622 -0.1520 -0.9196
vn 0.3635 -0.1759 -0.9149
vn 0.1173 -0.1947 -0.9738
vn -0.0982 -0.9887 -0.1133
vn -0.0909 -0.9940 0.0615
vn -0.2940 -0.9534 0.0680
vn -0.3586 -0.9293 -0.0879
vn -0.6003 -0.7953 0.0844
vn -0.6798 -0.7311 -0.0581
vn -0.0846 -0.9603 0.2660
vn -0.2573 -0.9308 0.2598
vn -0.4792 -0.8456 0.2352
vn -0.9125 -0.4092 0.0012
vn -0.8235 -0.5451 0.1569
vn -0.8737 -0.4597 0.1590
vn -0.5993 -0.7218 0.3461
vn -0.6232 -0.6929 0.3626
vn -0.3091 -0.8256 0.4721
vn -0.2924 -0.8505 0.4373
vn -0.0887 -0.8849 0.4572
vn 0.0982 -0.9887 -0.1133
vn 0.3586 -0.9293 -0.0879
vn 0.2940 -0.9534 0.0680
vn 0.0909 -0.9940 0.0615
vn 0.2573 -0.9308 0.2598
vn 0.0846 -0.9603 0.2660
vn 0.6798 -0.7311 -0.0581
vn 0.6003 -0.7953 0.0844
vn 0.4792 -0.8456 0.2352
vn 0.0887 -0.8849 0.4572
vn 0.2924 -0.8505 0.4373
vn 0.3091 -0.8256 0.4721
vn 0.5993 -0.7218 0.3461
vn 0.6232 -0.6929 0.3626
vn 0.8737 -0.4597 0.1590
vn 0.8235 -0.5451 0.1569
vn 0.9125 -0.4092 0.0012
vn -0.3577 -0.2488 -0.9001
vn -0.6468 -0.2763 -0.7108
vn -0.8563 -0.2853 -0.4305
vn 0.3577 -0.2488 -0.9001
vn 0.6468 -0.2763 -0.7108
vn 0.8563 -0.2853 -0.4305
vn 0.7976 -0.5697 0.1982
vn 0.5585 -0.7471 0.3605
vn 0.2799 -0.8423 0.4607
vn -0.2799 -0.8423 0.4607
vn -0.5585 -0.7471 0.3605
vn -0.7976 -0.5697 0.1982
vn 0.9090 0.1530 0.3877
vn 0.8970 0.1515 0.4153
vn 0.6954 0.1297 0.7068
vn 0.6844 0.1286 0.7177
vn 0.3739 0.1001 0.9220
vn 0.3755 0.1003 0.9214
vn -0.8970 0.1515 0.4153
vn -0.9090 0.1530 0.3877
vn -0.6844 0.1286 0.7177
vn -0.6954 0.1297 0.7068
vn -0.3755 0.1003 0.9214
vn -0.3739 0.1001 0.9220
vn -0.2146 0.9304 -0.2973
vn -0.3513 0.7985 -0.4888
vn -0.4189 0.8853 -0.2019
vn -0.6660 0.6547 -0.3575
vn -0.6107 0.7881 -0.0772
vn -0.8985 0.4101 -0.1567
vn 0.6107 0.7881 -0.0772
vn 0.8985 0.4101 -0.1567
vn 0.4189 0.8853 -0.2019
vn 0.6660 0.6547 -0.3575
vn 0.2146 0.9304 -0.2973
vn 0.3513 0.7985 -0.4888
vn 0.0577 0.9805 0.1876
vn -0.3456 0.8935 0.2868
vn 0.0312 0.9862 0.1625
vn -0.2302 0.8900 0.3935
vn 0.0053 0.9900 0.1408
vn -0.1167 0.8668 0.4849
vn -0.4380 0.8868 0.1476
vn -0.0577 0.9805 0.1876
vn -0.3133 0.9491 0.0337
vn -0.4047 0.9070 0.1163
vn -0.0312 0.9862 0.1625
vn -0.2249 0.9735 -0.0426
vn -0.0053 0.9900 0.1408
vn -0.1369 0.9838 -0.1153
vn -0.0492 0.9815 -0.1849
vn -0.0111 0.9714 0.2371
vn -0.1566 0.8731 0.4618
vn -0.0595 0.8425 0.5354
vn -0.0359 0.9776 0.2076
vn -0.2481 0.8895 0.3837
vn -0.0539 0.9817 0.1829
vn -0.3330 0.8929 0.3029
vn -0.4416 0.8778 0.1858
vn -0.4143 0.8839 0.2169
vn 0.0111 0.9714 0.2371
vn 0.0359 0.9776 0.2076
vn 0.0539 0.9817 0.1829
vn 0.3330 0.8929 0.3029
vn 0.4143 0.8839 0.2169
vn 0.4416 0.8778 0.1858
vn 0.2481 0.8895 0.3837
vn 0.1566 0.8731 0.4618
vn 0.0595 0.8425 0.5354
vn 0.1167 0.8668 0.4849
vn 0.2302 0.8900 0.3935
vn 0.3456 0.8935 0.2868
vn 0.1369 0.9838 -0.1153
vn 0.0492 0.9815 -0.1849
vn 0.2249 0.9735 -0.0426
vn 0.3133 0.9491 0.0337
vn 0.4047 0.9070 0.1163
vn 0.4380 0.8868 0.1476
vn -0.0000 0.5575 -0.8302
vn 0.4673 0.4929 -0.7339
vn 0.4673 0.1745 -0.8667
vn -0.0000 0.1974 -0.9803
vn -0.0000 -0.5536 -0.8328
vn 0.4673 -0.4894 -0.7362
vn 0.4673 -0.7339 -0.4929
vn -0.0000 -0.8302 -0.5575
vn 0.4673 -0.8667 -0.1745
vn -0.0000 -0.9803 -0.1974
vn 0.4673 -0.8675 0.1704
vn -0.0000 -0.9812 0.1928
vn 0.4673 -0.7362 0.4894
vn -0.0000 -0.8328 0.5536
vn 0.4673 -0.4929 0.7339
vn -0.0000 -0.5575 0.8302
vn 0.4673 -0.1745 0.8667
vn -0.0000 -0.1974 0.9803
vn 0.4673 0.1704 0.8675
vn 0.0000 0.1928 0.9812
vn 0.4673 0.4894 0.7362
vn 0.0000 0.5536 0.8328
vn 0.4673 0.7339 0.4929
vn 0.0000 0.8302 0.5575
vn 0.4673 0.8667 0.1745
vn 0.0000 0.9803 0.1974
vn 0.4673 0.8675 -0.1704
vn -0.0000 0.9812 -0.1928
vn 0.4673 0.7362 -0.4894
vn -0.0000 0.8328 -0.5536
vn -0.0000 -0.1928 -0.9812
vn 0.4673 -0.1704 -0.8675
vn -0.4673 0.1745 -0.8667
vn -0.4673 -0.1704 -0.8675
vn -0.7139 -0.1350 -0.6871
vn -0.9088 0.0824 -0.4090
vn 0.7139 0.1382 -0.6864
vn 0.9088 -0.0804 -0.4094
vn -0.4673 -0.4894 -0.7362
vn -0.9088 -0.2310 -0.3475
vn 0.9088 -0.2310 -0.3475
vn -0.4673 -0.7339 -0.4929
vn -0.9088 -0.3464 -0.2326
vn 0.9088 -0.3464 -0.2326
vn -0.4673 -0.8667 -0.1745
vn -0.9088 -0.4090 -0.0824
vn 0.9088 -0.4090 -0.0824
vn -0.4673 -0.8675 0.1704
vn -0.9088 -0.4094 0.0804
vn 0.9088 -0.4094 0.0804
vn -0.4673 -0.7362 0.4894
vn -0.9088 -0.3475 0.2310
vn 0.9088 -0.3475 0.2310
vn -0.4673 -0.4929 0.7339
vn -0.7139 -0.3904 0.5813
vn 0.7139 -0.3904 0.5813
vn -0.4673 -0.1745 0.8667
vn -0.9088 -0.0824 0.4090
vn 0.9088 -0.0824 0.4090
vn -0.4673 0.1704 0.8675
vn -0.9088 0.0804 0.4094
vn 0.9088 0.0804 0.4094
vn -0.4673 0.4894 0.7362
vn -0.7139 0.3877 0.5831
vn 0.9088 0.2310 0.3475
vn -0.4673 0.7339 0.4929
vn -0.9088 0.3464 0.2326
vn 0.9088 0.3464 0.2326
vn -0.4673 0.8667 0.1745
vn -0.9088 0.4090 0.0824
vn 0.9088 0.4090 0.0824
vn -0.4673 0.8675 -0.1704
vn -0.7139 0.6871 -0.1350
vn 0.9088 0.4094 -0.0804
vn -0.4673 0.7362 -0.4894
vn -0.7139 0.5831 -0.3877
vn 0.9088 0.3475 -0.2310
vn -0.4673 0.4929 -0.7339
vn -0.9088 0.2326 -0.3464
vn 0.9088 0.2326 -0.3464
vn -0.9859 0.0808 0.1465
vn -0.9859 0.0809 0.1462
vn -0.9829 0.0721 0.1693
vn -0.1126 -0.5276 0.8420
vn -0.3448 -0.4661 0.8148
vn -0.4910 -0.8340 0.2516
vn -0.2603 -0.9381 0.2286
vn 0.6097 0.6790 0.4090
vn 0.6075 0.5073 0.6113
vn 0.4002 0.5738 0.7146
vn 0.4113 0.7659 0.4942
vn 0.5458 -0.5309 0.6483
vn 0.6164 0.1307 0.7765
vn 0.3983 0.1643 0.9024
vn 0.3207 -0.5635 0.7613
vn 0.9859 -0.0808 -0.1465
vn 0.9829 -0.0721 -0.1693
vn 0.9859 -0.0809 -0.1462
vn -0.1104 0.8042 0.5840
vn -0.0540 0.6071 0.7928
vn -0.2910 0.5732 0.7660
vn -0.3361 0.7484 0.5718
vn -0.6150 -0.1323 -0.7773
vn -0.5458 0.5309 -0.6483
vn -0.3207 0.5635 -0.7614
vn -0.3975 -0.1661 -0.9024
vn 0.2939 -0.6053 -0.7397
vn 0.3051 -0.1960 -0.9319
vn 0.0802 -0.1976 -0.9770
vn 0.0652 -0.6428 -0.7633
vn 0.5355 0.8395 0.0915
vn 0.3282 0.9338 0.1427
vn -0.3723 -0.7978 -0.4743
vn -0.3471 -0.9168 -0.1973
vn -0.5508 -0.8220 -0.1448
vn -0.5997 -0.6994 -0.3888
vn 0.2915 -0.9254 -0.2422
vn 0.4007 -0.9112 0.0954
vn 0.1738 -0.9731 0.1511
vn 0.1150 -0.9676 -0.2246
vn 0.3330 -0.7724 -0.5408
vn 0.3506 -0.8935 -0.2807
vn 0.1232 -0.9551 -0.2695
vn 0.0832 -0.8340 -0.5455
vn -0.1125 0.9370 0.3307
vn -0.1875 0.9698 -0.1563
vn -0.4303 0.8973 -0.0987
vn -0.3439 0.8750 0.3408
vn -0.4710 -0.8473 0.2455
vn -0.2497 -0.9421 0.2240
vn -0.1255 -0.5308 0.8382
vn -0.3684 -0.4638 0.8057
vn 0.6006 0.6913 0.4017
vn 0.3772 0.7845 0.4922
vn 0.3205 -0.7631 -0.5612
vn 0.4233 -0.9011 0.0942
vn 0.1858 -0.9708 0.1518
vn 0.0728 -0.8190 -0.5692
vn 0.5265 -0.5300 0.6647
vn 0.3104 -0.5587 0.7691
vn 0.9856 -0.0798 -0.1492
vn 0.9849 -0.0778 -0.1544
vn -0.9856 0.0798 0.1492
vn -0.9849 0.0778 0.1544
vn 0.0467 -0.1987 -0.9789
vn 0.2960 -0.1991 -0.9342
vn 0.2978 -0.1978 -0.9339
vn 0.0478 -0.1970 -0.9792
vn 0.0987 -0.8400 -0.5335
vn 0.3268 -0.7840 -0.5277
vn -0.3200 0.7495 0.5795
vn -0.0779 0.8037 0.5899
vn 0.5583 0.8056 0.1984
vn 0.3436 0.9025 0.2596
vn 0.3829 0.7699 0.5105
vn 0.5974 0.6822 0.4215
vn -0.3886 -0.8043 -0.4496
vn -0.5914 -0.7167 -0.3696
vn -0.0681 -0.1736 0.9825
vn -0.2466 -0.1536 0.9569
vn 0.1255 0.5308 -0.8382
vn 0.3684 0.4638 -0.8057
vn -0.4059 -0.6082 -0.6821
vn -0.6059 -0.5393 -0.5848
vn -0.3733 -0.7863 -0.4923
vn -0.5937 -0.6961 -0.4037
vn -0.6165 -0.1307 -0.7764
vn -0.3984 -0.1643 -0.9024
vn -0.0478 0.1970 0.9792
vn -0.2978 0.1978 0.9339
vn 0.2668 0.9364 -0.2278
vn 0.4986 0.8300 -0.2498
vn -0.3191 -0.9358 -0.1498
vn -0.4835 -0.8685 -0.1087
vn 0.5266 -0.2103 0.8237
vn 0.3659 -0.2054 0.9077
vn -0.1261 0.9671 0.2209
vn -0.3498 0.9045 0.2440
vn -0.4279 -0.1604 -0.8895
vn -0.6224 -0.1280 -0.7722
vn -0.0767 0.8178 0.5703
vn -0.3283 0.7594 0.5617
vn -0.0000 0.9823 0.1875
vn -1.0000 -0.0000 0.0000
vn 1.0000 0.0000 -0.0000
vn 0.9460 0.3178 0.0640
vn 0.9460 0.1794 0.2699
vn -0.9460 0.1794 0.2699
vn -0.9460 0.3178 0.0640
vn 0.9460 -0.0640 0.3178
vn -0.9460 -0.0640 0.3178
vn 0.9460 -0.2699 0.1794
vn -0.9460 -0.2699 0.1794
vn 0.9460 -0.3178 -0.0640
vn -0.9460 -0.3178 -0.0640
vn 0.9460 -0.1794 -0.2699
vn -0.9460 -0.1794 -0.2699
vn 0.9460 0.0640 -0.3178
vn -0.9460 0.0640 -0.3178
vn 0.9460 0.2699 -0.1794
vn -0.9460 0.2699 -0.1794
vn -0.5583 0.8056 0.1984
vn -0.5974 0.6822 0.4215
vn -0.3829 0.7699 0.5105
vn -0.3436 0.9025 0.2596
vn 0.1125 0.9370 0.3307
vn 0.0779 0.8037 0.5899
vn 0.3200 0.7495 0.5795
vn 0.3439 0.8750 0.3408
vn -0.2939 -0.6053 -0.7397
vn -0.3268 -0.7840 -0.5277
vn -0.0987 -0.8400 -0.5335
vn -0.0652 -0.6428 -0.7633
vn -0.9829 -0.0721 -0.1693
vn -0.9856 -0.0798 -0.1492
vn -0.9849 -0.0778 -0.1544
vn 0.9829 0.0721 0.1693
vn 0.9849 0.0778 0.1544
vn 0.9856 0.0798 0.1492
vn -0.0802 -0.1976 -0.9770
vn -0.0478 -0.1970 -0.9792
vn -0.2978 -0.1978 -0.9339
vn -0.3051 -0.1960 -0.9319
vn -0.3330 -0.7724 -0.5408
vn -0.2960 -0.1991 -0.9342
vn -0.0467 -0.1987 -0.9789
vn -0.0832 -0.8340 -0.5455
vn -0.1738 -0.9731 0.1511
vn -0.3207 -0.5635 0.7613
vn -0.5458 -0.5309 0.6483
vn -0.4007 -0.9112 0.0954
vn 0.9859 0.0808 0.1465
vn 0.9859 0.0809 0.1462
vn -0.9859 -0.0809 -0.1462
vn -0.9859 -0.0808 -0.1465
vn -0.5265 -0.5300 0.6647
vn -0.4233 -0.9011 0.0942
vn -0.1858 -0.9708 0.1518
vn -0.3104 -0.5587 0.7691
vn -0.3205 -0.7631 -0.5612
vn -0.0728 -0.8190 -0.5692
vn -0.6006 0.6913 0.4017
vn -0.6164 0.1307 0.7765
vn -0.3983 0.1643 0.9024
vn -0.3772 0.7845 0.4922
vn 0.4710 -0.8473 0.2455
vn 0.3684 -0.4638 0.8057
vn 0.1255 -0.5308 0.8382
vn 0.2497 -0.9421 0.2240
vn 0.4303 0.8973 -0.0987
vn 0.1875 0.9698 -0.1563
vn -0.1232 -0.9551 -0.2695
vn -0.3506 -0.8935 -0.2807
vn -0.2915 -0.9254 -0.2422
vn -0.1150 -0.9676 -0.2246
vn 0.3723 -0.7978 -0.4743
vn 0.5997 -0.6994 -0.3888
vn 0.5508 -0.8220 -0.1448
vn 0.3471 -0.9168 -0.1973
vn -0.5355 0.8395 0.0915
vn -0.3282 0.9338 0.1427
vn -0.4113 0.7659 0.4942
vn -0.6097 0.6790 0.4090
vn 0.6150 -0.1323 -0.7773
vn 0.3975 -0.1661 -0.9024
vn 0.3207 0.5635 -0.7614
vn 0.5458 0.5309 -0.6483
vn 0.1104 0.8042 0.5840
vn 0.3361 0.7484 0.5718
vn 0.2910 0.5732 0.7660
vn 0.0540 0.6071 0.7928
vn -0.4002 0.5738 0.7146
vn -0.6075 0.5073 0.6113
vn 0.1126 -0.5276 0.8420
vn 0.2603 -0.9381 0.2286
vn 0.4910 -0.8340 0.2516
vn 0.3448 -0.4661 0.8148
vn 0.3886 -0.8043 -0.4496
vn 0.5914 -0.7167 -0.3696
vn 0.0681 -0.1736 0.9825
vn 0.2466 -0.1536 0.9569
vn -0.3684 0.4638 -0.8057
vn -0.1255 0.5308 -0.8382
vn 0.4059 -0.6082 -0.6821
vn 0.6059 -0.5393 -0.5848
vn 0.3733 -0.7863 -0.4923
vn 0.5937 -0.6961 -0.4037
vn 0.3984 -0.1643 -0.9024
vn 0.6165 -0.1307 -0.7764
vn 0.2978 0.1978 0.9339
vn 0.0478 0.1970 0.9792
vn -0.2668 0.9364 -0.2278
vn -0.4986 0.8300 -0.2498
vn 0.3191 -0.9358 -0.1498
vn 0.4835 -0.8685 -0.1087
vn -0.5266 -0.2103 0.8237
vn -0.3659 -0.2054 0.9077
vn 0.1261 0.9671 0.2209
vn 0.3498 0.9045 0.2440
vn 0.6224 -0.1280 -0.7722
vn 0.4279 -0.1604 -0.8895
vn 0.0767 0.8178 0.5703
vn 0.3283 0.7594 0.5617
usemtl farmer
s 1
f 50/1/1 68/2/2 21/3/3 3/4/4
f 121/5/5 105/6/6 110/7/7 140/8/8
f 136/9/9 111/10/10 116/11/11 131/12/12
f 130/13/13 100/14/14 104/15/15 125/16/16
f 2/17/17 20/18/18 45/19/19 27/20/20
f 286/21/21 295/22/22 110/23/23 105/24/24
f 296/25/25 282/26/26 99/27/27 117/28/28
f 291/29/29 300/30/30 116/31/11 111/32/10
f 285/33/31 290/34/32 104/35/33 100/36/34
f 135/37/35 117/38/36 99/39/37 126/40/38
f 26/41/39 44/42/40 93/43/41 75/44/42
f 74/45/43 92/46/44 69/47/45 51/48/46
f 1/49/47 6/50/48 7/51/49 4/52/50
f 4/52/50 7/51/49 8/53/51 5/54/52
f 6/50/48 16/55/53 19/56/54 7/51/49
f 7/51/49 19/56/54 9/57/55 8/53/51
f 2/17/17 12/58/56 13/59/57 10/60/58
f 10/60/58 13/59/57 14/61/59 11/62/60
f 12/58/56 5/54/52 8/53/51 13/59/57
f 13/59/57 8/53/51 9/57/55 14/61/59
f 3/4/4 17/63/61 18/64/62 15/65/63
f 15/65/63 18/64/62 19/56/54 16/55/53
f 17/63/61 11/62/60 14/61/59 18/64/62
f 18/64/62 14/61/59 9/57/55 19/56/54
f 25/66/64 30/67/65 31/68/66 28/69/67
f 28/69/67 31/68/66 32/70/68 29/71/69
f 30/67/65 40/72/70 43/73/71 31/68/66
f 31/68/66 43/73/71 33/74/72 32/70/68
f 26/41/39 36/75/73 37/76/74 34/77/75
f 34/77/75 37/76/74 38/78/76 35/79/77
f 36/75/73 29/71/69 32/70/68 37/76/74
f 37/76/74 32/70/68 33/74/72 38/78/76
f 27/20/20 41/80/78 42/81/79 39/82/80
f 39/82/80 42/81/79 43/73/71 40/72/70
f 41/80/78 35/79/77 38/78/76 42/81/79
f 42/81/79 38/78/76 33/74/72 43/73/71
f 49/83/81 54/84/82 55/85/83 52/86/84
f 52/86/84 55/85/83 56/87/85 53/88/86
f 54/84/82 64/89/87 67/90/88 55/85/83
f 55/85/83 67/90/88 57/91/89 56/87/85
f 50/1/1 60/92/90 61/93/91 58/94/92
f 58/94/92 61/93/91 62/95/93 59/96/94
f 60/92/90 53/88/86 56/87/85 61/93/91
f 61/93/91 56/87/85 57/91/89 62/95/93
f 51/48/46 65/97/95 66/98/96 63/99/97
f 63/99/97 66/98/96 67/90/88 64/89/87
f 65/97/95 59/96/94 62/95/93 66/98/96
f 66/98/96 62/95/93 57/91/89 67/90/88
f 73/100/98 78/101/99 79/102/100 76/103/101
f 76/103/101 79/102/100 80/104/102 77/105/103
f 78/101/99 88/106/104 91/107/105 79/102/100
f 79/102/100 91/107/105 81/108/106 80/104/102
f 74/45/43 84/109/107 85/110/108 82/111/109
f 82/111/109 85/110/108 86/112/110 83/113/111
f 84/109/107 77/105/103 80/104/102 85/110/108
f 85/110/108 80/104/102 81/108/106 86/112/110
f 75/44/42 89/114/112 90/115/113 87/116/114
f 87/116/114 90/115/113 91/107/105 88/106/104
f 89/114/112 83/113/111 86/112/110 90/115/113
f 90/115/113 86/112/110 81/108/106 91/107/105
f 27/20/20 39/82/80 12/58/56 2/17/17
f 39/82/80 40/72/70 5/54/52 12/58/56
f 40/72/70 30/67/65 4/52/50 5/54/52
f 30/67/65 25/66/64 1/49/47 4/52/50
f 2/17/17 10/60/58 22/117/115 20/18/18
f 10/60/58 11/62/60 23/118/116 22/117/115
f 11/62/60 17/63/61 24/119/117 23/118/116
f 17/63/61 3/4/4 21/3/3 24/119/117
f 45/19/19 48/120/118 41/80/78 27/20/20
f 48/120/118 47/121/119 35/79/77 41/80/78
f 47/121/119 46/122/120 34/77/75 35/79/77
f 46/122/120 44/42/40 26/41/39 34/77/75
f 75/44/42 87/116/114 36/75/73 26/41/39
f 87/116/114 88/106/104 29/71/69 36/75/73
f 88/106/104 78/101/99 28/69/67 29/71/69
f 78/101/99 73/100/98 25/66/64 28/69/67
f 93/43/41 96/123/121 89/114/112 75/44/42
f 96/123/121 95/124/122 83/113/111 89/114/112
f 95/124/122 94/125/123 82/111/109 83/113/111
f 94/125/123 92/46/44 74/45/43 82/111/109
f 51/48/46 63/99/97 84/109/107 74/45/43
f 63/99/97 64/89/87 77/105/103 84/109/107
f 64/89/87 54/84/82 76/103/101 77/105/103
f 54/84/82 49/83/81 73/100/98 76/103/101
f 69/47/45 72/126/124 65/97/95 51/48/46
f 72/126/124 71/127/125 59/96/94 65/97/95
f 71/127/125 70/128/126 58/94/92 59/96/94
f 70/128/126 68/2/2 50/1/1 58/94/92
f 3/4/4 15/65/63 60/92/90 50/1/1
f 15/65/63 16/55/53 53/88/86 60/92/90
f 16/55/53 6/50/48 52/86/84 53/88/86
f 6/50/48 1/49/47 49/83/81 52/86/84
f 282/26/26 281/129/127 101/130/128 99/27/27
f 281/129/127 283/131/129 102/132/130 101/130/128
f 283/131/129 284/133/131 103/134/132 102/132/130
f 284/133/131 285/33/31 100/36/34 103/134/132
f 105/24/24 108/135/133 287/136/134 286/21/21
f 108/135/133 107/137/135 288/138/136 287/136/134
f 107/137/135 106/139/137 289/140/138 288/138/136
f 106/139/137 104/35/33 290/34/32 289/140/138
f 111/32/10 114/141/139 292/142/140 291/29/29
f 114/141/139 113/143/141 293/144/142 292/142/140
f 113/143/141 112/145/143 294/146/144 293/144/142
f 112/145/143 110/23/23 295/22/22 294/146/144
f 117/28/28 120/147/145 297/148/146 296/25/25
f 120/147/145 119/149/147 298/150/148 297/148/146
f 119/149/147 118/151/149 299/152/150 298/150/148
f 118/151/149 116/31/11 300/30/30 299/152/150
f 121/5/5 122/153/151 108/154/152 105/6/6
f 122/153/151 123/155/153 107/156/154 108/154/152
f 123/155/153 124/157/155 106/158/156 107/156/154
f 124/157/155 125/16/16 104/15/15 106/158/156
f 126/159/157 127/160/158 24/161/159 21/162/160
f 127/160/158 128/163/161 23/164/162 24/161/159
f 128/163/161 129/165/163 22/166/164 23/164/162
f 129/165/163 130/167/13 20/168/165 22/166/164
f 131/169/12 132/170/166 72/171/167 69/172/168
f 132/170/166 133/173/169 71/174/170 72/171/167
f 133/173/169 134/175/171 70/176/172 71/174/170
f 134/175/171 135/177/173 68/178/174 70/176/172
f 136/9/9 137/179/175 114/180/139 111/10/10
f 137/179/175 138/181/176 113/182/141 114/180/139
f 138/181/176 139/183/177 112/184/143 113/182/141
f 139/183/177 140/8/8 110/7/7 112/184/143
f 25/66/64 73/100/98 49/83/81 1/49/47
f 96/185/178 93/186/179 140/187/180 139/188/177
f 95/189/181 96/185/178 139/188/177 138/190/176
f 94/191/182 95/189/181 138/190/176 137/192/175
f 92/193/183 94/191/182 137/192/175 136/194/9
f 120/195/145 117/38/36 135/37/35 134/196/171
f 119/197/147 120/195/145 134/196/171 133/198/169
f 118/199/149 119/197/147 133/198/169 132/200/166
f 116/11/11 118/199/149 132/200/166 131/12/12
f 103/201/184 100/14/14 130/13/13 129/202/163
f 102/203/185 103/201/184 129/202/163 128/204/161
f 101/205/186 102/203/185 128/204/161 127/206/158
f 99/39/37 101/205/186 127/206/158 126/40/38
f 48/207/187 45/208/188 125/209/16 124/210/155
f 47/211/189 48/207/187 124/210/155 123/212/153
f 46/213/190 47/211/189 123/212/153 122/214/151
f 44/215/191 46/213/190 122/214/151 121/216/192
f 68/178/174 135/177/173 126/159/157 21/162/160
f 20/168/165 130/167/13 125/209/16 45/208/188
f 92/193/183 136/194/9 131/169/12 69/172/168
f 44/215/191 121/216/192 140/187/180 93/186/179
f 154/217/193 190/218/194 158/219/195 156/220/196
f 153/221/197 162/222/198 164/223/199 152/224/200
f 152/224/200 164/223/199 166/225/201 151/226/202
f 151/226/202 166/225/201 168/227/203 150/228/204
f 150/228/204 168/227/203 170/229/205 149/230/206
f 149/230/206 170/229/205 172/231/207 148/232/208
f 148/232/208 172/231/207 175/233/209 147/234/210
f 147/234/210 175/233/209 178/235/211 146/236/212
f 146/236/212 178/235/211 180/237/213 145/238/214
f 145/238/214 180/237/213 182/239/215 144/240/216
f 144/240/216 182/239/215 184/241/217 143/242/218
f 143/242/218 184/241/217 186/243/219 142/244/220
f 142/244/220 186/243/219 188/245/221 141/246/222
f 141/246/222 188/245/221 190/218/194 154/217/193
f 155/247/223 160/248/224 162/222/198 153/221/197
f 157/249/225 156/220/196 155/247/223 159/250/226
f 156/220/196 158/219/195 160/248/224 155/247/223
f 157/249/225 159/250/226 301/251/227 302/252/228
f 160/248/224 158/219/195 303/253/229 304/254/230
f 159/250/226 161/255/231 305/256/232 301/251/227
f 162/222/198 160/248/224 304/254/230 306/257/233
f 161/255/231 163/258/234 307/259/235 305/256/232
f 164/223/199 162/222/198 306/257/233 308/260/236
f 163/258/234 165/261/237 309/262/238 307/259/235
f 166/225/201 164/223/199 308/260/236 310/263/239
f 165/261/237 167/264/240 311/265/241 309/262/238
f 168/227/203 166/225/201 310/263/239 312/266/242
f 167/264/240 169/267/243 313/268/244 311/265/241
f 170/229/205 168/227/203 312/266/242 314/269/245
f 169/267/243 171/270/246 315/271/247 313/268/244
f 172/231/207 170/229/205 314/269/245 316/272/248
f 171/270/246 173/273/249 317/274/250 315/271/247
f 175/233/209 172/231/207 316/272/248 318/275/251
f 173/273/249 177/276/252 319/277/253 317/274/250
f 178/235/211 175/233/209 318/275/251 320/278/254
f 177/276/252 179/279/255 321/280/256 319/277/253
f 180/237/213 178/235/211 320/278/254 322/281/257
f 179/279/255 181/282/258 323/283/259 321/280/256
f 182/239/215 180/237/213 322/281/257 324/284/260
f 181/282/258 183/285/261 325/286/262 323/283/259
f 184/241/217 182/239/215 324/284/260 326/287/263
f 183/285/261 185/288/264 327/289/265 325/286/262
f 186/243/219 184/241/217 326/287/263 328/290/266
f 185/288/264 187/291/267 329/292/268 327/289/265
f 188/245/221 186/243/219 328/290/266 330/293/269
f 187/291/267 189/294/270 331/295/271 329/292/268
f 190/218/194 188/245/221 330/293/269 332/296/272
f 189/294/270 157/249/225 302/252/228 331/295/271
f 158/219/195 190/218/194 332/296/272 303/253/229
f 159/250/226 155/247/223 153/221/197 161/255/231
f 187/291/267 141/246/222 154/217/193 189/294/270
f 185/288/264 142/244/220 141/246/222 187/291/267
f 183/285/261 143/242/218 142/244/220 185/288/264
f 181/282/258 144/240/216 143/242/218 183/285/261
f 179/279/255 145/238/214 144/240/216 181/282/258
f 177/276/252 146/236/212 145/238/214 179/279/255
f 173/273/249 147/234/210 146/236/212 177/276/252
f 171/270/246 148/232/208 147/234/210 173/273/249
f 169/267/243 149/230/206 148/232/208 171/270/246
f 167/264/240 150/228/204 149/230/206 169/267/243
f 165/261/237 151/226/202 150/228/204 167/264/240
f 163/258/234 152/224/200 151/226/202 165/261/237
f 161/255/231 153/221/197 152/224/200 163/258/234
f 189/294/270 154/217/193 156/220/196 157/249/225
f 333/297/216 336/298/216 335/299/216 334/300/216
f 334/300/212 335/299/212 338/301/210 337/302/210
f 337/302/210 338/301/210 340/303/208 339/304/208
f 339/304/204 340/303/204 342/305/202 341/306/202
f 341/306/202 342/305/202 344/307/200 343/308/200
f 343/308/223 344/307/223 346/309/223 345/310/223
f 345/310/193 346/309/193 348/311/222 347/312/222
f 347/312/222 348/311/222 336/298/220 333/297/220
f 202/313/273 203/314/274 204/315/275 201/316/275
f 266/317/276 224/318/277 223/319/278 267/320/279
f 209/321/275 210/322/275 211/323/275 212/324/275
f 195/325/280 235/326/281 280/327/282 239/328/283
f 213/329/284 216/330/285 260/331/286 255/332/287
f 205/333/288 206/334/289 207/335/289 208/336/290
f 214/337/289 215/338/289 216/339/289 213/340/289
f 240/341/291 279/342/292 231/343/293 200/344/294
f 201/345/295 204/346/296 252/347/297 247/348/298
f 225/349/299 194/350/300 241/351/301 269/352/302
f 196/353/303 195/325/280 239/328/283 237/354/304
f 198/355/275 199/356/275 200/357/275 197/358/275
f 245/359/305 273/360/306 228/361/307 202/362/308
f 194/363/289 195/364/289 196/365/289 193/366/289
f 193/367/309 214/368/310 254/369/311 243/370/312
f 224/371/275 221/372/275 222/373/275 223/374/275
f 220/375/289 217/376/289 218/377/289 219/378/289
f 198/355/275 197/358/275 221/372/275 224/371/275
f 205/379/313 226/380/314 274/381/315 246/382/316
f 276/383/317 250/384/318 203/385/319 232/386/320
f 209/387/321 253/388/322 256/389/323 210/390/324
f 215/391/325 257/392/326 260/331/286 216/330/285
f 219/393/327 218/394/328 268/395/329 261/396/330
f 217/397/331 265/398/332 268/395/329 218/394/328
f 226/399/333 205/333/288 208/336/290 234/400/334
f 194/363/289 193/366/289 217/376/289 220/375/289
f 228/401/335 232/402/336 203/314/274 202/313/273
f 197/358/275 200/357/275 231/403/275 229/404/275
f 198/355/275 209/321/275 212/324/275 199/356/275
f 193/366/289 196/365/289 215/338/289 214/337/289
f 254/369/311 214/368/310 213/329/284 255/332/287
f 205/379/313 246/382/316 248/405/337 206/406/338
f 241/351/301 194/350/300 220/407/339 264/408/340
f 232/402/336 228/401/335 230/409/275 233/410/275
f 233/410/275 230/409/275 229/404/275 231/403/275
f 226/399/333 234/400/334 236/411/289 227/412/289
f 227/412/289 236/411/289 235/413/289 225/414/289
f 225/349/299 269/352/302 271/415/341 227/416/342
f 276/383/317 232/386/320 233/417/343 278/418/344
f 234/419/345 275/420/346 277/421/347 236/422/348
f 194/363/289 225/414/289 235/413/289 195/364/289
f 278/418/344 233/417/343 231/343/293 279/342/292
f 236/422/348 277/421/347 280/327/282 235/326/281
f 272/423/349 230/424/350 228/361/307 273/360/306
f 227/416/342 271/415/341 274/381/315 226/380/314
f 244/425/351 198/426/352 224/318/277 266/317/276
f 248/405/337 251/427/353 207/428/354 206/406/338
f 203/385/319 250/384/318 252/347/297 204/346/296
f 270/429/355 229/430/356 230/424/350 272/423/349
f 262/431/357 267/320/279 223/319/278 222/432/358
f 262/431/357 222/432/358 221/433/359 263/434/360
f 256/389/323 259/435/361 211/436/362 210/390/324
f 249/437/363 208/438/364 207/428/354 251/427/353
f 245/359/305 202/362/308 201/345/295 247/348/298
f 244/425/365 253/388/322 209/387/321 198/426/366
f 193/367/367 243/370/368 265/398/332 217/397/331
f 238/439/369 240/341/291 200/344/294 199/440/370
f 270/429/355 242/441/371 197/442/372 229/430/356
f 234/419/345 208/438/364 249/437/363 275/420/346
f 215/391/325 196/353/303 237/354/304 257/392/326
f 258/443/373 212/444/374 211/436/362 259/435/361
f 197/442/372 242/441/371 263/434/360 221/433/359
f 219/393/327 261/396/330 264/408/340 220/407/339
f 278/445/344 279/446/292 280/447/282 277/448/347
f 276/449/317 278/445/344 277/448/347 275/450/346
f 272/451/349 273/452/306 274/453/315 271/454/341
f 270/455/355 272/451/349 271/454/341 269/456/302
f 242/457/371 270/455/355 269/456/302 241/458/301
f 273/452/306 245/459/305 246/460/316 274/453/315
f 250/461/318 276/449/317 275/450/346 249/462/363
f 266/463/276 267/464/279 268/465/329 265/466/332
f 262/467/357 263/468/360 264/469/340 261/470/330
f 258/471/373 259/472/361 260/473/286 257/474/326
f 254/475/311 255/476/287 256/477/323 253/478/322
f 249/462/363 251/479/353 252/480/297 250/461/318
f 245/459/305 247/481/298 248/482/337 246/460/316
f 244/483/351 266/463/276 265/466/332 243/484/368
f 253/478/322 244/483/365 243/484/312 254/475/311
f 238/485/369 258/471/373 257/474/326 237/486/304
f 241/458/301 264/469/340 263/468/360 242/457/371
f 251/479/353 248/482/337 247/481/298 252/480/297
f 240/487/291 238/485/369 237/486/304 239/488/283
f 259/472/361 256/477/323 255/476/287 260/473/286
f 279/446/292 240/487/291 239/488/283 280/447/282
f 267/464/279 262/467/357 261/470/330 268/465/329
f 258/443/373 238/439/369 199/440/370 212/444/374
f 97/489/375 109/490/375 295/491/375 286/492/375
f 282/493/375 296/494/375 115/495/375 98/496/375
f 98/496/375 115/495/375 109/490/375 97/489/375
f 115/495/375 300/497/375 291/498/375 109/490/375
f 285/499/375 98/496/375 97/489/375 290/500/375
f 98/496/375 281/501/375 282/493/375
f 98/496/375 283/502/375 281/501/375
f 98/496/375 284/503/375 283/502/375
f 98/496/375 285/499/375 284/503/375
f 97/489/375 286/492/375 287/504/375
f 97/489/375 287/504/375 288/505/375
f 97/489/375 288/505/375 289/506/375
f 97/489/375 289/506/375 290/500/375
f 109/490/375 291/498/375 292/507/375
f 109/490/375 292/507/375 293/508/375
f 109/490/375 293/508/375 294/509/375
f 109/490/375 294/509/375 295/491/375
f 115/495/375 296/494/375 297/510/375
f 115/495/375 297/510/375 298/511/375
f 115/495/375 298/511/375 299/512/375
f 115/495/375 299/512/375 300/497/375
f 176/513/376 302/252/228 301/251/376
f 174/514/377 304/254/230 303/253/377
f 176/513/376 301/251/376 305/256/232
f 174/514/377 306/257/233 304/254/230
f 176/513/376 305/256/232 307/259/235
f 174/514/377 308/260/236 306/257/233
f 176/513/376 307/259/235 309/262/238
f 174/514/377 310/263/239 308/260/236
f 176/513/376 309/262/238 311/265/241
f 174/514/377 312/266/242 310/263/239
f 176/513/376 311/265/241 313/268/244
f 174/514/377 314/269/245 312/266/242
f 176/513/376 313/268/244 315/271/376
f 174/514/377 316/272/377 314/269/245
f 176/513/376 315/271/376 317/274/250
f 174/514/377 318/275/251 316/272/377
f 176/513/376 317/274/250 319/277/253
f 174/514/377 320/278/254 318/275/251
f 176/513/376 319/277/253 321/280/376
f 174/514/377 322/281/257 320/278/254
f 176/513/376 321/280/376 323/283/259
f 174/514/377 324/284/260 322/281/257
f 176/513/376 323/283/259 325/286/262
f 174/514/377 326/287/263 324/284/260
f 176/513/376 325/286/262 327/289/376
f 174/514/377 328/290/266 326/287/263
f 176/513/376 327/289/376 329/292/376
f 174/514/377 330/293/269 328/290/266
f 176/513/376 329/292/376 331/295/271
f 174/514/377 332/296/272 330/293/269
f 176/513/376 331/295/271 302/252/228
f 174/514/377 303/253/377 332/296/272
f 191/515/377 333/297/378 334/300/379
f 192/516/376 335/299/380 336/298/381
f 191/515/377 334/300/379 337/302/382
f 192/516/376 338/301/383 335/299/380
f 191/515/377 337/302/382 339/304/384
f 192/516/376 340/303/385 338/301/383
f 191/515/377 339/304/384 341/306/386
f 192/516/376 342/305/387 340/303/385
f 191/515/377 341/306/386 343/308/388
f 192/516/376 344/307/389 342/305/387
f 191/515/377 343/308/388 345/310/390
f 192/516/376 346/309/391 344/307/389
f 191/515/377 345/310/390 347/312/392
f 192/516/376 348/311/393 346/309/391
f 191/515/377 347/312/392 333/297/378
f 192/516/376 336/298/381 348/311/393
f 351/517/394 349/518/395 433/519/396 431/520/397
f 432/521/398 434/522/399 352/523/400 353/524/401
f 360/525/402 358/526/403 427/527/404 425/528/405
f 358/529/406 360/530/406 350/531/406 349/532/406
f 359/533/407 358/529/406 349/532/406 351/534/408
f 352/535/409 354/536/409 356/537/409 355/538/409
f 353/539/410 352/535/409 355/538/409 357/540/411
f 397/541/412 420/542/413 365/543/414 391/544/415
f 380/545/416 379/546/417 404/547/418 402/548/419
f 410/549/420 411/550/421 372/551/422 371/552/423
f 392/553/406 371/554/406 370/555/406 389/556/406
f 387/557/409 386/558/409 373/559/409 376/560/409
f 388/561/409 356/537/409 354/536/409 385/562/409
f 357/540/411 383/563/424 382/564/425 353/539/410
f 391/565/406 365/566/406 368/567/406 392/553/406
f 359/533/407 351/534/408 377/568/426 380/569/427
f 368/570/428 367/571/429 424/572/430 421/573/431
f 366/574/432 417/575/433 424/572/430 367/571/429
f 370/576/434 369/577/435 416/578/436 413/579/437
f 376/580/438 375/581/439 412/582/440 409/583/441
f 432/521/398 353/524/401 382/584/442 406/585/443
f 380/545/416 402/548/419 430/586/444 359/587/445
f 387/557/409 361/588/409 364/589/409 388/561/409
f 365/566/406 366/590/406 367/591/406 368/567/406
f 361/588/409 362/592/409 363/593/409 364/589/409
f 392/594/446 399/595/447 410/549/420 371/552/423
f 391/565/406 392/553/406 389/556/406 390/596/406
f 401/597/448 383/598/449 357/599/450 429/600/451
f 387/557/409 388/561/409 385/562/409 386/558/409
f 389/601/452 393/602/453 395/603/454 390/604/455
f 360/525/402 425/528/405 397/541/412 391/544/415
f 384/605/456 403/606/457 408/607/458 381/608/459
f 396/609/460 385/610/461 354/611/462 435/612/463
f 371/554/406 372/613/406 369/614/406 370/555/406
f 380/569/427 377/568/426 378/615/406 379/616/406
f 372/551/422 411/550/421 416/578/436 369/577/435
f 390/604/455 395/603/454 436/617/464 350/618/465
f 376/560/409 373/559/409 374/619/409 375/620/409
f 422/621/466 423/622/467 362/623/468 361/624/469
f 383/563/424 384/625/409 381/626/409 382/564/425
f 391/565/406 390/596/406 350/531/406 360/530/406
f 434/522/399 435/612/463 354/611/462 352/523/400
f 349/518/395 350/618/465 436/617/464 433/519/396
f 428/627/470 429/600/451 357/599/450 355/628/471
f 358/526/403 359/587/445 430/586/444 427/527/404
f 400/629/472 422/621/466 361/624/469 387/630/473
f 404/547/418 379/546/417 378/631/474 407/632/475
f 382/584/442 381/608/459 408/607/458 406/585/443
f 426/633/476 428/627/470 355/628/471 356/634/477
f 418/635/478 363/636/479 362/623/468 423/622/467
f 418/635/478 419/637/480 364/638/481 363/636/479
f 412/582/440 375/581/439 374/639/482 415/640/483
f 405/641/484 407/632/475 378/631/474 377/642/485
f 401/597/448 403/606/457 384/605/456 383/598/449
f 400/629/486 387/630/487 376/580/438 409/583/441
f 392/594/488 368/570/428 421/573/431 399/595/489
f 394/643/490 386/644/491 385/610/461 396/609/460
f 426/633/476 356/634/477 388/645/492 398/646/493
f 351/517/394 431/520/397 405/641/484 377/642/485
f 370/576/434 413/579/437 393/602/453 389/601/452
f 414/647/494 415/640/483 374/639/482 373/648/495
f 388/645/492 364/638/481 419/637/480 398/646/493
f 366/574/432 365/543/414 420/542/413 417/575/433
f 434/649/399 433/650/396 436/651/464 435/652/463
f 432/653/398 431/654/397 433/650/396 434/649/399
f 428/655/470 427/656/404 430/657/444 429/658/451
f 426/659/476 425/660/405 427/656/404 428/655/470
f 398/661/493 397/662/412 425/660/405 426/659/476
f 429/658/451 430/657/444 402/663/419 401/664/448
f 406/665/443 405/666/484 431/654/397 432/653/398
f 422/667/466 421/668/431 424/669/430 423/670/467
f 418/671/478 417/672/433 420/673/413 419/674/480
f 414/675/494 413/676/437 416/677/436 415/678/483
f 410/679/420 409/680/441 412/681/440 411/682/421
f 405/666/484 406/665/443 408/683/458 407/684/475
f 401/664/448 402/663/419 404/685/418 403/686/457
f 400/687/472 399/688/489 421/668/431 422/667/466
f 409/680/441 410/679/420 399/688/447 400/687/486
f 394/689/490 393/690/453 413/676/437 414/675/494
f 397/662/412 398/661/493 419/674/480 420/673/413
f 407/684/475 408/683/458 403/686/457 404/685/418
f 396/691/460 395/692/454 393/690/453 394/689/490
f 415/678/483 416/677/436 411/682/421 412/681/440
f 435/652/463 436/651/464 395/692/454 396/691/460
f 423/670/467 424/669/430 417/672/433 418/671/478
f 414/647/494 373/648/495 386/644/491 394/643/490
