# Blender v3.4.1 OBJ File: 'Holiday_Bits_Export.blend'
# www.blender.org
mtllib candy_A_pink.mtl
o candy_A_pink
v -0.000000 -0.020646 -0.000012
v -0.000000 -0.020646 0.346061
v 0.173037 -0.020646 -0.299721
v -0.000000 -0.020646 -0.346086
v 0.299708 -0.020646 -0.173049
v 0.346073 -0.020646 -0.000012
v 0.299708 -0.020646 0.173025
v 0.173037 -0.020646 0.299696
v -0.173037 -0.020646 0.299696
v -0.299708 -0.020646 0.173024
v -0.346073 -0.020646 -0.000012
v -0.299708 -0.020646 -0.173049
v -0.173037 -0.020646 -0.299720
v -0.165093 0.141812 -0.285962
v -0.285950 0.141812 -0.165105
v -0.000000 0.141812 -0.330199
v -0.121647 0.214097 -0.210711
v -0.210698 0.214097 -0.121659
v -0.000000 0.214097 -0.243306
v -0.000000 0.250976 -0.000012
v 0.121647 0.214097 -0.210711
v 0.210698 0.214097 -0.121659
v 0.243293 0.214097 -0.000012
v 0.210698 0.214097 0.121635
v 0.121647 0.214097 0.210686
v -0.000000 0.214097 0.243281
v -0.121647 0.214097 0.210686
v -0.210698 0.214097 0.121635
v -0.243294 0.214097 -0.000012
v -0.330186 0.141812 -0.000012
v -0.285950 0.141812 0.165081
v -0.165093 0.141812 0.285938
v -0.000000 0.141812 0.330174
v 0.165093 0.141812 0.285938
v 0.285950 0.141812 0.165081
v 0.330186 0.141812 -0.000012
v 0.285950 0.141812 -0.165105
v 0.165093 0.141812 -0.285962
vt 0.187500 0.174012
vt 0.187500 0.174012
vt 0.165000 0.174012
vt 0.201075 0.174012
vt 0.210000 0.174012
vt 0.210000 0.174012
vt 0.226471 0.174012
vt 0.187500 0.174012
vt 0.173926 0.174012
vt 0.165000 0.174012
vt 0.211012 0.174012
vt 0.232500 0.174012
vt 0.214649 0.174012
vt 0.226471 0.174012
vt 0.148529 0.174012
vt 0.163989 0.174012
vt 0.142501 0.174012
vt 0.160352 0.174012
vt 0.148529 0.174012
vt 0.150318 0.114131
vt 0.166033 0.114131
vt 0.187500 0.114131
vt 0.150318 0.130251
vt 0.160103 0.185363
vt 0.171683 0.185363
vt 0.166033 0.130251
vt 0.187500 0.185363
vt 0.187500 0.130251
vt 0.187500 0.144331
vt 0.203318 0.185363
vt 0.214897 0.185363
vt 0.219136 0.185363
vt 0.214897 0.185363
vt 0.203318 0.185363
vt 0.187500 0.185363
vt 0.171683 0.185363
vt 0.160103 0.185363
vt 0.155865 0.185363
vt 0.150318 0.130251
vt 0.144566 0.130251
vt 0.144566 0.114131
vt 0.150318 0.114131
vt 0.166033 0.114131
vt 0.166033 0.130251
vt 0.187500 0.114131
vt 0.187500 0.130251
vt 0.208967 0.114131
vt 0.208967 0.130251
vt 0.224682 0.114131
vt 0.224682 0.130251
vt 0.230434 0.114131
vt 0.230434 0.130251
vt 0.224682 0.114131
vt 0.224682 0.130251
vt 0.208967 0.114131
vt 0.208967 0.130251
vn -0.0000 -1.0000 0.0000
vn -0.8619 0.0973 -0.4976
vn -0.7760 0.4440 -0.4480
vn -0.4480 0.4440 -0.7760
vn -0.4976 0.0973 -0.8619
vn -0.0000 0.4440 -0.8960
vn -0.0000 0.0973 -0.9953
vn -0.3858 0.8953 -0.2228
vn -0.2228 0.8953 -0.3858
vn -0.0000 0.8953 -0.4455
vn 0.0000 1.0000 -0.0000
vn 0.2228 0.8953 -0.3858
vn 0.3858 0.8953 -0.2228
vn 0.4455 0.8953 0.0000
vn 0.3858 0.8953 0.2228
vn 0.2228 0.8953 0.3858
vn -0.0000 0.8953 0.4455
vn -0.2228 0.8953 0.3858
vn -0.3858 0.8953 0.2228
vn -0.4455 0.8953 0.0000
vn -0.7760 0.4440 0.4480
vn -0.8960 0.4440 0.0000
vn -0.9953 0.0973 0.0000
vn -0.8619 0.0973 0.4976
vn -0.4976 0.0973 0.8619
vn -0.4480 0.4440 0.7760
vn -0.0000 0.0973 0.9953
vn -0.0000 0.4440 0.8960
vn 0.4976 0.0973 0.8619
vn 0.4480 0.4440 0.7760
vn 0.8619 0.0973 0.4976
vn 0.7760 0.4440 0.4480
vn 0.9953 0.0973 -0.0000
vn 0.8960 0.4440 0.0000
vn 0.8619 0.0973 -0.4976
vn 0.7760 0.4440 -0.4480
vn 0.4976 0.0973 -0.8619
vn 0.4480 0.4440 -0.7760
usemtl holiday
s 1
f 1/1/1 2/2/1 9/3/1
f 1/4/1 8/5/1 2/2/1
f 1/4/1 3/6/1 5/7/1
f 1/1/1 4/8/1 3/6/1
f 1/9/1 13/10/1 4/8/1
f 1/11/1 5/7/1 6/12/1
f 1/13/1 6/12/1 7/14/1
f 1/11/1 7/14/1 8/5/1
f 1/9/1 9/3/1 10/15/1
f 1/16/1 10/15/1 11/17/1
f 1/18/1 11/17/1 12/19/1
f 1/16/1 12/19/1 13/10/1
f 12/19/2 15/20/3 14/21/4 13/10/5
f 13/10/5 14/21/4 16/22/6 4/8/7
f 15/23/3 18/24/8 17/25/9 14/26/4
f 14/26/4 17/25/9 19/27/10 16/28/6
f 20/29/11 17/25/9 18/24/8
f 20/29/11 19/27/10 17/25/9
f 20/29/11 21/30/12 19/27/10
f 20/29/11 22/31/13 21/30/12
f 20/29/11 23/32/14 22/31/13
f 20/29/11 24/33/15 23/32/14
f 20/29/11 25/34/16 24/33/15
f 20/29/11 26/35/17 25/34/16
f 20/29/11 27/36/18 26/35/17
f 20/29/11 28/37/19 27/36/18
f 20/29/11 29/38/20 28/37/19
f 20/29/11 18/24/8 29/38/20
f 31/39/21 28/37/19 29/38/20 30/40/22
f 30/40/22 29/38/20 18/24/8 15/23/3
f 11/17/23 30/41/22 15/20/3 12/19/2
f 10/15/24 31/42/21 30/41/22 11/17/23
f 9/3/25 32/43/26 31/42/21 10/15/24
f 32/44/26 27/36/18 28/37/19 31/39/21
f 2/2/27 33/45/28 32/43/26 9/3/25
f 33/46/28 26/35/17 27/36/18 32/44/26
f 8/5/29 34/47/30 33/45/28 2/2/27
f 34/48/30 25/34/16 26/35/17 33/46/28
f 7/14/31 35/49/32 34/47/30 8/5/29
f 35/50/32 24/33/15 25/34/16 34/48/30
f 6/12/33 36/51/34 35/49/32 7/14/31
f 36/52/34 23/32/14 24/33/15 35/50/32
f 5/7/35 37/53/36 36/51/34 6/12/33
f 37/54/36 22/31/13 23/32/14 36/52/34
f 3/6/37 38/55/38 37/53/36 5/7/35
f 38/56/38 21/30/12 22/31/13 37/54/36
f 4/8/7 16/22/6 38/55/38 3/6/37
f 16/28/6 19/27/10 21/30/12 38/56/38
