# Blender v3.4.1 OBJ File: 'Holiday_Bits_Export.blend'
# www.blender.org
mtllib candy_B_pink.mtl
o candy_B_pink
v -0.000000 -0.041293 -0.000012
v -0.144478 0.447558 -0.250256
v -0.250244 0.447558 -0.144490
v -0.000000 0.447558 -0.288969
v -0.000000 0.583860 -0.000012
v -0.288956 0.447558 -0.000012
v -0.250244 0.447558 0.144466
v -0.144478 0.447558 0.250231
v -0.000000 0.447558 0.288944
v 0.144478 0.447558 0.250231
v 0.250243 0.447558 0.144466
v 0.288956 0.447558 -0.000012
v 0.250243 0.447558 -0.144490
v 0.144478 0.447558 -0.250256
v -0.088316 0.575743 -0.152980
v -0.115575 0.543734 -0.200194
v -0.200182 0.543734 -0.115587
v -0.152968 0.575743 -0.088328
v -0.000000 0.575743 -0.176645
v -0.000000 0.543734 -0.231163
v 0.115575 0.543734 -0.200194
v 0.088316 0.575743 -0.152980
v 0.200182 0.543734 -0.115587
v 0.152968 0.575743 -0.088328
v 0.231150 0.543734 -0.000012
v 0.176632 0.575743 -0.000012
v 0.200182 0.543734 0.115563
v 0.152968 0.575743 0.088304
v 0.115575 0.543734 0.200170
v 0.088316 0.575743 0.152956
v -0.000000 0.543734 0.231138
v -0.000000 0.575743 0.176620
v -0.115575 0.543734 0.200170
v -0.088316 0.575743 0.152956
v -0.200182 0.543734 0.115563
v -0.152968 0.575743 0.088304
v -0.176633 0.575743 -0.000012
v -0.231150 0.543734 -0.000012
v -0.000000 -0.041293 0.281030
v -0.000000 0.021126 0.338768
v -0.000000 -0.023011 0.324878
v 0.140521 -0.041293 -0.243402
v 0.169390 0.021126 -0.293405
v 0.162445 -0.023011 -0.281375
v -0.000000 0.021126 -0.338793
v -0.000000 -0.041293 -0.281054
v -0.000000 -0.023011 -0.324902
v 0.243390 -0.041293 -0.140533
v 0.293392 0.021126 -0.169402
v 0.281363 -0.023011 -0.162457
v 0.281042 -0.041293 -0.000012
v 0.338780 0.021126 -0.000012
v 0.324890 -0.023011 -0.000012
v 0.243390 -0.041293 0.140509
v 0.293392 0.021126 0.169378
v 0.281363 -0.023011 0.162433
v 0.169390 0.021126 0.293380
v 0.140521 -0.041293 0.243377
v 0.162445 -0.023011 0.281351
v -0.140521 -0.041293 0.243377
v -0.169390 0.021126 0.293380
v -0.162445 -0.023011 0.281351
v -0.243390 -0.041293 0.140509
v -0.293392 0.021126 0.169378
v -0.281363 -0.023011 0.162433
v -0.281042 -0.041293 -0.000012
v -0.338780 0.021126 -0.000012
v -0.324890 -0.023011 -0.000012
v -0.243390 -0.041293 -0.140533
v -0.293392 0.021126 -0.169402
v -0.281363 -0.023011 -0.162457
v -0.169390 0.021126 -0.293404
v -0.140521 -0.041293 -0.243402
v -0.162445 -0.023011 -0.281375
vt 0.209868 0.104202
vt 0.208967 0.161006
vt 0.187500 0.161006
vt 0.187500 0.104202
vt 0.166033 0.161006
vt 0.165132 0.104202
vt 0.187500 0.104202
vt 0.187500 0.161006
vt 0.208967 0.161006
vt 0.209868 0.104202
vt 0.224682 0.161006
vt 0.226243 0.104202
vt 0.165132 0.104202
vt 0.166033 0.161006
vt 0.230434 0.161006
vt 0.232236 0.104202
vt 0.224682 0.161006
vt 0.226243 0.104202
vt 0.150318 0.161006
vt 0.148758 0.104202
vt 0.144566 0.161006
vt 0.142764 0.104202
vt 0.150318 0.161006
vt 0.148758 0.104202
vt 0.211012 0.079873
vt 0.223566 0.110568
vt 0.228462 0.110568
vt 0.187500 0.144331
vt 0.174378 0.178371
vt 0.164772 0.178371
vt 0.187500 0.178371
vt 0.161256 0.178371
vt 0.150318 0.177126
vt 0.157756 0.219021
vt 0.170328 0.219021
vt 0.166033 0.177126
vt 0.187500 0.177126
vt 0.187500 0.219021
vt 0.204673 0.219021
vt 0.208967 0.177126
vt 0.217244 0.219021
vt 0.224682 0.177126
vt 0.221845 0.219021
vt 0.230434 0.177126
vt 0.217244 0.219021
vt 0.224682 0.177126
vt 0.204673 0.219021
vt 0.208967 0.177126
vt 0.187500 0.219021
vt 0.187500 0.177126
vt 0.170328 0.219021
vt 0.166033 0.177126
vt 0.157756 0.219021
vt 0.150318 0.177126
vt 0.153156 0.219021
vt 0.144566 0.177126
vt 0.200623 0.178371
vt 0.163989 0.079873
vt 0.151434 0.110568
vt 0.164810 0.110568
vt 0.160352 0.079873
vt 0.145855 0.110568
vt 0.150751 0.110568
vt 0.151434 0.110568
vt 0.146538 0.110568
vt 0.164772 0.178371
vt 0.187500 0.079873
vt 0.187500 0.110568
vt 0.169228 0.110568
vt 0.174378 0.178371
vt 0.187500 0.110568
vt 0.205772 0.110568
vt 0.187500 0.178371
vt 0.173926 0.079873
vt 0.166677 0.110568
vt 0.153302 0.110568
vt 0.200623 0.178371
vt 0.223566 0.110568
vt 0.210190 0.110568
vt 0.210228 0.178371
vt 0.214649 0.079873
vt 0.229145 0.110568
vt 0.224250 0.110568
vt 0.213745 0.178371
vt 0.201075 0.079873
vt 0.208323 0.110568
vt 0.221699 0.110568
vt 0.210228 0.178371
vt 0.166677 0.110568
vt 0.184949 0.110568
vt 0.164496 0.095887
vt 0.149033 0.095887
vt 0.186812 0.095887
vt 0.165688 0.095887
vt 0.148345 0.095887
vt 0.142685 0.095887
vt 0.148345 0.095887
vt 0.149033 0.095887
vt 0.164496 0.095887
vt 0.165688 0.095887
vt 0.186812 0.095887
vt 0.210504 0.095887
vt 0.225967 0.095887
vt 0.188189 0.095887
vt 0.209312 0.095887
vt 0.190051 0.110568
vt 0.208323 0.110568
vt 0.226656 0.095887
vt 0.232315 0.095887
vt 0.226656 0.095887
vt 0.225967 0.095887
vt 0.210504 0.095887
vt 0.209312 0.095887
vt 0.188189 0.095887
vn 0.4979 -0.0911 0.8624
vn 0.4749 0.3127 0.8226
vn -0.0000 0.3127 0.9499
vn -0.0000 -0.0911 0.9958
vn -0.4749 0.3127 0.8226
vn -0.4979 -0.0911 0.8624
vn -0.0000 -0.0911 -0.9958
vn -0.0000 0.3127 -0.9499
vn 0.4749 0.3127 -0.8226
vn 0.4979 -0.0911 -0.8624
vn 0.8226 0.3127 -0.4749
vn 0.8624 -0.0911 -0.4979
vn -0.4979 -0.0911 -0.8624
vn -0.4749 0.3127 -0.8226
vn 0.9499 0.3127 0.0000
vn 0.9958 -0.0911 0.0000
vn 0.8226 0.3127 0.4749
vn 0.8624 -0.0911 0.4979
vn -0.8226 0.3127 0.4749
vn -0.8624 -0.0911 0.4979
vn -0.9499 0.3127 0.0000
vn -0.9958 -0.0911 0.0000
vn -0.8226 0.3127 -0.4749
vn -0.8624 -0.0911 -0.4979
vn -0.0000 -1.0000 0.0000
vn 0.1968 -0.9738 -0.1136
vn 0.2272 -0.9738 0.0000
vn -0.0000 1.0000 -0.0000
vn -0.1602 0.9473 -0.2774
vn -0.2774 0.9473 -0.1602
vn 0.0000 0.9473 -0.3203
vn -0.3203 0.9473 0.0000
vn -0.6261 0.6909 -0.3615
vn -0.3615 0.6909 -0.6261
vn -0.0000 0.6909 -0.7230
vn 0.3615 0.6909 -0.6261
vn 0.6261 0.6909 -0.3615
vn 0.7230 0.6909 0.0000
vn 0.6261 0.6909 0.3615
vn 0.3615 0.6909 0.6261
vn -0.0000 0.6909 0.7230
vn -0.3615 0.6909 0.6261
vn -0.6261 0.6909 0.3615
vn -0.7230 0.6909 0.0000
vn 0.1602 0.9473 -0.2774
vn -0.1968 -0.9738 -0.1136
vn -0.1136 -0.9738 -0.1968
vn -0.2272 -0.9738 0.0000
vn -0.1968 -0.9738 0.1136
vn -0.2774 0.9473 0.1602
vn -0.0000 -0.9738 0.2272
vn -0.1136 -0.9738 0.1968
vn -0.1602 0.9473 0.2774
vn -0.0000 -0.9738 -0.2272
vn 0.1136 -0.9738 -0.1968
vn -0.0000 0.9473 0.3203
vn 0.1602 0.9473 0.2774
vn 0.1968 -0.9738 0.1136
vn 0.1136 -0.9738 0.1968
vn 0.2774 0.9473 0.1602
vn 0.3203 0.9473 0.0000
vn 0.2774 0.9473 -0.1602
vn -0.4769 -0.3002 -0.8261
vn -0.8261 -0.3002 -0.4769
vn -0.3333 -0.9230 -0.1924
vn -0.1924 -0.9230 -0.3333
vn -0.0000 -0.3002 -0.9539
vn -0.0000 -0.9230 -0.3848
vn -0.9539 -0.3002 0.0000
vn -0.3848 -0.9230 0.0000
vn -0.8261 -0.3002 0.4769
vn -0.3333 -0.9230 0.1924
vn -0.4769 -0.3002 0.8261
vn -0.1924 -0.9230 0.3333
vn -0.0000 -0.3002 0.9539
vn -0.0000 -0.9230 0.3848
vn 0.4769 -0.3002 0.8261
vn 0.8261 -0.3002 0.4769
vn 0.3333 -0.9230 0.1924
vn 0.1924 -0.9230 0.3333
vn 0.9539 -0.3002 0.0000
vn 0.3848 -0.9230 0.0000
vn 0.8261 -0.3002 -0.4769
vn 0.3333 -0.9230 -0.1924
vn 0.4769 -0.3002 -0.8261
vn 0.1924 -0.9230 -0.3333
usemtl holiday
s 1
f 57/1/1 10/2/2 9/3/3 40/4/4
f 40/4/4 9/3/3 8/5/5 61/6/6
f 45/7/7 4/8/8 14/9/9 43/10/10
f 43/10/10 14/9/9 13/11/11 49/12/12
f 72/13/13 2/14/14 4/8/8 45/7/7
f 49/12/12 13/11/11 12/15/15 52/16/16
f 52/16/16 12/15/15 11/17/17 55/18/18
f 55/18/18 11/17/17 10/2/2 57/1/1
f 61/6/6 8/5/5 7/19/19 64/20/20
f 64/20/20 7/19/19 6/21/21 67/22/22
f 67/22/22 6/21/21 3/23/23 70/24/24
f 70/24/24 3/23/23 2/14/14 72/13/13
f 1/25/25 48/26/26 51/27/27
f 5/28/28 15/29/29 18/30/30
f 5/28/28 19/31/31 15/29/29
f 5/28/28 18/30/30 37/32/32
f 3/33/23 17/34/33 16/35/34 2/36/14
f 4/37/8 20/38/35 21/39/36 14/40/9
f 14/40/9 21/39/36 23/41/37 13/42/11
f 13/42/11 23/41/37 25/43/38 12/44/15
f 12/44/15 25/43/38 27/45/39 11/46/17
f 11/46/17 27/45/39 29/47/40 10/48/2
f 10/48/2 29/47/40 31/49/41 9/50/3
f 9/50/3 31/49/41 33/51/42 8/52/5
f 8/52/5 33/51/42 35/53/43 7/54/19
f 7/54/19 35/53/43 38/55/44 6/56/21
f 6/56/21 38/55/44 17/34/33 3/33/23
f 5/28/28 22/57/45 19/31/31
f 1/58/25 69/59/46 73/60/47
f 1/61/25 66/62/48 69/63/46
f 1/58/25 63/64/49 66/65/48
f 5/28/28 37/32/32 36/66/50
f 1/67/25 39/68/51 60/69/52
f 5/28/28 36/66/50 34/70/53
f 1/67/25 46/71/54 42/72/55
f 5/28/28 34/70/53 32/73/56
f 1/74/25 60/75/52 63/76/49
f 5/28/28 32/73/56 30/77/57
f 1/25/25 54/78/58 58/79/59
f 5/28/28 30/77/57 28/80/60
f 1/81/25 51/82/27 54/83/58
f 5/28/28 28/80/60 26/84/61
f 1/85/25 42/86/55 48/87/26
f 5/28/28 26/84/61 24/88/62
f 1/74/25 73/89/47 46/90/54
f 5/28/28 24/88/62 22/57/45
f 16/35/34 17/34/33 18/30/30 15/29/29
f 20/38/35 16/35/34 15/29/29 19/31/31
f 38/55/44 35/53/43 36/66/50 37/32/32
f 17/34/33 38/55/44 37/32/32 18/30/30
f 35/53/43 33/51/42 34/70/53 36/66/50
f 33/51/42 31/49/41 32/73/56 34/70/53
f 31/49/41 29/47/40 30/77/57 32/73/56
f 29/47/40 27/45/39 28/80/60 30/77/57
f 27/45/39 25/43/38 26/84/61 28/80/60
f 25/43/38 23/41/37 24/88/62 26/84/61
f 23/41/37 21/39/36 22/57/45 24/88/62
f 21/39/36 20/38/35 19/31/31 22/57/45
f 2/36/14 16/35/34 20/38/35 4/37/8
f 70/24/24 72/13/13 74/91/63 71/92/64
f 71/92/65 74/91/66 73/60/47 69/59/46
f 72/13/13 45/7/7 47/93/67 74/94/63
f 74/94/66 47/93/68 46/90/54 73/89/47
f 67/22/22 70/24/24 71/95/64 68/96/69
f 68/96/70 71/95/65 69/63/46 66/62/48
f 64/20/20 67/22/22 68/96/69 65/97/71
f 65/97/72 68/96/70 66/65/48 63/64/49
f 61/6/6 64/20/20 65/98/71 62/99/73
f 62/99/74 65/98/72 63/76/49 60/75/52
f 40/4/4 61/6/6 62/100/73 41/101/75
f 41/101/76 62/100/74 60/69/52 39/68/51
f 55/18/18 57/1/1 59/102/77 56/103/78
f 56/103/79 59/102/80 58/79/59 54/78/58
f 57/1/1 40/4/4 41/104/75 59/105/77
f 59/105/80 41/104/76 39/106/51 58/107/59
f 52/16/16 55/18/18 56/108/78 53/109/81
f 53/109/82 56/108/79 54/83/58 51/82/27
f 49/12/12 52/16/16 53/109/81 50/110/83
f 50/110/84 53/109/82 51/27/27 48/26/26
f 43/10/10 49/12/12 50/111/83 44/112/85
f 44/112/86 50/111/84 48/87/26 42/86/55
f 45/7/7 43/10/10 44/113/85 47/114/67
f 47/114/68 44/113/86 42/72/55 46/71/54
f 1/85/25 58/107/59 39/106/51
