# Blender v3.4.1 OBJ File: 'Holiday_Bits_Export.blend'
# www.blender.org
mtllib cookie.mtl
o cookie
v 0.000000 0.111872 -0.190645
v -0.000000 0.049236 -0.255491
v -0.000000 0.093527 -0.236498
v 0.095322 0.111872 -0.165103
v 0.127745 0.049236 -0.221261
v 0.118249 0.093527 -0.204813
v 0.165103 0.111872 -0.095322
v 0.221261 0.049236 -0.127745
v 0.204813 0.093527 -0.118249
v 0.190644 0.111872 0.000000
v 0.255490 0.049236 0.000000
v 0.236498 0.093527 0.000000
v 0.165103 0.111872 0.095322
v 0.221261 0.049236 0.127745
v 0.204813 0.093527 0.118249
v 0.095322 0.111872 0.165103
v 0.127745 0.049236 0.221261
v 0.118249 0.093527 0.204813
v -0.000000 0.111872 0.190645
v -0.000000 0.049236 0.255491
v -0.000000 0.093527 0.236498
v -0.095322 0.111872 0.165103
v -0.127745 0.049236 0.221261
v -0.118249 0.093527 0.204813
v -0.165103 0.111872 0.095322
v -0.221261 0.049236 0.127745
v -0.204813 0.093527 0.118249
v -0.190645 0.111872 0.000000
v -0.255491 0.049236 0.000000
v -0.236498 0.093527 0.000000
v -0.165103 0.111872 -0.095322
v -0.221261 0.049236 -0.127745
v -0.204813 0.093527 -0.118249
v -0.095322 0.111872 -0.165103
v -0.127745 0.049236 -0.221261
v -0.118249 0.093527 -0.204813
v -0.000000 0.000143 -0.238119
v -0.000000 0.016922 -0.255491
v 0.127745 0.016922 -0.221261
v 0.119059 0.000143 -0.206217
v 0.221261 0.016922 -0.127745
v 0.206217 0.000143 -0.119059
v 0.255490 0.016922 0.000000
v 0.238119 0.000143 0.000000
v 0.221261 0.016922 0.127745
v 0.206217 0.000143 0.119060
v 0.127745 0.016922 0.221261
v 0.119059 0.000143 0.206217
v -0.000000 0.016922 0.255491
v -0.000000 0.000143 0.238119
v -0.127745 0.016922 0.221261
v -0.119060 0.000143 0.206217
v -0.221261 0.016922 0.127745
v -0.206217 0.000143 0.119059
v -0.255491 0.016922 0.000000
v -0.238119 0.000143 0.000000
v -0.221261 0.016922 -0.127745
v -0.206217 0.000143 -0.119059
v -0.127745 0.016922 -0.221261
v -0.119060 0.000143 -0.206217
v 0.066850 0.122097 -0.115788
v 0.000000 0.122097 -0.133701
v -0.066851 0.122097 -0.115788
v -0.115788 0.122097 -0.066850
v -0.133701 0.122097 0.000000
v -0.115788 0.122097 0.066850
v -0.066850 0.122097 0.115788
v -0.000000 0.122097 0.133701
v 0.066850 0.122097 0.115788
v 0.115788 0.122097 0.066850
v 0.133701 0.122097 0.000000
v 0.115788 0.122097 -0.066850
v -0.000000 0.126252 0.000000
v -0.000000 0.000143 0.000000
v 0.140662 0.063925 -0.017394
v 0.119089 0.133244 0.003258
v 0.101737 0.063925 -0.058054
v 0.080164 0.133244 -0.037402
v 0.178003 0.086197 -0.053142
v 0.156430 0.155516 -0.032490
v 0.139079 0.086197 -0.093802
v 0.117506 0.155516 -0.073150
v 0.130388 0.091376 0.017663
v 0.066265 0.091376 -0.049318
v 0.127780 0.128065 -0.108207
v 0.191902 0.128065 -0.041226
v -0.161419 0.073813 -0.042402
v -0.149224 0.148117 -0.037184
v -0.137018 0.073370 -0.093124
v -0.124823 0.147674 -0.087906
v -0.111517 0.063931 -0.018309
v -0.099322 0.138235 -0.013091
v -0.087116 0.063489 -0.069031
v -0.074921 0.137792 -0.063813
v -0.179372 0.114307 -0.031174
v -0.139174 0.113578 -0.114731
v -0.056968 0.097299 -0.075041
v -0.097166 0.098028 0.008516
v -0.018959 0.055724 0.103058
v -0.019337 0.125043 0.073195
v 0.037325 0.055724 0.102344
v 0.036946 0.125043 0.072482
v -0.018304 0.077996 0.154748
v -0.018682 0.147315 0.124886
v 0.037980 0.077996 0.154035
v 0.037601 0.147315 0.124172
v -0.037578 0.083175 0.071627
v 0.055141 0.083175 0.070451
v 0.056220 0.119864 0.155603
v -0.036498 0.119864 0.156779
v 0.074574 0.088289 0.094949
v 0.091352 0.146921 0.094159
v 0.085960 0.084440 0.051083
v 0.102737 0.143072 0.050292
v 0.116795 0.076370 0.106954
v 0.133572 0.135002 0.106163
v 0.128180 0.072520 0.063087
v 0.144958 0.131152 0.062296
v 0.065612 0.122709 0.104867
v 0.084368 0.116368 0.032603
v 0.153920 0.096733 0.052378
v 0.135164 0.103074 0.124642
v -0.024361 0.072762 -0.161788
v -0.018871 0.130881 -0.179448
v 0.020804 0.067841 -0.163941
v 0.026294 0.125960 -0.181601
v -0.020885 0.085646 -0.118306
v -0.015394 0.143765 -0.135966
v 0.024280 0.080725 -0.120459
v 0.029771 0.138844 -0.138119
v -0.037360 0.099244 -0.183995
v 0.037043 0.091137 -0.187541
v 0.042769 0.112362 -0.115912
v -0.031633 0.120468 -0.112365
v -0.097828 0.074637 0.048191
v -0.105743 0.134952 0.052580
v -0.074637 0.074834 0.087318
v -0.082552 0.135149 0.091706
v -0.136507 0.067890 0.071151
v -0.144422 0.128205 0.075539
v -0.113316 0.068087 0.110277
v -0.121231 0.128402 0.114666
v -0.096772 0.106914 0.030290
v -0.058569 0.107239 0.094745
v -0.122287 0.096125 0.132567
v -0.160490 0.095800 0.068112
v -0.028081 0.072762 0.002710
v -0.038302 0.130881 -0.012702
v -0.001217 0.067841 -0.033661
v -0.011438 0.125960 -0.049074
v 0.007822 0.085646 0.027484
v -0.002399 0.143765 0.012072
v 0.034685 0.080725 -0.008887
v 0.024464 0.138844 -0.024300
v -0.053507 0.099244 -0.001242
v -0.009253 0.091137 -0.061159
v 0.049891 0.112362 -0.020347
v 0.005637 0.120468 0.039569
v 0.160572 0.033324 0.115619
v 0.158814 0.088991 0.131468
v 0.200009 0.029669 0.132829
v 0.198251 0.085337 0.148678
v 0.143027 0.022007 0.153420
v 0.141269 0.077675 0.169270
v 0.182464 0.018353 0.170630
v 0.180707 0.074020 0.186479
v 0.152607 0.066003 0.105738
v 0.217573 0.059983 0.134088
v 0.188671 0.041341 0.196360
v 0.123705 0.047361 0.168010
v -0.063250 0.027049 -0.247452
v -0.057975 0.084702 -0.248654
v -0.022460 0.023034 -0.261049
v -0.017185 0.080687 -0.262250
v -0.049629 0.026657 -0.206475
v -0.044355 0.084310 -0.207676
v -0.008839 0.022642 -0.220072
v -0.003565 0.080295 -0.221273
v -0.078224 0.057302 -0.256915
v -0.011028 0.050688 -0.279314
v 0.011409 0.050042 -0.211810
v -0.055786 0.056656 -0.189411
v -0.225730 0.030743 0.122522
v -0.223226 0.080397 0.118593
v -0.208971 0.027285 0.089500
v -0.206468 0.076939 0.085571
v -0.192580 0.030405 0.139380
v -0.190076 0.080059 0.135452
v -0.175822 0.026947 0.106359
v -0.173318 0.076601 0.102430
v -0.240632 0.056798 0.125789
v -0.213025 0.051102 0.071391
v -0.158416 0.050546 0.099163
v -0.186023 0.056242 0.153561
vt 0.678974 0.871337
vt 0.678974 0.953733
vt 0.699637 0.953733
vt 0.699637 0.871337
vt 0.720301 0.871337
vt 0.720301 0.953733
vt 0.714764 0.953733
vt 0.714764 0.871337
vt 0.699637 0.953733
vt 0.699637 0.871337
vt 0.678974 0.953733
vt 0.678974 0.871337
vt 0.658311 0.953733
vt 0.658311 0.871337
vt 0.643185 0.953733
vt 0.643185 0.871337
vt 0.637648 0.953733
vt 0.637648 0.871337
vt 0.643185 0.953733
vt 0.643185 0.871337
vt 0.658311 0.953733
vt 0.658311 0.871337
vt 0.714764 0.953733
vt 0.714764 0.871337
vt 0.678974 0.960897
vt 0.698101 0.960897
vt 0.678974 0.963865
vt 0.694393 0.963865
vt 0.712103 0.960897
vt 0.705680 0.963865
vt 0.717228 0.960897
vt 0.709812 0.963865
vt 0.712103 0.960897
vt 0.705680 0.963865
vt 0.698101 0.960897
vt 0.694393 0.963865
vt 0.678974 0.960897
vt 0.678974 0.963865
vt 0.659848 0.960897
vt 0.663556 0.963865
vt 0.645845 0.960897
vt 0.652269 0.963865
vt 0.640720 0.960897
vt 0.648137 0.963865
vt 0.645845 0.960897
vt 0.652269 0.963865
vt 0.659848 0.960897
vt 0.663556 0.963865
vt 0.698232 0.868623
vt 0.678974 0.868623
vt 0.712330 0.868623
vt 0.717491 0.868623
vt 0.712330 0.868623
vt 0.698232 0.868623
vt 0.678974 0.868623
vt 0.659716 0.868623
vt 0.645618 0.868623
vt 0.640458 0.868623
vt 0.645618 0.868623
vt 0.659716 0.868623
vt 0.678974 0.965519
vt 0.689788 0.965519
vt 0.668161 0.965519
vt 0.660246 0.965519
vt 0.657348 0.965519
vt 0.660246 0.965519
vt 0.668161 0.965519
vt 0.678974 0.965519
vt 0.689788 0.965519
vt 0.697703 0.965519
vt 0.700601 0.965519
vt 0.697703 0.965519
vt 0.678974 0.966191
vt 0.678974 0.868623
vt 0.800663 0.789499
vt 0.800663 0.797621
vt 0.800663 0.797621
vt 0.800663 0.789499
vt 0.816910 0.797621
vt 0.816910 0.789499
vt 0.816910 0.797621
vt 0.816910 0.789499
vt 0.800663 0.781376
vt 0.816910 0.781376
vt 0.816910 0.781376
vt 0.800663 0.781376
vt 0.800663 0.789499
vt 0.800663 0.797621
vt 0.800663 0.797621
vt 0.800663 0.789499
vt 0.816910 0.797621
vt 0.816910 0.789499
vt 0.816910 0.797621
vt 0.816910 0.789499
vt 0.800663 0.781376
vt 0.816910 0.781376
vt 0.816910 0.781376
vt 0.800663 0.781376
vt 0.800663 0.789499
vt 0.800663 0.797621
vt 0.800663 0.797621
vt 0.800663 0.789499
vt 0.816910 0.797621
vt 0.816910 0.789499
vt 0.816910 0.797621
vt 0.816910 0.789499
vt 0.800663 0.781376
vt 0.816910 0.781376
vt 0.816910 0.781376
vt 0.800663 0.781376
vt 0.800663 0.789499
vt 0.800663 0.797621
vt 0.800663 0.797621
vt 0.800663 0.789499
vt 0.816910 0.797621
vt 0.816910 0.789499
vt 0.816910 0.797621
vt 0.816910 0.789499
vt 0.800663 0.781376
vt 0.816910 0.781376
vt 0.816910 0.781376
vt 0.800663 0.781376
vt 0.800663 0.789499
vt 0.800663 0.797621
vt 0.800663 0.797621
vt 0.800663 0.789499
vt 0.816910 0.797621
vt 0.816910 0.789499
vt 0.816910 0.797621
vt 0.816910 0.789499
vt 0.800663 0.781376
vt 0.816910 0.781376
vt 0.816910 0.781376
vt 0.800663 0.781376
vt 0.800663 0.789499
vt 0.800663 0.797621
vt 0.800663 0.797621
vt 0.800663 0.789499
vt 0.816910 0.797621
vt 0.816910 0.789499
vt 0.816910 0.797621
vt 0.816910 0.789499
vt 0.800663 0.781376
vt 0.816910 0.781376
vt 0.816910 0.781376
vt 0.800663 0.781376
vt 0.800663 0.789499
vt 0.800663 0.797621
vt 0.800663 0.797621
vt 0.800663 0.789499
vt 0.816910 0.797621
vt 0.816910 0.789499
vt 0.816910 0.797621
vt 0.816910 0.789499
vt 0.800663 0.781376
vt 0.816910 0.781376
vt 0.816910 0.781376
vt 0.800663 0.781376
vt 0.800663 0.789499
vt 0.800663 0.797621
vt 0.800663 0.797621
vt 0.800663 0.789499
vt 0.816910 0.797621
vt 0.816910 0.789499
vt 0.816910 0.797621
vt 0.816910 0.789499
vt 0.800663 0.781376
vt 0.816910 0.781376
vt 0.816910 0.781376
vt 0.800663 0.781376
vt 0.800663 0.789499
vt 0.800663 0.797621
vt 0.800663 0.797621
vt 0.800663 0.789499
vt 0.816910 0.797621
vt 0.816910 0.789499
vt 0.816910 0.797621
vt 0.816910 0.789499
vt 0.800663 0.781376
vt 0.816910 0.781376
vt 0.816910 0.781376
vt 0.800663 0.781376
vt 0.800663 0.789499
vt 0.800663 0.797621
vt 0.800663 0.797621
vt 0.800663 0.789499
vt 0.816910 0.797621
vt 0.816910 0.789499
vt 0.816910 0.797621
vt 0.816910 0.789499
vt 0.800663 0.781376
vt 0.816910 0.781376
vt 0.816910 0.781376
vt 0.800663 0.781376
vn 0.0000 -0.3692 -0.9293
vn 0.0000 0.1949 -0.9808
vn 0.4904 0.1949 -0.8494
vn 0.4647 -0.3692 -0.8048
vn 0.9293 -0.3692 0.0000
vn 0.9808 0.1949 0.0000
vn 0.8494 0.1949 0.4904
vn 0.8048 -0.3692 0.4647
vn 0.4904 0.1949 0.8494
vn 0.4647 -0.3692 0.8048
vn -0.0000 0.1949 0.9808
vn -0.0000 -0.3692 0.9293
vn -0.4904 0.1949 0.8494
vn -0.4647 -0.3692 0.8048
vn -0.8494 0.1949 0.4904
vn -0.8048 -0.3692 0.4647
vn -0.9808 0.1949 -0.0000
vn -0.9293 -0.3692 -0.0000
vn -0.8494 0.1949 -0.4904
vn -0.8048 -0.3692 -0.4647
vn -0.4904 0.1949 -0.8494
vn -0.4647 -0.3692 -0.8048
vn 0.8494 0.1949 -0.4904
vn 0.8048 -0.3692 -0.4647
vn 0.0000 0.6854 -0.7282
vn 0.3641 0.6854 -0.6306
vn 0.0000 0.9567 -0.2910
vn 0.1455 0.9567 -0.2520
vn 0.7959 0.3941 -0.4595
vn 0.3217 0.9284 -0.1857
vn 0.2520 0.9567 -0.1455
vn 0.7282 0.6854 0.0000
vn 0.2910 0.9567 0.0000
vn 0.6306 0.6854 0.3641
vn 0.2520 0.9567 0.1455
vn 0.3641 0.6854 0.6306
vn 0.1455 0.9567 0.2520
vn -0.0000 0.3941 0.9191
vn -0.0000 0.9284 0.3715
vn -0.0000 0.9567 0.2910
vn -0.3641 0.6854 0.6306
vn -0.1455 0.9567 0.2520
vn -0.6306 0.6854 0.3641
vn -0.2520 0.9567 0.1455
vn -0.7282 0.6854 -0.0000
vn -0.2910 0.9567 -0.0000
vn -0.7959 0.3941 -0.4595
vn -0.3217 0.9284 -0.1857
vn -0.2520 0.9567 -0.1455
vn -0.4595 0.3941 -0.7959
vn -0.1857 0.9284 -0.3217
vn -0.1455 0.9567 -0.2520
vn 0.3474 -0.7193 -0.6017
vn 0.0000 -0.7193 -0.6947
vn 0.3687 -0.9049 -0.2129
vn 0.4257 -0.9049 0.0000
vn 0.3687 -0.9049 0.2129
vn 0.2129 -0.9049 0.3687
vn -0.0000 -0.9049 0.4257
vn -0.2129 -0.9049 0.3687
vn -0.3687 -0.9049 0.2129
vn -0.4257 -0.9049 -0.0000
vn -0.6017 -0.7193 -0.3474
vn -0.3474 -0.7193 -0.6017
vn 0.0000 0.9932 -0.1162
vn 0.0581 0.9932 -0.1006
vn -0.0581 0.9932 -0.1006
vn -0.1006 0.9932 -0.0581
vn -0.1162 0.9932 -0.0000
vn -0.1006 0.9932 0.0581
vn -0.0581 0.9932 0.1006
vn -0.0000 0.9932 0.1162
vn 0.0581 0.9932 0.1006
vn 0.1006 0.9932 0.0581
vn 0.1162 0.9932 0.0000
vn 0.1006 0.9932 -0.0581
vn -0.0000 1.0000 0.0000
vn 0.0000 -1.0000 -0.0000
vn -0.7217 0.0429 0.6909
vn -0.7470 0.3993 -0.5316
vn 0.4732 0.7556 -0.4530
vn 0.4985 0.3993 0.7695
vn 0.2858 -0.9184 -0.2736
vn -0.2858 0.9184 0.2736
vn 0.7470 -0.3993 0.5316
vn 0.7217 -0.0429 -0.6909
vn -0.4985 -0.3993 -0.7695
vn -0.4732 -0.7556 0.4530
vn -0.7281 0.5861 -0.3554
vn 0.4606 0.4209 -0.7814
vn 0.8686 0.2699 0.4155
vn -0.3202 0.4351 0.8416
vn -0.1616 -0.9844 -0.0691
vn 0.1616 0.9844 0.0691
vn -0.4606 -0.4209 0.7814
vn 0.7281 -0.5861 0.3554
vn 0.3202 -0.4351 -0.8416
vn -0.8686 -0.2699 -0.4155
vn -0.0127 0.0429 -0.9990
vn 0.8983 0.3993 -0.1834
vn 0.0083 0.7556 0.6550
vn -0.9027 0.3993 -0.1606
vn 0.0050 -0.9184 0.3956
vn -0.0050 0.9184 -0.3956
vn -0.8983 -0.3993 0.1834
vn 0.0127 -0.0429 0.9990
vn 0.9027 -0.3993 0.1606
vn -0.0083 -0.7556 -0.6550
vn -0.7164 0.6539 -0.2433
vn 0.3450 0.3417 -0.8742
vn 0.9555 0.1819 0.2320
vn -0.1058 0.4942 0.8629
vn -0.2751 -0.9613 0.0130
vn 0.2751 0.9613 -0.0130
vn -0.3450 -0.3417 0.8742
vn 0.7164 -0.6539 0.2433
vn 0.1058 -0.4942 -0.8629
vn -0.9555 -0.1819 -0.2320
vn -0.0297 0.1592 -0.9868
vn 0.9334 0.3168 -0.1685
vn 0.1080 0.6694 0.7350
vn -0.8551 0.5117 -0.0833
vn -0.0900 -0.9529 0.2896
vn 0.0900 0.9529 -0.2896
vn -0.9334 -0.3168 0.1685
vn 0.0297 -0.1592 0.9868
vn 0.8551 -0.5117 0.0833
vn -0.1080 -0.6694 -0.7350
vn 0.7094 0.5635 -0.4233
vn 0.4027 0.4338 0.8060
vn -0.8223 0.2964 0.4859
vn -0.5156 0.4260 -0.7434
vn 0.1298 -0.9889 -0.0719
vn -0.1298 0.9889 0.0719
vn -0.4027 -0.4338 -0.8060
vn -0.7094 -0.5635 0.4233
vn 0.5156 -0.4260 0.7434
vn 0.8223 -0.2964 -0.4859
vn -0.7837 0.1592 -0.6004
vn 0.4590 0.3168 -0.8300
vn 0.6380 0.6694 0.3807
vn -0.6047 0.5117 0.6103
vn 0.1676 -0.9529 0.2527
vn -0.1676 0.9529 -0.2527
vn -0.4590 -0.3168 0.8300
vn 0.7837 -0.1592 0.6004
vn 0.6047 -0.5117 -0.6103
vn -0.6380 -0.6694 -0.3807
vn 0.3527 0.6539 -0.6693
vn 0.8092 0.3417 0.4779
vn -0.3791 0.1819 0.9073
vn -0.8356 0.4942 -0.2399
vn 0.0304 -0.9613 -0.2737
vn -0.0304 0.9613 0.2737
vn -0.8092 -0.3417 -0.4779
vn -0.3527 -0.6539 0.6693
vn 0.8356 -0.4942 0.2399
vn 0.3791 -0.1819 -0.9073
vn -0.2444 0.4410 -0.8636
vn 0.8902 0.3491 -0.2926
vn 0.3236 0.4247 0.8455
vn -0.8110 0.5166 0.2745
vn -0.0911 -0.9956 0.0207
vn 0.0911 0.9956 -0.0207
vn -0.8902 -0.3491 0.2926
vn 0.2444 -0.4410 0.8636
vn 0.8110 -0.5166 -0.2745
vn -0.3236 -0.4247 -0.8455
vn -0.7808 0.4410 -0.4425
vn 0.4276 0.3491 -0.8338
vn 0.8245 0.4247 0.3740
vn -0.3840 0.5166 0.7653
vn -0.0502 -0.9956 0.0788
vn 0.0502 0.9956 -0.0788
vn -0.4276 -0.3491 0.8338
vn 0.7808 -0.4410 0.4425
vn 0.3840 -0.5166 -0.7653
vn -0.8245 -0.4247 -0.3740
usemtl holiday
s 1
f 38/1/1 2/2/2 5/3/3 39/4/4
f 43/5/5 11/6/6 14/7/7 45/8/8
f 45/8/8 14/7/7 17/9/9 47/10/10
f 47/10/10 17/9/9 20/11/11 49/12/12
f 49/12/12 20/11/11 23/13/13 51/14/14
f 51/14/14 23/13/13 26/15/15 53/16/16
f 53/16/16 26/15/15 29/17/17 55/18/18
f 55/18/18 29/17/17 32/19/19 57/20/20
f 57/20/20 32/19/19 35/21/21 59/22/22
f 39/4/4 5/3/3 8/23/23 41/24/24
f 41/24/24 8/23/23 11/6/6 43/5/5
f 59/22/22 35/21/21 2/2/2 38/1/1
f 5/3/3 2/2/2 3/25/25 6/26/26
f 6/26/26 3/25/25 1/27/27 4/28/28
f 8/23/23 5/3/3 6/26/26 9/29/29
f 9/29/30 6/26/26 4/28/28 7/30/31
f 11/6/6 8/23/23 9/29/29 12/31/32
f 12/31/32 9/29/30 7/30/31 10/32/33
f 14/7/7 11/6/6 12/31/32 15/33/34
f 15/33/34 12/31/32 10/32/33 13/34/35
f 17/9/9 14/7/7 15/33/34 18/35/36
f 18/35/36 15/33/34 13/34/35 16/36/37
f 20/11/11 17/9/9 18/35/36 21/37/38
f 21/37/39 18/35/36 16/36/37 19/38/40
f 23/13/13 20/11/11 21/37/38 24/39/41
f 24/39/41 21/37/39 19/38/40 22/40/42
f 26/15/15 23/13/13 24/39/41 27/41/43
f 27/41/43 24/39/41 22/40/42 25/42/44
f 29/17/17 26/15/15 27/41/43 30/43/45
f 30/43/45 27/41/43 25/42/44 28/44/46
f 32/19/19 29/17/17 30/43/45 33/45/47
f 33/45/48 30/43/45 28/44/46 31/46/49
f 35/21/21 32/19/19 33/45/47 36/47/50
f 36/47/51 33/45/48 31/46/49 34/48/52
f 2/2/2 35/21/21 36/47/50 3/25/25
f 3/25/25 36/47/51 34/48/52 1/27/27
f 38/1/1 39/4/4 40/49/53 37/50/54
f 39/4/4 41/24/24 42/51/55 40/49/53
f 41/24/24 43/5/5 44/52/56 42/51/55
f 43/5/5 45/8/8 46/53/57 44/52/56
f 45/8/8 47/10/10 48/54/58 46/53/57
f 47/10/10 49/12/12 50/55/59 48/54/58
f 49/12/12 51/14/14 52/56/60 50/55/59
f 51/14/14 53/16/16 54/57/61 52/56/60
f 53/16/16 55/18/18 56/58/62 54/57/61
f 55/18/18 57/20/20 58/59/63 56/58/62
f 57/20/20 59/22/22 60/60/64 58/59/63
f 59/22/22 38/1/1 37/50/54 60/60/64
f 4/28/28 1/27/27 62/61/65 61/62/66
f 1/27/27 34/48/52 63/63/67 62/61/65
f 34/48/52 31/46/49 64/64/68 63/63/67
f 31/46/49 28/44/46 65/65/69 64/64/68
f 28/44/46 25/42/44 66/66/70 65/65/69
f 25/42/44 22/40/42 67/67/71 66/66/70
f 22/40/42 19/38/40 68/68/72 67/67/71
f 19/38/40 16/36/37 69/69/73 68/68/72
f 16/36/37 13/34/35 70/70/74 69/69/73
f 13/34/35 10/32/33 71/71/75 70/70/74
f 10/32/33 7/30/31 72/72/76 71/71/75
f 7/30/31 4/28/28 61/62/66 72/72/76
f 61/62/66 62/61/65 73/73/77
f 62/61/65 63/63/67 73/73/77
f 63/63/67 64/64/68 73/73/77
f 64/64/68 65/65/69 73/73/77
f 65/65/69 66/66/70 73/73/77
f 66/66/70 67/67/71 73/73/77
f 67/67/71 68/68/72 73/73/77
f 68/68/72 69/69/73 73/73/77
f 69/69/73 70/70/74 73/73/77
f 70/70/74 71/71/75 73/73/77
f 71/71/75 72/72/76 73/73/77
f 72/72/76 61/62/66 73/73/77
f 37/50/78 40/49/78 74/74/78
f 40/49/78 42/51/55 74/74/78
f 42/51/55 44/52/56 74/74/78
f 44/52/56 46/53/57 74/74/78
f 46/53/57 48/54/58 74/74/78
f 48/54/58 50/55/59 74/74/78
f 50/55/59 52/56/60 74/74/78
f 52/56/60 54/57/61 74/74/78
f 54/57/61 56/58/62 74/74/78
f 56/58/62 58/59/78 74/74/78
f 58/59/78 60/60/78 74/74/78
f 60/60/78 37/50/78 74/74/78
f 83/75/79 76/76/79 78/77/79 84/78/79
f 84/78/80 78/77/80 82/79/80 85/80/80
f 85/80/81 82/79/81 80/81/81 86/82/81
f 86/82/82 80/81/82 76/76/82 83/75/82
f 77/83/83 81/84/83 79/85/83 75/86/83
f 82/79/84 78/77/84 76/76/84 80/81/84
f 79/85/85 86/82/85 83/75/85 75/86/85
f 81/84/86 85/80/86 86/82/86 79/85/86
f 77/83/87 84/78/87 85/80/87 81/84/87
f 75/86/88 83/75/88 84/78/88 77/83/88
f 95/87/89 88/88/89 90/89/89 96/90/89
f 96/90/90 90/89/90 94/91/90 97/92/90
f 97/92/91 94/91/91 92/93/91 98/94/91
f 98/94/92 92/93/92 88/88/92 95/87/92
f 89/95/93 93/96/93 91/97/93 87/98/93
f 94/91/94 90/89/94 88/88/94 92/93/94
f 91/97/95 98/94/95 95/87/95 87/98/95
f 93/96/96 97/92/96 98/94/96 91/97/96
f 89/95/97 96/90/97 97/92/97 93/96/97
f 87/98/98 95/87/98 96/90/98 89/95/98
f 107/99/99 100/100/99 102/101/99 108/102/99
f 108/102/100 102/101/100 106/103/100 109/104/100
f 109/104/101 106/103/101 104/105/101 110/106/101
f 110/106/102 104/105/102 100/100/102 107/99/102
f 101/107/103 105/108/103 103/109/103 99/110/103
f 106/103/104 102/101/104 100/100/104 104/105/104
f 103/109/105 110/106/105 107/99/105 99/110/105
f 105/108/106 109/104/106 110/106/106 103/109/106
f 101/107/107 108/102/107 109/104/107 105/108/107
f 99/110/108 107/99/108 108/102/108 101/107/108
f 119/111/109 112/112/109 114/113/109 120/114/109
f 120/114/110 114/113/110 118/115/110 121/116/110
f 121/116/111 118/115/111 116/117/111 122/118/111
f 122/118/112 116/117/112 112/112/112 119/111/112
f 113/119/113 117/120/113 115/121/113 111/122/113
f 118/115/114 114/113/114 112/112/114 116/117/114
f 115/121/115 122/118/115 119/111/115 111/122/115
f 117/120/116 121/116/116 122/118/116 115/121/116
f 113/119/117 120/114/117 121/116/117 117/120/117
f 111/122/118 119/111/118 120/114/118 113/119/118
f 131/123/119 124/124/119 126/125/119 132/126/119
f 132/126/120 126/125/120 130/127/120 133/128/120
f 133/128/121 130/127/121 128/129/121 134/130/121
f 134/130/122 128/129/122 124/124/122 131/123/122
f 125/131/123 129/132/123 127/133/123 123/134/123
f 130/127/124 126/125/124 124/124/124 128/129/124
f 127/133/125 134/130/125 131/123/125 123/134/125
f 129/132/126 133/128/126 134/130/126 127/133/126
f 125/131/127 132/126/127 133/128/127 129/132/127
f 123/134/128 131/123/128 132/126/128 125/131/128
f 143/135/129 136/136/129 138/137/129 144/138/129
f 144/138/130 138/137/130 142/139/130 145/140/130
f 145/140/131 142/139/131 140/141/131 146/142/131
f 146/142/132 140/141/132 136/136/132 143/135/132
f 137/143/133 141/144/133 139/145/133 135/146/133
f 142/139/134 138/137/134 136/136/134 140/141/134
f 139/145/135 146/142/135 143/135/135 135/146/135
f 141/144/136 145/140/136 146/142/136 139/145/136
f 137/143/137 144/138/137 145/140/137 141/144/137
f 135/146/138 143/135/138 144/138/138 137/143/138
f 155/147/139 148/148/139 150/149/139 156/150/139
f 156/150/140 150/149/140 154/151/140 157/152/140
f 157/152/141 154/151/141 152/153/141 158/154/141
f 158/154/142 152/153/142 148/148/142 155/147/142
f 149/155/143 153/156/143 151/157/143 147/158/143
f 154/151/144 150/149/144 148/148/144 152/153/144
f 151/157/145 158/154/145 155/147/145 147/158/145
f 153/156/146 157/152/146 158/154/146 151/157/146
f 149/155/147 156/150/147 157/152/147 153/156/147
f 147/158/148 155/147/148 156/150/148 149/155/148
f 167/159/149 160/160/149 162/161/149 168/162/149
f 168/162/150 162/161/150 166/163/150 169/164/150
f 169/164/151 166/163/151 164/165/151 170/166/151
f 170/166/152 164/165/152 160/160/152 167/159/152
f 161/167/153 165/168/153 163/169/153 159/170/153
f 166/163/154 162/161/154 160/160/154 164/165/154
f 163/169/155 170/166/155 167/159/155 159/170/155
f 165/168/156 169/164/156 170/166/156 163/169/156
f 161/167/157 168/162/157 169/164/157 165/168/157
f 159/170/158 167/159/158 168/162/158 161/167/158
f 179/171/159 172/172/159 174/173/159 180/174/159
f 180/174/160 174/173/160 178/175/160 181/176/160
f 181/176/161 178/175/161 176/177/161 182/178/161
f 182/178/162 176/177/162 172/172/162 179/171/162
f 173/179/163 177/180/163 175/181/163 171/182/163
f 178/175/164 174/173/164 172/172/164 176/177/164
f 175/181/165 182/178/165 179/171/165 171/182/165
f 177/180/166 181/176/166 182/178/166 175/181/166
f 173/179/167 180/174/167 181/176/167 177/180/167
f 171/182/168 179/171/168 180/174/168 173/179/168
f 191/183/169 184/184/169 186/185/169 192/186/169
f 192/186/170 186/185/170 190/187/170 193/188/170
f 193/188/171 190/187/171 188/189/171 194/190/171
f 194/190/172 188/189/172 184/184/172 191/183/172
f 185/191/173 189/192/173 187/193/173 183/194/173
f 190/187/174 186/185/174 184/184/174 188/189/174
f 187/193/175 194/190/175 191/183/175 183/194/175
f 189/192/176 193/188/176 194/190/176 187/193/176
f 185/191/177 192/186/177 193/188/177 189/192/177
f 183/194/178 191/183/178 192/186/178 185/191/178
