# Blender v3.4.1 OBJ File: 'Holiday_Bits_Export.blend'
# www.blender.org
mtllib wall_decoration_candy_C.mtl
o wall_decoration_candy_C
v -0.000012 0.784309 0.216645
v 0.092142 0.759616 0.216645
v 0.159604 0.692154 0.216645
v 0.184296 0.600000 0.216645
v 0.159604 0.507846 0.216645
v 0.092142 0.440384 0.216645
v -0.000012 0.600000 -0.020646
v -0.000012 0.415691 0.216645
v -0.092167 0.440384 0.216645
v -0.159628 0.507846 0.216645
v -0.184321 0.600000 0.216645
v -0.159628 0.692154 0.216645
v -0.092167 0.759616 0.216645
v 0.144833 0.850880 0.216645
v -0.000012 0.889691 0.216645
v 0.250867 0.744845 0.216645
v 0.289679 0.600000 0.216645
v 0.250867 0.455155 0.216645
v 0.144833 0.349120 0.216645
v -0.000012 0.310309 0.216645
v -0.144858 0.349120 0.216645
v -0.250892 0.455155 0.216645
v -0.289703 0.600000 0.216645
v -0.250892 0.744845 0.216645
v -0.144858 0.850880 0.216645
v -0.000012 0.600000 0.157504
v -0.340494 0.796577 0.159372
v -0.393167 0.600000 0.159372
v -0.340494 0.403423 0.159372
v -0.196590 0.259518 0.159372
v -0.000012 0.206845 0.159372
v 0.196565 0.259518 0.159372
v 0.340470 0.403423 0.159372
v 0.393143 0.600000 0.159372
v 0.340470 0.796577 0.159372
v 0.196565 0.940482 0.159372
v -0.000012 0.993155 0.159372
v 0.063459 0.709936 0.157504
v -0.000012 0.726943 0.157504
v 0.109924 0.663472 0.157504
v 0.126931 0.600000 0.157504
v 0.109924 0.536528 0.157504
v 0.063460 0.490064 0.157504
v -0.000012 0.473057 0.157504
v -0.063484 0.490064 0.157504
v -0.109948 0.536528 0.157504
v -0.126956 0.600000 0.157504
v -0.109948 0.663472 0.157504
v -0.063484 0.709936 0.157504
v -0.196590 0.940482 0.159372
v -0.000012 1.012071 -0.020646
v 0.206023 0.956864 -0.020646
v 0.356852 0.806036 -0.020646
v 0.412059 0.600000 -0.020646
v 0.356852 0.393964 -0.020646
v 0.206023 0.243136 -0.020646
v -0.000012 0.187929 -0.020646
v -0.206048 0.243136 -0.020646
v -0.356876 0.393964 -0.020646
v -0.412084 0.600000 -0.020646
v -0.356876 0.806036 -0.020646
v -0.206048 0.956864 -0.020646
v 0.000012 -0.415691 0.216645
v 0.092166 -0.440384 0.216645
v 0.159628 -0.507846 0.216645
v 0.184321 -0.600000 0.216645
v 0.159628 -0.692154 0.216645
v 0.092167 -0.759616 0.216645
v 0.000012 -0.600000 -0.020646
v 0.000012 -0.784309 0.216645
v -0.092142 -0.759616 0.216645
v -0.159604 -0.692154 0.216645
v -0.184297 -0.600000 0.216645
v -0.159604 -0.507846 0.216645
v -0.092142 -0.440384 0.216645
v 0.144858 -0.349120 0.216645
v 0.000012 -0.310309 0.216645
v 0.250892 -0.455155 0.216645
v 0.289703 -0.600000 0.216645
v 0.250892 -0.744846 0.216645
v 0.144858 -0.850880 0.216645
v 0.000012 -0.889691 0.216645
v -0.144833 -0.850880 0.216645
v -0.250868 -0.744845 0.216645
v -0.289679 -0.600000 0.216645
v -0.250868 -0.455155 0.216645
v -0.144833 -0.349120 0.216645
v 0.000012 -0.600000 0.157504
v -0.340470 -0.403423 0.159372
v -0.393143 -0.600000 0.159372
v -0.340470 -0.796577 0.159372
v -0.196565 -0.940482 0.159372
v 0.000012 -0.993155 0.159372
v 0.196589 -0.940482 0.159372
v 0.340494 -0.796577 0.159372
v 0.393167 -0.600000 0.159372
v 0.340494 -0.403423 0.159372
v 0.196589 -0.259518 0.159372
v 0.000012 -0.206845 0.159372
v 0.063484 -0.490064 0.157504
v 0.000012 -0.473057 0.157504
v 0.109948 -0.536528 0.157504
v 0.126956 -0.600000 0.157504
v 0.109948 -0.663472 0.157504
v 0.063484 -0.709936 0.157504
v 0.000012 -0.726943 0.157504
v -0.063460 -0.709936 0.157504
v -0.109924 -0.663472 0.157504
v -0.126931 -0.600000 0.157504
v -0.109924 -0.536528 0.157504
v -0.063460 -0.490064 0.157504
v -0.196565 -0.259518 0.159372
v 0.000012 -0.187929 -0.020646
v 0.206048 -0.243136 -0.020646
v 0.356876 -0.393964 -0.020646
v 0.412083 -0.600000 -0.020646
v 0.356876 -0.806036 -0.020646
v 0.206048 -0.956864 -0.020646
v 0.000012 -1.012071 -0.020646
v -0.206023 -0.956864 -0.020646
v -0.356852 -0.806036 -0.020646
v -0.412059 -0.600000 -0.020646
v -0.356852 -0.393964 -0.020646
v -0.206024 -0.243136 -0.020646
v -0.900000 -0.000012 -0.020646
v -0.778353 0.210686 0.214097
v -0.900000 0.243281 0.214097
v -0.689302 0.121635 0.214097
v -0.656707 -0.000012 0.214097
v -0.689302 -0.121659 0.214097
v -0.778353 -0.210711 0.214097
v -0.900000 -0.243306 0.214097
v -1.021647 -0.210711 0.214097
v -1.110698 -0.121659 0.214097
v -1.143293 -0.000012 0.214097
v -1.110698 0.121635 0.214097
v -1.021647 0.210686 0.214097
v -0.900000 -0.000012 0.250976
v -1.185950 0.165081 0.141812
v -1.230186 -0.000012 0.141812
v -1.185950 -0.165105 0.141812
v -1.065093 -0.285962 0.141812
v -0.900000 -0.330199 0.141812
v -0.734907 -0.285962 0.141812
v -0.614050 -0.165105 0.141812
v -0.569814 -0.000012 0.141812
v -0.614050 0.165081 0.141812
v -0.734907 0.285938 0.141812
v -0.900000 0.330174 0.141812
v -1.065093 0.285938 0.141812
v -0.900000 0.346061 -0.020646
v -0.726963 0.299696 -0.020646
v -0.600292 0.173025 -0.020646
v -0.553927 -0.000012 -0.020646
v -0.600292 -0.173049 -0.020646
v -0.726963 -0.299720 -0.020646
v -0.900000 -0.346086 -0.020646
v -1.073037 -0.299720 -0.020646
v -1.199708 -0.173049 -0.020646
v -1.246073 -0.000012 -0.020646
v -1.199708 0.173025 -0.020646
v -1.073037 0.299696 -0.020646
v 0.900000 -0.000012 -0.020646
v 1.021647 0.210686 0.214097
v 0.900000 0.243281 0.214097
v 1.110698 0.121635 0.214097
v 1.143293 -0.000012 0.214097
v 1.110698 -0.121659 0.214097
v 1.021647 -0.210711 0.214097
v 0.900000 -0.243306 0.214097
v 0.778353 -0.210711 0.214097
v 0.689302 -0.121659 0.214097
v 0.656707 -0.000012 0.214097
v 0.689302 0.121635 0.214097
v 0.778353 0.210686 0.214097
v 0.900000 -0.000012 0.250976
v 0.614050 0.165081 0.141812
v 0.569814 -0.000012 0.141812
v 0.614050 -0.165105 0.141812
v 0.734907 -0.285962 0.141812
v 0.900000 -0.330199 0.141812
v 1.065093 -0.285962 0.141812
v 1.185950 -0.165105 0.141812
v 1.230186 -0.000012 0.141812
v 1.185950 0.165081 0.141812
v 1.065093 0.285938 0.141812
v 0.900000 0.330174 0.141812
v 0.734907 0.285938 0.141812
v 0.900000 0.346061 -0.020646
v 1.073037 0.299696 -0.020646
v 1.199708 0.173025 -0.020646
v 1.246073 -0.000012 -0.020646
v 1.199708 -0.173049 -0.020646
v 1.073037 -0.299720 -0.020646
v 0.900000 -0.346086 -0.020646
v 0.726963 -0.299720 -0.020646
v 0.600292 -0.173049 -0.020646
v 0.553927 -0.000012 -0.020646
v 0.600292 0.173025 -0.020646
v 0.726963 0.299696 -0.020646
vt 0.312500 0.380251
vt 0.312500 0.435363
vt 0.328318 0.435363
vt 0.333967 0.380251
vt 0.339897 0.435363
vt 0.349682 0.380251
vt 0.344136 0.435363
vt 0.355434 0.380251
vt 0.339897 0.435363
vt 0.349682 0.380251
vt 0.328318 0.435363
vt 0.333967 0.380251
vt 0.312500 0.435363
vt 0.312500 0.380251
vt 0.296683 0.435363
vt 0.291033 0.380251
vt 0.285103 0.435363
vt 0.275318 0.380251
vt 0.280865 0.435363
vt 0.269566 0.380251
vt 0.285103 0.435363
vt 0.275318 0.380251
vt 0.302436 0.388488
vt 0.312500 0.388488
vt 0.312500 0.347456
vt 0.305569 0.347456
vt 0.296683 0.435363
vt 0.291033 0.380251
vt 0.312500 0.435363
vt 0.322564 0.435363
vt 0.329931 0.435363
vt 0.332628 0.435363
vt 0.329931 0.435363
vt 0.322564 0.435363
vt 0.312500 0.435363
vt 0.302436 0.435363
vt 0.295069 0.435363
vt 0.292373 0.435363
vt 0.295069 0.435363
vt 0.302436 0.435363
vt 0.351471 0.424012
vt 0.349682 0.364131
vt 0.355434 0.364131
vt 0.357500 0.424012
vt 0.329931 0.388488
vt 0.332628 0.388488
vt 0.326363 0.347456
vt 0.324506 0.347456
vt 0.302436 0.388488
vt 0.295069 0.388488
vt 0.300495 0.347456
vt 0.305569 0.347456
vt 0.322564 0.388488
vt 0.312500 0.388488
vt 0.312500 0.347456
vt 0.319431 0.347456
vt 0.295069 0.388488
vt 0.300495 0.347456
vt 0.322564 0.388488
vt 0.319431 0.347456
vt 0.329931 0.388488
vt 0.324506 0.347456
vt 0.292373 0.388488
vt 0.298637 0.347456
vt 0.312500 0.394331
vt 0.319431 0.394331
vt 0.312500 0.394331
vt 0.324506 0.394331
vt 0.326363 0.394331
vt 0.324506 0.394331
vt 0.319431 0.394331
vt 0.312500 0.394331
vt 0.305569 0.394331
vt 0.300495 0.394331
vt 0.298637 0.394331
vt 0.300495 0.394331
vt 0.305569 0.394331
vt 0.349682 0.364131
vt 0.351471 0.424012
vt 0.333967 0.364131
vt 0.335000 0.424012
vt 0.312500 0.364131
vt 0.312500 0.424012
vt 0.291033 0.364131
vt 0.290000 0.424012
vt 0.275318 0.364131
vt 0.273529 0.424012
vt 0.269566 0.364131
vt 0.267501 0.424012
vt 0.275318 0.364131
vt 0.273529 0.424012
vt 0.291033 0.364131
vt 0.290000 0.424012
vt 0.312500 0.364131
vt 0.312500 0.424012
vt 0.335000 0.424012
vt 0.333967 0.364131
vt 0.312500 0.424012
vt 0.327504 0.424012
vt 0.338488 0.424012
vt 0.342508 0.424012
vt 0.297496 0.424012
vt 0.286513 0.424012
vt 0.282493 0.424012
vt 0.687500 0.380251
vt 0.687500 0.435363
vt 0.703318 0.435363
vt 0.708967 0.380251
vt 0.714897 0.435363
vt 0.724682 0.380251
vt 0.719136 0.435363
vt 0.730434 0.380251
vt 0.714897 0.435363
vt 0.724682 0.380251
vt 0.703318 0.435363
vt 0.708967 0.380251
vt 0.687500 0.435363
vt 0.687500 0.380251
vt 0.671683 0.435363
vt 0.666033 0.380251
vt 0.660103 0.435363
vt 0.650318 0.380251
vt 0.655865 0.435363
vt 0.644566 0.380251
vt 0.660103 0.435363
vt 0.650318 0.380251
vt 0.677436 0.388488
vt 0.687500 0.388488
vt 0.687500 0.347456
vt 0.680569 0.347456
vt 0.671683 0.435363
vt 0.666033 0.380251
vt 0.687500 0.435363
vt 0.697564 0.435363
vt 0.704931 0.435363
vt 0.707628 0.435363
vt 0.704931 0.435363
vt 0.697564 0.435363
vt 0.687500 0.435363
vt 0.677436 0.435363
vt 0.670069 0.435363
vt 0.667373 0.435363
vt 0.670069 0.435363
vt 0.677436 0.435363
vt 0.726471 0.424012
vt 0.724682 0.364131
vt 0.730434 0.364131
vt 0.732500 0.424012
vt 0.704931 0.388488
vt 0.707628 0.388488
vt 0.701363 0.347456
vt 0.699506 0.347456
vt 0.677436 0.388488
vt 0.670069 0.388488
vt 0.675495 0.347456
vt 0.680569 0.347456
vt 0.697564 0.388488
vt 0.687500 0.388488
vt 0.687500 0.347456
vt 0.694431 0.347456
vt 0.670069 0.388488
vt 0.675495 0.347456
vt 0.697564 0.388488
vt 0.694431 0.347456
vt 0.704931 0.388488
vt 0.699506 0.347456
vt 0.667373 0.388488
vt 0.673637 0.347456
vt 0.687500 0.394331
vt 0.694431 0.394331
vt 0.687500 0.394331
vt 0.699506 0.394331
vt 0.701363 0.394331
vt 0.699506 0.394331
vt 0.694431 0.394331
vt 0.687500 0.394331
vt 0.680569 0.394331
vt 0.675495 0.394331
vt 0.673637 0.394331
vt 0.675495 0.394331
vt 0.680569 0.394331
vt 0.724682 0.364131
vt 0.726471 0.424012
vt 0.708967 0.364131
vt 0.710000 0.424012
vt 0.687500 0.364131
vt 0.687500 0.424012
vt 0.666033 0.364131
vt 0.665000 0.424012
vt 0.650318 0.364131
vt 0.648529 0.424012
vt 0.644566 0.364131
vt 0.642501 0.424012
vt 0.650318 0.364131
vt 0.648529 0.424012
vt 0.666033 0.364131
vt 0.665000 0.424012
vt 0.687500 0.364131
vt 0.687500 0.424012
vt 0.710000 0.424012
vt 0.708967 0.364131
vt 0.687500 0.424012
vt 0.702504 0.424012
vt 0.713488 0.424012
vt 0.717508 0.424012
vt 0.672496 0.424012
vt 0.661513 0.424012
vt 0.657493 0.424012
vt 0.187500 0.130251
vt 0.187500 0.185363
vt 0.203318 0.185363
vt 0.208967 0.130251
vt 0.214897 0.185363
vt 0.224682 0.130251
vt 0.219136 0.185363
vt 0.230434 0.130251
vt 0.214897 0.185363
vt 0.224682 0.130251
vt 0.203318 0.185363
vt 0.208967 0.130251
vt 0.187500 0.185363
vt 0.187500 0.130251
vt 0.171683 0.185363
vt 0.166033 0.130251
vt 0.160103 0.185363
vt 0.150318 0.130251
vt 0.155865 0.185363
vt 0.144566 0.130251
vt 0.160103 0.185363
vt 0.150318 0.130251
vt 0.171683 0.185363
vt 0.166033 0.130251
vt 0.187500 0.144331
vt 0.226471 0.174012
vt 0.224682 0.114131
vt 0.230434 0.114131
vt 0.232500 0.174012
vt 0.224682 0.114131
vt 0.226471 0.174012
vt 0.208967 0.114131
vt 0.210000 0.174012
vt 0.187500 0.114131
vt 0.187500 0.174012
vt 0.166033 0.114131
vt 0.165000 0.174012
vt 0.150318 0.114131
vt 0.148529 0.174012
vt 0.144566 0.114131
vt 0.142501 0.174012
vt 0.150318 0.114131
vt 0.148529 0.174012
vt 0.166033 0.114131
vt 0.165000 0.174012
vt 0.187500 0.114131
vt 0.187500 0.174012
vt 0.210000 0.174012
vt 0.208967 0.114131
vt 0.187500 0.174012
vt 0.201075 0.174012
vt 0.211012 0.174012
vt 0.214649 0.174012
vt 0.173926 0.174012
vt 0.163989 0.174012
vt 0.160352 0.174012
vt 0.062500 0.130251
vt 0.062500 0.185363
vt 0.078318 0.185363
vt 0.083967 0.130251
vt 0.089897 0.185363
vt 0.099682 0.130251
vt 0.094136 0.185363
vt 0.105434 0.130251
vt 0.089897 0.185363
vt 0.099682 0.130251
vt 0.078318 0.185363
vt 0.083967 0.130251
vt 0.062500 0.185363
vt 0.062500 0.130251
vt 0.046683 0.185363
vt 0.041033 0.130251
vt 0.035103 0.185363
vt 0.025318 0.130251
vt 0.030865 0.185363
vt 0.019566 0.130251
vt 0.035103 0.185363
vt 0.025318 0.130251
vt 0.046683 0.185363
vt 0.041033 0.130251
vt 0.062500 0.144331
vt 0.101471 0.174012
vt 0.099682 0.114131
vt 0.105434 0.114131
vt 0.107500 0.174012
vt 0.099682 0.114131
vt 0.101471 0.174012
vt 0.083967 0.114131
vt 0.085000 0.174012
vt 0.062500 0.114131
vt 0.062500 0.174012
vt 0.041033 0.114131
vt 0.040000 0.174012
vt 0.025318 0.114131
vt 0.023529 0.174012
vt 0.019566 0.114131
vt 0.017501 0.174012
vt 0.025318 0.114131
vt 0.023529 0.174012
vt 0.041033 0.114131
vt 0.040000 0.174012
vt 0.062500 0.114131
vt 0.062500 0.174012
vt 0.085000 0.174012
vt 0.083967 0.114131
vt 0.062500 0.174012
vt 0.076075 0.174012
vt 0.086012 0.174012
vt 0.089649 0.174012
vt 0.048926 0.174012
vt 0.038989 0.174012
vt 0.035352 0.174012
vn 0.0000 0.4843 0.8749
vn 0.0000 0.2883 0.9575
vn 0.1442 0.2497 0.9575
vn 0.2422 0.4194 0.8749
vn 0.2497 0.1442 0.9575
vn 0.4194 0.2422 0.8749
vn 0.2883 0.0000 0.9575
vn 0.4843 0.0000 0.8749
vn 0.2497 -0.1442 0.9575
vn 0.4194 -0.2422 0.8749
vn 0.1442 -0.2497 0.9575
vn 0.2422 -0.4194 0.8749
vn -0.0000 -0.2883 0.9575
vn -0.0000 -0.4843 0.8749
vn -0.1442 -0.2497 0.9575
vn -0.2422 -0.4194 0.8749
vn -0.2497 -0.1442 0.9575
vn -0.4194 -0.2422 0.8749
vn -0.2883 0.0000 0.9575
vn -0.4843 0.0000 0.8749
vn -0.2497 0.1442 0.9575
vn -0.4194 0.2422 0.8749
vn 0.3589 0.6216 0.6962
vn 0.0000 0.7178 0.6962
vn -0.1442 0.2497 0.9575
vn -0.2422 0.4194 0.8749
vn -0.0000 0.0000 1.0000
vn 0.8613 0.4973 0.1045
vn 0.9945 0.0000 0.1045
vn -0.6216 0.3589 0.6962
vn -0.7178 0.0000 0.6962
vn 0.3589 -0.6216 0.6962
vn 0.6216 -0.3589 0.6962
vn -0.3589 -0.6216 0.6962
vn 0.0000 -0.7178 0.6962
vn 0.6216 0.3589 0.6962
vn -0.3589 0.6216 0.6962
vn -0.6216 -0.3589 0.6962
vn 0.7178 0.0000 0.6962
vn 0.8613 -0.4973 0.1045
vn 0.4973 -0.8613 0.1045
vn -0.0000 -0.9945 0.1045
vn -0.4973 -0.8613 0.1045
vn -0.8613 -0.4973 0.1045
vn -0.9945 -0.0000 0.1045
vn -0.8613 0.4973 0.1045
vn -0.4973 0.8613 0.1045
vn -0.0000 0.9945 0.1045
vn 0.4973 0.8613 0.1045
vn 0.0000 0.0000 -1.0000
vn -0.0000 0.8960 0.4440
vn -0.0000 0.4455 0.8953
vn 0.2228 0.3858 0.8953
vn 0.4480 0.7760 0.4440
vn 0.3858 0.2228 0.8953
vn 0.7760 0.4480 0.4440
vn 0.4455 -0.0000 0.8953
vn 0.8960 -0.0000 0.4440
vn 0.3858 -0.2228 0.8953
vn 0.7760 -0.4480 0.4440
vn 0.2228 -0.3858 0.8953
vn 0.4480 -0.7760 0.4440
vn -0.0000 -0.4455 0.8953
vn -0.0000 -0.8960 0.4440
vn -0.2228 -0.3858 0.8953
vn -0.4480 -0.7760 0.4440
vn -0.3858 -0.2228 0.8953
vn -0.7760 -0.4480 0.4440
vn -0.4455 -0.0000 0.8953
vn -0.8960 -0.0000 0.4440
vn -0.3858 0.2228 0.8953
vn -0.7760 0.4480 0.4440
vn -0.2228 0.3858 0.8953
vn -0.4480 0.7760 0.4440
vn 0.8619 0.4976 0.0973
vn 0.9953 -0.0000 0.0973
vn 0.8619 -0.4976 0.0973
vn 0.4976 -0.8619 0.0973
vn -0.0000 -0.9953 0.0973
vn -0.4976 -0.8619 0.0973
vn -0.8619 -0.4976 0.0973
vn -0.9953 -0.0000 0.0973
vn -0.8619 0.4976 0.0973
vn -0.4976 0.8619 0.0973
vn -0.0000 0.9953 0.0973
vn 0.4976 0.8619 0.0973
usemtl holiday
s 1
f 37/1/1 15/2/2 14/3/3 36/4/4
f 36/4/4 14/3/3 16/5/5 35/6/6
f 35/6/6 16/5/5 17/7/7 34/8/8
f 34/8/8 17/7/7 18/9/9 33/10/10
f 33/10/10 18/9/9 19/11/11 32/12/12
f 32/12/12 19/11/11 20/13/13 31/14/14
f 31/14/14 20/13/13 21/15/15 30/16/16
f 30/16/16 21/15/15 22/17/17 29/18/18
f 29/18/18 22/17/17 23/19/19 28/20/20
f 28/20/20 23/19/19 24/21/21 27/22/22
f 9/23/23 8/24/24 44/25/24 45/26/23
f 27/22/22 24/21/21 25/27/25 50/28/26
f 50/28/26 25/27/25 15/2/2 37/1/1
f 1/29/27 2/30/27 14/3/3 15/2/2
f 2/30/27 3/31/27 16/5/5 14/3/3
f 3/31/27 4/32/27 17/7/7 16/5/5
f 4/32/27 5/33/27 18/9/9 17/7/7
f 5/33/27 6/34/27 19/11/11 18/9/9
f 6/34/27 8/35/27 20/13/13 19/11/11
f 8/35/27 9/36/27 21/15/15 20/13/13
f 9/36/27 10/37/27 22/17/17 21/15/15
f 10/37/27 11/38/27 23/19/19 22/17/17
f 11/38/27 12/39/27 24/21/21 23/19/19
f 12/39/27 13/40/27 25/27/25 24/21/21
f 13/40/27 1/29/27 15/2/2 25/27/25
f 53/41/28 35/42/28 34/43/29 54/44/29
f 5/45/30 4/46/31 41/47/31 42/48/30
f 13/49/32 12/50/33 48/51/33 49/52/32
f 2/53/34 1/54/35 39/55/35 38/56/34
f 10/57/36 9/23/23 45/26/23 46/58/36
f 6/59/37 5/45/30 42/48/30 43/60/37
f 1/54/35 13/49/32 49/52/32 39/55/35
f 3/61/38 2/53/34 38/56/34 40/62/38
f 11/63/39 10/57/36 46/58/36 47/64/39
f 8/24/24 6/59/37 43/60/37 44/25/24
f 4/46/31 3/61/38 40/62/38 41/47/31
f 12/50/33 11/63/39 47/64/39 48/51/33
f 26/65/27 38/66/27 39/67/27
f 26/65/27 40/68/27 38/66/27
f 26/65/27 41/69/27 40/68/27
f 26/65/27 42/70/27 41/69/27
f 26/65/27 43/71/27 42/70/27
f 26/65/27 44/72/27 43/71/27
f 26/65/27 45/73/27 44/72/27
f 26/65/27 46/74/27 45/73/27
f 26/65/27 47/75/27 46/74/27
f 26/65/27 48/76/27 47/75/27
f 26/65/27 49/77/27 48/76/27
f 26/65/27 39/67/27 49/77/27
f 54/44/29 34/43/29 33/78/40 55/79/40
f 55/79/40 33/78/40 32/80/41 56/81/41
f 56/81/41 32/80/41 31/82/42 57/83/42
f 57/83/42 31/82/42 30/84/43 58/85/43
f 58/85/43 30/84/43 29/86/44 59/87/44
f 59/87/44 29/86/44 28/88/45 60/89/45
f 60/89/45 28/88/45 27/90/46 61/91/46
f 61/91/46 27/90/46 50/92/47 62/93/47
f 62/93/47 50/92/47 37/94/48 51/95/48
f 52/96/49 36/97/49 35/42/28 53/41/28
f 51/95/48 37/94/48 36/97/49 52/96/49
f 7/98/50 51/95/50 52/96/50
f 7/99/50 52/96/50 53/41/50
f 7/100/50 53/41/50 54/44/50
f 7/101/50 54/44/50 55/79/50
f 7/100/50 55/79/50 56/81/50
f 7/99/50 56/81/50 57/83/50
f 7/98/50 57/83/50 58/85/50
f 7/102/50 58/85/50 59/87/50
f 7/103/50 59/87/50 60/89/50
f 7/104/50 60/89/50 61/91/50
f 7/103/50 61/91/50 62/93/50
f 7/102/50 62/93/50 51/95/50
f 99/105/1 77/106/2 76/107/3 98/108/4
f 98/108/4 76/107/3 78/109/5 97/110/6
f 97/110/6 78/109/5 79/111/7 96/112/8
f 96/112/8 79/111/7 80/113/9 95/114/10
f 95/114/10 80/113/9 81/115/11 94/116/12
f 94/116/12 81/115/11 82/117/13 93/118/14
f 93/118/14 82/117/13 83/119/15 92/120/16
f 92/120/16 83/119/15 84/121/17 91/122/18
f 91/122/18 84/121/17 85/123/19 90/124/20
f 90/124/20 85/123/19 86/125/21 89/126/22
f 71/127/23 70/128/24 106/129/24 107/130/23
f 89/126/22 86/125/21 87/131/25 112/132/26
f 112/132/26 87/131/25 77/106/2 99/105/1
f 63/133/27 64/134/27 76/107/3 77/106/2
f 64/134/27 65/135/27 78/109/5 76/107/3
f 65/135/27 66/136/27 79/111/7 78/109/5
f 66/136/27 67/137/27 80/113/9 79/111/7
f 67/137/27 68/138/27 81/115/11 80/113/9
f 68/138/27 70/139/27 82/117/13 81/115/11
f 70/139/27 71/140/27 83/119/15 82/117/13
f 71/140/27 72/141/27 84/121/17 83/119/15
f 72/141/27 73/142/27 85/123/19 84/121/17
f 73/142/27 74/143/27 86/125/21 85/123/19
f 74/143/27 75/144/27 87/131/25 86/125/21
f 75/144/27 63/133/27 77/106/2 87/131/25
f 115/145/28 97/146/28 96/147/29 116/148/29
f 67/149/30 66/150/31 103/151/31 104/152/30
f 75/153/32 74/154/33 110/155/33 111/156/32
f 64/157/34 63/158/35 101/159/35 100/160/34
f 72/161/36 71/127/23 107/130/23 108/162/36
f 68/163/37 67/149/30 104/152/30 105/164/37
f 63/158/35 75/153/32 111/156/32 101/159/35
f 65/165/38 64/157/34 100/160/34 102/166/38
f 73/167/39 72/161/36 108/162/36 109/168/39
f 70/128/24 68/163/37 105/164/37 106/129/24
f 66/150/31 65/165/38 102/166/38 103/151/31
f 74/154/33 73/167/39 109/168/39 110/155/33
f 88/169/27 100/170/27 101/171/27
f 88/169/27 102/172/27 100/170/27
f 88/169/27 103/173/27 102/172/27
f 88/169/27 104/174/27 103/173/27
f 88/169/27 105/175/27 104/174/27
f 88/169/27 106/176/27 105/175/27
f 88/169/27 107/177/27 106/176/27
f 88/169/27 108/178/27 107/177/27
f 88/169/27 109/179/27 108/178/27
f 88/169/27 110/180/27 109/179/27
f 88/169/27 111/181/27 110/180/27
f 88/169/27 101/171/27 111/181/27
f 116/148/29 96/147/29 95/182/40 117/183/40
f 117/183/40 95/182/40 94/184/41 118/185/41
f 118/185/41 94/184/41 93/186/42 119/187/42
f 119/187/42 93/186/42 92/188/43 120/189/43
f 120/189/43 92/188/43 91/190/44 121/191/44
f 121/191/44 91/190/44 90/192/45 122/193/45
f 122/193/45 90/192/45 89/194/46 123/195/46
f 123/195/46 89/194/46 112/196/47 124/197/47
f 124/197/47 112/196/47 99/198/48 113/199/48
f 114/200/49 98/201/49 97/146/28 115/145/28
f 113/199/48 99/198/48 98/201/49 114/200/49
f 69/202/50 113/199/50 114/200/50
f 69/203/50 114/200/50 115/145/50
f 69/204/50 115/145/50 116/148/50
f 69/205/50 116/148/50 117/183/50
f 69/204/50 117/183/50 118/185/50
f 69/203/50 118/185/50 119/187/50
f 69/202/50 119/187/50 120/189/50
f 69/206/50 120/189/50 121/191/50
f 69/207/50 121/191/50 122/193/50
f 69/208/50 122/193/50 123/195/50
f 69/207/50 123/195/50 124/197/50
f 69/206/50 124/197/50 113/199/50
f 149/209/51 127/210/52 126/211/53 148/212/54
f 148/212/54 126/211/53 128/213/55 147/214/56
f 147/214/56 128/213/55 129/215/57 146/216/58
f 146/216/58 129/215/57 130/217/59 145/218/60
f 145/218/60 130/217/59 131/219/61 144/220/62
f 144/220/62 131/219/61 132/221/63 143/222/64
f 143/222/64 132/221/63 133/223/65 142/224/66
f 142/224/66 133/223/65 134/225/67 141/226/68
f 141/226/68 134/225/67 135/227/69 140/228/70
f 140/228/70 135/227/69 136/229/71 139/230/72
f 139/230/72 136/229/71 137/231/73 150/232/74
f 150/232/74 137/231/73 127/210/52 149/209/51
f 138/233/27 128/213/55 126/211/53
f 138/233/27 129/215/57 128/213/55
f 138/233/27 130/217/59 129/215/57
f 138/233/27 131/219/61 130/217/59
f 138/233/27 132/221/63 131/219/61
f 138/233/27 133/223/65 132/221/63
f 138/233/27 134/225/67 133/223/65
f 138/233/27 135/227/69 134/225/67
f 138/233/27 136/229/71 135/227/69
f 138/233/27 137/231/73 136/229/71
f 138/233/27 127/210/52 137/231/73
f 153/234/75 147/235/56 146/236/58 154/237/76
f 138/233/27 126/211/53 127/210/52
f 154/237/76 146/236/58 145/238/60 155/239/77
f 155/239/77 145/238/60 144/240/62 156/241/78
f 156/241/78 144/240/62 143/242/64 157/243/79
f 157/243/79 143/242/64 142/244/66 158/245/80
f 158/245/80 142/244/66 141/246/68 159/247/81
f 159/247/81 141/246/68 140/248/70 160/249/82
f 160/249/82 140/248/70 139/250/72 161/251/83
f 161/251/83 139/250/72 150/252/74 162/253/84
f 162/253/84 150/252/74 149/254/51 151/255/85
f 152/256/86 148/257/54 147/235/56 153/234/75
f 151/255/85 149/254/51 148/257/54 152/256/86
f 125/258/50 151/255/50 152/256/50
f 125/259/50 152/256/50 153/234/50
f 125/260/50 153/234/50 154/237/50
f 125/261/50 154/237/50 155/239/50
f 125/260/50 155/239/50 156/241/50
f 125/259/50 156/241/50 157/243/50
f 125/258/50 157/243/50 158/245/50
f 125/262/50 158/245/50 159/247/50
f 125/263/50 159/247/50 160/249/50
f 125/264/50 160/249/50 161/251/50
f 125/263/50 161/251/50 162/253/50
f 125/262/50 162/253/50 151/255/50
f 187/265/51 165/266/52 164/267/53 186/268/54
f 186/268/54 164/267/53 166/269/55 185/270/56
f 185/270/56 166/269/55 167/271/57 184/272/58
f 184/272/58 167/271/57 168/273/59 183/274/60
f 183/274/60 168/273/59 169/275/61 182/276/62
f 182/276/62 169/275/61 170/277/63 181/278/64
f 181/278/64 170/277/63 171/279/65 180/280/66
f 180/280/66 171/279/65 172/281/67 179/282/68
f 179/282/68 172/281/67 173/283/69 178/284/70
f 178/284/70 173/283/69 174/285/71 177/286/72
f 177/286/72 174/285/71 175/287/73 188/288/74
f 188/288/74 175/287/73 165/266/52 187/265/51
f 176/289/27 166/269/55 164/267/53
f 176/289/27 167/271/57 166/269/55
f 176/289/27 168/273/59 167/271/57
f 176/289/27 169/275/61 168/273/59
f 176/289/27 170/277/63 169/275/61
f 176/289/27 171/279/65 170/277/63
f 176/289/27 172/281/67 171/279/65
f 176/289/27 173/283/69 172/281/67
f 176/289/27 174/285/71 173/283/69
f 176/289/27 175/287/73 174/285/71
f 176/289/27 165/266/52 175/287/73
f 191/290/75 185/291/56 184/292/58 192/293/76
f 176/289/27 164/267/53 165/266/52
f 192/293/76 184/292/58 183/294/60 193/295/77
f 193/295/77 183/294/60 182/296/62 194/297/78
f 194/297/78 182/296/62 181/298/64 195/299/79
f 195/299/79 181/298/64 180/300/66 196/301/80
f 196/301/80 180/300/66 179/302/68 197/303/81
f 197/303/81 179/302/68 178/304/70 198/305/82
f 198/305/82 178/304/70 177/306/72 199/307/83
f 199/307/83 177/306/72 188/308/74 200/309/84
f 200/309/84 188/308/74 187/310/51 189/311/85
f 190/312/86 186/313/54 185/291/56 191/290/75
f 189/311/85 187/310/51 186/313/54 190/312/86
f 163/314/50 189/311/50 190/312/50
f 163/315/50 190/312/50 191/290/50
f 163/316/50 191/290/50 192/293/50
f 163/317/50 192/293/50 193/295/50
f 163/316/50 193/295/50 194/297/50
f 163/315/50 194/297/50 195/299/50
f 163/314/50 195/299/50 196/301/50
f 163/318/50 196/301/50 197/303/50
f 163/319/50 197/303/50 198/305/50
f 163/320/50 198/305/50 199/307/50
f 163/319/50 199/307/50 200/309/50
f 163/318/50 200/309/50 189/311/50
