# Blender v3.4.1 OBJ File: 'December2024_Helpers_Assets_Export.blend'
# www.blender.org
mtllib Glue_B.mtl
o Glue_B
v -0.105934 -0.000000 0.079523
v -0.105934 0.251790 0.079523
v -0.105934 -0.000000 -0.079523
v -0.105934 0.251790 -0.079523
v 0.105934 -0.000000 0.079523
v 0.105934 0.251790 0.079523
v 0.105934 -0.000000 -0.079523
v 0.105934 0.251790 -0.079523
v -0.119652 -0.000000 -0.042675
v -0.119652 -0.000000 0.042675
v -0.096779 0.196610 0.111382
v -0.119652 0.255817 0.042675
v -0.119652 0.255817 -0.042675
v 0.056848 -0.000000 -0.089821
v -0.056848 -0.000000 -0.089821
v -0.056848 0.255817 -0.089821
v 0.056848 0.255817 -0.089821
v 0.119652 -0.000000 0.042675
v 0.119652 -0.000000 -0.042675
v 0.119652 0.255817 -0.042675
v 0.119652 0.255817 0.042675
v -0.056848 -0.000000 0.089821
v 0.056848 -0.000000 0.089821
v 0.056848 0.255817 0.089821
v -0.056848 0.255817 0.089821
v -0.130370 0.208929 -0.097867
v 0.130370 0.208929 -0.097867
v 0.096779 0.196610 0.111382
v -0.165256 0.209404 0.049006
v -0.165256 0.209404 -0.049006
v -0.065282 0.209404 -0.124055
v 0.065282 0.209404 -0.124055
v 0.165256 0.209404 -0.049006
v 0.165256 0.209404 0.049006
v 0.065168 0.196841 0.124101
v -0.065168 0.196841 0.124101
v -0.059631 -0.000000 -0.044764
v 0.059631 -0.000000 -0.044764
v -0.059631 -0.000000 0.044764
v 0.059631 -0.000000 0.044764
v 0.059631 0.265484 -0.044764
v -0.059631 0.265484 -0.044764
v 0.059631 0.265484 0.044764
v -0.059631 0.265484 0.044764
v -0.000000 0.323400 -0.061752
v 0.030876 0.323400 -0.053478
v 0.053478 0.323400 -0.030876
v 0.061751 0.323400 -0.000000
v 0.053478 0.323400 0.030876
v 0.030876 0.323400 0.053478
v -0.000000 0.323400 0.061751
v -0.030876 0.323400 0.053478
v -0.053478 0.323400 0.030876
v -0.061752 0.323400 -0.000000
v -0.053478 0.323400 -0.030876
v -0.030876 0.323400 -0.053478
v -0.000000 0.444784 -0.000000
v 0.014543 0.444583 -0.025190
v -0.000000 0.444583 -0.029087
v 0.025190 0.444583 -0.014543
v 0.029087 0.444583 -0.000000
v 0.025190 0.444583 0.014543
v 0.014543 0.444583 0.025190
v -0.000000 0.444583 0.029086
v -0.014543 0.444583 0.025190
v -0.025190 0.444583 0.014543
v -0.029087 0.444583 -0.000000
v -0.025190 0.444583 -0.014543
v -0.014543 0.444583 -0.025190
v -0.000000 0.261767 -0.081425
v -0.000000 0.269507 -0.089437
v 0.040712 0.261767 -0.070516
v 0.044718 0.269507 -0.077455
v 0.070516 0.261767 -0.040712
v 0.077455 0.269507 -0.044719
v 0.081424 0.261767 -0.000000
v 0.089437 0.269507 -0.000000
v 0.070516 0.261767 0.040712
v 0.077455 0.269507 0.044718
v 0.040712 0.261767 0.070516
v 0.044718 0.269507 0.077455
v -0.000000 0.261767 0.081425
v -0.000000 0.269507 0.089437
v -0.040712 0.261767 0.070516
v -0.044719 0.269507 0.077455
v -0.070516 0.261767 0.040712
v -0.077455 0.269507 0.044718
v -0.081425 0.261767 -0.000000
v -0.089437 0.269507 -0.000000
v -0.070516 0.261767 -0.040712
v -0.077455 0.269507 -0.044719
v -0.040712 0.261767 -0.070516
v -0.044719 0.269507 -0.077455
v 0.040712 0.323400 -0.070516
v 0.044718 0.315661 -0.077455
v -0.000000 0.315661 -0.089437
v -0.000000 0.323400 -0.081425
v 0.070516 0.323400 -0.040712
v 0.077455 0.315661 -0.044719
v 0.081424 0.323400 -0.000000
v 0.089437 0.315661 -0.000000
v 0.070516 0.323400 0.040712
v 0.077455 0.315661 0.044718
v 0.040712 0.323400 0.070516
v 0.044718 0.315661 0.077455
v -0.000000 0.323400 0.081424
v -0.000000 0.315661 0.089437
v -0.040712 0.323400 0.070516
v -0.044719 0.315661 0.077455
v -0.070516 0.323400 0.040712
v -0.077455 0.315661 0.044718
v -0.081425 0.323400 -0.000000
v -0.089437 0.315661 -0.000000
v -0.070516 0.323400 -0.040712
v -0.077455 0.315661 -0.044719
v -0.040712 0.323400 -0.070516
v -0.044719 0.315661 -0.077455
v -0.000000 0.451739 -0.013775
v 0.006887 0.451739 -0.011929
v 0.011929 0.451739 -0.006887
v 0.013774 0.451739 -0.000000
v 0.011929 0.451739 0.006887
v 0.006887 0.451739 0.011929
v -0.000000 0.451739 0.013774
v -0.006887 0.451739 0.011929
v -0.011929 0.451739 0.006887
v -0.013775 0.451739 -0.000000
v -0.011929 0.451739 -0.006887
v -0.006887 0.451739 -0.011929
v -0.096779 0.094305 0.111382
v -0.130370 0.034427 -0.097867
v 0.130370 0.034427 -0.097867
v 0.096779 0.094305 0.111382
v -0.065282 0.034473 0.124055
v 0.065282 0.034473 0.124055
v 0.165256 0.034473 0.049006
v 0.165256 0.034473 -0.049006
v 0.065282 0.034473 -0.124055
v -0.065282 0.034473 -0.124055
v -0.165256 0.034473 -0.049006
v -0.165256 0.034473 0.049006
v 0.065282 0.209404 0.124055
v -0.065282 0.209404 0.124055
v 0.130370 0.208929 0.097867
v -0.130370 0.208929 0.097867
v -0.130370 0.034427 0.097867
v 0.130370 0.034427 0.097867
v -0.065293 0.094327 0.124051
v 0.065293 0.094327 0.124051
vt 0.273046 0.363683
vt 0.283100 0.373917
vt 0.286125 0.373029
vt 0.280737 0.363579
vt 0.296948 0.373917
vt 0.295088 0.363683
vt 0.322015 0.373917
vt 0.323875 0.363683
vt 0.332838 0.373029
vt 0.338225 0.363579
vt 0.335862 0.373917
vt 0.345917 0.363683
vt 0.335862 0.373917
vt 0.345917 0.363683
vt 0.332838 0.373029
vt 0.338225 0.363579
vt 0.322015 0.373917
vt 0.323875 0.363683
vt 0.296948 0.373917
vt 0.295088 0.363683
vt 0.286125 0.373029
vt 0.280737 0.363579
vt 0.332838 0.262911
vt 0.338225 0.293855
vt 0.323875 0.293865
vt 0.322015 0.262911
vt 0.296334 0.294161
vt 0.322629 0.294161
vt 0.322629 0.294161
vt 0.296334 0.294161
vt 0.322015 0.294161
vt 0.296948 0.294161
vt 0.286125 0.294161
vt 0.283100 0.294161
vt 0.335862 0.294161
vt 0.335862 0.294161
vt 0.332838 0.294161
vt 0.322015 0.294161
vt 0.296948 0.294161
vt 0.332838 0.294161
vt 0.283100 0.294161
vt 0.286125 0.294161
vt 0.322629 0.376048
vt 0.296334 0.376048
vt 0.296334 0.376048
vt 0.322629 0.376048
vt 0.283100 0.373917
vt 0.295088 0.293865
vt 0.280737 0.293855
vt 0.286125 0.262911
vt 0.296948 0.262911
vt 0.345917 0.293865
vt 0.345917 0.293865
vt 0.335862 0.262911
vt 0.335862 0.262911
vt 0.332838 0.262911
vt 0.338225 0.293855
vt 0.330819 0.412144
vt 0.330819 0.434700
vt 0.323850 0.434751
vt 0.323877 0.412149
vt 0.295088 0.293865
vt 0.323875 0.293865
vt 0.322015 0.262911
vt 0.296948 0.262911
vt 0.286125 0.262911
vt 0.280737 0.293855
vt 0.338225 0.325105
vt 0.345917 0.325115
vt 0.273046 0.293865
vt 0.273046 0.293865
vt 0.283100 0.262911
vt 0.283100 0.262911
vt 0.280737 0.325105
vt 0.295088 0.325115
vt 0.273046 0.363683
vt 0.280737 0.325105
vt 0.273046 0.325115
vt 0.917674 0.393983
vt 0.917674 0.409866
vt 0.933062 0.409866
vt 0.933062 0.393983
vt 0.959717 0.393983
vt 0.959717 0.409866
vt 0.963840 0.409866
vt 0.963840 0.393983
vt 0.959717 0.409866
vt 0.959717 0.393983
vt 0.948452 0.409866
vt 0.948452 0.393983
vt 0.933062 0.409866
vt 0.933062 0.393983
vt 0.917674 0.409866
vt 0.917674 0.393983
vt 0.906408 0.409866
vt 0.906408 0.393983
vt 0.902285 0.409866
vt 0.902285 0.393983
vt 0.906408 0.409866
vt 0.906408 0.393983
vt 0.933062 0.412529
vt 0.940759 0.412529
vt 0.936688 0.454232
vt 0.933062 0.454232
vt 0.933062 0.428154
vt 0.940759 0.428154
vt 0.947073 0.428154
vt 0.933062 0.428154
vt 0.948452 0.393983
vt 0.948452 0.409866
vt 0.946393 0.428154
vt 0.957329 0.428154
vt 0.925366 0.428154
vt 0.919052 0.428154
vt 0.948455 0.428154
vt 0.946393 0.428154
vt 0.957329 0.428154
vt 0.961083 0.428154
vt 0.940759 0.428154
vt 0.947073 0.428154
vt 0.933062 0.428154
vt 0.933062 0.428154
vt 0.925366 0.428154
vt 0.919052 0.428154
vt 0.919732 0.428154
vt 0.908796 0.428154
vt 0.917670 0.428154
vt 0.905042 0.428154
vt 0.919732 0.428154
vt 0.908796 0.428154
vt 0.946393 0.412529
vt 0.940759 0.412529
vt 0.936688 0.454232
vt 0.939341 0.454232
vt 0.948455 0.412529
vt 0.940313 0.454232
vt 0.933062 0.412529
vt 0.925366 0.412529
vt 0.929437 0.454232
vt 0.933062 0.454232
vt 0.919732 0.412529
vt 0.917670 0.412529
vt 0.925812 0.454232
vt 0.926784 0.454232
vt 0.925366 0.412529
vt 0.929437 0.454232
vt 0.946393 0.412529
vt 0.939341 0.454232
vt 0.919732 0.412529
vt 0.926784 0.454232
vt 0.936688 0.485482
vt 0.933062 0.485482
vt 0.933062 0.487944
vt 0.935433 0.487944
vt 0.939341 0.485482
vt 0.937168 0.487944
vt 0.940313 0.485482
vt 0.937803 0.487944
vt 0.939341 0.485482
vt 0.937168 0.487944
vt 0.936688 0.485482
vt 0.935433 0.487944
vt 0.933062 0.485482
vt 0.933062 0.487944
vt 0.929437 0.485482
vt 0.930692 0.487944
vt 0.926784 0.485482
vt 0.928957 0.487944
vt 0.925812 0.485482
vt 0.928322 0.487944
vt 0.926784 0.485482
vt 0.928957 0.487944
vt 0.929437 0.485482
vt 0.930692 0.487944
vt 0.947073 0.391319
vt 0.933062 0.391319
vt 0.948452 0.441116
vt 0.933062 0.441116
vt 0.933062 0.443779
vt 0.947073 0.443779
vt 0.957329 0.391319
vt 0.959717 0.441116
vt 0.957329 0.443779
vt 0.961083 0.391319
vt 0.963840 0.441116
vt 0.961083 0.443779
vt 0.957329 0.391319
vt 0.959717 0.441116
vt 0.957329 0.443779
vt 0.947073 0.391319
vt 0.948452 0.441116
vt 0.947073 0.443779
vt 0.933062 0.391319
vt 0.933062 0.441116
vt 0.933062 0.443779
vt 0.919052 0.391319
vt 0.917674 0.441116
vt 0.919052 0.443779
vt 0.908796 0.391319
vt 0.906408 0.441116
vt 0.908796 0.443779
vt 0.905042 0.391319
vt 0.902285 0.441116
vt 0.905042 0.443779
vt 0.908796 0.391319
vt 0.906408 0.441116
vt 0.908796 0.443779
vt 0.919052 0.391319
vt 0.917674 0.441116
vt 0.919052 0.443779
vt 0.933062 0.313676
vt 0.935433 0.456694
vt 0.933062 0.456694
vt 0.937168 0.456694
vt 0.937803 0.456694
vt 0.937168 0.456694
vt 0.935433 0.456694
vt 0.933062 0.456694
vt 0.930692 0.456694
vt 0.928957 0.456694
vt 0.928322 0.456694
vt 0.928957 0.456694
vt 0.930692 0.456694
vt 0.273046 0.325115
vt 0.323875 0.325115
vt 0.338225 0.325105
vt 0.345917 0.325115
vt 0.295113 0.434751
vt 0.288144 0.434700
vt 0.288144 0.412144
vt 0.295085 0.412149
vt 0.295113 0.355700
vt 0.323850 0.355700
vt 0.330819 0.355649
vt 0.288144 0.355649
vt 0.288144 0.333093
vt 0.330819 0.333093
vt 0.295085 0.333098
vt 0.295088 0.325115
vt 0.323877 0.333098
vt 0.323875 0.325115
vn -0.8985 0.3463 -0.2697
vn -0.4729 0.8669 -0.1577
vn -0.3721 0.7853 -0.4947
vn -0.5984 0.3111 -0.7384
vn -0.1041 0.8289 -0.5496
vn -0.1742 0.2961 -0.9391
vn 0.1041 0.8289 -0.5496
vn 0.1742 0.2961 -0.9391
vn 0.3721 0.7853 -0.4947
vn 0.5984 0.3111 -0.7384
vn 0.4729 0.8669 -0.1577
vn 0.8985 0.3463 -0.2697
vn 0.4729 0.8669 0.1577
vn 0.8985 0.3463 0.2697
vn 0.3721 0.7853 0.4947
vn 0.5984 0.3111 0.7384
vn 0.1041 0.8289 0.5496
vn 0.1747 0.2970 0.9387
vn -0.1041 0.8289 0.5496
vn -0.1747 0.2970 0.9387
vn -0.3721 0.7853 0.4947
vn -0.5984 0.3111 0.7384
vn 0.2812 -0.8811 0.3803
vn 0.4513 -0.7225 0.5238
vn 0.1182 -0.6851 0.7188
vn 0.1085 -0.6871 0.7184
vn 0.0000 -1.0000 -0.0000
vn -0.2812 -0.8811 -0.3803
vn -0.3541 -0.9297 -0.1016
vn 0.3541 -0.9297 0.1016
vn 0.3541 -0.9297 -0.1016
vn 0.2812 -0.8811 -0.3803
vn -0.3541 -0.9297 0.1016
vn -0.2812 -0.8811 0.3803
vn 0.0772 0.9918 -0.1014
vn -0.0772 0.9918 -0.1014
vn -0.0772 0.9918 0.1014
vn 0.0772 0.9918 0.1014
vn -0.4729 0.8669 0.1577
vn -0.1182 -0.6851 0.7188
vn -0.4513 -0.7225 0.5238
vn -0.1085 -0.6871 0.7184
vn 0.6093 -0.7778 -0.1541
vn 0.6093 -0.7779 0.1541
vn 0.4513 -0.7225 -0.5238
vn 0.3733 -0.0000 0.9277
vn 0.1895 0.0008 0.9819
vn 0.1902 -0.0001 0.9817
vn -0.1182 -0.6851 -0.7188
vn 0.1182 -0.6851 -0.7188
vn 0.1085 -0.6871 -0.7184
vn -0.1085 -0.6871 -0.7184
vn -0.4513 -0.7225 -0.5238
vn 0.6183 0.0000 -0.7859
vn 0.9523 0.0000 -0.3052
vn -0.6093 -0.7779 0.1541
vn -0.6093 -0.7779 -0.1541
vn -0.6183 -0.0000 -0.7859
vn -0.1901 0.0000 -0.9818
vn -0.8985 0.3463 0.2697
vn -0.6183 0.0000 0.7859
vn -0.9523 0.0000 0.3052
vn -0.5000 0.0000 -0.8660
vn -0.4647 0.3692 -0.8048
vn 0.0000 0.3692 -0.9293
vn 0.0000 0.0000 -1.0000
vn 0.8048 -0.3692 -0.4647
vn 0.8048 0.3692 -0.4647
vn 0.9293 0.3692 -0.0000
vn 0.9293 -0.3692 0.0000
vn 0.8048 0.3692 0.4647
vn 0.8048 -0.3692 0.4647
vn 0.4647 0.3692 0.8048
vn 0.4647 -0.3692 0.8048
vn -0.0000 0.3692 0.9293
vn -0.0000 -0.3692 0.9293
vn -0.4647 0.3692 0.8048
vn -0.5000 0.0000 0.8660
vn -0.8048 0.3692 0.4647
vn -0.8660 0.0000 0.5000
vn -0.9293 0.3692 0.0000
vn -1.0000 0.0000 0.0000
vn -0.8048 0.3692 -0.4647
vn -0.8660 0.0000 -0.5000
vn -0.0000 0.2603 0.9655
vn 0.4828 0.2603 0.8362
vn 0.0000 1.0000 0.0000
vn 0.4647 -0.3692 -0.8048
vn 0.4647 0.3692 -0.8048
vn 0.8362 0.2603 -0.4828
vn 0.4828 0.2603 -0.8362
vn 0.9655 0.2603 0.0000
vn -0.0000 0.2603 -0.9655
vn -0.4828 0.2603 -0.8362
vn -0.8362 0.2603 -0.4828
vn -0.9655 0.2603 0.0000
vn -0.4828 0.2603 0.8362
vn 0.8362 0.2603 0.4828
vn -0.8362 0.2603 0.4828
vn 0.2117 0.9060 -0.3667
vn -0.0000 0.9060 -0.4234
vn 0.3667 0.9060 -0.2117
vn 0.4234 0.9060 0.0000
vn 0.3667 0.9060 0.2117
vn 0.2117 0.9060 0.3667
vn -0.0000 0.9060 0.4234
vn -0.0000 0.9059 0.4234
vn -0.2117 0.9060 0.3667
vn -0.3667 0.9060 0.2117
vn -0.4234 0.9060 0.0000
vn -0.3667 0.9059 -0.2117
vn -0.2117 0.9059 -0.3667
vn 0.0000 -0.7193 -0.6947
vn 0.2129 -0.9049 -0.3687
vn 0.0000 -0.9049 -0.4257
vn 0.0000 0.7193 -0.6947
vn 0.3474 0.7193 -0.6017
vn 0.6017 -0.7193 -0.3474
vn 0.6017 0.7193 -0.3474
vn 0.6947 -0.7193 0.0000
vn 0.6947 0.7193 -0.0000
vn 0.3687 -0.9049 0.2129
vn 0.6017 0.7193 0.3474
vn 0.2129 -0.9049 0.3687
vn 0.3474 0.7193 0.6017
vn -0.0000 -0.9049 0.4257
vn -0.0000 0.7193 0.6947
vn -0.3474 -0.7193 0.6017
vn -0.2129 -0.9049 0.3687
vn -0.3474 0.7193 0.6017
vn -0.6017 -0.7193 0.3474
vn -0.3687 -0.9049 0.2129
vn -0.6017 0.7193 0.3474
vn -0.6947 -0.7193 0.0000
vn -0.4257 -0.9049 0.0000
vn -0.6947 0.7193 0.0000
vn -0.6017 -0.7193 -0.3474
vn -0.3687 -0.9049 -0.2129
vn -0.6017 0.7193 -0.3474
vn -0.3474 -0.7193 -0.6017
vn -0.2129 -0.9049 -0.3687
vn -0.3474 0.7193 -0.6017
vn -0.2254 0.8927 0.3903
vn 0.0000 0.8927 0.4507
vn -0.3903 0.8927 0.2254
vn -0.4507 0.8927 -0.0000
vn -0.3903 0.8927 -0.2254
vn -0.2254 0.8927 -0.3903
vn 0.0000 0.8927 -0.4507
vn 0.2254 0.8927 -0.3903
vn 0.3903 0.8927 -0.2254
vn 0.4507 0.8927 -0.0000
vn 0.3903 0.8927 0.2254
vn 0.2254 0.8927 0.3903
vn -0.9523 0.0000 -0.3052
vn 0.1901 0.0000 -0.9818
vn 0.6183 0.0000 0.7859
vn 0.9523 0.0000 0.3052
vn -0.1895 0.0008 0.9819
vn -0.3733 0.0000 0.9277
vn -0.1902 -0.0001 0.9817
vn -0.1901 0.0000 0.9818
vn 0.1901 0.0000 0.9818
usemtl helpers
s 1
f 30/1/1 13/2/2 4/3/3 26/4/4
f 4/3/3 16/5/5 31/6/6 26/4/4
f 16/5/5 17/7/7 32/8/8 31/6/6
f 32/8/8 17/7/7 8/9/9 27/10/10
f 8/9/9 20/11/11 33/12/12 27/10/10
f 20/11/11 21/13/13 34/14/14 33/12/12
f 34/14/14 21/13/13 6/15/15 144/16/16
f 6/15/15 24/17/17 142/18/18 144/16/16
f 24/17/17 25/19/19 143/20/20 142/18/18
f 143/20/20 25/19/19 2/21/21 145/22/22
f 5/23/23 147/24/24 135/25/25 23/26/26
f 37/27/27 38/28/27 40/29/27 39/30/27
f 14/31/27 38/28/27 37/27/27 15/32/27
f 3/33/28 15/32/27 37/27/27 9/34/29
f 18/35/30 40/29/27 38/28/27 19/36/31
f 14/31/27 7/37/32 19/36/31 38/28/27
f 39/30/27 40/29/27 23/38/27 22/39/27
f 40/29/27 18/35/30 5/40/23 23/38/27
f 9/34/29 37/27/27 39/30/27 10/41/33
f 10/41/33 39/30/27 22/39/27 1/42/34
f 41/43/35 42/44/36 44/45/37 43/46/38
f 16/5/5 42/44/36 41/43/35 17/7/7
f 8/9/9 17/7/7 41/43/35 20/11/11
f 12/47/39 44/45/37 42/44/36 13/2/2
f 16/5/5 4/3/3 13/2/2 42/44/36
f 43/46/38 44/45/37 25/19/19 24/17/17
f 44/45/37 12/47/39 2/21/21 25/19/19
f 20/11/11 41/43/35 43/46/38 21/13/13
f 21/13/13 43/46/38 24/17/17 6/15/15
f 134/48/40 146/49/41 1/50/34 22/51/42
f 137/52/43 136/53/44 18/54/30 19/55/31
f 7/56/32 132/57/45 137/52/43 19/55/31
f 136/53/44 147/24/24 5/23/23 18/54/30
f 133/58/46 28/59/46 35/60/47 149/61/48
f 139/62/49 138/63/50 14/64/51 15/65/52
f 3/66/28 131/67/53 139/62/49 15/65/52
f 138/63/50 132/57/45 7/56/32 14/64/51
f 132/68/54 27/10/10 33/12/12 137/69/55
f 141/70/56 140/71/57 9/72/29 10/73/33
f 1/50/34 146/49/41 141/70/56 10/73/33
f 140/71/57 131/67/53 3/66/28 9/72/29
f 131/74/58 26/4/4 31/6/6 139/75/59
f 12/47/39 13/2/2 30/1/1 29/76/60
f 146/77/61 145/22/22 29/76/60 141/78/62
f 145/22/22 2/21/21 12/47/39 29/76/60
f 93/79/63 117/80/64 96/81/65 71/82/66
f 75/83/67 99/84/68 101/85/69 77/86/70
f 77/86/70 101/85/69 103/87/71 79/88/72
f 79/88/72 103/87/71 105/89/73 81/90/74
f 81/90/74 105/89/73 107/91/75 83/92/76
f 83/92/76 107/91/75 109/93/77 85/94/78
f 85/94/78 109/93/77 111/95/79 87/96/80
f 87/96/80 111/95/79 113/97/81 89/98/82
f 89/98/82 113/97/81 115/99/83 91/100/84
f 91/100/84 115/99/83 117/80/64 93/79/63
f 51/101/85 50/102/86 63/103/86 64/104/85
f 45/105/87 46/106/87 94/107/87 97/108/87
f 73/109/88 95/110/89 99/84/68 75/83/67
f 71/82/66 96/81/65 95/110/89 73/109/88
f 46/106/87 47/111/87 98/112/87 94/107/87
f 56/113/87 45/105/87 97/108/87 116/114/87
f 48/115/87 49/116/87 102/117/87 100/118/87
f 49/116/87 50/119/87 104/120/87 102/117/87
f 50/119/87 51/121/87 106/122/87 104/120/87
f 51/121/87 52/123/87 108/124/87 106/122/87
f 52/123/87 53/125/87 110/126/87 108/124/87
f 53/125/87 54/127/87 112/128/87 110/126/87
f 54/127/87 55/129/87 114/130/87 112/128/87
f 55/129/87 56/113/87 116/114/87 114/130/87
f 47/111/87 48/115/87 100/118/87 98/112/87
f 47/131/90 46/132/91 58/133/91 60/134/90
f 48/135/92 47/131/90 60/134/90 61/136/92
f 45/137/93 56/138/94 69/139/94 59/140/93
f 55/141/95 54/142/96 67/143/96 68/144/95
f 52/145/97 51/101/85 64/104/85 65/146/97
f 49/147/98 48/135/92 61/136/92 62/148/98
f 56/138/94 55/141/95 68/144/95 69/139/94
f 53/149/99 52/145/97 65/146/97 66/150/99
f 50/102/86 49/147/98 62/148/98 63/103/86
f 54/142/96 53/149/99 66/150/99 67/143/96
f 58/151/100 59/152/101 118/153/101 119/154/100
f 60/155/102 58/151/100 119/154/100 120/156/102
f 61/157/103 60/155/102 120/156/102 121/158/103
f 62/159/104 61/157/103 121/158/103 122/160/104
f 63/161/105 62/159/104 122/160/104 123/162/105
f 64/163/106 63/161/105 123/162/105 124/164/107
f 65/165/108 64/163/106 124/164/107 125/166/108
f 66/167/109 65/165/108 125/166/108 126/168/109
f 67/169/110 66/167/109 126/168/109 127/170/110
f 68/171/111 67/169/110 127/170/110 128/172/111
f 69/173/112 68/171/111 128/172/111 129/174/112
f 59/152/101 69/173/112 129/174/112 118/153/101
f 46/132/91 45/137/93 59/140/93 58/133/91
f 71/82/113 73/109/88 72/175/114 70/176/115
f 95/177/89 96/178/65 97/179/116 94/180/117
f 73/109/88 75/83/67 74/181/118 72/175/114
f 99/182/68 95/177/89 94/180/117 98/183/119
f 75/83/67 77/86/70 76/184/120 74/181/118
f 101/185/69 99/182/68 98/183/119 100/186/121
f 77/86/70 79/88/72 78/187/122 76/184/120
f 103/188/71 101/185/69 100/186/121 102/189/123
f 79/88/72 81/90/74 80/190/124 78/187/122
f 105/191/73 103/188/71 102/189/123 104/192/125
f 81/90/74 83/92/76 82/193/126 80/190/124
f 107/194/75 105/191/73 104/192/125 106/195/127
f 83/92/76 85/94/128 84/196/129 82/193/126
f 109/197/77 107/194/75 106/195/127 108/198/130
f 85/94/128 87/96/131 86/199/132 84/196/129
f 111/200/79 109/197/77 108/198/130 110/201/133
f 87/96/131 89/98/134 88/202/135 86/199/132
f 113/203/81 111/200/79 110/201/133 112/204/136
f 89/98/134 91/100/137 90/205/138 88/202/135
f 115/206/83 113/203/81 112/204/136 114/207/139
f 91/100/137 93/79/140 92/208/141 90/205/138
f 117/209/64 115/206/83 114/207/139 116/210/142
f 93/79/140 71/82/113 70/176/115 92/208/141
f 96/178/65 117/209/64 116/210/142 97/179/116
f 70/176/115 72/175/114 74/181/27 76/184/27 78/187/122 80/190/124 82/193/126 84/196/129 86/199/132 88/202/135 90/205/138 92/208/141
f 57/211/87 119/212/143 118/213/144
f 57/211/87 120/214/145 119/212/143
f 57/211/87 121/215/146 120/214/145
f 57/211/87 122/216/147 121/215/146
f 57/211/87 123/217/148 122/216/147
f 57/211/87 124/218/149 123/217/148
f 57/211/87 125/219/150 124/218/149
f 57/211/87 126/220/151 125/219/150
f 57/211/87 127/221/152 126/220/151
f 57/211/87 128/222/153 127/221/152
f 57/211/87 129/223/154 128/222/153
f 57/211/87 118/213/144 129/223/154
f 30/1/1 26/4/4 131/74/58 140/224/155
f 29/76/60 30/1/1 140/224/155 141/78/62
f 32/8/8 27/10/10 132/68/54 138/225/156
f 31/6/6 32/8/8 138/225/156 139/75/59
f 34/14/14 144/16/16 147/226/157 136/227/158
f 33/12/12 34/14/14 136/227/158 137/69/55
f 36/228/159 11/229/160 130/230/160 148/231/161
f 35/60/47 36/228/159 148/231/161 149/61/48
f 36/232/159 35/233/47 142/18/18 143/20/20
f 35/233/47 28/234/46 144/16/16 142/18/18
f 11/235/160 36/232/159 143/20/20 145/22/22
f 130/236/160 11/235/160 145/22/22 146/77/61
f 28/234/46 133/237/46 147/226/157 144/16/16
f 148/238/161 130/236/160 146/77/61 134/239/162
f 133/237/46 149/240/48 135/241/163 147/226/157
f 149/240/48 148/238/161 134/239/162 135/241/163
f 135/25/25 134/48/40 22/51/42 23/26/26
