# Blender v3.4.1 OBJ File: 'December2024_Helpers_Assets_Export.blend'
# www.blender.org
mtllib Hammer.mtl
o Hammer
v -0.119874 0.272675 0.054562
v -0.119874 0.331807 0.111873
v -0.221873 0.331807 0.054562
v -0.119292 0.283796 0.100893
v -0.202112 0.288040 0.096695
v -0.207455 0.332389 0.100893
v -0.207455 0.283796 0.053979
v -0.119874 0.446250 0.111873
v -0.119874 0.505381 0.054562
v -0.221873 0.446250 0.054562
v -0.119292 0.494261 0.100893
v -0.202112 0.490016 0.096695
v -0.207455 0.494261 0.053979
v -0.207455 0.445667 0.100893
v -0.119874 0.272675 -0.054562
v -0.221873 0.331807 -0.054562
v -0.119874 0.331807 -0.111873
v -0.207455 0.283796 -0.053979
v -0.202112 0.288040 -0.096695
v -0.207455 0.332389 -0.100893
v -0.119292 0.283796 -0.100893
v -0.119874 0.505381 -0.054562
v -0.119874 0.446250 -0.111873
v -0.221873 0.446250 -0.054562
v -0.119292 0.494261 -0.100893
v -0.202112 0.490016 -0.096695
v -0.207455 0.445667 -0.100893
v -0.207455 0.494261 -0.053979
v 0.119874 0.272675 0.054562
v 0.221873 0.331807 0.054562
v 0.119874 0.331807 0.111873
v 0.207455 0.283796 0.053979
v 0.202112 0.288040 0.096695
v 0.207455 0.332389 0.100893
v 0.119292 0.283796 0.100893
v 0.119874 0.505381 0.054562
v 0.119874 0.446250 0.111873
v 0.221873 0.446250 0.054562
v 0.119292 0.494261 0.100893
v 0.202112 0.490016 0.096695
v 0.207455 0.445667 0.100893
v 0.207455 0.494261 0.053979
v 0.119874 0.272675 -0.054562
v 0.119874 0.331807 -0.111873
v 0.221873 0.331807 -0.054562
v 0.119292 0.283796 -0.100893
v 0.202112 0.288040 -0.096695
v 0.207455 0.332389 -0.100893
v 0.207455 0.283796 -0.053979
v 0.119874 0.505381 -0.054562
v 0.221873 0.446250 -0.054562
v 0.119874 0.446250 -0.111873
v 0.207455 0.494261 -0.053979
v 0.202112 0.490016 -0.096695
v 0.207455 0.445667 -0.100893
v 0.119292 0.494261 -0.100893
v -0.000000 -0.187536 -0.000001
v -0.000000 -0.140889 -0.064529
v -0.000000 0.537767 -0.000001
v -0.000000 0.491120 -0.064529
v 0.056775 -0.140889 -0.051862
v 0.056775 0.491120 -0.051862
v 0.091223 -0.140889 -0.019502
v 0.091223 0.491120 -0.019502
v 0.091223 -0.140889 0.019500
v 0.091223 0.491120 0.019500
v 0.056775 -0.140889 0.051860
v 0.056775 0.491120 0.051860
v -0.000000 -0.140889 0.064527
v -0.000000 0.491120 0.064527
v -0.056775 -0.140889 0.051860
v -0.056775 0.491120 0.051860
v -0.091223 -0.140889 0.019500
v -0.091223 0.491120 0.019500
v -0.091223 -0.140889 -0.019502
v -0.091223 0.491120 -0.019502
v -0.056775 -0.140889 -0.051862
v -0.056775 0.491120 -0.051862
v -0.000000 0.533461 -0.043678
v 0.043147 0.533461 -0.034664
v 0.068636 0.533461 -0.012706
v 0.068636 0.533461 0.012704
v 0.043147 0.533461 0.034662
v -0.000000 0.533461 0.043676
v -0.043147 0.533461 0.034662
v -0.068636 0.533461 0.012704
v -0.068636 0.533461 -0.012706
v -0.043147 0.533461 -0.034664
v 0.043147 -0.183229 -0.034664
v -0.000000 -0.183229 -0.043678
v 0.068636 -0.183229 -0.012706
v 0.068636 -0.183229 0.012704
v 0.043147 -0.183229 0.034662
v -0.000000 -0.183229 0.043676
v -0.043147 -0.183229 0.034662
v -0.068636 -0.183229 0.012704
v -0.068636 -0.183229 -0.012706
v -0.043147 -0.183229 -0.034664
v -0.000000 0.001550 -0.059989
v -0.000000 0.175116 -0.054729
v -0.000000 0.348682 -0.059989
v 0.050988 0.348682 -0.048489
v 0.046341 0.175116 -0.044277
v 0.050988 0.001550 -0.048489
v -0.050988 0.001550 -0.048489
v -0.046341 0.175116 -0.044277
v -0.050988 0.348682 -0.048489
v 0.082406 0.348682 -0.018471
v 0.074981 0.175116 -0.016913
v 0.082406 0.001550 -0.018471
v 0.082406 0.348682 0.018469
v 0.074981 0.175116 0.016911
v 0.082406 0.001550 0.018469
v 0.050988 0.348682 0.048487
v 0.046341 0.175116 0.044275
v 0.050988 0.001550 0.048487
v -0.000000 0.348682 0.059987
v -0.000000 0.175116 0.054727
v -0.000000 0.001550 0.059987
v -0.050988 0.348682 0.048487
v -0.046341 0.175116 0.044275
v -0.050988 0.001550 0.048487
v -0.082406 0.348682 0.018469
v -0.074981 0.175116 0.016911
v -0.082406 0.001550 0.018469
v -0.082406 0.348682 -0.018471
v -0.074981 0.175116 -0.016913
v -0.082406 0.001550 -0.018471
vt 0.451619 0.375914
vt 0.451619 0.399378
vt 0.407443 0.399378
vt 0.407443 0.375914
vt 0.470414 0.375914
vt 0.470414 0.399378
vt 0.470414 0.399378
vt 0.470414 0.375914
vt 0.451619 0.411501
vt 0.407443 0.411501
vt 0.407443 0.411501
vt 0.451619 0.411501
vt 0.388648 0.375914
vt 0.388648 0.399378
vt 0.388648 0.399378
vt 0.388648 0.375914
vt 0.407443 0.375914
vt 0.407443 0.399378
vt 0.451619 0.399378
vt 0.451619 0.375914
vt 0.407443 0.363791
vt 0.407550 0.366071
vt 0.392290 0.366941
vt 0.391305 0.366071
vt 0.391305 0.376034
vt 0.407550 0.409221
vt 0.392290 0.408351
vt 0.391305 0.399258
vt 0.391305 0.409221
vt 0.407443 0.363791
vt 0.391305 0.366071
vt 0.392290 0.366941
vt 0.407550 0.366071
vt 0.391305 0.376034
vt 0.407550 0.409221
vt 0.392290 0.408351
vt 0.391305 0.409221
vt 0.391305 0.399258
vt 0.451619 0.363791
vt 0.467757 0.366071
vt 0.466773 0.366941
vt 0.451512 0.366071
vt 0.467757 0.376034
vt 0.451512 0.409221
vt 0.466773 0.408351
vt 0.467757 0.409221
vt 0.467757 0.399258
vt 0.451619 0.363791
vt 0.451512 0.366071
vt 0.466773 0.366941
vt 0.467757 0.366071
vt 0.467757 0.376034
vt 0.467757 0.409221
vt 0.466773 0.408351
vt 0.451512 0.409221
vt 0.467757 0.399258
vt 0.809192 0.398458
vt 0.809192 0.424341
vt 0.814274 0.424341
vt 0.814274 0.398458
vt 0.822498 0.398458
vt 0.822498 0.424341
vt 0.822498 0.424341
vt 0.822498 0.398458
vt 0.819357 0.424341
vt 0.819357 0.398458
vt 0.814274 0.424341
vt 0.814274 0.398458
vt 0.809192 0.424341
vt 0.809192 0.398458
vt 0.806051 0.424341
vt 0.806051 0.398458
vt 0.806051 0.424341
vt 0.806051 0.398458
vt 0.819357 0.398458
vt 0.819357 0.424341
vt 0.814274 0.352059
vt 0.819357 0.352059
vt 0.818830 0.350435
vt 0.814274 0.350435
vt 0.819357 0.455591
vt 0.814274 0.455591
vt 0.814274 0.457215
vt 0.818830 0.457215
vt 0.822498 0.352059
vt 0.821195 0.350435
vt 0.822498 0.455591
vt 0.821195 0.457215
vt 0.822498 0.352059
vt 0.821195 0.350435
vt 0.822498 0.455591
vt 0.821195 0.457215
vt 0.819357 0.352059
vt 0.818830 0.350435
vt 0.819357 0.455591
vt 0.818830 0.457215
vt 0.814274 0.352059
vt 0.814274 0.350435
vt 0.814274 0.455591
vt 0.814274 0.457215
vt 0.809192 0.352059
vt 0.809718 0.350435
vt 0.809192 0.455591
vt 0.809718 0.457215
vt 0.806051 0.352059
vt 0.807354 0.350435
vt 0.806051 0.455591
vt 0.807354 0.457215
vt 0.806051 0.352059
vt 0.807354 0.350435
vt 0.806051 0.455591
vt 0.807354 0.457215
vt 0.809192 0.352059
vt 0.809718 0.350435
vt 0.809192 0.455591
vt 0.809718 0.457215
vt 0.814274 0.425965
vt 0.818830 0.425965
vt 0.814274 0.425965
vt 0.821195 0.425965
vt 0.821195 0.425965
vt 0.818830 0.425965
vt 0.814274 0.425965
vt 0.809718 0.425965
vt 0.807354 0.425965
vt 0.807354 0.425965
vt 0.809718 0.425965
vt 0.814274 0.319185
vt 0.814274 0.319185
vt 0.818830 0.319185
vt 0.821195 0.319185
vt 0.821195 0.319185
vt 0.818830 0.319185
vt 0.814274 0.319185
vt 0.809718 0.319185
vt 0.807354 0.319185
vt 0.807354 0.319185
vt 0.809718 0.319185
vt 0.814274 0.320809
vt 0.814274 0.346692
vt 0.819357 0.346692
vt 0.819357 0.320809
vt 0.814274 0.372575
vt 0.819357 0.372575
vt 0.822498 0.346692
vt 0.822498 0.320809
vt 0.822498 0.372575
vt 0.806051 0.320809
vt 0.806051 0.346692
vt 0.809192 0.346692
vt 0.809192 0.320809
vt 0.806051 0.372575
vt 0.809192 0.372575
vt 0.806051 0.320809
vt 0.806051 0.346692
vt 0.806051 0.372575
vt 0.809192 0.320809
vt 0.809192 0.346692
vt 0.809192 0.372575
vt 0.814274 0.320809
vt 0.814274 0.346692
vt 0.814274 0.372575
vt 0.819357 0.320809
vt 0.819357 0.346692
vt 0.819357 0.372575
vt 0.822498 0.320809
vt 0.822498 0.346692
vt 0.822498 0.372575
vn 0.0545 -0.0979 0.9937
vn 0.0545 0.0979 0.9937
vn -0.0545 0.0979 0.9937
vn -0.0545 -0.0979 0.9937
vn 0.9832 -0.1269 -0.1312
vn 0.9832 0.1269 -0.1312
vn 0.9832 0.1269 0.1312
vn 0.9832 -0.1269 0.1312
vn 0.0552 0.9932 -0.1026
vn -0.0552 0.9932 -0.1026
vn -0.0552 0.9932 0.1026
vn 0.0552 0.9932 0.1026
vn -0.9832 -0.1269 0.1312
vn -0.9832 0.1269 0.1312
vn -0.9832 0.1269 -0.1312
vn -0.9832 -0.1269 -0.1312
vn -0.0545 -0.0979 -0.9937
vn -0.0545 0.0979 -0.9937
vn 0.0545 0.0979 -0.9937
vn 0.0545 -0.0979 -0.9937
vn -0.0552 -0.9932 0.1026
vn -0.0545 -0.7028 0.7093
vn -0.5069 -0.6060 0.6130
vn -0.6518 -0.7493 0.1172
vn -0.6483 -0.1124 0.7530
vn -0.0545 0.7028 0.7093
vn -0.5069 0.6060 0.6130
vn -0.6483 0.1124 0.7530
vn -0.6518 0.7493 0.1172
vn -0.0552 -0.9932 -0.1026
vn -0.6518 -0.7493 -0.1172
vn -0.5069 -0.6060 -0.6130
vn -0.0545 -0.7028 -0.7093
vn -0.6483 -0.1124 -0.7530
vn -0.0545 0.7028 -0.7093
vn -0.5069 0.6060 -0.6130
vn -0.6518 0.7493 -0.1172
vn -0.6483 0.1124 -0.7530
vn 0.0552 -0.9932 0.1026
vn 0.6518 -0.7493 0.1172
vn 0.5069 -0.6060 0.6130
vn 0.0545 -0.7028 0.7093
vn 0.6483 -0.1124 0.7530
vn 0.0545 0.7028 0.7093
vn 0.5069 0.6060 0.6130
vn 0.6518 0.7493 0.1172
vn 0.6483 0.1124 0.7530
vn 0.0552 -0.9932 -0.1026
vn 0.0545 -0.7028 -0.7093
vn 0.5069 -0.6060 -0.6130
vn 0.6518 -0.7493 -0.1172
vn 0.6483 -0.1124 -0.7530
vn 0.6518 0.7493 -0.1172
vn 0.5069 0.6060 -0.6130
vn 0.0545 0.7028 -0.7093
vn 0.6483 0.1124 -0.7530
vn -0.4700 -0.0372 -0.8819
vn -0.4620 0.2030 -0.8633
vn 0.0000 0.2014 -0.9795
vn 0.0000 -0.0313 -0.9995
vn 0.9173 -0.0509 -0.3949
vn 0.8993 0.2109 -0.3830
vn 0.8993 0.2109 0.3830
vn 0.9173 -0.0509 0.3949
vn 0.4620 0.2030 0.8633
vn 0.4700 -0.0372 0.8819
vn -0.0000 0.2014 0.9795
vn -0.0000 -0.0313 0.9995
vn -0.4620 0.2030 0.8633
vn -0.4700 -0.0372 0.8819
vn -0.8993 0.2109 0.3830
vn -0.9173 -0.0509 0.3949
vn -0.8993 0.2109 -0.3830
vn -0.9173 -0.0509 -0.3949
vn 0.4700 -0.0372 -0.8819
vn 0.4620 0.2030 -0.8633
vn 0.0000 -0.2014 -0.9795
vn 0.4620 -0.2030 -0.8633
vn 0.2720 -0.7929 -0.5453
vn 0.0000 -0.7909 -0.6120
vn 0.0000 0.7909 -0.6120
vn 0.2720 0.7929 -0.5453
vn 0.8993 -0.2109 -0.3830
vn 0.5563 -0.7901 -0.2575
vn 0.5563 0.7901 -0.2575
vn 0.8993 -0.2109 0.3830
vn 0.5563 -0.7901 0.2575
vn 0.5563 0.7901 0.2575
vn 0.4620 -0.2030 0.8633
vn 0.2720 -0.7929 0.5453
vn 0.2720 0.7929 0.5453
vn -0.0000 -0.2014 0.9795
vn -0.0000 -0.7909 0.6120
vn -0.0000 0.7909 0.6120
vn -0.4620 -0.2030 0.8633
vn -0.2720 -0.7929 0.5453
vn -0.2720 0.7929 0.5453
vn -0.8993 -0.2109 0.3830
vn -0.5563 -0.7901 0.2575
vn -0.5563 0.7901 0.2575
vn -0.8993 -0.2109 -0.3830
vn -0.5563 -0.7901 -0.2575
vn -0.5563 0.7901 -0.2575
vn -0.4620 -0.2030 -0.8633
vn -0.2720 -0.7929 -0.5453
vn -0.2720 0.7929 -0.5453
vn 0.0000 1.0000 -0.0000
vn 0.0000 -1.0000 -0.0000
vn 0.0000 0.0313 -0.9995
vn 0.4700 0.0372 -0.8819
vn 0.0000 -0.0000 -1.0000
vn 0.4708 0.0000 -0.8823
vn 0.9173 0.0509 -0.3949
vn 0.9186 0.0000 -0.3952
vn -0.9173 0.0509 -0.3949
vn -0.4700 0.0372 -0.8819
vn -0.9186 0.0000 -0.3952
vn -0.4708 -0.0000 -0.8823
vn -0.9173 0.0509 0.3949
vn -0.9186 0.0000 0.3952
vn -0.4700 0.0372 0.8819
vn -0.4708 0.0000 0.8823
vn -0.0000 0.0313 0.9995
vn -0.0000 0.0000 1.0000
vn 0.4700 0.0372 0.8819
vn 0.4708 -0.0000 0.8823
vn 0.9173 0.0509 0.3949
vn 0.9186 -0.0000 0.3952
usemtl helpers
s 1
f 31/1/1 37/2/2 8/3/3 2/4/4
f 45/5/5 51/6/6 38/7/7 30/8/8
f 50/9/9 22/10/10 9/11/11 36/12/12
f 3/13/13 10/14/14 24/15/15 16/16/16
f 17/17/17 23/18/18 52/19/19 44/20/20
f 1/21/21 4/22/22 5/23/23 7/24/24
f 2/4/4 6/25/25 5/23/23 4/22/22
f 3/13/13 7/24/24 5/23/23 6/25/25
f 8/3/3 11/26/26 12/27/27 14/28/28
f 9/11/11 13/29/29 12/27/27 11/26/26
f 10/14/14 14/28/28 12/27/27 13/29/29
f 15/30/30 18/31/31 19/32/32 21/33/33
f 16/16/16 20/34/34 19/32/32 18/31/31
f 17/17/17 21/33/33 19/32/32 20/34/34
f 22/10/10 25/35/35 26/36/36 28/37/37
f 23/18/18 27/38/38 26/36/36 25/35/35
f 24/15/15 28/37/37 26/36/36 27/38/38
f 29/39/39 32/40/40 33/41/41 35/42/42
f 30/8/8 34/43/43 33/41/41 32/40/40
f 31/1/1 35/42/42 33/41/41 34/43/43
f 36/12/12 39/44/44 40/45/45 42/46/46
f 37/2/2 41/47/47 40/45/45 39/44/44
f 38/7/7 42/46/46 40/45/45 41/47/47
f 43/48/48 46/49/49 47/50/50 49/51/51
f 44/20/20 48/52/52 47/50/50 46/49/49
f 45/5/5 49/51/51 47/50/50 48/52/52
f 50/9/9 53/53/53 54/54/54 56/55/55
f 51/6/6 55/56/56 54/54/54 53/53/53
f 52/19/19 56/55/55 54/54/54 55/56/56
f 15/30/30 1/21/21 7/24/24 18/31/31
f 18/31/31 7/24/24 3/13/13 16/16/16
f 2/4/4 8/3/3 14/28/28 6/25/25
f 6/25/25 14/28/28 10/14/14 3/13/13
f 9/11/11 22/10/10 28/37/37 13/29/29
f 13/29/29 28/37/37 24/15/15 10/14/14
f 23/18/18 17/17/17 20/34/34 27/38/38
f 27/38/38 20/34/34 16/16/16 24/15/15
f 43/48/48 15/30/30 21/33/33 46/49/49
f 46/49/49 21/33/33 17/17/17 44/20/20
f 22/10/10 50/9/9 56/55/55 25/35/35
f 25/35/35 56/55/55 52/19/19 23/18/18
f 51/6/6 45/5/5 48/52/52 55/56/56
f 55/56/56 48/52/52 44/20/20 52/19/19
f 29/39/39 43/48/48 49/51/51 32/40/40
f 32/40/40 49/51/51 45/5/5 30/8/8
f 50/9/9 36/12/12 42/46/46 53/53/53
f 53/53/53 42/46/46 38/7/7 51/6/6
f 37/2/2 31/1/1 34/43/43 41/47/47
f 41/47/47 34/43/43 30/8/8 38/7/7
f 1/21/21 29/39/39 35/42/42 4/22/22
f 4/22/22 35/42/42 31/1/1 2/4/4
f 36/12/12 9/11/11 11/26/26 39/44/44
f 39/44/44 11/26/26 8/3/3 37/2/2
f 15/30/30 43/48/48 29/39/39 1/21/21
f 107/57/57 78/58/58 60/59/59 101/60/60
f 108/61/61 64/62/62 66/63/63 111/64/64
f 111/64/64 66/63/63 68/65/65 114/66/66
f 114/66/66 68/65/65 70/67/67 117/68/68
f 117/68/68 70/67/67 72/69/69 120/70/70
f 120/70/70 72/69/69 74/71/71 123/72/72
f 123/72/72 74/71/71 76/73/73 126/74/74
f 126/74/74 76/73/73 78/58/58 107/57/57
f 102/75/75 62/76/76 64/62/62 108/61/61
f 101/60/60 60/59/59 62/76/76 102/75/75
f 58/77/77 61/78/78 89/79/79 90/80/80
f 62/81/76 60/82/59 79/83/81 80/84/82
f 61/78/78 63/85/83 91/86/84 89/79/79
f 64/87/62 62/81/76 80/84/82 81/88/85
f 63/85/83 65/89/86 92/90/87 91/86/84
f 66/91/63 64/87/62 81/88/85 82/92/88
f 65/89/86 67/93/89 93/94/90 92/90/87
f 68/95/65 66/91/63 82/92/88 83/96/91
f 67/93/89 69/97/92 94/98/93 93/94/90
f 70/99/67 68/95/65 83/96/91 84/100/94
f 69/97/92 71/101/95 95/102/96 94/98/93
f 72/103/69 70/99/67 84/100/94 85/104/97
f 71/101/95 73/105/98 96/106/99 95/102/96
f 74/107/71 72/103/69 85/104/97 86/108/100
f 73/105/98 75/109/101 97/110/102 96/106/99
f 76/111/73 74/107/71 86/108/100 87/112/103
f 75/109/101 77/113/104 98/114/105 97/110/102
f 78/115/58 76/111/73 87/112/103 88/116/106
f 77/113/104 58/77/77 90/80/80 98/114/105
f 60/82/59 78/115/58 88/116/106 79/83/81
f 59/117/107 80/118/82 79/119/81
f 59/117/107 81/120/85 80/118/82
f 59/117/107 82/121/88 81/120/85
f 59/117/107 83/122/91 82/121/88
f 59/117/107 84/123/94 83/122/91
f 59/117/107 85/124/97 84/123/94
f 59/117/107 86/125/100 85/124/97
f 59/117/107 87/126/103 86/125/100
f 59/117/107 88/127/106 87/126/103
f 59/117/107 79/119/81 88/127/106
f 57/128/108 90/129/80 89/130/79
f 57/128/108 89/130/79 91/131/84
f 57/128/108 91/131/84 92/132/87
f 57/128/108 92/132/87 93/133/90
f 57/128/108 93/133/90 94/134/93
f 57/128/108 94/134/93 95/135/96
f 57/128/108 95/135/96 96/136/99
f 57/128/108 96/136/99 97/137/102
f 57/128/108 97/137/102 98/138/105
f 57/128/108 98/138/105 90/129/80
f 58/139/77 99/140/109 104/141/110 61/142/78
f 99/140/109 100/143/111 103/144/112 104/141/110
f 100/143/111 101/60/60 102/75/75 103/144/112
f 61/142/78 104/141/110 110/145/113 63/146/83
f 104/141/110 103/144/112 109/147/114 110/145/113
f 103/144/112 102/75/75 108/61/61 109/147/114
f 75/148/101 128/149/115 105/150/116 77/151/104
f 128/149/115 127/152/117 106/153/118 105/150/116
f 127/152/117 126/74/74 107/57/57 106/153/118
f 73/154/98 125/155/119 128/149/115 75/148/101
f 125/155/119 124/156/120 127/152/117 128/149/115
f 124/156/120 123/72/72 126/74/74 127/152/117
f 71/157/95 122/158/121 125/155/119 73/154/98
f 122/158/121 121/159/122 124/156/120 125/155/119
f 121/159/122 120/70/70 123/72/72 124/156/120
f 69/160/92 119/161/123 122/158/121 71/157/95
f 119/161/123 118/162/124 121/159/122 122/158/121
f 118/162/124 117/68/68 120/70/70 121/159/122
f 67/163/89 116/164/125 119/161/123 69/160/92
f 116/164/125 115/165/126 118/162/124 119/161/123
f 115/165/126 114/66/66 117/68/68 118/162/124
f 65/166/86 113/167/127 116/164/125 67/163/89
f 113/167/127 112/168/128 115/165/126 116/164/125
f 112/168/128 111/64/64 114/66/66 115/165/126
f 63/146/83 110/145/113 113/167/127 65/166/86
f 110/145/113 109/147/114 112/168/128 113/167/127
f 109/147/114 108/61/61 111/64/64 112/168/128
f 77/151/104 105/150/116 99/140/109 58/139/77
f 105/150/116 106/153/118 100/143/111 99/140/109
f 106/153/118 107/57/57 101/60/60 100/143/111
